<?xml version="1.0" encoding="utf-8"?>
<!-- Generator: Adobe Illustrator 26.4.1, SVG Export Plug-In . SVG Version: 6.00 Build 0)  -->
<svg version="1.1" id="Layer_1" xmlns="http://www.w3.org/2000/svg" xmlns:xlink="http://www.w3.org/1999/xlink" x="0px" y="0px"
	 viewBox="0 0 2000 2000" style="enable-background:new 0 0 2000 2000;" xml:space="preserve">
<style type="text/css">
	.st0{fill-rule:evenodd;clip-rule:evenodd;fill:#145468;}
	.st1{fill-rule:evenodd;clip-rule:evenodd;fill:#3B7A7A;}
	.st2{fill-rule:evenodd;clip-rule:evenodd;fill:#098B8D;}
	.st3{fill-rule:evenodd;clip-rule:evenodd;fill:#689595;}
	.st4{fill-rule:evenodd;clip-rule:evenodd;fill:#679595;}
	.st5{fill-rule:evenodd;clip-rule:evenodd;fill:#CEE4E4;}
	
		.st6{fill-rule:evenodd;clip-rule:evenodd;fill:#145468;stroke:#CEE4E4;stroke-width:5;stroke-linecap:round;stroke-linejoin:round;stroke-miterlimit:10;}
	.st7{fill-rule:evenodd;clip-rule:evenodd;fill:#043A60;}
	.st8{fill-rule:evenodd;clip-rule:evenodd;fill:#FD9A65;}
	.st9{fill-rule:evenodd;clip-rule:evenodd;fill:#18658D;}
	.st10{fill-rule:evenodd;clip-rule:evenodd;fill:#9FCDE5;}
	.st11{fill-rule:evenodd;clip-rule:evenodd;fill:#56A8D3;}
	.st12{fill-rule:evenodd;clip-rule:evenodd;fill:#276383;}
	.st13{fill-rule:evenodd;clip-rule:evenodd;fill:#E0F0F8;}
	.st14{fill-rule:evenodd;clip-rule:evenodd;fill:#A51E1C;}
	.st15{fill-rule:evenodd;clip-rule:evenodd;fill:#CB442D;}
	.st16{fill-rule:evenodd;clip-rule:evenodd;fill:#DC5A44;}
	.st17{fill-rule:evenodd;clip-rule:evenodd;fill:#F7BD54;}
	.st18{fill-rule:evenodd;clip-rule:evenodd;fill:#E46B37;}
	.st19{fill-rule:evenodd;clip-rule:evenodd;fill:#B67227;}
	.st20{fill-rule:evenodd;clip-rule:evenodd;fill:#D78A35;}
	.st21{fill-rule:evenodd;clip-rule:evenodd;fill:#A4331F;}
	.st22{fill-rule:evenodd;clip-rule:evenodd;fill:#F2A550;}
	.st23{fill-rule:evenodd;clip-rule:evenodd;fill:#F9E9D6;}
	.st24{fill-rule:evenodd;clip-rule:evenodd;fill:#844013;}
	.st25{fill-rule:evenodd;clip-rule:evenodd;fill:#A04E18;}
	.st26{fill-rule:evenodd;clip-rule:evenodd;fill:#F8B872;}
	.st27{fill-rule:evenodd;clip-rule:evenodd;fill:#FFC689;}
	.st28{fill-rule:evenodd;clip-rule:evenodd;fill:#B6844D;}
	.st29{fill-rule:evenodd;clip-rule:evenodd;fill:#CA5320;}
	.st30{fill-rule:evenodd;clip-rule:evenodd;fill:#D76332;}
	.st31{fill-rule:evenodd;clip-rule:evenodd;fill:#812F0C;}
	.st32{fill-rule:evenodd;clip-rule:evenodd;fill:#8A460F;}
	.st33{fill-rule:evenodd;clip-rule:evenodd;fill:#B46914;}
	.st34{fill-rule:evenodd;clip-rule:evenodd;fill:#B54515;}
	.st35{fill-rule:evenodd;clip-rule:evenodd;fill:#FFCD71;}
	.st36{fill-rule:evenodd;clip-rule:evenodd;fill:#95B41D;}
	.st37{fill-rule:evenodd;clip-rule:evenodd;fill:#A8C731;}
	.st38{fill-rule:evenodd;clip-rule:evenodd;fill:#85A214;}
	.st39{fill-rule:evenodd;clip-rule:evenodd;fill:#C6EF28;}
	.st40{fill-rule:evenodd;clip-rule:evenodd;fill:#ED982B;}
	.st41{fill-rule:evenodd;clip-rule:evenodd;fill:#FCCF7C;}
	.st42{fill-rule:evenodd;clip-rule:evenodd;fill:#FFE8BC;}
	.st43{fill-rule:evenodd;clip-rule:evenodd;fill:#ED6961;}
	.st44{fill-rule:evenodd;clip-rule:evenodd;fill:#696E1E;}
	.st45{fill-rule:evenodd;clip-rule:evenodd;fill:#9CA42A;}
	.st46{fill-rule:evenodd;clip-rule:evenodd;fill:#7F8615;}
	.st47{fill-rule:evenodd;clip-rule:evenodd;fill:#FFEECF;}
	.st48{fill-rule:evenodd;clip-rule:evenodd;fill:#77786D;}
	.st49{fill-rule:evenodd;clip-rule:evenodd;fill:#D3D5C6;}
	.st50{fill-rule:evenodd;clip-rule:evenodd;fill:#7C7A7A;}
	.st51{fill-rule:evenodd;clip-rule:evenodd;fill:#DBDCD9;}
	.st52{fill-rule:evenodd;clip-rule:evenodd;fill:#CA372D;}
	.st53{fill-rule:evenodd;clip-rule:evenodd;fill:#FE7D75;}
	.st54{fill-rule:evenodd;clip-rule:evenodd;fill:#B0B0B0;}
	.st55{fill-rule:evenodd;clip-rule:evenodd;fill:#888787;}
	.st56{fill-rule:evenodd;clip-rule:evenodd;fill:#6E6E6E;}
	.st57{fill-rule:evenodd;clip-rule:evenodd;fill:#757575;}
	.st58{fill-rule:evenodd;clip-rule:evenodd;fill:#60341E;}
	.st59{fill-rule:evenodd;clip-rule:evenodd;fill:#B0451B;}
	.st60{fill-rule:evenodd;clip-rule:evenodd;fill:#8A4727;}
	.st61{fill-rule:evenodd;clip-rule:evenodd;fill:#FABB64;}
	.st62{fill-rule:evenodd;clip-rule:evenodd;fill:#3E88AF;}
	.st63{fill-rule:evenodd;clip-rule:evenodd;fill:#5BA0C5;}
	.st64{fill-rule:evenodd;clip-rule:evenodd;fill:#FFF1DE;}
	.st65{fill-rule:evenodd;clip-rule:evenodd;fill:#F8B89B;}
	.st66{fill-rule:evenodd;clip-rule:evenodd;fill:#E98A5F;}
	.st67{fill-rule:evenodd;clip-rule:evenodd;fill:#FFCAB3;}
	.st68{fill-rule:evenodd;clip-rule:evenodd;fill:#F9A580;}
	.st69{fill-rule:evenodd;clip-rule:evenodd;fill:#FFDFD2;}
	.st70{fill-rule:evenodd;clip-rule:evenodd;fill:#E2A85C;}
	.st71{fill-rule:evenodd;clip-rule:evenodd;fill:#C68446;}
	.st72{fill-rule:evenodd;clip-rule:evenodd;fill:#F2BC75;}
	.st73{fill-rule:evenodd;clip-rule:evenodd;fill:#F2BC76;}
	.st74{fill-rule:evenodd;clip-rule:evenodd;fill:#FFD69F;}
	.st75{fill-rule:evenodd;clip-rule:evenodd;fill:#E7624B;}
	.st76{fill-rule:evenodd;clip-rule:evenodd;fill:#FFEED9;}
	.st77{fill-rule:evenodd;clip-rule:evenodd;fill:#C26E11;}
	.st78{fill-rule:evenodd;clip-rule:evenodd;fill:#F39226;}
	.st79{fill-rule:evenodd;clip-rule:evenodd;fill:#DF5020;}
	.st80{fill-rule:evenodd;clip-rule:evenodd;fill:#2C140B;}
	.st81{fill-rule:evenodd;clip-rule:evenodd;fill:#FFFFFF;}
	.st82{fill-rule:evenodd;clip-rule:evenodd;}
	.st83{fill-rule:evenodd;clip-rule:evenodd;fill:#A96F3E;}
	.st84{fill-rule:evenodd;clip-rule:evenodd;fill:#683A15;}
	.st85{fill-rule:evenodd;clip-rule:evenodd;fill:#F0DCCB;}
	.st86{fill-rule:evenodd;clip-rule:evenodd;fill:#E6D1B6;}
	.st87{fill-rule:evenodd;clip-rule:evenodd;fill:#69553C;}
</style>
<g>
	<path class="st29" d="M1741.58,1368.53c19.16-43.41-102.46-499.49-198.75-549.66c-205.64-107.15-953.44-111.14-1159.89-33.34
		c-99.28,37.41-191.73,567.67-183.7,580.63C217.08,1394.91,1702.37,1457.38,1741.58,1368.53L1741.58,1368.53z"/>
	<path class="st30" d="M335.6,839.04c-3.49-5.05-157.4,388.26-100.46,434.08c70.07,56.41,427.03,194.08,525.4,185.97
		c75.12-6.19,194.39-1.69,193.56-15.14c-5.94-96.49-190.46-240.58-211.34-272.42c-77.26-117.8-68.82-160.37-170.51-217.45
		C513.69,921.23,365.37,882.15,335.6,839.04L335.6,839.04z"/>
	<path class="st31" d="M994.36,978.47c362.28,16.76,585.96-88.19,567.86-146.25c-17.3-55.51-369.84-100.8-658.61-108.24
		c-146.02-3.77-545.96,25.83-546.88,86.54C355.2,911.44,713.22,965.47,994.36,978.47L994.36,978.47z"/>
	<path class="st32" d="M401.52,871.66c-8.4-5.76,22.03-21.56,24.56-25.56c54.86-87,94.19-26.32,116.76-37.54
		c16.2-8.05,19.5-32.26,31.37-51.47c11.16-18.05,30.38-31.29,59.57-34.67c21.33-2.47,31.72,14.78,43.76,11.31
		c9.61-2.78,53.99-24.56,85.63-28.48c41.82-5.18,53.08,11.54,81.27,11.61c13.34,0.03,49.02-36.53,88.78-36.44
		c85.03,0.19,108.38,58.41,125.79,60.25c29.68,3.14,42.48-11.89,71.92-6.91c27.87,4.72,37.83,19.64,37.83,19.64
		s8.67-11.42,28.44-18.81c21.93-8.2,42.49-6.05,61.57,7.5c13.92,9.89,13.78,18.77,16.47,17.47c8.38-4.05,19.32-12.41,49.23-18.49
		c22.9-4.65,66.57,12.28,76.33,31.54c9.18,18.13,5.59,41.2,6.46,41.15c8.84-0.52,36.4-5.73,58.27,6.75
		c36.15,20.63,43.58,64.55,38.54,75.56c-8.77,19.15-173.97,70.99-259,80.09c-99.87,10.69-229.04,3.84-374.55-2.28
		C694.91,966.49,464,914.53,401.52,871.66L401.52,871.66z"/>
	<path class="st33" d="M497.73,862.3c2.84-18.22,16.98-26.78,27.94-28.35c8.24-1.18,14.01,2.87,19.39,7.59
		c4.74,4.17,9.18,8.94,14,12.87c5.88,4.79,12.32,8.36,20.01,9.23c10.67,1.2,24.44-2.83,43.33-19.21c3.16-2.73,3.49-7.51,0.76-10.67
		c-2.73-3.15-7.51-3.49-10.67-0.76c-14.09,12.22-23.76,16.5-31.72,15.6c-7.64-0.86-13.04-6.42-18.62-11.77
		c-10.73-10.29-21.7-20.28-38.62-17.85c-15.91,2.28-36.61,14.54-40.74,41c-0.64,4.12,2.18,7.99,6.31,8.64
		C493.22,869.25,497.09,866.43,497.73,862.3L497.73,862.3z"/>
	<path class="st33" d="M709.99,800.72c-0.3-3.59-1.12-11.95-2.78-18.5c-3.87-15.26-13.49-31.62-39.71-32.58
		c-34.48-1.26-49.01,29.85-42.18,52.02c1.23,3.99,5.47,6.23,9.46,5c3.99-1.23,6.23-5.47,5-9.46c-4.32-14.01,5.37-33.25,27.17-32.45
		c26.27,0.96,26.82,25.67,27.76,35.95c0.35,3.82,0.96,6.57,1.58,7.82c0.95,1.92,2.25,3.02,3.47,3.7
		c10.06,5.56,15.09,12.81,13.23,20.3c-2.1,8.45-11.53,15.71-27.04,20.4c-4,1.21-6.26,5.43-5.05,9.43c1.21,4,5.43,6.26,9.43,5.05
		c22.29-6.73,34.33-19.08,37.34-31.23C730.74,823.81,725.4,810.39,709.99,800.72L709.99,800.72z"/>
	<path class="st33" d="M684.08,812.06c-19.25-2.69-32.99,12.48-37.38,31.13c-4.31,18.26,0.96,38.63,15.58,46.01
		c3.73,1.88,8.28,0.38,10.16-3.35c1.88-3.73,0.38-8.28-3.35-10.16c-4.03-2.04-6.39-6.08-7.67-10.71c-1.55-5.64-1.45-12.19,0-18.32
		c2.57-10.9,9.32-21.19,20.57-19.62c4.13,0.58,7.96-2.31,8.54-6.44C691.1,816.46,688.21,812.63,684.08,812.06L684.08,812.06z"/>
	<path class="st33" d="M821.97,808.3c-4.46-12.41,1.92-25.82,11.16-35.94c9.25-10.14,21.64-17.52,31.17-15.98
		c4.73,0.77,7.82,2.16,9.76,4.33c1.94,2.18,2.66,4.95,3.23,7.78c0.71,3.55,1.06,7.24,1.72,10.75c1.2,6.38,3.44,12.15,8.25,16.47
		c3.23,2.9,7.68,5.23,14.11,6.37c4.11,0.73,8.04-2.02,8.77-6.13c0.73-4.11-2.02-8.04-6.13-8.77c-10.2-1.8-10-9.43-11.01-16.43
		c-1.11-7.64-2.84-15.12-8.23-20.75c-3.76-3.92-9.29-7.13-18.03-8.55c-13.41-2.18-31.73,6.43-44.76,20.71
		c-13.05,14.3-20.53,33.71-14.22,51.25c1.41,3.93,5.75,5.97,9.68,4.56C821.34,816.57,823.38,812.23,821.97,808.3L821.97,808.3z"/>
	<path class="st33" d="M853.45,803.05c-15.51,11.83-21.73,32.7-15.73,47.3c4.23,10.31,14.15,18.39,31.73,18.29
		c4.17-0.02,7.55-3.43,7.53-7.6c-0.02-4.18-3.43-7.54-7.61-7.52c-7.33,0.04-12.51-1.88-15.57-5.46c-2.68-3.14-3.55-7.35-3.21-11.71
		c0.6-7.7,4.97-15.87,12.04-21.27c3.32-2.53,3.96-7.28,1.43-10.6C861.52,801.16,856.77,800.52,853.45,803.05L853.45,803.05z"/>
	<path class="st33" d="M899.05,897.57c7.55,0.59,16.58,1.02,23.52,2.85c2.68,0.7,5.12,1.19,6.13,2.82c0.44,0.72-0.21,1.53-0.79,2.75
		c-1.74,3.67-5.41,8.11-11.33,13.74c-3.02,2.88-3.14,7.67-0.27,10.69c2.88,3.02,7.67,3.14,10.69,0.27
		c9.55-9.08,14.24-16.26,15.92-21.63c1.76-5.62,0.9-10.11-1.34-13.75c-2.14-3.48-5.9-6.31-10.97-8.21
		c-8.15-3.05-20.4-3.83-30.39-4.61c-4.16-0.32-7.8,2.79-8.13,6.95C891.77,893.6,894.89,897.24,899.05,897.57L899.05,897.57z"/>
	<path class="st33" d="M794.09,844.1c-11.5,8.44-18.3,23.42-17.89,36.61c0.31,9.84,4.45,18.65,12.79,23.93
		c8.68,5.5,15.98,5.91,23.42,5.17c5.37-0.53,10.82-1.96,17.43-1.04c20.96,2.9,30.46,18.25,29.84,31.08
		c-0.21,4.17,3.01,7.72,7.18,7.93c4.17,0.2,7.72-3.01,7.93-7.18c0.93-18.91-11.99-42.53-42.87-46.81
		c-6.59-0.91-12.25-0.14-17.67,0.57c-5.55,0.73-10.78,1.55-17.16-2.5c-3.99-2.52-5.61-6.92-5.76-11.62
		c-0.27-8.62,4.2-18.42,11.71-23.94c3.37-2.47,4.1-7.21,1.62-10.57C802.2,842.36,797.46,841.63,794.09,844.1L794.09,844.1z"/>
	<path class="st33" d="M987.69,819.74c-0.24-3.15,1.14-6.79,3.26-10.56c3.92-6.98,10.63-14.1,18.45-19.31
		c11.78-7.84,26.46-11.73,37.4-1c5.27,5.17,5.4,10.15,4.83,14.59c-0.36,2.77-0.93,5.4-1.21,7.86c-0.48,4.21-0.17,8.05,1.49,11.49
		c1.68,3.5,4.75,6.84,10.74,9.4c3.84,1.64,8.29-0.15,9.93-3.99c1.64-3.84-0.15-8.28-3.99-9.92c-1.58-0.67-2.66-1.16-3.06-2.09
		c-0.49-1.13-0.18-2.42,0.01-3.81c0.34-2.52,0.92-5.21,1.23-8.04c0.89-8.05,0.1-16.99-9.36-26.27
		c-16.49-16.18-38.62-12.62-56.38-0.8c-9.9,6.59-18.29,15.66-23.26,24.49c-3.8,6.77-5.59,13.49-5.16,19.12
		c0.32,4.16,3.95,7.28,8.12,6.97C984.88,827.54,988,823.91,987.69,819.74L987.69,819.74z"/>
	<path class="st33" d="M953.32,753.78c-1.46-2.16-0.01-4.61,1.72-6.94c4.42-5.98,13.13-11.06,20.89-10.92
		c7.99,0.14,12.82,7.18,11.69,24.17c-0.28,4.17,2.88,7.77,7.05,8.05c4.17,0.28,7.77-2.88,8.05-7.04
		c1.38-20.71-5.2-31.61-13.35-36.62c-5.4-3.31-11.86-4.29-18.46-3.33c-8.69,1.26-17.64,5.97-23.9,12.03
		c-9.13,8.83-12.18,20.27-6.19,29.11c2.34,3.45,7.05,4.36,10.5,2.01C954.76,761.94,955.66,757.23,953.32,753.78L953.32,753.78z"/>
	<path class="st33" d="M974.8,861.04c-5.08,7.32-6.86,14.49-6.4,21.21c0.68,9.7,6.24,18.73,14.86,26.05
		c11.49,9.75,28.47,16.48,43.66,18.1c11.1,1.18,21.27-0.46,28.24-4.88c34.27-21.69,41.1-58.41,13.96-74.65
		c-14.2-8.5-35.03-1.95-44.96,10.24c-7.5,9.2-9.33,20.93-0.23,31.62c2.71,3.18,7.48,3.56,10.66,0.85c3.18-2.71,3.56-7.48,0.85-10.66
		c-4.7-5.52-1.3-11.52,3.79-15.5c6.18-4.85,15.39-7.6,22.13-3.57c8.11,4.85,10.68,12.68,8.69,20.9
		c-2.41,9.93-10.61,20.16-22.97,27.99c-3.7,2.34-8.89,3.07-14.59,2.89c-9.98-0.31-21.43-3.66-30.92-9.01
		c-13.46-7.59-23.74-19.42-14.34-32.95c2.38-3.43,1.53-8.14-1.89-10.53C981.9,856.76,977.18,857.61,974.8,861.04L974.8,861.04z"/>
	<path class="st33" d="M1116.42,818.8c2.89-23.02,36.67-18.4,35.58,3.55c-0.21,4.17,3.01,7.72,7.18,7.93
		c4.17,0.21,7.72-3.01,7.93-7.18c2.01-40.52-60.37-48.66-65.7-6.19c-0.52,4.14,2.42,7.93,6.56,8.45
		C1112.12,825.89,1115.9,822.95,1116.42,818.8L1116.42,818.8z"/>
	<path class="st33" d="M1065.07,951.8c2.36,3.93,6.8,7.12,13.05,8.85c10.44,2.89,26.95,1.88,42.44-2.81
		c13.44-4.06,26.02-10.87,33.46-19.58c5.88-6.87,8.82-14.89,7.59-23.8c-0.57-4.13-4.39-7.03-8.53-6.46
		c-4.14,0.57-7.03,4.39-6.46,8.52c0.8,5.84-2.34,10.73-7.04,14.87c-6,5.28-14.52,9.28-23.41,11.97c-10.82,3.27-22.23,4.59-30.63,3.4
		c-2.24-0.32-4.24-0.81-5.83-1.57c-0.71-0.34-1.35-0.63-1.68-1.17c-2.15-3.58-6.8-4.74-10.38-2.59
		C1064.08,943.57,1062.92,948.22,1065.07,951.8L1065.07,951.8z"/>
	<path class="st33" d="M1138.07,898.49c14.38-16.23,31.68-7.84,46.15-0.88c7.36,3.54,14.18,7.01,19.94,8.64
		c5.52,1.56,10.39,1.51,14.4-0.18c3.85-1.62,5.66-6.06,4.04-9.91c-1.62-3.85-6.06-5.65-9.91-4.04c-1.82,0.77-4.04-0.22-6.69-1.18
		c-7.06-2.56-15.5-7.44-24.49-11.18c-18.02-7.5-37.76-10.51-54.77,8.68c-2.77,3.12-2.48,7.91,0.64,10.68
		C1130.51,901.9,1135.29,901.61,1138.07,898.49L1138.07,898.49z"/>
	<path class="st33" d="M1322.45,833.04c-3.16-3.22-4.6-6.56-4.38-9.76c0.56-8.02,9.84-13.96,19.34-12.83
		c6.64,0.79,13.34,5.17,18.56,14.19c2.37,4.08,2.15,8.78,0.36,13.15c-3.25,7.92-11.41,14.82-21.62,17.28
		c-4.06,0.98-6.56,5.06-5.59,9.12c0.98,4.06,5.06,6.56,9.12,5.59c15.29-3.67,27.21-14.38,32.08-26.23
		c3.62-8.81,3.51-18.24-1.25-26.48c-8.25-14.25-19.4-20.4-29.88-21.64c-18.45-2.19-35.13,11.24-36.22,26.8
		c-0.48,6.9,1.84,14.44,8.67,21.4c2.92,2.98,7.72,3.02,10.7,0.1C1325.32,840.81,1325.37,836.02,1322.45,833.04L1322.45,833.04z"/>
	<path class="st33" d="M1302.01,879.66c-2.35,4.94-2.28,9.13-1.03,12.68c1.18,3.35,3.58,6.25,6.94,8.58
		c4.49,3.11,11.02,5.19,16.4,6.77c4,1.18,8.21-1.12,9.39-5.12c1.18-4-1.12-8.21-5.12-9.39c-3.3-0.97-7.19-2.07-10.38-3.71
		c-1.23-0.63-2.43-1.19-2.97-2.17c-0.18-0.32,0.19-0.64,0.43-1.13c1.79-3.77,0.19-8.29-3.57-10.08
		C1308.32,874.29,1303.81,875.89,1302.01,879.66L1302.01,879.66z"/>
	<path class="st33" d="M1336.94,942.76c13.11-1.79,17.95-9.51,20.79-18.69c1.18-3.82,1.9-7.94,3.18-11.62
		c1.08-3.08,2.72-5.77,7.08-6.35c4.14-0.55,7.05-4.36,6.5-8.5c-0.55-4.14-4.36-7.05-8.5-6.5c-12.68,1.69-17.33,9.34-20.08,18.61
		c-1.11,3.75-1.82,7.81-3.15,11.44c-1.18,3.23-3.11,5.97-7.87,6.62c-4.14,0.57-7.03,4.38-6.47,8.52
		C1328.98,940.43,1332.8,943.33,1336.94,942.76L1336.94,942.76z"/>
	<path class="st33" d="M1416.73,855.18c1.68-8.67,10.02-10.77,16.8-9.17c3.93,0.93,7.62,2.99,9.01,6.4c0.82,2,0.6,4.4-0.64,7.12
		c-1.73,3.8-0.05,8.29,3.75,10.02c3.8,1.73,8.29,0.05,10.02-3.75c3.3-7.26,3.07-13.73,0.87-19.1c-3.13-7.67-10.7-13.31-19.53-15.4
		c-14.49-3.43-31.55,2.47-35.13,21.03c-0.79,4.1,1.9,8.07,5.99,8.86C1411.97,861.96,1415.94,859.28,1416.73,855.18L1416.73,855.18z"
		/>
	<path class="st33" d="M1464.04,878.88c-1.2,2.65-2.41,4.38-3.95,5.34c-2.62,1.63-5.7,1.22-9.03,1.17
		c-9.78-0.16-21.01-0.28-33.14,11.93c-2.94,2.96-2.92,7.76,0.04,10.7c2.96,2.94,7.75,2.92,10.7-0.04
		c10.18-10.24,19.73-7.12,27.4-7.51c4.37-0.22,8.37-1.13,12.03-3.4c3.57-2.22,6.95-5.79,9.74-11.94c1.72-3.8,0.04-8.29-3.77-10.01
		C1470.25,873.39,1465.76,875.08,1464.04,878.88L1464.04,878.88z"/>
	<path class="st33" d="M1389.22,876.26c-7.05,5.42-9,13.27-7.26,21.33c2.15,10.03,10.66,20.27,19.89,24.09
		c3.86,1.6,8.28-0.24,9.88-4.1c1.6-3.86-0.24-8.28-4.1-9.88c-4.28-1.77-8.17-6.12-10.07-10.71c-1.3-3.14-1.89-6.61,0.88-8.74
		c3.31-2.55,3.93-7.3,1.39-10.61C1397.29,874.34,1392.54,873.71,1389.22,876.26L1389.22,876.26z"/>
	<path class="st33" d="M1240.75,765.25c-3.78-4.81-8.23-7.25-12.81-8.06c-6.35-1.12-13.31,1.06-19.57,6.1
		c-14.18,11.41-24.38,37.88-13.85,57.26c4.57,8.41,12.9,15.75,26.74,19.82c4,1.18,8.21-1.12,9.39-5.12c1.18-4-1.12-8.21-5.12-9.39
		c-10.23-3-16.18-8.29-18.74-14.74c-3.97-10.01-0.25-22.01,5.71-30.26c2.5-3.45,5.41-6.28,8.48-7.82c2.76-1.39,5.67-1.26,7.89,1.56
		c2.58,3.28,7.34,3.85,10.62,1.28C1242.76,773.29,1243.33,768.54,1240.75,765.25L1240.75,765.25z"/>
	<path class="st33" d="M1235.34,808.22c1.66-4.81,6.64-6.7,11.34-6.62c4.69,0.08,9.62,2.04,11.1,6.59c0.81,2.47,0.53,5.5-0.82,9.11
		c-1.46,3.91,0.53,8.27,4.44,9.73c3.91,1.46,8.27-0.53,9.73-4.44c2.81-7.53,2.71-13.92,1.03-19.08
		c-3.49-10.72-14.17-16.85-25.24-17.03c-11.06-0.18-21.99,5.51-25.89,16.81c-1.36,3.94,0.74,8.25,4.68,9.61
		C1229.67,814.27,1233.98,812.17,1235.34,808.22L1235.34,808.22z"/>
	<path class="st33" d="M1243.22,884.03c3.75-3.39,9.52-2.12,13.83,0.55c4.01,2.47,7.35,6.59,5.44,11.24
		c-1.58,3.86,0.26,8.28,4.12,9.87c3.86,1.58,8.29-0.26,9.87-4.12c4.89-11.92-1.23-23.52-11.49-29.86
		c-9.96-6.14-23.25-6.72-31.91,1.11c-3.09,2.8-3.34,7.59-0.54,10.68C1235.34,886.59,1240.12,886.83,1243.22,884.03L1243.22,884.03z"
		/>
	<path class="st33" d="M1223.53,933.65c0.45-0.3,1.17-0.74,1.81-0.99c1.88-0.73,4.29-1.25,7.29-1.58c4.15-0.45,7.15-4.19,6.7-8.34
		c-0.45-4.15-4.19-7.15-8.34-6.7c-11.77,1.28-17.94,5.55-20.63,9.71c-3.64,5.64-2.97,12.55,2.21,18.81
		c10.08,12.18,40.83,21.91,61.73-0.54c2.84-3.05,2.67-7.84-0.38-10.69c-3.05-2.84-7.85-2.67-10.69,0.38
		c-11.17,12-26.72,9.88-35.33,4.33C1226.07,936.85,1224.22,934.57,1223.53,933.65L1223.53,933.65z"/>
	<path class="st33" d="M1300.2,925.99c-0.3,0.42-1.15,1.62-1.76,2.19c-2.28,2.13-4.87,3.71-5.88,4.57
		c-3.17,2.72-3.54,7.49-0.83,10.66c2.72,3.17,7.49,3.54,10.66,0.83c1.47-1.26,5.76-3.95,8.7-7.46c2.87-3.42,4.58-7.48,4.29-11.79
		c-0.2-2.96-1.3-6.16-4.11-9.4c-2.73-3.16-7.51-3.51-10.67-0.78c-3.16,2.73-3.51,7.51-0.78,10.67
		C1299.95,925.62,1300.1,925.83,1300.2,925.99L1300.2,925.99z"/>
	<path class="st33" d="M1326.67,782.87c0.8-5.1,5.88-7.75,10.99-8.74c5.32-1.02,11.32-0.44,14.15,3.43
		c2.47,3.37,7.21,4.09,10.57,1.62c3.37-2.47,4.1-7.21,1.63-10.58c-5.97-8.14-18.02-11.49-29.21-9.33
		c-11.4,2.2-21.27,9.84-23.07,21.22c-0.65,4.12,2.17,8,6.29,8.65C1322.14,789.81,1326.02,786.99,1326.67,782.87L1326.67,782.87z"/>
	<path class="st33" d="M742.9,862.77c-9.16,0.03-15.38,2.9-19.43,6.75c-6.94,6.6-8.1,16.77-4.74,25.69
		c5.01,13.3,19.26,22.9,34.54,13.32c3.54-2.22,4.61-6.89,2.39-10.42c-2.22-3.54-6.89-4.61-10.42-2.39
		c-5.64,3.53-10.5-0.93-12.35-5.84c-1.22-3.23-1.5-7.01,1.01-9.4c1.85-1.76,4.86-2.56,9.06-2.58c4.17-0.02,7.55-3.42,7.53-7.59
		C750.48,866.13,747.08,862.76,742.9,862.77L742.9,862.77z"/>
	<path class="st33" d="M746.14,933.97c4.09,10.07,9.93,15.01,15.7,17.36c8.67,3.53,17.89,1.02,23.49-1.46
		c3.81-1.69,5.54-6.16,3.85-9.98c-1.69-3.81-6.16-5.54-9.98-3.85c-2.79,1.24-7.33,3.04-11.65,1.28c-2.89-1.17-5.35-4.02-7.4-9.05
		c-1.57-3.87-5.99-5.73-9.85-4.16C746.43,925.69,744.57,930.1,746.14,933.97L746.14,933.97z"/>
	<path class="st33" d="M807.86,938.45c7.75-3.54,15.02-1.92,19.03,2.14c1.89,1.91,3.06,4.38,2.36,6.82c-1.14,4.02,1.2,8.2,5.21,9.34
		c4.01,1.14,8.2-1.19,9.34-5.21c1.65-5.82,0.62-11.85-2.59-17.06c-6.41-10.41-22.24-17.74-39.64-9.8
		c-3.79,1.73-5.47,6.22-3.74,10.02C799.57,938.51,804.06,940.19,807.86,938.45L807.86,938.45z"/>
	<path class="st33" d="M743.37,763.69c-0.48-3.45-0.12-6.18,1.23-8.17c2.02-2.98,5.87-3.96,9.93-3.99
		c8.52-0.07,18.55,4.42,22.5,12.69c1.8,3.76,6.32,5.36,10.09,3.56c3.77-1.8,5.36-6.32,3.56-10.09c-6.45-13.48-22.4-21.4-36.27-21.29
		c-9.38,0.07-17.66,3.73-22.33,10.62c-3.12,4.6-4.8,10.77-3.69,18.75c0.58,4.13,4.4,7.02,8.54,6.44
		C741.06,771.65,743.95,767.83,743.37,763.69L743.37,763.69z"/>
	<path class="st33" d="M612.4,871.83c-7.46-5.81-15.49-4.48-22.05,1.12c-7.55,6.45-12.39,19.53-9.85,29.14
		c2.77,10.51,14.14,20.57,42.31,9.43c3.88-1.53,5.79-5.93,4.25-9.82c-1.54-3.88-5.93-5.79-9.82-4.25
		c-6.34,2.51-11.4,3.73-15.39,3.84c-2.77,0.08-4.76-0.24-5.92-1.47c-1.23-1.32-1.2-3.31-0.93-5.26c0.4-3,1.74-6.09,3.58-8.43
		c0.7-0.89,1.46-1.66,2.3-2.22c0.69-0.46,1.47-0.72,2.22-0.15c3.3,2.57,8.05,1.97,10.61-1.32
		C616.29,879.15,615.69,874.39,612.4,871.83L612.4,871.83z"/>
	<path class="st33" d="M496.63,895.54c2.78-1.84,4.09-5.38,2.99-8.69c-1.32-3.96-5.61-6.1-9.57-4.78
		c-8.87,2.96-11.11,7.6-11.45,10.88c-0.22,2.19,0.25,4.57,1.79,7.06c1.41,2.28,4.32,5.04,7.73,8.41c2.97,2.94,7.76,2.91,10.7-0.06
		c2.94-2.97,2.91-7.76-0.06-10.7C498.08,897.01,497.34,896.27,496.63,895.54L496.63,895.54z"/>
	<path class="st33" d="M592.36,806.06c-2.6-2.87-1.19-6.6,0.8-9.58c1.35-2.02,3.14-3.79,5.05-4.99c1.22-0.76,2.43-1.42,3.59-1.3
		c4.15,0.41,7.86-2.64,8.26-6.79c0.41-4.16-2.64-7.86-6.79-8.27c-7.49-0.73-17.15,4.65-22.69,12.95
		c-5.82,8.71-7.04,19.72,0.55,28.12c2.8,3.1,7.58,3.34,10.68,0.54C594.92,813.94,595.16,809.15,592.36,806.06L592.36,806.06z"/>
	<path class="st34" d="M1366.18,980.42c66.55,143.46-43.99,332.61-159.35,417.88c-5.05,3.73,415.69-21.81,466.75-73.37
		c45.32-45.77-20.95-333.92-125.43-401.23C1518.27,904.46,1366.18,980.42,1366.18,980.42L1366.18,980.42z"/>
	<path class="st35" d="M368.28,793.71c-2.25,66.95,210.57,125.65,295.5,145.75c263.55,62.38,594.34,45.26,730.26-0.17
		c115.67-38.66,165.34-80.08,165.66-111.74c0.06-5.72,42.41,50.06,38.52,56.92c-34.38,60.55-157.19,116.73-232.53,133.36
		c-198.58,43.86-459.75,58.02-744.66-17.66C487.1,964.61,336.62,900.1,322.6,862.8C315.49,843.86,368.72,780.41,368.28,793.71
		L368.28,793.71z"/>
	<path class="st35" d="M225.75,1203.33c1.82-11.06-43.18,46.83-51.17,90.2c-8.42,45.67-13.95,98.41,24.06,117.96
		c172.53,88.75,559.08,131.63,822.71,131.98c209.24,0.28,705.08-84.4,753.97-166.33c26.9-45.07-50.83-150-51.69-146.27
		c-4.57,19.8-14.72,38.98-42.47,52.6c-102.75,50.44-404.4,114.93-646.82,119.74c-184.63,3.67-600.36-43.99-782.17-137.68
		C218.72,1248.3,224.15,1213.07,225.75,1203.33L225.75,1203.33z"/>
	<path class="st29" d="M197.22,1265.52c6.58,14.41,19.16,27.95,36.57,40.4c24.75,17.68,59.49,33.37,99.67,47.1
		c153.79,52.52,388.23,76.79,437.22,81.37c4.16,0.39,7.85-2.67,8.24-6.83c0.39-4.16-2.67-7.85-6.83-8.23
		c-48.6-4.55-281.18-28.52-433.74-80.62c-38.59-13.18-72-28.12-95.77-45.09c-14.92-10.66-25.97-22.02-31.6-34.37
		c-1.73-3.8-6.22-5.47-10.02-3.74C197.16,1257.23,195.48,1261.72,197.22,1265.52L197.22,1265.52z"/>
	<path class="st29" d="M266.25,1363.61c129.37,70.22,302.77,85.82,446.73,99.11c4.16,0.38,7.84-2.68,8.23-6.84
		c0.38-4.16-2.68-7.84-6.84-8.23c-142.05-13.12-313.25-28.05-440.9-97.34c-3.67-1.99-8.26-0.63-10.26,3.04
		C261.22,1357.03,262.58,1361.62,266.25,1363.61L266.25,1363.61z"/>
	<path class="st29" d="M877.48,1468.27c138.86,16.51,359.22,4.14,550.54-37.93c128.26-28.21,243.46-69.87,312.84-124.8
		c3.27-2.59,3.83-7.35,1.24-10.63c-2.59-3.27-7.35-3.83-10.63-1.23c-67.98,53.83-181.03,94.25-306.7,121.89
		c-189.58,41.69-407.91,54.04-545.51,37.69c-4.15-0.49-7.91,2.47-8.4,6.62C870.37,1464.01,873.34,1467.78,877.48,1468.27
		L877.48,1468.27z"/>
	<path class="st29" d="M1045.56,1507.8c222.59-4.1,480.9-39.18,623-118.78c3.64-2.04,4.94-6.65,2.9-10.29
		c-2.04-3.64-6.65-4.94-10.3-2.9c-140.45,78.68-395.88,112.8-615.89,116.85c-4.17,0.08-7.5,3.53-7.42,7.7
		C1037.93,1504.55,1041.38,1507.88,1045.56,1507.8L1045.56,1507.8z"/>
	<path class="st29" d="M1169.11,1429.94c115.35-3.34,273.44-32.82,348.09-53.2c4.02-1.1,6.4-5.26,5.3-9.29s-5.26-6.41-9.29-5.31
		c-73.89,20.17-230.36,49.36-344.54,52.67c-4.17,0.12-7.46,3.61-7.34,7.78C1161.45,1426.77,1164.94,1430.06,1169.11,1429.94
		L1169.11,1429.94z"/>
</g>
</svg>
