<?xml version="1.0" encoding="utf-8"?>
<!-- Generator: Adobe Illustrator 26.4.1, SVG Export Plug-In . SVG Version: 6.00 Build 0)  -->
<svg version="1.1" id="Layer_1" xmlns="http://www.w3.org/2000/svg" xmlns:xlink="http://www.w3.org/1999/xlink" x="0px" y="0px"
	 viewBox="0 0 2000 2000" style="enable-background:new 0 0 2000 2000;" xml:space="preserve">
<style type="text/css">
	.st0{fill-rule:evenodd;clip-rule:evenodd;fill:#F49E23;}
	.st1{fill-rule:evenodd;clip-rule:evenodd;fill:#D14D36;}
	.st2{fill-rule:evenodd;clip-rule:evenodd;fill:#FDF0D3;}
	.st3{fill-rule:evenodd;clip-rule:evenodd;fill:#0C427E;}
	.st4{fill-rule:evenodd;clip-rule:evenodd;fill:#B45A25;}
	.st5{fill-rule:evenodd;clip-rule:evenodd;fill:#EC8C28;}
	.st6{fill-rule:evenodd;clip-rule:evenodd;fill:#EE9726;}
	.st7{fill-rule:evenodd;clip-rule:evenodd;fill:#302574;}
	.st8{fill-rule:evenodd;clip-rule:evenodd;fill:#F3B953;}
	.st9{fill-rule:evenodd;clip-rule:evenodd;fill:#3D648F;}
	.st10{fill-rule:evenodd;clip-rule:evenodd;fill:#145468;}
	.st11{fill-rule:evenodd;clip-rule:evenodd;fill:#3B7A7A;}
	.st12{fill-rule:evenodd;clip-rule:evenodd;fill:#098B8D;}
	.st13{fill-rule:evenodd;clip-rule:evenodd;fill:#689595;}
	.st14{fill-rule:evenodd;clip-rule:evenodd;fill:#679595;}
	.st15{fill-rule:evenodd;clip-rule:evenodd;fill:#CEE4E4;}
	
		.st16{fill-rule:evenodd;clip-rule:evenodd;fill:#145468;stroke:#CEE4E4;stroke-width:5;stroke-linecap:round;stroke-linejoin:round;stroke-miterlimit:10;}
	.st17{fill-rule:evenodd;clip-rule:evenodd;fill:#043A60;}
	.st18{fill-rule:evenodd;clip-rule:evenodd;fill:#FD9A65;}
	.st19{fill-rule:evenodd;clip-rule:evenodd;fill:#18658D;}
	.st20{fill-rule:evenodd;clip-rule:evenodd;fill:#9FCDE5;}
	.st21{fill-rule:evenodd;clip-rule:evenodd;fill:#56A8D3;}
	.st22{fill-rule:evenodd;clip-rule:evenodd;fill:#276383;}
	.st23{fill-rule:evenodd;clip-rule:evenodd;fill:#E0F0F8;}
	.st24{fill-rule:evenodd;clip-rule:evenodd;fill:#A51E1C;}
	.st25{fill-rule:evenodd;clip-rule:evenodd;fill:#CB442D;}
	.st26{fill-rule:evenodd;clip-rule:evenodd;fill:#DC5A44;}
	.st27{fill-rule:evenodd;clip-rule:evenodd;fill:#F7BD54;}
	.st28{fill-rule:evenodd;clip-rule:evenodd;fill:#E46B37;}
	.st29{fill-rule:evenodd;clip-rule:evenodd;fill:#B67227;}
	.st30{fill-rule:evenodd;clip-rule:evenodd;fill:#D78A35;}
	.st31{fill-rule:evenodd;clip-rule:evenodd;fill:#A4331F;}
	.st32{fill-rule:evenodd;clip-rule:evenodd;fill:#F2A550;}
	.st33{fill-rule:evenodd;clip-rule:evenodd;fill:#F9E9D6;}
	.st34{fill-rule:evenodd;clip-rule:evenodd;fill:#844013;}
	.st35{fill-rule:evenodd;clip-rule:evenodd;fill:#A04E18;}
	.st36{fill-rule:evenodd;clip-rule:evenodd;fill:#F8B872;}
	.st37{fill-rule:evenodd;clip-rule:evenodd;fill:#FFC689;}
	.st38{fill-rule:evenodd;clip-rule:evenodd;fill:#B6844D;}
	.st39{fill-rule:evenodd;clip-rule:evenodd;fill:#CA5320;}
	.st40{fill-rule:evenodd;clip-rule:evenodd;fill:#D76332;}
	.st41{fill-rule:evenodd;clip-rule:evenodd;fill:#812F0C;}
	.st42{fill-rule:evenodd;clip-rule:evenodd;fill:#8A460F;}
	.st43{fill-rule:evenodd;clip-rule:evenodd;fill:#B46914;}
	.st44{fill-rule:evenodd;clip-rule:evenodd;fill:#B54515;}
	.st45{fill-rule:evenodd;clip-rule:evenodd;fill:#FFCD71;}
	.st46{fill-rule:evenodd;clip-rule:evenodd;fill:#95B41D;}
	.st47{fill-rule:evenodd;clip-rule:evenodd;fill:#A8C731;}
	.st48{fill-rule:evenodd;clip-rule:evenodd;fill:#85A214;}
	.st49{fill-rule:evenodd;clip-rule:evenodd;fill:#C6EF28;}
	.st50{fill-rule:evenodd;clip-rule:evenodd;fill:#ED982B;}
	.st51{fill-rule:evenodd;clip-rule:evenodd;fill:#FCCF7C;}
	.st52{fill-rule:evenodd;clip-rule:evenodd;fill:#FFE8BC;}
	.st53{fill-rule:evenodd;clip-rule:evenodd;fill:#ED6961;}
	.st54{fill-rule:evenodd;clip-rule:evenodd;fill:#696E1E;}
	.st55{fill-rule:evenodd;clip-rule:evenodd;fill:#9CA42A;}
	.st56{fill-rule:evenodd;clip-rule:evenodd;fill:#7F8615;}
	.st57{fill-rule:evenodd;clip-rule:evenodd;fill:#FFEECF;}
	.st58{fill-rule:evenodd;clip-rule:evenodd;fill:#77786D;}
	.st59{fill-rule:evenodd;clip-rule:evenodd;fill:#D3D5C6;}
	.st60{fill-rule:evenodd;clip-rule:evenodd;fill:#7C7A7A;}
	.st61{fill-rule:evenodd;clip-rule:evenodd;fill:#DBDCD9;}
	.st62{fill-rule:evenodd;clip-rule:evenodd;fill:#CA372D;}
	.st63{fill-rule:evenodd;clip-rule:evenodd;fill:#FE7D75;}
	.st64{fill-rule:evenodd;clip-rule:evenodd;fill:#B0B0B0;}
	.st65{fill-rule:evenodd;clip-rule:evenodd;fill:#888787;}
	.st66{fill-rule:evenodd;clip-rule:evenodd;fill:#6E6E6E;}
	.st67{fill-rule:evenodd;clip-rule:evenodd;fill:#757575;}
	.st68{fill-rule:evenodd;clip-rule:evenodd;fill:#60341E;}
	.st69{fill-rule:evenodd;clip-rule:evenodd;fill:#B0451B;}
	.st70{fill-rule:evenodd;clip-rule:evenodd;fill:#8A4727;}
	.st71{fill-rule:evenodd;clip-rule:evenodd;fill:#FABB64;}
	.st72{fill-rule:evenodd;clip-rule:evenodd;fill:#3E88AF;}
	.st73{fill-rule:evenodd;clip-rule:evenodd;fill:#5BA0C5;}
	.st74{fill-rule:evenodd;clip-rule:evenodd;fill:#FFF1DE;}
	.st75{fill-rule:evenodd;clip-rule:evenodd;fill:#F8B89B;}
	.st76{fill-rule:evenodd;clip-rule:evenodd;fill:#E98A5F;}
	.st77{fill-rule:evenodd;clip-rule:evenodd;fill:#FFCAB3;}
	.st78{fill-rule:evenodd;clip-rule:evenodd;fill:#F9A580;}
	.st79{fill-rule:evenodd;clip-rule:evenodd;fill:#FFDFD2;}
	.st80{fill-rule:evenodd;clip-rule:evenodd;fill:#E2A85C;}
	.st81{fill-rule:evenodd;clip-rule:evenodd;fill:#C68446;}
	.st82{fill-rule:evenodd;clip-rule:evenodd;fill:#F2BC75;}
	.st83{fill-rule:evenodd;clip-rule:evenodd;fill:#F2BC76;}
	.st84{fill-rule:evenodd;clip-rule:evenodd;fill:#FFD69F;}
	.st85{fill-rule:evenodd;clip-rule:evenodd;fill:#E7624B;}
	.st86{fill-rule:evenodd;clip-rule:evenodd;fill:#F6E8DB;}
	.st87{fill-rule:evenodd;clip-rule:evenodd;fill:#FC9EB6;}
	.st88{fill-rule:evenodd;clip-rule:evenodd;fill:#FFFFFF;}
</style>
<g>
	<path class="st86" d="M1114.32,317.15c0.67-3.33,16.09-31.94,31.77-103.43c9.92-45.22,13.91-135.92-18.31-141.86
		c-41.1-7.58-157.16,87.75-186.59,136.81c-5.61,9.36-58.25-47.94-193.07-30.8c-74.24,9.44-181.59,84.04-236.57,212.18
		c-70.45,164.21-82.2,387.51,28.52,473.87c60.75,47.38,158.79,42.96,185.95-9.74c10.5-20.38-12.06,158.21-49.44,288.43
		c-33.15,115.47-80.55,411.27-87.18,419.32c-48.52,58.94-76.52-84.94-145.82-18.28c-49.59,47.71-2.12,151.73,59.91,154.87
		c30.17,1.53,42.12,1.12,43.28,4.93c5.57,18.18-27.15,6.65-63.56,42.22c-36.17,35.34-27.03,109.68,26.23,132.45
		c70.67,30.22,133.4-9.9,159.1-52.58c31.25-51.92,27.87-118.18,41.28-131.65c1.08-1.09,63.52,8.34,127.16,8.34
		c23.89,0,174.92,3.49,174.92,3.49c2.63,2.63,3.15,38.79-14.76,66.02c-12.18,18.52-57.71,57.45-53.63,101.31
		c3.6,38.65,43.61,64.84,94.8,50.8c79.72-21.87,74.06-116.62,84.73-163.84c8.89-39.31,13.43-87.77,14.78-97.5
		c1.36-9.8,13.89-9.82,38.52-30.56c13.23-11.14,40.54-37.87,43.11-35.31c8.93,8.93,19.28,42.7,19.63,55.48
		c1.9,69.23-24.89,47.62-63.13,71.82c-39.55,25.03-27.59,123.57,24.39,122.17c121.81-3.28,225.43-200.06,251.22-240.11
		c59.08-91.72,54.25-177.43,54.52-191.13c0.11-5.87,60.71-62.04,93.44-129.48c43.89-90.44,77.91-216.7,50.89-225.76
		c-15.11-5.07-56.06,113.55-87.11,169.08c-17.92,32.04-72.84,103.87-73.12,103.6c-2.45-2.46-62.19-183.47-103.05-292.95
		c-55.53-148.78-96.89-204.28-117.29-257.7c-23.93-62.67-53.16-221.69-85.67-322.74C1161.41,388.18,1113.19,322.69,1114.32,317.15
		L1114.32,317.15z"/>
	<path class="st87" d="M1016.42,1486.49c-1.24-81.75-63.89-145.81-139.06-143.08c-64.11,2.33-118.53,44.81-122.99,86.36
		c-1.66,15.47-8.01,40.36-10.31,57.25c-3.26,23.93-10.3,58.55,8,101.28c15.02,35.06,57.08,84.03,100.03,93.75
		c74.14,16.78,140.63-30.69,159.05-87.48C1022.15,1560.6,1017.1,1531.62,1016.42,1486.49L1016.42,1486.49z"/>
	<path class="st3" d="M721.61,538.98c1.99,33.17,21.65,70.67,75.32,57.1c111.49-28.2,174.59-173.49,92.29-219.75
		C834.22,345.41,714.9,427.37,721.61,538.98L721.61,538.98z"/>
	<path class="st88" d="M784.68,501.25c0.27,6.32,3.4,14.91,12.11,16.87c18.11,4.07,28.57-17.61,15.3-33.05
		C803.24,474.75,783.77,480,784.68,501.25L784.68,501.25z"/>
	<path class="st3" d="M820.96,1571.48c3.04,6.7,10.21,14.08,20.65,10.73c21.7-6.96,23.81-37.11,2.51-45.57
		C829.89,1531,810.74,1548.94,820.96,1571.48L820.96,1571.48z"/>
	<path class="st3" d="M548.69,464.63c-1.59,6.88-1.11,17.31,6.71,22.82c16.24,11.44,32.66-7.7,24.43-29.44
		C574.33,443.49,554.06,441.5,548.69,464.63L548.69,464.63z"/>
	<path class="st3" d="M495.22,805.87c-2.84,19.53,2.65,46.57,31.09,54.12c59.07,15.7,107.48-49.33,71.64-99.26
		C573.99,727.38,504.79,740.17,495.22,805.87L495.22,805.87z"/>
	<path class="st0" d="M704.43,1017.82c-9.95-2.91,8.93-118.56,15-117.8c64.75,8.05,187.24-22.78,253.14-40.86
		c100.47-27.56,197.2-88.08,283.53-146.9c12.84-8.75,46.57,113.99,43.72,116.31c-21.51,17.57-128.48,92.45-306.09,156.64
		C867.02,1030.99,755.09,1032.62,704.43,1017.82L704.43,1017.82z"/>
	<path class="st87" d="M784.91,777.81c9.06-7.16,24.49-6.13,34.59-1.99c30.98,12.71,15.18,44.56-22.29,49.86
		c-13.01,1.84-30.1-0.75-35.85-3.91C755.98,818.83,775.22,785.47,784.91,777.81L784.91,777.81z"/>
	<path class="st3" d="M525.76,848.97c6.46,17.19,21.65,31.04,41.15,40.58c27.67,13.54,63.96,18.47,93.09,13.41
		c36.74-6.38,67.05-27.71,90.91-54.37c34.97-39.06,56-89.47,63.71-118.42c1.17-4.38-1.44-8.88-5.82-10.05
		c-4.38-1.17-8.88,1.44-10.05,5.82c-7.28,27.3-27.1,74.85-60.08,111.69c-21.44,23.95-48.48,43.41-81.48,49.14
		c-25.99,4.51-58.37,0.1-83.06-11.98c-15.41-7.54-27.89-18.01-33-31.6c-1.59-4.24-6.34-6.39-10.58-4.8
		C526.31,839.99,524.16,844.73,525.76,848.97L525.76,848.97z"/>
	<path class="st3" d="M704.68,194.02c5.82,16.01-135.29,130.66-150.37,121.93c-36.95-21.41-123.52-214.68-87.08-227.28
		C521.68,69.85,685.7,141.8,704.68,194.02L704.68,194.02z"/>
	<path class="st3" d="M972.43,241.89c1.7-18.91,85.67-81.51,93.75-67.35c16.91,29.63-2.78,97.65-10.17,113.43
		C1047.7,305.71,970.73,260.79,972.43,241.89L972.43,241.89z"/>
	<path class="st3" d="M733.71,977.81c-13.16,5-48.53-10.88-68.45-18.38c-23.09-8.71-8.09-21.32,17.1-26.06
		c26.22-4.94,53.3-11.35,61.86-3.94C752.78,936.83,746.87,972.8,733.71,977.81L733.71,977.81z"/>
	<path class="st3" d="M892.96,996.7c0.39,14.07-26.25,42.24-39.9,58.57c-15.83,18.94-22.79,0.62-18.97-24.73
		c3.97-26.38,6.84-54.06,16.65-59.7C860.55,965.19,892.57,982.62,892.96,996.7L892.96,996.7z"/>
	<path class="st3" d="M953.11,897.76c7.09-12.16-2.78-49.66-6.93-70.53c-4.81-24.21-19.7-11.47-28.51,12.61
		c-9.16,25.06-19.92,50.72-14.01,60.38C909.57,909.86,946.02,909.92,953.11,897.76L953.11,897.76z"/>
	<path class="st3" d="M1270.25,803.54c13.99,1.59,44.34-22.53,61.78-34.73c20.23-14.15,2.57-22.65-23.01-21.03
		c-26.63,1.69-54.45,2.18-60.91,11.47C1241.65,768.55,1256.26,801.94,1270.25,803.54L1270.25,803.54z"/>
	<path class="st3" d="M1172.71,891.5c9.07,10.76,47.71,14.07,68.76,17.18c24.42,3.61,17.42-14.7-2.29-31.09
		c-20.52-17.05-41.08-35.81-52.15-33.49C1175.95,846.42,1163.64,880.74,1172.71,891.5L1172.71,891.5z"/>
	<path class="st3" d="M1071.41,856.57c-11.06-8.71-15.65-47.21-19.45-68.15c-4.41-24.29,14.12-17.9,31.15,1.26
		c17.73,19.94,37.15,39.86,35.2,51.01C1116.36,851.83,1082.47,865.28,1071.41,856.57L1071.41,856.57z"/>
	<path class="st3" d="M792.47,1210.57c-17.8,63.62-50.57,300.22-86.42,466.12c-15.23,70.47-30.92,128.11-46.35,153.83
		c-53.64,89.4-215.33,65.32-189.42-54.31c4.29-19.83,21.18-28.98,38.6-37.84c19.41-9.88,39.52-19.38,48.08-38.78
		c24.85-56.28,42.18-188.58,54.22-242.44c0.5-2.23-0.9-4.44-3.13-4.94c-2.23-0.5-4.44,0.91-4.94,3.13
		c-11.97,53.51-29.03,185-53.72,240.91c-7.8,17.67-26.58,25.74-44.27,34.74c-19.68,10.02-38.08,21.05-42.93,43.46
		c-28.05,129.5,146.54,157.09,204.6,60.32c15.69-26.15,31.85-84.69,47.34-156.34c35.81-165.73,68.52-402.08,86.3-465.64
		c0.61-2.2-0.67-4.48-2.87-5.1C795.37,1207.09,793.09,1208.37,792.47,1210.57L792.47,1210.57z"/>
	<path class="st3" d="M1008.41,1303.78c2.2,115.75,6.61,347.25-2.07,434.1c-2.9,29.02-16.63,42.85-30.71,55.56
		c-15.37,13.87-31.04,26.59-36.17,53.13c-13.07,67.59,51.91,86.26,77.47,86.03c28.04-0.25,83.11-23.96,102.78-103.15
		c15.43-62.14,18.36-147.1,21.02-228.72c2.64-80.9,4.98-158.5,19.4-206.87c0.65-2.19-0.59-4.49-2.78-5.15
		c-2.19-0.65-4.5,0.59-5.15,2.78c-14.56,48.86-17.07,127.24-19.74,208.96c-2.64,81-5.47,165.33-20.78,227
		c-18.31,73.72-68.72,96.64-94.83,96.88c-22.74,0.2-80.9-16.07-69.28-76.19c4.72-24.38,19.47-35.81,33.59-48.55
		c15.41-13.9,30.22-29.14,33.4-60.88c8.7-87.04,4.31-319.07,2.11-435.08c-0.04-2.28-1.93-4.1-4.21-4.06
		C1010.19,1299.61,1008.37,1301.5,1008.41,1303.78L1008.41,1303.78z"/>
	<path class="st3" d="M1361.89,1312.3c-49.93,11.57-167.42,57-171.07,173.99c-1.31,42.19,17.38,90.14,31.63,130.11
		c9.12,25.59,16.51,47.74,14.71,62.64c-1.74,14.36-12.65,18.8-25.91,23.86c-15.4,5.89-33.96,12.1-48.9,29.59
		c-25.84,30.26-21.26,70-1.31,95.09c13.47,16.94,33.9,27.2,56.66,23.7c68.81-10.57,114.54-65.91,158.3-123.93
		c1.37-1.82,1.01-4.42-0.81-5.79c-1.82-1.37-4.42-1.01-5.79,0.81c-42.42,56.23-86.26,110.49-152.95,120.73
		c-19.68,3.02-37.27-6.02-48.93-20.67c-17.74-22.31-21.85-57.66,1.13-84.57c16.8-19.68,38.71-23.77,54.27-30.8
		c12.07-5.45,20.7-12.5,22.46-27.04c1.91-15.77-5.47-39.32-15.13-66.41c-13.92-39.06-32.44-85.85-31.15-127.07
		c3.5-112.17,116.79-155.09,164.66-166.19c2.23-0.51,3.61-2.74,3.1-4.96C1366.34,1313.17,1364.11,1311.79,1361.89,1312.3
		L1361.89,1312.3z"/>
	<path class="st3" d="M527.93,1549.9c-7.41-7.94-20.09-17.74-34.19-22.29c-9.83-3.17-20.32-3.8-30.29,0.16
		c-29.83,11.82-43.88,39.88-43.9,70.15c-0.02,44.71,30.8,94.03,85.46,100.87c2.26,0.28,4.34-1.33,4.62-3.59
		c0.28-2.27-1.33-4.33-3.59-4.62c-50.13-6.27-78.23-51.64-78.21-92.65c0.01-26.87,12.19-51.97,38.67-62.46
		c8.13-3.22,16.69-2.56,24.7,0.03c12.66,4.08,24.02,12.92,30.67,20.05c1.56,1.67,4.18,1.76,5.85,0.2
		C529.4,1554.19,529.49,1551.57,527.93,1549.9L527.93,1549.9z"/>
	<path class="st3" d="M1652.13,1144.9c-3.76,12.33-46.87-9.88-44.52-14.91c3.81-8.17,31.46-73.24,42.09-72.49
		C1665.23,1058.59,1661.81,1113.2,1652.13,1144.9L1652.13,1144.9z"/>
</g>
</svg>
