<?xml version="1.0" encoding="utf-8"?>
<!-- Generator: Adobe Illustrator 26.4.1, SVG Export Plug-In . SVG Version: 6.00 Build 0)  -->
<svg version="1.1" id="Layer_1" xmlns="http://www.w3.org/2000/svg" xmlns:xlink="http://www.w3.org/1999/xlink" x="0px" y="0px"
	 viewBox="0 0 2000 2000" style="enable-background:new 0 0 2000 2000;" xml:space="preserve">
<style type="text/css">
	.st0{fill-rule:evenodd;clip-rule:evenodd;fill:#145468;}
	.st1{fill-rule:evenodd;clip-rule:evenodd;fill:#3B7A7A;}
	.st2{fill-rule:evenodd;clip-rule:evenodd;fill:#098B8D;}
	.st3{fill-rule:evenodd;clip-rule:evenodd;fill:#689595;}
	.st4{fill-rule:evenodd;clip-rule:evenodd;fill:#679595;}
	.st5{fill-rule:evenodd;clip-rule:evenodd;fill:#CEE4E4;}
	
		.st6{fill-rule:evenodd;clip-rule:evenodd;fill:#145468;stroke:#CEE4E4;stroke-width:5;stroke-linecap:round;stroke-linejoin:round;stroke-miterlimit:10;}
	.st7{fill-rule:evenodd;clip-rule:evenodd;fill:#043A60;}
	.st8{fill-rule:evenodd;clip-rule:evenodd;fill:#FD9A65;}
	.st9{fill-rule:evenodd;clip-rule:evenodd;fill:#18658D;}
	.st10{fill-rule:evenodd;clip-rule:evenodd;fill:#9FCDE5;}
	.st11{fill-rule:evenodd;clip-rule:evenodd;fill:#56A8D3;}
	.st12{fill-rule:evenodd;clip-rule:evenodd;fill:#276383;}
	.st13{fill-rule:evenodd;clip-rule:evenodd;fill:#E0F0F8;}
	.st14{fill-rule:evenodd;clip-rule:evenodd;fill:#A51E1C;}
	.st15{fill-rule:evenodd;clip-rule:evenodd;fill:#CB442D;}
	.st16{fill-rule:evenodd;clip-rule:evenodd;fill:#DC5A44;}
	.st17{fill-rule:evenodd;clip-rule:evenodd;fill:#F7BD54;}
	.st18{fill-rule:evenodd;clip-rule:evenodd;fill:#E46B37;}
	.st19{fill-rule:evenodd;clip-rule:evenodd;fill:#B67227;}
	.st20{fill-rule:evenodd;clip-rule:evenodd;fill:#D78A35;}
	.st21{fill-rule:evenodd;clip-rule:evenodd;fill:#A4331F;}
	.st22{fill-rule:evenodd;clip-rule:evenodd;fill:#F2A550;}
	.st23{fill-rule:evenodd;clip-rule:evenodd;fill:#F9E9D6;}
	.st24{fill-rule:evenodd;clip-rule:evenodd;fill:#844013;}
	.st25{fill-rule:evenodd;clip-rule:evenodd;fill:#A04E18;}
	.st26{fill-rule:evenodd;clip-rule:evenodd;fill:#F8B872;}
	.st27{fill-rule:evenodd;clip-rule:evenodd;fill:#FFC689;}
	.st28{fill-rule:evenodd;clip-rule:evenodd;fill:#B6844D;}
	.st29{fill-rule:evenodd;clip-rule:evenodd;fill:#CA5320;}
	.st30{fill-rule:evenodd;clip-rule:evenodd;fill:#D76332;}
	.st31{fill-rule:evenodd;clip-rule:evenodd;fill:#812F0C;}
	.st32{fill-rule:evenodd;clip-rule:evenodd;fill:#8A460F;}
	.st33{fill-rule:evenodd;clip-rule:evenodd;fill:#B46914;}
	.st34{fill-rule:evenodd;clip-rule:evenodd;fill:#B54515;}
	.st35{fill-rule:evenodd;clip-rule:evenodd;fill:#FFCD71;}
	.st36{fill-rule:evenodd;clip-rule:evenodd;fill:#95B41D;}
	.st37{fill-rule:evenodd;clip-rule:evenodd;fill:#A8C731;}
	.st38{fill-rule:evenodd;clip-rule:evenodd;fill:#85A214;}
	.st39{fill-rule:evenodd;clip-rule:evenodd;fill:#C6EF28;}
	.st40{fill-rule:evenodd;clip-rule:evenodd;fill:#ED982B;}
	.st41{fill-rule:evenodd;clip-rule:evenodd;fill:#FCCF7C;}
	.st42{fill-rule:evenodd;clip-rule:evenodd;fill:#FFE8BC;}
	.st43{fill-rule:evenodd;clip-rule:evenodd;fill:#ED6961;}
	.st44{fill-rule:evenodd;clip-rule:evenodd;fill:#696E1E;}
	.st45{fill-rule:evenodd;clip-rule:evenodd;fill:#9CA42A;}
	.st46{fill-rule:evenodd;clip-rule:evenodd;fill:#7F8615;}
	.st47{fill-rule:evenodd;clip-rule:evenodd;fill:#FFEECF;}
	.st48{fill-rule:evenodd;clip-rule:evenodd;fill:#77786D;}
	.st49{fill-rule:evenodd;clip-rule:evenodd;fill:#D3D5C6;}
	.st50{fill-rule:evenodd;clip-rule:evenodd;fill:#7C7A7A;}
	.st51{fill-rule:evenodd;clip-rule:evenodd;fill:#DBDCD9;}
	.st52{fill-rule:evenodd;clip-rule:evenodd;fill:#CA372D;}
	.st53{fill-rule:evenodd;clip-rule:evenodd;fill:#FE7D75;}
	.st54{fill-rule:evenodd;clip-rule:evenodd;fill:#B0B0B0;}
	.st55{fill-rule:evenodd;clip-rule:evenodd;fill:#888787;}
	.st56{fill-rule:evenodd;clip-rule:evenodd;fill:#6E6E6E;}
	.st57{fill-rule:evenodd;clip-rule:evenodd;fill:#757575;}
	.st58{fill-rule:evenodd;clip-rule:evenodd;fill:#60341E;}
	.st59{fill-rule:evenodd;clip-rule:evenodd;fill:#B0451B;}
	.st60{fill-rule:evenodd;clip-rule:evenodd;fill:#8A4727;}
	.st61{fill-rule:evenodd;clip-rule:evenodd;fill:#FABB64;}
	.st62{fill-rule:evenodd;clip-rule:evenodd;fill:#3E88AF;}
	.st63{fill-rule:evenodd;clip-rule:evenodd;fill:#5BA0C5;}
	.st64{fill-rule:evenodd;clip-rule:evenodd;fill:#FFF1DE;}
	.st65{fill-rule:evenodd;clip-rule:evenodd;fill:#F8B89B;}
	.st66{fill-rule:evenodd;clip-rule:evenodd;fill:#E98A5F;}
	.st67{fill-rule:evenodd;clip-rule:evenodd;fill:#FFCAB3;}
	.st68{fill-rule:evenodd;clip-rule:evenodd;fill:#F9A580;}
	.st69{fill-rule:evenodd;clip-rule:evenodd;fill:#FFDFD2;}
	.st70{fill-rule:evenodd;clip-rule:evenodd;fill:#E2A85C;}
	.st71{fill-rule:evenodd;clip-rule:evenodd;fill:#C68446;}
	.st72{fill-rule:evenodd;clip-rule:evenodd;fill:#F2BC75;}
	.st73{fill-rule:evenodd;clip-rule:evenodd;fill:#F2BC76;}
	.st74{fill-rule:evenodd;clip-rule:evenodd;fill:#FFD69F;}
	.st75{fill-rule:evenodd;clip-rule:evenodd;fill:#E7624B;}
	.st76{fill-rule:evenodd;clip-rule:evenodd;fill:#FFEED9;}
	.st77{fill-rule:evenodd;clip-rule:evenodd;fill:#C26E11;}
	.st78{fill-rule:evenodd;clip-rule:evenodd;fill:#F39226;}
	.st79{fill-rule:evenodd;clip-rule:evenodd;fill:#DF5020;}
	.st80{fill-rule:evenodd;clip-rule:evenodd;fill:#2C140B;}
	.st81{fill-rule:evenodd;clip-rule:evenodd;fill:#FFFFFF;}
	.st82{fill-rule:evenodd;clip-rule:evenodd;}
	.st83{fill-rule:evenodd;clip-rule:evenodd;fill:#A96F3E;}
	.st84{fill-rule:evenodd;clip-rule:evenodd;fill:#683A15;}
	.st85{fill-rule:evenodd;clip-rule:evenodd;fill:#F0DCCB;}
	.st86{fill-rule:evenodd;clip-rule:evenodd;fill:#E6D1B6;}
	.st87{fill-rule:evenodd;clip-rule:evenodd;fill:#69553C;}
</style>
<g>
	<path class="st14" d="M108.42,821.98c-12.02,63.87,130.96,168.53,130.03,162.34c-15.28-100.64,126.14-203.46,223.4-233.28
		c177.49-54.42,442.79-68.11,616.23-49.52c167.55,17.96,372.65,32.05,543.98,130.16c149.91,85.85,183.07,193.81,157.47,237.09
		c-20.98,35.48,147.37-140.89,108.26-238.22c-70.67-175.87-534.25-294.79-806.51-314.13c-154.18-10.96-401.26,2.74-553.18,30.01
		C386.78,571.79,140.33,652.41,108.42,821.98L108.42,821.98z"/>
	<path class="st15" d="M1898.88,1022.51c-3.86,29.96-11.76,62.35-22.1,90.97c-3.43,9.64-7.17,18.86-11.14,27.42
		c-11.84,25.72-25.57,45.54-39.41,53.21c-28.88,15.96-68.75,32.93-115.1,49.16c-12.07,4.24-24.56,8.41-37.44,12.53
		c-125.67,40.1-285.66,72.92-405.97,70.91c-302.47-5.09-551.42,5.86-742.1-54.87c-209.42-66.71-356.65-113.21-417.34-207.19
		c-42.07-65.13,7.29-285.23,7.87-277.21c6.44,87.61,255.47,247.02,388.5,287.05c225.27,67.75,473.29,83.6,732.81,69.29
		c231.67-12.8,399.64-51.25,542.51-138.2c97.21-59.19,100.61-179.73,108.01-179.35C1893.48,826.51,1911.99,921.02,1898.88,1022.51z"
		/>
	<path class="st16" d="M117.95,789.84c-2.43-11.67-51.51,219.99-11.26,271.31c163.99,209.12,384.12,299.11,543.94,373.25
		c134.85,62.55,314.17,118.68,342.74,111.97c24.65-5.79,170.7-64.66,173.3-78.71c1.48-8.01-66.14-37.77-132.58-97.76
		c-13.61-12.29-96.7-30.37-190.51-65.45c-130.85-48.94-401.2-173.61-573.54-315.45C191.47,924.34,128.25,839.2,117.95,789.84
		L117.95,789.84z M855.84,1392.47c14.27,0,25.86,11.59,25.86,25.86c0,14.27-11.59,25.86-25.86,25.86
		c-14.27,0-25.86-11.59-25.86-25.86C829.97,1404.05,841.56,1392.47,855.84,1392.47L855.84,1392.47z M750.56,1354.95
		c14.28,0,25.86,11.59,25.86,25.86c0,14.27-11.59,25.86-25.86,25.86c-14.27,0-25.86-11.59-25.86-25.86
		C724.7,1366.53,736.29,1354.95,750.56,1354.95L750.56,1354.95z M653.24,1306.97c14.27,0,25.86,11.59,25.86,25.86
		c0,14.27-11.59,25.86-25.86,25.86c-14.27,0-25.86-11.59-25.86-25.86C627.37,1318.55,638.96,1306.97,653.24,1306.97L653.24,1306.97z
		"/>
	<path class="st17" d="M472.58,1392.73c6.57,0.47,14.33-1.41,22.47-6.87c10.5-7.05,23.41-21.86,36.37-41.26
		c31.03-46.45,64.8-120.03,74.71-154.83c3.91-13.71,3.68-23.8,2.21-28.26c-3.35-10.15-12.96-22.78-27.95-35.56
		c-28.28-24.13-76.82-51.72-121.17-70.89c-30.49-13.18-59.1-22.3-78.15-24.34c-12.28-1.32-21.84,0.4-27.99,3.57
		c-15.66,8.05-33.1,25.91-49.18,48.8c-21.94,31.25-42.05,71.87-53.56,104.38c-6.22,17.59-9.92,33.04-10.58,43.89
		c-0.44,7.17,0.4,13.01,1.91,17.32c8.21,23.43,40.38,52.56,80.23,77.72C378.21,1361.98,448.58,1391.02,472.58,1392.73
		L472.58,1392.73z M369.66,1068.07c1.13,0,8.57,0.03,14.04,1.06c16.19,3.05,37.74,10.59,60.58,20.46
		c35.18,15.2,73.29,35.99,99.94,55.7c13.15,9.72,23.73,18.26,27.51,25.91c-0.75,3.3-3.1,13.06-6.04,21.34
		c-12.68,35.61-40.13,93.09-65.56,131.15c-7.21,10.79-14.17,19.94-20.58,26.26c-1.99,1.96-4.97,4.13-6.26,5.04
		c-22.96-2.92-82.69-29.7-131.33-60.41c-19.93-12.59-37.99-25.89-50.68-38.81c-6.59-6.71-11.71-13.02-13.97-19.11
		c0.03-0.84,0.28-6.95,1.16-11.33c2.55-12.76,8.33-29.53,16.04-47.47c11.89-27.66,28.43-57.98,45.79-80.89
		C350.23,1083.91,360.1,1073.22,369.66,1068.07L369.66,1068.07z"/>
	<path class="st17" d="M385.1,1207.8c56.02,29.76,131.71,73.88,152.36,83c9.54,4.21,20.7-0.12,24.91-9.66
		c4.21-9.54-0.12-20.7-9.66-24.91c-20.32-8.97-94.75-52.5-149.88-81.79c-9.21-4.89-20.66-1.39-25.55,7.82
		C372.39,1191.46,375.9,1202.91,385.1,1207.8L385.1,1207.8z"/>
	<path class="st18" d="M1247.27,1190.24c12.12,0,21.95,9.84,21.95,21.95c0,12.12-9.84,21.95-21.95,21.95
		c-12.12,0-21.96-9.84-21.96-21.95C1225.31,1200.07,1235.15,1190.24,1247.27,1190.24L1247.27,1190.24z"/>
	<path class="st18" d="M1412.04,1166.5c12.12,0,21.95,9.84,21.95,21.95c0,12.12-9.84,21.96-21.95,21.96
		c-12.12,0-21.96-9.84-21.96-21.96C1390.08,1176.34,1399.92,1166.5,1412.04,1166.5L1412.04,1166.5z"/>
	<path class="st18" d="M1339.61,1253.61c12.12,0,21.95,9.84,21.95,21.96c0,12.12-9.84,21.95-21.95,21.95
		c-12.12,0-21.95-9.84-21.95-21.95C1317.66,1263.45,1327.49,1253.61,1339.61,1253.61L1339.61,1253.61z"/>
	<path class="st18" d="M1606.52,1104.75c12.12,0,21.95,9.84,21.95,21.95c0,12.12-9.84,21.95-21.95,21.95
		c-12.12,0-21.95-9.84-21.95-21.95C1584.57,1114.59,1594.41,1104.75,1606.52,1104.75L1606.52,1104.75z"/>
	<path class="st18" d="M1534.07,1202.84c12.12,0,21.95,9.84,21.95,21.96c0,12.12-9.84,21.95-21.95,21.95
		c-12.12,0-21.96-9.84-21.96-21.95C1512.11,1212.68,1521.95,1202.84,1534.07,1202.84L1534.07,1202.84z"/>
	<path class="st18" d="M1711.31,1240.45c0,0.96-0.08,1.89-0.19,2.81c-12.07,4.24-24.56,8.41-37.44,12.53
		c-3.9-3.97-6.29-9.37-6.29-15.35c0-12.11,9.87-21.98,21.98-21.98C1701.48,1218.48,1711.31,1228.35,1711.31,1240.45z"/>
	<path class="st18" d="M1760.58,1114.92c12.12,0,21.96,9.84,21.96,21.95c0,12.12-9.84,21.96-21.96,21.96
		c-12.12,0-21.95-9.84-21.95-21.96C1738.63,1124.75,1748.47,1114.92,1760.58,1114.92L1760.58,1114.92z"/>
	<path class="st18" d="M1828.16,1011.04c12.12,0,21.95,9.84,21.95,21.96c0,12.12-9.84,21.95-21.95,21.95s-21.96-9.84-21.96-21.95
		C1806.2,1020.88,1816.04,1011.04,1828.16,1011.04L1828.16,1011.04z"/>
	<path class="st18" d="M1865.64,1140.89v0.04c-2.81,1.35-6.02,2.12-9.37,2.12c-12.11,0-21.94-9.83-21.94-21.94
		s9.83-21.94,21.94-21.94c9.41,0,17.43,5.94,20.51,14.27c0,0,0.04,0,0,0.04L1865.64,1140.89z"/>
	<path class="st18" d="M1099.3,1146.71c12.12,0,21.96,9.84,21.96,21.95c0,12.12-9.84,21.95-21.96,21.95
		c-12.12,0-21.95-9.84-21.95-21.95C1077.34,1156.55,1087.18,1146.71,1099.3,1146.71L1099.3,1146.71z"/>
	<path class="st18" d="M1031.58,1245.24c12.12,0,21.96,9.84,21.96,21.95c0,12.12-9.84,21.96-21.96,21.96
		c-12.12,0-21.95-9.84-21.95-21.96C1009.63,1255.07,1019.47,1245.24,1031.58,1245.24L1031.58,1245.24z"/>
	<path class="st18" d="M1171.8,1264.78c12.12,0,21.95,9.84,21.95,21.95c0,12.12-9.84,21.95-21.95,21.95
		c-12.12,0-21.96-9.84-21.96-21.95C1149.84,1274.61,1159.68,1264.78,1171.8,1264.78L1171.8,1264.78z"/>
	<path class="st18" d="M895.71,1174.87c12.11,0,21.96,9.84,21.96,21.95c0,12.11-9.84,21.95-21.96,21.95
		c-12.12,0-21.95-9.84-21.95-21.95C873.75,1184.7,883.59,1174.87,895.71,1174.87L895.71,1174.87z"/>
	<path class="st18" d="M764.47,1126.07c12.12,0,21.95,9.84,21.95,21.95s-9.84,21.95-21.95,21.95c-12.12,0-21.95-9.84-21.95-21.95
		S752.35,1126.07,764.47,1126.07L764.47,1126.07z"/>
	<path class="st18" d="M768.98,1204.11c12.12,0,21.95,9.84,21.95,21.95c0,12.12-9.84,21.95-21.95,21.95
		c-12.12,0-21.96-9.84-21.96-21.95C747.02,1213.95,756.86,1204.11,768.98,1204.11L768.98,1204.11z"/>
	<path class="st18" d="M910.13,1269.71c12.12,0,21.95,9.84,21.95,21.95c0,12.12-9.84,21.95-21.95,21.95
		c-12.12,0-21.95-9.84-21.95-21.95C888.18,1279.55,898.02,1269.71,910.13,1269.71L910.13,1269.71z"/>
	<path class="st18" d="M629.94,1106.37c12.12,0,21.96,9.84,21.96,21.95c0,12.12-9.84,21.95-21.96,21.95
		c-12.12,0-21.95-9.84-21.95-21.95C607.99,1116.2,617.82,1106.37,629.94,1106.37L629.94,1106.37z"/>
</g>
</svg>
