<?xml version="1.0" encoding="utf-8"?>
<!-- Generator: Adobe Illustrator 26.4.1, SVG Export Plug-In . SVG Version: 6.00 Build 0)  -->
<svg version="1.1" id="Layer_1" xmlns="http://www.w3.org/2000/svg" xmlns:xlink="http://www.w3.org/1999/xlink" x="0px" y="0px"
	 viewBox="0 0 2000 2000" style="enable-background:new 0 0 2000 2000;" xml:space="preserve">
<style type="text/css">
	.st0{fill-rule:evenodd;clip-rule:evenodd;fill:#F49E23;}
	.st1{fill-rule:evenodd;clip-rule:evenodd;fill:#D14D36;}
	.st2{fill-rule:evenodd;clip-rule:evenodd;fill:#FDF0D3;}
	.st3{fill-rule:evenodd;clip-rule:evenodd;fill:#0C427E;}
	.st4{fill-rule:evenodd;clip-rule:evenodd;fill:#B45A25;}
	.st5{fill-rule:evenodd;clip-rule:evenodd;fill:#EC8C28;}
	.st6{fill-rule:evenodd;clip-rule:evenodd;fill:#EE9726;}
	.st7{fill-rule:evenodd;clip-rule:evenodd;fill:#302574;}
	.st8{fill-rule:evenodd;clip-rule:evenodd;fill:#F3B953;}
	.st9{fill-rule:evenodd;clip-rule:evenodd;fill:#3D648F;}
	.st10{fill-rule:evenodd;clip-rule:evenodd;fill:#145468;}
	.st11{fill-rule:evenodd;clip-rule:evenodd;fill:#3B7A7A;}
	.st12{fill-rule:evenodd;clip-rule:evenodd;fill:#098B8D;}
	.st13{fill-rule:evenodd;clip-rule:evenodd;fill:#689595;}
	.st14{fill-rule:evenodd;clip-rule:evenodd;fill:#679595;}
	.st15{fill-rule:evenodd;clip-rule:evenodd;fill:#CEE4E4;}
	
		.st16{fill-rule:evenodd;clip-rule:evenodd;fill:#145468;stroke:#CEE4E4;stroke-width:5;stroke-linecap:round;stroke-linejoin:round;stroke-miterlimit:10;}
	.st17{fill-rule:evenodd;clip-rule:evenodd;fill:#043A60;}
	.st18{fill-rule:evenodd;clip-rule:evenodd;fill:#FD9A65;}
	.st19{fill-rule:evenodd;clip-rule:evenodd;fill:#18658D;}
	.st20{fill-rule:evenodd;clip-rule:evenodd;fill:#9FCDE5;}
	.st21{fill-rule:evenodd;clip-rule:evenodd;fill:#56A8D3;}
	.st22{fill-rule:evenodd;clip-rule:evenodd;fill:#276383;}
	.st23{fill-rule:evenodd;clip-rule:evenodd;fill:#E0F0F8;}
	.st24{fill-rule:evenodd;clip-rule:evenodd;fill:#A51E1C;}
	.st25{fill-rule:evenodd;clip-rule:evenodd;fill:#CB442D;}
	.st26{fill-rule:evenodd;clip-rule:evenodd;fill:#DC5A44;}
	.st27{fill-rule:evenodd;clip-rule:evenodd;fill:#F7BD54;}
	.st28{fill-rule:evenodd;clip-rule:evenodd;fill:#E46B37;}
	.st29{fill-rule:evenodd;clip-rule:evenodd;fill:#B67227;}
	.st30{fill-rule:evenodd;clip-rule:evenodd;fill:#D78A35;}
	.st31{fill-rule:evenodd;clip-rule:evenodd;fill:#A4331F;}
	.st32{fill-rule:evenodd;clip-rule:evenodd;fill:#F2A550;}
	.st33{fill-rule:evenodd;clip-rule:evenodd;fill:#F9E9D6;}
	.st34{fill-rule:evenodd;clip-rule:evenodd;fill:#844013;}
	.st35{fill-rule:evenodd;clip-rule:evenodd;fill:#A04E18;}
	.st36{fill-rule:evenodd;clip-rule:evenodd;fill:#F8B872;}
	.st37{fill-rule:evenodd;clip-rule:evenodd;fill:#FFC689;}
	.st38{fill-rule:evenodd;clip-rule:evenodd;fill:#B6844D;}
	.st39{fill-rule:evenodd;clip-rule:evenodd;fill:#CA5320;}
	.st40{fill-rule:evenodd;clip-rule:evenodd;fill:#D76332;}
	.st41{fill-rule:evenodd;clip-rule:evenodd;fill:#812F0C;}
	.st42{fill-rule:evenodd;clip-rule:evenodd;fill:#8A460F;}
	.st43{fill-rule:evenodd;clip-rule:evenodd;fill:#B46914;}
	.st44{fill-rule:evenodd;clip-rule:evenodd;fill:#B54515;}
	.st45{fill-rule:evenodd;clip-rule:evenodd;fill:#FFCD71;}
	.st46{fill-rule:evenodd;clip-rule:evenodd;fill:#95B41D;}
	.st47{fill-rule:evenodd;clip-rule:evenodd;fill:#A8C731;}
	.st48{fill-rule:evenodd;clip-rule:evenodd;fill:#85A214;}
	.st49{fill-rule:evenodd;clip-rule:evenodd;fill:#C6EF28;}
	.st50{fill-rule:evenodd;clip-rule:evenodd;fill:#ED982B;}
	.st51{fill-rule:evenodd;clip-rule:evenodd;fill:#FCCF7C;}
	.st52{fill-rule:evenodd;clip-rule:evenodd;fill:#FFE8BC;}
	.st53{fill-rule:evenodd;clip-rule:evenodd;fill:#ED6961;}
	.st54{fill-rule:evenodd;clip-rule:evenodd;fill:#696E1E;}
	.st55{fill-rule:evenodd;clip-rule:evenodd;fill:#9CA42A;}
	.st56{fill-rule:evenodd;clip-rule:evenodd;fill:#7F8615;}
	.st57{fill-rule:evenodd;clip-rule:evenodd;fill:#FFEECF;}
	.st58{fill-rule:evenodd;clip-rule:evenodd;fill:#77786D;}
	.st59{fill-rule:evenodd;clip-rule:evenodd;fill:#D3D5C6;}
	.st60{fill-rule:evenodd;clip-rule:evenodd;fill:#7C7A7A;}
	.st61{fill-rule:evenodd;clip-rule:evenodd;fill:#DBDCD9;}
	.st62{fill-rule:evenodd;clip-rule:evenodd;fill:#CA372D;}
	.st63{fill-rule:evenodd;clip-rule:evenodd;fill:#FE7D75;}
	.st64{fill-rule:evenodd;clip-rule:evenodd;fill:#B0B0B0;}
	.st65{fill-rule:evenodd;clip-rule:evenodd;fill:#888787;}
	.st66{fill-rule:evenodd;clip-rule:evenodd;fill:#6E6E6E;}
	.st67{fill-rule:evenodd;clip-rule:evenodd;fill:#757575;}
	.st68{fill-rule:evenodd;clip-rule:evenodd;fill:#60341E;}
	.st69{fill-rule:evenodd;clip-rule:evenodd;fill:#B0451B;}
	.st70{fill-rule:evenodd;clip-rule:evenodd;fill:#8A4727;}
	.st71{fill-rule:evenodd;clip-rule:evenodd;fill:#FABB64;}
	.st72{fill-rule:evenodd;clip-rule:evenodd;fill:#3E88AF;}
	.st73{fill-rule:evenodd;clip-rule:evenodd;fill:#5BA0C5;}
	.st74{fill-rule:evenodd;clip-rule:evenodd;fill:#FFF1DE;}
	.st75{fill-rule:evenodd;clip-rule:evenodd;fill:#F8B89B;}
	.st76{fill-rule:evenodd;clip-rule:evenodd;fill:#E98A5F;}
	.st77{fill-rule:evenodd;clip-rule:evenodd;fill:#FFCAB3;}
	.st78{fill-rule:evenodd;clip-rule:evenodd;fill:#F9A580;}
	.st79{fill-rule:evenodd;clip-rule:evenodd;fill:#FFDFD2;}
	.st80{fill-rule:evenodd;clip-rule:evenodd;fill:#E2A85C;}
	.st81{fill-rule:evenodd;clip-rule:evenodd;fill:#C68446;}
	.st82{fill-rule:evenodd;clip-rule:evenodd;fill:#F2BC75;}
	.st83{fill-rule:evenodd;clip-rule:evenodd;fill:#F2BC76;}
	.st84{fill-rule:evenodd;clip-rule:evenodd;fill:#FFD69F;}
	.st85{fill-rule:evenodd;clip-rule:evenodd;fill:#E7624B;}
	.st86{fill-rule:evenodd;clip-rule:evenodd;fill:#F6E8DB;}
	.st87{fill-rule:evenodd;clip-rule:evenodd;fill:#FC9EB6;}
	.st88{fill-rule:evenodd;clip-rule:evenodd;fill:#FFFFFF;}
</style>
<g>
	<path class="st24" d="M92.5,701.94c-11.84,62.93,129.03,166.03,128.1,159.94c-15.06-99.15,124.27-200.45,220.09-229.83
		c174.87-53.61,436.24-67.1,607.11-48.79c165.07,17.69,367.14,31.57,535.93,128.23c147.69,84.58,180.36,190.94,155.14,233.58
		c-20.67,34.96,145.19-138.81,106.66-234.69c-69.63-173.27-526.35-290.42-794.58-309.49c-151.9-10.8-395.32,2.7-545,29.56
		C366.74,455.45,123.95,534.87,92.5,701.94L92.5,701.94z"/>
	<path class="st25" d="M1856.46,899.5c-3.8,29.52-11.59,61.43-21.77,89.62c-3.38,9.5-7.07,18.58-10.98,27.01
		c-11.66,25.34-25.19,44.87-38.83,52.43c-28.45,15.73-67.74,32.44-113.4,48.44c-11.89,4.18-24.2,8.28-36.89,12.35
		c-123.81,39.51-281.43,71.84-399.96,69.86c-297.99-5.02-543.26,5.77-731.12-54.06C297.2,1079.42,152.15,1033.6,92.35,941.02
		c-41.45-64.16,7.18-281.01,7.75-273.11c6.34,86.31,251.68,243.36,382.75,282.8c221.94,66.75,466.29,82.36,721.96,68.27
		c228.24-12.61,393.73-50.49,534.48-136.16c95.77-58.32,99.12-177.07,106.41-176.69C1851.14,706.39,1869.38,799.51,1856.46,899.5z"
		/>
	<path class="st26" d="M101.9,670.27c-2.4-11.49-50.75,216.74-11.1,267.3c161.56,206.03,378.43,294.69,535.89,367.73
		c132.86,61.63,309.52,116.93,337.67,110.31c24.28-5.71,168.18-63.7,170.74-77.54c1.45-7.89-65.16-37.22-130.62-96.31
		c-13.41-12.11-95.27-29.92-187.69-64.48c-128.91-48.21-395.26-171.04-565.05-310.78C174.32,802.78,112.05,718.9,101.9,670.27
		L101.9,670.27z M828.86,1263.98c14.06,0,25.48,11.42,25.48,25.48c0,14.06-11.42,25.48-25.48,25.48
		c-14.06,0-25.48-11.42-25.48-25.48C803.38,1275.39,814.79,1263.98,828.86,1263.98L828.86,1263.98z M725.15,1227.01
		c14.06,0,25.48,11.42,25.48,25.48c0,14.06-11.42,25.48-25.48,25.48c-14.06,0-25.48-11.41-25.48-25.48
		C699.67,1238.43,711.09,1227.01,725.15,1227.01L725.15,1227.01z M629.26,1179.74c14.06,0,25.48,11.41,25.48,25.48
		c0,14.06-11.42,25.48-25.48,25.48c-14.06,0-25.48-11.42-25.48-25.48C603.78,1191.16,615.2,1179.74,629.26,1179.74L629.26,1179.74z"
		/>
	<path class="st27" d="M451.27,1264.24c6.48,0.46,14.12-1.39,22.14-6.77c10.35-6.94,23.06-21.54,35.83-40.65
		c30.57-45.76,63.84-118.25,73.6-152.54c3.85-13.51,3.62-23.45,2.17-27.84c-3.3-10-12.77-22.44-27.54-35.03
		c-27.86-23.77-75.68-50.96-119.38-69.84c-30.03-12.98-58.22-21.97-76.99-23.98c-12.1-1.3-21.51,0.4-27.58,3.51
		c-15.43,7.94-32.61,25.52-48.45,48.08c-21.61,30.79-41.43,70.8-52.77,102.84c-6.13,17.33-9.77,32.55-10.42,43.24
		c-0.43,7.06,0.4,12.82,1.88,17.06c8.08,23.08,39.78,51.78,79.04,76.57C358.3,1233.94,427.63,1262.55,451.27,1264.24L451.27,1264.24
		z M349.88,944.39c1.12,0,8.44,0.03,13.84,1.05c15.95,3,37.18,10.43,59.69,20.16c34.66,14.98,72.2,35.46,98.46,54.87
		c12.96,9.58,23.38,17.98,27.1,25.53c-0.74,3.25-3.05,12.87-5.95,21.02c-12.5,35.08-39.54,91.71-64.59,129.21
		c-7.1,10.63-13.96,19.65-20.27,25.88c-1.96,1.93-4.9,4.07-6.17,4.97c-22.62-2.88-81.46-29.26-129.38-59.51
		c-19.64-12.4-37.43-25.51-49.93-38.23c-6.49-6.61-11.54-12.83-13.77-18.83c0.03-0.83,0.28-6.85,1.14-11.16
		c2.51-12.57,8.2-29.09,15.8-46.77c11.72-27.25,28.01-57.13,45.12-79.7C330.74,959.98,340.46,949.46,349.88,944.39L349.88,944.39z"
		/>
	<path class="st27" d="M365.09,1082.05c55.19,29.32,129.76,72.79,150.1,81.77c9.4,4.15,20.4-0.12,24.54-9.52
		c4.15-9.4-0.12-20.4-9.52-24.55c-20.02-8.83-93.35-51.73-147.67-80.58c-9.07-4.82-20.35-1.37-25.17,7.7
		C352.57,1065.95,356.02,1077.23,365.09,1082.05L365.09,1082.05z"/>
	<path class="st28" d="M1214.5,1064.74c11.94,0,21.63,9.69,21.63,21.63c0,11.94-9.69,21.63-21.63,21.63
		c-11.94,0-21.63-9.69-21.63-21.63C1192.87,1074.43,1202.56,1064.74,1214.5,1064.74L1214.5,1064.74z"/>
	<path class="st28" d="M1376.83,1041.36c11.94,0,21.63,9.69,21.63,21.63c0,11.94-9.69,21.63-21.63,21.63
		c-11.94,0-21.63-9.69-21.63-21.63C1355.2,1051.05,1364.89,1041.36,1376.83,1041.36L1376.83,1041.36z"/>
	<path class="st28" d="M1305.47,1127.18c11.94,0,21.63,9.69,21.63,21.63c0,11.94-9.69,21.63-21.63,21.63
		c-11.94,0-21.63-9.69-21.63-21.63C1283.85,1136.87,1293.54,1127.18,1305.47,1127.18L1305.47,1127.18z"/>
	<path class="st28" d="M1568.44,980.52c11.94,0,21.63,9.69,21.63,21.63c0,11.94-9.69,21.63-21.63,21.63
		c-11.94,0-21.63-9.69-21.63-21.63C1546.81,990.21,1556.5,980.52,1568.44,980.52L1568.44,980.52z"/>
	<path class="st28" d="M1497.05,1077.16c11.94,0,21.63,9.7,21.63,21.63c0,11.94-9.69,21.63-21.63,21.63
		c-11.94,0-21.63-9.69-21.63-21.63C1475.42,1086.86,1485.12,1077.16,1497.05,1077.16L1497.05,1077.16z"/>
	<path class="st28" d="M1671.68,1114.22c0,0.95-0.08,1.86-0.19,2.77c-11.89,4.18-24.2,8.28-36.89,12.35
		c-3.84-3.91-6.19-9.23-6.19-15.12c0-11.93,9.73-21.65,21.65-21.65C1661.99,1092.56,1671.68,1102.29,1671.68,1114.22z"/>
	<path class="st28" d="M1720.22,990.54c11.94,0,21.63,9.69,21.63,21.63c0,11.94-9.69,21.63-21.63,21.63
		c-11.94,0-21.63-9.69-21.63-21.63C1698.59,1000.23,1708.28,990.54,1720.22,990.54L1720.22,990.54z"/>
	<path class="st28" d="M1786.79,888.2c11.94,0,21.63,9.69,21.63,21.63c0,11.94-9.69,21.63-21.63,21.63
		c-11.94,0-21.63-9.69-21.63-21.63C1765.16,897.89,1774.86,888.2,1786.79,888.2L1786.79,888.2z"/>
	<path class="st28" d="M1823.71,1016.13v0.04c-2.77,1.33-5.93,2.09-9.23,2.09c-11.93,0-21.62-9.69-21.62-21.62
		s9.69-21.62,21.62-21.62c9.27,0,17.17,5.85,20.21,14.06c0,0,0.04,0,0,0.04L1823.71,1016.13z"/>
	<path class="st28" d="M1068.72,1021.86c11.94,0,21.63,9.69,21.63,21.63c0,11.94-9.69,21.63-21.63,21.63
		c-11.94,0-21.63-9.69-21.63-21.63C1047.09,1031.55,1056.78,1021.86,1068.72,1021.86L1068.72,1021.86z"/>
	<path class="st28" d="M1002.01,1118.93c11.94,0,21.63,9.69,21.63,21.63c0,11.94-9.69,21.63-21.63,21.63
		c-11.94,0-21.63-9.69-21.63-21.63C980.38,1128.62,990.07,1118.93,1002.01,1118.93L1002.01,1118.93z"/>
	<path class="st28" d="M1140.15,1138.18c11.94,0,21.63,9.69,21.63,21.63c0,11.94-9.69,21.63-21.63,21.63
		c-11.94,0-21.63-9.69-21.63-21.63C1118.51,1147.87,1128.21,1138.18,1140.15,1138.18L1140.15,1138.18z"/>
	<path class="st28" d="M868.14,1049.6c11.93,0,21.63,9.69,21.63,21.63c0,11.93-9.7,21.63-21.63,21.63
		c-11.94,0-21.63-9.69-21.63-21.63C846.51,1059.29,856.2,1049.6,868.14,1049.6L868.14,1049.6z"/>
	<path class="st28" d="M738.84,1001.53c11.94,0,21.63,9.69,21.63,21.63s-9.69,21.63-21.63,21.63s-21.63-9.69-21.63-21.63
		S726.9,1001.53,738.84,1001.53L738.84,1001.53z"/>
	<path class="st28" d="M743.29,1078.41c11.94,0,21.63,9.69,21.63,21.63c0,11.94-9.69,21.63-21.63,21.63
		c-11.94,0-21.63-9.69-21.63-21.63C721.65,1088.1,731.35,1078.41,743.29,1078.41L743.29,1078.41z"/>
	<path class="st28" d="M882.35,1143.04c11.94,0,21.63,9.69,21.63,21.63c0,11.94-9.69,21.63-21.63,21.63
		c-11.94,0-21.63-9.69-21.63-21.63C860.72,1152.74,870.41,1143.04,882.35,1143.04L882.35,1143.04z"/>
	<path class="st28" d="M606.3,982.11c11.94,0,21.63,9.69,21.63,21.63c0,11.94-9.69,21.63-21.63,21.63
		c-11.94,0-21.63-9.69-21.63-21.63C584.68,991.81,594.37,982.11,606.3,982.11L606.3,982.11z"/>
</g>
</svg>
