<?xml version="1.0" encoding="utf-8"?>
<!-- Generator: Adobe Illustrator 26.4.1, SVG Export Plug-In . SVG Version: 6.00 Build 0)  -->
<svg version="1.1" id="Layer_1" xmlns="http://www.w3.org/2000/svg" xmlns:xlink="http://www.w3.org/1999/xlink" x="0px" y="0px"
	 viewBox="0 0 2000 2000" style="enable-background:new 0 0 2000 2000;" xml:space="preserve">
<style type="text/css">
	.st0{fill-rule:evenodd;clip-rule:evenodd;fill:#145468;}
	.st1{fill-rule:evenodd;clip-rule:evenodd;fill:#3B7A7A;}
	.st2{fill-rule:evenodd;clip-rule:evenodd;fill:#098B8D;}
	.st3{fill-rule:evenodd;clip-rule:evenodd;fill:#689595;}
	.st4{fill-rule:evenodd;clip-rule:evenodd;fill:#679595;}
	.st5{fill-rule:evenodd;clip-rule:evenodd;fill:#CEE4E4;}
	
		.st6{fill-rule:evenodd;clip-rule:evenodd;fill:#145468;stroke:#CEE4E4;stroke-width:5;stroke-linecap:round;stroke-linejoin:round;stroke-miterlimit:10;}
	.st7{fill-rule:evenodd;clip-rule:evenodd;fill:#043A60;}
	.st8{fill-rule:evenodd;clip-rule:evenodd;fill:#FD9A65;}
	.st9{fill-rule:evenodd;clip-rule:evenodd;fill:#18658D;}
	.st10{fill-rule:evenodd;clip-rule:evenodd;fill:#9FCDE5;}
	.st11{fill-rule:evenodd;clip-rule:evenodd;fill:#56A8D3;}
	.st12{fill-rule:evenodd;clip-rule:evenodd;fill:#276383;}
	.st13{fill-rule:evenodd;clip-rule:evenodd;fill:#E0F0F8;}
	.st14{fill-rule:evenodd;clip-rule:evenodd;fill:#A51E1C;}
	.st15{fill-rule:evenodd;clip-rule:evenodd;fill:#CB442D;}
	.st16{fill-rule:evenodd;clip-rule:evenodd;fill:#DC5A44;}
	.st17{fill-rule:evenodd;clip-rule:evenodd;fill:#F7BD54;}
	.st18{fill-rule:evenodd;clip-rule:evenodd;fill:#E46B37;}
	.st19{fill-rule:evenodd;clip-rule:evenodd;fill:#B67227;}
	.st20{fill-rule:evenodd;clip-rule:evenodd;fill:#D78A35;}
	.st21{fill-rule:evenodd;clip-rule:evenodd;fill:#A4331F;}
	.st22{fill-rule:evenodd;clip-rule:evenodd;fill:#F2A550;}
	.st23{fill-rule:evenodd;clip-rule:evenodd;fill:#F9E9D6;}
	.st24{fill-rule:evenodd;clip-rule:evenodd;fill:#844013;}
	.st25{fill-rule:evenodd;clip-rule:evenodd;fill:#A04E18;}
	.st26{fill-rule:evenodd;clip-rule:evenodd;fill:#F8B872;}
	.st27{fill-rule:evenodd;clip-rule:evenodd;fill:#FFC689;}
	.st28{fill-rule:evenodd;clip-rule:evenodd;fill:#B6844D;}
	.st29{fill-rule:evenodd;clip-rule:evenodd;fill:#CA5320;}
	.st30{fill-rule:evenodd;clip-rule:evenodd;fill:#D76332;}
	.st31{fill-rule:evenodd;clip-rule:evenodd;fill:#812F0C;}
	.st32{fill-rule:evenodd;clip-rule:evenodd;fill:#8A460F;}
	.st33{fill-rule:evenodd;clip-rule:evenodd;fill:#B46914;}
	.st34{fill-rule:evenodd;clip-rule:evenodd;fill:#B54515;}
	.st35{fill-rule:evenodd;clip-rule:evenodd;fill:#FFCD71;}
	.st36{fill-rule:evenodd;clip-rule:evenodd;fill:#95B41D;}
	.st37{fill-rule:evenodd;clip-rule:evenodd;fill:#A8C731;}
	.st38{fill-rule:evenodd;clip-rule:evenodd;fill:#85A214;}
	.st39{fill-rule:evenodd;clip-rule:evenodd;fill:#C6EF28;}
	.st40{fill-rule:evenodd;clip-rule:evenodd;fill:#ED982B;}
	.st41{fill-rule:evenodd;clip-rule:evenodd;fill:#FCCF7C;}
	.st42{fill-rule:evenodd;clip-rule:evenodd;fill:#FFE8BC;}
	.st43{fill-rule:evenodd;clip-rule:evenodd;fill:#ED6961;}
	.st44{fill-rule:evenodd;clip-rule:evenodd;fill:#696E1E;}
	.st45{fill-rule:evenodd;clip-rule:evenodd;fill:#9CA42A;}
	.st46{fill-rule:evenodd;clip-rule:evenodd;fill:#7F8615;}
	.st47{fill-rule:evenodd;clip-rule:evenodd;fill:#FFEECF;}
	.st48{fill-rule:evenodd;clip-rule:evenodd;fill:#77786D;}
	.st49{fill-rule:evenodd;clip-rule:evenodd;fill:#D3D5C6;}
	.st50{fill-rule:evenodd;clip-rule:evenodd;fill:#7C7A7A;}
	.st51{fill-rule:evenodd;clip-rule:evenodd;fill:#DBDCD9;}
	.st52{fill-rule:evenodd;clip-rule:evenodd;fill:#CA372D;}
	.st53{fill-rule:evenodd;clip-rule:evenodd;fill:#FE7D75;}
	.st54{fill-rule:evenodd;clip-rule:evenodd;fill:#B0B0B0;}
	.st55{fill-rule:evenodd;clip-rule:evenodd;fill:#888787;}
	.st56{fill-rule:evenodd;clip-rule:evenodd;fill:#6E6E6E;}
	.st57{fill-rule:evenodd;clip-rule:evenodd;fill:#757575;}
	.st58{fill-rule:evenodd;clip-rule:evenodd;fill:#60341E;}
	.st59{fill-rule:evenodd;clip-rule:evenodd;fill:#B0451B;}
	.st60{fill-rule:evenodd;clip-rule:evenodd;fill:#8A4727;}
	.st61{fill-rule:evenodd;clip-rule:evenodd;fill:#FABB64;}
	.st62{fill-rule:evenodd;clip-rule:evenodd;fill:#3E88AF;}
	.st63{fill-rule:evenodd;clip-rule:evenodd;fill:#5BA0C5;}
	.st64{fill-rule:evenodd;clip-rule:evenodd;fill:#FFF1DE;}
	.st65{fill-rule:evenodd;clip-rule:evenodd;fill:#F8B89B;}
	.st66{fill-rule:evenodd;clip-rule:evenodd;fill:#E98A5F;}
	.st67{fill-rule:evenodd;clip-rule:evenodd;fill:#FFCAB3;}
	.st68{fill-rule:evenodd;clip-rule:evenodd;fill:#F9A580;}
	.st69{fill-rule:evenodd;clip-rule:evenodd;fill:#FFDFD2;}
	.st70{fill-rule:evenodd;clip-rule:evenodd;fill:#E2A85C;}
	.st71{fill-rule:evenodd;clip-rule:evenodd;fill:#C68446;}
	.st72{fill-rule:evenodd;clip-rule:evenodd;fill:#F2BC75;}
	.st73{fill-rule:evenodd;clip-rule:evenodd;fill:#F2BC76;}
	.st74{fill-rule:evenodd;clip-rule:evenodd;fill:#FFD69F;}
	.st75{fill-rule:evenodd;clip-rule:evenodd;fill:#E7624B;}
	.st76{fill-rule:evenodd;clip-rule:evenodd;fill:#FFEED9;}
	.st77{fill-rule:evenodd;clip-rule:evenodd;fill:#C26E11;}
	.st78{fill-rule:evenodd;clip-rule:evenodd;fill:#F39226;}
	.st79{fill-rule:evenodd;clip-rule:evenodd;fill:#DF5020;}
	.st80{fill-rule:evenodd;clip-rule:evenodd;fill:#2C140B;}
	.st81{fill-rule:evenodd;clip-rule:evenodd;fill:#FFFFFF;}
	.st82{fill-rule:evenodd;clip-rule:evenodd;}
	.st83{fill-rule:evenodd;clip-rule:evenodd;fill:#A96F3E;}
	.st84{fill-rule:evenodd;clip-rule:evenodd;fill:#683A15;}
	.st85{fill-rule:evenodd;clip-rule:evenodd;fill:#F0DCCB;}
	.st86{fill-rule:evenodd;clip-rule:evenodd;fill:#E6D1B6;}
	.st87{fill-rule:evenodd;clip-rule:evenodd;fill:#69553C;}
</style>
<g>
	<path class="st61" d="M553.29,1391.68c27.2,3.72,183.78,20.6,186.8,19.52c10.61-3.79,4.18-25.3,35.75-50.55
		c30.17-24.13,80.27,8.24,88.11,23.77c14.3,28.32,11.87,46.51-5.68,61.84c-10.98,9.6-16.76,15.59-15.81,24.07
		c1.94,17.4,20.35,26.29,16.79,54.65c-2.77,22.07-23.99,48.8-51.5,56.74c-25.57,7.38-60.76,2.71-74.63-36.05
		c-10.8-30.21,4.14-31.62-12.73-32.87c-27.07-2.01-159.89-14.39-167.14-8.4c-10.21,8.43-1.87,3.72-7.73,23.01
		c-9.34,30.74-36.54,51.08-71.43,42.47c-20.65-5.09-59.43-41.38-50.9-69.09c11.02-35.82,27.6-33.18,27.5-45.97
		c-0.15-18.78-21.17-13.44-28.05-44.25c-7.38-33.01,13.48-54.43,31.4-63.78c25.64-13.36,56.95-14.18,77.46,15.81
		C544.6,1381.75,549.52,1391.17,553.29,1391.68L553.29,1391.68z"/>
	<path class="st9" d="M178.11,910.9c53.81-88.48,210.38-158.25,433.2-202.47c197.21-39.14,624.61-47.42,867.77,12.06
		c241.61,59.11,358.86,163.02,352.56,216.85c-3.35,28.63-41.55,120.46-58.8,90.01c-50.56-89.24-246.5-148.04-351.66-168.92
		c-261.16-51.84-513.05-37.37-820.06,12.92c-121.95,19.98-335.42,75.81-353.24,180C238.16,1108.14,153.04,952.11,178.11,910.9
		L178.11,910.9z"/>
	<path class="st62" d="M179.5,911.87c-1.99-2.71-22,57.07-19.67,133.37c3.89,127.35,23.17,133.77,59.16,149.83
		c74.64,33.3,652.76,122.98,766.86,120.42c270.57-6.05,591.3,1.55,753.44-70.45c60.85-27.01,58.24-118.49,74.98-187.12
		c17.96-73.7,19.56-140.12,16.34-132.71c-47.04,107.99-194.62,139.41-284.73,160.41c-141.65,33.02-579.21,35.87-656.13,33.22
		c-167.46-5.77-513.88-81.25-625.36-133.55C220.35,964.63,201.55,941.9,179.5,911.87L179.5,911.87z"/>
	<path class="st63" d="M179.34,910.22c36.87,68.16,201.29,114.08,268.94,133.49c215.96,61.96,384.26,80.15,586.21,96.16
		c54.02,4.28,111.07,6.63,135.48,10.16c21.24,3.06,175.17,39.21,175.26,63.87c0.05,14.34-147.98,103.48-187.06,101.12
		c-66.6-4.02-294.85-4.24-465.95-31.42c-150.72-23.94-344.23-24.84-500.86-100.18c-30.6-14.72-32.64-105.58-29.34-178.41
		C164.77,944.25,176.48,904.94,179.34,910.22L179.34,910.22z M709.1,1154.97c20.33,0,36.83,16.5,36.83,36.83
		c0,20.33-16.51,36.83-36.83,36.83c-20.33,0-36.83-16.5-36.83-36.83C672.27,1171.48,688.77,1154.97,709.1,1154.97L709.1,1154.97z
		 M540.58,1120.33c20.33,0,36.83,16.5,36.83,36.83c0,20.33-16.5,36.83-36.83,36.83c-20.33,0-36.83-16.5-36.83-36.83
		C503.75,1136.83,520.25,1120.33,540.58,1120.33L540.58,1120.33z M381.98,1083.45c20.33,0,36.83,16.51,36.83,36.83
		c0,20.32-16.5,36.83-36.83,36.83c-20.33,0-36.83-16.51-36.83-36.83C345.15,1099.96,361.65,1083.45,381.98,1083.45L381.98,1083.45z"
		/>
	<path class="st61" d="M971.46,1102.24c1.94-25.48-9.37-48.99-27.62-60.48c-12.92-8.12-29.43-10.83-48.08-3.91
		c-17.35,6.43-31.68,23.18-42.11,45.57c-13.3,28.56-20.92,66.39-24.96,95.68c-4.2,30.44-7.33,74.48-3.09,111.69
		c3.16,27.66,10.82,51.65,23.48,65.77c13.51,15.06,34.45,19.09,52.9,14.19c19.01-5.05,34.52-19.42,37.46-38.17
		c1.33-8.46-4.47-16.4-12.93-17.73c-8.45-1.32-16.4,4.47-17.73,12.92c-1.08,6.9-7.78,11.13-14.78,12.99
		c-7.54,2-16.32,1.23-21.84-4.92c-9.26-10.33-13.45-28.34-15.75-48.57c-3.95-34.63-0.91-75.61,2.99-103.94
		c3.66-26.55,10.29-60.92,22.35-86.82c6.49-13.93,13.99-25.58,24.78-29.59c21.54-7.99,35.57,12.14,33.98,32.95
		c-0.65,8.54,5.75,15.99,14.28,16.65C963.34,1117.18,970.81,1110.78,971.46,1102.24L971.46,1102.24z"/>
	<path class="st61" d="M696.95,1065.29c-9.97-3.29-18.7-3.16-26.33-0.79c-10.93,3.4-19.95,11.71-26.71,23.81
		c-13.05,23.38-17.7,62.64-19.02,92.91c-1.29,29.6,1.17,60.26,7.15,82.37c4.33,16.01,10.96,27.91,18.42,33.96
		c7.69,6.24,16.46,8.11,26.29,4.65c6.97-2.46,10.64-10.11,8.18-17.08c-2.45-6.97-10.1-10.64-17.07-8.18c-0.43,0.16-0.67-0.29-1-0.61
		c-0.53-0.53-1.04-1.15-1.54-1.83c-1.54-2.13-2.88-4.81-4.13-7.88c-7.94-19.56-10.93-52.6-9.55-84.24
		c1.14-26.33,4.28-60.68,15.64-81.02c3.02-5.39,6.41-9.77,11.28-11.29c2.9-0.9,6.2-0.6,9.99,0.65c7.02,2.31,14.59-1.51,16.91-8.52
		C707.78,1075.18,703.97,1067.6,696.95,1065.29L696.95,1065.29z"/>
	<path class="st61" d="M640.6,1274.4c-13.93,27.86-8.7,51.14-2.54,74.65c5.01,19.17,10.86,38.53,0.7,61.94
		c-2.25,5.21,0.14,11.27,5.34,13.53c5.2,2.26,11.27-0.13,13.53-5.34c12.36-28.48,6.43-52.02,0.33-75.33
		c-4.96-18.97-10.19-37.78,1.05-60.25c2.54-5.08,0.48-11.26-4.6-13.8C649.32,1267.26,643.14,1269.32,640.6,1274.4L640.6,1274.4z"/>
	<path class="st64" d="M440.06,1409.21c-3.23-27.14,19.65-53.02,44.68-50.87c2.94,0.25,5.54-1.94,5.79-4.89
		c0.25-2.94-1.93-5.54-4.88-5.79c-31.17-2.67-60.25,29.02-56.23,62.81c0.35,2.94,3.02,5.04,5.96,4.69
		C438.31,1414.81,440.41,1412.14,440.06,1409.21L440.06,1409.21z"/>
	<path class="st64" d="M464.08,1388.3c0.59-2.21,2.33-4.08,4.54-5.77c4.32-3.3,10.49-5.68,16.83-7c6.33-1.33,12.86-1.6,17.92-0.4
		c2.44,0.58,4.52,1.4,5.68,2.94c1.78,2.36,5.14,2.84,7.5,1.06c2.37-1.78,2.84-5.13,1.07-7.5c-2.47-3.28-6.56-5.69-11.77-6.92
		c-6.39-1.52-14.6-1.34-22.59,0.33c-7.98,1.67-15.69,4.82-21.13,8.98c-4.3,3.28-7.24,7.22-8.38,11.5c-0.77,2.86,0.93,5.8,3.79,6.56
		C460.38,1392.85,463.32,1391.15,464.08,1388.3L464.08,1388.3z"/>
	<path class="st64" d="M672.59,1286.66c-8.6-2.77-15.12-10.32-19.75-22.36c-7.81-20.31-9.97-52.57-5.5-97.42
		c0.3-2.94-1.86-5.57-4.8-5.86c-2.94-0.3-5.57,1.85-5.86,4.8c-4.7,47.12-2.05,80.98,6.16,102.32c6.06,15.74,15.2,25.07,26.46,28.7
		c2.82,0.91,5.84-0.64,6.74-3.45C676.96,1290.59,675.41,1287.56,672.59,1286.66L672.59,1286.66z"/>
	<path class="st64" d="M850.43,1190.05c-1.57-30.47,11.55-86.17,31.95-117c7.81-11.8,16.39-20.07,26.07-20.18
		c2.96-0.03,5.33-2.46,5.3-5.41c-0.03-2.96-2.46-5.33-5.42-5.3c-12.6,0.14-24.72,9.62-34.88,24.97
		c-21.53,32.52-35.38,91.31-33.72,123.46c0.16,2.95,2.67,5.23,5.62,5.07C848.31,1195.52,850.59,1193,850.43,1190.05L850.43,1190.05z
		"/>
	<path class="st64" d="M436.77,1493.01c-4.07,11.04-0.92,26.62,7.15,39.58c8.07,12.95,20.84,23.05,34.75,23.86
		c2.95,0.17,5.48-2.09,5.66-5.04c0.18-2.95-2.08-5.48-5.04-5.66c-10.67-0.62-20.09-8.9-26.28-18.82c-6.19-9.93-9.33-21.74-6.2-30.21
		c1.02-2.77-0.39-5.86-3.16-6.88C440.88,1488.82,437.8,1490.24,436.77,1493.01L436.77,1493.01z"/>
	<path class="st64" d="M576.28,1413.4c33.15,2.24,90.22,11.27,114,11.63c2.96,0.05,5.39-2.31,5.44-5.27
		c0.04-2.96-2.32-5.39-5.27-5.44c-23.66-0.36-80.45-9.38-113.44-11.61c-2.95-0.2-5.5,2.04-5.7,4.98
		C571.1,1410.64,573.33,1413.2,576.28,1413.4L576.28,1413.4z"/>
	<path class="st64" d="M770.38,1393.56c15.23-21.59,49.16-28.9,75.3-2.96c2.1,2.08,5.5,2.07,7.58-0.03c2.08-2.1,2.07-5.49-0.03-7.57
		c-31.82-31.57-73.07-21.88-91.6,4.39c-1.7,2.42-1.12,5.76,1.29,7.46C765.33,1396.55,768.68,1395.98,770.38,1393.56L770.38,1393.56z
		"/>
	<path class="st64" d="M900.75,1151.66c80.87-0.52,169.11,14.34,223.09,13.72c2.95-0.03,5.33-2.46,5.29-5.41
		c-0.03-2.96-2.46-5.33-5.41-5.3c-53.96,0.62-142.18-14.24-223.03-13.72c-2.96,0.02-5.34,2.43-5.32,5.39
		C895.38,1149.3,897.79,1151.68,900.75,1151.66L900.75,1151.66z"/>
	<path class="st64" d="M1152.45,1167.89c47.95,4.72,111.82,28.28,153.32,40.97c2.83,0.86,5.82-0.73,6.69-3.56
		c0.86-2.83-0.73-5.82-3.56-6.69c-42.06-12.85-106.82-36.59-155.41-41.38c-2.95-0.29-5.57,1.86-5.86,4.8
		C1147.35,1164.98,1149.51,1167.6,1152.45,1167.89L1152.45,1167.89z"/>
	<path class="st64" d="M947.83,1174.52c42.62-1.61,102.71,10.96,155.05,10.64c2.96-0.02,5.34-2.43,5.32-5.39
		c-0.02-2.96-2.44-5.35-5.4-5.33c-52.45,0.32-112.67-12.24-155.38-10.63c-2.95,0.11-5.26,2.6-5.15,5.55
		C942.39,1172.32,944.88,1174.63,947.83,1174.52L947.83,1174.52z"/>
	<path class="st64" d="M1796.05,1003.96c-2.45,13.56-16.45,27.07-36.05,40.08c-48.61,32.27-132.12,59.39-181.71,64.68
		c-2.94,0.31-5.07,2.95-4.76,5.89c0.32,2.94,2.96,5.07,5.9,4.76c50.9-5.44,136.6-33.28,186.49-66.4
		c22.62-15.02,37.85-31.45,40.67-47.1c0.53-2.91-1.41-5.7-4.32-6.22C1799.36,999.12,1796.57,1001.06,1796.05,1003.96
		L1796.05,1003.96z"/>
	<path class="st64" d="M1795.71,1039.66c-2.76,6.75-10.87,14.33-21.6,22.16c-26.86,19.6-70.24,39.5-98.67,46.16
		c-2.88,0.68-4.67,3.56-3.99,6.44c0.67,2.88,3.56,4.67,6.43,4c29.54-6.92,74.63-27.57,102.54-47.94
		c12.75-9.3,21.92-18.74,25.2-26.75c1.12-2.74-0.19-5.86-2.93-6.98C1799.96,1035.62,1796.83,1036.93,1795.71,1039.66
		L1795.71,1039.66z"/>
	<path class="st64" d="M1775.79,1116.79c-9.35,7.56-95.78,49.44-149.98,52.69c-2.95,0.18-5.21,2.71-5.03,5.67
		c0.18,2.95,2.71,5.21,5.66,5.03c56.44-3.38,146.35-47.18,156.08-55.06c2.3-1.86,2.66-5.24,0.8-7.54
		C1781.46,1115.29,1778.09,1114.93,1775.79,1116.79L1775.79,1116.79z"/>
	<path class="st64" d="M172.35,977.65c9.67,13.2,30.35,26.15,54.64,37.04c35.45,15.89,78.48,27.65,103.85,30.59
		c2.93,0.34,5.6-1.76,5.94-4.7c0.34-2.94-1.77-5.6-4.7-5.94c-24.6-2.86-66.33-14.32-100.7-29.73
		c-22.27-9.98-41.51-21.49-50.38-33.59c-1.75-2.38-5.1-2.9-7.49-1.16C171.11,971.91,170.6,975.27,172.35,977.65L172.35,977.65z"/>
	<path class="st64" d="M174.49,1013.42c7.21,8.35,20.91,16.2,37.53,23.16c23.76,9.95,53.57,18.36,77.35,25.03
		c2.85,0.8,5.81-0.86,6.6-3.71c0.8-2.85-0.87-5.81-3.71-6.6c-23.39-6.56-52.74-14.81-76.11-24.6
		c-14.78-6.19-27.15-12.86-33.56-20.28c-1.93-2.24-5.31-2.49-7.55-0.56C172.81,1007.8,172.55,1011.19,174.49,1013.42L174.49,1013.42
		z"/>
	<path class="st64" d="M535.69,799.78c184.43-87.6,423.1-86.87,577.34-82.35c2.96,0.08,5.43-2.24,5.51-5.2s-2.24-5.43-5.19-5.51
		c-155.57-4.56-396.24-4.97-582.25,83.38c-2.67,1.27-3.81,4.47-2.54,7.14C529.82,799.91,533.02,801.05,535.69,799.78L535.69,799.78z
		"/>
	<path class="st64" d="M773.84,769.41c79.84-20.9,208.89-23.81,290.58-22.26c2.96,0.06,5.4-2.3,5.46-5.26
		c0.06-2.95-2.3-5.4-5.26-5.45c-82.51-1.56-212.85,1.5-293.5,22.61c-2.86,0.75-4.57,3.68-3.82,6.54
		C768.05,768.44,770.98,770.16,773.84,769.41L773.84,769.41z"/>
</g>
</svg>
