<?xml version="1.0" encoding="utf-8"?>
<!-- Generator: Adobe Illustrator 26.4.1, SVG Export Plug-In . SVG Version: 6.00 Build 0)  -->
<svg version="1.1" id="Layer_1" xmlns="http://www.w3.org/2000/svg" xmlns:xlink="http://www.w3.org/1999/xlink" x="0px" y="0px"
	 viewBox="0 0 2000 2000" style="enable-background:new 0 0 2000 2000;" xml:space="preserve">
<style type="text/css">
	.st0{fill-rule:evenodd;clip-rule:evenodd;fill:#F49E23;}
	.st1{fill-rule:evenodd;clip-rule:evenodd;fill:#D14D36;}
	.st2{fill-rule:evenodd;clip-rule:evenodd;fill:#FDF0D3;}
	.st3{fill-rule:evenodd;clip-rule:evenodd;fill:#0C427E;}
	.st4{fill-rule:evenodd;clip-rule:evenodd;fill:#B45A25;}
	.st5{fill-rule:evenodd;clip-rule:evenodd;fill:#EC8C28;}
	.st6{fill-rule:evenodd;clip-rule:evenodd;fill:#EE9726;}
	.st7{fill-rule:evenodd;clip-rule:evenodd;fill:#302574;}
	.st8{fill-rule:evenodd;clip-rule:evenodd;fill:#F3B953;}
	.st9{fill-rule:evenodd;clip-rule:evenodd;fill:#3D648F;}
	.st10{fill-rule:evenodd;clip-rule:evenodd;fill:#145468;}
	.st11{fill-rule:evenodd;clip-rule:evenodd;fill:#3B7A7A;}
	.st12{fill-rule:evenodd;clip-rule:evenodd;fill:#098B8D;}
	.st13{fill-rule:evenodd;clip-rule:evenodd;fill:#689595;}
	.st14{fill-rule:evenodd;clip-rule:evenodd;fill:#679595;}
	.st15{fill-rule:evenodd;clip-rule:evenodd;fill:#CEE4E4;}
	
		.st16{fill-rule:evenodd;clip-rule:evenodd;fill:#145468;stroke:#CEE4E4;stroke-width:5;stroke-linecap:round;stroke-linejoin:round;stroke-miterlimit:10;}
	.st17{fill-rule:evenodd;clip-rule:evenodd;fill:#043A60;}
	.st18{fill-rule:evenodd;clip-rule:evenodd;fill:#FD9A65;}
	.st19{fill-rule:evenodd;clip-rule:evenodd;fill:#18658D;}
	.st20{fill-rule:evenodd;clip-rule:evenodd;fill:#9FCDE5;}
	.st21{fill-rule:evenodd;clip-rule:evenodd;fill:#56A8D3;}
	.st22{fill-rule:evenodd;clip-rule:evenodd;fill:#276383;}
	.st23{fill-rule:evenodd;clip-rule:evenodd;fill:#E0F0F8;}
	.st24{fill-rule:evenodd;clip-rule:evenodd;fill:#A51E1C;}
	.st25{fill-rule:evenodd;clip-rule:evenodd;fill:#CB442D;}
	.st26{fill-rule:evenodd;clip-rule:evenodd;fill:#DC5A44;}
	.st27{fill-rule:evenodd;clip-rule:evenodd;fill:#F7BD54;}
	.st28{fill-rule:evenodd;clip-rule:evenodd;fill:#E46B37;}
	.st29{fill-rule:evenodd;clip-rule:evenodd;fill:#B67227;}
	.st30{fill-rule:evenodd;clip-rule:evenodd;fill:#D78A35;}
	.st31{fill-rule:evenodd;clip-rule:evenodd;fill:#A4331F;}
	.st32{fill-rule:evenodd;clip-rule:evenodd;fill:#F2A550;}
	.st33{fill-rule:evenodd;clip-rule:evenodd;fill:#F9E9D6;}
	.st34{fill-rule:evenodd;clip-rule:evenodd;fill:#844013;}
	.st35{fill-rule:evenodd;clip-rule:evenodd;fill:#A04E18;}
	.st36{fill-rule:evenodd;clip-rule:evenodd;fill:#F8B872;}
	.st37{fill-rule:evenodd;clip-rule:evenodd;fill:#FFC689;}
	.st38{fill-rule:evenodd;clip-rule:evenodd;fill:#B6844D;}
	.st39{fill-rule:evenodd;clip-rule:evenodd;fill:#CA5320;}
	.st40{fill-rule:evenodd;clip-rule:evenodd;fill:#D76332;}
	.st41{fill-rule:evenodd;clip-rule:evenodd;fill:#812F0C;}
	.st42{fill-rule:evenodd;clip-rule:evenodd;fill:#8A460F;}
	.st43{fill-rule:evenodd;clip-rule:evenodd;fill:#B46914;}
	.st44{fill-rule:evenodd;clip-rule:evenodd;fill:#B54515;}
	.st45{fill-rule:evenodd;clip-rule:evenodd;fill:#FFCD71;}
	.st46{fill-rule:evenodd;clip-rule:evenodd;fill:#95B41D;}
	.st47{fill-rule:evenodd;clip-rule:evenodd;fill:#A8C731;}
	.st48{fill-rule:evenodd;clip-rule:evenodd;fill:#85A214;}
	.st49{fill-rule:evenodd;clip-rule:evenodd;fill:#C6EF28;}
	.st50{fill-rule:evenodd;clip-rule:evenodd;fill:#ED982B;}
	.st51{fill-rule:evenodd;clip-rule:evenodd;fill:#FCCF7C;}
	.st52{fill-rule:evenodd;clip-rule:evenodd;fill:#FFE8BC;}
	.st53{fill-rule:evenodd;clip-rule:evenodd;fill:#ED6961;}
	.st54{fill-rule:evenodd;clip-rule:evenodd;fill:#696E1E;}
	.st55{fill-rule:evenodd;clip-rule:evenodd;fill:#9CA42A;}
	.st56{fill-rule:evenodd;clip-rule:evenodd;fill:#7F8615;}
	.st57{fill-rule:evenodd;clip-rule:evenodd;fill:#FFEECF;}
	.st58{fill-rule:evenodd;clip-rule:evenodd;fill:#77786D;}
	.st59{fill-rule:evenodd;clip-rule:evenodd;fill:#D3D5C6;}
	.st60{fill-rule:evenodd;clip-rule:evenodd;fill:#7C7A7A;}
	.st61{fill-rule:evenodd;clip-rule:evenodd;fill:#DBDCD9;}
	.st62{fill-rule:evenodd;clip-rule:evenodd;fill:#CA372D;}
	.st63{fill-rule:evenodd;clip-rule:evenodd;fill:#FE7D75;}
	.st64{fill-rule:evenodd;clip-rule:evenodd;fill:#B0B0B0;}
	.st65{fill-rule:evenodd;clip-rule:evenodd;fill:#888787;}
	.st66{fill-rule:evenodd;clip-rule:evenodd;fill:#6E6E6E;}
	.st67{fill-rule:evenodd;clip-rule:evenodd;fill:#757575;}
	.st68{fill-rule:evenodd;clip-rule:evenodd;fill:#60341E;}
	.st69{fill-rule:evenodd;clip-rule:evenodd;fill:#B0451B;}
	.st70{fill-rule:evenodd;clip-rule:evenodd;fill:#8A4727;}
	.st71{fill-rule:evenodd;clip-rule:evenodd;fill:#FABB64;}
	.st72{fill-rule:evenodd;clip-rule:evenodd;fill:#3E88AF;}
	.st73{fill-rule:evenodd;clip-rule:evenodd;fill:#5BA0C5;}
	.st74{fill-rule:evenodd;clip-rule:evenodd;fill:#FFF1DE;}
	.st75{fill-rule:evenodd;clip-rule:evenodd;fill:#F8B89B;}
	.st76{fill-rule:evenodd;clip-rule:evenodd;fill:#E98A5F;}
	.st77{fill-rule:evenodd;clip-rule:evenodd;fill:#FFCAB3;}
	.st78{fill-rule:evenodd;clip-rule:evenodd;fill:#F9A580;}
	.st79{fill-rule:evenodd;clip-rule:evenodd;fill:#FFDFD2;}
	.st80{fill-rule:evenodd;clip-rule:evenodd;fill:#E2A85C;}
	.st81{fill-rule:evenodd;clip-rule:evenodd;fill:#C68446;}
	.st82{fill-rule:evenodd;clip-rule:evenodd;fill:#F2BC75;}
	.st83{fill-rule:evenodd;clip-rule:evenodd;fill:#F2BC76;}
	.st84{fill-rule:evenodd;clip-rule:evenodd;fill:#FFD69F;}
	.st85{fill-rule:evenodd;clip-rule:evenodd;fill:#E7624B;}
	.st86{fill-rule:evenodd;clip-rule:evenodd;fill:#F6E8DB;}
	.st87{fill-rule:evenodd;clip-rule:evenodd;fill:#FC9EB6;}
	.st88{fill-rule:evenodd;clip-rule:evenodd;fill:#FFFFFF;}
</style>
<g>
	<path class="st54" d="M1649.37,372.25c21.81,25.1,5.24,68.76,21.59,101.82c13.59,27.46,52.39,35.71,52.39,35.71
		s-12.15,29.42-5.73,53.98c9.99,38.2,52.67,46.84,52.67,46.84s-17.83,22.88-11.46,53.37c7.8,37.28,33.29,46.21,33.29,46.21
		s-22.35,25.69-20.64,56.32c1.38,24.81,16.31,46.19,37.94,49.57c41.24,6.44,82.55-137.76,83.24-169.36
		c1.74-80.2-42.07-187.72-125.26-261.47C1731.98,353.84,1631.42,351.59,1649.37,372.25L1649.37,372.25z"/>
	<path class="st54" d="M1345.68,341.64c0.93,14.15,147.25-24.04,146.48-26.09c-5.39-14.41-25.54-58.71-43.89-57.31
		c-17.3,1.32-54.95,5.21-80.01,17.09C1360.58,278.97,1345.13,333.34,1345.68,341.64L1345.68,341.64z"/>
	<path class="st54" d="M1124.1,421.22c65.49-31.46,222.04-77.82,221.25-77.93c-13.36-2.02-57.44-28.66-143.07-29.01
		c-36.96-0.15-156.97,3.76-191.01,30.01c-33.13,25.55-39.08,145.69-35.26,151.18C978.3,498.73,1088.24,438.44,1124.1,421.22
		L1124.1,421.22z"/>
	<path class="st55" d="M1893.45,541.16c-54.56-164.36-209.74-229.5-311.85-232.57c-115.75-3.49-503.15,74.85-648.65,208.56
		c-156.59,143.91-162.46,295.67-110.29,425.4c49.92,124.14,233.61,181.91,383.22,156.8c229.77-38.55,424.79-119.18,553.09-195.16
		C1866.46,840.53,1942.99,690.42,1893.45,541.16L1893.45,541.16z M1588.05,382.94c-82.72,28.22-118.31,126.34-104.75,258.04
		c9.87,95.86,135.54,229.19,240.77,185.01c127.01-53.33,114.23-208.06,81.11-306.19C1779.59,443.95,1673.96,353.63,1588.05,382.94
		L1588.05,382.94z"/>
	<path class="st54" d="M1408.18,248.39c14.03-3.23,27.02,1.14,29,9.74c1.98,8.61-7.8,18.22-21.83,21.44
		c-14.03,3.23-27.02-1.14-29-9.74C1384.37,261.23,1394.15,251.62,1408.18,248.39L1408.18,248.39z"/>
	<path class="st55" d="M1039.26,432.39c-22.33,12.36-53.78,29.31-55.24,15.04c-1.8-17.65,15.68-81,34.13-94.01
		c16.96-11.95,101.08,17.04,86.88,36.86C1096.94,401.6,1052.16,425.25,1039.26,432.39L1039.26,432.39z"/>
	<path class="st56" d="M1000.72,402.3C897.04,464.6,758.59,511.4,654.27,622.6c-65.04,69.34-120.13,168.15-120.48,248.13
		c-0.67,152.54,84.86,200.9,93.08,208.06c8.22,7.16-47.53-84.08-43.76-165.11c5.04-108.41,44.09-190.99,133.55-271.83
		c122.76-110.94,260.71-178.18,363.82-246.09C1093.21,387.38,1023.58,388.56,1000.72,402.3L1000.72,402.3z"/>
	<path class="st51" d="M1438.17,374.26c6.68-32.52-204.94,18.42-335.33,75.56c-170.15,74.57-279.02,240.3-264.13,370.98
		c19.27,169.11,227.89,253.33,432.1,214c138.98-26.77,334.77-84.79,308.34-115.38c-54.2-62.74-131.61-193.96-144.01-268.18
		C1415.21,531.91,1416.06,481.85,1438.17,374.26L1438.17,374.26z"/>
	<path class="st57" d="M1127.84,558.74c103.65-34.67,215.94,21.33,250.61,124.98c34.67,103.65-21.33,215.94-124.98,250.6
		c-103.64,34.67-215.94-21.33-250.61-124.98C968.19,705.7,1024.2,593.41,1127.84,558.74L1127.84,558.74z"/>
	<path class="st54" d="M1278.58,794.09c-0.62-37.61-62.76-81.69-97.75-70.67c-42.22,13.3-66.17,86.82-53.56,118.63
		c13.26,33.45,68.85,7.75,89.88-2.58C1239.25,828.62,1279.28,837.01,1278.58,794.09L1278.58,794.09z"/>
	<path class="st54" d="M1118.59,778.23c-15.06,9.73-40.01,16.3-55,1.69c-13.26-12.94-3.39-42.73,9.46-51.12
		c19.41-12.67,36.27-3.35,48.44,20.06C1128.05,761.48,1126.04,773.42,1118.59,778.23L1118.59,778.23z"/>
	<path class="st54" d="M1154.87,725.03c-17.91-0.88-42.01-10.11-45.65-30.72c-3.22-18.24,22.18-36.69,37.5-36
		c23.16,1.04,31.41,18.43,27.64,44.56C1172.33,716.94,1163.72,725.46,1154.87,725.03L1154.87,725.03z"/>
	<path class="st54" d="M1210.21,708.96c-10.82-14.3-19.23-38.69-5.76-54.72c11.92-14.18,42.36-6.55,51.68,5.63
		c14.07,18.42,6.04,35.92-16.41,49.8C1227.62,717.15,1215.56,716.03,1210.21,708.96L1210.21,708.96z"/>
	<path class="st54" d="M1256.71,737.33c-1.64-17.86,4.1-43.01,23.99-49.51c17.61-5.75,39.44,16.8,40.91,32.07
		c2.23,23.07-13.84,33.69-40.23,33.63C1267.18,753.47,1257.53,746.15,1256.71,737.33L1256.71,737.33z"/>
	<path class="st58" d="M179.17,892.98c2.53-0.31,5.89-1.49,9.7-3.94c5.46-3.51,12.91-10.22,21.12-18.75
		c25.8-26.79,60.2-72.03,65.73-82.88c5.1-10.01,0.9-23.79-10.59-35.08c-8.13-7.99-19.48-14.85-30.29-17.93
		c-8.52-2.43-16.76-2.49-23.41,0.04c-7.39,2.81-17.62,10.65-28.32,21.25c-22.83,22.62-48.94,57.65-55.9,71.98
		c-9.92,20.41-1.44,37.88,12.45,49.81C152.7,888.66,170.53,894.03,179.17,892.98L179.17,892.98z M176.19,872.63
		c-5.41,0.33-15.42-4.11-23.16-10.75c-7.11-6.1-12.43-14.78-7.35-25.23c6.44-13.24,30.77-45.46,51.88-66.36
		c8.13-8.05,15.54-14.5,21.16-16.64c2.98-1.13,6.67-0.58,10.49,0.51c7.69,2.19,15.74,7.13,21.52,12.82c2.3,2.26,4.24,4.63,5.53,7.02
		c0.8,1.49,1.8,2.83,1.16,4.09c-5.21,10.22-37.89,52.69-62.22,77.95c-5.96,6.19-11.38,11.32-15.73,14.53
		C178.32,871.41,176.69,872.35,176.19,872.63L176.19,872.63z"/>
	<path class="st55" d="M583.22,1003.72c-66.64-117.7-37.69-202.41-41.57-188.78c-39.55,138.79-15.97,228.4,38.03,283.8
		c84.16,86.34,186.01,87.21,264.35,175.21c44.5,49.99,67.47,109.83,6.7,161.38c-58.78,49.87-210.58,74.66-306.25,14.05
		c-115.7-73.31-146.93-222.99-150.87-344.58c-1.66-51.33-24.88-155.84-48.23-202.44c-29.69-59.25-56.17-84.74-114.26-113.53
		c-7.75-3.84-50.02,49.75-39.74,54.67c115.58,55.3,131.8,151.31,139.17,225.89c21.75,220.07,41.72,272.11,106.44,369.35
		c48.36,72.64,170.37,134.84,298.64,115.77c80.81-12.01,189.23-65.47,208.89-134.45c23.43-82.24,4.85-135.05-48.12-192.64
		C816.9,1140.99,652.96,1126.89,583.22,1003.72L583.22,1003.72z"/>
	<path class="st58" d="M170.94,787.08c0,0-22.57,30.91-22.97,30.64c-8.85-6.04-23.91-20.48-35.79-26.4
		c-1.27-0.63-11.95,16.25-40.99,16.41c-37.25,0.21-69.45-36.07-64.27-83.86c3.34-30.8,28.64-50.24,42.62-52.33
		c20.65-3.09,34.74,13.49,41.38,24.35c3.52,5.75-7.9,18.68-14.97,15.97c-6.19-2.37-13.88-13.01-24.03-5.44
		c-7.55,5.63-11.7,17.39-6.51,30.13c8.05,19.75,25.01,28.86,37.51,25.57c8.94-2.35,17.82-7.42,27.89-20.32
		c1.76-2.25-18.68-17.09-20.1-22.84c-1.32-5.31,6.49-15.25,11.54-11.66c8.3,5.9,25.96,18.57,32.86,27.76
		c2.91,3.87-1.53,18.5,3.52,23.54C147.08,767.02,162.6,781,170.94,787.08L170.94,787.08z"/>
	<path class="st59" d="M13.2,747.56c10.09,37.04,46.97,56.66,74.14,49.79c2.31-0.58,3.71-2.93,3.12-5.24
		c-0.58-2.31-2.93-3.71-5.24-3.12c-23.5,5.94-54.98-11.66-63.7-43.7c-0.63-2.3-3-3.65-5.3-3.03
		C13.94,742.89,12.58,745.26,13.2,747.56L13.2,747.56z"/>
	<path class="st59" d="M31.05,755.7c1.3,5.45,5.93,11.22,11.5,15.59c5.51,4.32,11.85,7.23,16.17,7.63c2.37,0.22,4.47-1.53,4.69-3.9
		c0.22-2.37-1.53-4.47-3.9-4.69c-3.14-0.29-7.62-2.68-11.63-5.83c-3.94-3.09-7.52-6.94-8.44-10.8c-0.55-2.31-2.88-3.75-5.2-3.2
		C31.93,751.06,30.5,753.39,31.05,755.7L31.05,755.7z"/>
	<path class="st59" d="M70.14,680.33c-5.29-4.43-12.39-5.41-19.67-3.91c-9.9,2.04-20.05,8.7-25.23,15.59
		c-1.43,1.9-1.05,4.61,0.85,6.04c1.9,1.43,4.61,1.05,6.04-0.86c4.12-5.47,12.22-10.71,20.08-12.33c4.56-0.94,9.08-0.69,12.4,2.08
		c1.83,1.53,4.55,1.28,6.07-0.54C72.21,684.58,71.96,681.86,70.14,680.33L70.14,680.33z"/>
	<path class="st59" d="M131.08,859.52c8.95,12.15,21.73,22,35.13,24.59c2.34,0.45,4.6-1.08,5.05-3.42c0.45-2.34-1.08-4.6-3.41-5.05
		c-11.44-2.22-22.19-10.87-29.83-21.24c-1.41-1.92-4.11-2.33-6.03-0.92C130.07,854.9,129.66,857.6,131.08,859.52L131.08,859.52z"/>
	<path class="st59" d="M229.8,795.72c-9.73,7.11-26.63,30.32-32.89,40.44c-1.25,2.02-0.62,4.68,1.4,5.94
		c2.02,1.25,4.69,0.62,5.94-1.4c5.86-9.48,21.53-31.35,30.64-38.01c1.92-1.4,2.34-4.1,0.94-6.03
		C234.43,794.74,231.72,794.32,229.8,795.72L229.8,795.72z"/>
	<path class="st59" d="M241.74,812.78c28.08,10.03,68.9,54.28,82.76,80.14c1.12,2.1,3.74,2.89,5.84,1.77
		c2.1-1.12,2.89-3.74,1.77-5.84c-14.6-27.26-57.88-73.63-87.47-84.19c-2.24-0.8-4.71,0.37-5.51,2.61
		C238.33,809.51,239.5,811.98,241.74,812.78L241.74,812.78z"/>
	<path class="st59" d="M264.35,842.6c22.45,19.83,59.12,64.27,77.35,102.18c1.03,2.15,3.61,3.05,5.76,2.02
		c2.14-1.03,3.05-3.61,2.02-5.76c-18.72-38.93-56.36-84.56-79.42-104.91c-1.79-1.58-4.51-1.4-6.09,0.38
		C262.4,838.3,262.57,841.02,264.35,842.6L264.35,842.6z"/>
	<path class="st59" d="M417.21,1395.91c45.76,85.69,137.51,149.48,256.6,150.51c2.38,0.02,4.33-1.9,4.35-4.28
		c0.02-2.38-1.9-4.33-4.28-4.35c-115.57-1.01-204.67-62.79-249.07-145.95c-1.12-2.1-3.73-2.89-5.83-1.77
		C416.88,1391.19,416.09,1393.81,417.21,1395.91L417.21,1395.91z"/>
	<path class="st59" d="M509.51,1476.38c34.08,25.28,90.35,47.87,138.08,46.1c2.38-0.09,4.24-2.09,4.15-4.47
		c-0.09-2.38-2.09-4.24-4.47-4.15c-45.86,1.7-99.87-20.12-132.62-44.41c-1.91-1.42-4.61-1.02-6.03,0.9
		C507.2,1472.26,507.6,1474.96,509.51,1476.38L509.51,1476.38z"/>
	<path class="st59" d="M504.95,1457.41c-42.74-29.25-63.66-76.13-85.22-116.99c-1.11-2.11-3.72-2.91-5.83-1.8
		c-2.1,1.11-2.91,3.72-1.8,5.83c22.17,42.02,44.01,90,87.97,120.08c1.96,1.34,4.65,0.84,6-1.12
		C507.42,1461.44,506.91,1458.76,504.95,1457.41L504.95,1457.41z"/>
	<path class="st59" d="M555.52,1048.52c29.35,49.05,58.56,74.67,100.9,93.33c2.18,0.96,4.73-0.03,5.69-2.21
		c0.96-2.18-0.03-4.73-2.21-5.69c-40.72-17.95-68.74-42.69-96.97-89.87c-1.22-2.04-3.87-2.71-5.91-1.49
		C554.96,1043.82,554.3,1046.47,555.52,1048.52L555.52,1048.52z"/>
	<path class="st59" d="M554.59,1015.57c15.96,34.1,37.6,63.41,60.98,78.82c1.99,1.31,4.66,0.76,5.98-1.23
		c1.31-1.99,0.76-4.66-1.23-5.98c-22.28-14.68-42.71-42.76-57.92-75.27c-1.01-2.16-3.58-3.09-5.73-2.08
		C554.51,1010.84,553.58,1013.41,554.59,1015.57L554.59,1015.57z"/>
	<path class="st59" d="M556.72,1030.07c-16.93-24.91-16.09-56.15-16.99-81.08c-0.09-2.38-2.09-4.24-4.47-4.15
		c-2.38,0.09-4.24,2.09-4.16,4.46c0.95,26.36,0.59,59.28,18.48,85.61c1.34,1.97,4.02,2.48,5.99,1.14
		C557.54,1034.72,558.05,1032.04,556.72,1030.07L556.72,1030.07z"/>
	<path class="st59" d="M827.43,919.43c15.71,41.57,47.3,72.32,85.66,94.97c56.76,33.52,128.35,49.28,183.92,56.75
		c2.36,0.32,4.53-1.34,4.85-3.7c0.32-2.36-1.34-4.53-3.7-4.85c-54.58-7.34-124.93-22.71-180.68-55.63
		c-36.65-21.64-66.98-50.88-81.98-90.59c-0.84-2.23-3.33-3.35-5.56-2.51C827.71,914.71,826.59,917.2,827.43,919.43L827.43,919.43z"
		/>
	<path class="st59" d="M951.42,1056.65c72.21,29.16,181.42,43.06,258.09,27.3c2.33-0.48,3.84-2.76,3.36-5.09
		c-0.48-2.33-2.76-3.84-5.09-3.36c-75.2,15.45-182.3,1.75-253.13-26.85c-2.21-0.89-4.72,0.18-5.61,2.39
		C948.14,1053.24,949.21,1055.76,951.42,1056.65L951.42,1056.65z"/>
	<path class="st59" d="M1672.14,416.91c-4,15.35-0.67,33.48,7.77,48.95c8.45,15.49,21.96,28.25,37.89,33.04
		c2.28,0.68,4.69-0.61,5.37-2.89c0.69-2.28-0.61-4.69-2.89-5.37c-13.86-4.17-25.46-15.44-32.8-28.91
		c-7.36-13.49-10.49-29.27-7-42.65c0.6-2.3-0.78-4.66-3.09-5.26C1675.1,413.22,1672.74,414.61,1672.14,416.91L1672.14,416.91z"/>
	<path class="st59" d="M1685.67,431.07c-1.11,8.2,1.43,18.02,5.74,26.64c4.3,8.6,10.34,15.94,15.78,19.38
		c2.01,1.27,4.68,0.67,5.95-1.34c1.27-2.01,0.67-4.68-1.34-5.95c-4.43-2.81-9.17-8.93-12.68-15.95c-3.5-7.01-5.81-14.95-4.9-21.62
		c0.32-2.36-1.34-4.53-3.7-4.85C1688.17,427.05,1685.99,428.71,1685.67,431.07L1685.67,431.07z"/>
	<path class="st59" d="M1725.83,522.89c-6.48,23.9-1.47,56.05,26.39,72.63c2.04,1.22,4.7,0.55,5.91-1.5c1.22-2.04,0.55-4.7-1.5-5.91
		c-24.1-14.35-28.08-42.29-22.47-62.96c0.62-2.3-0.74-4.67-3.04-5.29C1728.83,519.24,1726.45,520.6,1725.83,522.89L1725.83,522.89z"
		/>
	<path class="st59" d="M1739.37,523.12c-2.37,18.18-4.42,33.21,8.6,47.9c1.58,1.78,4.31,1.95,6.09,0.37
		c1.78-1.58,1.95-4.31,0.37-6.09c-11.13-12.55-8.52-25.54-6.51-41.07c0.31-2.36-1.36-4.53-3.72-4.83
		C1741.84,519.09,1739.68,520.75,1739.37,523.12L1739.37,523.12z"/>
	<path class="st59" d="M1771.63,617.6c-8.58,20.8-8.26,51.74,8,68.65c1.65,1.72,4.38,1.77,6.1,0.12c1.72-1.65,1.77-4.38,0.12-6.1
		c-14.05-14.61-13.65-41.41-6.24-59.39c0.91-2.2-0.14-4.73-2.34-5.63C1775.06,614.35,1772.54,615.4,1771.63,617.6L1771.63,617.6z"/>
	<path class="st59" d="M1783.53,631.89c-2.24,3.6-3.47,8.99-3.65,14.95c-0.25,8.28,1.45,17.66,4.31,24.07
		c0.97,2.18,3.52,3.15,5.69,2.18c2.18-0.97,3.16-3.52,2.19-5.69c-2.41-5.4-3.77-13.32-3.56-20.3c0.13-4.22,0.76-8.1,2.35-10.65
		c1.26-2.02,0.63-4.68-1.38-5.94C1787.45,629.24,1784.79,629.86,1783.53,631.89L1783.53,631.89z"/>
	<path class="st59" d="M1793.97,726.58c-3.5,2.39-6.8,6.83-9.37,12.21c-3.57,7.48-5.8,16.75-5.77,23.76
		c0.01,2.38,1.95,4.31,4.33,4.3c2.38-0.01,4.31-1.95,4.3-4.33c-0.02-5.91,1.92-13.71,4.93-20.01c1.82-3.81,3.96-7.11,6.45-8.8
		c1.97-1.34,2.47-4.03,1.13-5.99C1798.62,725.74,1795.93,725.23,1793.97,726.58L1793.97,726.58z"/>
	<path class="st59" d="M1703.44,374.61c98.86,59.39,172.92,172.27,159.43,289.74c-0.27,2.36,1.43,4.5,3.79,4.78
		c2.36,0.27,4.5-1.43,4.78-3.79c13.87-120.79-61.9-237.05-163.56-298.12c-2.04-1.23-4.69-0.56-5.92,1.48
		C1700.74,370.73,1701.4,373.38,1703.44,374.61L1703.44,374.61z"/>
	<path class="st59" d="M1817.72,448.42c43.07,47.52,67.82,108.7,62.38,178.03c-0.18,2.37,1.59,4.45,3.96,4.64
		c2.37,0.19,4.45-1.59,4.64-3.96c5.64-71.84-19.96-135.25-64.59-184.5c-1.6-1.76-4.33-1.9-6.09-0.3
		C1816.26,443.93,1816.12,446.66,1817.72,448.42L1817.72,448.42z"/>
	<path class="st59" d="M1506.9,773.39c22.14,39.75,72.98,78.21,123.19,94.62c34.12,11.15,67.91,12.04,92.5-2.92
		c2.03-1.24,2.68-3.89,1.44-5.93c-1.24-2.03-3.89-2.68-5.93-1.44c-22.68,13.8-53.86,12.38-85.34,2.09
		c-48.18-15.75-97.09-52.48-118.33-90.62c-1.16-2.08-3.79-2.83-5.87-1.67C1506.48,768.69,1505.74,771.31,1506.9,773.39
		L1506.9,773.39z"/>
	<path class="st59" d="M1539.19,789.67c23,26.81,57.34,49.1,89.85,60.28c22.15,7.62,43.47,10.04,59.94,5.59
		c2.3-0.62,3.66-2.99,3.04-5.29c-0.62-2.3-2.99-3.66-5.29-3.04c-15.09,4.08-34.6,1.56-54.89-5.42
		c-31.15-10.71-64.07-32.05-86.11-57.74c-1.55-1.81-4.28-2.02-6.08-0.47C1537.85,785.13,1537.64,787.86,1539.19,789.67
		L1539.19,789.67z"/>
	<path class="st59" d="M1071.84,340.21c49.6-10.77,116.82-12.72,153.75-8.37c2.36,0.28,4.51-1.42,4.79-3.78
		c0.28-2.36-1.42-4.51-3.78-4.79c-37.61-4.44-106.07-2.46-156.59,8.5c-2.33,0.51-3.8,2.81-3.3,5.13
		C1067.22,339.23,1069.52,340.71,1071.84,340.21L1071.84,340.21z"/>
	<path class="st59" d="M1116.81,352.55c33.26-9.73,66.21-4.64,84.1-4.59c2.38,0.01,4.32-1.92,4.32-4.3c0.01-2.38-1.92-4.32-4.3-4.33
		c-18.4-0.06-52.31-5.08-86.54,4.93c-2.29,0.67-3.6,3.07-2.93,5.35C1112.12,351.91,1114.52,353.22,1116.81,352.55L1116.81,352.55z"
		/>
	<path class="st59" d="M1426.21,252.7c-3.16-1.57-7.48-2.22-12.1-1.77c-6.48,0.62-13.55,3.36-18.49,7.97
		c-1.74,1.62-1.84,4.35-0.21,6.09c1.62,1.74,4.35,1.84,6.1,0.21c3.58-3.34,8.74-5.24,13.43-5.69c2.83-0.27,5.5-0.05,7.44,0.91
		c2.13,1.06,4.72,0.19,5.78-1.95C1429.21,256.35,1428.34,253.76,1426.21,252.7L1426.21,252.7z"/>
	<path class="st59" d="M1375.14,288.01c23.35-5.35,46.39-11.98,65.51-14.8c2.35-0.35,3.99-2.54,3.64-4.9
		c-0.35-2.35-2.54-3.98-4.9-3.64c-19.32,2.85-42.59,9.52-66.18,14.92c-2.32,0.53-3.77,2.85-3.24,5.17
		C1370.51,287.08,1372.82,288.54,1375.14,288.01L1375.14,288.01z"/>
	<path class="st59" d="M1388.75,296.86c13.1-1.73,30.58-7.34,38.8-8.92c2.34-0.45,3.87-2.71,3.42-5.05
		c-0.45-2.34-2.71-3.87-5.05-3.42c-8.11,1.56-25.36,7.14-38.29,8.84c-2.36,0.31-4.02,2.48-3.71,4.84
		C1384.23,295.51,1386.4,297.17,1388.75,296.86L1388.75,296.86z"/>
</g>
</svg>
