<?xml version="1.0" encoding="utf-8"?>
<!-- Generator: Adobe Illustrator 26.4.1, SVG Export Plug-In . SVG Version: 6.00 Build 0)  -->
<svg version="1.1" id="Layer_1" xmlns="http://www.w3.org/2000/svg" xmlns:xlink="http://www.w3.org/1999/xlink" x="0px" y="0px"
	 viewBox="0 0 2000 2000" style="enable-background:new 0 0 2000 2000;" xml:space="preserve">
<style type="text/css">
	.st0{fill-rule:evenodd;clip-rule:evenodd;fill:#145468;}
	.st1{fill-rule:evenodd;clip-rule:evenodd;fill:#3B7A7A;}
	.st2{fill-rule:evenodd;clip-rule:evenodd;fill:#098B8D;}
	.st3{fill-rule:evenodd;clip-rule:evenodd;fill:#689595;}
	.st4{fill-rule:evenodd;clip-rule:evenodd;fill:#679595;}
	.st5{fill-rule:evenodd;clip-rule:evenodd;fill:#CEE4E4;}
	
		.st6{fill-rule:evenodd;clip-rule:evenodd;fill:#145468;stroke:#CEE4E4;stroke-width:5;stroke-linecap:round;stroke-linejoin:round;stroke-miterlimit:10;}
	.st7{fill-rule:evenodd;clip-rule:evenodd;fill:#043A60;}
	.st8{fill-rule:evenodd;clip-rule:evenodd;fill:#FD9A65;}
	.st9{fill-rule:evenodd;clip-rule:evenodd;fill:#18658D;}
	.st10{fill-rule:evenodd;clip-rule:evenodd;fill:#9FCDE5;}
	.st11{fill-rule:evenodd;clip-rule:evenodd;fill:#56A8D3;}
	.st12{fill-rule:evenodd;clip-rule:evenodd;fill:#276383;}
	.st13{fill-rule:evenodd;clip-rule:evenodd;fill:#E0F0F8;}
	.st14{fill-rule:evenodd;clip-rule:evenodd;fill:#A51E1C;}
	.st15{fill-rule:evenodd;clip-rule:evenodd;fill:#CB442D;}
	.st16{fill-rule:evenodd;clip-rule:evenodd;fill:#DC5A44;}
	.st17{fill-rule:evenodd;clip-rule:evenodd;fill:#F7BD54;}
	.st18{fill-rule:evenodd;clip-rule:evenodd;fill:#E46B37;}
	.st19{fill-rule:evenodd;clip-rule:evenodd;fill:#B67227;}
	.st20{fill-rule:evenodd;clip-rule:evenodd;fill:#D78A35;}
	.st21{fill-rule:evenodd;clip-rule:evenodd;fill:#A4331F;}
	.st22{fill-rule:evenodd;clip-rule:evenodd;fill:#F2A550;}
	.st23{fill-rule:evenodd;clip-rule:evenodd;fill:#F9E9D6;}
	.st24{fill-rule:evenodd;clip-rule:evenodd;fill:#844013;}
	.st25{fill-rule:evenodd;clip-rule:evenodd;fill:#A04E18;}
	.st26{fill-rule:evenodd;clip-rule:evenodd;fill:#F8B872;}
	.st27{fill-rule:evenodd;clip-rule:evenodd;fill:#FFC689;}
	.st28{fill-rule:evenodd;clip-rule:evenodd;fill:#B6844D;}
	.st29{fill-rule:evenodd;clip-rule:evenodd;fill:#CA5320;}
	.st30{fill-rule:evenodd;clip-rule:evenodd;fill:#D76332;}
	.st31{fill-rule:evenodd;clip-rule:evenodd;fill:#812F0C;}
	.st32{fill-rule:evenodd;clip-rule:evenodd;fill:#8A460F;}
	.st33{fill-rule:evenodd;clip-rule:evenodd;fill:#B46914;}
	.st34{fill-rule:evenodd;clip-rule:evenodd;fill:#B54515;}
	.st35{fill-rule:evenodd;clip-rule:evenodd;fill:#FFCD71;}
	.st36{fill-rule:evenodd;clip-rule:evenodd;fill:#95B41D;}
	.st37{fill-rule:evenodd;clip-rule:evenodd;fill:#A8C731;}
	.st38{fill-rule:evenodd;clip-rule:evenodd;fill:#85A214;}
	.st39{fill-rule:evenodd;clip-rule:evenodd;fill:#C6EF28;}
	.st40{fill-rule:evenodd;clip-rule:evenodd;fill:#ED982B;}
	.st41{fill-rule:evenodd;clip-rule:evenodd;fill:#FCCF7C;}
	.st42{fill-rule:evenodd;clip-rule:evenodd;fill:#FFE8BC;}
	.st43{fill-rule:evenodd;clip-rule:evenodd;fill:#ED6961;}
	.st44{fill-rule:evenodd;clip-rule:evenodd;fill:#696E1E;}
	.st45{fill-rule:evenodd;clip-rule:evenodd;fill:#9CA42A;}
	.st46{fill-rule:evenodd;clip-rule:evenodd;fill:#7F8615;}
	.st47{fill-rule:evenodd;clip-rule:evenodd;fill:#FFEECF;}
	.st48{fill-rule:evenodd;clip-rule:evenodd;fill:#77786D;}
	.st49{fill-rule:evenodd;clip-rule:evenodd;fill:#D3D5C6;}
	.st50{fill-rule:evenodd;clip-rule:evenodd;fill:#7C7A7A;}
	.st51{fill-rule:evenodd;clip-rule:evenodd;fill:#DBDCD9;}
	.st52{fill-rule:evenodd;clip-rule:evenodd;fill:#CA372D;}
	.st53{fill-rule:evenodd;clip-rule:evenodd;fill:#FE7D75;}
	.st54{fill-rule:evenodd;clip-rule:evenodd;fill:#B0B0B0;}
	.st55{fill-rule:evenodd;clip-rule:evenodd;fill:#888787;}
	.st56{fill-rule:evenodd;clip-rule:evenodd;fill:#6E6E6E;}
	.st57{fill-rule:evenodd;clip-rule:evenodd;fill:#757575;}
	.st58{fill-rule:evenodd;clip-rule:evenodd;fill:#60341E;}
	.st59{fill-rule:evenodd;clip-rule:evenodd;fill:#B0451B;}
	.st60{fill-rule:evenodd;clip-rule:evenodd;fill:#8A4727;}
	.st61{fill-rule:evenodd;clip-rule:evenodd;fill:#FABB64;}
	.st62{fill-rule:evenodd;clip-rule:evenodd;fill:#3E88AF;}
	.st63{fill-rule:evenodd;clip-rule:evenodd;fill:#5BA0C5;}
	.st64{fill-rule:evenodd;clip-rule:evenodd;fill:#FFF1DE;}
	.st65{fill-rule:evenodd;clip-rule:evenodd;fill:#F8B89B;}
	.st66{fill-rule:evenodd;clip-rule:evenodd;fill:#E98A5F;}
	.st67{fill-rule:evenodd;clip-rule:evenodd;fill:#FFCAB3;}
	.st68{fill-rule:evenodd;clip-rule:evenodd;fill:#F9A580;}
	.st69{fill-rule:evenodd;clip-rule:evenodd;fill:#FFDFD2;}
	.st70{fill-rule:evenodd;clip-rule:evenodd;fill:#E2A85C;}
	.st71{fill-rule:evenodd;clip-rule:evenodd;fill:#C68446;}
	.st72{fill-rule:evenodd;clip-rule:evenodd;fill:#F2BC75;}
	.st73{fill-rule:evenodd;clip-rule:evenodd;fill:#F2BC76;}
	.st74{fill-rule:evenodd;clip-rule:evenodd;fill:#FFD69F;}
	.st75{fill-rule:evenodd;clip-rule:evenodd;fill:#E7624B;}
	.st76{fill-rule:evenodd;clip-rule:evenodd;fill:#FFEED9;}
	.st77{fill-rule:evenodd;clip-rule:evenodd;fill:#C26E11;}
	.st78{fill-rule:evenodd;clip-rule:evenodd;fill:#F39226;}
	.st79{fill-rule:evenodd;clip-rule:evenodd;fill:#DF5020;}
	.st80{fill-rule:evenodd;clip-rule:evenodd;fill:#2C140B;}
	.st81{fill-rule:evenodd;clip-rule:evenodd;fill:#FFFFFF;}
	.st82{fill-rule:evenodd;clip-rule:evenodd;}
	.st83{fill-rule:evenodd;clip-rule:evenodd;fill:#A96F3E;}
	.st84{fill-rule:evenodd;clip-rule:evenodd;fill:#683A15;}
	.st85{fill-rule:evenodd;clip-rule:evenodd;fill:#F0DCCB;}
	.st86{fill-rule:evenodd;clip-rule:evenodd;fill:#E6D1B6;}
	.st87{fill-rule:evenodd;clip-rule:evenodd;fill:#69553C;}
</style>
<g>
	<path class="st76" d="M1943.89,640.03c-1.39,2.43-2.98,4.86-4.78,7.37c-0.02,0-0.02,0.02-0.02,0.02c-1.82,2.56-3.93,5.15-6.21,7.78
		c-23.09,26.6-66.93,55.7-114.03,74.88c-46.61,18.99-94.4,32.27-104.9,39.98c-20.09,14.72-38.55,55.19-54.75,108.91l0,0.02
		c-5.99,19.89-11.7,41.59-17.08,64.45c-28.55,121.81-47.62,276.8-52.57,368.16c-6.34,117.23-47.41,387.6-44.34,387.46
		c7.22-0.31,39.73-9.98,54.39,6.52c27.48,30.85,10.34,71.14-33.56,74.98c-32.66,2.85-94.29,0.18-102.11-15.1
		c-4.79-9.35-8.47-38.2-11.43-57.51c-5.42-35.66-21.19-152.38-24.93-179.9c-0.49-3.76-0.77-5.84-0.77-5.84s-16.3,15.31-38.47,28.68
		c-0.52,0.31-1.06,0.62-1.58,0.95c-0.71,0.42-1.82,3.54-3.2,8.8c-8.76,33.38-28.57,152.47-25.81,206.17
		c0.13,2.28,43.18-19.85,61.29,0.04c11.8,12.92,17.91,27.11,16.81,41.21l0,0.02c-1.17,14.58-10.02,29.06-28.34,42.13
		c-23.47,16.75-129.49,14.78-143.1-16.76c-7.23-16.77-13.06-50.12-17.67-85.33c-7.98-60.63-12.47-126.77-14.59-123.36
		c-1.03,1.64-2.04,3.24-3.09,4.84c-38.21,59.08-90.13,102.65-127.19,129.14c-0.02,0-0.04,0.02-0.04,0.04c-0.02,0-0.04,0-0.07,0.02
		c-27.89,19.94-47.31,30.22-45.98,30.08c38.29-3.29,122.41,0.21,157.85,22.1c12.99,8.04,23.33,26.86,23.57,45.41
		c0.17,14.01-5.4,27.87-19.93,36.84c-48.33,29.81-346.63,0.19-419.2-22.06c-26.52-8.15-5.67-52.73-22.87-59.49
		c-54.31-21.31-70.11-45.24-74.03-50.9c-1.34-1.97-69.15,25.01-171.85,4.87c-49.81-9.78-96.49-31.14-140.44-62.37
		c-39.28-27.89-76.39-63.65-111.7-106.08c-32.25-38.76-66.28-98.63-94.83-160.63c-50.88-110.45-84.3-227.61-59.05-244.03
		c42.66-27.72,126.12,171.52,180.85,269.43c50.48,90.29,103.95,154.83,183.41,194.17c3.52,1.75,7.08,3.46,10.7,5.1
		c30.21,13.72,67.09,20.08,97.25,21.76c25.42,1.39,46.06-0.54,53.97-4.18c2.34-1.04,0.17-9.46-3.53-24.2
		c-5.31-21.07-13.8-55.05-16.91-98.94c-5.06-71.51,6.56-166.75,63.03-258.35c18.7-30.39,42.35-60.38,71.97-88.96
		c46.54-44.89,97.81-71.88,150.73-95.13c0.02,0,0.02,0,0.04,0l0.02,0c97.8-42.98,201.09-73.26,290.2-180.6
		c2.62-3.16,5.18-6.31,7.68-9.51c21.99-28.05,39.27-57.42,52.45-87.53c7.71-17.62,14.02-35.5,19.01-53.55l0-0.02
		c14.35-51.68,17.99-104.5,13.58-155.71l0-0.06c-1-11.67-2.41-23.25-4.22-34.7c-4.81-30.49-9.49-60.88-11.68-91.05
		c-0.03-0.37-0.05-0.74-0.08-1.09c-0.1-1.09-0.15-2.17-0.2-3.26c-3.12-47.65,0.2-94.68,19.22-140.36
		c2.59-6.22,5.47-12.41,8.66-18.57c5.66-10.95,12.3-21.76,20.08-32.53c0-0.02,0.02-0.04,0.04-0.07c0-0.02,0.02-0.04,0.04-0.07
		c12.5-17.28,27.87-34.3,46.63-51.05c57.66-51.41,100.66-62.73,172.21-59.05l0.02,0c16.25,0.83,33.97,2.45,53.68,4.57
		c3.22,0.34,6.45,0.77,9.67,1.3l0.02,0c4.84,0.83,9.7,1.87,14.56,3.17c0,0,0,0,0.02,0c5.17,1.34,10.36,2.93,15.49,4.77
		c0,0,0,0,0.02,0c0,0,0,0,0.02,0c19.36,6.93,38.38,17.32,56.03,30.82l0.02,0.02c20.39,15.53,38.98,35.15,54.11,58.29l0,0.02
		c10.46,15.95,19.28,33.53,25.96,52.61c19.15,54.68,12.88,107.5,33.45,136.82c1.5,2.14,3.13,4.15,4.93,6.02
		c18.25,19.01,90.32,8.36,127.13,25.15C1974.45,532.13,1973.4,588.32,1943.89,640.03z"/>
	<path class="st77" d="M1635.86,210.31c19.39-6.29,53-20.1,75.62-8.61c27.5,13.97,105.08,59.59,89.38,92.42
		c-11.26,23.54-45.06-12.59-66.31,12.53c-8.62,10.19-78.12-74.01-87.78-88.21L1635.86,210.31L1635.86,210.31z"/>
	<path class="st78" d="M1611.74,198.58c-3.2-0.8,25.43,51.85,42.34,104.45c13.91,43.26,34.86,107.42,71.11,138.61
		c31.52,27.11,93.4,53.14,85.84,43.56c-16.3-20.68-10.69-118.01-57.85-190.25C1710.89,230.15,1665.37,211.97,1611.74,198.58
		L1611.74,198.58z"/>
	<path class="st78" d="M1621.73,204.23c51.81-6.68,80.48-54.53,119.26-60.74c20.8-3.34,48.43,4.99,64.3,28.6
		c8.56,12.74,20.66,23.54,36.03,29.24c15.14,5.62,31.01,10.16,44.69,24.41c21.31,22.22,6.96,55.98-2.13,76.56
		c-14.43,32.66-35.89,66.59-64.66,68.98c-24.07,2-33.66-66.58-54.93-96.11c-18.4-25.55-32.91-53.68-62.23-36.1
		C1695.15,243.2,1615.38,205.05,1621.73,204.23L1621.73,204.23z"/>
	<path class="st78" d="M1545.53,276.34c-8.76-31.93-7.69-61.09,2.94-81.88c2.29-4.49-36.28-5.07-67.9,1.73
		c-24.77,5.32-30.37,9.66-41.78,13.55c-1.56,0.53-17.23-31.17-45.09-34c-50.93-5.18-62.7,29.59-104.09,32.41
		c-30.71,2.09-83.1-3.94-105.86,12.32c-16.65,11.9-17.52,30.29-19.12,50.85c-4.28,54.9,23.96,156.33,56,157.89
		c25.64,1.24,37.9-27.22,44.13-36.29c12.12-17.67,52.86-65.59,50.87-62.65c-17.64,26.09-25.23,46.07-32.51,100.49
		c-9.87,73.78,14.8,182.34,16.97,215.36c1.23,18.8,22.77-23.76,58.45-41.72c27.17-13.68,90.37,0.51,134.39-12.45
		c40.27-11.86,75.97-39.82,91.67-70.49c32.23-62.95,30.58-98.1-8.8-170.25C1565.98,333.24,1552.55,301.92,1545.53,276.34
		L1545.53,276.34z"/>
	<path class="st78" d="M1320.38,1105.49c-1.72,63.52-55.83,110.65-120.24,108.04c-30.5-1.24-63.55-17.99-93.99-12.16
		c-32.1,6.15-55.46,23.02-89.9,6.05c-36.41-17.93-31.4-70.26-56.86-85.51c-12.35-7.4-29.81-8.96-44.57-8.65
		c97.82-42.99,201.1-73.27,290.22-180.61c2.61-3.16,5.17-6.31,7.67-9.51c16.3-1.31,33.24,3.31,52.67,16
		C1315.55,971.91,1322.39,1031.24,1320.38,1105.49z"/>
	<path class="st78" d="M931.43,1528.82c-3.19,37.94-27.89,58.1-57.17,80.19c-53.67,40.51-114.48,57.88-183.32,56.7
		c-17.74-0.3-32.6-4.28-44.98-11.09c-5.31-21.06-13.81-55.05-16.92-98.93c-5.05-71.5,6.57-166.76,63.03-258.36
		c0.75,59.78,102.31,32.8,133.84,68.74c35.63,40.59,12.56,68.5,41.08,93.88C882.92,1474.13,937.39,1458.17,931.43,1528.82z"/>
	<path class="st78" d="M1095.83,1497.43c-38.94-17.45-76.89,6.16-88.47,29.44c-14.29,28.74,4.35,37.83,4.79,84.95
		c0.15,15.9-21.56,49.41-24.38,78.15c-2.88,29.36,13.45,53.85,44.16,59.43c33.25,6.04,78.47-10,96.34-41.89
		c21.79-38.89,24.19-76.8,21.26-116.37C1145.7,1539.54,1129.75,1512.63,1095.83,1497.43L1095.83,1497.43z"/>
	<path class="st78" d="M388.86,1703.28c-39.27-27.89-76.39-63.65-111.69-106.07c-32.26-38.76-66.28-98.64-94.85-160.64
		c15.6-13.19,40.79-14.68,57.59-4.1c33.7,21.21,26.76,41.58,30.76,73.01c4.1,32.29,7.7,51.06,25.51,66.18
		c17.82,15.13,53.01,3.93,81.36,24.58C415.42,1623.83,416.85,1674.9,388.86,1703.28z"/>
	<path class="st78" d="M524.81,1725.9c-38.62-11.49-51.15-31.58-37.27-69.75c3.52,1.75,7.08,3.44,10.7,5.09
		c30.21,13.72,67.1,20.07,97.27,21.75C600.43,1716.76,579.03,1742.04,524.81,1725.9z"/>
	<path class="st77" d="M927.22,1385.69c149.68,22.84,243.44,140.82,213.69,279.19c-18.06,83.99-89.04,122.03-89.04,122.03
		c-2.04,1.09-3.04,3.46-2.39,5.68c0.65,2.22,2.76,3.69,5.06,3.52c0,0,68.37-5.11,127.17,6.66c20.97,4.2,33.78,10.79,41.46,19.45
		c7.46,8.42,9.89,18.68,10.73,29.93c0.2,2.69,2.55,4.72,5.24,4.52c2.69-0.2,4.72-2.55,4.52-5.25c-1-13.46-4.24-25.63-13.17-35.7
		c-8.72-9.83-23.05-17.79-46.87-22.56c-41.27-8.26-87.15-8.39-111.8-7.66c22.97-16.85,65.05-55.35,78.65-118.56
		c30.96-143.97-66.04-267.16-221.78-290.92c-2.67-0.41-5.17,1.43-5.58,4.1C922.72,1382.78,924.55,1385.28,927.22,1385.69
		L927.22,1385.69z"/>
	<path class="st77" d="M1166.7,1408.11c51.46,97.55,73.14,281.71,74.29,335.31c0.06,2.7,2.3,4.85,5,4.79c2.7-0.06,4.85-2.3,4.79-5
		c-1.17-54.3-23.29-240.84-75.42-339.67c-1.26-2.39-4.22-3.31-6.61-2.05C1166.36,1402.76,1165.44,1405.72,1166.7,1408.11
		L1166.7,1408.11z"/>
	<path class="st77" d="M1361.28,1762.89c3.96-47.59,29.19-280.95,77.96-457.33c0.72-2.61-0.81-5.3-3.41-6.02
		c-2.61-0.72-5.3,0.81-6.02,3.41c-49.25,178.13-74.6,414.14-78.35,459.97c-0.42,5.1-0.53,8.09-0.47,8.68
		c0.29,2.85,2.2,3.73,2.75,3.99c0.27,0.13,2.46,1.08,5.41-0.54c4.52-2.48,26.31-15.75,45.95-9.31
		c18.95,6.22,26.59,23.47,27.37,37.95c0.15,2.7,2.46,4.77,5.15,4.62c2.7-0.14,4.77-2.45,4.62-5.15
		c-0.97-17.9-10.67-39.04-34.1-46.73C1390.67,1750.71,1371.64,1757.88,1361.28,1762.89L1361.28,1762.89z"/>
	<path class="st77" d="M1384.64,1560.18c50.89-29.35,114.37-103.76,134.75-143.38c1.24-2.4,0.29-5.36-2.11-6.59
		c-2.4-1.23-5.36-0.29-6.59,2.11c-19.81,38.51-81.47,110.84-130.93,139.37c-2.34,1.35-3.14,4.35-1.79,6.69
		C1379.3,1560.72,1382.29,1561.53,1384.64,1560.18L1384.64,1560.18z"/>
	<path class="st79" d="M1659.2,878.99l0,0.02c-5.99,19.89-11.7,41.59-17.08,64.45c-96.97-0.31-299.6-47.71-376.96-107.86
		c7.71-17.62,14.02-35.5,19.01-53.55C1374.97,834.85,1554.25,885.45,1659.2,878.99z"/>
	<path class="st80" d="M1947.11,550.01c-4.89-11.05-33.11-13.62-44.78-11.84c-22.83,3.48-40.4,11.77-40.95,24.63
		c-0.95,22.31,30.84,42.72,46.59,41.36C1940.5,601.37,1951.57,560.1,1947.11,550.01L1947.11,550.01z"/>
	<path class="st80" d="M1740.06,672.6c33.16,7.37,71.83,9.37,104.54-0.16c33.6-9.78,61.02-31.54,70.65-71.61
		c0.63-2.63-0.99-5.27-3.62-5.9c-2.63-0.63-5.27,0.99-5.9,3.62c-8.68,36.16-33.55,55.67-63.86,64.5c-31.2,9.08-68.06,7.03-99.68,0
		c-2.64-0.59-5.25,1.08-5.84,3.72C1735.76,669.39,1737.42,672.01,1740.06,672.6L1740.06,672.6z"/>
	<path class="st80" d="M1939.11,647.41c-0.02,0-0.02,0.02-0.02,0.02c-1.82,2.56-3.93,5.15-6.21,7.78
		c-6.28-3.77-11.31-9.36-15.22-15.87c-3.82-6.4-6.52-13.71-8.24-20.91c-1.15-4.9-1.85-9.75-2.16-14.25
		c-0.05-0.83-0.1-1.63-0.13-2.44c-0.09-2.7,2.02-4.96,4.72-5.07c1.15-0.03,2.22,0.33,3.1,0.97c1.14,0.86,1.91,2.2,1.97,3.74
		c0,0.28,0.03,0.56,0.05,0.87c0.49,10,3.25,22.24,9.11,32.04C1929.34,639.8,1933.63,644.5,1939.11,647.41z"/>
	<path class="st80" d="M1485.75,381.83c8.22-6.65,15.43-9.74,24.49-10.46c5.42-0.43,9.47-5.18,9.04-10.6
		c-0.43-5.42-5.18-9.47-10.6-9.04c-13.03,1.04-23.5,5.23-35.32,14.78c-4.23,3.42-4.89,9.63-1.47,13.85
		C1475.32,384.59,1481.53,385.25,1485.75,381.83L1485.75,381.83z"/>
	<path class="st80" d="M1719.55,356.7c6.05-3.59,13.83-0.92,17.16,0.11c5.19,1.61,10.71-1.3,12.33-6.49
		c1.61-5.19-1.3-10.71-6.49-12.33c-6.42-1.99-21.38-5.17-33.05,1.76c-4.68,2.77-6.22,8.82-3.45,13.5
		C1708.83,357.92,1714.87,359.47,1719.55,356.7L1719.55,356.7z"/>
	<path class="st81" d="M1546.83,392.75c19.97-0.19,36.39,21.33,36.64,48.02c0.25,26.69-15.76,48.51-35.73,48.69
		c-19.97,0.19-36.39-21.33-36.64-48.02C1510.85,414.76,1526.86,392.94,1546.83,392.75L1546.83,392.75z"/>
	<path class="st81" d="M1753.57,366.14c16.65-0.16,30.33,17.78,30.54,40.03c0.21,22.25-13.14,40.44-29.79,40.59
		c-16.65,0.16-30.33-17.78-30.54-40.03C1723.58,384.49,1736.92,366.3,1753.57,366.14L1753.57,366.14z"/>
	<path class="st82" d="M1554.34,401.41c16.58-0.15,30.21,17.71,30.41,39.86c0.21,22.16-13.09,40.27-29.66,40.43
		c-16.58,0.15-30.21-17.71-30.42-39.87C1524.46,419.67,1537.76,401.56,1554.34,401.41L1554.34,401.41z"/>
	<path class="st82" d="M1759.83,373.35c13.82-0.13,25.18,14.76,25.35,33.23c0.17,18.47-10.91,33.57-24.73,33.7
		c-13.82,0.13-25.18-14.76-25.35-33.23C1734.93,388.58,1746.01,373.48,1759.83,373.35L1759.83,373.35z"/>
	<path class="st77" d="M1188.24,407.02c7.37,14.36,17.95,23.75,29.52,26.02c11.74,2.3,24.98-2.42,37.51-17.9
		c23.16-28.61,60.4-82,94.91-118.81c17.68-18.86,36.41-32.73,68.78-22.95c2.59,0.78,5.32-0.68,6.1-3.27
		c0.78-2.59-0.68-5.32-3.27-6.1c-36.97-11.17-58.56,4.09-78.76,25.62c-34.67,36.98-72.11,90.61-95.38,119.35
		c-9.51,11.74-19.12,16.19-28.02,14.45c-9.07-1.78-16.91-9.63-22.69-20.89c-1.23-2.41-4.19-3.35-6.59-2.12
		C1187.95,401.67,1187,404.62,1188.24,407.02L1188.24,407.02z"/>
	<path class="st77" d="M1175.39,1858.48c6.15-0.59,12.12,1.3,15.84,5.86c3.96,4.85,5.22,12.44,2.42,22.59
		c-0.72,2.61,0.81,5.3,3.42,6.02c2.6,0.72,5.3-0.81,6.02-3.42c3.9-14.15,1.25-24.62-4.27-31.39c-5.76-7.05-14.86-10.33-24.36-9.41
		c-2.69,0.26-4.66,2.65-4.41,5.34C1170.31,1856.76,1172.7,1858.73,1175.39,1858.48L1175.39,1858.48z"/>
	<path class="st77" d="M1190.78,1841.47c8.76-1.27,16.16,3.71,21.08,10.22c4.97,6.57,7.65,14.83,6.05,20.65
		c-0.72,2.61,0.81,5.3,3.42,6.02c2.61,0.72,5.3-0.81,6.02-3.42c2.25-8.16-0.71-19.95-7.67-29.16c-7.01-9.28-17.81-15.81-30.29-14.01
		c-2.67,0.39-4.53,2.87-4.14,5.54C1185.62,1840,1188.11,1841.86,1190.78,1841.47L1190.78,1841.47z"/>
	<path class="st77" d="M1377.38,1813.39c4.76-1.18,9.68,0.54,13.61,3.8c6.34,5.25,10.19,14.59,7,24.19
		c-0.85,2.57,0.54,5.34,3.1,6.19c2.56,0.85,5.34-0.54,6.19-3.1c4.59-13.81-0.92-27.26-10.05-34.81c-6.38-5.29-14.48-7.67-22.21-5.76
		c-2.62,0.65-4.22,3.31-3.58,5.93C1372.1,1812.44,1374.76,1814.04,1377.38,1813.39L1377.38,1813.39z"/>
	<path class="st77" d="M1397.39,1797.03c14.98,1.05,19.83,13.34,18.91,24.18c-0.23,2.69,1.77,5.06,4.46,5.29
		c2.69,0.23,5.06-1.77,5.29-4.46c1.34-15.76-6.19-33.25-27.98-34.78c-2.69-0.19-5.04,1.85-5.22,4.54
		C1392.66,1794.5,1394.69,1796.84,1397.39,1797.03L1397.39,1797.03z"/>
	<path class="st77" d="M1557.3,1739.69c14.99-2.27,21.51,11.79,24.31,25.81c0.53,2.65,3.11,4.37,5.76,3.84
		c2.65-0.53,4.37-3.11,3.84-5.76c-3.85-19.29-14.75-36.71-35.38-33.58c-2.67,0.4-4.51,2.9-4.11,5.57
		C1552.13,1738.25,1554.63,1740.09,1557.3,1739.69L1557.3,1739.69z"/>
	<path class="st77" d="M1571.67,1719.61c4.94-1.21,9.74,0.82,13.8,4.33c6.99,6.04,11.89,16.48,11.85,26.17
		c-0.01,2.7,2.18,4.9,4.88,4.91c2.7,0.01,4.9-2.18,4.91-4.88c0.04-12.44-6.26-25.84-15.24-33.61c-6.58-5.69-14.54-8.41-22.55-6.44
		c-2.62,0.65-4.23,3.3-3.58,5.92C1566.39,1718.65,1569.05,1720.25,1571.67,1719.61L1571.67,1719.61z"/>
</g>
</svg>
