<?xml version="1.0" encoding="utf-8"?>
<!-- Generator: Adobe Illustrator 26.4.1, SVG Export Plug-In . SVG Version: 6.00 Build 0)  -->
<svg version="1.1" id="Layer_1" xmlns="http://www.w3.org/2000/svg" xmlns:xlink="http://www.w3.org/1999/xlink" x="0px" y="0px"
	 viewBox="0 0 2000 2000" style="enable-background:new 0 0 2000 2000;" xml:space="preserve">
<style type="text/css">
	.st0{fill-rule:evenodd;clip-rule:evenodd;fill:#F49E23;}
	.st1{fill-rule:evenodd;clip-rule:evenodd;fill:#D14D36;}
	.st2{fill-rule:evenodd;clip-rule:evenodd;fill:#FDF0D3;}
	.st3{fill-rule:evenodd;clip-rule:evenodd;fill:#0C427E;}
	.st4{fill-rule:evenodd;clip-rule:evenodd;fill:#B45A25;}
	.st5{fill-rule:evenodd;clip-rule:evenodd;fill:#EC8C28;}
	.st6{fill-rule:evenodd;clip-rule:evenodd;fill:#EE9726;}
	.st7{fill-rule:evenodd;clip-rule:evenodd;fill:#302574;}
	.st8{fill-rule:evenodd;clip-rule:evenodd;fill:#F3B953;}
	.st9{fill-rule:evenodd;clip-rule:evenodd;fill:#3D648F;}
	.st10{fill-rule:evenodd;clip-rule:evenodd;fill:#145468;}
	.st11{fill-rule:evenodd;clip-rule:evenodd;fill:#3B7A7A;}
	.st12{fill-rule:evenodd;clip-rule:evenodd;fill:#098B8D;}
	.st13{fill-rule:evenodd;clip-rule:evenodd;fill:#689595;}
	.st14{fill-rule:evenodd;clip-rule:evenodd;fill:#679595;}
	.st15{fill-rule:evenodd;clip-rule:evenodd;fill:#CEE4E4;}
	
		.st16{fill-rule:evenodd;clip-rule:evenodd;fill:#145468;stroke:#CEE4E4;stroke-width:5;stroke-linecap:round;stroke-linejoin:round;stroke-miterlimit:10;}
	.st17{fill-rule:evenodd;clip-rule:evenodd;fill:#043A60;}
	.st18{fill-rule:evenodd;clip-rule:evenodd;fill:#FD9A65;}
	.st19{fill-rule:evenodd;clip-rule:evenodd;fill:#18658D;}
	.st20{fill-rule:evenodd;clip-rule:evenodd;fill:#9FCDE5;}
	.st21{fill-rule:evenodd;clip-rule:evenodd;fill:#56A8D3;}
	.st22{fill-rule:evenodd;clip-rule:evenodd;fill:#276383;}
	.st23{fill-rule:evenodd;clip-rule:evenodd;fill:#E0F0F8;}
	.st24{fill-rule:evenodd;clip-rule:evenodd;fill:#A51E1C;}
	.st25{fill-rule:evenodd;clip-rule:evenodd;fill:#CB442D;}
	.st26{fill-rule:evenodd;clip-rule:evenodd;fill:#DC5A44;}
	.st27{fill-rule:evenodd;clip-rule:evenodd;fill:#F7BD54;}
	.st28{fill-rule:evenodd;clip-rule:evenodd;fill:#E46B37;}
	.st29{fill-rule:evenodd;clip-rule:evenodd;fill:#B67227;}
	.st30{fill-rule:evenodd;clip-rule:evenodd;fill:#D78A35;}
	.st31{fill-rule:evenodd;clip-rule:evenodd;fill:#A4331F;}
	.st32{fill-rule:evenodd;clip-rule:evenodd;fill:#F2A550;}
	.st33{fill-rule:evenodd;clip-rule:evenodd;fill:#F9E9D6;}
	.st34{fill-rule:evenodd;clip-rule:evenodd;fill:#844013;}
	.st35{fill-rule:evenodd;clip-rule:evenodd;fill:#A04E18;}
	.st36{fill-rule:evenodd;clip-rule:evenodd;fill:#F8B872;}
	.st37{fill-rule:evenodd;clip-rule:evenodd;fill:#FFC689;}
	.st38{fill-rule:evenodd;clip-rule:evenodd;fill:#B6844D;}
	.st39{fill-rule:evenodd;clip-rule:evenodd;fill:#CA5320;}
	.st40{fill-rule:evenodd;clip-rule:evenodd;fill:#D76332;}
	.st41{fill-rule:evenodd;clip-rule:evenodd;fill:#812F0C;}
	.st42{fill-rule:evenodd;clip-rule:evenodd;fill:#8A460F;}
	.st43{fill-rule:evenodd;clip-rule:evenodd;fill:#B46914;}
	.st44{fill-rule:evenodd;clip-rule:evenodd;fill:#B54515;}
	.st45{fill-rule:evenodd;clip-rule:evenodd;fill:#FFCD71;}
	.st46{fill-rule:evenodd;clip-rule:evenodd;fill:#95B41D;}
	.st47{fill-rule:evenodd;clip-rule:evenodd;fill:#A8C731;}
	.st48{fill-rule:evenodd;clip-rule:evenodd;fill:#85A214;}
	.st49{fill-rule:evenodd;clip-rule:evenodd;fill:#C6EF28;}
	.st50{fill-rule:evenodd;clip-rule:evenodd;fill:#ED982B;}
	.st51{fill-rule:evenodd;clip-rule:evenodd;fill:#FCCF7C;}
	.st52{fill-rule:evenodd;clip-rule:evenodd;fill:#FFE8BC;}
	.st53{fill-rule:evenodd;clip-rule:evenodd;fill:#ED6961;}
	.st54{fill-rule:evenodd;clip-rule:evenodd;fill:#696E1E;}
	.st55{fill-rule:evenodd;clip-rule:evenodd;fill:#9CA42A;}
	.st56{fill-rule:evenodd;clip-rule:evenodd;fill:#7F8615;}
	.st57{fill-rule:evenodd;clip-rule:evenodd;fill:#FFEECF;}
	.st58{fill-rule:evenodd;clip-rule:evenodd;fill:#77786D;}
	.st59{fill-rule:evenodd;clip-rule:evenodd;fill:#D3D5C6;}
	.st60{fill-rule:evenodd;clip-rule:evenodd;fill:#7C7A7A;}
	.st61{fill-rule:evenodd;clip-rule:evenodd;fill:#DBDCD9;}
	.st62{fill-rule:evenodd;clip-rule:evenodd;fill:#CA372D;}
	.st63{fill-rule:evenodd;clip-rule:evenodd;fill:#FE7D75;}
	.st64{fill-rule:evenodd;clip-rule:evenodd;fill:#B0B0B0;}
	.st65{fill-rule:evenodd;clip-rule:evenodd;fill:#888787;}
	.st66{fill-rule:evenodd;clip-rule:evenodd;fill:#6E6E6E;}
	.st67{fill-rule:evenodd;clip-rule:evenodd;fill:#757575;}
	.st68{fill-rule:evenodd;clip-rule:evenodd;fill:#60341E;}
	.st69{fill-rule:evenodd;clip-rule:evenodd;fill:#B0451B;}
	.st70{fill-rule:evenodd;clip-rule:evenodd;fill:#8A4727;}
	.st71{fill-rule:evenodd;clip-rule:evenodd;fill:#FABB64;}
	.st72{fill-rule:evenodd;clip-rule:evenodd;fill:#3E88AF;}
	.st73{fill-rule:evenodd;clip-rule:evenodd;fill:#5BA0C5;}
	.st74{fill-rule:evenodd;clip-rule:evenodd;fill:#FFF1DE;}
	.st75{fill-rule:evenodd;clip-rule:evenodd;fill:#F8B89B;}
	.st76{fill-rule:evenodd;clip-rule:evenodd;fill:#E98A5F;}
	.st77{fill-rule:evenodd;clip-rule:evenodd;fill:#FFCAB3;}
	.st78{fill-rule:evenodd;clip-rule:evenodd;fill:#F9A580;}
	.st79{fill-rule:evenodd;clip-rule:evenodd;fill:#FFDFD2;}
	.st80{fill-rule:evenodd;clip-rule:evenodd;fill:#E2A85C;}
	.st81{fill-rule:evenodd;clip-rule:evenodd;fill:#C68446;}
	.st82{fill-rule:evenodd;clip-rule:evenodd;fill:#F2BC75;}
	.st83{fill-rule:evenodd;clip-rule:evenodd;fill:#F2BC76;}
	.st84{fill-rule:evenodd;clip-rule:evenodd;fill:#FFD69F;}
	.st85{fill-rule:evenodd;clip-rule:evenodd;fill:#E7624B;}
	.st86{fill-rule:evenodd;clip-rule:evenodd;fill:#F6E8DB;}
	.st87{fill-rule:evenodd;clip-rule:evenodd;fill:#FC9EB6;}
	.st88{fill-rule:evenodd;clip-rule:evenodd;fill:#FFFFFF;}
</style>
<g>
	<path class="st75" d="M1368.76,1125.42l-15.61,19.38l-15.96,19.9l-11.6,14.38l-104.41,129.74c-0.04,0.04-0.04,0.04-0.04,0.04
		l-19.38,24.11l-17.71,22.04l-10.48,13.03l-9.65-7.74l-77.56-62.39l-23.19-18.71L627.38,928.6l-16.4-13.18l-16.24-13.11
		c0,0-0.04,0.04-0.04,0l-12.15-9.77l-14.18-11.4l-12.11-9.77l-61.79-49.72l-22.6-18.15l-18.74-15.09l-19.14-15.41l-0.04-0.04
		l-2.3-1.83l-0.04-0.04l-4.09-3.3l4.13-5.16l12.11-15.05l7.47-9.25l14.26-17.75h0.04l18.74-23.31l9.77-12.15l32.41-40.27l9.81-12.23
		l51.79-64.34l16.12-20.06l18.51-22.99l14.22,11.44l11.6,9.33l36.58,29.39c0.04,0,0.04,0,0.04,0.04L769,642.94l40.31,32.45
		l12.63,10.13l3.85,3.14l12.95,10.4l20.1,16.16l1.03,0.83l19.42,15.61l395.15,317.87l10.52,8.46l50.63,40.75L1368.76,1125.42z"/>
	<path class="st75" d="M858.83,715.22c-0.56,0.48-1.11,0.91-1.63,1.35c-6.87,5.44-13.86,10.09-20.85,13.78
		c-4.01,2.14-9.65,5.96-16.48,11.16h-0.04c-9.09,6.87-20.25,16.08-32.6,26.65c0,0.04,0,0.04,0,0.04
		c-11.8,10.13-24.66,21.56-37.69,33.44c-46.35,42.33-94.92,90.63-106.87,108.14c-4.57,6.71-9.69,12.99-15.29,18.82
		c-90.35,94-307.3,74.19-392.85-38.8c-28.71-37.89-34-70.49-34.59-87.61c-0.28-8.18,0.52-12.87,0.36-12.91
		c-5.16-1.71-15.77-7.66-27.8-18.15c-22.24-19.3-49.44-54.09-56.39-106.11c-5.44-40.71,23.11-113.82,58.34-135.11
		c5.12-3.14,10.44-5.12,15.77-5.76h0.04c0.68-0.08,1.27-0.12,1.91-0.16c0.6-0.04,1.07-0.4,1.47-1.07c5.2-8.7-3.14-69.34,36.46-119.5
		c40.31-51.07,86.77-58.66,111.71-61.2c10.25-1.03,16.88-1.23,17.95-3.22c2.1-3.89,4.53-7.82,7.27-11.72
		c19.94-28.43,56.87-55.32,111.32-58.06c69.9-3.61,124.07,27.04,146.9,55.04v0.04c3.85,4.77,6.83,9.45,8.82,13.9
		c0.24,0.48,3.26-1.27,8.7-4.17c26.69-14.02,111.36-54.53,207.35,13.82C1005.26,458.32,942.35,647.07,858.83,715.22z"/>
	<path class="st75" d="M1646.39,1507.35c-49.13,31.06-101.35,26.77-123.39,25.34c-6.23-0.4-10.05-0.56-10.68,0.36
		c-3.46,5.12-6.63,11.32-10.05,18.03v0.04c-10.68,21.29-23.39,48.09-52.5,63.94c-75.46,41.02-167.63,29.07-235.14-24.86
		c-61.16-48.81-66.36-101.94-65.05-125.81c0.48-8.18,1.67-12.91,1.67-12.91s-5.88-0.4-14.73-3.18
		c-15.45-4.81-40.03-16.76-58.46-46.27c-24.34-38.92-30.66-80.38-14.89-122.83c2.07-5.68,4.57-11.32,7.47-17c-0.04,0-0.04,0,0-0.04
		c4.53-9.02,10.09-18.03,16.68-27.08c2.94-4.01,6.2-8.14,9.77-12.31c11.64-13.7,26.33-28.08,42.33-42.26c0-0.04,0.04-0.04,0.04-0.04
		c33.96-30.14,73.67-59.37,101.98-79.27l0.04-0.04c22.2-15.57,37.41-25.38,37.41-25.38c1.55-5.52,3.3-10.84,5.28-15.93
		c0.24-0.64,0.48-1.23,0.79-1.87c2.38-6.12,5.16-11.87,8.18-17.36c57.66-104.37,214.49-95.51,292.33-44.04
		c54.57,36.1,64.97,91.18,65.77,121.21c0.24,8.14-0.24,14.42-0.71,17.99c0,0.16,6.43,3.26,16.16,9.29
		c25.65,15.89,74.3,52.06,89.04,108.58C1782.73,1357.31,1713.59,1464.86,1646.39,1507.35z"/>
	<path class="st76" d="M879.29,731.66c-0.95,0.6-1.99,1.07-3.14,1.31c-19.94,4.45-38.68,7.23-56.27,8.54h-0.04
		c-62.95,4.65-111.32-9.61-147.58-35.31c-5.76-4.09-11.2-8.46-16.36-13.07c-1.63-1.47-3.22-2.94-4.81-4.45
		c-32.88-31.61-53.02-74.5-63.07-120.41c-11.2-51.15-9.89-106.04,0.24-153.37c7.78-36.38,20.77-68.27,36.97-90.59
		c3.85,4.77,6.83,9.45,8.82,13.9c0.24,0.48,3.26-1.27,8.7-4.17c-15.53,20.49-27.68,50.6-35.07,85.03
		c-8.54,39.83-10.64,85.5-3.53,129.15c7.78,48.01,26.77,93.57,60.68,126.13c40.67,39.12,102.78,58.86,192.37,42.22
		c0.87-0.16,1.75-0.32,2.66-0.52L879.29,731.66z"/>
	<path class="st76" d="M443.67,725.35c-3.3,4.37-9.53,5.24-13.9,1.91c-8.06-6.12-15.53-12.71-22.48-19.7
		c-39.59-39.91-61.79-93.6-72.44-149.4c-15.21-79.74-6.75-163.62,6.95-215.92c10.25-1.03,16.88-1.23,17.95-3.22
		c2.1-3.89,4.53-7.82,7.27-11.72c-16.36,45.87-29.47,139.12-12.67,227.12c11.6,60.8,37.45,119.22,87.37,157.03
		c1.91,1.43,3.14,3.42,3.65,5.56C446.05,719.79,445.53,722.89,443.67,725.35z"/>
	<path class="st76" d="M193.63,522.93c3.02,53.1,47.7,102.34,108.97,139.24c31.41,18.9,67.27,34.43,104.69,45.39
		c12.55,3.69,25.3,6.83,38.09,9.45c6.71,1.35,13.38,2.54,20.1,3.57c21.29,3.34,42.53,5,63.3,4.85
		c46.98-0.36,91.42-10.13,127.12-32.29c2.66-1.63,5.24-3.34,7.78-5.12c4.49-3.14,10.68-2.07,13.82,2.42
		c3.14,4.53,2.03,10.68-2.46,13.86c-0.91,0.64-1.83,1.27-2.78,1.91c-28.91,19.42-63.54,31.1-100.99,36.14
		c-10.21,1.35-20.57,2.26-31.14,2.66c-3.69,0.16-7.43,0.24-11.2,0.28c-25.46,0.2-51.67-2.22-77.72-6.95
		c-56.51-10.25-112.39-31.18-158.85-59.17c-65.29-39.28-111.64-92.61-117.91-149.24L193.63,522.93z"/>
	<path class="st76" d="M572.34,741.16c-0.36,0.4-0.72,0.79-1.07,1.19c-25.97,29.03-60.76,48.69-99.4,61.16
		c-20.89,6.71-42.93,11.36-65.33,14.26c-75.38,9.69-154.64-0.48-206.59-15.57c-0.28-8.18,0.52-12.87,0.36-12.91
		c-5.16-1.71-15.77-7.66-27.8-18.15c0.44,0.12,0.87,0.28,1.31,0.48c42.89,20.1,139.47,38.13,230.18,26.45
		c16.72-2.14,33.2-5.32,49.13-9.65c32.53-8.9,62.67-22.8,87.01-43.41c6.16-5.2,11.95-10.84,17.32-16.96
		c3.61-4.13,9.89-4.53,14.02-0.91C575.56,730.79,575.95,737.07,572.34,741.16z"/>
	<path class="st76" d="M1352.51,1260.93c-1.71,6.27-3.69,12.59-6.04,18.9c-7.66,20.97-18.74,42.06-33.76,62.83
		c-37.37,51.79-100.48,95.47-163.14,121.72c0.48-8.18,1.67-12.91,1.67-12.91s-5.88-0.4-14.73-3.18
		c61.16-24.54,123.67-66.72,160.13-117.27c40.63-56.35,49.96-115.05,40.55-166.32c-7.62-41.54-27.52-78.24-53.02-104.84
		c-2.5-2.62-5.04-5.16-7.66-7.59c-0.87-0.79-1.55-1.75-2.07-2.74l10.52,8.46c2.38-6.12,5.16-11.87,8.18-17.36
		c16.48,16,31.1,35.7,42.45,58.1c7.31,14.34,13.3,29.79,17.55,46.07C1362.52,1180.59,1363.63,1220.3,1352.51,1260.93z"/>
	<path class="st76" d="M1523,1532.69c-6.23-0.4-10.05-0.56-10.68,0.36c-3.46,5.12-6.63,11.32-10.05,18.03
		c6.63-68.31-20.97-140.51-60.68-194.08c-28.12-37.85-62.27-66.56-95.11-77.16c-2.78-0.91-5.56-1.71-8.3-2.34
		c-5.36-1.23-8.7-6.55-7.47-11.87c1.23-5.36,6.59-8.7,11.91-7.47c3.26,0.75,6.59,1.67,9.89,2.78c33.12,10.8,67.83,37.65,97.18,74.11
		c2.62,3.3,5.24,6.71,7.82,10.17c1.87,2.5,3.69,5.08,5.48,7.66C1498.7,1403.82,1523.52,1468.99,1523,1532.69z"/>
	<path class="st76" d="M1666.69,1145.08c-21.84,96.74-104.29,189.47-203.69,207.78c-2.9,0.56-5.84,1.03-8.78,1.43
		c-5.44,0.79-10.44-3.02-11.2-8.46c-0.68-4.77,2.22-9.29,6.67-10.8c0.56-0.16,1.15-0.32,1.79-0.4
		c103.45-14.34,188.56-116.96,199.76-216.84c0.24,8.14-0.24,14.42-0.71,17.99C1650.52,1135.95,1656.96,1139.05,1666.69,1145.08z"/>
	<path class="st76" d="M768.43,761.81c-21.11,53.72-62.26,113.32-111.55,136.48c-4.96,2.33-7.09,8.25-4.76,13.21
		c2.33,4.96,8.25,7.09,13.21,4.76c53.39-25.09,98.72-89.01,121.58-147.19c2.01-5.1-0.51-10.87-5.61-12.87
		C776.2,754.2,770.43,756.71,768.43,761.81L768.43,761.81z"/>
	<path class="st76" d="M1258.98,1052.17c-92.66,22.31-176.17,109.53-190.4,202.37c-0.83,5.41,2.9,10.48,8.31,11.31
		c5.42,0.83,10.49-2.89,11.32-8.31c13.09-85.44,90.14-165.53,175.42-186.07c5.32-1.28,8.61-6.65,7.33-11.98
		C1269.68,1054.17,1264.31,1050.88,1258.98,1052.17L1258.98,1052.17z"/>
	<path class="st77" d="M793.28,338.6c-68.91-18.55-178.66,12.86-175.5,128.91c1.03,37.77,49.3,69.85,64.14,99.69
		c8.68,17.45,7.04,51.55,44.42,70.71c56.2,28.8,187.5-48.9,185.76-140.09C910.87,433.33,855.16,355.25,793.28,338.6L793.28,338.6z"
		/>
	<path class="st77" d="M566.94,302.98c-21.4-16.43-59.05-20.44-96.04-9.23c-57.4,17.39-102.51,97.7-84.02,159.23
		c13.81,45.95,69.8,94.44,104.65,96.89c92.9,6.51,75.52-126.45,88.08-167.6C587.43,356.67,596.57,325.73,566.94,302.98
		L566.94,302.98z"/>
	<path class="st77" d="M303.53,360.77c-21.17,5.19-58.24,28.32-79.3,77.91c-13.93,32.79-18.78,68.16-8.86,101.79
		c19.26,65.27,86.9,94.7,108.38,77.24c18.67-15.17-4.8-52.98-12.75-78.14c-12.05-38.12-0.56-96.86,6.08-122.43
		C324.26,389.44,332.32,353.71,303.53,360.77L303.53,360.77z"/>
	<path class="st77" d="M170.74,561.36c-7.69-17.22-36.41,27.62-41.09,66.39c-3.61,29.92,11.18,72.69,32.92,98.66
		c12.39,14.81,47.32,42.46,88.12,53.95c44.63,12.57,83.39-2.71,89.99-24.36c6-19.67-25.85-24.38-47.04-40.06
		c-23.65-17.5-59.92-45.88-72.85-62.9C190.52,613.18,178.43,578.61,170.74,561.36L170.74,561.36z"/>
	<path class="st77" d="M533.06,799.56c-36.34,27.26-106.94,49.68-142.69,49.52c-75.15-0.33-176.25-47.99-154.63,16.92
		c17,51.05,109.15,93.59,187.11,102.9c65.91,7.88,161.25-17.17,233-92.18c8.89-9.29,69.77-86.16,45.79-119.03
		C682.84,731.93,595.59,752.65,533.06,799.56L533.06,799.56z"/>
	<path class="st77" d="M1345.92,1029.11c-2.74-36.29,70.54-55.72,110.31-50.68c71.51,9.08,161.9,38.29,168.88,93.36
		c7.22,56.9-26.36,117.91-105.87,156.1c-35.04,16.83-109.13,3.74-119.22-31.89C1384.8,1142.3,1349.29,1073.79,1345.92,1029.11
		L1345.92,1029.11z"/>
	<path class="st77" d="M1363.5,1345.68c27.31-4.96,77.07,26.65,98.11,61.91c37.73,63.21,7.2,188.19-75.6,208.11
		c-74.46,17.91-221.19-55.17-178.89-127.44c18.02-30.79,52.43-37.67,71.25-54.76C1301.6,1412.38,1323.23,1353,1363.5,1345.68
		L1363.5,1345.68z"/>
	<path class="st77" d="M1698.57,1199.98c45.2,13.38,54.26,134.31,32.54,179.73c-21.37,44.7-67,110-114.13,118.86
		c-49.43,9.3-107.67-30.27-98.2-68.97c10.33-42.22,64.24-38.39,103.22-101.04C1656.2,1273.6,1675.21,1193.06,1698.57,1199.98
		L1698.57,1199.98z"/>
	<path class="st77" d="M1275.03,1137.95c-25,12.1-44.53,75.81-100,109.11c-36.44,21.88-84.12,27.79-106.78,78.23
		c-10,22.27,6.52,73.08,48.38,91.21c50.69,21.96,104.85-13.71,146.52-61.95c44.53-51.56,69.51-125.52,61.89-180.07
		C1320.65,1143.05,1293.62,1128.96,1275.03,1137.95L1275.03,1137.95z"/>
	<path class="st78" d="M361.56,540.99c13.11,71.59,73.61,134.78,132.17,160.84c3.84,1.71,8.36-0.02,10.06-3.86
		c1.71-3.84-0.02-8.36-3.86-10.07c-54.55-24.28-111.15-82.95-123.37-149.66c-0.76-4.14-4.73-6.88-8.87-6.12
		C363.54,532.87,360.8,536.85,361.56,540.99L361.56,540.99z"/>
	<path class="st78" d="M408.19,537.17c2.18,29.27,18.69,66.23,39.62,95.11c14.19,19.59,30.44,35.43,45.37,43.09
		c3.75,1.92,8.34,0.44,10.26-3.31c1.92-3.74,0.44-8.34-3.31-10.26c-13.24-6.79-27.39-21.09-39.98-38.46
		c-19.24-26.56-34.76-60.39-36.76-87.3c-0.31-4.19-3.97-7.35-8.17-7.04C411.04,529.31,407.88,532.97,408.19,537.17L408.19,537.17z"
		/>
	<path class="st78" d="M487.75,575.31c1.52,10.47,13.8,35.23,31.12,59.44c17.24,24.09,39.38,47.58,59.61,56.49
		c3.85,1.7,8.36-0.06,10.05-3.91c1.7-3.85-0.06-8.36-3.91-10.05c-18.25-8.03-37.8-29.67-53.36-51.41
		c-15.47-21.62-27.07-43.41-28.43-52.76c-0.6-4.16-4.47-7.05-8.64-6.45C490.04,567.28,487.15,571.15,487.75,575.31L487.75,575.31z"
		/>
	<path class="st78" d="M359.17,409.72c-2.55,28.51-4.05,71.4,19.73,115.65c1.99,3.71,6.62,5.1,10.33,3.11
		c3.71-1.99,5.1-6.62,3.11-10.33c-22.01-40.94-20.33-80.69-17.97-107.07c0.37-4.19-2.73-7.9-6.92-8.27
		C363.25,402.43,359.54,405.53,359.17,409.72L359.17,409.72z"/>
	<path class="st78" d="M345.29,741.91c29.19,20.62,81.6,22.18,117.08,20.27c4.21-0.22,7.43-3.82,7.21-8.02
		c-0.23-4.2-3.82-7.43-8.03-7.2c-32.51,1.75-80.72,1.4-107.46-17.5c-3.44-2.43-8.2-1.61-10.63,1.82
		C341.04,734.71,341.86,739.48,345.29,741.91L345.29,741.91z"/>
	<path class="st78" d="M357.95,778.24c20.74,9.63,47.44,12.06,71.68,7.08c4.12-0.85,6.78-4.88,5.94-9c-0.85-4.12-4.88-6.78-9-5.94
		c-21.03,4.32-44.21,2.38-62.2-5.97c-3.82-1.77-8.35-0.11-10.13,3.71C352.47,771.93,354.13,776.47,357.95,778.24L357.95,778.24z"/>
	<path class="st78" d="M633.63,541.83c-3.85,26.88-0.64,92.73,41.5,127.96c3.23,2.7,8.04,2.27,10.74-0.96
		c2.7-3.23,2.27-8.04-0.96-10.74c-37.5-31.35-39.61-90.18-36.19-114.1c0.6-4.17-2.3-8.03-6.47-8.63
		C638.1,534.77,634.23,537.67,633.63,541.83L633.63,541.83z"/>
	<path class="st78" d="M675.17,617.35c2.41,15.47,15.75,37.07,30.32,53.03c10.12,11.09,20.9,19.34,28.72,21.81
		c4.02,1.26,8.3-0.97,9.57-4.98c1.27-4.02-0.97-8.3-4.98-9.56c-6.11-1.93-14.14-8.89-22.05-17.55
		c-12.48-13.67-24.45-31.85-26.51-45.1c-0.65-4.16-4.55-7.01-8.71-6.36C677.37,609.29,674.52,613.19,675.17,617.35L675.17,617.35z"
		/>
	<path class="st78" d="M797.1,698.34c26.95-10.66,56.42-34.03,77.04-56.19c14.33-15.39,24.32-30.36,27.03-40.17
		c1.12-4.06-1.26-8.26-5.32-9.38c-4.05-1.12-8.26,1.27-9.38,5.32c-2.3,8.35-11.3,20.75-23.49,33.84
		c-19.16,20.59-46.43,42.49-71.48,52.39c-3.91,1.55-5.83,5.98-4.28,9.9C788.75,697.96,793.18,699.88,797.1,698.34L797.1,698.34z"/>
	<path class="st78" d="M833.84,701.43c33.22-15.48,56.23-37.78,72.11-59.39c2.49-3.39,1.76-8.17-1.63-10.66
		c-3.39-2.49-8.17-1.76-10.66,1.63c-14.6,19.86-35.73,40.37-66.27,54.6c-3.81,1.78-5.47,6.32-3.69,10.13
		C825.48,701.56,830.02,703.21,833.84,701.43L833.84,701.43z"/>
	<path class="st78" d="M738.7,943.9c44.02,45.11,221.03,203.31,315.96,255.94c3.68,2.04,8.32,0.71,10.37-2.97
		c2.04-3.68,0.71-8.32-2.97-10.37c-93.89-52.06-268.9-208.63-312.44-253.25c-2.94-3.01-7.77-3.07-10.78-0.13
		C735.82,936.06,735.76,940.89,738.7,943.9L738.7,943.9z"/>
	<path class="st78" d="M826.09,990.8c58.11,54.11,136.58,107.92,197.33,152.56c3.39,2.49,8.17,1.76,10.66-1.63
		c2.49-3.39,1.76-8.16-1.63-10.66c-60.31-44.32-138.27-97.7-195.96-151.42c-3.08-2.87-7.91-2.7-10.77,0.39
		C822.84,983.1,823.01,987.93,826.09,990.8L826.09,990.8z"/>
	<path class="st78" d="M730.41,978.63c56.73,50.63,136.89,127.11,198.83,171.13c3.43,2.44,8.19,1.63,10.63-1.8
		c2.44-3.43,1.63-8.19-1.8-10.63c-61.55-43.74-141.15-119.78-197.51-170.08c-3.14-2.8-7.97-2.53-10.77,0.61
		C726.99,971,727.26,975.82,730.41,978.63L730.41,978.63z"/>
	<path class="st78" d="M1241.06,1101.25c-46.87,9.41-107.98,65.97-125.16,131.16c-1.07,4.07,1.36,8.25,5.43,9.32
		c4.07,1.07,8.24-1.36,9.32-5.43c15.65-59.4,70.71-111.52,113.41-120.1c4.13-0.83,6.8-4.85,5.97-8.98
		C1249.2,1103.1,1245.19,1100.42,1241.06,1101.25L1241.06,1101.25z"/>
	<path class="st78" d="M1209.04,1151.44c-21.79,10.8-40.28,34.97-46.42,53.6c-1.31,4,0.86,8.31,4.86,9.63
		c4,1.31,8.31-0.86,9.63-4.86c5.11-15.53,20.52-35.69,38.7-44.7c3.77-1.87,5.32-6.45,3.45-10.22
		C1217.39,1151.12,1212.81,1149.57,1209.04,1151.44L1209.04,1151.44z"/>
	<path class="st78" d="M1379.97,1243.85c21.58,22.92,53.6,35.04,81.45,38c19.25,2.04,36.52-0.37,47.33-6.07
		c3.72-1.96,5.15-6.58,3.19-10.3c-1.96-3.72-6.58-5.15-10.3-3.19c-8.8,4.64-22.93,6.06-38.61,4.39
		c-24.56-2.61-52.92-13.07-71.96-33.29c-2.88-3.07-7.71-3.21-10.78-0.33C1377.23,1235.96,1377.08,1240.79,1379.97,1243.85
		L1379.97,1243.85z"/>
	<path class="st78" d="M1440.02,1299.87c14.3,6.09,37.72,8.97,59,6.15c14.78-1.96,28.48-6.71,37.8-14.52
		c3.23-2.7,3.65-7.51,0.95-10.74c-2.71-3.23-7.52-3.65-10.74-0.95c-7.36,6.17-18.34,9.54-30.01,11.1
		c-18.4,2.44-38.66,0.2-51.02-5.07c-3.87-1.65-8.36,0.16-10,4.03C1434.34,1293.74,1436.14,1298.22,1440.02,1299.87L1440.02,1299.87z
		"/>
	<path class="st78" d="M1574.73,1213.36c-17.97,20.76-40.82,24.06-70.02,24.82c-4.21,0.11-7.53,3.61-7.42,7.82
		c0.11,4.21,3.61,7.53,7.82,7.42c34.03-0.89,60.22-5.89,81.15-30.08c2.76-3.19,2.41-8-0.77-10.76
		C1582.3,1209.83,1577.48,1210.18,1574.73,1213.36L1574.73,1213.36z"/>
	<path class="st78" d="M1608.1,1286.19c-11.44,30.37-39.38,42.64-88.31,52.72c-4.12,0.85-6.78,4.89-5.93,9.01
		c0.85,4.12,4.89,6.78,9.01,5.93c55.84-11.5,86.45-27.62,99.5-62.28c1.49-3.94-0.51-8.34-4.45-9.82
		C1613.98,1280.26,1609.58,1282.25,1608.1,1286.19L1608.1,1286.19z"/>
	<path class="st78" d="M1570.78,1351.67c-21.08,11.95-46.56,14.86-74.1,10.42c-4.15-0.67-8.07,2.16-8.74,6.31
		c-0.67,4.15,2.16,8.07,6.31,8.75c31.27,5.04,60.13,1.36,84.05-12.2c3.66-2.08,4.95-6.73,2.87-10.39
		C1579.1,1350.89,1574.44,1349.6,1570.78,1351.67L1570.78,1351.67z"/>
	<path class="st78" d="M1351.97,1337.36c16.24,15.98,23.9,43.32,25.78,61.22c0.67,6.37,0.91,11.33-0.1,13.51
		c-1.77,3.82-0.11,8.35,3.71,10.13c3.82,1.77,8.36,0.11,10.13-3.71c1.61-3.47,2.5-11.34,1.43-21.52
		c-2.17-20.67-11.5-52.04-30.25-70.5c-3-2.95-7.83-2.92-10.78,0.08C1348.93,1329.57,1348.97,1334.41,1351.97,1337.36
		L1351.97,1337.36z"/>
	<path class="st78" d="M1364.02,1316.29c32.29,25.77,53.29,68.11,51.42,92.56c-0.32,4.19,2.82,7.86,7.02,8.18
		c4.2,0.32,7.86-2.82,8.18-7.02c2.12-27.74-20.48-76.41-57.11-105.64c-3.29-2.63-8.09-2.09-10.71,1.2
		C1360.2,1308.86,1360.74,1313.66,1364.02,1316.29L1364.02,1316.29z"/>
	<path class="st79" d="M867.56,804.94c45.24,35.05,90.58,69.94,136.11,104.63c3.34,2.55,8.13,1.91,10.68-1.44
		c2.55-3.35,1.91-8.14-1.44-10.69c-45.5-34.67-90.81-69.53-136.02-104.56c-3.32-2.58-8.12-1.97-10.69,1.36
		C863.63,797.56,864.24,802.36,867.56,804.94L867.56,804.94z"/>
	<path class="st79" d="M938.27,821.76c64.78,52.08,150.52,125.53,202.95,171.57c3.16,2.78,7.98,2.46,10.76-0.7
		c2.78-3.17,2.47-7.99-0.7-10.76c-52.57-46.16-138.51-119.78-203.46-172c-3.28-2.64-8.08-2.11-10.72,1.16
		C934.47,814.32,934.99,819.13,938.27,821.76L938.27,821.76z"/>
	<path class="st79" d="M947.62,904.88c75.72,61.31,132.34,100.42,165.94,129.82c3.17,2.77,7.99,2.45,10.76-0.72
		c2.77-3.17,2.45-7.99-0.72-10.76c-33.69-29.48-90.45-68.72-166.38-130.2c-3.27-2.65-8.07-2.14-10.72,1.13
		C943.84,897.42,944.35,902.23,947.62,904.88L947.62,904.88z"/>
	<path class="st79" d="M1727.93,1350.8c-5.27,33.52-31.33,75.43-63.51,105.78c-21.1,19.91-44.85,34.93-67.34,38.72
		c-4.15,0.7-6.95,4.63-6.25,8.78c0.7,4.15,4.64,6.95,8.79,6.25c25.05-4.22,51.76-20.48,75.27-42.66
		c34.74-32.78,62.42-78.31,68.11-114.51c0.65-4.16-2.19-8.06-6.35-8.72C1732.5,1343.8,1728.59,1346.64,1727.93,1350.8
		L1727.93,1350.8z"/>
	<path class="st79" d="M1680.17,1395.78c-10.64,24.59-44.02,60.32-68.14,70.78c-3.86,1.67-5.64,6.17-3.96,10.03
		c1.67,3.86,6.17,5.64,10.03,3.96c26.87-11.65,64.21-51.31,76.07-78.71c1.67-3.86-0.1-8.35-3.97-10.02
		C1686.33,1390.14,1681.84,1391.92,1680.17,1395.78L1680.17,1395.78z"/>
	<path class="st79" d="M1707.12,1241.78c10.95,39.03,1.05,90.19-23.84,116.88c-2.87,3.08-2.7,7.91,0.38,10.77
		c3.08,2.87,7.91,2.7,10.78-0.38c28.01-30.03,39.69-87.48,27.37-131.4c-1.14-4.05-5.35-6.42-9.4-5.28
		C1708.35,1233.51,1705.99,1237.72,1707.12,1241.78L1707.12,1241.78z"/>
	<path class="st79" d="M1476.05,1509.2c-61.39,73.51-129.85,84.33-172.15,66.99c-3.9-1.6-8.35,0.27-9.95,4.16
		c-1.6,3.9,0.27,8.35,4.16,9.95c46.4,19.03,122.31,9.31,189.64-71.32c2.7-3.23,2.27-8.04-0.96-10.74
		C1483.56,1505.53,1478.75,1505.96,1476.05,1509.2L1476.05,1509.2z"/>
	<path class="st79" d="M1389.01,1542.24c-16.49,9.18-34.65,10.09-51.59,7.29c-26.56-4.38-50.29-17.85-61.21-25.23
		c-3.49-2.35-8.23-1.43-10.58,2.05c-2.36,3.49-1.44,8.23,2.05,10.59c12,8.1,38.09,22.82,67.26,27.64
		c20.21,3.34,41.82,1.94,61.49-9.01c3.68-2.04,5-6.7,2.95-10.37C1397.33,1541.52,1392.69,1540.19,1389.01,1542.24L1389.01,1542.24z"
		/>
	<path class="st79" d="M1446.26,1569.51c-22.17,27.03-59.38,38.7-91.08,40.58c-20.56,1.21-38.85-1.57-48.9-7.62
		c-3.61-2.17-8.3-1-10.46,2.61c-2.17,3.61-1,8.3,2.61,10.46c11.88,7.14,33.36,11.21,57.66,9.77c35.58-2.1,77.08-15.78,101.97-46.13
		c2.67-3.26,2.19-8.06-1.06-10.73C1453.73,1565.79,1448.92,1566.26,1446.26,1569.51L1446.26,1569.51z"/>
	<path class="st79" d="M1204.72,1454.42c-12.57,26.28-7.4,53.29,5.61,75.62c12.67,21.76,32.81,38.89,50.12,46.33
		c3.86,1.66,8.36-0.13,10.02-3.99c1.66-3.87-0.13-8.36-3.99-10.02c-14.89-6.4-32.07-21.29-42.97-40
		c-10.56-18.13-15.23-40.03-5.02-61.37c1.82-3.8,0.21-8.35-3.59-10.17C1211.1,1449.02,1206.54,1450.63,1204.72,1454.42
		L1204.72,1454.42z"/>
	<path class="st79" d="M1243.76,1290.31c-29.28,33-76.3,39.85-108.45,16.48c-3.41-2.47-8.18-1.72-10.65,1.68
		c-2.47,3.41-1.72,8.18,1.68,10.65c38.16,27.73,94.09,20.47,128.83-18.7c2.79-3.15,2.5-7.97-0.64-10.77
		C1251.38,1286.87,1246.56,1287.16,1243.76,1290.31L1243.76,1290.31z"/>
	<path class="st79" d="M1205.7,1344.41c-31.83,20.09-73.29,23.99-101.7,3.86c-3.43-2.43-8.2-1.62-10.63,1.81
		c-2.43,3.44-1.62,8.2,1.81,10.63c33.14,23.48,81.53,20.02,118.66-3.42c3.56-2.24,4.62-6.96,2.38-10.52
		C1213.97,1343.23,1209.26,1342.17,1205.7,1344.41L1205.7,1344.41z"/>
	<path class="st79" d="M1265.51,1317.93c-22.47,42.91-81.07,67.96-114.69,66.38c-4.21-0.19-7.78,3.06-7.98,7.26
		c-0.2,4.21,3.05,7.78,7.26,7.97c37.78,1.77,103.67-26.32,128.92-74.54c1.95-3.73,0.51-8.34-3.22-10.29
		C1272.07,1312.76,1267.46,1314.2,1265.51,1317.93L1265.51,1317.93z"/>
	<path class="st79" d="M1463.48,1014.35c31.2-4.02,68.32,11.18,98.91,35.97c30.77,24.95,55.06,59.8,59.58,95.94
		c0.52,4.17,4.34,7.14,8.51,6.62c4.18-0.52,7.14-4.34,6.62-8.51c-4.97-39.78-31.23-78.44-65.1-105.9
		c-34.06-27.62-75.71-43.72-110.46-39.25c-4.17,0.54-7.13,4.36-6.59,8.54C1455.48,1011.94,1459.31,1014.89,1463.48,1014.35
		L1463.48,1014.35z"/>
	<path class="st79" d="M1537.64,1070.27c41.92,29.92,58.74,67.82,61.97,111.79c0.31,4.2,3.97,7.35,8.17,7.05
		c4.2-0.31,7.35-3.96,7.04-8.16c-3.55-48.44-22.15-90.14-68.31-123.1c-3.43-2.44-8.19-1.65-10.64,1.78
		C1533.42,1063.05,1534.21,1067.82,1537.64,1070.27L1537.64,1070.27z"/>
	<path class="st79" d="M1493.07,1081.55c-20.58-13.56-69-19.48-93.03-16.84c-4.18,0.46-7.2,4.23-6.74,8.41
		c0.46,4.19,4.23,7.21,8.41,6.75c21.41-2.35,64.63,2.34,82.97,14.41c3.51,2.32,8.25,1.34,10.56-2.17
		S1496.58,1083.86,1493.07,1081.55L1493.07,1081.55z"/>
	<path class="st79" d="M1522.97,1046.48c-12.11-9.57-31.57-16.69-54.56-19.73c-33.35-4.42-74.22-0.46-109.63,15.6
		c-3.83,1.74-5.54,6.26-3.8,10.1c1.74,3.83,6.26,5.53,10.09,3.8c32.73-14.85,70.51-18.46,101.33-14.38
		c19.79,2.62,36.68,8.34,47.1,16.58c3.3,2.61,8.1,2.05,10.71-1.25C1526.83,1053.89,1526.27,1049.09,1522.97,1046.48L1522.97,1046.48
		z"/>
	<path class="st79" d="M1568.44,1118.26c-17.96-33.53-67.26-62.65-95.71-67.19c-4.15-0.67-8.07,2.17-8.73,6.32
		c-0.66,4.16,2.17,8.07,6.33,8.73c25.15,4.02,68.8,29.7,84.67,59.34c1.99,3.71,6.61,5.11,10.32,3.12
		C1569.03,1126.6,1570.42,1121.97,1568.44,1118.26L1568.44,1118.26z"/>
	<path class="st79" d="M775.17,371.37c28.95,1.24,54.77,18.53,75.72,42.43c32.43,37,53.24,90.04,54.98,128.55
		c0.19,4.21,3.76,7.46,7.96,7.28c4.21-0.19,7.46-3.76,7.27-7.96c-1.87-41.29-23.98-98.24-58.74-137.91
		c-23.84-27.2-53.59-46.21-86.54-47.62c-4.2-0.18-7.76,3.09-7.94,7.29C767.69,367.63,770.96,371.19,775.17,371.37L775.17,371.37z"/>
	<path class="st79" d="M808.89,415.65c15.56,4.87,28.49,17.24,38.74,31.08c15.89,21.46,25.34,46.74,26.75,56.37
		c0.62,4.16,4.49,7.04,8.65,6.43c4.17-0.61,7.05-4.49,6.44-8.65c-1.58-10.77-11.81-39.22-29.59-63.23
		c-12.2-16.47-27.92-30.76-46.44-36.56c-4.01-1.25-8.3,0.99-9.56,5C802.63,410.11,804.87,414.39,808.89,415.65L808.89,415.65z"/>
	<path class="st79" d="M747.81,390.56c-18.7-10.9-42.89-8.18-62.77,3.15c-19.7,11.23-34.84,30.73-36.39,52.18
		c-0.3,4.2,2.86,7.85,7.06,8.15c4.2,0.3,7.85-2.86,8.15-7.06c1.2-16.62,13.47-31.33,28.73-40.03c15.08-8.59,33.37-11.48,47.54-3.22
		c3.64,2.12,8.31,0.89,10.43-2.75C752.68,397.35,751.45,392.67,747.81,390.56L747.81,390.56z"/>
	<path class="st79" d="M566.06,862.58c-24.26,25.06-66.9,39.81-111,43.96c-44.32,4.17-90.29-2.4-121.07-21.17
		c-3.59-2.19-8.29-1.05-10.48,2.54c-2.19,3.59-1.05,8.29,2.54,10.48c33.19,20.23,82.65,27.83,130.44,23.33
		c48-4.52,94.14-21.26,120.54-48.54c2.93-3.02,2.85-7.85-0.18-10.78C573.82,859.47,568.99,859.55,566.06,862.58L566.06,862.58z"/>
	<path class="st79" d="M486.22,859.52c-24.32,18.71-67.05,25.32-92.84,13.59c-3.83-1.74-8.36-0.05-10.1,3.78
		c-1.74,3.83-0.05,8.35,3.79,10.1c30.11,13.7,80.07,6.46,108.46-15.38c3.33-2.57,3.96-7.35,1.39-10.69
		C494.34,857.58,489.55,856.95,486.22,859.52L486.22,859.52z"/>
	<path class="st79" d="M634.31,833.89c-39.64,62.98-101.4,100.59-174.19,108.72c-4.18,0.47-7.2,4.24-6.73,8.42
		c0.47,4.18,4.24,7.2,8.42,6.73c77.49-8.64,143.2-48.7,185.4-115.75c2.24-3.56,1.17-8.27-2.39-10.51
		C641.27,829.26,636.55,830.33,634.31,833.89L634.31,833.89z"/>
	<path class="st79" d="M248.04,869.84c16.21,24.19,46.6,49.55,76.82,57.58c4.07,1.08,8.25-1.35,9.33-5.41
		c1.08-4.07-1.35-8.25-5.41-9.33c-26.83-7.13-53.67-29.85-68.07-51.33c-2.34-3.5-7.08-4.44-10.58-2.09
		C246.63,861.61,245.7,866.35,248.04,869.84L248.04,869.84z"/>
	<path class="st79" d="M557.29,308.98c-41.99-16.77-98.63-1.06-136.58,48.62c-2.56,3.34-1.91,8.13,1.43,10.69
		c3.34,2.55,8.13,1.91,10.69-1.43c33.14-43.38,82.14-58.36,118.81-43.72c3.91,1.56,8.35-0.35,9.91-4.25
		C563.1,314.98,561.2,310.54,557.29,308.98L557.29,308.98z"/>
	<path class="st79" d="M537.68,328.1c-63.83-0.41-107.95,46.59-129,119.33c-1.17,4.04,1.16,8.27,5.21,9.44
		c4.04,1.17,8.27-1.16,9.44-5.21c18.86-65.17,57.06-108.69,114.25-108.32c4.21,0.03,7.64-3.36,7.67-7.57
		C545.28,331.56,541.88,328.12,537.68,328.1L537.68,328.1z"/>
	<path class="st79" d="M490.87,280.53c-14.84-1.04-32.27,4.86-48.78,15.28c-23.82,15.04-45.73,39.36-55.1,63.11
		c-1.54,3.92,0.38,8.35,4.3,9.89c3.92,1.54,8.35-0.38,9.89-4.3c8.3-21.07,27.93-42.47,49.05-55.81
		c13.45-8.49,27.49-13.81,39.57-12.96c4.2,0.29,7.85-2.87,8.14-7.07C498.23,284.48,495.06,280.83,490.87,280.53L490.87,280.53z"/>
	<path class="st79" d="M590.96,359.94c-18.99-6.43-50.13-6.66-77.66,1.82c-18.84,5.8-35.93,15.67-46.7,29.89
		c-2.54,3.35-1.88,8.14,1.47,10.68c3.36,2.54,8.14,1.88,10.68-1.47c8.96-11.83,23.37-19.7,39.03-24.53
		c24.22-7.45,51.59-7.6,68.29-1.95c3.99,1.35,8.32-0.79,9.67-4.78C597.08,365.62,594.94,361.3,590.96,359.94L590.96,359.94z"/>
	<path class="st79" d="M271.1,388.71c-43.08,37.42-68.72,88.82-45.73,143.58c1.63,3.88,6.1,5.71,9.98,4.08
		c3.88-1.63,5.71-6.1,4.08-9.98c-20.28-48.29,3.69-93.17,41.67-126.17c3.18-2.76,3.51-7.58,0.75-10.75
		C279.1,386.29,274.28,385.95,271.1,388.71L271.1,388.71z"/>
	<path class="st79" d="M275.12,424.55c-22.91,22.42-33.29,52.61-26.29,86.31c0.86,4.12,4.9,6.77,9.02,5.92
		c4.12-0.86,6.77-4.9,5.92-9.02c-5.87-28.24,2.82-53.53,22.02-72.31c3.01-2.94,3.06-7.78,0.12-10.78
		C282.96,421.66,278.12,421.6,275.12,424.55L275.12,424.55z"/>
	<path class="st79" d="M154.06,582.73c-11.19,13.53-16.48,33.53-15.12,55.98c1.93,32.05,17.35,69.22,46.86,98.03
		c3.01,2.94,7.84,2.88,10.78-0.13c2.94-3.01,2.88-7.84-0.13-10.78c-26.53-25.91-40.56-59.23-42.3-88.04
		c-1.09-18.13,2.63-34.42,11.66-45.35c2.68-3.24,2.22-8.05-1.02-10.73C161.55,579.02,156.74,579.48,154.06,582.73L154.06,582.73z"/>
	<path class="st79" d="M174.54,629.72c-4.15,6.52-5.68,16.53-3.81,28.49c3.76,24.08,21.1,57.14,50.42,80.71
		c3.28,2.64,8.08,2.11,10.72-1.17c2.64-3.28,2.12-8.08-1.16-10.72c-22.32-17.95-36.99-41.97-42.82-61.95
		c-3.35-11.49-4.15-21.42-0.49-27.17c2.26-3.55,1.22-8.27-2.34-10.53C181.52,625.12,176.8,626.16,174.54,629.72L174.54,629.72z"/>
</g>
</svg>
