<?xml version="1.0" encoding="utf-8"?>
<!-- Generator: Adobe Illustrator 26.4.1, SVG Export Plug-In . SVG Version: 6.00 Build 0)  -->
<svg version="1.1" id="Layer_1" xmlns="http://www.w3.org/2000/svg" xmlns:xlink="http://www.w3.org/1999/xlink" x="0px" y="0px"
	 viewBox="0 0 2000 2000" style="enable-background:new 0 0 2000 2000;" xml:space="preserve">
<style type="text/css">
	.st0{fill-rule:evenodd;clip-rule:evenodd;fill:#F49E23;}
	.st1{fill-rule:evenodd;clip-rule:evenodd;fill:#D14D36;}
	.st2{fill-rule:evenodd;clip-rule:evenodd;fill:#FDF0D3;}
	.st3{fill-rule:evenodd;clip-rule:evenodd;fill:#0C427E;}
	.st4{fill-rule:evenodd;clip-rule:evenodd;fill:#B45A25;}
	.st5{fill-rule:evenodd;clip-rule:evenodd;fill:#EC8C28;}
	.st6{fill-rule:evenodd;clip-rule:evenodd;fill:#EE9726;}
	.st7{fill-rule:evenodd;clip-rule:evenodd;fill:#302574;}
	.st8{fill-rule:evenodd;clip-rule:evenodd;fill:#F3B953;}
	.st9{fill-rule:evenodd;clip-rule:evenodd;fill:#3D648F;}
	.st10{fill-rule:evenodd;clip-rule:evenodd;fill:#145468;}
	.st11{fill-rule:evenodd;clip-rule:evenodd;fill:#3B7A7A;}
	.st12{fill-rule:evenodd;clip-rule:evenodd;fill:#098B8D;}
	.st13{fill-rule:evenodd;clip-rule:evenodd;fill:#689595;}
	.st14{fill-rule:evenodd;clip-rule:evenodd;fill:#679595;}
	.st15{fill-rule:evenodd;clip-rule:evenodd;fill:#CEE4E4;}
	
		.st16{fill-rule:evenodd;clip-rule:evenodd;fill:#145468;stroke:#CEE4E4;stroke-width:5;stroke-linecap:round;stroke-linejoin:round;stroke-miterlimit:10;}
	.st17{fill-rule:evenodd;clip-rule:evenodd;fill:#043A60;}
	.st18{fill-rule:evenodd;clip-rule:evenodd;fill:#FD9A65;}
	.st19{fill-rule:evenodd;clip-rule:evenodd;fill:#18658D;}
	.st20{fill-rule:evenodd;clip-rule:evenodd;fill:#9FCDE5;}
	.st21{fill-rule:evenodd;clip-rule:evenodd;fill:#56A8D3;}
	.st22{fill-rule:evenodd;clip-rule:evenodd;fill:#276383;}
	.st23{fill-rule:evenodd;clip-rule:evenodd;fill:#E0F0F8;}
	.st24{fill-rule:evenodd;clip-rule:evenodd;fill:#A51E1C;}
	.st25{fill-rule:evenodd;clip-rule:evenodd;fill:#CB442D;}
	.st26{fill-rule:evenodd;clip-rule:evenodd;fill:#DC5A44;}
	.st27{fill-rule:evenodd;clip-rule:evenodd;fill:#F7BD54;}
	.st28{fill-rule:evenodd;clip-rule:evenodd;fill:#E46B37;}
	.st29{fill-rule:evenodd;clip-rule:evenodd;fill:#B67227;}
	.st30{fill-rule:evenodd;clip-rule:evenodd;fill:#D78A35;}
	.st31{fill-rule:evenodd;clip-rule:evenodd;fill:#A4331F;}
	.st32{fill-rule:evenodd;clip-rule:evenodd;fill:#F2A550;}
	.st33{fill-rule:evenodd;clip-rule:evenodd;fill:#F9E9D6;}
	.st34{fill-rule:evenodd;clip-rule:evenodd;fill:#844013;}
	.st35{fill-rule:evenodd;clip-rule:evenodd;fill:#A04E18;}
	.st36{fill-rule:evenodd;clip-rule:evenodd;fill:#F8B872;}
	.st37{fill-rule:evenodd;clip-rule:evenodd;fill:#FFC689;}
	.st38{fill-rule:evenodd;clip-rule:evenodd;fill:#B6844D;}
	.st39{fill-rule:evenodd;clip-rule:evenodd;fill:#CA5320;}
	.st40{fill-rule:evenodd;clip-rule:evenodd;fill:#D76332;}
	.st41{fill-rule:evenodd;clip-rule:evenodd;fill:#812F0C;}
	.st42{fill-rule:evenodd;clip-rule:evenodd;fill:#8A460F;}
	.st43{fill-rule:evenodd;clip-rule:evenodd;fill:#B46914;}
	.st44{fill-rule:evenodd;clip-rule:evenodd;fill:#B54515;}
	.st45{fill-rule:evenodd;clip-rule:evenodd;fill:#FFCD71;}
	.st46{fill-rule:evenodd;clip-rule:evenodd;fill:#95B41D;}
	.st47{fill-rule:evenodd;clip-rule:evenodd;fill:#A8C731;}
	.st48{fill-rule:evenodd;clip-rule:evenodd;fill:#85A214;}
	.st49{fill-rule:evenodd;clip-rule:evenodd;fill:#C6EF28;}
	.st50{fill-rule:evenodd;clip-rule:evenodd;fill:#ED982B;}
	.st51{fill-rule:evenodd;clip-rule:evenodd;fill:#FCCF7C;}
	.st52{fill-rule:evenodd;clip-rule:evenodd;fill:#FFE8BC;}
	.st53{fill-rule:evenodd;clip-rule:evenodd;fill:#ED6961;}
	.st54{fill-rule:evenodd;clip-rule:evenodd;fill:#696E1E;}
	.st55{fill-rule:evenodd;clip-rule:evenodd;fill:#9CA42A;}
	.st56{fill-rule:evenodd;clip-rule:evenodd;fill:#7F8615;}
	.st57{fill-rule:evenodd;clip-rule:evenodd;fill:#FFEECF;}
	.st58{fill-rule:evenodd;clip-rule:evenodd;fill:#77786D;}
	.st59{fill-rule:evenodd;clip-rule:evenodd;fill:#D3D5C6;}
	.st60{fill-rule:evenodd;clip-rule:evenodd;fill:#7C7A7A;}
	.st61{fill-rule:evenodd;clip-rule:evenodd;fill:#DBDCD9;}
	.st62{fill-rule:evenodd;clip-rule:evenodd;fill:#CA372D;}
	.st63{fill-rule:evenodd;clip-rule:evenodd;fill:#FE7D75;}
	.st64{fill-rule:evenodd;clip-rule:evenodd;fill:#B0B0B0;}
	.st65{fill-rule:evenodd;clip-rule:evenodd;fill:#888787;}
	.st66{fill-rule:evenodd;clip-rule:evenodd;fill:#6E6E6E;}
	.st67{fill-rule:evenodd;clip-rule:evenodd;fill:#757575;}
	.st68{fill-rule:evenodd;clip-rule:evenodd;fill:#60341E;}
	.st69{fill-rule:evenodd;clip-rule:evenodd;fill:#B0451B;}
	.st70{fill-rule:evenodd;clip-rule:evenodd;fill:#8A4727;}
	.st71{fill-rule:evenodd;clip-rule:evenodd;fill:#FABB64;}
	.st72{fill-rule:evenodd;clip-rule:evenodd;fill:#3E88AF;}
	.st73{fill-rule:evenodd;clip-rule:evenodd;fill:#5BA0C5;}
	.st74{fill-rule:evenodd;clip-rule:evenodd;fill:#FFF1DE;}
	.st75{fill-rule:evenodd;clip-rule:evenodd;fill:#F8B89B;}
	.st76{fill-rule:evenodd;clip-rule:evenodd;fill:#E98A5F;}
	.st77{fill-rule:evenodd;clip-rule:evenodd;fill:#FFCAB3;}
	.st78{fill-rule:evenodd;clip-rule:evenodd;fill:#F9A580;}
	.st79{fill-rule:evenodd;clip-rule:evenodd;fill:#FFDFD2;}
	.st80{fill-rule:evenodd;clip-rule:evenodd;fill:#E2A85C;}
	.st81{fill-rule:evenodd;clip-rule:evenodd;fill:#C68446;}
	.st82{fill-rule:evenodd;clip-rule:evenodd;fill:#F2BC75;}
	.st83{fill-rule:evenodd;clip-rule:evenodd;fill:#F2BC76;}
	.st84{fill-rule:evenodd;clip-rule:evenodd;fill:#FFD69F;}
	.st85{fill-rule:evenodd;clip-rule:evenodd;fill:#E7624B;}
	.st86{fill-rule:evenodd;clip-rule:evenodd;fill:#F6E8DB;}
	.st87{fill-rule:evenodd;clip-rule:evenodd;fill:#FC9EB6;}
	.st88{fill-rule:evenodd;clip-rule:evenodd;fill:#FFFFFF;}
</style>
<g>
	<path class="st39" d="M1836.28,1225.59c21.96-47.6-104.03-553.7-209.5-610.9c-225.22-122.15-1051.3-140.27-1280.81-58.11
		c-110.37,39.51-222.23,623.64-213.6,638.1C151.55,1226.77,1791.33,1323.02,1836.28,1225.59L1836.28,1225.59z"/>
	<path class="st40" d="M292.68,614.83c-3.76-5.65-181.01,426.05-118.95,477.73c76.38,63.6,468.22,222.24,577.04,215.09
		c83.1-5.47,214.79,1.7,214.11-13.17c-4.8-106.71-206-269.28-228.49-304.84c-83.19-131.57-73.09-178.44-184.39-243.36
		C487.93,708.89,324.79,663,292.68,614.83L292.68,614.83z"/>
	<path class="st41" d="M1017.92,780.95c399.93,25.16,648.98-86.68,630.05-151.16c-18.09-61.64-406.74-118.14-725.63-131.67
		c-161.26-6.84-603.64,18.53-605.78,85.58C313.01,695.17,707.55,761.43,1017.92,780.95L1017.92,780.95z"/>
	<path class="st42" d="M364.92,652.08c-9.17-6.52,24.73-23.41,27.6-27.79c62.2-95.11,104.54-27.34,129.69-39.33
		c18.04-8.6,22.14-35.28,35.6-56.28c12.66-19.73,34.14-34.01,66.45-37.21c23.61-2.34,34.78,16.91,48.13,13.3
		c10.67-2.89,60.1-26.14,95.13-29.89c46.3-4.96,58.43,13.73,89.57,14.31c14.74,0.28,54.82-39.46,98.76-38.63
		c93.93,1.77,118.66,66.52,137.87,68.87c32.73,4.01,47.15-12.36,79.58-6.31c30.71,5.73,41.44,22.39,41.44,22.39
		s9.79-12.45,31.76-20.26c24.38-8.66,47.06-5.9,67.88,9.41c15.2,11.18,14.88,20.99,17.87,19.6c9.33-4.32,21.57-13.36,54.72-19.52
		c25.39-4.72,73.32,14.79,83.74,36.24c9.81,20.19,5.43,45.62,6.38,45.58c9.78-0.41,40.32-5.67,64.25,8.52
		c39.56,23.45,46.97,72.11,41.19,84.18c-10.04,20.99-193.5,75.24-287.61,83.73c-110.54,9.98-253.11,0.04-413.75-9.38
		C687.31,762.22,433.15,700.58,364.92,652.08L364.92,652.08z"/>
	<path class="st43" d="M471.38,643.5c3.47-20.08,19.25-29.28,31.39-30.81c9.12-1.15,15.42,3.43,21.28,8.74
		c5.16,4.69,9.98,10.05,15.23,14.47c6.41,5.4,13.46,9.46,21.94,10.56c11.76,1.52,27.05-2.67,48.22-20.43
		c3.54-2.96,4-8.24,1.03-11.77c-2.96-3.53-8.24-3.99-11.77-1.03c-15.79,13.24-26.56,17.79-35.33,16.66
		c-8.43-1.09-14.28-7.33-20.36-13.35c-11.67-11.56-23.6-22.8-42.34-20.43c-17.62,2.23-40.72,15.39-45.76,44.54
		c-0.79,4.54,2.27,8.87,6.81,9.66C466.26,651.1,470.59,648.04,471.38,643.5L471.38,643.5z"/>
	<path class="st43" d="M707.01,579.36c-0.26-3.97-1.02-13.22-2.73-20.49c-4-16.92-14.32-35.18-43.28-36.72
		c-38.07-2.02-54.69,32.07-47.55,56.7c1.29,4.43,5.92,6.98,10.36,5.7c4.43-1.29,6.98-5.92,5.7-10.36
		c-4.51-15.56,6.55-36.63,30.61-35.35c29,1.54,29.16,28.85,30.01,40.23c0.32,4.23,0.94,7.28,1.6,8.67c1.01,2.14,2.43,3.38,3.77,4.15
		c11.01,6.33,16.44,14.43,14.25,22.66c-2.47,9.3-13.02,17.15-30.24,22.04c-4.44,1.26-7.01,5.89-5.76,10.32
		c1.26,4.44,5.89,7.02,10.32,5.76c24.75-7.03,38.27-20.45,41.83-33.82C729.51,605.24,723.85,590.32,707.01,579.36L707.01,579.36z"/>
	<path class="st43" d="M678.17,591.41c-21.22-3.33-36.67,13.18-41.87,33.7c-5.09,20.09,0.35,42.7,16.37,51.11
		c4.09,2.15,9.14,0.57,11.29-3.51c2.15-4.08,0.57-9.14-3.51-11.28c-4.42-2.32-6.95-6.83-8.27-11.97
		c-1.61-6.25-1.38-13.49,0.33-20.24c3.04-11.99,10.68-23.24,23.08-21.3c4.56,0.72,8.84-2.4,9.55-6.96
		C685.85,596.4,682.73,592.12,678.17,591.41L678.17,591.41z"/>
	<path class="st43" d="M830.59,589.79c-4.7-13.79,2.6-28.49,12.99-39.5c10.41-11.03,24.23-18.96,34.73-17.08
		c5.21,0.94,8.6,2.53,10.7,4.97c2.1,2.44,2.85,5.51,3.42,8.65c0.71,3.93,1.04,8.02,1.7,11.9c1.21,7.07,3.57,13.49,8.81,18.35
		c3.51,3.26,8.38,5.92,15.47,7.3c4.53,0.88,8.92-2.09,9.8-6.61c0.88-4.53-2.09-8.92-6.61-9.8c-11.23-2.18-10.87-10.6-11.87-18.36
		c-1.08-8.46-2.86-16.76-8.72-23.08c-4.08-4.4-10.14-8.05-19.76-9.78c-14.78-2.65-35.17,6.53-49.83,22.06
		c-14.68,15.56-23.3,36.87-16.66,56.36c1.49,4.37,6.24,6.7,10.61,5.22C829.74,598.91,832.07,594.15,830.59,589.79L830.59,589.79z"/>
	<path class="st43" d="M865.46,584.57c-17.36,12.78-24.6,35.73-18.25,51.97c4.49,11.47,15.29,20.57,34.72,20.79
		c4.61,0.05,8.4-3.65,8.45-8.26c0.05-4.61-3.65-8.4-8.26-8.45c-8.1-0.09-13.79-2.31-17.1-6.32c-2.9-3.51-3.79-8.19-3.33-12.99
		c0.81-8.5,5.78-17.45,13.69-23.27c3.71-2.74,4.51-7.97,1.77-11.69C874.41,582.62,869.17,581.83,865.46,584.57L865.46,584.57z"/>
	<path class="st43" d="M914.1,689.82c8.33,0.79,18.3,1.43,25.94,3.58c2.95,0.83,5.64,1.41,6.72,3.23c0.47,0.8-0.26,1.69-0.93,3.02
		c-1.99,4.02-6.13,8.86-12.77,14.98c-3.39,3.13-3.61,8.41-0.49,11.81c3.12,3.39,8.41,3.61,11.81,0.49
		c10.72-9.86,16.03-17.7,17.98-23.6c2.04-6.18,1.18-11.15-1.22-15.21c-2.3-3.89-6.4-7.08-11.97-9.28
		c-8.95-3.52-22.46-4.61-33.49-5.66c-4.59-0.43-8.67,2.94-9.11,7.53C906.13,685.31,909.51,689.39,914.1,689.82L914.1,689.82z"/>
	<path class="st43" d="M799.13,628.82c-12.86,9.11-20.65,25.54-20.43,40.11c0.16,10.87,4.57,20.69,13.69,26.67
		c9.49,6.23,17.55,6.82,25.78,6.14c5.94-0.49,11.98-1.96,19.27-0.83c23.11,3.59,33.32,20.72,32.39,34.89
		c-0.31,4.6,3.19,8.58,7.79,8.89c4.6,0.3,8.58-3.19,8.89-7.79c1.37-20.87-12.46-47.21-46.5-52.5c-7.26-1.13-13.53-0.38-19.54,0.31
		c-6.15,0.71-11.93,1.51-18.92-3.07c-4.36-2.86-6.07-7.75-6.15-12.94c-0.14-9.53,4.97-20.27,13.38-26.23
		c3.76-2.67,4.66-7.89,1.99-11.65C808.11,627.05,802.89,626.16,799.13,628.82L799.13,628.82z"/>
	<path class="st43" d="M1013.45,605.47c-0.21-3.48,1.38-7.48,3.79-11.61c4.46-7.64,12-15.38,20.74-21
		c13.16-8.45,29.44-12.48,41.33-0.41c5.72,5.81,5.78,11.32,5.06,16.2c-0.45,3.06-1.12,5.95-1.48,8.66
		c-0.61,4.64-0.33,8.89,1.43,12.72c1.8,3.89,5.12,7.65,11.69,10.58c4.21,1.88,9.16-0.02,11.04-4.23c1.88-4.21-0.02-9.16-4.23-11.03
		c-1.73-0.77-2.92-1.33-3.34-2.36c-0.52-1.26-0.15-2.68,0.08-4.21c0.42-2.77,1.11-5.74,1.51-8.86c1.13-8.88,0.42-18.77-9.86-29.2
		c-17.92-18.18-42.43-14.66-62.27-1.92c-11.05,7.1-20.5,16.97-26.14,26.63c-4.33,7.4-6.42,14.8-6.05,21.03
		c0.27,4.61,4.24,8.12,8.84,7.85C1010.21,614.03,1013.73,610.07,1013.45,605.47L1013.45,605.47z"/>
	<path class="st43" d="M976.7,531.96c-1.58-2.41,0.07-5.09,2.02-7.64c5-6.53,14.71-11.97,23.28-11.69
		c8.83,0.3,14.04,8.17,12.47,26.91c-0.38,4.6,3.04,8.64,7.64,9.02c4.6,0.38,8.64-3.04,9.02-7.63c1.91-22.86-5.17-35.02-14.08-40.7
		c-5.91-3.76-13.02-4.96-20.33-4.02c-9.62,1.24-19.59,6.27-26.63,12.85c-10.25,9.58-13.83,22.17-7.37,32.04
		c2.52,3.86,7.71,4.94,11.57,2.42C978.14,541,979.22,535.82,976.7,531.96L976.7,531.96z"/>
	<path class="st43" d="M998.45,650.85c-5.75,7.99-7.85,15.88-7.45,23.32c0.57,10.73,6.55,20.81,15.94,29.05
		c12.52,10.98,31.15,18.73,47.91,20.8c12.24,1.5,23.5-0.12,31.29-4.87c38.26-23.34,46.48-63.78,16.79-82.21
		c-15.54-9.65-38.66-2.79-49.86,10.49c-8.45,10.03-10.69,22.96-0.84,34.93c2.93,3.56,8.2,4.07,11.76,1.14
		c3.56-2.93,4.07-8.2,1.14-11.76c-5.09-6.18-1.22-12.75,4.47-17.06c6.92-5.24,17.14-8.12,24.51-3.54
		c8.87,5.51,11.57,14.2,9.21,23.25c-2.85,10.93-12.09,22.08-25.89,30.5c-4.14,2.52-9.88,3.23-16.18,2.92
		c-11.02-0.53-23.61-4.43-34-10.52c-14.73-8.63-25.87-21.9-15.24-36.67c2.69-3.74,1.84-8.97-1.9-11.66
		C1006.38,646.26,1001.15,647.11,998.45,650.85L998.45,650.85z"/>
	<path class="st43" d="M1155.7,606.79c3.61-25.38,40.85-19.66,39.24,4.58c-0.3,4.6,3.19,8.59,7.79,8.89
		c4.6,0.31,8.59-3.18,8.89-7.79c2.96-44.73-65.8-54.87-72.47-8.04c-0.65,4.57,2.53,8.8,7.1,9.45
		C1150.81,614.54,1155.04,611.36,1155.7,606.79L1155.7,606.79z"/>
	<path class="st43" d="M1096.53,752.78c2.54,4.39,7.38,7.99,14.26,10.01c11.48,3.38,29.74,2.57,46.94-2.32
		c14.92-4.24,28.94-11.54,37.33-21.01c6.62-7.48,10.01-16.29,8.82-26.16c-0.56-4.58-4.72-7.85-9.3-7.29
		c-4.58,0.55-7.85,4.72-7.3,9.3c0.78,6.47-2.78,11.81-8.05,16.3c-6.72,5.73-16.21,9.99-26.08,12.8
		c-12.02,3.42-24.65,4.67-33.91,3.19c-2.47-0.39-4.67-0.97-6.42-1.84c-0.78-0.38-1.48-0.73-1.83-1.33
		c-2.31-3.99-7.43-5.36-11.42-3.05C1095.58,743.67,1094.22,748.79,1096.53,752.78L1096.53,752.78z"/>
	<path class="st43" d="M1178.15,695.22c16.18-17.66,35.15-8.08,51.01-0.12c8.07,4.05,15.54,8.01,21.88,9.91
		c6.07,1.82,11.45,1.86,15.91,0.07c4.28-1.72,6.36-6.59,4.64-10.87c-1.72-4.28-6.59-6.36-10.87-4.64c-2.02,0.81-4.46-0.31-7.37-1.42
		c-7.76-2.96-16.99-8.51-26.85-12.8c-19.78-8.61-41.53-12.31-60.67,8.58c-3.11,3.4-2.88,8.69,0.52,11.81
		C1169.74,698.85,1175.03,698.62,1178.15,695.22L1178.15,695.22z"/>
	<path class="st43" d="M1383.05,626.3c-3.44-3.62-4.96-7.33-4.66-10.86c0.77-8.85,11.13-15.24,21.61-13.82
		c7.32,0.99,14.64,5.95,20.25,16.02c2.54,4.56,2.21,9.74,0.15,14.53c-3.74,8.68-12.88,16.17-24.21,18.69c-4.5,1-7.34,5.47-6.34,9.98
		c1,4.5,5.47,7.34,9.98,6.34c16.96-3.78,30.32-15.39,35.92-28.39c4.16-9.66,4.22-20.09-0.9-29.27c-8.85-15.9-21.06-22.9-32.61-24.46
		c-20.34-2.75-39.02,11.78-40.5,28.95c-0.65,7.62,1.77,15.99,9.19,23.8c3.17,3.35,8.47,3.48,11.81,0.31
		C1386.08,634.94,1386.22,629.64,1383.05,626.3L1383.05,626.3z"/>
	<path class="st43" d="M1359.62,677.43c-2.69,5.42-2.69,10.05-1.37,13.99c1.24,3.72,3.84,6.97,7.51,9.6
		c4.91,3.52,12.08,5.94,18,7.78c4.4,1.37,9.09-1.08,10.47-5.49c1.37-4.4-1.09-9.09-5.49-10.47c-3.62-1.13-7.91-2.42-11.4-4.29
		c-1.34-0.72-2.66-1.35-3.24-2.45c-0.19-0.36,0.22-0.71,0.49-1.24c2.05-4.13,0.36-9.15-3.76-11.2
		C1366.69,671.61,1361.67,673.3,1359.62,677.43L1359.62,677.43z"/>
	<path class="st43" d="M1397.04,747.78c14.51-1.74,20.01-10.18,23.31-20.27c1.37-4.2,2.24-8.74,3.73-12.78
		c1.25-3.39,3.11-6.32,7.94-6.89c4.58-0.53,7.87-4.69,7.33-9.27c-0.53-4.58-4.69-7.87-9.27-7.34c-14.04,1.64-19.32,10-22.53,20.19
		c-1.3,4.12-2.15,8.59-3.69,12.58c-1.37,3.54-3.54,6.54-8.81,7.17c-4.58,0.55-7.85,4.71-7.3,9.29
		C1388.3,745.06,1392.46,748.33,1397.04,747.78L1397.04,747.78z"/>
	<path class="st43" d="M1486.8,652.49c2.01-9.55,11.27-11.72,18.72-9.82c4.32,1.1,8.36,3.44,9.84,7.23
		c0.87,2.23,0.58,4.87-0.84,7.85c-1.98,4.16-0.21,9.15,3.96,11.14c4.17,1.98,9.16,0.21,11.14-3.96c3.78-7.96,3.64-15.11,1.32-21.09
		c-3.32-8.53-11.57-14.9-21.3-17.37c-15.95-4.05-34.9,2.15-39.2,22.58c-0.95,4.51,1.95,8.95,6.46,9.9
		C1481.42,659.89,1485.85,657,1486.8,652.49L1486.8,652.49z"/>
	<path class="st43" d="M1538.64,679.54c-1.38,2.9-2.74,4.8-4.46,5.83c-2.92,1.75-6.32,1.24-10,1.12
		c-10.81-0.35-23.21-0.7-36.84,12.57c-3.3,3.22-3.37,8.51-0.16,11.82c3.22,3.3,8.51,3.37,11.82,0.15
		c11.43-11.13,21.93-7.51,30.41-7.79c4.83-0.16,9.27-1.09,13.36-3.54c3.99-2.39,7.79-6.27,10.98-13.01
		c1.97-4.17,0.19-9.16-3.98-11.13C1545.6,673.59,1540.61,675.37,1538.64,679.54L1538.64,679.54z"/>
	<path class="st43" d="M1456.03,675.27c-7.88,5.86-10.18,14.49-8.42,23.44c2.19,11.12,11.4,22.59,21.54,26.98
		c4.23,1.83,9.16-0.11,10.99-4.35c1.84-4.23-0.11-9.16-4.35-10.99c-4.69-2.03-8.91-6.91-10.93-12.02c-1.38-3.49-1.97-7.34,1.13-9.64
		c3.71-2.75,4.48-7.99,1.73-11.69C1464.97,673.3,1459.73,672.52,1456.03,675.27L1456.03,675.27z"/>
	<path class="st43" d="M1294.03,549.91c-4.09-5.39-8.96-8.16-14-9.14c-6.99-1.35-14.73,0.93-21.73,6.37
		c-15.87,12.35-27.63,41.4-16.36,63.01c4.89,9.37,13.96,17.64,29.17,22.39c4.4,1.37,9.09-1.09,10.47-5.49
		c1.37-4.4-1.09-9.09-5.49-10.47c-11.24-3.51-17.72-9.45-20.44-16.63c-4.21-11.14,0.12-24.33,6.86-33.33
		c2.82-3.77,6.09-6.84,9.51-8.48c3.08-1.48,6.29-1.29,8.69,1.87c2.79,3.67,8.04,4.39,11.71,1.6
		C1296.1,558.83,1296.82,553.58,1294.03,549.91L1294.03,549.91z"/>
	<path class="st43" d="M1287.27,597.28c1.92-5.28,7.45-7.28,12.65-7.11c5.18,0.17,10.59,2.43,12.14,7.48
		c0.85,2.74,0.48,6.09-1.07,10.05c-1.68,4.29,0.43,9.15,4.73,10.83c4.29,1.68,9.15-0.43,10.83-4.73c3.24-8.26,3.25-15.32,1.49-21.06
		c-3.66-11.91-15.35-18.87-27.58-19.27c-12.22-0.4-24.4,5.69-28.91,18.1c-1.58,4.33,0.67,9.13,5,10.71
		C1280.9,603.85,1285.7,601.61,1287.27,597.28L1287.27,597.28z"/>
	<path class="st43" d="M1294.59,681.18c4.21-3.68,10.55-2.17,15.27,0.86c4.38,2.8,8,7.41,5.8,12.52c-1.82,4.24,0.14,9.16,4.38,10.98
		c4.24,1.82,9.16-0.14,10.98-4.38c5.62-13.07-0.92-26.01-12.15-33.2c-10.89-6.97-25.56-7.85-35.28,0.64
		c-3.47,3.04-3.83,8.32-0.79,11.79C1285.83,683.86,1291.11,684.21,1294.59,681.18L1294.59,681.18z"/>
	<path class="st43" d="M1271.92,735.64c0.5-0.33,1.3-0.8,2.02-1.06c2.09-0.78,4.76-1.3,8.08-1.61c4.59-0.42,7.98-4.5,7.55-9.09
		c-0.42-4.59-4.5-7.98-9.09-7.56c-13.03,1.2-19.92,5.8-22.97,10.35c-4.13,6.16-3.52,13.81,2.09,20.82
		c10.91,13.64,44.71,24.96,68.21,0.53c3.2-3.32,3.1-8.62-0.23-11.82c-3.32-3.2-8.62-3.1-11.82,0.23
		c-12.56,13.05-29.7,10.42-39.11,4.13C1274.66,739.22,1272.67,736.66,1271.92,735.64L1271.92,735.64z"/>
	<path class="st43" d="M1356.76,728.58c-0.33,0.46-1.3,1.77-1.99,2.39c-2.56,2.32-5.45,4.01-6.58,4.94
		c-3.55,2.94-4.05,8.21-1.11,11.77c2.94,3.55,8.21,4.05,11.77,1.11c1.65-1.36,6.43-4.26,9.75-8.08c3.23-3.72,5.2-8.18,4.95-12.95
		c-0.17-3.27-1.33-6.83-4.36-10.46c-2.95-3.54-8.23-4.02-11.77-1.06c-3.54,2.96-4.01,8.23-1.06,11.77
		C1356.5,728.17,1356.65,728.4,1356.76,728.58L1356.76,728.58z"/>
	<path class="st43" d="M1388.64,570.95c0.98-5.62,6.64-8.45,12.3-9.45c5.89-1.03,12.51-0.27,15.57,4.05
		c2.67,3.76,7.89,4.65,11.65,1.99c3.76-2.67,4.66-7.89,1.99-11.65c-6.45-9.11-19.69-13.03-32.1-10.85
		c-12.64,2.22-23.68,10.48-25.88,23.03c-0.79,4.54,2.25,8.88,6.79,9.67C1383.5,578.53,1387.84,575.49,1388.64,570.95L1388.64,570.95
		z"/>
	<path class="st43" d="M742.23,648.51c-10.12-0.13-17.05,2.92-21.59,7.1c-7.79,7.16-9.26,18.38-5.71,28.29
		c5.29,14.79,20.86,25.66,37.92,15.35c3.95-2.38,5.22-7.52,2.83-11.47c-2.38-3.95-7.52-5.22-11.47-2.83
		c-6.3,3.8-11.59-1.22-13.54-6.68c-1.28-3.59-1.52-7.77,1.29-10.37c2.08-1.92,5.42-2.74,10.06-2.68c4.61,0.06,8.4-3.64,8.46-8.25
		C750.54,652.37,746.84,648.57,742.23,648.51L742.23,648.51z"/>
	<path class="st43" d="M744.5,727.23c4.34,11.2,10.69,16.77,17.03,19.47c9.51,4.06,19.75,1.45,25.98-1.18
		c4.25-1.8,6.23-6.71,4.43-10.96c-1.8-4.25-6.71-6.23-10.95-4.43c-3.1,1.31-8.16,3.23-12.9,1.2c-3.17-1.35-5.84-4.54-8.01-10.14
		c-1.66-4.3-6.51-6.44-10.81-4.78C744.97,718.09,742.83,722.93,744.5,727.23L744.5,727.23z"/>
	<path class="st43" d="M812.6,733.32c8.63-3.77,16.63-1.85,20.98,2.71c2.05,2.15,3.3,4.89,2.48,7.58
		c-1.33,4.42,1.17,9.08,5.59,10.42c4.41,1.33,9.08-1.17,10.42-5.58c1.93-6.4,0.9-13.08-2.54-18.9
		c-6.89-11.62-24.25-20.01-43.62-11.55c-4.22,1.85-6.16,6.78-4.31,11C803.45,733.23,808.38,735.16,812.6,733.32L812.6,733.32z"/>
	<path class="st43" d="M744.56,539.06c-0.47-3.82-0.02-6.83,1.5-9c2.29-3.26,6.56-4.27,11.05-4.23c9.41,0.08,20.41,5.22,24.63,14.44
		c1.92,4.19,6.88,6.04,11.08,4.12c4.19-1.92,6.04-6.88,4.12-11.08c-6.87-15.01-24.36-24.06-39.68-24.19
		c-10.36-0.09-19.58,3.8-24.86,11.33c-3.53,5.02-5.51,11.81-4.42,20.65c0.56,4.58,4.74,7.84,9.31,7.27
		C741.87,547.81,745.13,543.64,744.56,539.06L744.56,539.06z"/>
	<path class="st43" d="M597.89,656.13c-8.14-6.56-17.03-5.23-24.38,0.83c-8.46,6.99-14.04,21.34-11.42,32.01
		c2.87,11.67,15.24,22.99,46.57,11.2c4.32-1.62,6.5-6.45,4.88-10.77c-1.62-4.32-6.45-6.5-10.77-4.88
		c-7.06,2.66-12.66,3.91-17.07,3.96c-3.06,0.04-5.26-0.35-6.51-1.74c-1.34-1.48-1.26-3.68-0.94-5.83c0.5-3.31,2.03-6.69,4.11-9.24
		c0.79-0.97,1.65-1.81,2.58-2.41c0.77-0.49,1.64-0.77,2.45-0.12c3.59,2.9,8.86,2.33,11.75-1.26
		C602.05,664.29,601.48,659.02,597.89,656.13L597.89,656.13z"/>
	<path class="st43" d="M469.55,680.2c3.1-1.99,4.62-5.87,3.46-9.55c-1.39-4.4-6.09-6.84-10.49-5.45
		c-9.85,3.11-12.42,8.2-12.85,11.81c-0.29,2.41,0.19,5.06,1.85,7.83c1.51,2.54,4.68,5.65,8.38,9.43c3.23,3.3,8.52,3.36,11.82,0.13
		c3.3-3.23,3.36-8.52,0.13-11.82C471.12,681.85,470.32,681.01,469.55,680.2L469.55,680.2z"/>
	<path class="st43" d="M576.95,583.09c-2.82-3.22-1.19-7.31,1.06-10.57c1.53-2.21,3.54-4.13,5.68-5.43
		c1.36-0.82,2.71-1.52,3.99-1.37c4.58,0.52,8.73-2.77,9.25-7.35c0.53-4.58-2.77-8.73-7.35-9.26c-8.26-0.95-19.03,4.83-25.31,13.89
		c-6.59,9.52-8.14,21.65,0.1,31.08c3.03,3.47,8.32,3.83,11.79,0.79C579.63,591.85,579.99,586.57,576.95,583.09L576.95,583.09z"/>
	<path class="st44" d="M1428.66,789.92c70.89,159.72-54.7,366.66-183.71,458.75c-5.65,4.03,459.64-16.47,517-72.5
		c50.91-49.74-17.02-369.3-131.21-445.57C1598.08,708.79,1428.66,789.92,1428.66,789.92L1428.66,789.92z"/>
	<path class="st45" d="M329.61,565.35c-3.71,73.92,230.33,142.68,323.79,166.45c290.02,73.75,655.79,60.9,806.79,13.21
		c128.5-40.59,184.13-85.44,185.07-120.41c0.17-6.31,45.94,56.08,41.52,63.59c-39.09,66.27-175.81,126.07-259.34,143.07
		c-220.2,44.81-508.99,55.67-822.37-33.16c-147.31-41.76-312.38-115.8-327.18-157.26C270.38,619.78,330.35,550.66,329.61,565.35
		L329.61,565.35z"/>
	<path class="st45" d="M164.64,1015.27c2.21-12.18-48.56,50.95-58.19,98.72c-10.14,50.3-17.22,108.46,24.42,130.77
		c188.98,101.21,615.25,155.68,906.5,160.9c231.16,4.15,780.51-80.32,836.03-169.93c30.54-49.3-53.41-166.65-54.42-162.55
		c-5.41,21.8-16.98,42.8-47.88,57.33c-114.45,53.84-448.88,119.56-716.79,120.43c-204.05,0.67-662.46-59.61-861.61-166.46
		C156.05,1064.82,162.7,1026.01,164.64,1015.27L164.64,1015.27z"/>
	<path class="st39" d="M131.98,1083.46c7.01,16.05,20.65,31.23,39.66,45.3c27.02,19.99,65.11,37.96,109.26,53.86
		c168.94,60.85,427.5,91.95,481.54,97.92c4.59,0.5,8.72-2.8,9.23-7.39c0.5-4.58-2.81-8.72-7.39-9.22
		c-53.61-5.92-310.12-36.67-477.71-97.03c-42.39-15.27-79.03-32.39-104.98-51.58c-16.29-12.05-28.28-24.8-34.28-38.55
		c-1.85-4.23-6.78-6.16-11-4.32C132.07,1074.3,130.13,1079.23,131.98,1083.46L131.98,1083.46z"/>
	<path class="st39" d="M206.44,1193.09c141.64,79.95,332.92,100.37,491.72,117.69c4.58,0.5,8.71-2.82,9.21-7.4
		c0.5-4.59-2.82-8.71-7.4-9.22c-156.69-17.1-345.56-36.74-485.32-115.63c-4.02-2.27-9.12-0.85-11.39,3.17
		C201.01,1185.72,202.43,1190.83,206.44,1193.09L206.44,1193.09z"/>
	<path class="st39" d="M879.81,1319.93c153.11,20.78,396.78,11.16,608.93-31.81c142.21-28.81,270.25-72.72,347.91-132.14
		c3.66-2.81,4.36-8.05,1.56-11.72c-2.8-3.66-8.05-4.36-11.72-1.56c-76.09,58.22-201.72,100.81-341.07,129.04
		c-210.21,42.58-451.65,52.22-603.36,31.63c-4.57-0.62-8.79,2.59-9.4,7.16C872.03,1315.09,875.24,1319.31,879.81,1319.93
		L879.81,1319.93z"/>
	<path class="st39" d="M1064.77,1366.69c245.98-0.45,532.01-34.46,690.46-119.8c4.06-2.19,5.58-7.26,3.4-11.32
		c-2.19-4.06-7.26-5.58-11.32-3.4c-156.61,84.35-439.43,117.36-682.57,117.8c-4.61,0.01-8.35,3.76-8.34,8.37
		C1056.4,1362.96,1060.15,1366.7,1064.77,1366.69L1064.77,1366.69z"/>
	<path class="st39" d="M1202.7,1282.93c127.5-1.58,302.69-31.25,385.54-52.39c4.47-1.14,7.17-5.69,6.03-10.16s-5.7-7.17-10.17-6.03
		c-82,20.92-255.41,50.31-381.61,51.87c-4.61,0.06-8.31,3.85-8.25,8.46C1194.29,1279.29,1198.08,1282.99,1202.7,1282.93
		L1202.7,1282.93z"/>
</g>
</svg>
