<?xml version="1.0" encoding="utf-8"?>
<!-- Generator: Adobe Illustrator 26.4.1, SVG Export Plug-In . SVG Version: 6.00 Build 0)  -->
<svg version="1.1" id="Layer_1" xmlns="http://www.w3.org/2000/svg" xmlns:xlink="http://www.w3.org/1999/xlink" x="0px" y="0px"
	 viewBox="0 0 2000 2000" style="enable-background:new 0 0 2000 2000;" xml:space="preserve">
<style type="text/css">
	.st0{fill-rule:evenodd;clip-rule:evenodd;fill:#145468;}
	.st1{fill-rule:evenodd;clip-rule:evenodd;fill:#3B7A7A;}
	.st2{fill-rule:evenodd;clip-rule:evenodd;fill:#098B8D;}
	.st3{fill-rule:evenodd;clip-rule:evenodd;fill:#689595;}
	.st4{fill-rule:evenodd;clip-rule:evenodd;fill:#679595;}
	.st5{fill-rule:evenodd;clip-rule:evenodd;fill:#CEE4E4;}
	
		.st6{fill-rule:evenodd;clip-rule:evenodd;fill:#145468;stroke:#CEE4E4;stroke-width:5;stroke-linecap:round;stroke-linejoin:round;stroke-miterlimit:10;}
	.st7{fill-rule:evenodd;clip-rule:evenodd;fill:#043A60;}
	.st8{fill-rule:evenodd;clip-rule:evenodd;fill:#FD9A65;}
	.st9{fill-rule:evenodd;clip-rule:evenodd;fill:#18658D;}
	.st10{fill-rule:evenodd;clip-rule:evenodd;fill:#9FCDE5;}
	.st11{fill-rule:evenodd;clip-rule:evenodd;fill:#56A8D3;}
	.st12{fill-rule:evenodd;clip-rule:evenodd;fill:#276383;}
	.st13{fill-rule:evenodd;clip-rule:evenodd;fill:#E0F0F8;}
	.st14{fill-rule:evenodd;clip-rule:evenodd;fill:#A51E1C;}
	.st15{fill-rule:evenodd;clip-rule:evenodd;fill:#CB442D;}
	.st16{fill-rule:evenodd;clip-rule:evenodd;fill:#DC5A44;}
	.st17{fill-rule:evenodd;clip-rule:evenodd;fill:#F7BD54;}
	.st18{fill-rule:evenodd;clip-rule:evenodd;fill:#E46B37;}
	.st19{fill-rule:evenodd;clip-rule:evenodd;fill:#B67227;}
	.st20{fill-rule:evenodd;clip-rule:evenodd;fill:#D78A35;}
	.st21{fill-rule:evenodd;clip-rule:evenodd;fill:#A4331F;}
	.st22{fill-rule:evenodd;clip-rule:evenodd;fill:#F2A550;}
	.st23{fill-rule:evenodd;clip-rule:evenodd;fill:#F9E9D6;}
	.st24{fill-rule:evenodd;clip-rule:evenodd;fill:#844013;}
	.st25{fill-rule:evenodd;clip-rule:evenodd;fill:#A04E18;}
	.st26{fill-rule:evenodd;clip-rule:evenodd;fill:#F8B872;}
	.st27{fill-rule:evenodd;clip-rule:evenodd;fill:#FFC689;}
	.st28{fill-rule:evenodd;clip-rule:evenodd;fill:#B6844D;}
	.st29{fill-rule:evenodd;clip-rule:evenodd;fill:#CA5320;}
	.st30{fill-rule:evenodd;clip-rule:evenodd;fill:#D76332;}
	.st31{fill-rule:evenodd;clip-rule:evenodd;fill:#812F0C;}
	.st32{fill-rule:evenodd;clip-rule:evenodd;fill:#8A460F;}
	.st33{fill-rule:evenodd;clip-rule:evenodd;fill:#B46914;}
	.st34{fill-rule:evenodd;clip-rule:evenodd;fill:#B54515;}
	.st35{fill-rule:evenodd;clip-rule:evenodd;fill:#FFCD71;}
	.st36{fill-rule:evenodd;clip-rule:evenodd;fill:#95B41D;}
	.st37{fill-rule:evenodd;clip-rule:evenodd;fill:#A8C731;}
	.st38{fill-rule:evenodd;clip-rule:evenodd;fill:#85A214;}
	.st39{fill-rule:evenodd;clip-rule:evenodd;fill:#C6EF28;}
	.st40{fill-rule:evenodd;clip-rule:evenodd;fill:#ED982B;}
	.st41{fill-rule:evenodd;clip-rule:evenodd;fill:#FCCF7C;}
	.st42{fill-rule:evenodd;clip-rule:evenodd;fill:#FFE8BC;}
	.st43{fill-rule:evenodd;clip-rule:evenodd;fill:#ED6961;}
	.st44{fill-rule:evenodd;clip-rule:evenodd;fill:#696E1E;}
	.st45{fill-rule:evenodd;clip-rule:evenodd;fill:#9CA42A;}
	.st46{fill-rule:evenodd;clip-rule:evenodd;fill:#7F8615;}
	.st47{fill-rule:evenodd;clip-rule:evenodd;fill:#FFEECF;}
	.st48{fill-rule:evenodd;clip-rule:evenodd;fill:#77786D;}
	.st49{fill-rule:evenodd;clip-rule:evenodd;fill:#D3D5C6;}
	.st50{fill-rule:evenodd;clip-rule:evenodd;fill:#7C7A7A;}
	.st51{fill-rule:evenodd;clip-rule:evenodd;fill:#DBDCD9;}
	.st52{fill-rule:evenodd;clip-rule:evenodd;fill:#CA372D;}
	.st53{fill-rule:evenodd;clip-rule:evenodd;fill:#FE7D75;}
	.st54{fill-rule:evenodd;clip-rule:evenodd;fill:#B0B0B0;}
	.st55{fill-rule:evenodd;clip-rule:evenodd;fill:#888787;}
	.st56{fill-rule:evenodd;clip-rule:evenodd;fill:#6E6E6E;}
	.st57{fill-rule:evenodd;clip-rule:evenodd;fill:#757575;}
	.st58{fill-rule:evenodd;clip-rule:evenodd;fill:#60341E;}
	.st59{fill-rule:evenodd;clip-rule:evenodd;fill:#B0451B;}
	.st60{fill-rule:evenodd;clip-rule:evenodd;fill:#8A4727;}
	.st61{fill-rule:evenodd;clip-rule:evenodd;fill:#FABB64;}
	.st62{fill-rule:evenodd;clip-rule:evenodd;fill:#3E88AF;}
	.st63{fill-rule:evenodd;clip-rule:evenodd;fill:#5BA0C5;}
	.st64{fill-rule:evenodd;clip-rule:evenodd;fill:#FFF1DE;}
	.st65{fill-rule:evenodd;clip-rule:evenodd;fill:#F8B89B;}
	.st66{fill-rule:evenodd;clip-rule:evenodd;fill:#E98A5F;}
	.st67{fill-rule:evenodd;clip-rule:evenodd;fill:#FFCAB3;}
	.st68{fill-rule:evenodd;clip-rule:evenodd;fill:#F9A580;}
	.st69{fill-rule:evenodd;clip-rule:evenodd;fill:#FFDFD2;}
	.st70{fill-rule:evenodd;clip-rule:evenodd;fill:#E2A85C;}
	.st71{fill-rule:evenodd;clip-rule:evenodd;fill:#C68446;}
	.st72{fill-rule:evenodd;clip-rule:evenodd;fill:#F2BC75;}
	.st73{fill-rule:evenodd;clip-rule:evenodd;fill:#F2BC76;}
	.st74{fill-rule:evenodd;clip-rule:evenodd;fill:#FFD69F;}
	.st75{fill-rule:evenodd;clip-rule:evenodd;fill:#E7624B;}
	.st76{fill-rule:evenodd;clip-rule:evenodd;fill:#FFEED9;}
	.st77{fill-rule:evenodd;clip-rule:evenodd;fill:#C26E11;}
	.st78{fill-rule:evenodd;clip-rule:evenodd;fill:#F39226;}
	.st79{fill-rule:evenodd;clip-rule:evenodd;fill:#DF5020;}
	.st80{fill-rule:evenodd;clip-rule:evenodd;fill:#2C140B;}
	.st81{fill-rule:evenodd;clip-rule:evenodd;fill:#FFFFFF;}
	.st82{fill-rule:evenodd;clip-rule:evenodd;}
	.st83{fill-rule:evenodd;clip-rule:evenodd;fill:#A96F3E;}
	.st84{fill-rule:evenodd;clip-rule:evenodd;fill:#683A15;}
	.st85{fill-rule:evenodd;clip-rule:evenodd;fill:#F0DCCB;}
	.st86{fill-rule:evenodd;clip-rule:evenodd;fill:#E6D1B6;}
	.st87{fill-rule:evenodd;clip-rule:evenodd;fill:#69553C;}
</style>
<g>
	<path class="st86" d="M1070.8,291.1c1.42,5.67,5.03,32.7,5.03,32.7s54.24,22.69,69.69,59.1c12.11,28.54-9.1,51.91-9.1,51.91
		s42.54,10.71,53.59,70.95c7.63,41.58-21.8,69.68-38.72,72.09c-3.85,0.55,19.68,23.46,19.69,51.5
		c0.02,28.62-23.39,41.25-36.62,36.43c-3.11-1.13,4.91,16.16-6.66,38.74c-8.63,16.84-26.47,18.44-26.47,18.44
		s38.82,37.67,88.93,68.93c23.24,14.5,58.41,32.25,58,60.55c-0.27,18.73-21.4,25.03-21.4,25.03s23.15,2.05,39.22,7.03
		c13.67,4.24,42.63,14.86,52.54,39.28c5.94,14.65-6.25,26.34-6.25,26.34s41.76,5.19,57.62,34.64c9.02,16.74-0.68,30.44-7.32,35.79
		c-2.35,1.9,21.81,1.17,34.88,4.66c26.59,7.09,96.67,23.97,108.49,64.03c8.47,28.7-8.84,38.99-7.54,36.95
		c0,0,110.65,30.97,127.81,91.05c11.16,39.07-5.8,56.23-5.8,56.23s31.21,16.13,52.31,74.02c20.43,56.06,41.24,101.03,33.74,198.22
		c-5.28,68.33-62.52,204.18-121.61,244.48c-23.14,15.79,53.11,73.37-20.17,95.07c-38.16,11.3-161.61,25.02-209.02,26.42
		c-126.02,3.71-185.27,6.16-241.06-4.61c-60.42-11.66-78.48-46.1-73.01-80.44c4.2-26.33,29.26-57.56,74.08-62.21
		c29.17-3.03,92.28,6.2,92.28,6.2s-23.04-88.52-26.76-78.99c-1.15,2.94-93.59,14.66-157.16-4.05
		c-25.96-7.64-49.33-25.72-49.33-25.72s-23.99,110.3-39.25,146.35c-17.23,40.71-20.56,91.74-72.34,114.04
		c-37.7,16.24-104.59-5.11-130.02-19.18c-61.72-34.13-58.3-97.72-25.83-131.21c28.3-29.19,69.76-16.51,69.76-16.51l30.89-152.67
		c0,0-42.35-15.84-86.15-38.15c-63.66-32.41-67.38-36.04-95.82-54.26c-2.12-1.36-27.03,138.39-39.4,183.37
		c-8.24,29.96-25.04,70.13-34.83,86.46c-21.76,36.27-106.09,45.24-164.17,27.64c-53.46-16.2-56.81-62.5-55.05-89.09
		c2.75-41.38,30.98-57.75,48.27-63.07c25.82-7.94,45.54,3.58,46.11-2.03c2.56-25.28,10.95-115.64,13.1-130.72
		c3.63-25.44,3.2-81-5.59-107.38c-5.62-16.86-35.17-49.54-25.15-65.4c1.38-2.19-19.38,5.22-35.71-11.44
		c-17.44-17.79-16.58-56.08-7.05-71.57c1.95-3.18-38.48-0.47-56.55-39.25c-30.86-66.21,1.21-146.89,1.21-146.89
		s-23.91-7.3-30.12-31.66c-12.5-48.97,35.85-98.94,35.85-98.94s-13.88-3.91-20.82-20.33c-7.45-17.63-4.9-38.39,6.11-57.87
		c12.85-22.73,101.59-74.52,83.69-80.42c-41.05-13.52-90.14-71.5-110.33-127.04c-22.34-61.43-0.28-121.35-0.28-121.35
		s-8.98,2.21-15.42-14.6c-3.94-10.27,1.2-20.06,6.32-26.65c9.5-12.21,25.67-16.52,25.67-16.52s-20.3-1.38-21.36-24.85
		c-1.07-23.76,24.81-40.8,24.81-40.8s-19.41-4.23-27.44-22.21c-8.99-20.14,4.91-45.95,25.15-66.6
		c16.46-16.79,41.26-74.18,48.35-92.84c23.3-61.32,88.69-109.26,195.38-153.29c84.9-35.03,228.89-29.86,331.63,14.57
		C953.61,136.43,1056.68,234.62,1070.8,291.1L1070.8,291.1z"/>
	<path class="st87" d="M544.28,152.71c31.07-32.15,18.82-73.9-8.93-77.06c-18.69-2.13-53.05,4.2-92.51,9.11
		c-43.93,5.47-79.2-28.65-120.74,1.02c-62.56,44.68-36.85,189.35,10.79,231.62c11.66,10.35,30.69,9.87,46.76-10.45
		c13.86-17.53,25.55-50.53,53.85-78.82C472.28,189.34,493.92,204.82,544.28,152.71L544.28,152.71z"/>
	<path class="st87" d="M936.72,176.63c-18.1-20.36-67.36-55.85-68.71-76.46c-0.71-10.94,6.74-17.62,30.91-19.76
		c32.33-2.87,46.8,14.16,68.75,10.5c18.41-3.07,47.55-19.38,80.53-9.38c51.56,15.63,64.91,66.85,60.67,120.1
		c-1.96,24.61-14.68,46.81-17.01,64.5c-4.13,31.35,6.87,42.6,2.89,53.04c-4.36,11.45-40.75,3.62-58.2-9.67
		C967.83,257.16,983.43,229.18,936.72,176.63L936.72,176.63z"/>
	<path class="st87" d="M640.62,420.47c9.96-34.56,2.27-64.78-16.62-90.66c-14.66-20.09-56.64-28.68-78.51-24.78
		c-32.35,5.77-42.57,24.19-63.64,41.54c-11.15,9.18-30.21,21.2-40.1,32.24c-31.13,34.75-44.37,86.87-22.08,109.16
		c22.56,22.57,34.12,14.63,52.69,23.91c39.96,19.98,72.7-7.13,102.38-27.16c13.3-8.98,29.5-16.18,40.74-27.16
		C623.06,450.15,637.85,430.1,640.62,420.47L640.62,420.47z"/>
	<path class="st87" d="M953.2,309.28c-26.88-16-69.5-23.51-92.11-18.55c-32.28,7.08-45.42,27.55-54.97,39.49
		c-11.27,14.1-22.15,27.63-23.79,46.93c-1.76,20.7,7.93,25.05,16.87,44.67c12.26,26.89,19.55,37.41,59.95,51.34
		c31.63,10.91,59.75,12.64,91.81,10.92c31.94-1.72,54.89-8.05,69.52-40.03c7.07-15.46,7.01-46.24,1.91-57.32
		C1003.16,344.91,980.08,325.27,953.2,309.28L953.2,309.28z"/>
	<path class="st87" d="M447.13,294.03c7.66-21.78,21.4-36.99,56.08-46.84c10.5-2.98,27.54-12.7,47.61-14.22
		c25.95-1.98,44.16,7.08,48.03,23.55c3.41,14.51-5.16,26.47-13.63,32.71c-16.86,12.42-57.06,0.24-76.62,7.51
		c-14.4,5.35-29.96,17.37-45.9,20.77C453.51,319.47,443.21,305.16,447.13,294.03L447.13,294.03z"/>
	<path class="st87" d="M942.45,246.9c-18.09-8.02-38.1-17.76-68.83-14.98c-19.75,1.79-33.01,13.11-31.07,30.9
		c1.17,10.74,13.88,18.66,29.79,15.77c14.8-2.69,29.72-0.41,34.77,0.03c9.11,0.81,27.93,9.09,45.14,13.9
		c14.74,4.13,24.25,3.56,24.83-4.34c0.64-8.69-4.12-16.02-9.26-22.15C962.05,259.16,953.67,251.88,942.45,246.9L942.45,246.9z"/>
	<path class="st87" d="M651.29,444.76c19.22-12.46,37.44-22.98,63.99-21.9c14.78,0.6,33.04,10.47,49.47,15.58
		c12.84,3.99,24.71,5.06,33.72-0.49c2.41-1.48,3.17-4.65,1.68-7.06c-1.48-2.41-4.65-3.17-7.06-1.68c-6.76,4.16-15.66,2.42-25.3-0.57
		c-17.28-5.37-36.57-15.4-52.1-16.03c-28.99-1.18-49.01,9.95-69.99,23.55c-2.38,1.54-3.06,4.72-1.52,7.1
		C645.74,445.62,648.92,446.3,651.29,444.76L651.29,444.76z"/>
	<path class="st87" d="M667.11,414.28c23.8-17.82,42.78-12.99,59.46-8.69c13.11,3.38,25.05,6.19,36.67,1.27
		c2.61-1.11,3.83-4.12,2.72-6.73c-1.1-2.61-4.12-3.83-6.73-2.72c-9.55,4.05-19.33,1.02-30.1-1.76
		c-19.14-4.93-40.87-10.04-68.18,10.42c-2.27,1.7-2.73,4.92-1.03,7.19C661.62,415.52,664.84,415.98,667.11,414.28L667.11,414.28z"/>
	<path class="st87" d="M807.74,221.11c-14.42,0.62-25.76,6.43-33.09,15.54c-7.28,9.05-10.66,21.48-8.8,35.76
		c7.53,57.9-7.8,78.74-19.93,107.97c-1.08,2.62,0.16,5.62,2.78,6.71c2.62,1.09,5.62-0.16,6.71-2.78
		c12.71-30.65,28.51-52.54,20.62-113.23c-1.45-11.16,0.94-20.93,6.62-28c5.64-7.01,14.46-11.24,25.54-11.72
		c2.83-0.12,5.03-2.52,4.91-5.35C812.97,223.19,810.57,220.99,807.74,221.11L807.74,221.11z"/>
	<path class="st87" d="M725.61,236.1c-9.15,16.65-8.24,29.39-5.13,43.01c2.77,12.1,7.49,24.96,6.88,42.82
		c-0.23,6.7-2.61,15.35-4.39,25.16c-1.92,10.65-3.18,22.56-0.97,34.84c0.5,2.79,3.17,4.64,5.96,4.14c2.79-0.5,4.64-3.17,4.14-5.96
		c-2.38-13.28-0.13-26.07,2.09-37.01c1.62-7.99,3.22-15.09,3.42-20.84c0.65-18.95-4.2-32.62-7.13-45.46
		c-2.59-11.33-3.49-21.94,4.12-35.78c1.36-2.48,0.46-5.6-2.02-6.97C730.1,232.71,726.98,233.62,725.61,236.1L725.61,236.1z"/>
	<path class="st87" d="M620.95,254.94c5.68,1.8,11.33,2.31,16.78,3.54c6.75,1.53,13.06,4.52,18.48,14.68
		c2.76,5.18,4.62,13.13,6.43,22.3c2.92,14.81,5.52,32.62,10.2,47.97c5.74,18.83,14.95,33.82,30.12,37.62
		c2.75,0.69,5.54-0.99,6.22-3.73c0.69-2.75-0.99-5.54-3.73-6.22c-12.02-3.01-18.24-15.73-22.79-30.65
		c-4.58-15.02-7.09-32.47-9.95-46.96c-2.04-10.36-4.33-19.3-7.44-25.14c-7.37-13.84-16.07-17.79-25.27-19.87
		c-5.18-1.17-10.56-1.6-15.94-3.31c-2.7-0.86-5.59,0.64-6.44,3.34C616.75,251.19,618.25,254.08,620.95,254.94L620.95,254.94z"/>
	<path class="st87" d="M695.45,267.2c-5.12,17.04-1.66,30.52,2.3,43.41c3.42,11.13,7.4,21.73,4.21,34.45
		c-0.69,2.75,0.98,5.54,3.73,6.23c2.75,0.69,5.54-0.99,6.22-3.73c3.69-14.73-0.39-27.07-4.36-39.96
		c-3.42-11.12-6.7-22.73-2.28-37.44c0.81-2.71-0.73-5.58-3.44-6.39C699.13,262.94,696.26,264.48,695.45,267.2L695.45,267.2z"/>
	<path class="st87" d="M645.1,318.33c2.82,2.1,5.7,6.6,8.08,12.36c3.9,9.46,6.21,22.3,3.69,35.13c-0.55,2.78,1.27,5.48,4.05,6.03
		c2.78,0.55,5.48-1.27,6.03-4.05c2.95-14.98,0.29-29.98-4.27-41.03c-3.26-7.91-7.58-13.82-11.45-16.69
		c-2.27-1.69-5.49-1.21-7.18,1.06C642.35,313.42,642.83,316.64,645.1,318.33L645.1,318.33z"/>
	<path class="st87" d="M846.67,474.7c-40.04-9.02-55.09-31.36-118.66-30.91c-74.44,0.53-102.09,40.83-148.62,62.37
		c-54.64,25.3-70.54,27.05-102.45,98.39c-16.62,37.17-23.26,124.77,17.15,160.08c44.67,39.02,200.83,72.83,250.89,74.06
		c122.57,3.02,240.79-60.93,262.99-160.76c12.35-55.54-2.76-115.16-39.33-149.08C929.59,492.67,892.61,485.05,846.67,474.7
		L846.67,474.7z"/>
	<path class="st82" d="M495.17,766.06c29.66,34.57,80.5,50.02,124.72,48.11c30.07-1.3,56.98-10.68,72.51-26.85
		c21.45-22.33,35.69-54.39,44.7-88.48c13.29-50.24,15.32-104.84,13.5-137.86c-0.19-3.39-3.09-6-6.49-5.81
		c-3.4,0.19-6,3.09-5.81,6.49c1.77,32.1-0.18,85.18-13.11,134.03c-8.46,31.97-21.57,62.16-41.68,83.1
		c-13.69,14.26-37.64,21.94-64.16,23.08c-40.66,1.75-87.57-12.04-114.84-43.83c-2.22-2.58-6.11-2.88-8.69-0.66
		C493.26,759.59,492.96,763.48,495.17,766.06L495.17,766.06z"/>
	<path class="st82" d="M741.2,554.26c0.94,31.47-2.61,80.91,6.1,128.48c8.99,49.1,30.92,96.1,82.69,120.88
		c42.9,20.54,96.69,2.88,128.2-34.43c2.19-2.6,1.87-6.48-0.73-8.68c-2.6-2.19-6.49-1.87-8.68,0.73
		c-27.94,33.07-75.44,49.47-113.48,31.26c-47.81-22.89-67.59-66.63-75.89-111.98c-8.58-46.88-4.98-95.61-5.9-126.63
		c-0.1-3.4-2.94-6.07-6.34-5.97C743.77,548.02,741.1,550.86,741.2,554.26L741.2,554.26z"/>
	<path class="st82" d="M789.71,531.06c0.22-14.03-29.17-21.51-44.45-20.97c-15.29,0.54-45.49,4.88-47.27,24.21
		c-1.42,15.43,22.43,41.01,46.2,40.75C770.19,574.76,789.35,554.06,789.71,531.06L789.71,531.06z"/>
	<path class="st82" d="M626.38,495.2c18.44,4.2,30.31-0.27,41.06-5.84c9.51-4.93,17.99-10.98,30.38-11.06
		c15.43-0.1,21.7,2.53,28.43,4.96c4.97,1.8,10.17,3.49,18.75,4.15c10.25,0.78,17.22-0.89,24.09-2.43
		c6.11-1.37,12.13-2.61,20.88-1.29c13.66,2.07,21.47,7.74,29.8,13.08c9.22,5.91,18.98,11.51,36.24,12.67
		c2.17,0.15,4.05-1.5,4.2-3.67c0.15-2.17-1.5-4.05-3.67-4.2c-15.5-1.04-24.24-6.14-32.52-11.44c-9.17-5.88-17.84-11.96-32.88-14.23
		c-9.96-1.51-16.82-0.16-23.78,1.39c-6.21,1.39-12.51,2.97-21.77,2.26c-9.64-0.74-14.53-2.98-20.23-4.99
		c-6.28-2.22-13.44-4.23-27.6-4.14c-11.2,0.07-19.65,4.23-28.07,8.79c-11.09,6-22.16,12.72-41.57,8.3
		c-2.12-0.48-4.24,0.85-4.72,2.97C622.93,492.6,624.26,494.72,626.38,495.2L626.38,495.2z"/>
	<path class="st82" d="M697.78,507.53c16-11.87,30.29-10.65,44.54-7.65c15.85,3.34,31.7,8.63,49.45,3.98
		c2.1-0.55,3.36-2.71,2.81-4.81c-0.55-2.1-2.71-3.36-4.81-2.81c-16.46,4.31-31.13-0.96-45.82-4.06
		c-16.29-3.44-32.57-4.55-50.86,9.03c-1.75,1.3-2.11,3.77-0.82,5.51C693.56,508.46,696.03,508.82,697.78,507.53L697.78,507.53z"/>
	<path class="st82" d="M815.01,529.93c13.88,6.23,21.61,12.06,26.03,17.91c4.24,5.61,5.29,11.17,6.18,16.82
		c1.41,8.96,2.44,18.11,10.92,28.13c15.13,17.87,30.25,22.78,50.56,34.22c1.89,1.07,4.3,0.4,5.37-1.5c1.07-1.9,0.4-4.3-1.5-5.37
		c-19.39-10.93-33.97-15.38-48.42-32.45c-7.29-8.61-7.94-16.56-9.15-24.27c-1.08-6.85-2.53-13.53-7.68-20.34
		c-4.96-6.57-13.49-13.35-29.09-20.35c-1.98-0.89-4.32,0-5.21,1.98C812.14,526.7,813.03,529.04,815.01,529.93L815.01,529.93z"/>
	<path class="st82" d="M646.07,520.4c-25.05,10.9-38.77,23.35-46.72,36.76c-7.93,13.37-10.13,27.78-11.81,42.92
		c-3.14,28.29-4.55,59.29-44.81,90.14c-1.73,1.32-2.06,3.8-0.73,5.53c1.32,1.73,3.8,2.06,5.53,0.73
		c42.73-32.74,44.52-65.5,47.85-95.53c1.56-14.02,3.42-27.4,10.75-39.77c7.31-12.32,20.07-23.54,43.09-33.55
		c1.99-0.87,2.91-3.19,2.04-5.19C650.39,520.45,648.07,519.53,646.07,520.4L646.07,520.4z"/>
	<path class="st82" d="M634.17,598c-12.16,18.1-13.28,39.72-14.46,59.51c-0.55,9.29-1.14,18.15-3.15,25.92
		c-1.85,7.15-4.91,13.36-10.57,17.94c-1.69,1.37-1.95,3.85-0.58,5.54c1.37,1.69,3.85,1.95,5.54,0.58
		c10.93-8.86,14.37-22.47,15.81-38.18c1.95-21.23,0.24-46.51,13.95-66.93c1.21-1.81,0.73-4.26-1.08-5.47
		C637.84,595.71,635.38,596.2,634.17,598L634.17,598z"/>
	<path class="st82" d="M818.37,585.88c-0.93,24.17,8.43,33.99,22.29,44.2c12.55,9.23,29.16,18.79,44.4,42.17
		c3.35,5.14,4.84,12.02,5.83,19.51c1.07,8.12,1.48,16.93,2.5,25.26c2.26,18.49,7.79,34.48,26.63,38.47
		c2.13,0.45,4.22-0.91,4.67-3.04c0.45-2.13-0.91-4.22-3.04-4.67c-15.19-3.21-18.61-16.81-20.43-31.71
		c-1.24-10.08-1.6-20.86-3.26-30.29c-1.21-6.81-3.1-12.96-6.28-17.83c-15.94-24.45-33.21-34.56-46.33-44.22
		c-11.8-8.69-19.88-16.98-19.09-37.55c0.08-2.17-1.61-4.01-3.79-4.09C820.28,582,818.45,583.7,818.37,585.88L818.37,585.88z"/>
	<path class="st82" d="M923.56,634.61c16.3,15.57,12.57,27.2,11.83,38.48c-0.6,9.14,0.3,18.12,10.82,28.3
		c1.56,1.51,4.06,1.47,5.57-0.09c1.51-1.56,1.47-4.06-0.09-5.57c-10.5-10.15-8.75-18.89-7.91-28.17
		c1.02-11.29,1.25-23.33-14.78-38.65c-1.57-1.5-4.07-1.45-5.57,0.13C921.93,630.61,921.98,633.11,923.56,634.61L923.56,634.61z"/>
	<path class="st81" d="M549.81,377.46c25.83,0,46.8,21.47,46.8,47.92c0,26.45-20.97,47.92-46.8,47.92
		c-25.83,0-46.8-21.47-46.8-47.92C503.01,398.93,523.98,377.46,549.81,377.46L549.81,377.46z"/>
	<path class="st81" d="M887.08,362.91c-25.83,0-46.8,21.47-46.8,47.92c0,26.45,20.97,47.92,46.8,47.92
		c25.83,0,46.8-21.47,46.8-47.92C933.88,384.38,912.91,362.91,887.08,362.91L887.08,362.91z"/>
	<path class="st82" d="M555.45,397.06c15.9,0,28.81,13.22,28.81,29.5c0,16.28-12.91,29.5-28.81,29.5c-15.9,0-28.81-13.22-28.81-29.5
		C526.64,410.28,539.55,397.06,555.45,397.06L555.45,397.06z"/>
	<path class="st82" d="M881.44,382.51c-15.9,0-28.81,13.22-28.81,29.5c0,16.28,12.91,29.5,28.81,29.5c15.9,0,28.81-13.22,28.81-29.5
		C910.25,395.73,897.34,382.51,881.44,382.51L881.44,382.51z"/>
	<path class="st87" d="M784.69,1143.34c15.74,129.15,29.88,361.32,15.17,506.22c-0.34,3.38,2.12,6.41,5.5,6.75
		c3.38,0.34,6.41-2.12,6.75-5.51c14.79-145.68,0.63-379.1-15.2-508.95c-0.41-3.38-3.49-5.78-6.86-5.37
		C786.68,1136.89,784.28,1139.97,784.69,1143.34L784.69,1143.34z"/>
	<path class="st87" d="M1107.86,1301.35c-17.5,18.72-38.06,56.22-58.36,103.04c-46.79,107.91-92.78,265.62-99.54,352.74
		c-0.26,3.39,2.27,6.35,5.66,6.62c3.39,0.26,6.35-2.27,6.62-5.66c6.69-86.15,52.29-242.08,98.56-348.8
		c19.58-45.16,39.18-81.47,56.06-99.53c2.32-2.48,2.19-6.38-0.29-8.7C1114.09,1298.73,1110.18,1298.86,1107.86,1301.35
		L1107.86,1301.35z"/>
	<path class="st87" d="M1199.55,1762.08c-2.66-0.01-6.41-0.07-10.04-0.3c-19.74-1.24-53.24-4.08-83.25,0.9
		c-30.61,5.07-57.38,18.41-65.24,47.58c-0.89,3.28,1.06,6.67,4.34,7.55c3.28,0.88,6.66-1.06,7.55-4.34
		c6.57-24.39,29.77-34.39,55.36-38.63c29.01-4.81,61.39-1.95,80.47-0.76c9.71,0.61,16.52,0.44,18.87-0.51
		c1.87-0.76,3.66-2.3,4.38-5.33c0.42-1.77,0.35-5.06-0.61-9.55c-3.96-18.57-22.46-66.04-36.31-105.6
		c-17.17-49.03-30.73-117.91-9.67-198.63c11.98-45.93,50.43-92.36,98.59-122.94c47.93-30.42,105.64-45.23,156.87-27.29
		c3.21,1.12,6.73-0.57,7.85-3.78c1.12-3.21-0.57-6.72-3.78-7.85c-54.69-19.15-116.39-3.95-167.55,28.52
		c-50.92,32.32-91.24,81.67-103.91,130.23c-21.82,83.65-7.83,155.01,9.97,205.81c10.81,30.88,24.51,66.61,31.76,89.39
		C1197.27,1753.05,1198.85,1758.39,1199.55,1762.08L1199.55,1762.08z"/>
	<path class="st87" d="M1128.95,1798.8c-22.73-5.38-48.3,2.2-63.11,20.64c-9.86,12.27-15.1,29.37-11.35,50.8
		c0.59,3.35,3.78,5.59,7.13,5c3.35-0.59,5.59-3.78,5.01-7.13c-3.02-17.25,0.89-31.08,8.83-40.96
		c11.88-14.79,32.43-20.68,50.67-16.36c3.31,0.78,6.63-1.27,7.41-4.57C1134.31,1802.91,1132.26,1799.59,1128.95,1798.8
		L1128.95,1798.8z"/>
	<path class="st87" d="M1158.71,1823.06c-20.01-3.39-37.51,5.6-49.44,20.15c-11.58,14.13-17.77,33.48-15.85,51.05
		c0.37,3.38,3.41,5.82,6.79,5.45c3.38-0.37,5.82-3.41,5.45-6.79c-1.58-14.43,3.62-30.29,13.13-41.9
		c9.17-11.18,22.49-18.42,37.86-15.82c3.35,0.57,6.53-1.69,7.1-5.04C1164.33,1826.8,1162.07,1823.62,1158.71,1823.06
		L1158.71,1823.06z"/>
	<path class="st87" d="M771.5,1797.27c-17.2-6.09-33.34-0.68-45.73,10.95c-17.58,16.5-27.22,45.85-20.78,69.89
		c0.88,3.28,4.26,5.23,7.54,4.35c3.28-0.88,5.24-4.26,4.35-7.54c-5.32-19.87,2.78-44.09,17.31-57.73
		c9.02-8.46,20.68-12.75,33.2-8.32c3.2,1.13,6.73-0.55,7.86-3.75C776.39,1801.93,774.71,1798.41,771.5,1797.27L771.5,1797.27z"/>
	<path class="st87" d="M816.23,1823.01c-41-5.37-67.76,43.76-45.71,84.25c1.63,2.99,5.37,4.09,8.35,2.46
		c2.99-1.63,4.09-5.37,2.46-8.36c-17.04-31.28,1.61-70.29,33.29-66.14c3.37,0.44,6.46-1.94,6.91-5.31
		C821.97,1826.55,819.6,1823.45,816.23,1823.01L816.23,1823.01z"/>
	<path class="st87" d="M406.49,1696.6c-17.17-4.64-32.03,2.14-42.05,15.12c-13.96,18.09-18.1,48.81-4.44,74.81
		c1.58,3.01,5.31,4.17,8.32,2.59c3.01-1.58,4.17-5.31,2.59-8.32c-11.24-21.39-8.19-46.67,3.29-61.55
		c6.95-9.01,17.16-13.97,29.08-10.75c3.28,0.89,6.67-1.06,7.55-4.34C411.72,1700.87,409.77,1697.48,406.49,1696.6L406.49,1696.6z"/>
	<path class="st87" d="M451.08,1720.16c-13.38-1.96-26.01,4.8-34.7,16.75c-12.06,16.58-16.36,43.25-3.82,66.83
		c1.6,3,5.33,4.14,8.33,2.55c3-1.6,4.14-5.33,2.55-8.33c-10.09-18.99-6.8-40.46,2.91-53.81c5.82-8.01,13.99-13.12,22.95-11.8
		c3.37,0.49,6.49-1.84,6.99-5.2C456.78,1723.79,454.45,1720.66,451.08,1720.16L451.08,1720.16z"/>
	<path class="st87" d="M522.18,1435.3c47.61,63,163.92,128.54,285.82,177.65c3.15,1.27,6.74-0.26,8.01-3.41
		c1.27-3.15-0.26-6.74-3.41-8.01c-119.53-48.16-233.91-111.88-280.6-173.65c-2.05-2.71-5.91-3.25-8.63-1.2
		C520.67,1428.72,520.13,1432.59,522.18,1435.3L522.18,1435.3z"/>
	<path class="st87" d="M300.53,979.03c2.09-10.48,5.56-16.76,10.52-20.18c7.75-5.35,18.32-3.83,29.94-2.35
		c23.27,2.97,49.99,6.95,71-19.36c1.77-2.21,1.41-5.44-0.81-7.21c-2.21-1.77-5.44-1.41-7.21,0.81
		c-18.16,22.75-41.56,18.15-61.68,15.58c-14.42-1.84-27.45-2.55-37.07,4.09c-6.62,4.57-11.95,12.6-14.75,26.62
		c-0.55,2.78,1.25,5.48,4.03,6.04C297.27,983.62,299.98,981.81,300.53,979.03L300.53,979.03z"/>
	<path class="st87" d="M299.33,1078.48c14.43,11.18,26.76,9.08,40.15,2.22c16.77-8.61,35.4-26.03,64.99-26.37
		c2.83-0.03,5.11-2.36,5.07-5.19c-0.03-2.83-2.36-5.11-5.19-5.07c-26.58,0.3-45.12,12.97-61,22.62
		c-13.21,8.03-24.21,14.15-37.73,3.68c-2.24-1.73-5.47-1.32-7.2,0.91C296.68,1073.52,297.09,1076.75,299.33,1078.48L299.33,1078.48z
		"/>
	<path class="st87" d="M269.72,403.56c0.31,5.96,3.99,11.46,9.97,15.49c7.68,5.17,19.22,7.93,29.89,6.32
		c5.88-0.88,12.75-3.08,20.5-5.02c10.65-2.67,23.13-4.87,37.17-1.5c2.76,0.66,5.53-1.03,6.19-3.79c0.66-2.76-1.03-5.53-3.79-6.19
		c-25.75-6.2-46.76,4.12-61.59,6.35c-8.07,1.21-16.83-0.77-22.64-4.68c-3.01-2.03-5.3-4.51-5.45-7.51c-0.15-2.83-2.56-5-5.39-4.86
		C271.75,398.32,269.57,400.73,269.72,403.56L269.72,403.56z"/>
	<path class="st87" d="M292.78,490.17c9.17-5.42,19.14-3.23,29.07-1.03c12.26,2.72,24.51,5.57,35.72,0.95
		c2.62-1.08,3.87-4.08,2.79-6.7c-1.08-2.62-4.08-3.87-6.7-2.79c-9.29,3.83-19.42,0.77-29.58-1.48c-12.49-2.77-24.99-4.6-36.52,2.21
		c-2.44,1.44-3.25,4.59-1.81,7.03C287.19,490.8,290.34,491.61,292.78,490.17L292.78,490.17z"/>
	<path class="st87" d="M257.35,530.09c0.61,6.26,4.3,11.54,10.74,15.11c7.92,4.39,20.54,6.13,35.94,3.44
		c15.95-2.79,24.66-0.35,33.43,1.5c6.68,1.41,13.38,2.52,22.59,1.45c2.81-0.33,4.83-2.88,4.51-5.69c-0.33-2.81-2.88-4.83-5.69-4.51
		c-9.98,1.16-16.57-0.75-23.96-2.29c-8.39-1.76-17.69-3.19-32.65-0.57c-10.56,1.85-19.54,1.43-26.02-0.89
		c-4.92-1.76-8.29-4.53-8.68-8.54c-0.27-2.82-2.79-4.88-5.6-4.61C259.14,524.76,257.07,527.27,257.35,530.09L257.35,530.09z"/>
	<path class="st87" d="M1068.26,379.71c-1.68,13.24,0.8,23.06,5.75,30.7c7.15,11.03,19.82,17.52,33.84,22.83
		c10.62,4.02,21.99,7.43,31.75,12.28c8.77,4.36,16.23,9.86,19.99,18.61c1.12,2.6,4.14,3.81,6.74,2.69c2.6-1.12,3.81-4.14,2.69-6.74
		c-4.73-11-13.81-18.25-24.85-23.74c-10.05-5-21.75-8.55-32.69-12.69c-11.84-4.48-22.83-9.51-28.86-18.81
		c-3.83-5.92-5.49-13.57-4.18-23.82c0.36-2.81-1.64-5.38-4.45-5.74C1071.19,374.91,1068.62,376.9,1068.26,379.71L1068.26,379.71z"/>
	<path class="st87" d="M1073.33,505.92c-0.54,9.96,1.43,17.26,4.92,22.97c5.07,8.29,13.57,13.27,23.47,17.88
		c14,6.53,31.09,12.45,41.61,31.4c1.38,2.48,4.5,3.37,6.98,1.99c2.48-1.38,3.37-4.5,2-6.98c-11.8-21.24-30.56-28.39-46.25-35.71
		c-7.92-3.7-15-7.31-19.05-13.94c-2.59-4.23-3.82-9.68-3.43-17.06c0.15-2.83-2.02-5.25-4.85-5.4
		C1075.91,500.92,1073.49,503.09,1073.33,505.92L1073.33,505.92z"/>
	<path class="st87" d="M1084.5,619.28c1.68,14.74,11.87,21.41,23.54,27.96c9.19,5.16,19.42,10.28,23.92,22.74
		c0.96,2.66,3.91,4.05,6.57,3.08c2.66-0.96,4.05-3.91,3.08-6.57c-5.47-15.15-17.37-21.94-28.55-28.21
		c-8.71-4.89-17.11-9.17-18.36-20.17c-0.32-2.81-2.87-4.84-5.68-4.52C1086.21,613.92,1084.18,616.47,1084.5,619.28L1084.5,619.28z"
		/>
	<path class="st87" d="M999.68,919.05c37.92,16.66,67.68,3.96,102.94-11.42c33.17-14.47,71.54-31.12,128.11-23.74
		c2.81,0.37,5.39-1.62,5.75-4.42c0.37-2.81-1.62-5.39-4.42-5.75c-58.95-7.7-98.98,9.43-133.54,24.51
		c-32.48,14.17-59.78,26.78-94.71,11.43c-2.59-1.14-5.62,0.04-6.76,2.64C995.9,914.88,997.08,917.91,999.68,919.05L999.68,919.05z"
		/>
	<path class="st87" d="M1146.74,997.59c37.05,7.49,62.55-0.7,87.07-12.02c23.21-10.72,45.46-24.43,76.85-28.95
		c2.8-0.4,4.75-3.01,4.35-5.81c-0.4-2.8-3.01-4.75-5.81-4.35c-32.52,4.68-55.64,18.69-79.69,29.79
		c-22.74,10.5-46.37,18.22-80.73,11.27c-2.78-0.56-5.49,1.24-6.05,4.01C1142.17,994.32,1143.97,997.03,1146.74,997.59
		L1146.74,997.59z"/>
	<path class="st87" d="M1243.72,1048.06c19.9,16.05,41.92,11.4,63.71,1.83c19.39-8.52,38.46-21.11,55.25-22.18
		c2.83-0.18,4.97-2.62,4.8-5.45c-0.18-2.83-2.62-4.98-5.45-4.8c-17.78,1.13-38.18,14-58.73,23.03
		c-18.16,7.98-36.55,12.96-53.13-0.42c-2.2-1.78-5.44-1.43-7.22,0.77C1241.17,1043.05,1241.52,1046.28,1243.72,1048.06
		L1243.72,1048.06z"/>
	<path class="st87" d="M1275.92,1129.53c35.12,22.73,65.07,19.32,99.9,12.1c32.98-6.84,70.55-17.13,122.18-9.03
		c2.8,0.44,5.43-1.48,5.86-4.28c0.44-2.8-1.48-5.43-4.28-5.86c-53.17-8.33-91.88,2.08-125.85,9.12
		c-32.13,6.66-59.83,10.31-92.23-10.66c-2.38-1.54-5.56-0.86-7.1,1.52C1272.86,1124.81,1273.55,1127.99,1275.92,1129.53
		L1275.92,1129.53z"/>
	<path class="st87" d="M1410.2,1162.83c34.82-3.5,73.87-8.26,102.55,14.9c2.2,1.78,5.44,1.44,7.22-0.77
		c1.78-2.2,1.43-5.44-0.77-7.22c-30.82-24.88-72.6-20.88-110.02-17.12c-2.82,0.28-4.88,2.8-4.59,5.62
		C1404.87,1161.06,1407.39,1163.11,1410.2,1162.83L1410.2,1162.83z"/>
	<path class="st86" d="M1668.75,1506.72c98.73,37.84,157.64-18.93,190.9-74.12c40.65-67.45,27.02-155.81-32.02-167.99
		c-41.54-8.57-71.5,14.56-73.28,43.43c-1.78,28.83,27.01,37.27,29.32,57.89c1.81,16.11-15.63,22.85-34.96,15.87
		c-20.1-7.26-34.15-19.05-41.45-31.63c-29.56-50.85-7.46-114.75,39.84-143.78c39.74-24.39,94.26-29.27,140.31,0.9
		c120.21,78.75,65.06,273.28-29.52,343.38c-36.23,26.85-134.16,68.79-187.25,33.38C1653.65,1572.71,1668.75,1506.72,1668.75,1506.72
		L1668.75,1506.72z"/>
	<path class="st87" d="M366.12,1270.97c39.68,1.16,78.8-25.83,100.28-43.79c2.17-1.82,2.46-5.06,0.64-7.23
		c-1.82-2.17-5.06-2.46-7.23-0.64c-20.05,16.77-56.35,42.49-93.39,41.4c-2.83-0.08-5.2,2.15-5.28,4.98
		C361.06,1268.52,363.29,1270.89,366.12,1270.97L366.12,1270.97z"/>
	<path class="st87" d="M417.35,1346.96c0.67-5.81,2.49-9.84,5.32-12.56c4.52-4.34,11.23-5.39,18.41-5.9c8.58-0.61,17.85-0.24,26-1.4
		c6.27-0.9,11.91-2.7,16.4-6.07c2.27-1.7,2.73-4.92,1.03-7.19c-1.7-2.27-4.92-2.73-7.18-1.03c-4.08,3.06-9.58,4.04-15.5,4.54
		c-6.94,0.59-14.43,0.4-21.47,0.9c-9.76,0.7-18.63,2.83-24.78,8.73c-4.28,4.1-7.4,10.02-8.42,18.78c-0.33,2.81,1.69,5.36,4.51,5.69
		C414.47,1351.79,417.02,1349.77,417.35,1346.96L417.35,1346.96z"/>
	<path class="st87" d="M691.72,1011.71c-19.83,37.94-15.31,58.25-8.38,76.88c6.22,16.73,15.02,31.94,6.6,60.05
		c-0.81,2.71,0.73,5.58,3.44,6.39c2.71,0.81,5.58-0.73,6.39-3.44c7.54-25.18,2.96-41.14-2.76-56.11
		c-7.66-20.06-17.56-38.12,3.81-79.02c1.31-2.51,0.34-5.61-2.17-6.92S693.03,1009.2,691.72,1011.71L691.72,1011.71z"/>
	<path class="st87" d="M606.62,1062.62c1.79,31.08-12.43,58.13-21.24,83.69c-9.63,27.92-13.24,54.13,11.42,81.41
		c1.9,2.1,5.15,2.27,7.25,0.37c2.1-1.9,2.27-5.15,0.37-7.25c-21.53-23.82-17.74-46.8-9.33-71.18c9.22-26.74,23.66-55.12,21.78-87.63
		c-0.16-2.83-2.59-4.99-5.42-4.83C608.62,1057.37,606.46,1059.79,606.62,1062.62L606.62,1062.62z"/>
	<path class="st87" d="M683,1232.17c-10.31,34.08-4.21,51.75,2.92,68.54c6.43,15.15,13.96,29.48,8.54,57.03
		c-0.55,2.78,1.26,5.48,4.04,6.03c2.78,0.55,5.48-1.26,6.03-4.04c5.99-30.43-2.06-46.3-9.16-63.02c-6.4-15.08-11.8-30.96-2.54-61.56
		c0.82-2.71-0.71-5.58-3.42-6.4C686.69,1227.92,683.82,1229.46,683,1232.17L683,1232.17z"/>
</g>
</svg>
