<?xml version="1.0" encoding="utf-8"?>
<!-- Generator: Adobe Illustrator 26.4.1, SVG Export Plug-In . SVG Version: 6.00 Build 0)  -->
<svg version="1.1" id="Layer_1" xmlns="http://www.w3.org/2000/svg" xmlns:xlink="http://www.w3.org/1999/xlink" x="0px" y="0px"
	 viewBox="0 0 2000 2000" style="enable-background:new 0 0 2000 2000;" xml:space="preserve">
<style type="text/css">
	.st0{fill-rule:evenodd;clip-rule:evenodd;fill:#145468;}
	.st1{fill-rule:evenodd;clip-rule:evenodd;fill:#3B7A7A;}
	.st2{fill-rule:evenodd;clip-rule:evenodd;fill:#098B8D;}
	.st3{fill-rule:evenodd;clip-rule:evenodd;fill:#689595;}
	.st4{fill-rule:evenodd;clip-rule:evenodd;fill:#679595;}
	.st5{fill-rule:evenodd;clip-rule:evenodd;fill:#CEE4E4;}
	
		.st6{fill-rule:evenodd;clip-rule:evenodd;fill:#145468;stroke:#CEE4E4;stroke-width:5;stroke-linecap:round;stroke-linejoin:round;stroke-miterlimit:10;}
	.st7{fill-rule:evenodd;clip-rule:evenodd;fill:#043A60;}
	.st8{fill-rule:evenodd;clip-rule:evenodd;fill:#FD9A65;}
	.st9{fill-rule:evenodd;clip-rule:evenodd;fill:#18658D;}
	.st10{fill-rule:evenodd;clip-rule:evenodd;fill:#9FCDE5;}
	.st11{fill-rule:evenodd;clip-rule:evenodd;fill:#56A8D3;}
	.st12{fill-rule:evenodd;clip-rule:evenodd;fill:#276383;}
	.st13{fill-rule:evenodd;clip-rule:evenodd;fill:#E0F0F8;}
	.st14{fill-rule:evenodd;clip-rule:evenodd;fill:#A51E1C;}
	.st15{fill-rule:evenodd;clip-rule:evenodd;fill:#CB442D;}
	.st16{fill-rule:evenodd;clip-rule:evenodd;fill:#DC5A44;}
	.st17{fill-rule:evenodd;clip-rule:evenodd;fill:#F7BD54;}
	.st18{fill-rule:evenodd;clip-rule:evenodd;fill:#E46B37;}
	.st19{fill-rule:evenodd;clip-rule:evenodd;fill:#B67227;}
	.st20{fill-rule:evenodd;clip-rule:evenodd;fill:#D78A35;}
	.st21{fill-rule:evenodd;clip-rule:evenodd;fill:#A4331F;}
	.st22{fill-rule:evenodd;clip-rule:evenodd;fill:#F2A550;}
	.st23{fill-rule:evenodd;clip-rule:evenodd;fill:#F9E9D6;}
	.st24{fill-rule:evenodd;clip-rule:evenodd;fill:#844013;}
	.st25{fill-rule:evenodd;clip-rule:evenodd;fill:#A04E18;}
	.st26{fill-rule:evenodd;clip-rule:evenodd;fill:#F8B872;}
	.st27{fill-rule:evenodd;clip-rule:evenodd;fill:#FFC689;}
	.st28{fill-rule:evenodd;clip-rule:evenodd;fill:#B6844D;}
	.st29{fill-rule:evenodd;clip-rule:evenodd;fill:#CA5320;}
	.st30{fill-rule:evenodd;clip-rule:evenodd;fill:#D76332;}
	.st31{fill-rule:evenodd;clip-rule:evenodd;fill:#812F0C;}
	.st32{fill-rule:evenodd;clip-rule:evenodd;fill:#8A460F;}
	.st33{fill-rule:evenodd;clip-rule:evenodd;fill:#B46914;}
	.st34{fill-rule:evenodd;clip-rule:evenodd;fill:#B54515;}
	.st35{fill-rule:evenodd;clip-rule:evenodd;fill:#FFCD71;}
	.st36{fill-rule:evenodd;clip-rule:evenodd;fill:#95B41D;}
	.st37{fill-rule:evenodd;clip-rule:evenodd;fill:#A8C731;}
	.st38{fill-rule:evenodd;clip-rule:evenodd;fill:#85A214;}
	.st39{fill-rule:evenodd;clip-rule:evenodd;fill:#C6EF28;}
	.st40{fill-rule:evenodd;clip-rule:evenodd;fill:#ED982B;}
	.st41{fill-rule:evenodd;clip-rule:evenodd;fill:#FCCF7C;}
	.st42{fill-rule:evenodd;clip-rule:evenodd;fill:#FFE8BC;}
	.st43{fill-rule:evenodd;clip-rule:evenodd;fill:#ED6961;}
	.st44{fill-rule:evenodd;clip-rule:evenodd;fill:#696E1E;}
	.st45{fill-rule:evenodd;clip-rule:evenodd;fill:#9CA42A;}
	.st46{fill-rule:evenodd;clip-rule:evenodd;fill:#7F8615;}
	.st47{fill-rule:evenodd;clip-rule:evenodd;fill:#FFEECF;}
	.st48{fill-rule:evenodd;clip-rule:evenodd;fill:#77786D;}
	.st49{fill-rule:evenodd;clip-rule:evenodd;fill:#D3D5C6;}
	.st50{fill-rule:evenodd;clip-rule:evenodd;fill:#7C7A7A;}
	.st51{fill-rule:evenodd;clip-rule:evenodd;fill:#DBDCD9;}
	.st52{fill-rule:evenodd;clip-rule:evenodd;fill:#CA372D;}
	.st53{fill-rule:evenodd;clip-rule:evenodd;fill:#FE7D75;}
	.st54{fill-rule:evenodd;clip-rule:evenodd;fill:#B0B0B0;}
	.st55{fill-rule:evenodd;clip-rule:evenodd;fill:#888787;}
	.st56{fill-rule:evenodd;clip-rule:evenodd;fill:#6E6E6E;}
	.st57{fill-rule:evenodd;clip-rule:evenodd;fill:#757575;}
	.st58{fill-rule:evenodd;clip-rule:evenodd;fill:#60341E;}
	.st59{fill-rule:evenodd;clip-rule:evenodd;fill:#B0451B;}
	.st60{fill-rule:evenodd;clip-rule:evenodd;fill:#8A4727;}
	.st61{fill-rule:evenodd;clip-rule:evenodd;fill:#FABB64;}
	.st62{fill-rule:evenodd;clip-rule:evenodd;fill:#3E88AF;}
	.st63{fill-rule:evenodd;clip-rule:evenodd;fill:#5BA0C5;}
	.st64{fill-rule:evenodd;clip-rule:evenodd;fill:#FFF1DE;}
	.st65{fill-rule:evenodd;clip-rule:evenodd;fill:#F8B89B;}
	.st66{fill-rule:evenodd;clip-rule:evenodd;fill:#E98A5F;}
	.st67{fill-rule:evenodd;clip-rule:evenodd;fill:#FFCAB3;}
	.st68{fill-rule:evenodd;clip-rule:evenodd;fill:#F9A580;}
	.st69{fill-rule:evenodd;clip-rule:evenodd;fill:#FFDFD2;}
	.st70{fill-rule:evenodd;clip-rule:evenodd;fill:#E2A85C;}
	.st71{fill-rule:evenodd;clip-rule:evenodd;fill:#C68446;}
	.st72{fill-rule:evenodd;clip-rule:evenodd;fill:#F2BC75;}
	.st73{fill-rule:evenodd;clip-rule:evenodd;fill:#F2BC76;}
	.st74{fill-rule:evenodd;clip-rule:evenodd;fill:#FFD69F;}
	.st75{fill-rule:evenodd;clip-rule:evenodd;fill:#E7624B;}
	.st76{fill-rule:evenodd;clip-rule:evenodd;fill:#FFEED9;}
	.st77{fill-rule:evenodd;clip-rule:evenodd;fill:#C26E11;}
	.st78{fill-rule:evenodd;clip-rule:evenodd;fill:#F39226;}
	.st79{fill-rule:evenodd;clip-rule:evenodd;fill:#DF5020;}
	.st80{fill-rule:evenodd;clip-rule:evenodd;fill:#2C140B;}
	.st81{fill-rule:evenodd;clip-rule:evenodd;fill:#FFFFFF;}
	.st82{fill-rule:evenodd;clip-rule:evenodd;}
	.st83{fill-rule:evenodd;clip-rule:evenodd;fill:#A96F3E;}
	.st84{fill-rule:evenodd;clip-rule:evenodd;fill:#683A15;}
	.st85{fill-rule:evenodd;clip-rule:evenodd;fill:#F0DCCB;}
	.st86{fill-rule:evenodd;clip-rule:evenodd;fill:#E6D1B6;}
	.st87{fill-rule:evenodd;clip-rule:evenodd;fill:#69553C;}
</style>
<g>
	<path class="st44" d="M1694.58,696.8c14.91,27.88-9.69,64.87-1.52,98.98c6.79,28.33,41.02,44.19,41.02,44.19
		s-17.49,24.71-16.73,48.84c1.18,37.54,38.93,54.58,38.93,54.58s-21.38,17.45-21.91,47.06c-0.65,36.22,21.09,49.89,21.09,49.89
		s-26.16,19.09-31.05,47.86c-3.96,23.3,5.35,46.28,24.7,53.98c36.88,14.7,105.69-110.28,113.01-139.43
		c18.58-73.99,0.7-182.96-60.84-268.94C1775.07,697.21,1682.31,673.85,1694.58,696.8L1694.58,696.8z"/>
	<path class="st44" d="M1419.46,604.18c-2.13,13.32,141.62,8.85,141.34,6.8c-1.95-14.5-11.26-59.84-28.58-62.43
		c-16.32-2.44-52.05-6.79-77.8-1.08C1446.53,549.22,1420.71,596.36,1419.46,604.18L1419.46,604.18z"/>
	<path class="st44" d="M1197.17,631.1c67.38-15.32,222.34-25.19,221.64-25.46c-11.96-4.7-47.2-38.72-126.52-57.17
		c-34.24-7.96-146.34-29.72-183.46-12.58c-36.13,16.69-67.06,126.82-64.67,132.72C1045.58,672.13,1160.28,639.49,1197.17,631.1
		L1197.17,631.1z"/>
	<path class="st45" d="M1885.17,905.05c-15.82-163.94-145.93-257.17-239.96-281.62c-106.59-27.72-482.37-37.03-645.57,56.18
		C824,779.92,786.46,919.4,807.39,1050.73c20.03,125.67,178.13,218.09,322.16,226.46c221.2,12.86,419.09-20.66,554.12-63.96
		C1796.82,1176.93,1899.53,1053.94,1885.17,905.05L1885.17,905.05z M1635.46,693.75c-82.67,8.67-136.43,92.12-151.71,217.1
		c-11.12,90.98,77.19,241.19,184.12,222.48c129.05-22.58,149.93-168.76,139.98-266.75C1800.15,790.83,1721.31,684.74,1635.46,693.75
		L1635.46,693.75z"/>
	<path class="st44" d="M1497.14,530.94c13.69-0.03,24.82,6.77,24.83,15.17c0.01,8.4-11.09,15.24-24.77,15.27
		c-13.69,0.03-24.82-6.77-24.83-15.17C1472.35,537.8,1483.45,530.96,1497.14,530.94L1497.14,530.94z"/>
	<path class="st45" d="M1116.14,623.52c-23.32,6.74-56.07,15.8-54.4,2.26c2.06-16.75,31.67-71.79,51.54-79.95
		c18.25-7.5,90.12,37.18,72.76,52.56C1176.13,607.16,1129.61,619.62,1116.14,623.52L1116.14,623.52z"/>
	<path class="st46" d="M1086.77,587.45c-109.31,35.84-247.59,49.95-367.84,130.99c-74.98,50.54-146.96,130.5-164.2,204.59
		c-32.89,141.29,36.19,204.23,42.3,212.61c6.11,8.38-26.29-88.02-5.65-162.35c27.61-99.45,81.28-167.76,181.33-223.8
		c137.29-76.9,279.43-110.07,389.4-151.23C1175.69,593.19,1110.88,579.55,1086.77,587.45L1086.77,587.45z"/>
	<path class="st41" d="M1498.32,653.99c13.08-28.74-193.93-26.27-326.92-0.87c-173.54,33.15-309.55,163.79-323.39,288.11
		c-17.91,160.88,157.72,283.1,355.4,289.83c134.53,4.58,328.34-7.81,310.31-41.76c-36.99-69.64-81.01-207.69-76.8-279.13
		C1443.68,795.32,1455.06,749.08,1498.32,653.99L1498.32,653.99z"/>
	<path class="st47" d="M1171.55,759.41c103.44-10.22,195.71,65.46,205.93,168.9c10.22,103.44-65.46,195.71-168.9,205.93
		c-103.44,10.22-195.71-65.46-205.93-168.9C992.43,861.9,1068.11,769.63,1171.55,759.41L1171.55,759.41z"/>
	<path class="st44" d="M1261.54,1009.51c7.38-35-40.91-89.02-75.69-86.2c-41.97,3.4-79.72,66.51-74.75,98.67
		c5.22,33.82,62.2,21.75,83.89,16.62C1217.76,1033.22,1253.11,1049.46,1261.54,1009.51L1261.54,1009.51z"/>
	<path class="st44" d="M1116.55,960.97c-16.02,5.84-40.55,6.65-51.35-10.07c-9.56-14.8,5.9-40.34,19.58-45.4
		c20.68-7.64,34.34,4.56,40.67,28.85C1128.86,947.44,1124.47,958.08,1116.55,960.97L1116.55,960.97z"/>
	<path class="st44" d="M1161.44,919.31c-16.42-4.61-36.81-18.26-35.83-38.14c0.87-17.6,28.32-29.32,42.39-25.45
		c21.25,5.86,25.23,23.74,16.2,47.16C1179.33,915.5,1169.55,921.59,1161.44,919.31L1161.44,919.31z"/>
	<path class="st44" d="M1216.15,916.12c-7.01-15.54-9.64-39.94,6.23-51.95c14.05-10.63,40.67,2.88,46.72,16.16
		c9.15,20.06-2,34.58-25.75,42.7C1230.56,927.4,1219.62,923.8,1216.15,916.12L1216.15,916.12z"/>
	<path class="st44" d="M1253.27,952.26c2.25-16.9,12.9-39.01,32.72-40.83c17.54-1.61,33.02,23.92,31.15,38.39
		c-2.82,21.87-19.96,28.32-44.42,22.67C1259.56,969.44,1252.16,960.61,1253.27,952.26L1253.27,952.26z"/>
	<path class="st48" d="M221.21,868.65c2.41,0.25,5.78-0.14,9.83-1.6c5.81-2.1,14.13-6.74,23.55-12.91
		c29.59-19.38,71.06-54.06,78.48-62.94c6.85-8.2,5.87-21.87-2.4-34.77c-5.85-9.13-14.93-17.89-24.3-23.03
		c-7.38-4.05-15.01-5.85-21.72-4.92c-7.45,1.04-18.59,6.15-30.76,13.71c-25.96,16.14-57.57,43.1-67.06,54.92
		c-13.51,16.83-9.35,34.82,1.01,48.82C197.57,859.05,212.97,867.8,221.21,868.65L221.21,868.65z M222.75,849.15
		c-5.09-0.84-13.43-7.07-19.2-14.86c-5.3-7.16-8.39-16.34-1.48-24.95c8.77-10.92,38.15-35.64,62.14-50.56
		c9.24-5.75,17.47-10.16,23.14-10.95c3.01-0.42,6.3,0.88,9.61,2.69c6.67,3.66,13.08,9.94,17.24,16.44c1.66,2.58,2.95,5.19,3.64,7.67
		c0.43,1.56,1.07,3.01,0.21,4.03c-6.99,8.38-46.28,40.84-74.18,59.12c-6.84,4.48-12.95,8.09-17.65,10.15
		C224.98,848.48,223.27,849,222.75,849.15L222.75,849.15z"/>
	<path class="st45" d="M572.43,1056.81c-36.89-123.24,7.87-195.66,1.39-183.84c-66.03,120.32-63.12,208.41-24.77,271.2
		c59.77,97.86,154.03,120.21,208.05,218.38c30.69,55.77,39.33,116.11-27.92,151.06c-65.05,33.81-211.05,24.69-286.94-51.76
		c-91.78-92.45-89.07-237.85-67-351.42c9.32-47.94,9.89-149.76-1.9-197.91c-14.99-61.21-34.16-90.46-81.93-129.44
		c-6.37-5.2-56.9,35.55-48.41,42.28c95.47,75.72,90.21,168.18,81.26,238.9c-26.39,208.66-18.88,261.14,20.57,364.99
		c29.47,77.59,129.45,161.07,252.42,170.52c77.47,5.96,189.31-20.68,222.13-80.48c39.13-71.3,33.06-124.2-3.87-188.8
		C760.07,1233.51,611.04,1185.77,572.43,1056.81L572.43,1056.81z"/>
	<path class="st48" d="M235.97,768.71c0,0-27.47,23.89-27.78,23.55c-6.93-7.47-17.84-24.05-27.6-32.05
		c-1.04-0.85-14.51,12.54-41.47,6.54c-34.59-7.69-56.77-48.13-41.85-91.36c9.61-27.86,37.19-40.53,50.59-39.51
		c19.81,1.5,29.36,19.86,33.22,31.33c2.05,6.07-11.27,15.65-17.26,11.64c-5.24-3.51-10.11-15-21.13-10.13
		c-8.19,3.62-14.53,13.65-12.41,26.56c3.29,20.02,17.09,32.05,29.37,31.65c8.79-0.29,18.09-3.11,30.16-12.94
		c2.11-1.72-13.7-19.8-13.81-25.43c-0.1-5.2,9.24-12.77,13.17-8.37c6.45,7.23,20.14,22.71,24.6,32.69
		c1.88,4.2-5.34,16.83-1.72,22.57C218.09,745.07,229.53,761.31,235.97,768.71L235.97,768.71z"/>
	<path class="st49" d="M98.08,698.7c1.52,36.48,31.57,62.48,58.21,61.85c2.26-0.05,4.06-1.93,4.01-4.2c-0.05-2.26-1.93-4.06-4.2-4
		c-23.05,0.54-48.51-22.44-49.83-53.99c-0.09-2.26-2.01-4.02-4.27-3.93C99.74,694.53,97.98,696.44,98.08,698.7L98.08,698.7z"/>
	<path class="st49" d="M112.9,710.03c0.05,5.33,3.12,11.65,7.37,16.89c4.19,5.17,9.46,9.21,13.38,10.49
		c2.15,0.7,4.47-0.47,5.17-2.63c0.7-2.15-0.48-4.47-2.63-5.17c-2.85-0.93-6.5-4.1-9.55-7.86c-3-3.7-5.5-8.03-5.54-11.8
		c-0.02-2.26-1.88-4.08-4.14-4.06C114.7,705.91,112.88,707.77,112.9,710.03L112.9,710.03z"/>
	<path class="st49" d="M165.08,648.42c-3.97-5.22-10.34-7.64-17.41-7.79c-9.61-0.2-20.43,3.83-26.69,9.12
		c-1.73,1.46-1.95,4.05-0.49,5.78c1.46,1.73,4.05,1.95,5.78,0.48c4.98-4.2,13.59-7.35,21.22-7.18c4.43,0.09,8.57,1.28,11.06,4.55
		c1.37,1.8,3.95,2.15,5.75,0.78C166.11,652.79,166.46,650.22,165.08,648.42L165.08,648.42z"/>
	<path class="st49" d="M183.69,827.45c5.73,13.16,15.5,24.99,27.38,30.24c2.07,0.91,4.5-0.03,5.41-2.1c0.91-2.07-0.03-4.49-2.1-5.41
		c-10.14-4.48-18.27-14.77-23.17-26c-0.9-2.08-3.32-3.03-5.4-2.12C183.74,822.96,182.78,825.38,183.69,827.45L183.69,827.45z"/>
	<path class="st49" d="M288.72,789.18c-10.53,4.54-31.11,22.48-39.05,30.54c-1.59,1.61-1.57,4.21,0.04,5.8
		c1.61,1.59,4.21,1.57,5.8-0.04c7.44-7.55,26.59-24.51,36.45-28.76c2.08-0.89,3.04-3.31,2.14-5.39
		C293.22,789.25,290.8,788.29,288.72,789.18L288.72,789.18z"/>
	<path class="st49" d="M296.19,807.53c23.91,15.24,52.41,64.9,59.79,91.82c0.6,2.18,2.86,3.47,5.04,2.87
		c2.18-0.6,3.47-2.86,2.87-5.04c-7.78-28.37-38.09-80.51-63.29-96.57c-1.91-1.22-4.45-0.65-5.66,1.26
		C293.71,803.77,294.27,806.31,296.19,807.53L296.19,807.53z"/>
	<path class="st49" d="M310.84,839.96c16.63,23.13,41.22,72.1,50.11,111.11c0.5,2.21,2.7,3.59,4.91,3.09
		c2.21-0.5,3.59-2.7,3.09-4.91c-9.13-40.06-34.38-90.33-51.45-114.08c-1.32-1.84-3.89-2.26-5.72-0.94
		C309.94,835.55,309.52,838.12,310.84,839.96L310.84,839.96z"/>
	<path class="st49" d="M335.54,1385.34c24.3,89.14,95.89,167.69,206.1,193.84c2.2,0.52,4.42-0.84,4.94-3.05
		c0.52-2.2-0.84-4.41-3.04-4.94c-106.95-25.38-176.49-101.52-200.08-188.01c-0.6-2.18-2.85-3.47-5.04-2.88
		C336.23,1380.9,334.94,1383.16,335.54,1385.34L335.54,1385.34z"/>
	<path class="st49" d="M404.1,1479.48c26.25,30.65,73.65,63.5,118.28,71.95c2.22,0.42,4.37-1.04,4.79-3.27
		c0.42-2.22-1.04-4.37-3.27-4.79c-42.88-8.12-88.35-39.78-113.58-69.23c-1.47-1.72-4.06-1.92-5.78-0.45
		C402.83,1475.17,402.63,1477.76,404.1,1479.48L404.1,1479.48z"/>
	<path class="st49" d="M403.89,1460.93c-33.44-36.16-42.92-84.06-54.27-126.5c-0.59-2.19-2.84-3.49-5.02-2.9
		c-2.19,0.59-3.49,2.84-2.9,5.02c11.67,43.65,21.77,92.76,56.17,129.95c1.54,1.66,4.14,1.76,5.8,0.23
		C405.32,1465.19,405.42,1462.59,403.89,1460.93L403.89,1460.93z"/>
	<path class="st49" d="M537.27,1092.48c16.84,51.69,38.51,81.62,73.81,107.88c1.82,1.35,4.39,0.97,5.74-0.84
		c1.35-1.82,0.97-4.39-0.84-5.74c-33.96-25.26-54.71-54.12-70.91-103.84c-0.7-2.15-3.02-3.33-5.17-2.63
		C537.75,1088.01,536.57,1090.33,537.27,1092.48L537.27,1092.48z"/>
	<path class="st49" d="M543.38,1061.73c7.58,35,21.45,66.75,39.87,85.98c1.57,1.63,4.16,1.69,5.8,0.12c1.63-1.57,1.69-4.16,0.12-5.8
		c-17.55-18.33-30.55-48.69-37.78-82.04c-0.48-2.21-2.66-3.62-4.88-3.14C544.3,1057.33,542.9,1059.52,543.38,1061.73L543.38,1061.73
		z"/>
	<path class="st49" d="M542.28,1075.63c-10.43-26.67-3.05-55.46,1.39-78.77c0.42-2.22-1.04-4.37-3.26-4.8
		c-2.23-0.42-4.37,1.04-4.8,3.26c-4.69,24.64-12,55.09-0.97,83.29c0.82,2.11,3.21,3.15,5.31,2.33
		C542.06,1080.12,543.1,1077.74,542.28,1075.63L542.28,1075.63z"/>
	<path class="st49" d="M816.7,1030.31c5.77,41.87,28.56,77.06,59.34,106.18c45.54,43.08,108.59,72.85,158.53,91.53
		c2.12,0.79,4.49-0.29,5.28-2.41c0.79-2.12-0.28-4.49-2.4-5.28c-49.05-18.35-111.04-47.48-155.77-89.8
		c-29.4-27.82-51.34-61.34-56.85-101.34c-0.31-2.24-2.38-3.81-4.63-3.5C817.96,1025.99,816.39,1028.06,816.7,1030.31L816.7,1030.31z
		"/>
	<path class="st49" d="M902.64,1183.77c60.79,42.31,159.11,78.3,233.54,79.91c2.26,0.05,4.14-1.75,4.19-4.01
		c0.05-2.26-1.75-4.14-4.01-4.19c-72.99-1.58-169.41-36.94-229.03-78.44c-1.86-1.29-4.42-0.83-5.71,1.02
		C900.32,1179.91,900.78,1182.47,902.64,1183.77L902.64,1183.77z"/>
	<path class="st49" d="M1706.25,743.03c-6.96,13.38-7.7,30.9-3.15,47.03c4.55,16.15,14.38,30.84,28.14,38.65
		c1.97,1.12,4.48,0.43,5.59-1.54c1.12-1.97,0.43-4.48-1.54-5.59c-11.97-6.8-20.34-19.7-24.3-33.75
		c-3.97-14.07-3.53-29.35,2.53-41.02c1.04-2.01,0.26-4.49-1.75-5.53C1709.77,740.24,1707.29,741.02,1706.25,743.03L1706.25,743.03z"
		/>
	<path class="st49" d="M1715.8,759.02c-2.76,7.37-2.49,17.02-0.31,25.91c2.17,8.89,6.22,16.96,10.53,21.31
		c1.6,1.61,4.2,1.61,5.8,0.02c1.61-1.59,1.61-4.2,0.02-5.8c-3.52-3.54-6.62-10.22-8.38-17.47c-1.77-7.24-2.22-15.09,0.03-21.08
		c0.79-2.12-0.28-4.49-2.4-5.28C1718.96,755.83,1716.59,756.9,1715.8,759.02L1715.8,759.02z"/>
	<path class="st49" d="M1733.61,852.66c-11.06,20.79-13.22,51.66,9.11,72.93c1.64,1.56,4.24,1.5,5.8-0.14
		c1.56-1.64,1.5-4.24-0.14-5.8c-19.31-18.4-17.09-45.15-7.52-63.13c1.06-2,0.3-4.48-1.7-5.55
		C1737.16,849.9,1734.68,850.66,1733.61,852.66L1733.61,852.66z"/>
	<path class="st49" d="M1746.12,855.73c-6.04,16.35-11.12,29.86-2.15,46.24c1.09,1.99,3.58,2.71,5.57,1.63
		c1.99-1.09,2.72-3.58,1.63-5.57c-7.66-13.99-2.5-25.48,2.65-39.46c0.79-2.12-0.3-4.49-2.43-5.27
		C1749.26,852.52,1746.9,853.61,1746.12,855.73L1746.12,855.73z"/>
	<path class="st49" d="M1756.04,950.16c-12.35,17.48-18.61,46.23-7.1,65.35c1.17,1.94,3.69,2.57,5.63,1.4
		c1.94-1.17,2.57-3.69,1.4-5.63c-9.94-16.52-3.9-41.29,6.77-56.39c1.31-1.85,0.87-4.41-0.98-5.72
		C1759.91,947.87,1757.35,948.31,1756.04,950.16L1756.04,950.16z"/>
	<path class="st49" d="M1764.06,965.93c-2.84,2.86-5.12,7.61-6.54,13.09c-1.98,7.63-2.39,16.68-1.1,23.23
		c0.44,2.22,2.6,3.67,4.82,3.23c2.22-0.44,3.67-2.6,3.23-4.82c-1.09-5.52-0.68-13.15,0.99-19.58c1.01-3.89,2.42-7.35,4.43-9.38
		c1.59-1.61,1.58-4.21-0.03-5.8C1768.25,964.31,1765.65,964.32,1764.06,965.93L1764.06,965.93z"/>
	<path class="st49" d="M1753.7,1055.94c-3.75,1.48-7.75,4.9-11.27,9.34c-4.89,6.18-8.92,14.3-10.37,20.81
		c-0.49,2.21,0.9,4.4,3.11,4.9c2.21,0.49,4.41-0.9,4.9-3.11c1.23-5.49,4.68-12.3,8.8-17.52c2.49-3.15,5.18-5.75,7.84-6.8
		c2.11-0.83,3.14-3.21,2.31-5.32C1758.2,1056.14,1755.81,1055.11,1753.7,1055.94L1753.7,1055.94z"/>
	<path class="st49" d="M1744.22,710.43c79.1,75.98,123.9,196.31,86.54,302.38c-0.75,2.14,0.37,4.48,2.51,5.23
		c2.14,0.75,4.48-0.37,5.23-2.51c38.42-109.07-7.25-232.9-88.59-311.03c-1.63-1.57-4.23-1.52-5.8,0.12
		C1742.53,706.26,1742.58,708.86,1744.22,710.43L1744.22,710.43z"/>
	<path class="st49" d="M1834.57,803.04c29.88,53.18,39.89,115.14,20.18,178.27c-0.67,2.16,0.53,4.46,2.69,5.14
		c2.16,0.68,4.46-0.53,5.14-2.69c20.42-65.42,10.1-129.63-20.86-184.74c-1.11-1.97-3.61-2.68-5.59-1.57
		C1834.16,798.57,1833.46,801.07,1834.57,803.04L1834.57,803.04z"/>
	<path class="st49" d="M1477.62,1038.62c12.12,41.54,51.12,87.96,94.21,113.8c29.28,17.56,60.42,25.53,86.39,16.86
		c2.15-0.72,3.31-3.04,2.59-5.19c-0.72-2.15-3.04-3.31-5.19-2.59c-23.95,8-52.56,0.09-79.57-16.11
		c-41.34-24.79-78.92-69.2-90.55-109.06c-0.64-2.17-2.91-3.42-5.09-2.79C1478.23,1034.17,1476.98,1036.45,1477.62,1038.62
		L1477.62,1038.62z"/>
	<path class="st49" d="M1504.12,1060.54c15.65,29.73,42.78,57.66,70.56,74.9c18.93,11.75,38.18,18.5,54.4,17.86
		c2.26-0.09,4.03-2,3.94-4.26c-0.09-2.26-2-4.03-4.26-3.94c-14.85,0.59-32.41-5.87-49.75-16.63
		c-26.61-16.52-52.63-43.27-67.63-71.75c-1.05-2-3.54-2.77-5.54-1.72C1503.84,1056.06,1503.07,1058.54,1504.12,1060.54
		L1504.12,1060.54z"/>
	<path class="st49" d="M1165.85,544.93c48.27,0.51,111.01,12.91,144.33,24.76c2.13,0.76,4.48-0.36,5.24-2.49
		c0.76-2.13-0.36-4.48-2.49-5.24c-33.94-12.07-97.83-24.72-146.99-25.24c-2.26-0.02-4.12,1.8-4.15,4.06
		C1161.77,543.04,1163.59,544.9,1165.85,544.93L1165.85,544.93z"/>
	<path class="st49" d="M1204.93,565.89c32.89-1.98,62.38,9.7,78.95,13.54c2.21,0.51,4.41-0.87,4.92-3.07
		c0.51-2.2-0.86-4.41-3.07-4.92c-17.05-3.95-47.43-15.77-81.29-13.73c-2.26,0.14-3.99,2.08-3.85,4.34
		C1200.73,564.3,1202.67,566.02,1204.93,565.89L1204.93,565.89z"/>
	<path class="st49" d="M1512.94,538.75c-2.6-2.13-6.46-3.64-10.84-4.2c-6.14-0.8-13.28,0.25-18.83,3.48
		c-1.96,1.14-2.62,3.65-1.49,5.61c1.14,1.96,3.65,2.62,5.61,1.49c4.02-2.34,9.21-3.01,13.66-2.43c2.68,0.35,5.11,1.12,6.7,2.42
		c1.75,1.43,4.34,1.17,5.77-0.58C1514.96,542.77,1514.7,540.18,1512.94,538.75L1512.94,538.75z"/>
	<path class="st49" d="M1458.13,560.68c22.78-0.02,45.55-1.29,63.88,0.14c2.26,0.18,4.23-1.51,4.41-3.77
		c0.18-2.26-1.51-4.23-3.77-4.41c-18.51-1.45-41.51-0.18-64.52-0.16c-2.26,0-4.1,1.84-4.1,4.11
		C1454.02,558.85,1455.86,560.68,1458.13,560.68L1458.13,560.68z"/>
	<path class="st49" d="M1468.87,571.77c12.51,1.17,29.91-0.34,37.86-0.07c2.26,0.08,4.16-1.7,4.24-3.96
		c0.08-2.26-1.7-4.16-3.96-4.24c-7.85-0.27-25.03,1.25-37.38,0.1c-2.25-0.21-4.26,1.45-4.47,3.7
		C1464.96,569.56,1466.62,571.56,1468.87,571.77L1468.87,571.77z"/>
</g>
</svg>
