<?xml version="1.0" encoding="utf-8"?>
<!-- Generator: Adobe Illustrator 26.4.1, SVG Export Plug-In . SVG Version: 6.00 Build 0)  -->
<svg version="1.1" id="Layer_1" xmlns="http://www.w3.org/2000/svg" xmlns:xlink="http://www.w3.org/1999/xlink" x="0px" y="0px"
	 viewBox="0 0 2000 2000" style="enable-background:new 0 0 2000 2000;" xml:space="preserve">
<style type="text/css">
	.st0{fill-rule:evenodd;clip-rule:evenodd;fill:#145468;}
	.st1{fill-rule:evenodd;clip-rule:evenodd;fill:#3B7A7A;}
	.st2{fill-rule:evenodd;clip-rule:evenodd;fill:#098B8D;}
	.st3{fill-rule:evenodd;clip-rule:evenodd;fill:#689595;}
	.st4{fill-rule:evenodd;clip-rule:evenodd;fill:#679595;}
	.st5{fill-rule:evenodd;clip-rule:evenodd;fill:#CEE4E4;}
	
		.st6{fill-rule:evenodd;clip-rule:evenodd;fill:#145468;stroke:#CEE4E4;stroke-width:5;stroke-linecap:round;stroke-linejoin:round;stroke-miterlimit:10;}
	.st7{fill-rule:evenodd;clip-rule:evenodd;fill:#043A60;}
	.st8{fill-rule:evenodd;clip-rule:evenodd;fill:#FD9A65;}
	.st9{fill-rule:evenodd;clip-rule:evenodd;fill:#18658D;}
	.st10{fill-rule:evenodd;clip-rule:evenodd;fill:#9FCDE5;}
	.st11{fill-rule:evenodd;clip-rule:evenodd;fill:#56A8D3;}
	.st12{fill-rule:evenodd;clip-rule:evenodd;fill:#276383;}
	.st13{fill-rule:evenodd;clip-rule:evenodd;fill:#E0F0F8;}
	.st14{fill-rule:evenodd;clip-rule:evenodd;fill:#A51E1C;}
	.st15{fill-rule:evenodd;clip-rule:evenodd;fill:#CB442D;}
	.st16{fill-rule:evenodd;clip-rule:evenodd;fill:#DC5A44;}
	.st17{fill-rule:evenodd;clip-rule:evenodd;fill:#F7BD54;}
	.st18{fill-rule:evenodd;clip-rule:evenodd;fill:#E46B37;}
	.st19{fill-rule:evenodd;clip-rule:evenodd;fill:#B67227;}
	.st20{fill-rule:evenodd;clip-rule:evenodd;fill:#D78A35;}
	.st21{fill-rule:evenodd;clip-rule:evenodd;fill:#A4331F;}
	.st22{fill-rule:evenodd;clip-rule:evenodd;fill:#F2A550;}
	.st23{fill-rule:evenodd;clip-rule:evenodd;fill:#F9E9D6;}
	.st24{fill-rule:evenodd;clip-rule:evenodd;fill:#844013;}
	.st25{fill-rule:evenodd;clip-rule:evenodd;fill:#A04E18;}
	.st26{fill-rule:evenodd;clip-rule:evenodd;fill:#F8B872;}
	.st27{fill-rule:evenodd;clip-rule:evenodd;fill:#FFC689;}
	.st28{fill-rule:evenodd;clip-rule:evenodd;fill:#B6844D;}
	.st29{fill-rule:evenodd;clip-rule:evenodd;fill:#CA5320;}
	.st30{fill-rule:evenodd;clip-rule:evenodd;fill:#D76332;}
	.st31{fill-rule:evenodd;clip-rule:evenodd;fill:#812F0C;}
	.st32{fill-rule:evenodd;clip-rule:evenodd;fill:#8A460F;}
	.st33{fill-rule:evenodd;clip-rule:evenodd;fill:#B46914;}
	.st34{fill-rule:evenodd;clip-rule:evenodd;fill:#B54515;}
	.st35{fill-rule:evenodd;clip-rule:evenodd;fill:#FFCD71;}
	.st36{fill-rule:evenodd;clip-rule:evenodd;fill:#95B41D;}
	.st37{fill-rule:evenodd;clip-rule:evenodd;fill:#A8C731;}
	.st38{fill-rule:evenodd;clip-rule:evenodd;fill:#85A214;}
	.st39{fill-rule:evenodd;clip-rule:evenodd;fill:#C6EF28;}
	.st40{fill-rule:evenodd;clip-rule:evenodd;fill:#ED982B;}
	.st41{fill-rule:evenodd;clip-rule:evenodd;fill:#FCCF7C;}
	.st42{fill-rule:evenodd;clip-rule:evenodd;fill:#FFE8BC;}
	.st43{fill-rule:evenodd;clip-rule:evenodd;fill:#ED6961;}
	.st44{fill-rule:evenodd;clip-rule:evenodd;fill:#696E1E;}
	.st45{fill-rule:evenodd;clip-rule:evenodd;fill:#9CA42A;}
	.st46{fill-rule:evenodd;clip-rule:evenodd;fill:#7F8615;}
	.st47{fill-rule:evenodd;clip-rule:evenodd;fill:#FFEECF;}
	.st48{fill-rule:evenodd;clip-rule:evenodd;fill:#77786D;}
	.st49{fill-rule:evenodd;clip-rule:evenodd;fill:#D3D5C6;}
	.st50{fill-rule:evenodd;clip-rule:evenodd;fill:#7C7A7A;}
	.st51{fill-rule:evenodd;clip-rule:evenodd;fill:#DBDCD9;}
	.st52{fill-rule:evenodd;clip-rule:evenodd;fill:#CA372D;}
	.st53{fill-rule:evenodd;clip-rule:evenodd;fill:#FE7D75;}
	.st54{fill-rule:evenodd;clip-rule:evenodd;fill:#B0B0B0;}
	.st55{fill-rule:evenodd;clip-rule:evenodd;fill:#888787;}
	.st56{fill-rule:evenodd;clip-rule:evenodd;fill:#6E6E6E;}
	.st57{fill-rule:evenodd;clip-rule:evenodd;fill:#757575;}
	.st58{fill-rule:evenodd;clip-rule:evenodd;fill:#60341E;}
	.st59{fill-rule:evenodd;clip-rule:evenodd;fill:#B0451B;}
	.st60{fill-rule:evenodd;clip-rule:evenodd;fill:#8A4727;}
	.st61{fill-rule:evenodd;clip-rule:evenodd;fill:#FABB64;}
	.st62{fill-rule:evenodd;clip-rule:evenodd;fill:#3E88AF;}
	.st63{fill-rule:evenodd;clip-rule:evenodd;fill:#5BA0C5;}
	.st64{fill-rule:evenodd;clip-rule:evenodd;fill:#FFF1DE;}
	.st65{fill-rule:evenodd;clip-rule:evenodd;fill:#F8B89B;}
	.st66{fill-rule:evenodd;clip-rule:evenodd;fill:#E98A5F;}
	.st67{fill-rule:evenodd;clip-rule:evenodd;fill:#FFCAB3;}
	.st68{fill-rule:evenodd;clip-rule:evenodd;fill:#F9A580;}
	.st69{fill-rule:evenodd;clip-rule:evenodd;fill:#FFDFD2;}
	.st70{fill-rule:evenodd;clip-rule:evenodd;fill:#E2A85C;}
	.st71{fill-rule:evenodd;clip-rule:evenodd;fill:#C68446;}
	.st72{fill-rule:evenodd;clip-rule:evenodd;fill:#F2BC75;}
	.st73{fill-rule:evenodd;clip-rule:evenodd;fill:#F2BC76;}
	.st74{fill-rule:evenodd;clip-rule:evenodd;fill:#FFD69F;}
	.st75{fill-rule:evenodd;clip-rule:evenodd;fill:#E7624B;}
	.st76{fill-rule:evenodd;clip-rule:evenodd;fill:#FFEED9;}
	.st77{fill-rule:evenodd;clip-rule:evenodd;fill:#C26E11;}
	.st78{fill-rule:evenodd;clip-rule:evenodd;fill:#F39226;}
	.st79{fill-rule:evenodd;clip-rule:evenodd;fill:#DF5020;}
	.st80{fill-rule:evenodd;clip-rule:evenodd;fill:#2C140B;}
	.st81{fill-rule:evenodd;clip-rule:evenodd;fill:#FFFFFF;}
	.st82{fill-rule:evenodd;clip-rule:evenodd;}
	.st83{fill-rule:evenodd;clip-rule:evenodd;fill:#A96F3E;}
	.st84{fill-rule:evenodd;clip-rule:evenodd;fill:#683A15;}
	.st85{fill-rule:evenodd;clip-rule:evenodd;fill:#F0DCCB;}
	.st86{fill-rule:evenodd;clip-rule:evenodd;fill:#E6D1B6;}
	.st87{fill-rule:evenodd;clip-rule:evenodd;fill:#69553C;}
</style>
<g>
	<path class="st83" d="M1058.2,1561.84c50.32,24.99,269.67,40.8,295.76,43.34c37.27,3.64,60.96,46.77,55,74.66
		c-5.13,24-30.69,26.17-77.98,19.09c-42.25-6.33-203.73-44.42-254.06-56.53c-19.51-4.69-88.15,20.41-112.35,18.13
		C954.3,1659.58,1058.2,1561.84,1058.2,1561.84L1058.2,1561.84z"/>
	<path class="st84" d="M1158.36,84.16c-23.74,7.01-39.57-5.61-50.11-23.95c-19.15-33.33-67.64-34.97-113.54-6.54
		c-15.6,9.66-53.29,46.03-48.68,69.69c0.4,2.06,4.29-2.72,10.68-4.78c6.87-2.2,7.51-2.04,7.07-1.65
		c-35.54,32.05-41.42,52.19-53.44,77.19c-4.52,9.4-1.52,34.18,0.02,32.92c2.94-2.41,2.82-3.12,6.97-7.84c4.07-4.64,7.67-5,7.67-5
		s-16.18,17.66-19.94,26.19c-6.32,14.35-5.02,27.2-2.02,25.28c3.67-2.35,10.82-7.86,9.59-5.28c-2.3,4.81-9.47,20.97-14.04,28.69
		c-28.4,47.96-14.07,78.66,8.63,124.69c12.99,26.35,43.01,43.11,54.55,35.19c6.45-4.43,41.7-23.97,49.42-53.14
		c10.96-41.46,17.62-59.83,14.49-69.95c-0.43-1.38,2.12,0.83,3.37,3.8c1.86,4.42,2.35,9.37,3.23,9.02
		c26.41-10.42,16.82-56.12,26.9-83.96C1075.54,209.53,1158.36,84.16,1158.36,84.16L1158.36,84.16z"/>
	<path class="st83" d="M1417.84,94.75c-51.21-43.36-121.01-40.97-175.56-37.67c-63.83,3.87-125.57,19.22-157.97,92.6
		c-28.13,63.72-13.89,147.76-39.9,207.89c-16.36,37.82-51.25,68.35-36.41,116.28c14.49,46.79,49.45,46.96,81.31,75.48
		c29.62,26.51-30.58,124.43-65.71,170.02c-30.52,39.62-128.52,84.71-128.82,116.85c-0.02,2.55,13.11-0.66,32.2-5.59
		c16.13-4.16,20.85-5.15,11.99-0.15c-25.74,14.52-53.33,30.19-74.25,50.19c-35.43,33.87-62.3,74.74-105.51,104.03
		c-10.65,7.22-79.66,56.76-57.6,55.54c9.49-0.53,42.52,0.54,33.09,1.77c-30.91,4.05-60.12,22.52-81.03,48.52
		c-16.8,20.89-28.44,46.46-38.93,70.72c-6.94,16.04,58.97-35.64,47.31-22.62c-10.28,11.48-26.9,24.17-36.13,35.19
		c-67.97,81.13-63.21,124.17-62.55,131.88c0.69,8.02,7.27-0.17,19.13-9.67c6.64-5.32,25.57-14.06,19.25-8.37
		c-21.4,19.24-44.09,35.36-60.38,55.62c-29.45,36.63-39.01,69.47-47.36,127.91c-1.25,8.74,2.79,3.89,16.59-12.29
		c8.67-10.16,22.23-16.7,18.41-13.43c-13.07,11.19-35.68,49.93-46.36,71.68c-9.83,20.03-35.02,107.96-20.87,114.08
		c0.95,0.41,4.33-5.4,7.69-10.93c4.39-7.23,9.55-11.2,7.56-5.78c-7.84,21.37-21.03,55.72-13.73,92.99
		c3.01,15.38,21.12,29.3,23.13,46.49c2.31,19.76-35.6,37.08-9.27,72.06c11.67,15.5,43.07,16.11,83.94,19.39
		c77.58,6.23,159.63,0.93,237.67,5.25c41.99,2.32,235.58,34.52,266.47,16.88c14.73-8.41,15.09-38.86,14.68-56.86
		c-0.54-23.59-10.51-53.33-35.37-65.34c-37.07-17.9-168.75-0.17-163.3-1.86c20.21-6.26,60.54-4.36,85.97-52.2
		c3.71-6.98,1.07,22.16,12.47,13.22c10.63-8.35,26.44-36.4,29.32-39.68c6.8-7.74-10.15,36.27,7.04,28.27
		c7.68-3.58,25.06-36.05,30.82-37.32c5.72-1.26,3.96,15.04,9.79,10.51c20.42-15.84,37.92-42.21,35.5-34.47
		c-1.27,4.06-4.7,23.23-4.48,27.48c0.47,9.19,25.15-4.29,23.15-1.26c-18.81,28.56-41.93,81.64-27.7,89.91
		c5.31,3.08,12.23-8.5,21.43-17.51c9.82-9.63,23.81-16.78,22.87-13.59c-5.03,17.14-17.76,25.86-15.83,48.59
		c0.68,8.06,21.24-11.19,16.89,0.96c-10.19,28.43-12.99,81.94-1.4,111.76c1.51,3.88,8.42-5.58,13.9-13.13
		c3.16-4.35,9-8.53,11.08-3.71c8.27,19.08,4,51.91,20.13,66.35c37.96,33.97,175.22,20.2,208.3,4.22
		c30.2-14.59,16.81-75.99-9.8-100.14c-20.93-19-71.78,11.38-84.87-5.94c-8.57-11.35-13.01-88.36-11.1-90.49
		c4.42-4.94,5.5,25.75,11.97,17.53c10.33-13.13,8.94-58.1,9.26-95.17c0.22-24.96,4.82-44.1,0.69-56.02
		c-4.99-14.41,13.79,22.54,19.14,5.08c2.48-8.09,0.61-67.87,0.18-75.74c-1.1-19.94-8.95-42.49-10.05-62.42
		c-0.21-3.8,154.33,5.87,149.62,19.32c-8.5,24.27-14.75,98.37-17.96,129.35c-3.33,32.07,11.99,64.26,14.04,57.5
		c4.2-13.86,21.82-37.59,21.8-31.93c-0.01,2.85,2.72,7.36-1.34,22.26c-3.52,12.92-11.73,21.06-15.97,32.29
		c-11.32,29.95-11.04,62.25-3.41,55.89c14.54-12.1,26.68-26.08,25.02-19.97c-1.99,7.29-2.97,56.63,10.69,68.86
		c14.74,13.19,34.95,22.13,54.98,24.84c37.71,5.11,97.27,9.47,130.93-6.81c37.36-18.06,42.3-68.88,6.67-102.23
		c-23.61-22.1-62.21-16.13-67.79-23.95c-3.92-5.49,2.68-33.57,8.99-43.52c5.01-7.89,3.52,25.83,9.01,20
		c23.48-24.98,13.31-82.89,15.84-86.43c0.69-0.97,4.19,4.34,5.94,14.93c0.55,3.32,9.35-3.09,10.63-21.51
		c0.9-12.95-3.69-19.84-2.02-31.47c1.39-9.74,4.15-3.61,6.71,3.62c2.59,7.34,3.26,15.62,4.68,14.64c6.41-4.42,8.01-21.36,7.46-31.84
		c-1.51-28.7-13.44-61.98-15.98-89.41c-4.2-45.28-5.46-85.69-9.59-136.55c-1.31-16.16-0.8-32.4-0.67-48.56
		c0.04-5.03,7.79,4.74,13.37,30.24c2.29,10.48,18.77-21.25,21.27-71.85c3.35-67.73-6.02-185.29-47.42-240.49
		c-0.81-1.07,1.54-164.2,17.43-200.93c1.66-3.83-61.02-191.67-96.95-254.58c-26.72-46.78-60.66-149.9-62.12-204.94
		C1498.28,257.88,1469.99,138.9,1417.84,94.75L1417.84,94.75z"/>
	<path class="st84" d="M1385.6,103.9c-2.79,13.85,38.13,31.43,44.85,53.78c9.33,31.01,7.3,49.32,3.79,67.29
		c-3.9,19.98-6.58,27.49-9.75,42.42c-3.73,17.55-0.64,52.02,12.16,65.9c4.39,4.76,12.29-20.18,12.54-14.18
		c0.88,21.19,10.63,42.8,20.22,48.37c1.64,0.95,3.35-5.66,5.14-12.91c1.41-5.72,4.33-11.01,4.51-9.97
		c1.85,10.2,5.87,44.45,21.28,75.93c15.95,32.57,55.05,56.82,62.77,58.3c17.05,3.27,22.09,10.47,35.39-0.79
		c15.55-13.17,38.07-94.9,32.01-114.25c-0.74-2.36,1.9,2.21,3.99,6.47c1.42,2.9,2.84,12.21,3.53,11.27
		c17.54-23.99,18.15-50.94,8.75-71.05c-7.17-15.34-20.05-27.94-19.09-28c1.19-0.07,4.33,0.5,8.9,4.66
		c8.16,7.44,12.05,16.45,14.44,12.25c21.09-36.96-41.59-70.8-50.12-111.22c-8.61-40.78-1.93-93.79-44.88-117.44
		c-30.77-16.94-76.02-24.1-108.82,3.84C1427.02,91.76,1388.39,90.04,1385.6,103.9L1385.6,103.9z"/>
	<path class="st85" d="M1305.05,55.97c0.68-0.04-18.81-1.34-38.08-1.02c-15.31,0.26-30.58,1.57-33.58,2.04
		c-58.15,9.09-38.14,139.42-58.49,189.53c-13.99,34.47-32.75,51.08-73.67,73.77c-23.94,13.27-127.5,42.27-132.42,63.66
		c-7.87,34.24,13.04,166.52,77.55,168.26c44.76,1.21,154.86-3.56,198.03-17.67c59.18-19.35,189.77,0.8,251.86,13.63
		c54.31,11.22,122.55,68.65,120.83,62.48c-10.59-37.88-61.86-104.69-85.09-138.65c-15.96-23.33-32.88-46.24-54.32-65.14
		c-9.43-8.3-22.08-13.47-20.6-11.91c5.58,5.9,11.1,24.02,8.23,25.34c-1.34,0.62-10.04-6.21-19.86-12.03
		c-18-10.66-69.88-6.7-101.25-20.99c-43.41-19.77-62.71-64.4-74.92-96.76c-14.45-38.3-15.8-120.72-11.07-151.22
		C1265.25,93.68,1287.5,56.95,1305.05,55.97L1305.05,55.97z"/>
	<path class="st85" d="M1314.71,505.6c-47.08,5.71-147.84,1.53-135.6,43.11c6.83,23.21-8.78,91.66-38.19,141.07
		c-29.66,49.83-16.83,69.15-9.47,77.54c2.1,2.39,5.44-6.77,21.34-20.92c6.36-5.66,16.54-7.21,16.54-7.21s-19.91,23.65-26.12,45.59
		c-7.31,25.83-1.24,40.46-0.2,44.21c1.23,4.48,9.19-12.96,20.13-20.89c8.87-6.42,13.76-9.34,13.76-9.34s-27.1,30.96-44.08,63.6
		c-14.63,28.14-20.61,57.68-12.76,70.42c1.03,1.67,9.97-6.85,19.05-14.67c7.97-6.87,17-11.71,17-11.71s-15.62,29.73-24.21,75.29
		c-9.07,48.13,22.74,95.14,24.84,87.38c3.97-14.68,11.84-32.62,18.44-43.39c10.55-17.18,24.02-18.52,24.02-18.52
		s-17.06,41.41-19.7,58.74c-5.21,34.24,4.71,53.02,5.95,51.28c12.71-17.92,27.87-24.53,27.87-24.53s-12.69,26.03-16.28,50.4
		c-4.61,31.26,2.64,61.55,8.8,51.36c14.87-24.58,28.04-26.1,25.68-19.61c-10.37,28.52-14.55,62.66-6.58,93.51
		c3.34,12.94,37.24-22.77,43.53-26.79c8.92-5.72,5.42,21.47,3.37,41.6c-3.2,31.43,9.48,37.86,10,36.92
		c9.26-16.52,21.71-23.87,19.46-19.71c-15.49,28.79,7.56,46.91,2.88,78c-2.49,16.48,2.97,67.57,12.05,114.77
		c7.95,41.38,3.68,78.54,5.45,78.01c26.81-8.05,35.03-6.8,44.27-15.78c3.69-3.59-0.72,11.27-4.5,20.92
		c-0.87,2.23,21.99,6.98,46.7-18.05c28.48-28.85,30.46-56.01,31.73-54.59c3.09,3.47,2.18,23.5-1.73,36.93
		c-1.5,5.15,24.13-4.41,37.74-20.86c42.07-50.84,61.12-119.24,67.49-164.43c2.28-16.2,6.29-48.66,6.29-48.66s4.04,9.16,5.52,17.06
		c1.76,9.37,3.67,20.02,3.84,29.62c0.09,4.81,19.75-11.94,24.87-37.76c6.55-32.99,8.57-48.8,8.57-48.8s3.57,4.03,6.27,11.45
		c3.11,8.52,3,15.5,4.47,21.97c0.39,1.7,30.8-17.94,26.38-84.35c-1.61-24.24-14.66-116.71-14.66-116.71s7.05,3.53,13.46,13.74
		c6.56,10.44,6.26,14.93,10.47,23.64c1.56,3.22,21.43-18.53,22.93-47.19c1.11-21.33-16.29-77.31-16.29-77.31s4.24,5.1,9.8,14.72
		c5.05,8.75,8.76,18.99,10.99,24.88c0.33,0.87,14.24-9.09,14.09-41.1c-0.15-32.08-10.04-73.67-8.62-72.61
		c4.5,3.35,9.98,14.09,16.23,28.92c0.72,1.7,10.09-7.8,12.07-29.26c3.64-39.28-4.04-64.22-23.73-104.59
		c-12.19-24.99-14.94-48.29-14.94-48.29s6.41,3.44,12.13,9.73c6.78,7.46,8.74,10.95,14.02,17.41c1.59,1.94,13.86-22.24,4.89-43.39
		c-7.04-16.6-38.18-57.7-48.42-80.33c-1.18-2.62,6.01,0.65,12.87,5.06c6.33,4.07,16.43,16.46,19.45,20.41
		c2.04,2.67,10.34-12.28-7.89-45.46c-48.6-88.44-83.56-109.65-124.89-163.56C1504.06,453,1375.45,498.23,1314.71,505.6
		L1314.71,505.6z"/>
	<path class="st85" d="M158.24,1320.39l-8.52-40.62c-0.19-3.45,18.68,0.67,20.78,1.03c27.03,4.68,53.65,15.65,80.69,19.52
		c15.25,2.18,32.07-3.35,47.84-2.65c13.53,0.6,25.34,5.14,38.41,4.41c1.65-0.09,4.6-0.83,5.32-2.48
		c11.2-25.89,14.5-183.8-0.76-190.13c-1.44-0.59-6.4,6.21-8.08,7.75c-1.11,1.01-5.08-53.42-1.61-74.42
		c1.34-8.11-20.64,4.8-22.92,12.71c-0.02,0.07,9.02-26.57,7.93-49.94c-1.42-30.31-10.99-57.93-11.86-66.98
		c-0.43-4.52-32.94,13.38-63.45,41.21c-15.68,14.3-35.68,44.5-50.3,73.77c-13.53,27.07-14.06,54.59-16.16,62.28
		c-0.27,0.99-2.21-3.97-2.31-12.2c-0.05-3.99-11.34,8.22-16.55,18.01c-15.04,28.28-28.91,58.78-36.84,91.65
		c-6.34,26.28-3.35,52.17,3.83,78.46C125.07,1296.98,152.14,1325.54,158.24,1320.39L158.24,1320.39z"/>
	<path class="st83" d="M495.31,1745.66c-18.72,13.68-74.17,47.12-114.5,49.53c-69.39,4.15-159.35-41.73-164.3-73.39
		c-0.39-2.51,17.77-1.45,24.39-2.54c10.21-1.68,13.71-0.62,12.69-1.46c-36.55-30.16-71.62-31.78-102.06-70.6
		c-20.35-25.95-21.82-58.31-19.94-60.47c1.1-1.27,9.91,2.77,21.2,7c11.6,4.34,16.02,2.25,8.19-9.27
		c-22.22-32.69-35.39-54.63-39.53-77.57c-4.89-27.11,2.79-57.4,6.32-58.28c1.63-0.41,6.87,13.61,13.57,21.52
		c7.18,8.48,12.03,10.92,12.03,10.92s-24.73-36.68-34.33-79.28c-10.03-44.52-12.94-65.35-11.77-103.68
		c1.07-35.05,4.61-59.86,9.51-61.68c1.66-0.62,23.72,30.14,33.11,30.5c4.02,0.15-1.02-27,12.48-60.64
		c14.01-34.9,42.12-49.4,47.87-44.4c3.12,2.71,3.57,27.73,10.38,51.52c5.16,18.03,16.22,35.65,21.83,40.67
		c2.23,1.99,11.43-12.94,17.89-36.23c1.96-7.06,19.89,11.98,29.85,31.55c5.19,10.2,6.67,26.78,8.44,24.51
		c17.63-22.59,19.61-31.32,28.67-46.83c8.9-15.23,22.77-50.1,25.7-46.25c9.28,12.22,16.1,52.46,17.38,80.49
		c0.92,20.23,1.88,34.05-1.76,60.73c-0.02,0.19,4.69-3.02,9.15-8.73c5.99-7.68,13.67-15.8,15.02-13.29
		c13.08,24.34,15.8,47.14,14.93,77.11c-0.54,18.56-10.5,30.46-13.33,40.64c-2.63,9.47-4.73,22.07-2.48,20.79
		c2.61-1.49,6.31-5.75,11.63-13.58c2.64-3.89,8.62,14.52,4.29,32.99c-6.62,28.26-24.19,52.28-22.55,81.93
		c0.4,7.28,9.33-5.63,13.59-11.55c9.33-12.99,12.69-27.04,15.45-24.63c19.86,17.3-3.72,103.91,9.68,127.37
		c0.25,0.44,8.69-22.65,14.91-6.94c6.81,17.19,12.29,79.21,54.21,88.98C515.6,1718.37,504.08,1739.24,495.31,1745.66L495.31,1745.66
		z"/>
	<path class="st84" d="M991.6,1499.94c-2.19-2.56-4.74-5.43-7.54-8.09c-4.91-4.67-10.55-8.68-16.28-10.25
		c-4.33-1.18-9.74,1.75-6.97,11.01c3.69,12.36,22.39,48.1,22.12,71.84c-0.04,3.81-0.31,6.69-0.86,8.79
		c-0.13,0.5-0.38,1.09-0.56,1.47c-0.2-0.05-0.43-0.11-0.6-0.18c-1.02-0.39-2.12-1-3.31-1.74c-4.51-2.82-9.96-7.34-16.03-11.5
		c-1.55-1.06-2.97-1.04-4.05-0.83c-1.43,0.29-2.81,1.05-3.7,2.83c-0.17,0.33-0.85,1.96-0.25,4.67c1.63,7.34,13.23,48.69-5.68,83.73
		c-14.91,27.63-42.45,47.64-71.36,62.19c-44.34,22.32-92.08,31.76-105.04,34.95c-3.19,0.79-4.99,1.7-5.44,2.06
		c-1.71,1.39-2,2.99-2.01,4.15c-0.01,1.38,0.43,2.8,1.78,4.01c0.35,0.31,1.3,1.22,3.25,1.35c0.42,0.03,2.4-0.08,5.67-0.38
		c27.91-2.54,166.99-17.37,210.29-11.38c2.88,0.4,5.55-1.62,5.94-4.5c0.4-2.88-1.62-5.55-4.5-5.94
		c-29.67-4.1-103.79,1.38-157.29,6.13c16.35-5.29,34.48-12.18,52.08-21.04c30.84-15.52,60-37.13,75.9-66.61
		c15.45-28.64,12.45-61.14,9.26-78.91c4.29,3.11,8.08,5.68,11.18,6.76c4.4,1.54,8.01,0.91,10.83-1.66
		c2.62-2.39,4.91-7.85,5.03-18.31c0.24-21.15-13.48-51.48-20.05-68.1c2.22,1.79,4.32,3.87,6.25,5.92
		c5.06,5.34,9.08,10.7,11.16,12.56c1.23,1.1,2.5,1.49,3.62,1.58c1.52,0.12,3.01-0.29,4.37-1.5c0.66-0.59,1.42-1.54,1.96-3
		c0.49-1.32,0.94-3.5,1.17-6.47c1.5-19.12-4.12-78.38-22.41-124.48c-14.25-35.92-32.51-64.14-46.45-79.73
		c-6.54-7.31-12.32-11.94-16.43-13.73c-2.67-1.17-5.78,0.05-6.94,2.72c-1.17,2.67,0.05,5.78,2.72,6.94
		c3.24,1.42,7.62,5.32,12.79,11.1c13.38,14.96,30.83,42.1,44.51,76.59c15.45,38.93,21.57,87.56,21.89,111.48
		C991.65,1497.63,991.64,1498.81,991.6,1499.94L991.6,1499.94z"/>
	<path class="st84" d="M1064.66,1341.21c-4.47,8.7-9.65,18.48-13.23,27.75c-4.62,11.96-6.37,23.25-2.67,31.19
		c1.13,2.42,2.8,3.52,4.48,3.99c1.57,0.44,3.43,0.37,5.47-0.71c2.25-1.19,5.47-4.65,9.07-9.09l0.5-0.62
		c-4.81,13.85-10.99,32.39-13.98,48.29c-2.37,12.63-2.54,23.76,0.57,30.44c1.09,2.34,3.07,3.78,6.31,3.41
		c1.02-0.12,2.46-0.57,4.12-1.48c2.23-1.23,5.32-3.49,8.54-5.91c0.84-0.63,1.78-1.31,2.75-1.99c-4.3,10.82-9.96,23.1-14.07,36.22
		c-5.51,17.58-8.27,36.61-2.29,55.78c0.72,2.3,1.97,3.77,3.42,4.71c1.97,1.29,4.6,1.74,7.76,0.77c5.64-1.73,14.94-9.95,22.74-16.89
		c-1.1,2.23-2.28,4.6-3.43,7.01c-2.83,5.95-5.44,12.2-6.52,17.64c-0.91,4.54-0.75,8.64,0.59,11.91c1.76,4.28,5.56,6.07,11.2,4.9
		c3.1-0.64,7.11-2.39,11.29-4.25c-8.62,16.49-23.83,48.47-23.18,80.95c0.05,2.68,1.12,4.46,2.55,5.7c1.59,1.38,4.08,2.19,7.26,1.77
		c1.19-0.16,2.65-0.56,4.23-1.11c-4.9,8.86-10.37,18.58-14.56,28.67c-6.9,16.59-10.32,34.14-3.75,50.76
		c1.07,2.71,4.14,4.04,6.84,2.97c2.71-1.07,4.04-4.14,2.96-6.84c-5.55-14.03-2.14-28.82,3.68-42.83
		c6.32-15.2,15.6-29.54,21.31-41.32c0.62-1.28,0.6-2.35,0.49-3.12c-0.21-1.46-0.91-2.59-2.01-3.44c-0.57-0.44-2.55-1.82-5.56-0.64
		c-1.47,0.58-6.46,3.44-11.1,5.27c-0.53,0.21-1.17,0.41-1.79,0.59c0.58-39.06,24.53-76.4,27.64-83.36c1.67-3.73-0.01-6.19-0.56-6.81
		c-1.09-1.23-2.63-2.12-4.94-1.72c-5.34,0.91-11.84,4.1-17.43,6.49c-1.65,0.71-3.84,1.36-5.18,1.73c-0.12-1.26,0.07-2.68,0.38-4.2
		c0.94-4.69,3.27-10.05,5.71-15.18c3.17-6.66,6.54-12.97,8.07-17.3c1.05-2.97,1.25-5.41,0.93-7.02c-0.51-2.52-1.91-3.89-3.52-4.66
		c-1.27-0.6-2.93-0.89-4.96-0.3c-2.72,0.78-7.85,4.74-13.45,9.72c-4.98,4.44-10.58,9.62-15.22,12.77c-0.73,0.49-1.64,0.98-2.41,1.36
		c-4.44-16.28-1.77-32.39,2.92-47.33c5.19-16.55,12.85-31.74,17.11-44.35c1.85-5.48-0.1-8.35-1.53-9.52
		c-1.56-1.27-4.74-2.1-8.75-0.12c-3.67,1.82-11.7,7.6-16.31,11c-0.59-5.1,0.21-11.69,1.57-18.91c4.93-26.3,18.7-59.86,20.33-67.15
		c0.89-3.99-1.1-6.14-1.83-6.71c-1.4-1.09-3.64-2.13-6.54-0.13c-6.26,4.31-12.24,11.81-17.04,17.75c-0.76,0.95-1.63,1.93-2.45,2.84
		c-0.26-5.14,1.63-11.31,4.14-17.8c6.02-15.61,16.55-32.64,20.69-43.57c1.62-4.28-0.04-6.7-0.97-7.63c-1.2-1.19-4.05-2.68-7.91-0.49
		c-3.89,2.2-13.51,11.41-21.74,17.04c-1.63,1.11-3.19,2.07-4.62,2.74c-0.35,0.16-0.8,0.32-1.19,0.44c-0.06-0.25-0.12-0.52-0.18-0.81
		c-0.32-1.5-0.45-3.34-0.45-5.46c-0.02-7.36,1.54-17.73,4.05-29.74c10.02-47.81,35.41-120.9,44.35-135.83
		c1.49-2.5,0.68-5.74-1.82-7.23c-2.5-1.49-5.74-0.68-7.23,1.82c-9.16,15.3-35.36,90.11-45.62,139.09
		c-3.17,15.16-4.79,27.93-4.11,35.91c0.4,4.67,1.69,8.05,3.38,10.07c2.49,2.96,6.55,3.95,11.72,1.98
		C1053.87,1349.44,1059.41,1345.41,1064.66,1341.21L1064.66,1341.21z"/>
	<path class="st84" d="M1119.78,1726.78c-2.66,5.81-5.75,11.82-8.38,17.49c-3.15,6.82-5.63,13.24-6.31,18.45
		c-0.51,3.89,0.51,6.24,1.63,7.59c1.65,2,4.19,3.07,7.68,2.28c2.43-0.55,5.92-2.46,9.67-4.8c4.13-2.59,8.69-5.86,12.17-6.52
		c2.86-0.55,4.73-3.31,4.19-6.17c-0.55-2.86-3.31-4.73-6.17-4.19c-4.27,0.82-10,4.3-15.12,7.52c-0.82,0.51-1.76,1.06-2.69,1.57
		c1.01-3.44,2.66-7.27,4.52-11.3c4.43-9.58,10.1-20.09,13.06-29.14c1.2-3.66-1.49-9.82-9.99-6.64c-5.62,2.1-17.31,8.83-27.14,16.74
		c-6.88,5.53-12.79,11.69-15.49,17.15c-1.29,2.61-0.22,5.77,2.39,7.06c2.61,1.29,5.77,0.22,7.06-2.39
		C1095.14,1742.83,1109.55,1732.64,1119.78,1726.78L1119.78,1726.78z"/>
	<path class="st84" d="M779.95,1103.87c-8.46,24.15-32.49,39.07-56.28,54.51c-25.84,16.76-51.47,34.03-61.03,61.09
		c-0.97,2.75,0.47,5.76,3.22,6.73c2.74,0.97,5.76-0.47,6.73-3.22c8.81-24.95,33-40.31,56.82-55.76
		c25.85-16.77,51.3-33.64,60.5-59.87c0.96-2.75-0.49-5.76-3.23-6.72C783.92,1099.68,780.91,1101.12,779.95,1103.87L779.95,1103.87z"
		/>
	<path class="st84" d="M708.76,1239.94c-14.99,9.23-37.93,38.21-45.08,49.19c-1.59,2.44-0.9,5.71,1.54,7.3
		c2.44,1.59,5.71,0.9,7.29-1.54c6.65-10.22,27.82-37.37,41.77-45.96c2.48-1.53,3.25-4.78,1.72-7.25
		C714.49,1239.19,711.24,1238.42,708.76,1239.94L708.76,1239.94z"/>
	<path class="st84" d="M673.43,1335.91c-8.27,28.66-27.78,40.85-42.55,54.14c-11.26,10.14-20.02,20.85-21.45,37.75
		c-0.24,2.9,1.91,5.45,4.81,5.7c2.9,0.24,5.45-1.91,5.69-4.81c1.49-17.69,13.24-26.87,25.89-37.62
		c14.43-12.27,30.19-26.11,37.73-52.22c0.81-2.79-0.81-5.72-3.6-6.53C677.16,1331.5,674.24,1333.11,673.43,1335.91L673.43,1335.91z"
		/>
	<path class="st84" d="M1054.43,879.11c-20.39,27.74-48.69,37.35-78.04,46.26c-31.18,9.47-63.53,18.14-90.19,43.69
		c-2.1,2.01-2.17,5.35-0.16,7.45c2.01,2.1,5.35,2.17,7.45,0.16c25.35-24.3,56.29-32.2,85.95-41.21c31.5-9.56,61.6-20.34,83.48-50.11
		c1.72-2.34,1.22-5.65-1.12-7.37C1059.45,876.26,1056.15,876.77,1054.43,879.11L1054.43,879.11z"/>
	<path class="st84" d="M1035.76,982.48c-22.46,34.5-49.03,51.41-71.32,69.64c-23.6,19.29-42.66,39.94-48.63,81.68
		c-0.41,2.88,1.59,5.55,4.47,5.97c2.88,0.41,5.55-1.59,5.97-4.47c5.48-38.38,23.17-57.27,44.86-75.01
		c23.01-18.81,50.29-36.43,73.48-72.04c1.59-2.44,0.9-5.71-1.54-7.3C1040.62,979.35,1037.35,980.04,1035.76,982.48L1035.76,982.48z"
		/>
	<path class="st84" d="M836.56,1267.08c0.9,33.97,14.03,60.04,27.43,87.14c19.13,38.7,38.64,79.67,18.97,151.89
		c-0.76,2.81,0.9,5.71,3.7,6.47c2.81,0.77,5.71-0.89,6.47-3.7c20.63-75.75,0.38-118.75-19.69-159.34
		c-12.74-25.76-25.49-50.45-26.34-82.75c-0.08-2.91-2.5-5.21-5.41-5.13C838.78,1261.75,836.49,1264.17,836.56,1267.08
		L836.56,1267.08z"/>
	<path class="st84" d="M820.83,1451.95c9.3,30.16,15.99,69.13,15.73,103.39c-0.17,22.24-3.21,42.48-10.65,56.75
		c-1.35,2.58-0.34,5.77,2.24,7.11c2.58,1.34,5.77,0.34,7.11-2.24c8.07-15.49,11.66-37.4,11.84-61.54
		c0.27-35.32-6.61-75.49-16.2-106.58c-0.86-2.78-3.81-4.34-6.59-3.49C821.53,1446.21,819.97,1449.16,820.83,1451.95L820.83,1451.95z
		"/>
	<path class="st84" d="M896.87,1574.36c1.74,20.41,0.3,50.35-19.49,83.73c-1.48,2.5-0.66,5.74,1.85,7.23
		c2.5,1.48,5.74,0.66,7.22-1.85c21.27-35.88,22.8-68.06,20.93-90c-0.25-2.9-2.8-5.05-5.7-4.8
		C898.77,1568.91,896.62,1571.46,896.87,1574.36L896.87,1574.36z"/>
	<path class="st84" d="M787.76,1317.16c-13.01,26.14-14.05,38.19-13.54,52.73c0.32,9.08,1.33,19.22,0.16,35.02
		c-0.21,2.9,1.97,5.43,4.87,5.65c2.9,0.21,5.43-1.97,5.64-4.87c1.2-16.32,0.19-26.78-0.14-36.16c-0.46-13.16,0.67-24.01,12.44-47.66
		c1.29-2.61,0.23-5.77-2.37-7.07C792.22,1313.5,789.05,1314.56,787.76,1317.16L787.76,1317.16z"/>
	<path class="st84" d="M668.55,1450.76c-1.47,53.01-28.16,76.13-51.73,98.09c-17.09,15.92-32.55,31.37-37.83,55.24
		c-0.63,2.84,1.17,5.66,4.01,6.29c2.84,0.63,5.66-1.17,6.29-4.01c6.06-27.39,27.37-42.24,47.14-61.52
		c21.35-20.82,41.35-46.18,42.66-93.8c0.08-2.91-2.22-5.34-5.12-5.42C671.05,1445.55,668.63,1447.85,668.55,1450.76L668.55,1450.76z
		"/>
	<path class="st84" d="M680.61,1601.96c-14.74,9.43-30.94,38.9-38.52,66.22c-5.25,18.9-6.15,36.73-0.93,46.51
		c1.37,2.57,4.57,3.54,7.13,2.17c2.57-1.37,3.54-4.57,2.17-7.13c-1.58-2.97-2.25-6.93-2.35-11.52c-0.18-7.86,1.41-17.36,4.14-27.2
		c6.85-24.65,20.75-51.65,34.05-60.17c2.45-1.57,3.17-4.83,1.6-7.28C686.33,1601.11,683.06,1600.39,680.61,1601.96L680.61,1601.96z"
		/>
	<path class="st84" d="M722.48,1656c-13.05,18.09-19.35,50.56-19.55,68.9c-0.03,2.91,2.3,5.3,5.21,5.33c2.91,0.03,5.3-2.3,5.33-5.21
		c0.19-16.7,5.67-46.36,17.56-62.84c1.7-2.36,1.17-5.66-1.19-7.36C727.48,1653.11,724.18,1653.64,722.48,1656L722.48,1656z"/>
	<path class="st84" d="M580.99,1465.67c-23.95,20.65-51.27,45.18-63.36,78.33c-1,2.73,0.41,5.76,3.15,6.76
		c2.73,1,5.76-0.41,6.76-3.15c11.45-31.41,37.65-54.39,60.34-73.96c2.2-1.9,2.45-5.23,0.55-7.44
		C586.52,1464.01,583.19,1463.77,580.99,1465.67L580.99,1465.67z"/>
	<path class="st84" d="M315.49,1683.26c-22.99-30.68-45.18-42.07-64.55-54.23c-18.02-11.32-33.39-23.39-44.08-55.04
		c-0.93-2.76-3.93-4.24-6.68-3.31c-2.76,0.93-4.24,3.93-3.31,6.68c11.77,34.83,28.64,48.15,48.47,60.6
		c18.49,11.6,39.77,22.35,61.71,51.62c1.75,2.33,5.05,2.8,7.38,1.06C316.76,1688.9,317.23,1685.59,315.49,1683.26L315.49,1683.26z"
		/>
	<path class="st84" d="M266.47,1594.33c-9.79-7.04-17.48-20.59-23.69-34.72c-10.01-22.78-16.08-47.24-19.14-52.81
		c-1.4-2.55-4.61-3.49-7.16-2.09c-2.55,1.4-3.49,4.61-2.09,7.16c3,5.48,8.88,29.58,18.73,51.99c7.03,15.99,16.1,31.07,27.19,39.04
		c2.36,1.7,5.66,1.16,7.36-1.2C269.37,1599.33,268.83,1596.03,266.47,1594.33L266.47,1594.33z"/>
	<path class="st84" d="M202.07,1444.78c-23.01-31.76-23.59-88.36-21.26-125.84c0.18-2.9-2.03-5.41-4.94-5.59
		c-2.9-0.18-5.41,2.03-5.59,4.94c-2.45,39.56-1.04,99.16,23.25,132.68c1.71,2.36,5.01,2.88,7.36,1.18
		C203.25,1450.43,203.78,1447.13,202.07,1444.78L202.07,1444.78z"/>
	<path class="st84" d="M292.86,1299.29c21.24,45.45,12.13,94.4,0.53,139.7c-0.72,2.82,0.98,5.69,3.8,6.42
		c2.82,0.72,5.69-0.98,6.41-3.8c12.18-47.6,21.12-99.02-1.2-146.78c-1.23-2.64-4.37-3.78-7.01-2.54
		C292.77,1293.51,291.63,1296.65,292.86,1299.29L292.86,1299.29z"/>
	<path class="st84" d="M310.23,1497.46c-3.96,37.81,4.68,59.89,21.51,93.72c1.3,2.61,4.46,3.67,7.07,2.37
		c2.61-1.3,3.67-4.46,2.37-7.07c-15.8-31.76-24.18-52.43-20.46-87.93c0.3-2.89-1.8-5.49-4.7-5.79
		C313.13,1492.46,310.54,1494.57,310.23,1497.46L310.23,1497.46z"/>
	<path class="st84" d="M365.45,1597.02c-3.31,20.69,6.82,34.42,17.62,47.54c8.97,10.9,18.64,21.21,16.78,36.89
		c-0.34,2.89,1.72,5.51,4.61,5.86c2.89,0.34,5.51-1.73,5.86-4.62c2.24-18.86-8.33-31.73-19.11-44.84
		c-8.96-10.89-18.09-22-15.35-39.17c0.46-2.87-1.5-5.58-4.37-6.04C368.61,1592.19,365.9,1594.14,365.45,1597.02L365.45,1597.02z"/>
	<path class="st84" d="M352.01,1480.54c-1.16-7.9,0.09-17.37,2.17-27.15c3.33-15.68,8.84-32.06,11.42-44.44
		c0.59-2.85-1.24-5.64-4.09-6.24c-2.85-0.59-5.64,1.24-6.23,4.09c-2.58,12.38-8.09,28.74-11.41,44.4
		c-2.36,11.12-3.6,21.91-2.28,30.88c0.42,2.88,3.1,4.87,5.98,4.45C350.44,1486.1,352.43,1483.42,352.01,1480.54L352.01,1480.54z"/>
	<path class="st84" d="M269,1518c2.82-8.16,3.16-17.35,1.9-27.17c-1.76-13.73-6.68-28.78-11.58-43.84
		c-3.92-12.05-7.82-24.11-9.85-35.49c-1.9-10.59-2.22-20.55,0.99-29.19c1.01-2.73-0.38-5.76-3.11-6.78
		c-2.73-1.01-5.77,0.38-6.78,3.11c-7.38,19.87,0.33,45.81,8.72,71.61c3.93,12.07,7.9,24.12,10.1,35.44
		c2.04,10.53,2.58,20.37-0.35,28.87c-0.95,2.75,0.51,5.75,3.26,6.7C265.05,1522.21,268.05,1520.75,269,1518L269,1518z"/>
	<path class="st84" d="M1002.47,1805.07c11.39-2.02,19.25-0.31,24.52,4.13c5.31,4.47,7.88,11.41,9.18,18.91
		c1.94,11.21,0.91,23.7-0.14,32.89c-0.33,2.89,1.75,5.51,4.64,5.84c2.89,0.33,5.51-1.75,5.84-4.64c1.14-10.02,2.17-23.66,0.05-35.89
		c-1.75-10.08-5.65-19.18-12.78-25.18c-7.16-6.03-17.68-9.2-33.15-6.45c-2.86,0.51-4.78,3.25-4.27,6.11
		C996.87,1803.67,999.61,1805.58,1002.47,1805.07L1002.47,1805.07z"/>
	<path class="st84" d="M1032.7,1780.85c14.78-0.57,22.01,7.83,25.76,19.42c2.86,8.84,3.84,19.4,4.35,29.8
		c0.14,2.91,2.61,5.15,5.52,5.01c2.91-0.14,5.15-2.62,5.01-5.52c-0.55-11.36-1.72-22.88-4.85-32.53
		c-5.23-16.16-15.58-27.5-36.2-26.71c-2.91,0.11-5.18,2.56-5.07,5.47C1027.34,1778.69,1029.79,1780.96,1032.7,1780.85
		L1032.7,1780.85z"/>
	<path class="st84" d="M1306.08,1889.53c14.36-0.12,21.47,8.52,24.9,18.77c2.55,7.62,3.21,16.1,3.17,23.13
		c-0.02,2.91,2.33,5.28,5.24,5.3c2.91,0.01,5.29-2.33,5.3-5.24c0.12-21.29-6.33-52.77-38.7-52.51c-2.91,0.02-5.25,2.41-5.23,5.32
		C1300.79,1887.21,1303.17,1889.55,1306.08,1889.53L1306.08,1889.53z"/>
	<path class="st84" d="M1328.13,1876.12c5.98-0.19,10.61,1.03,14.13,3.72c3.61,2.75,6.01,6.95,7.78,12.21
		c2.73,8.13,3.85,18.63,4.4,30.88c0.13,2.91,2.6,5.16,5.5,5.03c2.91-0.13,5.16-2.6,5.03-5.5c-0.6-13.41-1.95-24.87-4.93-33.77
		c-2.52-7.51-6.23-13.3-11.38-17.23c-5.23-3.99-11.99-6.15-20.86-5.88c-2.91,0.09-5.2,2.52-5.11,5.43
		C1322.78,1873.92,1325.22,1876.21,1328.13,1876.12L1328.13,1876.12z"/>
	<path class="st84" d="M1607.35,1767.56c7.27-0.8,12.48,0.08,16.24,2.85c3.77,2.78,5.93,7.29,7.54,12.98
		c2.57,9.07,3.54,20.87,4.93,34.45c0.3,2.9,2.89,5,5.78,4.71c2.9-0.3,5-2.89,4.71-5.78c-1.46-14.29-2.57-26.71-5.27-36.25
		c-2.35-8.27-5.95-14.55-11.43-18.6c-5.5-4.05-13.01-6.01-23.65-4.84c-2.89,0.32-4.98,2.93-4.66,5.82
		C1601.85,1765.79,1604.45,1767.88,1607.35,1767.56L1607.35,1767.56z"/>
	<path class="st84" d="M1637.42,1757.46c13.71,0.66,21.42,9.16,25.23,20.92c2.82,8.72,3.59,19.12,3.01,29.81
		c-0.16,2.91,2.08,5.39,4.98,5.55c2.9,0.16,5.39-2.07,5.55-4.98c1.71-31.62-8.19-60.38-38.25-61.84c-2.91-0.14-5.38,2.1-5.52,5.01
		C1632.27,1754.85,1634.51,1757.32,1637.42,1757.46L1637.42,1757.46z"/>
	<path class="st84" d="M1347.99,1863.85c5.1-1.28,9.32-0.94,12.81,0.72c5.54,2.64,9.11,8.29,11.65,14.64
		c4.8,12,5.67,26.73,5.43,33.8c-0.1,2.91,2.18,5.35,5.09,5.45c2.91,0.1,5.35-2.18,5.45-5.09c0.32-9.63-1.35-31.78-10.17-46.09
		c-6.66-10.82-17.02-17.62-32.83-13.64c-2.82,0.71-4.54,3.58-3.83,6.4C1342.3,1862.84,1345.17,1864.56,1347.99,1863.85
		L1347.99,1863.85z"/>
	<path class="st84" d="M1666.32,1745.72c6.4-0.83,10.61,2.69,13.46,7.88c5.48,9.95,6.51,25.38,5.88,36.59
		c-0.16,2.9,2.06,5.4,4.97,5.56c2.91,0.16,5.4-2.06,5.56-4.97c0.73-12.96-0.83-30.75-7.17-42.26c-5.02-9.13-12.79-14.71-24.05-13.26
		c-2.89,0.37-4.93,3.02-4.56,5.9C1660.79,1744.05,1663.43,1746.09,1666.32,1745.72L1666.32,1745.72z"/>
	<path class="st84" d="M1558.66,1438.62c-8.94,18.53-11.29,30.18-13.21,40.64c-2.68,14.6-4.48,26.7-24.6,54.21
		c-1.72,2.35-1.21,5.65,1.14,7.37c2.35,1.72,5.65,1.21,7.37-1.14c21.71-29.69,23.57-42.78,26.46-58.54
		c1.79-9.78,3.99-20.66,12.34-37.96c1.26-2.62,0.16-5.78-2.46-7.04C1563.08,1434.9,1559.93,1436,1558.66,1438.62L1558.66,1438.62z"
		/>
	<path class="st84" d="M1548.59,1541.86c-2.43,20.17-10.25,32.87-17.87,45.66c-8.32,13.96-16.41,27.99-18.54,50.2
		c-0.28,2.9,1.85,5.47,4.75,5.75c2.9,0.28,5.47-1.85,5.75-4.75c1.94-20.29,9.5-33.05,17.1-45.8c8.29-13.92,16.64-27.83,19.28-49.8
		c0.35-2.89-1.71-5.52-4.6-5.87C1551.57,1536.91,1548.94,1538.97,1548.59,1541.86L1548.59,1541.86z"/>
	<path class="st84" d="M1547.29,1627.23c0.04,7.12-1.94,14.34-3.78,21.45c-2.09,8.11-4,16.1-3.58,23.71
		c0.16,2.91,2.65,5.13,5.56,4.97c2.9-0.16,5.13-2.65,4.97-5.56c-0.36-6.59,1.45-13.48,3.26-20.5c2.07-8,4.16-16.14,4.11-24.15
		c-0.02-2.91-2.39-5.26-5.3-5.24C1549.62,1621.94,1547.28,1624.32,1547.29,1627.23L1547.29,1627.23z"/>
	<path class="st84" d="M1603.27,1368.04c6.51,34.74,4.04,55.27,2.22,74.9c-1.91,20.56-3.16,40.16,6.27,72.73
		c0.81,2.79,3.73,4.41,6.53,3.6c2.8-0.81,4.41-3.73,3.6-6.53c-8.92-30.81-7.71-49.36-5.9-68.82c1.9-20.39,4.41-41.73-2.35-77.82
		c-0.54-2.86-3.29-4.75-6.15-4.21C1604.62,1362.42,1602.74,1365.17,1603.27,1368.04L1603.27,1368.04z"/>
	<path class="st84" d="M1579.73,1514.32c5.87,17.56,3.09,37.11,3.78,53.87c0.53,12.85,3.05,24.19,10.99,32.57
		c2,2.11,5.34,2.2,7.45,0.2c2.11-2,2.2-5.34,0.2-7.45c-7.98-8.43-8.3-20.8-8.23-34.33c0.08-15.58,1.02-32.61-4.19-48.19
		c-0.92-2.76-3.91-4.25-6.67-3.33C1580.3,1508.57,1578.8,1511.56,1579.73,1514.32L1579.73,1514.32z"/>
	<path class="st84" d="M1576.21,1644.15c-3.99,26.76,1.57,55.47,20.38,73.76c2.08,2.03,5.43,1.98,7.46-0.1
		c2.03-2.09,1.98-5.43-0.1-7.46c-16.45-16-20.79-41.24-17.3-64.65c0.43-2.88-1.56-5.56-4.44-5.99
		C1579.32,1639.29,1576.64,1641.27,1576.21,1644.15L1576.21,1644.15z"/>
	<path class="st84" d="M1491.55,1541.38c-10.9,14.43-28.83,45.94-29.02,65.45c-0.03,2.91,2.31,5.3,5.22,5.32
		c2.91,0.03,5.3-2.31,5.32-5.22c0.17-17.72,16.99-46.09,26.89-59.2c1.75-2.32,1.29-5.63-1.03-7.38
		C1496.61,1538.59,1493.3,1539.06,1491.55,1541.38L1491.55,1541.38z"/>
	<path class="st84" d="M1519.79,1684.6c-1.51,14.95-7.48,25.11-12.46,34.39c-5.84,10.88-10.35,20.76-7.92,34.03
		c0.52,2.86,3.27,4.76,6.13,4.24c2.86-0.52,4.76-3.27,4.24-6.13c-1.95-10.63,2.17-18.43,6.84-27.15
		c5.54-10.32,11.98-21.68,13.66-38.31c0.29-2.89-1.82-5.48-4.72-5.78C1522.67,1679.6,1520.08,1681.71,1519.79,1684.6L1519.79,1684.6
		z"/>
	<path class="st84" d="M1152.44,1226.09c-0.92,33.88-18.44,57.18-40.18,96.66c-1.4,2.55-0.47,5.76,2.08,7.16
		c2.55,1.4,5.76,0.47,7.16-2.08c22.76-41.33,40.52-65.98,41.48-101.46c0.08-2.91-2.22-5.33-5.13-5.41
		C1154.95,1220.88,1152.52,1223.18,1152.44,1226.09L1152.44,1226.09z"/>
	<path class="st84" d="M1162.85,1313.7c-20.65,45.94-45.09,106.2-40.06,157.26c0.29,2.9,2.87,5.01,5.76,4.73
		c2.9-0.29,5.02-2.87,4.73-5.76c-4.87-49.36,19.23-107.49,39.18-151.9c1.19-2.65,0.01-5.78-2.65-6.97
		C1167.17,1309.86,1164.05,1311.04,1162.85,1313.7L1162.85,1313.7z"/>
	<path class="st84" d="M1217.78,1340.23c-5.73,39.68,3.59,73.18,27.04,103.57c1.78,2.3,5.09,2.73,7.4,0.95
		c2.3-1.78,2.73-5.09,0.95-7.39c-21.65-28.06-30.24-58.99-24.95-95.62c0.41-2.88-1.59-5.56-4.47-5.97
		C1220.88,1335.35,1218.2,1337.35,1217.78,1340.23L1217.78,1340.23z"/>
	<path class="st84" d="M1218.38,1466.08c-1.21,11.06,1.15,22.66,5.09,33.96c5.56,15.92,14.29,31.26,19.45,43.46
		c1.13,2.68,4.23,3.94,6.91,2.8c2.68-1.13,3.94-4.23,2.8-6.91c-4.26-10.08-11-22.32-16.31-35.26c-4.98-12.12-8.77-24.86-7.46-36.92
		c0.31-2.89-1.78-5.5-4.67-5.81C1221.3,1461.1,1218.69,1463.19,1218.38,1466.08L1218.38,1466.08z"/>
	<path class="st84" d="M1183.3,1546.32c-5.39,37.28-3.49,82.62-17.97,117.29c-1.12,2.69,0.15,5.78,2.83,6.9
		c2.69,1.12,5.78-0.15,6.9-2.83c14.8-35.44,13.17-81.74,18.67-119.85c0.42-2.88-1.58-5.56-4.47-5.97
		C1186.39,1541.44,1183.71,1543.44,1183.3,1546.32L1183.3,1546.32z"/>
	<path class="st84" d="M1207.6,1650.4c-8.32,46.32-19.47,103.57-2.63,141.86c1.17,2.66,4.28,3.88,6.95,2.71
		c2.66-1.17,3.88-4.29,2.7-6.95c-16.11-36.65-4.6-91.42,3.36-135.76c0.52-2.86-1.39-5.61-4.26-6.12
		C1210.85,1645.63,1208.11,1647.54,1207.6,1650.4L1207.6,1650.4z"/>
	<path class="st84" d="M1223.37,1730.56c-2.08,9.86,1.57,22.41,6.91,36.32c7.1,18.48,17.11,39.73,15.4,60.24
		c-0.24,2.9,1.92,5.45,4.82,5.69c2.9,0.24,5.45-1.92,5.69-4.82c1.84-22.05-8.43-45.02-16.06-64.9c-4.48-11.67-8.18-22.08-6.43-30.36
		c0.6-2.85-1.22-5.65-4.07-6.25C1226.77,1725.89,1223.97,1727.71,1223.37,1730.56L1223.37,1730.56z"/>
	<path class="st84" d="M1236.29,1604.86c-2.02,22.24,14.28,64,25.86,81.51c1.61,2.43,4.88,3.09,7.31,1.49
		c2.43-1.6,3.1-4.88,1.49-7.31c-10.64-16.08-26.01-54.31-24.15-74.74c0.26-2.9-1.88-5.46-4.77-5.73
		C1239.12,1599.82,1236.55,1601.96,1236.29,1604.86L1236.29,1604.86z"/>
	<path class="st84" d="M1171.33,1773.76c2.6,15.8-3.74,53.21-11.41,66.22c-1.48,2.51-0.64,5.74,1.86,7.22
		c2.51,1.48,5.74,0.64,7.22-1.86c8.49-14.4,15.6-55.79,12.73-73.28c-0.47-2.87-3.19-4.82-6.06-4.35
		C1172.8,1768.17,1170.86,1770.89,1171.33,1773.76L1171.33,1773.76z"/>
	<path class="st84" d="M1213.46,1814.75c2.93,18.84-2.83,40.1-9.76,48.84c-1.81,2.28-1.42,5.6,0.86,7.41
		c2.28,1.81,5.6,1.42,7.41-0.86c8.1-10.21,15.34-34.98,11.91-57.01c-0.45-2.87-3.14-4.85-6.02-4.4
		C1214.99,1809.18,1213.02,1811.87,1213.46,1814.75L1213.46,1814.75z"/>
	<path class="st84" d="M760.46,1513.65c-8.4,23.94-10.93,67.48-14.19,94.18c-0.35,2.89,1.71,5.52,4.6,5.87
		c2.89,0.35,5.52-1.71,5.87-4.6c3.18-26.07,5.47-68.6,13.67-91.97c0.96-2.74-0.48-5.76-3.23-6.72
		C764.44,1509.46,761.43,1510.9,760.46,1513.65L760.46,1513.65z"/>
	<path class="st82" d="M1089.55,381.17c-1.22-13.21-38.18-20.74-56.96-18.75c-24.46,2.59-56.58,8.5-56.11,25.65
		c0.55,19.65,28.18,40.54,54.08,39.9C1067.61,427.05,1090.85,395.21,1089.55,381.17L1089.55,381.17z"/>
	<path class="st82" d="M1023.17,408.6c4.47,25.85,6,73.6-3.98,106.5c-5.94,19.61-15.66,34.13-32.94,32.2
		c-2.89-0.32-5.5,1.76-5.82,4.66c-0.32,2.89,1.76,5.5,4.66,5.82c22.26,2.48,36.54-14.36,44.2-39.62
		c10.43-34.4,8.95-84.32,4.27-111.35c-0.5-2.87-3.23-4.79-6.09-4.3C1024.6,403,1022.67,405.73,1023.17,408.6L1023.17,408.6z"/>
	<path class="st82" d="M1029.71,415.7c1.64,12.16,4.48,45.58,13.74,75.16c6.5,20.76,16.29,39.55,30.46,48.87
		c18.94,12.47,49.38,16.75,81.69,16.03c47.38-1.06,98.72-12.58,121.84-22.17c2.69-1.12,3.96-4.2,2.85-6.89
		c-1.11-2.69-4.2-3.96-6.89-2.85c-22.4,9.29-72.15,20.35-118.04,21.37c-29.88,0.67-58.14-2.77-75.66-14.3
		c-12.44-8.19-20.5-25-26.2-43.22c-9.04-28.89-11.75-61.54-13.35-73.42c-0.39-2.88-3.04-4.91-5.93-4.52
		C1031.35,410.16,1029.32,412.81,1029.71,415.7L1029.71,415.7z"/>
	<path class="st84" d="M1173.75,173.77c-3.65-6.21-21.14-18.95-29.19-14.75c-0.38,0.2,0.42,0.73,1.3,2.08
		c0.68,1.04,0.79,2.08,0.51,2.1c-5.13,0.35-11.03-2.98-16.68-3.55c-10.1-1.01-15.06,2.15-17.96,4.34c-1.02,0.77,1.91,1.13,4.24,1.99
		c2.13,0.79,3.69,2.1,2.54,2.16c-9.54,0.44-22.33,3.5-31.47,11.14c-4.9,4.09-7.17,11.28-3.34,10.46c4.04-0.86,5.06-0.16,5.06-0.16
		s-8.04,6.72-10.01,15.81c-1.04,4.83,4.25,7.37,7.01,7.22c17.14-0.95,23.85-12.06,36.48-15.06c1.65-0.39,1.19,0.67,0.3,2.02
		c-0.77,1.17-3.3,2.9-5.11,4.13c-1.29,0.87,6.25,3.12,13.61,0.49c4.52-1.62,9.14-6.04,15.08-7.86c8.89-2.74,20.8,2.41,28.09-7.46
		C1176.24,186.14,1176.67,178.74,1173.75,173.77L1173.75,173.77z"/>
	<path class="st84" d="M1283.76,178.23c7.35-10.21,28.45-18.75,37.67-15.73c0.92,0.3-1.4,1.22-2.86,3.22
		c-1.25,1.71-1.37,2.15-1.37,2.15s6.77-3.2,10.98-3.77c19.18-2.62,25.45,1.83,39.53,11.22c3.3,2.2,9.79,6.45,11.59,12.22
		c0.09,0.29-1.5-0.33-3.13-0.19c-1.21,0.11-1.97,0.61-1.97,0.61s4.83,1.73,8.83,4.46c4.21,2.88,7.24,7.44,5.02,10.64
		c-4.55,6.56-19.83,4.26-25.81,2.52c-3.03-0.88-10.44-2.47-10.14-2.32c2.42,1.26,11.01,1.63,10.09,6.67
		c-0.12,0.64-2.63-0.88-4.82-1.09c-6.51-0.64-21.44-3.15-27.83-4.67c-19.17-4.56-28.64,1.76-40.86-4.56
		C1277.54,193.85,1280.41,182.89,1283.76,178.23L1283.76,178.23z"/>
	<path class="st82" d="M1128.05,216.15c8.57-0.48,16.13,10,16.87,23.37c0.74,13.37-5.61,24.62-14.19,25.09
		c-8.57,0.48-16.13-10-16.87-23.37C1113.12,227.87,1119.48,216.63,1128.05,216.15L1128.05,216.15z"/>
	<path class="st82" d="M1315.5,216.95c8.57-0.48,16.13,10,16.87,23.37c0.74,13.37-5.62,24.62-14.19,25.09
		c-8.57,0.48-16.13-10-16.87-23.37C1300.57,228.66,1306.93,217.42,1315.5,216.95L1315.5,216.95z"/>
	<path class="st84" d="M1014.43,1684.67c0.18-0.76,0.38-1.52,0.6-2.22c1.89-6.12,4.78-13.46,6.57-18.82
		c0.92-2.75,1.55-5.06,1.76-6.61c0.2-1.44,0.09-2.57-0.11-3.35c-0.53-2.08-1.79-3.26-3.2-3.91c-1.17-0.54-2.74-0.86-4.73-0.09
		c-1.09,0.42-2.45,1.33-3.82,2.95c-1.62,1.91-3.66,5.31-6.04,9.55c-4.23,7.52-9.81,17.97-16.79,26.51
		c-3.56,4.36-7.47,8.23-11.81,10.75c-0.07-0.49-0.14-0.98-0.16-1.42c-0.26-4.8,0.39-10.6,0.42-13.1c0.02-1.94-0.45-3.22-0.72-3.73
		c-0.91-1.71-2.24-2.41-3.46-2.72c-1.01-0.25-4.37-0.82-6.42,3.3c-6.48,13.01-21.82,44.99-69.42,58.25
		c-2.8,0.78-4.44,3.69-3.66,6.49c0.78,2.8,3.69,4.44,6.49,3.66c37.02-10.32,56.23-30.95,66.8-47.14c0.74,3.31,2.3,5.68,4.09,6.87
		c1.99,1.32,4.54,1.87,7.8,0.44c9.56-4.19,17.79-13.7,24.5-23.66c-0.36,2.39-0.33,4.36,0,5.71c0.45,1.79,1.36,3.06,2.46,3.93
		c1.26,1,2.87,1.61,4.98,1.39c4.94-0.51,11.08-4.48,17.29-11.25c5.87-6.4,12.12-15.32,18.07-25.01c-0.68,4.42-0.91,7.85-0.66,9.29
		c0.43,2.47,1.82,3.66,2.83,4.25c1.52,0.88,3.36,1.21,5.51,0.02c20.52-11.39,36.74-24.76,44.9-42.96c1.19-2.66,0-5.78-2.66-6.97
		c-2.66-1.19-5.78,0-6.97,2.66c-6.16,13.76-17.7,24.19-32.2,33.24c1.87-10.74,5.61-26.63,6.64-31.05c0.22-0.96,0.34-1.53,0.35-1.61
		c0.65-4.41-3.22-5.68-3.61-5.8c-1.19-0.38-2.54-0.42-4.01,0.33c-0.45,0.23-1.55,0.76-2.34,2.39c-8.92,18.34-22.02,41.44-33.63,54.1
		C1018.14,1681.46,1016.24,1683.27,1014.43,1684.67L1014.43,1684.67z"/>
	<path class="st84" d="M1313.47,1599.61c-1.91-2.36-3.98-5.15-6.06-7.57c-3.22-3.73-6.62-6.61-9.47-7.55
		c-1.95-0.64-3.6-0.23-5.02,0.93c-0.6,0.49-1.26,1.22-1.66,2.39c-0.13,0.37-0.46,1.7-0.08,3.81c0.89,4.9,5.86,23.95,8.29,37.27
		c-1.92-2.29-3.81-4.58-5.38-6.32c-1.87-2.07-3.55-3.46-4.55-3.97c-1.13-0.58-2.16-0.73-2.96-0.71c-1.7,0.04-3.07,0.71-4.13,1.94
		c-0.67,0.78-1.43,2.03-1.43,4.06c0,1.39,0.86,5.58,2.27,11.25c2.87,11.55,7.87,30.26,9.07,42.08c2.01,19.89-0.22,48.96-3.6,64.36
		c-2.03-5.65-4.01-12.2-5.8-16.87c-1.03-2.7-2.05-4.87-2.94-6.22c-0.8-1.2-1.64-1.99-2.37-2.48c-1.74-1.17-3.46-1.3-5.06-0.86
		c-1.46,0.41-3.97,1.84-5.08,6.37c-4.7,19.04,0.83,53.17,6.11,84.84c0.48,2.87,3.2,4.81,6.07,4.33c2.87-0.48,4.81-3.2,4.33-6.07
		c-3.97-23.83-8.39-49.1-7.84-67.57c2.15,6.43,4.46,13.52,6.71,17.69c1.56,2.89,3.62,3.85,5.22,4.11c2.23,0.37,5.52-0.49,7.73-4.82
		c4.99-9.79,9.68-51.4,7-77.86c-0.99-9.83-4.49-24.28-7.38-35.79c0.92,1.02,1.81,1.95,2.61,2.72c1.88,1.8,3.64,2.88,4.86,3.27
		c1.81,0.58,3.35,0.35,4.6-0.22c1.36-0.63,2.64-1.74,3.29-3.82c0.66-2.08,0.4-7.6-0.83-14.51c-1.16-6.5-2.98-14.5-4.64-21.59
		c1.79,2.2,3.46,4.16,4.91,5.4c3.42,2.93,6.73,3.03,9,1.9c1.26-0.63,2.53-1.73,3.43-3.72c0.81-1.79,1.44-5.1,1.31-10.49
		c-0.99-43.77,0.69-86.93-10.98-136.87c-0.66-2.83-3.5-4.6-6.33-3.93c-2.83,0.66-4.6,3.5-3.93,6.33
		c11.49,49.15,9.74,91.63,10.71,134.71L1313.47,1599.61L1313.47,1599.61z"/>
</g>
</svg>
