<?xml version="1.0" encoding="utf-8"?>
<!-- Generator: Adobe Illustrator 26.4.1, SVG Export Plug-In . SVG Version: 6.00 Build 0)  -->
<svg version="1.1" id="Layer_1" xmlns="http://www.w3.org/2000/svg" xmlns:xlink="http://www.w3.org/1999/xlink" x="0px" y="0px"
	 viewBox="0 0 2000 2000" style="enable-background:new 0 0 2000 2000;" xml:space="preserve">
<style type="text/css">
	.st0{fill-rule:evenodd;clip-rule:evenodd;fill:#F49E23;}
	.st1{fill-rule:evenodd;clip-rule:evenodd;fill:#D14D36;}
	.st2{fill-rule:evenodd;clip-rule:evenodd;fill:#FDF0D3;}
	.st3{fill-rule:evenodd;clip-rule:evenodd;fill:#0C427E;}
	.st4{fill-rule:evenodd;clip-rule:evenodd;fill:#B45A25;}
	.st5{fill-rule:evenodd;clip-rule:evenodd;fill:#EC8C28;}
	.st6{fill-rule:evenodd;clip-rule:evenodd;fill:#EE9726;}
	.st7{fill-rule:evenodd;clip-rule:evenodd;fill:#302574;}
	.st8{fill-rule:evenodd;clip-rule:evenodd;fill:#F3B953;}
	.st9{fill-rule:evenodd;clip-rule:evenodd;fill:#3D648F;}
	.st10{fill-rule:evenodd;clip-rule:evenodd;fill:#145468;}
	.st11{fill-rule:evenodd;clip-rule:evenodd;fill:#3B7A7A;}
	.st12{fill-rule:evenodd;clip-rule:evenodd;fill:#098B8D;}
	.st13{fill-rule:evenodd;clip-rule:evenodd;fill:#689595;}
	.st14{fill-rule:evenodd;clip-rule:evenodd;fill:#679595;}
	.st15{fill-rule:evenodd;clip-rule:evenodd;fill:#CEE4E4;}
	
		.st16{fill-rule:evenodd;clip-rule:evenodd;fill:#145468;stroke:#CEE4E4;stroke-width:5;stroke-linecap:round;stroke-linejoin:round;stroke-miterlimit:10;}
	.st17{fill-rule:evenodd;clip-rule:evenodd;fill:#043A60;}
	.st18{fill-rule:evenodd;clip-rule:evenodd;fill:#FD9A65;}
	.st19{fill-rule:evenodd;clip-rule:evenodd;fill:#18658D;}
	.st20{fill-rule:evenodd;clip-rule:evenodd;fill:#9FCDE5;}
	.st21{fill-rule:evenodd;clip-rule:evenodd;fill:#56A8D3;}
	.st22{fill-rule:evenodd;clip-rule:evenodd;fill:#276383;}
	.st23{fill-rule:evenodd;clip-rule:evenodd;fill:#E0F0F8;}
	.st24{fill-rule:evenodd;clip-rule:evenodd;fill:#A51E1C;}
	.st25{fill-rule:evenodd;clip-rule:evenodd;fill:#CB442D;}
	.st26{fill-rule:evenodd;clip-rule:evenodd;fill:#DC5A44;}
	.st27{fill-rule:evenodd;clip-rule:evenodd;fill:#F7BD54;}
	.st28{fill-rule:evenodd;clip-rule:evenodd;fill:#E46B37;}
	.st29{fill-rule:evenodd;clip-rule:evenodd;fill:#B67227;}
	.st30{fill-rule:evenodd;clip-rule:evenodd;fill:#D78A35;}
	.st31{fill-rule:evenodd;clip-rule:evenodd;fill:#A4331F;}
	.st32{fill-rule:evenodd;clip-rule:evenodd;fill:#F2A550;}
	.st33{fill-rule:evenodd;clip-rule:evenodd;fill:#F9E9D6;}
	.st34{fill-rule:evenodd;clip-rule:evenodd;fill:#844013;}
	.st35{fill-rule:evenodd;clip-rule:evenodd;fill:#A04E18;}
	.st36{fill-rule:evenodd;clip-rule:evenodd;fill:#F8B872;}
	.st37{fill-rule:evenodd;clip-rule:evenodd;fill:#FFC689;}
	.st38{fill-rule:evenodd;clip-rule:evenodd;fill:#B6844D;}
	.st39{fill-rule:evenodd;clip-rule:evenodd;fill:#CA5320;}
	.st40{fill-rule:evenodd;clip-rule:evenodd;fill:#D76332;}
	.st41{fill-rule:evenodd;clip-rule:evenodd;fill:#812F0C;}
	.st42{fill-rule:evenodd;clip-rule:evenodd;fill:#8A460F;}
	.st43{fill-rule:evenodd;clip-rule:evenodd;fill:#B46914;}
	.st44{fill-rule:evenodd;clip-rule:evenodd;fill:#B54515;}
	.st45{fill-rule:evenodd;clip-rule:evenodd;fill:#FFCD71;}
	.st46{fill-rule:evenodd;clip-rule:evenodd;fill:#95B41D;}
	.st47{fill-rule:evenodd;clip-rule:evenodd;fill:#A8C731;}
	.st48{fill-rule:evenodd;clip-rule:evenodd;fill:#85A214;}
	.st49{fill-rule:evenodd;clip-rule:evenodd;fill:#C6EF28;}
	.st50{fill-rule:evenodd;clip-rule:evenodd;fill:#ED982B;}
	.st51{fill-rule:evenodd;clip-rule:evenodd;fill:#FCCF7C;}
	.st52{fill-rule:evenodd;clip-rule:evenodd;fill:#FFE8BC;}
	.st53{fill-rule:evenodd;clip-rule:evenodd;fill:#ED6961;}
	.st54{fill-rule:evenodd;clip-rule:evenodd;fill:#696E1E;}
	.st55{fill-rule:evenodd;clip-rule:evenodd;fill:#9CA42A;}
	.st56{fill-rule:evenodd;clip-rule:evenodd;fill:#7F8615;}
	.st57{fill-rule:evenodd;clip-rule:evenodd;fill:#FFEECF;}
	.st58{fill-rule:evenodd;clip-rule:evenodd;fill:#77786D;}
	.st59{fill-rule:evenodd;clip-rule:evenodd;fill:#D3D5C6;}
	.st60{fill-rule:evenodd;clip-rule:evenodd;fill:#7C7A7A;}
	.st61{fill-rule:evenodd;clip-rule:evenodd;fill:#DBDCD9;}
	.st62{fill-rule:evenodd;clip-rule:evenodd;fill:#CA372D;}
	.st63{fill-rule:evenodd;clip-rule:evenodd;fill:#FE7D75;}
	.st64{fill-rule:evenodd;clip-rule:evenodd;fill:#B0B0B0;}
	.st65{fill-rule:evenodd;clip-rule:evenodd;fill:#888787;}
	.st66{fill-rule:evenodd;clip-rule:evenodd;fill:#6E6E6E;}
	.st67{fill-rule:evenodd;clip-rule:evenodd;fill:#757575;}
	.st68{fill-rule:evenodd;clip-rule:evenodd;fill:#60341E;}
	.st69{fill-rule:evenodd;clip-rule:evenodd;fill:#B0451B;}
	.st70{fill-rule:evenodd;clip-rule:evenodd;fill:#8A4727;}
	.st71{fill-rule:evenodd;clip-rule:evenodd;fill:#FABB64;}
	.st72{fill-rule:evenodd;clip-rule:evenodd;fill:#3E88AF;}
	.st73{fill-rule:evenodd;clip-rule:evenodd;fill:#5BA0C5;}
	.st74{fill-rule:evenodd;clip-rule:evenodd;fill:#FFF1DE;}
	.st75{fill-rule:evenodd;clip-rule:evenodd;fill:#F8B89B;}
	.st76{fill-rule:evenodd;clip-rule:evenodd;fill:#E98A5F;}
	.st77{fill-rule:evenodd;clip-rule:evenodd;fill:#FFCAB3;}
	.st78{fill-rule:evenodd;clip-rule:evenodd;fill:#F9A580;}
	.st79{fill-rule:evenodd;clip-rule:evenodd;fill:#FFDFD2;}
	.st80{fill-rule:evenodd;clip-rule:evenodd;fill:#E2A85C;}
	.st81{fill-rule:evenodd;clip-rule:evenodd;fill:#C68446;}
	.st82{fill-rule:evenodd;clip-rule:evenodd;fill:#F2BC75;}
	.st83{fill-rule:evenodd;clip-rule:evenodd;fill:#F2BC76;}
	.st84{fill-rule:evenodd;clip-rule:evenodd;fill:#FFD69F;}
	.st85{fill-rule:evenodd;clip-rule:evenodd;fill:#E7624B;}
	.st86{fill-rule:evenodd;clip-rule:evenodd;fill:#F6E8DB;}
	.st87{fill-rule:evenodd;clip-rule:evenodd;fill:#FC9EB6;}
	.st88{fill-rule:evenodd;clip-rule:evenodd;fill:#FFFFFF;}
</style>
<g>
	<path class="st27" d="M893.72,1051.49c-12.11,3.37-31.33-15.71-32.74-18.71c-21.73-46.24-1.98-63.23-1.98-63.23
		s-10.18-18.56-7.84-40.3c2.91-27.11,11.31-33.47,11.31-33.47s-13.05-33.17-17.32-47.8c-7.37-25.26,3.92-41.23,3.92-41.23
		s-20.89-18.71-22.66-48.6c-1.27-21.46,9.14-42.24,9.14-42.24s-8.57-30.84-9.74-55.64c-1.69-35.86,17.83-59.57,17.83-59.57
		s-12.88-25.99-10.52-52.05c4.66-51.55,40.35-69.39,40.35-69.39s-21.12-29.03-10.03-62.97c7.61-23.32,31.71-39.83,31.71-39.83
		s-2.68-30.33,23.54-57.8c19.01-19.92,42.14-27.96,42.14-27.96s7.67-31.15,32.21-55.26c27.86-27.39,55.85-28.27,55.85-28.27
		s33.59-40.9,79.51-45.48c28.87-2.88,52.81,7.36,52.81,7.36s42.91-11.55,66.04-1.71c35.5,15.11,44.09,42.17,44.09,42.17
		s26.33,1.19,42.47,20.44c21.64,25.81,23.32,68.25,23.32,68.25s25.85,18.38,29.84,45.66c3.7,25.27-11.44,54.31-11.44,54.31
		s20.54,22.25,21.31,48.25c0.82,27.47-21.12,69.25-21.12,69.25s14.88,44.62,0.08,92.25c-14.79,47.6-49.36,75.65-49.36,75.65
		s-3.54,53.35-21.8,87.34c-18.81,35.02-51.99,54.38-51.99,54.38s9.28,30.94-6.86,57.99c-21.47,35.99-49.27,44.19-49.27,44.19
		s-3.26,39.62-26.16,61.64c-24.3,23.37-53.65,31.18-53.65,31.18s-1.2,31.45-36.8,61.25c-28.52,23.88-75.41,30.39-89.49,26.06
		c-22.03-6.78-64.42-10.64-63.93-37.42c0.64-34.84,26.5-56.13,26.5-56.13s4.9-28.74,18.1-45.72c13.75-17.67,33.35-22.89,33.35-22.89
		s-6.18-21.47,4.55-52.13c10.71-30.61,40.67-41.42,40.67-41.42s-5.22-32.05,17.81-64.29c17.37-24.33,41.44-23.02,41.44-23.02
		s-7.06-26.83,6.24-56.13c13.43-29.59,37.42-35.86,37.42-35.86s-2.62-19.19,6.99-41.98c13.43-31.85,35.22-42.33,35.22-42.33
		s-1.44-25.42,8.2-51.53c12.01-32.55,40.69-50.43,40.69-50.43s-15.28-29.59-10.06-64.87c4.79-32.37,17.2-48.22,17.2-48.22
		s-14.59-13.64-21.2-34.42c-6.82-21.46-3.75-41.97-3.75-41.97s-9.87-0.06-26.03-8.95c-11.21-6.16-21.13-14.44-21.13-14.44
		s-8.54,8.25-28.26,20.38c-17.02,10.47-35.74,7.33-35.74,7.33c4.75,1.1-10.24,25.43-18.97,33.69
		c-14.68,13.88-37.37,18.51-37.37,18.51s6.21,19.66-8.34,43.79c-11.54,19.15-31.18,28.47-31.18,28.47s4.15,24.08-3.69,41.11
		c-7.59,16.48-25.03,33.72-25.03,33.72s5.99,21.23,3.28,46.97c-2.58,24.43-10.14,36.79-10.14,36.79s14.03,18.14,12.32,41.22
		c-3.3,44.31-18.46,54.1-18.46,54.1s13.47,19.71,9.7,54.9c-2.46,22.94-23.42,56.92-23.42,56.92s8.83,35.91,6.87,54.44
		c-2.9,27.36-17.49,41.29-17.49,41.29s3.6,36.25,1.87,47.31c-4.44,28.3-20.35,37.58-20.35,37.58s13.17,18.05,3.76,39.4
		C928.78,1032.36,906.57,1047.92,893.72,1051.49L893.72,1051.49z"/>
	<path class="st50" d="M756.23,1430.72c-0.47,1.82-1.05,3.68-1.69,5.5c-1.19,3.46-2.65,6.91-4.37,10.4
		c-5.72,11.72-14.24,23.53-24.94,35.06c-38.29,41.34-103.71,80.29-149.58,100.53c-49.33,21.76-95.28,64.89-117.87,112.01
		c-14.35,29.94-19.24,61.52-8.18,89.83c2.24,5.67-0.58,12.08-6.28,14.32c-5.67,2.21-12.08-0.61-14.32-6.28
		c-13.22-33.84-8.32-71.64,8.85-107.45c24.69-51.54,74.87-98.87,128.87-122.68c43.58-19.22,105.9-56.05,142.28-95.31
		c7.47-8.07,13.85-16.2,18.58-24.28c2.46-4.18,4.45-8.35,5.97-12.53c0.36-1.02,0.72-2.02,1-3.04c0.36-1.16,0.69-2.32,0.94-3.48
		c1.8-8.1,1.3-15.98-2.41-23.42c-1.91-3.79-1.41-8.13,0.94-11.36c0.97-1.44,2.32-2.63,4.01-3.46c5.45-2.74,12.11-0.53,14.82,4.95
		c0.72,1.44,1.38,2.88,1.94,4.34C759.38,1405.92,759.6,1418.17,756.23,1430.72z"/>
	<path class="st50" d="M763.77,1419.58c2.88,18.97-6.66,39.62-24.6,62.73c-29.92,38.55-83.1,82.34-150.71,132.13
		c-74.89,55.16-96.84,121.47-88.38,176.37c0.93,6.03,6.58,10.18,12.61,9.25c6.03-0.93,10.18-6.58,9.25-12.62
		c-7.48-48.54,13.42-106.42,79.64-155.19c69.66-51.3,124.24-96.66,155.07-136.38c22.56-29.07,32.62-55.76,29-79.61
		c-0.92-6.04-6.56-10.19-12.59-9.28C767.01,1407.91,762.85,1413.55,763.77,1419.58L763.77,1419.58z"/>
	<path class="st50" d="M761.53,1434.87c-27.58,51.98-77.05,84.95-128.49,116c-54.23,32.73-110.7,63.3-149.39,108.58
		c-3.96,4.64-3.41,11.63,1.22,15.59c4.64,3.96,11.63,3.42,15.59-1.22c37.21-43.56,91.84-72.53,144-104.01
		c54.94-33.16,107.15-69.06,136.6-124.57c2.86-5.39,0.81-12.09-4.59-14.95C771.1,1427.42,764.4,1429.47,761.53,1434.87
		L761.53,1434.87z"/>
	<path class="st50" d="M784.05,1418.85c11.66,32.5,5.26,61.79-10.44,89.66c-16.85,29.93-44.07,58.22-72.62,86.93
		c-29.7,29.87-60.85,60.12-84.33,92.62c-24.64,34.09-40.88,70.69-39.7,111.63c0.18,6.1,5.27,10.91,11.37,10.74
		c6.1-0.18,10.91-5.27,10.74-11.37c-1.04-36.03,13.83-68.03,35.52-98.03c22.83-31.6,53.21-60.93,82.09-89.98
		c30.04-30.21,58.47-60.17,76.21-91.67c18.89-33.55,26.01-68.87,11.98-107.98c-2.06-5.75-8.4-8.74-14.15-6.68
		C784.98,1406.76,781.99,1413.1,784.05,1418.85L784.05,1418.85z"/>
	<path class="st50" d="M818.12,1451.76c-24.97,55.07-71.53,181.69-69.05,271.22c1.16,41.87,13.27,75.87,40.3,93.58
		c5.11,3.35,11.97,1.92,15.31-3.19c3.35-5.1,1.92-11.97-3.19-15.31c-13.95-9.14-22.05-24.25-26.39-42.77
		c-4.81-20.48-4.97-44.96-2.26-71.09c8.42-81.18,44.72-177.64,65.43-223.31c2.52-5.56,0.05-12.12-5.51-14.64
		C827.2,1443.74,820.64,1446.2,818.12,1451.76L818.12,1451.76z"/>
	<path class="st50" d="M835.28,1438.51c-13.7,48.71-32.57,98.6-40.35,148.59c-8.11,52.11-4.39,104.32,27.82,155.64
		c3.24,5.17,10.07,6.73,15.25,3.49c5.17-3.24,6.73-10.08,3.49-15.25c-29.06-46.29-32.01-93.46-24.69-140.47
		c7.65-49.13,26.32-98.12,39.78-146c1.65-5.88-1.78-11.99-7.65-13.64C843.04,1429.2,836.93,1432.63,835.28,1438.51L835.28,1438.51z"
		/>
	<path class="st50" d="M800.61,1421.77c-5.31,58.66-39.09,127.83-69.74,177.44c-21.27,34.42-58.25,73.87-80.05,115.48
		c-23.83,45.47-30.46,93.31,12.92,140.54c4.13,4.5,11.13,4.79,15.62,0.66c4.5-4.13,4.79-11.13,0.67-15.63
		c-35.57-38.73-29.15-78.03-9.62-115.32c21.56-41.15,58.25-80.08,79.28-114.12c32.28-52.25,67.37-125.29,72.96-187.07
		c0.55-6.08-3.94-11.46-10.02-12.01C806.54,1411.2,801.16,1415.69,800.61,1421.77L800.61,1421.77z"/>
	<path class="st50" d="M835.39,1451.76c-28.19,78.36-15.07,136.1,1.69,187.81c15.44,47.65,34.81,89.64,21.57,139.62
		c-1.56,5.9,1.96,11.96,7.86,13.52c5.9,1.57,11.96-1.96,13.52-7.86c11.65-43.99,1.32-82.48-12.16-122.93
		c-18.52-55.6-43.08-115.34-11.66-202.68c2.07-5.74-0.92-12.08-6.66-14.15C843.79,1443.03,837.45,1446.02,835.39,1451.76
		L835.39,1451.76z"/>
	<path class="st50" d="M854.52,1429.43c-19.83,25.97-17.81,66.25-6.13,108.47c15.78,57.04,48.42,117.79,51.62,144.3
		c6.72,55.63-3.24,100.78-32.05,147.97c-3.18,5.21-1.53,12.02,3.67,15.2c5.21,3.18,12.02,1.53,15.2-3.67
		c31.58-51.72,42.49-101.19,35.13-162.15c-3.27-27.08-36.15-89.28-52.27-147.55c-5.02-18.16-8.35-35.91-8.22-51.91
		c0.12-14.35,2.97-27.22,10.62-37.23c3.7-4.85,2.77-11.8-2.08-15.5C865.17,1423.65,858.22,1424.58,854.52,1429.43L854.52,1429.43z"
		/>
	<path class="st50" d="M855.73,1453.45c-2.17,9.72-1.24,21.02,2.28,33.38c4.63,16.25,13.78,34.68,24.59,53.83
		c15.38,27.24,34.15,56.09,46.61,82.14c7.52,15.73,12.82,30.24,12.67,42.52c-0.07,6.1,4.82,11.12,10.93,11.19
		c6.1,0.07,11.12-4.82,11.19-10.93c0.15-12.7-3.89-27.45-10.72-43.29c-9.35-21.7-23.92-45.78-38.04-69.56
		c-13.47-22.69-26.55-45.09-33.61-64.74c-4.02-11.19-6.19-21.28-4.3-29.73c1.33-5.96-2.43-11.88-8.39-13.2
		C862.97,1443.73,857.06,1447.49,855.73,1453.45L855.73,1453.45z"/>
	<path class="st50" d="M780.03,1433.53c-20.35,73.67-61.68,106.89-108.48,147.45c-40.91,35.45-91.79,80-106.15,117.99
		c-2.16,5.71,0.72,12.1,6.43,14.26c5.71,2.16,12.1-0.72,14.26-6.43c13.39-35.42,61.82-76.05,99.95-109.1
		c50.06-43.39,93.55-79.47,115.31-158.28c1.63-5.88-1.83-11.98-7.72-13.61C787.75,1424.19,781.66,1427.65,780.03,1433.53
		L780.03,1433.53z"/>
	<path class="st50" d="M863.56,978.87c15.35,10.18,34.02,11.91,48.37,9.96c10.35-1.41,18.49-4.87,22.21-8.11
		c2.87-2.51,3.17-6.88,0.66-9.75c-2.51-2.88-6.88-3.17-9.75-0.66c-2.47,2.15-8.08,3.89-14.98,4.83
		c-11.52,1.57-26.54,0.39-38.86-7.79c-3.18-2.11-7.47-1.24-9.58,1.94C859.51,972.47,860.38,976.76,863.56,978.87L863.56,978.87z"/>
	<path class="st50" d="M870.2,903.06c13.98,4.86,34.2,5.81,50.86,3.63c11.89-1.56,21.98-4.84,27.37-8.96
		c3.03-2.32,3.61-6.66,1.29-9.69c-2.32-3.03-6.66-3.61-9.69-1.29c-4.05,3.1-11.81,5.06-20.76,6.23
		c-14.59,1.91-32.29,1.27-44.54-2.98c-3.6-1.25-7.55,0.66-8.8,4.26C864.68,897.87,866.59,901.81,870.2,903.06L870.2,903.06z"/>
	<path class="st50" d="M856.43,813.22c31.85,9.01,76.87,0.11,103.1-18.57c3.11-2.21,3.83-6.53,1.62-9.64
		c-2.21-3.11-6.53-3.83-9.64-1.62c-23.23,16.55-63.1,24.51-91.31,16.53c-3.67-1.04-7.5,1.1-8.53,4.77
		C850.62,808.35,852.76,812.18,856.43,813.22L856.43,813.22z"/>
	<path class="st50" d="M842.43,720.03c51.23,8.65,98.18-11.3,125.14-29.73c3.15-2.15,3.96-6.46,1.81-9.61
		c-2.15-3.15-6.46-3.96-9.61-1.81c-24.79,16.95-67.92,35.47-115.03,27.51c-3.76-0.63-7.33,1.91-7.97,5.67
		C836.14,715.82,838.67,719.39,842.43,720.03L842.43,720.03z"/>
	<path class="st50" d="M849.02,611.12c42.68,10.27,95.66,2.94,128.57-14.54c3.37-1.79,4.65-5.98,2.86-9.35
		c-1.79-3.37-5.98-4.65-9.35-2.86c-30.42,16.16-79.41,22.8-118.85,13.31c-3.71-0.89-7.44,1.4-8.34,5.1
		C843.02,606.49,845.31,610.23,849.02,611.12L849.02,611.12z"/>
	<path class="st50" d="M877.96,491.47c19.48,7.54,55.01,14.07,81.85,13.55c12.4-0.24,23.05-2.08,29.9-5.61
		c3.39-1.74,4.73-5.92,2.98-9.31c-1.75-3.39-5.92-4.73-9.31-2.98c-7.45,3.84-20.48,4.59-34.96,3.9
		c-23.14-1.1-49.84-6.39-65.48-12.44c-3.56-1.38-7.56,0.4-8.94,3.95C872.63,486.09,874.4,490.09,877.96,491.47L877.96,491.47z"/>
	<path class="st50" d="M899.1,387.16c29.67,24.21,71.86,44.08,109.9,41.2c3.8-0.29,6.66-3.61,6.37-7.42
		c-0.29-3.8-3.61-6.66-7.42-6.37c-34.72,2.63-73.03-16.03-100.12-38.13c-2.96-2.41-7.32-1.97-9.73,0.98
		C895.7,380.39,896.15,384.75,899.1,387.16L899.1,387.16z"/>
	<path class="st50" d="M970.48,300.18c15.83-0.43,38.09,9.15,54.47,22.11c10.33,8.17,18.47,17.62,20.27,27.13
		c0.71,3.75,4.32,6.22,8.07,5.51c3.75-0.71,6.22-4.32,5.51-8.07c-2.3-12.22-12.01-24.92-25.28-35.41
		c-19.01-15.04-45.06-25.59-63.42-25.09c-3.81,0.1-6.83,3.28-6.72,7.1C963.48,297.27,966.66,300.29,970.48,300.18L970.48,300.18z"/>
	<path class="st50" d="M1050.83,226.34c14.91,1.65,27.67,11.57,36.99,23.58c9.51,12.25,15.53,26.79,16.11,37.9
		c0.2,3.81,3.46,6.74,7.27,6.54c3.81-0.2,6.74-3.46,6.54-7.27c-0.7-13.35-7.58-30.95-19-45.66c-11.61-14.95-27.83-26.78-46.39-28.84
		c-3.79-0.42-7.21,2.32-7.63,6.11C1044.3,222.5,1047.04,225.92,1050.83,226.34L1050.83,226.34z"/>
	<path class="st50" d="M1176.04,181.19c5.68,5.91,8.41,15.31,9.31,25.5c1.45,16.45-2.1,35.09-8.81,46.9
		c-1.89,3.32-0.72,7.54,2.59,9.43c3.32,1.88,7.54,0.72,9.43-2.6c7.87-13.85,12.26-35.67,10.56-54.95
		c-1.2-13.63-5.51-25.95-13.11-33.86c-2.64-2.75-7.02-2.84-9.77-0.2C1173.48,174.07,1173.4,178.44,1176.04,181.19L1176.04,181.19z"
		/>
	<path class="st50" d="M1280.76,220c0.13,11.37-4.37,22.21-10.7,31.8c-10.01,15.16-24.69,27.27-35.07,33.47
		c-3.27,1.96-4.34,6.21-2.38,9.48c1.96,3.27,6.21,4.34,9.48,2.38c11.68-6.99,28.22-20.64,39.5-37.72
		c7.86-11.91,13.15-25.45,12.99-39.57c-0.04-3.82-3.17-6.88-6.99-6.83C1283.78,213.05,1280.71,216.18,1280.76,220L1280.76,220z"/>
	<path class="st50" d="M1344.47,301.58c-15.01,31.26-49.36,55.92-81.63,58.9c-3.8,0.35-6.6,3.72-6.25,7.52
		c0.35,3.8,3.72,6.6,7.52,6.25c36.65-3.39,75.79-31.19,92.82-66.68c1.65-3.44,0.2-7.57-3.24-9.22
		C1350.25,296.69,1346.12,298.15,1344.47,301.58L1344.47,301.58z"/>
	<path class="st50" d="M1362.25,407.72c-5.13,13.14-17.17,25.69-31.96,36.57c-23.02,16.92-52.84,29.62-76.18,33.1
		c-3.77,0.56-6.38,4.08-5.82,7.85c0.56,3.77,4.08,6.38,7.85,5.82c25.21-3.75,57.47-17.35,82.34-35.63
		c17.13-12.59,30.7-27.46,36.65-42.67c1.39-3.55-0.37-7.56-3.92-8.95C1367.65,402.41,1363.64,404.16,1362.25,407.72L1362.25,407.72z
		"/>
	<path class="st50" d="M1363.71,521.84c-6.47,11.11-22.68,23.53-43.46,34.4c-32.24,16.86-75.61,29.6-113.63,26.16
		c-3.8-0.34-7.16,2.46-7.51,6.26c-0.34,3.8,2.46,7.16,6.26,7.51c40.56,3.67,86.88-9.69,121.28-27.68
		c23.65-12.36,41.63-27.05,49-39.69c1.92-3.3,0.8-7.53-2.49-9.45C1369.87,517.42,1365.63,518.54,1363.71,521.84L1363.71,521.84z"/>
	<path class="st50" d="M1157.6,684.11c21.4,10.33,61.59,19.4,98.1,20.48c25.1,0.74,48.46-2.43,63.3-10.92
		c3.31-1.9,4.46-6.12,2.56-9.43c-1.9-3.31-6.12-4.46-9.43-2.56c-13.11,7.51-33.84,9.76-56.01,9.1c-34.41-1.02-72.33-9.38-92.5-19.11
		c-3.44-1.66-7.57-0.21-9.23,3.22C1152.72,678.32,1154.17,682.45,1157.6,684.11L1157.6,684.11z"/>
	<path class="st50" d="M1111.45,772.86c38.68,31.78,102.05,53,140.64,46.46c3.76-0.64,6.3-4.21,5.66-7.97
		c-0.64-3.76-4.21-6.3-7.97-5.66c-35.61,6.04-93.86-14.19-129.55-43.51c-2.95-2.42-7.31-2-9.73,0.95
		C1108.07,766.08,1108.5,770.43,1111.45,772.86L1111.45,772.86z"/>
	<path class="st50" d="M1050.95,866.86c16.52,25.46,51.3,45.33,83.01,54.93c21.76,6.59,42.07,8.21,54.25,4.35
		c3.64-1.15,5.65-5.04,4.5-8.68c-1.15-3.64-5.04-5.65-8.68-4.5c-10.36,3.28-27.57,1.2-46.07-4.4
		c-28.69-8.68-60.47-26.19-75.42-49.22c-2.08-3.2-6.36-4.11-9.56-2.04C1049.79,859.38,1048.87,863.66,1050.95,866.86L1050.95,866.86
		z"/>
	<path class="st50" d="M1005.43,958.39c33.11,35.29,58.81,52.63,105.14,62.43c3.73,0.79,7.4-1.6,8.19-5.33
		c0.79-3.73-1.6-7.4-5.33-8.19c-43.18-9.14-67.04-25.46-97.91-58.36c-2.61-2.78-6.99-2.92-9.77-0.31
		C1002.96,951.23,1002.82,955.61,1005.43,958.39L1005.43,958.39z"/>
	<path class="st50" d="M1037.8,1086.5c-0.28-0.04-2.3-0.36-3.7-0.85c-2.98-1.05-6.53-2.83-10.44-5.15
		c-19.4-11.53-46.97-36.1-57.49-59.18c-1.58-3.47-5.68-5-9.15-3.42c-3.47,1.58-5.01,5.68-3.43,9.15
		c11.57,25.4,41.67,52.66,63.01,65.34c6.99,4.15,13.17,6.77,17.61,7.6c3.01,0.56,5.52,0.39,7.45-0.21c3.64-1.13,5.68-5.01,4.55-8.65
		C1045.09,1087.56,1041.37,1085.53,1037.8,1086.5L1037.8,1086.5z"/>
	<path class="st27" d="M1104.42,1292.64v0.03c-9.4,34.92-29.28,69.57-60.99,101.69c-55.69,56.43-146.54,83.45-227.03,65.94
		c-1.47-0.3-2.93-0.64-4.37-1c-5.72-1.35-11.36-2.93-16.95-4.76c-1.69-0.55-3.37-1.13-5.06-1.74c-1.52-0.53-3.01-1.08-4.48-1.66
		h-0.03c-1.05-0.39-2.1-0.8-3.12-1.22c-6.86-2.74-13.55-5.83-20.1-9.35c-2.6-1.38-5.2-2.85-7.74-4.37
		c-4.18-2.46-8.24-5.09-12.22-7.88c-2.32-1.6-4.59-3.26-6.83-5c-0.97-0.75-1.94-1.49-2.9-2.27c-19.24-15.35-36.66-33.82-51.21-54.25
		c-6.61-9.29-12.61-18.97-17.92-28.95c-0.03,0-0.03,0-0.03,0c-0.8-1.55-1.63-3.1-2.41-4.65c-3.62-7.16-6.86-14.43-9.7-21.82
		c-5.72-14.68-9.84-29.78-12.11-44.96c-1.27-8.57-1.94-17.14-1.99-25.69c-0.11-21.15,3.7-42.14,12.25-62.13
		c3.29-7.66,6.91-15.29,10.92-22.78c0-0.03,0.03-0.03,0.03-0.06c12.58-23.61,28.62-46.12,47.47-65.58c0.06-0.08,0.11-0.14,0.19-0.19
		c32.6-33.68,73.58-58.31,119.5-63.98c0.19,0,0.41-0.03,0.61-0.08c6.88-0.83,13.88-1.24,20.96-1.19
		c36.39,0.28,94.06,19.91,143.06,45.62c22.42,11.75,43.02,24.8,58.92,37.82c4.78,3.95,9.15,7.88,13.02,11.78
		c0.5,0.5,0.99,1,1.47,1.52c3.87,4.04,7.19,8.02,9.84,11.94c1.47,2.16,2.88,4.31,4.26,6.5v0.03c17.25,27.4,27.73,57.32,30.44,88.15
		C1112.05,1249.39,1110.25,1271.07,1104.42,1292.64z"/>
	<path class="st51" d="M883.55,881.54c-9.45,0.21-20.46-11.84-23.19-16.33c-4.87-8.01-12.76-27.68-10.4-36.87
		c5.02-19.49,29.53-0.84,43.76-4.18c15.47-3.62,55.28-21.36,49.63,12.88c-2.7,16.37-9.69,23.96-18.67,30.89
		C911.38,878.21,897.66,881.22,883.55,881.54L883.55,881.54z"/>
	<path class="st51" d="M855.6,794.68c-11.24-2.58-13.81-13.46-16.95-22.89c-2.96-8.89-4.11-23.53-1.75-32.72
		c5.01-19.49,48.04-5.93,62.28-9.27c15.47-3.62,47.34-27.09,59.7-11.68c5.51,6.86-0.29,23.96-6.79,36.1
		c-5.27,9.85-18.23,24.47-26.99,29.5c-13.53,7.77-27.33,12-40.72,12.9C874.78,797.26,862.29,796.21,855.6,794.68L855.6,794.68z"/>
	<path class="st51" d="M876.49,689.62c-12.66-0.14-29.28-2.02-36.09-11.84c-10.02-14.44-9.86-41.7,3.32-51.97
		c15.88-12.37,37.24,2.72,51.81,1.53c15.84-1.3,56.28-13.83,56.86,8.76c0.39,14.94-19.8,37.14-29.77,42.56
		C907.37,686.96,890.2,689.77,876.49,689.62L876.49,689.62z"/>
	<path class="st51" d="M878.98,578.09c-12.83-2.75-24.52-6.42-34.05-21.27c-8.38-13.07-2.73-34.67,2.21-42.77
		c7.57-12.39,22.48-13.76,42.85-5.1c14.63,6.22,87.57,4.61,72.21,35.72c-5,10.14-29.9,24.08-40.29,28.62
		C910.2,578.43,891.81,580.84,878.98,578.09L878.98,578.09z"/>
	<path class="st51" d="M892.46,468.08c-11.92-2.44-26.49-18.92-25.9-28.98c0.54-9.35,0.26-29.13,12.48-34.9
		c18.09-8.54,32.54,7.52,46.79,10.79c15.49,3.55,50.39,17.62,44.3,36.01c-3.56,10.73-22.86,21.3-34.14,22.49
		C923.28,474.82,910.63,471.8,892.46,468.08L892.46,468.08z"/>
	<path class="st51" d="M876.94,961.44c-16.74-4.13-17.32-13.96-18.69-17.8c-3.14-8.8-2.13-25.01,4.9-32.96
		c10.34-11.69,24.31,4.01,37.51,5.57c12.24,1.45,39.17-14.33,38.34,12.56c-0.29,9.51-18.39,28.71-26.63,31.79
		C898.81,965.69,890.65,964.82,876.94,961.44L876.94,961.44z"/>
	<path class="st51" d="M870.91,1018.9c-4.73-1.36-9.31-3.64-10.85-10c-1.33-5.52-1.41-16.24,2.34-20.59
		c6.35-7.38,21.95,3.13,30.58,5.11c9.38,2.15,31.38,0.05,24,13.27c-3.34,5.98-11.25,11.79-17.91,13.48
		C889.28,1022.66,877.41,1020.78,870.91,1018.9L870.91,1018.9z"/>
	<path class="st51" d="M922.94,370.53c-8.44-7.23-17.45-18.01-11.31-31.37c4.55-9.89,15.99-21.83,24.66-28.64
		c18.38-14.46,36.71,4.87,52.21,11.84c16.84,7.58,78.58,37.35,45.47,60.37c-10.79,7.5-36.15,16.77-56.95,12.48
		C956.83,391.03,933.84,379.87,922.94,370.53L922.94,370.53z"/>
	<path class="st51" d="M997.31,274.62c-13.19-11.21-10.27-22.21-0.8-31.14c11.26-10.63,12.33-14.65,22.87-17.88
		c16.9-5.19,40.52,10.51,52.97,22.07c13.53,12.57,33.83,59.69,10.77,68.45c-12.28,4.67-29.62-13.61-40.74-20.68
		C1026.65,285.44,1006.18,282.17,997.31,274.62L997.31,274.62z"/>
	<path class="st51" d="M1076.3,199.51c-4.84-10.3,12.9-18.01,23.92-24.14c11.57-6.43,24.02-7.26,34.71-6.04
		c22.68,2.6,25.25,25.97,30.61,39.86c5.83,15.1-2.58,59.03-20.77,56.55c-12.66-1.73-26.07-23.81-33.53-33.11
		C1099.82,218.37,1082.76,213.24,1076.3,199.51L1076.3,199.51z"/>
	<path class="st51" d="M1205.2,183.35c2.13-12.9,15.63-14.6,24.65-12.86c8.7,1.67,16.17,6.65,25.13,15.69
		c9.06,9.14,18.85,28.76,8.78,48.6c-6.04,11.9-47.27,56.44-64.86,39.48c-7.91-7.62,9.04-35.69,9.49-45.64
		C1209.38,206.73,1203.58,193.15,1205.2,183.35L1205.2,183.35z"/>
	<path class="st51" d="M1284.82,343.56c-19.74,8.79-37.97,6.18-44.87-2.81c-5.06-6.59-11.48-27.83,6.25-34.45
		c16.55-6.18,34.62-16.49,43-26.97c16.54-20.7,23.3-48.4,33.22-39c8.44,8,16.19,35.82,1.88,64.71
		C1315.28,323.27,1298.36,337.54,1284.82,343.56L1284.82,343.56z"/>
	<path class="st51" d="M1253.29,466.33c-8.31-1.54-13.34-13.73-12.67-23.9c0.73-10.94,2.97-22.35,3.98-33.59
		c2.14-23.85,28.71-22.61,43.64-28.79c16.24-6.71,74.62-42.5,68.7-1.74c-1.93,13.28-15.26,34.5-23.02,44.68
		c-12.22,16.01-23.55,22.67-36.99,29.9C1283.5,460.12,1262.67,468.08,1253.29,466.33L1253.29,466.33z"/>
	<path class="st51" d="M1232.79,576.02c-13.6,0.69-28.03-4.6-23.29-24.47c3.06-12.85,11.54-24.14,19.76-29.67
		c20.49-13.77,54.35-18.21,70.21-23.65c17.24-5.92,77.13-43.01,61.98-9.44c-4.93,10.94-23.14,38.26-56.03,57.88
		C1283.7,559.63,1248.78,575.21,1232.79,576.02L1232.79,576.02z"/>
	<path class="st51" d="M1197.71,677.18c-18.5-6.06-36.47-15.78-35.41-30.58c1.15-16.1,9.71-24.64,22.56-31.55
		c19.53-10.51,44.15-6.91,67.05-8.25c14.95-0.88,41.23-3.74,64.14-13.12c22.59-9.25,43.98-22.12,48.51-7
		c6.63,22.15-13.56,61.57-52.16,76.42c-26.92,10.35-32.17,11.05-55.2,15.24C1230.23,683.25,1216.79,683.42,1197.71,677.18
		L1197.71,677.18z"/>
	<path class="st51" d="M1141.52,764.81c-14.48-8.19-21.42-22.82-21.76-32.36c-0.53-14.65,3.14-21.29,11.47-27.6
		c17.68-13.39,47.42,9.63,69.96,13.9c24.51,4.64,103.48,4.84,67.6,21.4c-30.35,14-31.17,40.72-54.95,45.54
		C1184.3,791.67,1157.2,773.69,1141.52,764.81L1141.52,764.81z"/>
	<path class="st51" d="M1068.09,852.6c-8.06-10.68-4.15-22.39-1.03-32.74c3.36-11.12,12.67-27.89,21.17-33.99
		c12.27-8.8,37.53,14.11,58.48,23.46c35.56,15.88,104.51,14.34,71.46,36.01c-10.77,7.06-20.57,40.6-36.83,46.3
		c-24.76,8.68-43,1.55-63.93-5.04C1091.11,878.34,1076.48,863.73,1068.09,852.6L1068.09,852.6z"/>
	<path class="st51" d="M1021.75,946.39c-11.41-11.99,2.01-34.57,2.42-39.79c0.73-9.31,3.57-23.54,13.67-26.23
		c21.44-5.71,37.73,33.74,56.99,46.22c20.93,13.57,91.33,50.05,52.55,57.62c-12.64,2.46-44.44,2.55-61.14-1.69
		C1061.01,976.1,1044.31,970.1,1021.75,946.39L1021.75,946.39z"/>
	<path class="st51" d="M978.77,1026.33c-10.39-11.59-10.51-32.7-10.11-37.92c0.73-9.31,13.16-22.23,23.61-21.85
		c18.43,0.66,24.73,29.02,43.98,41.5c20.93,13.56,72.28,24.79,56.79,38.71c-9.58,8.61-30.77,18.78-61.21,10.43
		C1013.11,1052.06,993.33,1042.58,978.77,1026.33L978.77,1026.33z"/>
	<path class="st50" d="M639.22,1266.45l-1.99-25.69c56.49,63.82,143.39,73.66,202.92,62.9c137.42-24.8,185.31-132.39,210.99-195.45
		c4.78,3.95,9.15,7.88,13.02,11.78c-27.62,66.64-79.77,174.5-221.06,200.02C783.88,1330.71,699.66,1322.03,639.22,1266.45z"/>
	<path class="st50" d="M1079.73,1139.96v0.03c-6.44,36.03-22.87,84.94-56.85,128.65c-53.97,69.46-140.49,103.46-225.43,95.03
		c-52.29-5.2-102.41-19.16-136.42-30.44c-3.62-7.16-6.86-14.43-9.7-21.82c32.21,11.7,85.11,29.53,147.76,35.75
		c79.38,7.88,160.26-23.81,210.69-88.7c37.3-48,52.2-102.66,55.85-136.95c3.87,4.04,7.19,8.02,9.84,11.94
		C1076.94,1135.62,1078.35,1137.77,1079.73,1139.96z"/>
	<path class="st50" d="M1104.42,1292.64v0.03c-21.79,34.87-52.01,72.47-91.13,100.31c-29.81,21.21-90.55,61.22-195.18,59.86
		c-1.94-0.03-3.87-0.08-5.86-0.14c-5.39-0.14-10.92-0.39-16.56-0.77c-1.85-0.11-3.73-0.25-5.64-0.39c-1.49-0.14-2.99-0.25-4.51-0.39
		h-0.03c-1.13-0.11-2.27-0.22-3.4-0.33c-7.24-0.69-14.71-1.6-22.34-2.71c-3.15-0.47-6.36-0.97-9.59-1.49
		c-7.35-1.22-14.88-2.63-22.59-4.23c2.46-4.18,4.45-8.35,5.97-12.53c0.36-1.02,0.72-2.02,1-3.04c2.63,0.55,5.2,1.05,7.77,1.52
		c4.73,0.86,9.35,1.66,13.91,2.38c2.6,0.39,5.17,0.77,7.71,1.13c7.49,1.05,14.79,1.88,21.9,2.54c0.86,0.06,1.69,0.14,2.52,0.22
		c3.57,0.28,7.08,0.55,10.53,0.75c4.12,0.25,8.18,0.41,12.17,0.53c3.43,0.11,6.8,0.17,10.12,0.19
		c97.46,0.36,154.34-36.61,182.49-56.63c42.25-30.08,73.63-72.05,94.73-108.5c-14.35,17.17-31.99,35.64-53.14,53.2
		c-58.45,48.5-143.33,89.78-257.86,76.17c-11.14-1.33-22.04-3.37-32.6-5.94c-7.08-1.69-14.02-3.65-20.76-5.83
		c-19.19-6.08-36.94-13.71-52.64-21.73c-6.61-9.29-12.61-18.97-17.92-28.95c30.55,19,75.62,40.01,125.89,45.98
		c108.97,12.97,189.68-26.32,245.31-72.47c34.56-28.67,59.47-60,75.51-83.25C1112.05,1249.39,1110.25,1271.07,1104.42,1292.64z"/>
	<path class="st51" d="M767.3,1045.3c-25.28,12.94-77,53.31-100.39,96.9c-18.76,34.95-24.97,77.22,11.16,100.93
		c27.43,18,88.49-35.25,103.3-43.61c62.65-35.35,112.87-24.99,164.54-39.26c49.92-13.79,69.02-53.13,61.56-71.07
		c-10.07-24.2-60.61-48.96-101.2-59.6C871.11,1020.37,817.3,1019.7,767.3,1045.3L767.3,1045.3z"/>
	<path class="st52" d="M788.22,1048.4c-19.34,7.63-43.96,26.11-64.97,49.06c-21.08,23.03-38.45,50.56-43.59,75.87
		c-0.58,2.87,1.28,5.68,4.15,6.26c2.87,0.58,5.68-1.28,6.26-4.15c4.8-23.68,21.3-49.27,41.02-70.81
		c19.78-21.62,42.83-39.17,61.04-46.36c2.73-1.08,4.06-4.16,2.99-6.89C794.03,1048.67,790.95,1047.33,788.22,1048.4L788.22,1048.4z"
		/>
	<path class="st52" d="M752.62,1112.38c23.68-32.21,80.02-59.75,121.74-53.85c2.9,0.41,5.59-1.61,6-4.51c0.41-2.9-1.61-5.59-4.51-6
		c-45.14-6.39-106.17,23.23-131.78,58.07c-1.74,2.36-1.23,5.69,1.13,7.42C747.56,1115.25,750.88,1114.74,752.62,1112.38
		L752.62,1112.38z"/>
	<path class="st52" d="M789.37,1092.02c-41.63,26.67-71.5,76.15-75.94,118.93c-0.3,2.91,1.82,5.52,4.73,5.83
		c2.91,0.3,5.52-1.82,5.83-4.73c4.15-39.98,32.19-86.15,71.11-111.08c2.47-1.58,3.19-4.87,1.61-7.33
		C795.12,1091.16,791.84,1090.44,789.37,1092.02L789.37,1092.02z"/>
	<path class="st52" d="M1019.24,244.38c21.31-1.61,46.59,15.42,57.31,35.4c1.39,2.58,4.61,3.56,7.19,2.17
		c2.58-1.39,3.55-4.61,2.17-7.19c-12.56-23.41-42.5-42.86-67.47-40.97c-2.92,0.22-5.11,2.77-4.89,5.7
		C1013.76,242.41,1016.32,244.6,1019.24,244.38L1019.24,244.38z"/>
	<path class="st52" d="M1026.55,260.77c9.84,1.3,23.06,8.81,27.78,17.78c1.37,2.59,4.58,3.59,7.17,2.23
		c2.59-1.37,3.59-4.58,2.23-7.17c-6.11-11.62-23.04-21.68-35.78-23.36c-2.91-0.38-5.57,1.66-5.96,4.57
		C1021.59,257.71,1023.64,260.38,1026.55,260.77L1026.55,260.77z"/>
	<path class="st52" d="M1022.54,357.73c-27.98-20.7-66.43-35.42-85.35-33.22c-2.91,0.34-5,2.98-4.66,5.89
		c0.34,2.91,2.97,5,5.89,4.66c6.68-0.78,16.07,1.03,26.55,4.48c16.56,5.46,35.63,15.16,51.25,26.72c2.36,1.74,5.68,1.25,7.43-1.11
		C1025.39,362.8,1024.9,359.48,1022.54,357.73L1022.54,357.73z"/>
	<path class="st52" d="M922.54,349.27c0.61,0.02,5.29,0.24,9.04,1.02c13.92,2.91,35.51,10.62,45.31,16.08
		c2.56,1.43,5.8,0.51,7.22-2.05c1.43-2.56,0.51-5.8-2.05-7.22c-10.45-5.82-33.46-14.09-48.3-17.19c-4.95-1.03-9.09-1.48-11.78-1.26
		c-2.14,0.17-3.73,0.78-4.8,1.49c-2.44,1.62-3.1,4.92-1.47,7.36C917.21,349.76,920.17,350.49,922.54,349.27L922.54,349.27z"/>
	<path class="st52" d="M991.1,440.74c-12.02,3.96-31.62,3.12-50.12,0.32c-18.55-2.81-36.04-7.64-43.68-12.28
		c-2.5-1.52-5.77-0.72-7.29,1.78c-1.52,2.51-0.72,5.77,1.78,7.29c8.34,5.07,27.34,10.63,47.6,13.7c20.31,3.08,41.83,3.62,55.03-0.73
		c2.78-0.92,4.3-3.92,3.38-6.7C996.89,441.34,993.88,439.82,991.1,440.74L991.1,440.74z"/>
	<path class="st52" d="M928.75,454.27c-14.26,0.77-37.04-9.66-46.62-19.29c-2.07-2.08-5.43-2.09-7.51-0.02
		c-2.08,2.07-2.09,5.43-0.02,7.51c11.23,11.29,38,23.31,54.72,22.41c2.93-0.16,5.17-2.66,5.02-5.59
		C934.18,456.36,931.68,454.11,928.75,454.27L928.75,454.27z"/>
	<path class="st52" d="M943.35,533.04c-3.23,1.74-9.62,2.09-17.42,1.75c-13.09-0.57-29.81-3.61-43.74-8.7
		c-2.75-1-5.8,0.41-6.81,3.17c-1,2.75,0.42,5.8,3.17,6.81c17.48,6.38,39.03,9.75,53.72,9.41c7.14-0.17,12.82-1.31,16.13-3.1
		c2.58-1.39,3.54-4.62,2.15-7.19C949.15,532.61,945.93,531.65,943.35,533.04L943.35,533.04z"/>
	<path class="st52" d="M916.83,547.6c-9.38,0.22-36.03-2.45-51.44-11.46c-2.53-1.48-5.78-0.62-7.26,1.91
		c-1.48,2.53-0.63,5.78,1.91,7.26c17.11,10,46.63,13.14,57.05,12.9c2.93-0.07,5.25-2.5,5.18-5.43
		C922.2,549.85,919.76,547.53,916.83,547.6L916.83,547.6z"/>
	<path class="st52" d="M961,557.1c-19.22,11.79-50.02,12.17-79.54,5.75c-2.86-0.62-5.69,1.2-6.32,4.06
		c-0.62,2.86,1.2,5.69,4.06,6.32c32.45,7.06,66.23,5.88,87.35-7.07c2.5-1.53,3.28-4.8,1.75-7.3
		C966.77,556.35,963.5,555.57,961,557.1L961,557.1z"/>
	<path class="st52" d="M918.78,637.08c-3.67,2.23-10.43,3.82-18.65,4.78c-13.25,1.55-30.15,1.2-45.12-2.19
		c-2.86-0.65-5.7,1.14-6.35,4c-0.65,2.86,1.15,5.7,4,6.35c16.16,3.67,34.39,4.06,48.7,2.38c10.15-1.19,18.4-3.5,22.92-6.25
		c2.51-1.52,3.31-4.79,1.79-7.29C924.55,636.36,921.28,635.56,918.78,637.08L918.78,637.08z"/>
	<path class="st52" d="M958.9,638.24c-20.45,12.99-38.82,17.72-58.3,18.07c-2.93,0.05-5.26,2.47-5.21,5.4
		c0.05,2.93,2.47,5.26,5.4,5.21c21.31-0.39,41.42-5.51,63.8-19.73c2.47-1.57,3.2-4.86,1.63-7.33
		C964.66,637.4,961.38,636.67,958.9,638.24L958.9,638.24z"/>
	<path class="st52" d="M926.37,667.48c-13.19,3.68-38.57,7.22-55.04,3.5c-2.86-0.64-5.7,1.15-6.35,4.01
		c-0.64,2.86,1.15,5.7,4.01,6.35c18.02,4.07,45.8,0.4,60.23-3.63c2.82-0.79,4.47-3.72,3.69-6.54
		C932.13,668.35,929.2,666.7,926.37,667.48L926.37,667.48z"/>
	<path class="st52" d="M909.99,737.77c-8.44,1.66-22.6,5.7-36.46,7.01c-8.44,0.8-16.77,0.65-23.34-2.11
		c-2.7-1.14-5.81,0.14-6.95,2.83c-1.14,2.7,0.14,5.82,2.83,6.95c8.01,3.37,18.15,3.87,28.46,2.89c14.26-1.35,28.83-5.46,37.51-7.16
		c2.87-0.56,4.75-3.36,4.18-6.23C915.66,739.08,912.86,737.2,909.99,737.77L909.99,737.77z"/>
	<path class="st52" d="M907.18,753.58c-8.92,3.54-25.35,6.14-38.71,4.73c-2.91-0.31-5.53,1.81-5.84,4.72
		c-0.31,2.91,1.81,5.53,4.72,5.84c15.1,1.6,33.66-1.42,43.74-5.42c2.72-1.08,4.06-4.17,2.97-6.89
		C912.99,753.83,909.9,752.5,907.18,753.58L907.18,753.58z"/>
	<path class="st52" d="M956.45,749.05c-21.42,17.37-54.54,24.89-77.41,24.24c-2.93-0.08-5.37,2.23-5.46,5.16
		c-0.08,2.93,2.23,5.38,5.15,5.46c24.95,0.71,61.03-7.65,84.4-26.61c2.28-1.85,2.62-5.19,0.78-7.47
		C962.07,747.55,958.72,747.2,956.45,749.05L956.45,749.05z"/>
	<path class="st52" d="M907.65,830.75c-11.86,5.52-31.27,7.91-44.49,3.87c-2.8-0.86-5.77,0.72-6.63,3.52
		c-0.86,2.8,0.72,5.77,3.52,6.63c15.46,4.73,38.18,2.06,52.07-4.39c2.66-1.24,3.81-4.4,2.57-7.05
		C913.47,830.67,910.31,829.52,907.65,830.75L907.65,830.75z"/>
	<path class="st52" d="M916.43,844.26c-6.33,2.84-19.88,6.58-26.51,5.38c-2.88-0.52-5.65,1.4-6.17,4.29
		c-0.52,2.88,1.4,5.65,4.29,6.16c8.16,1.47,24.94-2.65,32.73-6.15c2.67-1.2,3.87-4.34,2.67-7.02
		C922.25,844.26,919.1,843.06,916.43,844.26L916.43,844.26z"/>
	<path class="st52" d="M945.47,851.62c-15.03,10.07-35.72,16.36-57.91,13.25c-2.9-0.41-5.59,1.62-5.99,4.52
		c-0.41,2.9,1.62,5.59,4.52,5.99c25.01,3.51,48.34-3.59,65.29-14.94c2.43-1.63,3.09-4.93,1.46-7.36
		C951.21,850.64,947.91,849.99,945.47,851.62L945.47,851.62z"/>
	<path class="st52" d="M870.48,925.71c7.5,3.4,13.63,6.53,19.09,8.48c6.52,2.33,12.24,3.04,17.99,1.38
		c2.81-0.82,4.44-3.76,3.62-6.58c-0.81-2.81-3.76-4.44-6.57-3.62c-3.67,1.06-7.3,0.31-11.47-1.18c-5.23-1.86-11.09-4.89-18.27-8.15
		c-2.67-1.21-5.82-0.03-7.03,2.64C866.63,921.35,867.81,924.5,870.48,925.71L870.48,925.71z"/>
	<path class="st52" d="M918.81,938.05c-2.12,1.34-6.14,1.98-10.86,2.23c-8.07,0.44-18.07-0.63-25.77-3.72
		c-2.72-1.09-5.81,0.23-6.9,2.95c-1.09,2.72,0.23,5.81,2.95,6.9c9.06,3.64,20.81,4.98,30.3,4.47c6.99-0.38,12.82-1.87,15.97-3.87
		c2.47-1.57,3.21-4.85,1.64-7.33C924.57,937.22,921.29,936.49,918.81,938.05L918.81,938.05z"/>
	<path class="st52" d="M901.94,998.5c-6.51,0.95-18.67-1.03-27.63-7.17c-2.42-1.66-5.72-1.04-7.38,1.38
		c-1.66,2.42-1.04,5.72,1.38,7.38c11.38,7.8,26.88,10.12,35.15,8.92c2.9-0.42,4.91-3.12,4.49-6.02S904.84,998.08,901.94,998.5
		L901.94,998.5z"/>
	<path class="st52" d="M1145.28,179.56c27.67,19.84,24.39,59.02,12.45,81.07c-1.4,2.58-0.44,5.8,2.14,7.19
		c2.58,1.4,5.8,0.44,7.2-2.14c13.97-25.81,16.79-71.53-15.6-94.75c-2.38-1.71-5.7-1.16-7.41,1.22
		C1142.35,174.54,1142.9,177.85,1145.28,179.56L1145.28,179.56z"/>
	<path class="st52" d="M1138.28,195.23c8.46,10.71,14.43,33.35,11.81,49.32c-0.48,2.89,1.49,5.62,4.38,6.1
		c2.89,0.48,5.62-1.49,6.1-4.38c3.06-18.67-4.06-45.1-13.95-57.62c-1.81-2.3-5.16-2.69-7.45-0.88
		C1136.86,189.59,1136.47,192.93,1138.28,195.23L1138.28,195.23z"/>
	<path class="st52" d="M1092.26,195.67c19.62,8.33,30.66,25.82,36.05,41.69c0.94,2.78,3.96,4.26,6.73,3.32
		c2.78-0.94,4.26-3.96,3.32-6.73c-6.23-18.37-19.24-38.42-41.95-48.05c-2.7-1.14-5.82,0.12-6.96,2.81
		C1088.3,191.4,1089.57,194.52,1092.26,195.67L1092.26,195.67z"/>
	<path class="st52" d="M1106.46,236.48c13.71,12.22,19.68,37.27,21.66,49.66c0.46,2.9,3.19,4.87,6.08,4.4
		c2.89-0.46,4.87-3.19,4.4-6.08c-2.24-14.02-9.57-42.09-25.08-55.92c-2.19-1.95-5.55-1.76-7.5,0.43
		C1104.08,231.17,1104.27,234.53,1106.46,236.48L1106.46,236.48z"/>
	<path class="st52" d="M1230.49,190.87c2.69,20.13-3.29,38.15-16.56,53.76c-1.9,2.23-1.63,5.59,0.61,7.48
		c2.23,1.9,5.58,1.63,7.48-0.61c15.3-18,22.09-38.82,18.99-62.04c-0.39-2.91-3.06-4.95-5.97-4.56
		C1232.14,185.29,1230.1,187.96,1230.49,190.87L1230.49,190.87z"/>
	<path class="st52" d="M1265.18,200.77c1.18,7.39-1.23,18.12-4.88,28c-3.62,9.8-8.48,18.83-12.97,22.66
		c-2.23,1.9-2.51,5.25-0.61,7.48c1.9,2.23,5.25,2.5,7.48,0.61c5.42-4.61,11.68-15.25,16.05-27.06c4.34-11.74,6.81-24.56,5.41-33.35
		c-0.46-2.89-3.18-4.87-6.08-4.41C1266.69,195.15,1264.72,197.87,1265.18,200.77L1265.18,200.77z"/>
	<path class="st52" d="M1243.29,226.34c-5.76,16.96-22.52,32.64-32.25,39.41c-2.4,1.68-3,4.99-1.32,7.39c1.68,2.41,4.99,3,7.39,1.32
		c10.99-7.65,29.72-25.54,36.23-44.71c0.94-2.77-0.54-5.79-3.32-6.73C1247.25,222.08,1244.23,223.56,1243.29,226.34L1243.29,226.34z
		"/>
	<path class="st52" d="M1323.02,248.1c1,12.68-4.11,27.34-10.56,36c-1.75,2.35-1.26,5.68,1.08,7.43c2.35,1.75,5.68,1.26,7.43-1.08
		c7.74-10.38,13.84-27.97,12.64-43.18c-0.23-2.92-2.79-5.1-5.71-4.87C1324.97,242.62,1322.78,245.18,1323.02,248.1L1323.02,248.1z"
		/>
	<path class="st52" d="M1334.49,278.3c-0.98,10.28-5.79,19.69-12.38,28.08c-10.44,13.29-25.32,24.03-37.83,31.46
		c-2.52,1.5-3.35,4.76-1.85,7.27c1.5,2.52,4.76,3.35,7.28,1.85c13.51-8.03,29.5-19.69,40.76-34.03
		c7.87-10.03,13.44-21.36,14.6-33.64c0.28-2.92-1.87-5.51-4.78-5.79C1337.36,273.24,1334.77,275.38,1334.49,278.3L1334.49,278.3z"/>
	<path class="st52" d="M1297.36,276.37c-12.16,23.83-37.83,35.33-52.4,39.87c-2.8,0.87-4.36,3.85-3.49,6.65
		c0.87,2.8,3.85,4.36,6.65,3.49c16.4-5.1,45.03-18.37,58.7-45.18c1.33-2.61,0.29-5.81-2.32-7.14
		C1301.89,272.73,1298.69,273.76,1297.36,276.37L1297.36,276.37z"/>
	<path class="st52" d="M1304.3,302.59c-6.27,9.01-21.89,18.82-32.86,23.57c-2.24,0.97-4.28,1.72-6,2.18
		c-0.94,0.25-1.67,0.52-2.18,0.42c-2.88-0.54-5.66,1.37-6.19,4.24c-0.54,2.88,1.37,5.65,4.25,6.19c2.63,0.49,7.97-0.54,14.34-3.29
		c12.54-5.42,30.18-16.94,37.35-27.25c1.68-2.41,1.08-5.71-1.33-7.39C1309.29,299.59,1305.98,300.19,1304.3,302.59L1304.3,302.59z"
		/>
	<path class="st52" d="M1358.12,322.97c-8.47,22.45-33.73,52.53-47.38,64.1c-2.24,1.9-2.51,5.25-0.62,7.48
		c1.89,2.23,5.25,2.51,7.48,0.62c14.56-12.34,41.41-44.5,50.45-68.45c1.03-2.74-0.35-5.81-3.09-6.84
		C1362.22,318.84,1359.15,320.23,1358.12,322.97L1358.12,322.97z"/>
	<path class="st52" d="M1342.75,376.99c-7.81,12.53-26.75,29.61-40.05,35.45c-2.68,1.18-3.9,4.31-2.73,7
		c1.18,2.68,4.31,3.9,6.99,2.73c14.86-6.53,36.07-25.56,44.79-39.56c1.55-2.49,0.79-5.76-1.7-7.31
		C1347.57,373.74,1344.3,374.5,1342.75,376.99L1342.75,376.99z"/>
	<path class="st52" d="M1317,359.33c-6.35,11.3-21.45,26.57-37.03,38.08c-10.15,7.5-20.48,13.43-28.77,15.3
		c-2.86,0.65-4.65,3.49-4.01,6.35c0.65,2.86,3.49,4.65,6.35,4.01c9.4-2.13,21.23-8.62,32.73-17.12
		c16.89-12.47,33.1-29.18,39.98-41.42c1.44-2.55,0.53-5.79-2.03-7.23C1321.67,355.87,1318.44,356.78,1317,359.33L1317,359.33z"/>
	<path class="st52" d="M1254.87,442.11c-2.8-0.53-5.54,1.26-6.16,4.06c-0.64,2.86,1.17,5.7,4.03,6.33
		c2.13,0.48,6.44-0.02,11.79-1.85c10-3.42,24.77-11.03,33.86-18.81c2.23-1.9,2.49-5.26,0.58-7.48c-1.91-2.23-5.26-2.49-7.48-0.58
		c-8.15,6.98-21.42,13.76-30.39,16.83C1258.45,441.51,1255.11,442.06,1254.87,442.11L1254.87,442.11z"/>
	<path class="st52" d="M1376.02,436.94c-14.1,20.7-40.85,49.4-73.32,60.39c-2.78,0.94-4.27,3.95-3.33,6.73
		c0.94,2.78,3.95,4.27,6.73,3.33c34.78-11.77,63.6-42.3,78.69-64.48c1.65-2.42,1.02-5.73-1.4-7.37
		C1380.97,433.89,1377.66,434.52,1376.02,436.94L1376.02,436.94z"/>
	<path class="st52" d="M1345.62,486.86c-11.93,12.5-51.14,33.06-70.11,36.36c-2.89,0.5-4.82,3.25-4.32,6.14
		c0.5,2.89,3.25,4.82,6.14,4.32c20.57-3.58,63.05-25.94,75.98-39.49c2.02-2.12,1.94-5.48-0.18-7.5
		C1351,484.66,1347.64,484.74,1345.62,486.86L1345.62,486.86z"/>
	<path class="st52" d="M1278.76,500.66c-16.42,8.78-35.07,9.4-48.14,12.09c-2.87,0.59-4.72,3.4-4.13,6.27
		c0.59,2.87,3.4,4.72,6.27,4.13c13.88-2.85,33.58-3.81,51.01-13.13c2.59-1.38,3.56-4.6,2.18-7.18
		C1284.56,500.25,1281.34,499.27,1278.76,500.66L1278.76,500.66z"/>
	<path class="st52" d="M1261.15,529.24c-13.51,7.42-26.02,7.85-38.56,6.72c-2.92-0.26-5.5,1.89-5.76,4.81
		c-0.26,2.92,1.89,5.5,4.81,5.76c14.52,1.31,28.97,0.61,44.62-7.99c2.57-1.41,3.51-4.64,2.1-7.21
		C1266.95,528.77,1263.72,527.83,1261.15,529.24L1261.15,529.24z"/>
	<path class="st52" d="M1326.46,524.61c-26.68,17.23-69.45,35.19-100.64,33.48c-2.93-0.16-5.43,2.08-5.59,5.01
		c-0.16,2.93,2.08,5.43,5.01,5.59c33.11,1.81,78.66-16.87,106.98-35.16c2.46-1.59,3.17-4.88,1.58-7.34
		C1332.21,523.73,1328.92,523.02,1326.46,524.61L1326.46,524.61z"/>
	<path class="st52" d="M1297.37,597.87c-8.36,5.34-21.79,8.81-36.4,10.74c-22.43,2.96-47.65,2.16-62.46-2.36
		c-2.8-0.85-5.77,0.72-6.63,3.53c-0.85,2.8,0.72,5.77,3.53,6.63c15.88,4.85,42.91,5.91,66.95,2.73
		c16.37-2.16,31.35-6.33,40.72-12.32c2.47-1.58,3.19-4.86,1.61-7.33C1303.12,597.01,1299.84,596.29,1297.37,597.87L1297.37,597.87z"
		/>
	<path class="st52" d="M1234.7,642.56c-22.19,3.94-41.84-4.71-52.96-11.39c-2.51-1.51-5.78-0.7-7.29,1.81
		c-1.51,2.51-0.7,5.78,1.82,7.29c12.65,7.6,35.04,17.23,60.28,12.75c2.88-0.51,4.81-3.27,4.3-6.15
		C1240.34,643.97,1237.58,642.04,1234.7,642.56L1234.7,642.56z"/>
	<path class="st52" d="M1343.93,605.81c-20.9,16.97-55.25,36.26-91.81,36.98c-2.93,0.06-5.26,2.48-5.2,5.41
		c0.06,2.93,2.48,5.26,5.41,5.2c39.1-0.77,75.94-21.2,98.29-39.35c2.28-1.85,2.62-5.19,0.77-7.47
		C1349.55,604.32,1346.2,603.97,1343.93,605.81L1343.93,605.81z"/>
	<path class="st52" d="M1273.77,660.21c-19.31,5.35-58.1,4.06-77.68-4.44c-2.69-1.16-5.82,0.07-6.98,2.76
		c-1.16,2.69,0.07,5.82,2.76,6.98c21.36,9.27,63.67,10.77,84.74,4.93c2.82-0.78,4.48-3.71,3.7-6.53
		C1279.52,661.08,1276.59,659.42,1273.77,660.21L1273.77,660.21z"/>
	<path class="st52" d="M1139.67,749.44c27.61,32.04,93.99,47.06,140.11,28.3c2.71-1.1,4.02-4.2,2.92-6.92
		c-1.1-2.71-4.2-4.02-6.92-2.92c-42.13,17.13-102.85,3.87-128.07-25.4c-1.91-2.22-5.27-2.47-7.49-0.56
		C1138.01,743.86,1137.76,747.22,1139.67,749.44L1139.67,749.44z"/>
	<path class="st52" d="M1157.33,739.88c5.75,7.34,17.1,13.82,29.32,17.86c12.09,4,24.94,5.61,33.63,3.93
		c2.88-0.55,4.76-3.34,4.21-6.22c-0.55-2.88-3.34-4.76-6.22-4.21c-7.32,1.41-18.11-0.22-28.29-3.59
		c-10.04-3.32-19.57-8.3-24.29-14.33c-1.81-2.31-5.15-2.72-7.45-0.91C1155.93,734.24,1155.53,737.58,1157.33,739.88L1157.33,739.88z
		"/>
	<path class="st52" d="M1142.69,715.69c9.25,7.72,34.36,19,59.9,24.85c17.3,3.97,34.77,5.4,47.72,2c2.83-0.74,4.53-3.65,3.79-6.48
		c-0.74-2.83-3.65-4.53-6.48-3.79c-11.58,3.04-27.19,1.47-42.66-2.08c-23.6-5.41-46.93-15.53-55.47-22.65
		c-2.25-1.88-5.6-1.58-7.48,0.67C1140.14,710.46,1140.44,713.81,1142.69,715.69L1142.69,715.69z"/>
	<path class="st52" d="M1059.83,825.86c2.82,14.51,16.66,30.28,33.82,41.55c17.06,11.2,37.2,17.86,51.95,15.39
		c2.89-0.48,4.84-3.22,4.36-6.11c-0.48-2.89-3.22-4.84-6.11-4.36c-12.65,2.12-29.74-4.19-44.37-13.79
		c-14.53-9.54-26.83-22.41-29.22-34.7c-0.56-2.88-3.35-4.76-6.22-4.2C1061.16,820.2,1059.27,822.99,1059.83,825.86L1059.83,825.86z"
		/>
	<path class="st52" d="M1075.71,811.65c5.95,11.72,22.17,27.28,31.6,30.37c2.78,0.91,5.78-0.61,6.7-3.39
		c0.91-2.78-0.61-5.79-3.4-6.7c-7.69-2.52-20.59-15.53-25.44-25.09c-1.32-2.61-4.52-3.66-7.14-2.33
		C1075.43,805.84,1074.38,809.04,1075.71,811.65L1075.71,811.65z"/>
	<path class="st52" d="M1082.86,791.45c8.53,14.19,25.84,27.8,44.19,37.65c18.41,9.89,37.79,15.96,50.04,15.65
		c2.93-0.07,5.25-2.51,5.18-5.44c-0.07-2.93-2.51-5.25-5.44-5.17c-10.97,0.27-28.24-5.52-44.75-14.39
		c-16.57-8.9-32.41-20.95-40.11-33.77c-1.51-2.51-4.77-3.33-7.29-1.82C1082.17,785.67,1081.35,788.94,1082.86,791.45L1082.86,791.45
		z"/>
	<path class="st52" d="M1118.45,846.12c16.28,12.99,43.27,24.81,69.43,29.6c17.84,3.27,35.3,3.24,48.87-1.55
		c2.77-0.97,4.21-4.01,3.24-6.77c-0.98-2.76-4.01-4.21-6.77-3.24c-12.05,4.26-27.57,4.02-43.42,1.12
		c-24.37-4.47-49.56-15.36-64.73-27.46c-2.29-1.82-5.63-1.45-7.46,0.84C1115.79,840.96,1116.16,844.3,1118.45,846.12L1118.45,846.12
		z"/>
	<path class="st52" d="M1016.8,916.31c20.3,31.73,60.57,53.12,87.05,63.56c2.73,1.07,5.81-0.27,6.88-2.99
		c1.08-2.73-0.26-5.81-2.99-6.89c-24.88-9.8-62.92-29.59-82-59.4c-1.58-2.47-4.86-3.19-7.33-1.61
		C1015.94,910.56,1015.22,913.84,1016.8,916.31L1016.8,916.31z"/>
	<path class="st52" d="M1036.82,914.09c13.67,16.89,27.26,24.92,40.99,33.07c2.52,1.5,5.78,0.67,7.27-1.86
		c1.5-2.52,0.66-5.78-1.85-7.27c-12.75-7.58-25.46-14.94-38.16-30.62c-1.84-2.28-5.19-2.63-7.47-0.79
		C1035.32,908.47,1034.97,911.81,1036.82,914.09L1036.82,914.09z"/>
	<path class="st52" d="M1031.58,881.25c0.69,5.59,5.9,13.07,14.18,20.67c16.93,15.54,46.39,33.1,62.37,39.82
		c2.7,1.13,5.82-0.14,6.95-2.84c1.14-2.7-0.14-5.81-2.84-6.95c-15.19-6.39-43.21-23.08-59.31-37.85c-3.86-3.54-7.01-6.93-9-10.04
		c-0.96-1.49-1.66-2.85-1.81-4.1c-0.36-2.91-3.01-4.98-5.91-4.62C1033.29,875.69,1031.22,878.34,1031.58,881.25L1031.58,881.25z"/>
	<path class="st52" d="M1091.1,952.58c22.56,16.95,45.83,21.19,65.73,20.5c2.93-0.1,5.22-2.56,5.12-5.49
		c-0.1-2.93-2.56-5.22-5.49-5.12c-17.86,0.62-38.75-3.17-58.99-18.38c-2.34-1.76-5.67-1.29-7.43,1.05
		C1088.29,947.48,1088.76,950.81,1091.1,952.58L1091.1,952.58z"/>
	<path class="st52" d="M976.09,995.78c10.16,21.21,33.87,39.25,53,48.25c2.65,1.25,5.81,0.11,7.06-2.54
		c1.25-2.65,0.11-5.81-2.54-7.06c-17.23-8.11-38.79-24.12-47.95-43.23c-1.26-2.64-4.44-3.76-7.08-2.5
		C975.94,989.96,974.82,993.14,976.09,995.78L976.09,995.78z"/>
	<path class="st52" d="M996.95,990.56c7.23,12.9,16.86,23.11,24.49,26.1c2.73,1.07,5.81-0.27,6.88-3c1.07-2.73-0.27-5.81-3-6.88
		c-6.12-2.4-13.3-11.07-19.1-21.41c-1.43-2.56-4.67-3.47-7.22-2.04C996.43,984.76,995.52,988.01,996.95,990.56L996.95,990.56z"/>
	<path class="st52" d="M1031.18,1024.02c13.68,12.11,34.59,23.46,53.54,23.25c2.93-0.03,5.28-2.44,5.25-5.37
		c-0.03-2.93-2.44-5.28-5.37-5.25c-16.47,0.18-34.49-10.05-46.38-20.58c-2.19-1.94-5.55-1.74-7.49,0.46
		C1028.78,1018.72,1028.99,1022.08,1031.18,1024.02L1031.18,1024.02z"/>
</g>
</svg>
