<?xml version="1.0" encoding="utf-8"?>
<!-- Generator: Adobe Illustrator 26.4.1, SVG Export Plug-In . SVG Version: 6.00 Build 0)  -->
<svg version="1.1" id="Layer_1" xmlns="http://www.w3.org/2000/svg" xmlns:xlink="http://www.w3.org/1999/xlink" x="0px" y="0px"
	 viewBox="0 0 2000 2000" style="enable-background:new 0 0 2000 2000;" xml:space="preserve">
<style type="text/css">
	.st0{fill-rule:evenodd;clip-rule:evenodd;fill:#145468;}
	.st1{fill-rule:evenodd;clip-rule:evenodd;fill:#3B7A7A;}
	.st2{fill-rule:evenodd;clip-rule:evenodd;fill:#098B8D;}
	.st3{fill-rule:evenodd;clip-rule:evenodd;fill:#689595;}
	.st4{fill-rule:evenodd;clip-rule:evenodd;fill:#679595;}
	.st5{fill-rule:evenodd;clip-rule:evenodd;fill:#CEE4E4;}
	
		.st6{fill-rule:evenodd;clip-rule:evenodd;fill:#145468;stroke:#CEE4E4;stroke-width:5;stroke-linecap:round;stroke-linejoin:round;stroke-miterlimit:10;}
	.st7{fill-rule:evenodd;clip-rule:evenodd;fill:#043A60;}
	.st8{fill-rule:evenodd;clip-rule:evenodd;fill:#FD9A65;}
	.st9{fill-rule:evenodd;clip-rule:evenodd;fill:#18658D;}
	.st10{fill-rule:evenodd;clip-rule:evenodd;fill:#9FCDE5;}
	.st11{fill-rule:evenodd;clip-rule:evenodd;fill:#56A8D3;}
	.st12{fill-rule:evenodd;clip-rule:evenodd;fill:#276383;}
	.st13{fill-rule:evenodd;clip-rule:evenodd;fill:#E0F0F8;}
	.st14{fill-rule:evenodd;clip-rule:evenodd;fill:#A51E1C;}
	.st15{fill-rule:evenodd;clip-rule:evenodd;fill:#CB442D;}
	.st16{fill-rule:evenodd;clip-rule:evenodd;fill:#DC5A44;}
	.st17{fill-rule:evenodd;clip-rule:evenodd;fill:#F7BD54;}
	.st18{fill-rule:evenodd;clip-rule:evenodd;fill:#E46B37;}
	.st19{fill-rule:evenodd;clip-rule:evenodd;fill:#B67227;}
	.st20{fill-rule:evenodd;clip-rule:evenodd;fill:#D78A35;}
	.st21{fill-rule:evenodd;clip-rule:evenodd;fill:#A4331F;}
	.st22{fill-rule:evenodd;clip-rule:evenodd;fill:#F2A550;}
	.st23{fill-rule:evenodd;clip-rule:evenodd;fill:#F9E9D6;}
	.st24{fill-rule:evenodd;clip-rule:evenodd;fill:#844013;}
	.st25{fill-rule:evenodd;clip-rule:evenodd;fill:#A04E18;}
	.st26{fill-rule:evenodd;clip-rule:evenodd;fill:#F8B872;}
	.st27{fill-rule:evenodd;clip-rule:evenodd;fill:#FFC689;}
	.st28{fill-rule:evenodd;clip-rule:evenodd;fill:#B6844D;}
	.st29{fill-rule:evenodd;clip-rule:evenodd;fill:#CA5320;}
	.st30{fill-rule:evenodd;clip-rule:evenodd;fill:#D76332;}
	.st31{fill-rule:evenodd;clip-rule:evenodd;fill:#812F0C;}
	.st32{fill-rule:evenodd;clip-rule:evenodd;fill:#8A460F;}
	.st33{fill-rule:evenodd;clip-rule:evenodd;fill:#B46914;}
	.st34{fill-rule:evenodd;clip-rule:evenodd;fill:#B54515;}
	.st35{fill-rule:evenodd;clip-rule:evenodd;fill:#FFCD71;}
	.st36{fill-rule:evenodd;clip-rule:evenodd;fill:#95B41D;}
	.st37{fill-rule:evenodd;clip-rule:evenodd;fill:#A8C731;}
	.st38{fill-rule:evenodd;clip-rule:evenodd;fill:#85A214;}
	.st39{fill-rule:evenodd;clip-rule:evenodd;fill:#C6EF28;}
	.st40{fill-rule:evenodd;clip-rule:evenodd;fill:#ED982B;}
	.st41{fill-rule:evenodd;clip-rule:evenodd;fill:#FCCF7C;}
	.st42{fill-rule:evenodd;clip-rule:evenodd;fill:#FFE8BC;}
	.st43{fill-rule:evenodd;clip-rule:evenodd;fill:#ED6961;}
	.st44{fill-rule:evenodd;clip-rule:evenodd;fill:#696E1E;}
	.st45{fill-rule:evenodd;clip-rule:evenodd;fill:#9CA42A;}
	.st46{fill-rule:evenodd;clip-rule:evenodd;fill:#7F8615;}
	.st47{fill-rule:evenodd;clip-rule:evenodd;fill:#FFEECF;}
	.st48{fill-rule:evenodd;clip-rule:evenodd;fill:#77786D;}
	.st49{fill-rule:evenodd;clip-rule:evenodd;fill:#D3D5C6;}
	.st50{fill-rule:evenodd;clip-rule:evenodd;fill:#7C7A7A;}
	.st51{fill-rule:evenodd;clip-rule:evenodd;fill:#DBDCD9;}
	.st52{fill-rule:evenodd;clip-rule:evenodd;fill:#CA372D;}
	.st53{fill-rule:evenodd;clip-rule:evenodd;fill:#FE7D75;}
	.st54{fill-rule:evenodd;clip-rule:evenodd;fill:#B0B0B0;}
	.st55{fill-rule:evenodd;clip-rule:evenodd;fill:#888787;}
	.st56{fill-rule:evenodd;clip-rule:evenodd;fill:#6E6E6E;}
	.st57{fill-rule:evenodd;clip-rule:evenodd;fill:#757575;}
	.st58{fill-rule:evenodd;clip-rule:evenodd;fill:#60341E;}
	.st59{fill-rule:evenodd;clip-rule:evenodd;fill:#B0451B;}
	.st60{fill-rule:evenodd;clip-rule:evenodd;fill:#8A4727;}
	.st61{fill-rule:evenodd;clip-rule:evenodd;fill:#FABB64;}
	.st62{fill-rule:evenodd;clip-rule:evenodd;fill:#3E88AF;}
	.st63{fill-rule:evenodd;clip-rule:evenodd;fill:#5BA0C5;}
	.st64{fill-rule:evenodd;clip-rule:evenodd;fill:#FFF1DE;}
	.st65{fill-rule:evenodd;clip-rule:evenodd;fill:#F8B89B;}
	.st66{fill-rule:evenodd;clip-rule:evenodd;fill:#E98A5F;}
	.st67{fill-rule:evenodd;clip-rule:evenodd;fill:#FFCAB3;}
	.st68{fill-rule:evenodd;clip-rule:evenodd;fill:#F9A580;}
	.st69{fill-rule:evenodd;clip-rule:evenodd;fill:#FFDFD2;}
	.st70{fill-rule:evenodd;clip-rule:evenodd;fill:#E2A85C;}
	.st71{fill-rule:evenodd;clip-rule:evenodd;fill:#C68446;}
	.st72{fill-rule:evenodd;clip-rule:evenodd;fill:#F2BC75;}
	.st73{fill-rule:evenodd;clip-rule:evenodd;fill:#F2BC76;}
	.st74{fill-rule:evenodd;clip-rule:evenodd;fill:#FFD69F;}
	.st75{fill-rule:evenodd;clip-rule:evenodd;fill:#E7624B;}
	.st76{fill-rule:evenodd;clip-rule:evenodd;fill:#FFEED9;}
	.st77{fill-rule:evenodd;clip-rule:evenodd;fill:#C26E11;}
	.st78{fill-rule:evenodd;clip-rule:evenodd;fill:#F39226;}
	.st79{fill-rule:evenodd;clip-rule:evenodd;fill:#DF5020;}
	.st80{fill-rule:evenodd;clip-rule:evenodd;fill:#2C140B;}
	.st81{fill-rule:evenodd;clip-rule:evenodd;fill:#FFFFFF;}
	.st82{fill-rule:evenodd;clip-rule:evenodd;}
	.st83{fill-rule:evenodd;clip-rule:evenodd;fill:#A96F3E;}
	.st84{fill-rule:evenodd;clip-rule:evenodd;fill:#683A15;}
	.st85{fill-rule:evenodd;clip-rule:evenodd;fill:#F0DCCB;}
	.st86{fill-rule:evenodd;clip-rule:evenodd;fill:#E6D1B6;}
	.st87{fill-rule:evenodd;clip-rule:evenodd;fill:#69553C;}
</style>
<g>
	<path class="st50" d="M504.74,1047.97c2.29-0.46,5.3-1.74,8.6-4.25c4.15-3.16,9.72-8.99,15.75-16.35
		c18.55-22.61,42.65-60.24,46.3-69.09c3.78-9.15-0.4-21.16-11.28-30.29c-7.19-6.03-16.96-10.92-26.02-12.75
		c-7.51-1.52-14.62-0.92-20.18,1.71c-5.83,2.76-13.7,9.72-21.71,19.03c-16.55,19.22-34.86,48.45-39.44,60.16
		c-7.07,18.06,1.18,32.44,13.83,41.67C482.25,1046.31,497.59,1049.43,504.74,1047.97L504.74,1047.97z M554.18,950.63
		c-4.5,9.58-26,42.38-42.48,62.46c-4.45,5.43-10.79,11.44-12.31,12.87c-0.85-0.04-1.87-0.3-3.01-0.57
		c-3.95-0.93-8.58-2.89-12.52-5.76c-4.75-3.46-8.79-8.51-6.14-15.29c4.1-10.48,20.72-36.47,35.53-53.67
		c5.43-6.3,10.33-11.5,14.28-13.37c1.68-0.79,3.84-0.45,6.1,0.01c5.59,1.13,11.58,4.2,16.01,7.93
		C551.51,946.78,553.53,949.66,554.18,950.63L554.18,950.63z"/>
	<path class="st50" d="M498.99,951.15c0,0-15.58,25.34-15.9,25.16c-7.22-4.14-19.78-14.41-29.35-18.28
		c-1.02-0.41-8.26,13.32-30.74,15.22c-28.84,2.44-56.02-23.71-54.95-61.08c0.69-24.08,19.09-40.69,29.79-43.17
		c15.81-3.66,27.75,8.34,33.55,16.35c3.08,4.24-4.96,14.97-10.61,13.3c-4.95-1.46-11.55-9.24-18.95-2.75
		c-5.5,4.83-7.99,14.2-3.19,23.76c7.45,14.82,21.16,20.84,30.63,17.53c6.78-2.37,13.35-6.84,20.35-17.46
		c1.22-1.85-15.52-12.1-16.98-16.48c-1.35-4.04,4.09-12.22,8.22-9.75c6.8,4.06,21.25,12.81,27.17,19.51
		c2.49,2.82-0.05,14.44,4.18,18.04C479.27,937.06,492.15,946.95,498.99,951.15L498.99,951.15z"/>
	<path class="st51" d="M374.43,930.13c10.08,28.06,39.82,41,60.42,34.02c1.72-0.58,2.64-2.45,2.05-4.16
		c-0.58-1.72-2.44-2.64-4.16-2.05c-17.87,6.05-43.39-5.68-52.13-30.03c-0.61-1.7-2.49-2.59-4.2-1.98
		C374.7,926.54,373.82,928.42,374.43,930.13L374.43,930.13z"/>
	<path class="st51" d="M388.75,935.35c1.34,4.13,5.27,8.3,9.84,11.34c4.52,3,9.6,4.87,12.96,4.91c1.81,0.02,3.3-1.43,3.32-3.24
		c0.02-1.81-1.43-3.3-3.24-3.32c-2.46-0.03-6.1-1.62-9.41-3.82c-3.26-2.17-6.28-4.95-7.23-7.9c-0.56-1.72-2.41-2.67-4.13-2.11
		C389.14,931.78,388.2,933.63,388.75,935.35L388.75,935.35z"/>
	<path class="st51" d="M414.29,874.62c-4.36-3.1-9.89-3.42-15.42-1.82c-7.53,2.18-14.96,7.95-18.55,13.6
		c-0.97,1.53-0.52,3.56,1.01,4.53c1.53,0.97,3.56,0.52,4.53-1.01c2.86-4.51,8.83-9.08,14.83-10.81c3.5-1.01,7.03-1.1,9.79,0.86
		c1.48,1.05,3.53,0.7,4.58-0.77C416.11,877.72,415.76,875.67,414.29,874.62L414.29,874.62z"/>
	<path class="st51" d="M464.83,1021.73c7.67,8.85,18.16,15.7,28.69,16.89c1.8,0.2,3.43-1.09,3.63-2.89c0.2-1.8-1.09-3.43-2.89-3.63
		c-9.02-1.02-17.89-7.08-24.46-14.67c-1.18-1.37-3.26-1.52-4.63-0.33C463.79,1018.29,463.65,1020.36,464.83,1021.73L464.83,1021.73z
		"/>
	<path class="st52" d="M1550.22,1338.83c106.53,7.18,278.11,88.39,258.72,199.68c-25.03,143.66-282.12,219.8-489.84,199.52
		c-162.87-15.9-378.1-142.13-481.53-285.94c-76.64-106.56-46.77-224.05-102.06-321.81c-54.49-96.34-177.08-121.87-211.94-130.32
		c-5.15-1.25,10.8-30.25,16.68-28.19c34.77,12.18,143.06,47.71,197.01,114.28c84.31,104.04,51.02,261.08,132.78,359.04
		c83.62,100.19,217,196.71,368.91,242.07c155.12,46.32,531.2,25.92,536.1-171.91c2.44-98.64-178.1-147.91-244.03-150.58
		C1520.3,1364.23,1543.09,1338.35,1550.22,1338.83L1550.22,1338.83z"/>
	<path class="st53" d="M883.65,639.93c-81.5,10.97-279.2,19.41-467.47,91.18C188.94,817.74,52.14,962.35,39.7,1197.48
		c-9.62,181.88,140.32,326.13,426,386.28c270.59,56.98,540.67-87.29,717.58-140.4c153.03-45.94,305.3-66.76,373.41-54.43
		c9.74,1.77,28.45-79.01,10.01-84.09c-85.31-23.5-299.86,35.73-404,67.01c-162.73,48.88-348.31,122.27-521.95,137.53
		c-139.42,12.25-351.56-35.8-426.12-121.7c-114.61-132.02-105.6-213.4-59.41-344.66c109.06-309.89,587.15-308.36,726.54-337.55
		C903.15,701.01,905.23,637.03,883.65,639.93L883.65,639.93z"/>
	<path class="st52" d="M1705.24,564.57c-6.2,32.27,5.36,61.65,22.06,74.37c20.3,15.46,54.01,7.27,54.01,7.27s-4.69,22.5,10.15,46.6
		c11.28,18.33,33.37,25.76,33.37,25.76s-12.56,13.21-18.75,29.25c-9.82,25.48,2.2,49.79,2.2,49.79s-15.86,1.33-36.19,21.67
		c-14.56,14.57-17.96,36.99-17.96,36.99s-28.17-10.35-55.78,11.52c-19.22,15.22-26.74,48.88-9.32,52.7
		c26.46,5.81,127.27,11.78,168.11-17.87c40.84-29.66,74-109.22,76.94-160.06c2.93-50.84-21.18-115.3-59.32-144.97
		C1836.62,567.92,1705.24,564.57,1705.24,564.57L1705.24,564.57z"/>
	<path class="st52" d="M1600.12,534.77c0,0-305.29-7.18-305.44-11.64c-1.33-40.32,1.8-82.38,15.06-84.9
		c40.21-7.64,136.97-1.53,182.44,10.22c13.33,3.44,8.88,62.74,8.88,62.74l23.38,0.69c0,0-1.56-39.48,6.37-41.95
		c6.98-2.17,74-0.18,73.54,9.35C1603.62,494.33,1600.12,534.77,1600.12,534.77L1600.12,534.77z"/>
	<path class="st52" d="M1140.35,488.63c-3.28-13.05-77.46-5.84-93.59,0.59c-5.46,2.17-36.39,45.83-47.91,56.76
		c-16.65,15.8-79.9,21.56-109.22,53.12c-22.72,24.46-14.94,151.54-10.59,176.55c2.11,12.15,58.5,54.72,86.11,39.41
		c46.43-25.73,192.46-193.8,192.46-193.8S1145.75,510.11,1140.35,488.63L1140.35,488.63z"/>
	<path class="st53" d="M1834.4,548.54c-120.43-44.36-750.16-101.45-875.1,18.18c-69.43,66.48-56.68,335.41-8.77,375.74
		c112.75,94.93,723.52,55,891.95,6.28c66.6-19.27,126.17-106.46,131.95-197.46C1979.73,667.6,1911.52,576.95,1834.4,548.54
		L1834.4,548.54z M1588.32,588.73c22.32-4.81,46.05-7.4,70.66-7.4c129.99,0,235.53,72.34,235.53,161.45
		c0,89.11-105.54,161.45-235.53,161.45c-24.61,0-48.34-2.59-70.66-7.4V588.73L1588.32,588.73z"/>
	<path class="st23" d="M1240.72,588.61c90.71,0,164.36,73.65,164.36,164.36c0,90.71-73.65,164.36-164.36,164.36
		c-90.71,0-164.36-73.65-164.36-164.36C1076.36,662.26,1150.01,588.61,1240.72,588.61L1240.72,588.61z"/>
	<path class="st52" d="M1298.52,813.63c9.51-30.05-28.16-81.6-58.9-82.14c-37.09-0.65-75.66,51.41-74.09,80.04
		c1.65,30.11,52.66,24.46,72.12,21.84C1258.08,830.62,1287.67,847.93,1298.52,813.63L1298.52,813.63z"/>
	<path class="st52" d="M1175.59,758.5c-14.56,3.73-36.13,2.32-44.15-13.28c-7.1-13.8,8.67-34.86,21.11-38.11
		c18.79-4.91,29.71,6.98,33.16,28.82C1187.56,747.7,1182.78,756.65,1175.59,758.5L1175.59,758.5z"/>
	<path class="st52" d="M1218.56,725.86c-14-5.46-30.7-19.2-28.11-36.54c2.29-15.35,27.38-23.26,39.37-18.64
		c18.13,6.98,20.06,23,10.12,42.76C1234.58,724.07,1225.47,728.56,1218.56,725.86L1218.56,725.86z"/>
	<path class="st52" d="M1266.81,727.8c-4.8-14.24-4.99-35.86,9.96-45.02c13.24-8.1,35.41,6.05,39.57,18.22
		c6.29,18.38-4.75,30.15-26.28,35.21C1278.47,738.94,1269.19,734.84,1266.81,727.8L1266.81,727.8z"/>
	<path class="st52" d="M1296.23,762.7c3.44-14.63,14.69-33.09,32.23-32.97c15.52,0.11,26.88,23.84,23.99,36.36
		c-4.36,18.93-19.95,23.1-40.91,16.03C1300.25,778.32,1294.53,769.93,1296.23,762.7L1296.23,762.7z"/>
	<path class="st23" d="M1135.67,597.93c-85.1,49.06-111.61,171.22-57.74,244.86c1.93,2.63,5.62,3.2,8.26,1.28
		c2.63-1.92,3.2-5.62,1.28-8.25c-50.11-68.49-25.05-182.02,54.1-227.65c2.82-1.63,3.79-5.24,2.17-8.06
		C1142.1,597.28,1138.49,596.31,1135.67,597.93L1135.67,597.93z"/>
	<path class="st23" d="M1083.9,634.83c26.54-42.67,81.99-69.71,132.47-65.54c3.25,0.27,6.11-2.15,6.37-5.4
		c0.27-3.25-2.15-6.1-5.4-6.37c-54.68-4.52-114.72,24.84-143.47,71.07c-1.72,2.77-0.87,6.41,1.9,8.13
		C1078.54,638.44,1082.18,637.59,1083.9,634.83L1083.9,634.83z"/>
	<path class="st23" d="M1403.98,679.47c36.06,73.1,6.87,151.78-40.75,197.64c-2.35,2.26-2.42,6-0.16,8.35
		c2.26,2.35,6,2.42,8.35,0.16c50.91-49.03,81.69-133.22,43.15-211.37c-1.44-2.92-4.99-4.12-7.91-2.68
		C1403.74,673,1402.54,676.55,1403.98,679.47L1403.98,679.47z"/>
	<path class="st23" d="M1442.13,743.75c3.16,45.37-15.26,91.13-39.93,120.67c-2.09,2.5-1.76,6.23,0.75,8.32
		c2.5,2.09,6.23,1.75,8.32-0.75c26.38-31.59,46.02-80.54,42.65-129.07c-0.23-3.25-3.05-5.71-6.3-5.48
		C1444.36,737.68,1441.91,740.5,1442.13,743.75L1442.13,743.75z"/>
	<path class="st23" d="M1669.9,543.7c90.67,0.45,191.85,22.24,241.06,90.89c1.9,2.65,5.59,3.26,8.24,1.36
		c2.65-1.9,3.26-5.59,1.36-8.24c-51.24-71.5-156.18-95.35-250.6-95.82c-3.26-0.02-5.92,2.61-5.93,5.87
		C1664.01,541.03,1666.64,543.68,1669.9,543.7L1669.9,543.7z"/>
	<path class="st23" d="M1782.11,579.21c33.07,5.21,76.58,25.36,102.86,58.3c2.03,2.55,5.75,2.96,8.3,0.94
		c2.55-2.03,2.97-5.75,0.94-8.3c-28.18-35.32-74.79-57.01-110.25-62.6c-3.22-0.51-6.25,1.69-6.75,4.91
		C1776.69,575.68,1778.89,578.7,1782.11,579.21L1782.11,579.21z"/>
	<path class="st23" d="M1910.52,843.37c-33.07,47.77-100.91,80.27-174.26,81.84c-3.26,0.07-5.85,2.77-5.78,6.03
		c0.07,3.26,2.77,5.85,6.03,5.78c77.43-1.65,148.8-36.5,183.71-86.93c1.85-2.68,1.19-6.36-1.49-8.22
		C1916.05,840.02,1912.37,840.69,1910.52,843.37L1910.52,843.37z"/>
	<path class="st23" d="M1892.59,888.81c-28.12,27.91-66.58,43.52-99.65,48.38c-3.23,0.47-5.46,3.48-4.99,6.7
		c0.47,3.22,3.48,5.46,6.7,4.98c35.27-5.18,76.25-21.91,106.25-51.68c2.31-2.29,2.32-6.04,0.03-8.35
		C1898.64,886.53,1894.9,886.51,1892.59,888.81L1892.59,888.81z"/>
	<path class="st23" d="M1824.76,728.86c-12.38,13.46-15.27,31.74-13.27,51.56c0.22,2.11,2.1,3.65,4.21,3.44
		c2.11-0.21,3.65-2.1,3.44-4.21c-1.77-17.48,0.36-33.71,11.28-45.59c1.44-1.56,1.33-3.99-0.23-5.43
		C1828.63,727.19,1826.2,727.29,1824.76,728.86L1824.76,728.86z"/>
	<path class="st23" d="M1831.44,740.95c-6.56,7.27-9.64,20.79-9.12,31c0.11,2.12,1.92,3.75,4.04,3.64c2.12-0.11,3.75-1.92,3.64-4.03
		c-0.43-8.36,1.78-19.51,7.15-25.46c1.42-1.57,1.3-4.01-0.28-5.43C1835.3,739.25,1832.86,739.38,1831.44,740.95L1831.44,740.95z"/>
	<path class="st23" d="M1788.28,661.44c0.5,18.19,12.69,38.4,28.62,46.6c1.89,0.97,4.21,0.23,5.18-1.66
		c0.97-1.89,0.23-4.21-1.66-5.18c-13.65-7.03-24.02-24.38-24.45-39.97c-0.06-2.12-1.83-3.79-3.95-3.74
		C1789.9,657.55,1788.22,659.32,1788.28,661.44L1788.28,661.44z"/>
	<path class="st23" d="M1805.17,804.13c-18.03,5.02-36.52,21.26-43.46,41.91c-0.68,2.01,0.41,4.19,2.42,4.87
		c2.01,0.67,4.2-0.41,4.87-2.42c6.11-18.19,22.35-32.53,38.23-36.95c2.05-0.57,3.24-2.69,2.67-4.73
		C1809.34,804.76,1807.22,803.56,1805.17,804.13L1805.17,804.13z"/>
	<path class="st23" d="M1805.55,818.17c-12.15,3.49-23.71,13.3-27.88,21.36c-0.97,1.88-0.23,4.2,1.65,5.18
		c1.89,0.98,4.21,0.24,5.18-1.65c3.44-6.66,13.13-14.61,23.17-17.5c2.04-0.58,3.22-2.72,2.63-4.76
		C1809.73,818.76,1807.59,817.58,1805.55,818.17L1805.55,818.17z"/>
	<path class="st23" d="M1716.35,614.09c5.36,10.89,16.15,19.46,26.89,23.98c7.42,3.12,14.81,4.28,20.42,3.23
		c2.09-0.39,3.46-2.4,3.07-4.49c-0.39-2.09-2.4-3.46-4.49-3.07c-4.41,0.83-10.19-0.3-16.02-2.76c-9.13-3.84-18.41-11.03-22.97-20.29
		c-0.94-1.9-3.25-2.69-5.15-1.75C1716.2,609.88,1715.42,612.19,1716.35,614.09L1716.35,614.09z"/>
	<path class="st23" d="M1745.53,858.44c-10.9-0.8-33.47,3.44-44.91,16.49c-1.4,1.6-1.24,4.03,0.35,5.43c1.6,1.4,4.03,1.24,5.43-0.35
		c9.81-11.18,29.23-14.57,38.57-13.89c2.12,0.15,3.96-1.44,4.12-3.56C1749.24,860.43,1747.65,858.59,1745.53,858.44L1745.53,858.44z
		"/>
	<path class="st23" d="M1356.38,455.74c18.9,0.81,56.7,2.43,82.52,4.9c3.24,0.31,6.13-2.07,6.44-5.31c0.31-3.24-2.07-6.13-5.32-6.44
		c-26.01-2.49-64.09-4.12-83.13-4.94c-3.26-0.14-6.01,2.39-6.16,5.65C1350.59,452.84,1353.12,455.6,1356.38,455.74L1356.38,455.74z"
		/>
	<path class="st23" d="M1405.09,477.07c24.35,0.83,48.78,4.08,69.05,3.97c3.26-0.02,5.89-2.68,5.87-5.94
		c-0.02-3.26-2.68-5.89-5.94-5.87c-20.12,0.11-44.4-3.14-68.58-3.96c-3.26-0.11-5.99,2.44-6.1,5.7
		C1399.28,474.22,1401.83,476.95,1405.09,477.07L1405.09,477.07z"/>
	<path class="st23" d="M891.17,608.09c-1.36,2.05-3.12,7.07-4.63,13.58c-3.14,13.55-5.84,34.03-5,43.24
		c0.3,3.24,3.18,5.64,6.42,5.34c3.25-0.3,5.64-3.18,5.34-6.42c-0.77-8.41,1.87-27.11,4.74-39.49c1.07-4.6,2-8.26,2.97-9.71
		c1.8-2.72,1.06-6.38-1.65-8.19C896.64,604.64,892.97,605.38,891.17,608.09L891.17,608.09z"/>
	<path class="st23" d="M907.5,615.42c-9,16.84-11.63,62.91-10.81,77.86c0.18,3.25,2.96,5.75,6.22,5.58
		c3.25-0.18,5.75-2.96,5.58-6.22c-0.75-13.74,1.17-56.17,9.44-71.65c1.53-2.88,0.45-6.46-2.43-7.99
		C912.61,611.46,909.03,612.55,907.5,615.42L907.5,615.42z"/>
	<path class="st23" d="M961.35,936.96c67.17,28.67,134.32,28.04,181.55,34.13c3.23,0.42,6.19-1.87,6.61-5.1
		c0.42-3.23-1.87-6.19-5.1-6.61c-46.4-5.99-112.43-5.11-178.43-33.28c-3-1.28-6.47,0.12-7.75,3.11
		C956.96,932.21,958.35,935.69,961.35,936.96L961.35,936.96z"/>
	<path class="st23" d="M995.15,925.47c44.43,16.58,96.18,19.28,122.06,20.59c3.26,0.17,6.03-2.34,6.2-5.6
		c0.17-3.26-2.34-6.03-5.6-6.2c-25.13-1.28-75.4-3.76-118.53-19.86c-3.05-1.14-6.46,0.42-7.6,3.47
		C990.54,920.92,992.09,924.32,995.15,925.47L995.15,925.47z"/>
	<path class="st23" d="M151.93,930.76c-73.18,81.77-111.8,219.65-83.47,323.45c0.86,3.14,4.11,5,7.25,4.14
		c3.15-0.86,5-4.11,4.14-7.25c-27.37-100.29,10.17-233.45,80.88-312.46c2.17-2.43,1.97-6.17-0.46-8.34
		C157.84,928.13,154.11,928.33,151.93,930.76L151.93,930.76z"/>
	<path class="st23" d="M125.59,1016.63c-28.1,41.27-55.91,131.48-39.55,191.81c0.85,3.15,4.1,5.01,7.24,4.16
		c3.15-0.85,5.01-4.1,4.16-7.25c-15.53-57.3,11.23-142.88,37.92-182.08c1.83-2.69,1.13-6.37-1.56-8.2
		C131.1,1013.24,127.42,1013.94,125.59,1016.63L125.59,1016.63z"/>
	<path class="st23" d="M347.17,785.1c70.45-34.7,133.71-54.72,191.37-70.61c3.14-0.86,4.99-4.12,4.12-7.26
		c-0.86-3.14-4.12-4.99-7.26-4.12c-58.29,16.06-122.23,36.32-193.45,71.4c-2.92,1.44-4.13,4.98-2.69,7.91
		C340.7,785.34,344.25,786.54,347.17,785.1L347.17,785.1z"/>
	<path class="st23" d="M441.02,766.79c58.27-24.83,110.23-35.37,165.22-46.22c3.2-0.63,5.28-3.74,4.65-6.94
		c-0.63-3.2-3.74-5.28-6.94-4.65c-55.78,11-108.46,21.76-167.57,46.94c-3,1.28-4.4,4.75-3.12,7.75
		C434.55,766.67,438.02,768.07,441.02,766.79L441.02,766.79z"/>
	<path class="st23" d="M633.12,1541.67c117.12-0.2,285.19-60.5,365.6-91.1c3.05-1.16,4.58-4.57,3.42-7.62
		c-1.16-3.05-4.57-4.58-7.62-3.42c-79.51,30.25-245.62,90.13-361.43,90.33c-3.26,0-5.9,2.65-5.89,5.91
		C627.21,1539.03,629.86,1541.67,633.12,1541.67L633.12,1541.67z"/>
	<path class="st23" d="M770.71,1547.47c81.57-14.88,144.14-42.92,195.49-63.2c3.03-1.2,4.52-4.63,3.32-7.66
		c-1.2-3.03-4.63-4.52-7.66-3.32c-50.77,20.06-112.61,47.85-193.27,62.56c-3.2,0.59-5.33,3.66-4.75,6.87
		C764.43,1545.92,767.51,1548.05,770.71,1547.47L770.71,1547.47z"/>
	<path class="st23" d="M1263.88,1373.83c84.61-31.2,180.64-44.38,233.61-47.24c3.25-0.18,5.75-2.96,5.58-6.21
		c-0.18-3.26-2.96-5.75-6.22-5.58c-53.76,2.9-151.21,16.29-237.06,47.95c-3.06,1.13-4.63,4.52-3.5,7.58
		C1257.43,1373.4,1260.83,1374.96,1263.88,1373.83L1263.88,1373.83z"/>
	<path class="st23" d="M1356.35,1367.63c48.24-10.94,108.48-24.96,164.46-21.93c3.25,0.17,6.04-2.33,6.22-5.58
		c0.17-3.25-2.33-6.04-5.58-6.22c-57.08-3.08-118.52,11.06-167.71,22.21c-3.18,0.72-5.17,3.88-4.45,7.06
		C1350.01,1366.36,1353.17,1368.35,1356.35,1367.63L1356.35,1367.63z"/>
	<path class="st23" d="M1353.38,1727.12c49.96,4.58,88.02,3.91,126.23-2.65c3.21-0.55,5.37-3.61,4.82-6.82
		c-0.55-3.21-3.61-5.37-6.82-4.82c-37.28,6.4-74.41,7-123.16,2.53c-3.24-0.3-6.12,2.09-6.42,5.34
		C1347.74,1723.95,1350.13,1726.82,1353.38,1727.12L1353.38,1727.12z"/>
	<path class="st23" d="M1017.02,1603.42c29.07,22.12,41.01,28.92,65.02,39.9c2.96,1.35,6.47,0.05,7.82-2.92
		c1.36-2.96,0.05-6.47-2.91-7.83c-23.2-10.6-34.71-17.2-62.79-38.56c-2.59-1.97-6.3-1.47-8.27,1.13
		C1013.92,1597.74,1014.42,1601.45,1017.02,1603.42L1017.02,1603.42z"/>
	<path class="st23" d="M544.7,994.34c31.06,9.85,52.07,15.16,75.86,29c2.82,1.64,6.43,0.68,8.07-2.14c1.64-2.82,0.68-6.43-2.14-8.07
		c-24.55-14.27-46.17-19.87-78.22-30.05c-3.11-0.98-6.43,0.74-7.42,3.84C539.87,990.03,541.59,993.35,544.7,994.34L544.7,994.34z"/>
</g>
</svg>
