<?xml version="1.0" encoding="utf-8"?>
<!-- Generator: Adobe Illustrator 26.4.1, SVG Export Plug-In . SVG Version: 6.00 Build 0)  -->
<svg version="1.1" id="Layer_1" xmlns="http://www.w3.org/2000/svg" xmlns:xlink="http://www.w3.org/1999/xlink" x="0px" y="0px"
	 viewBox="0 0 2000 2000" style="enable-background:new 0 0 2000 2000;" xml:space="preserve">
<style type="text/css">
	.st0{fill-rule:evenodd;clip-rule:evenodd;fill:#145468;}
	.st1{fill-rule:evenodd;clip-rule:evenodd;fill:#3B7A7A;}
	.st2{fill-rule:evenodd;clip-rule:evenodd;fill:#098B8D;}
	.st3{fill-rule:evenodd;clip-rule:evenodd;fill:#689595;}
	.st4{fill-rule:evenodd;clip-rule:evenodd;fill:#679595;}
	.st5{fill-rule:evenodd;clip-rule:evenodd;fill:#CEE4E4;}
	
		.st6{fill-rule:evenodd;clip-rule:evenodd;fill:#145468;stroke:#CEE4E4;stroke-width:5;stroke-linecap:round;stroke-linejoin:round;stroke-miterlimit:10;}
	.st7{fill-rule:evenodd;clip-rule:evenodd;fill:#043A60;}
	.st8{fill-rule:evenodd;clip-rule:evenodd;fill:#FD9A65;}
	.st9{fill-rule:evenodd;clip-rule:evenodd;fill:#18658D;}
	.st10{fill-rule:evenodd;clip-rule:evenodd;fill:#9FCDE5;}
	.st11{fill-rule:evenodd;clip-rule:evenodd;fill:#56A8D3;}
	.st12{fill-rule:evenodd;clip-rule:evenodd;fill:#276383;}
	.st13{fill-rule:evenodd;clip-rule:evenodd;fill:#E0F0F8;}
	.st14{fill-rule:evenodd;clip-rule:evenodd;fill:#A51E1C;}
	.st15{fill-rule:evenodd;clip-rule:evenodd;fill:#CB442D;}
	.st16{fill-rule:evenodd;clip-rule:evenodd;fill:#DC5A44;}
	.st17{fill-rule:evenodd;clip-rule:evenodd;fill:#F7BD54;}
	.st18{fill-rule:evenodd;clip-rule:evenodd;fill:#E46B37;}
	.st19{fill-rule:evenodd;clip-rule:evenodd;fill:#B67227;}
	.st20{fill-rule:evenodd;clip-rule:evenodd;fill:#D78A35;}
	.st21{fill-rule:evenodd;clip-rule:evenodd;fill:#A4331F;}
	.st22{fill-rule:evenodd;clip-rule:evenodd;fill:#F2A550;}
	.st23{fill-rule:evenodd;clip-rule:evenodd;fill:#F9E9D6;}
	.st24{fill-rule:evenodd;clip-rule:evenodd;fill:#844013;}
	.st25{fill-rule:evenodd;clip-rule:evenodd;fill:#A04E18;}
	.st26{fill-rule:evenodd;clip-rule:evenodd;fill:#F8B872;}
	.st27{fill-rule:evenodd;clip-rule:evenodd;fill:#FFC689;}
	.st28{fill-rule:evenodd;clip-rule:evenodd;fill:#B6844D;}
	.st29{fill-rule:evenodd;clip-rule:evenodd;fill:#CA5320;}
	.st30{fill-rule:evenodd;clip-rule:evenodd;fill:#D76332;}
	.st31{fill-rule:evenodd;clip-rule:evenodd;fill:#812F0C;}
	.st32{fill-rule:evenodd;clip-rule:evenodd;fill:#8A460F;}
	.st33{fill-rule:evenodd;clip-rule:evenodd;fill:#B46914;}
	.st34{fill-rule:evenodd;clip-rule:evenodd;fill:#B54515;}
	.st35{fill-rule:evenodd;clip-rule:evenodd;fill:#FFCD71;}
	.st36{fill-rule:evenodd;clip-rule:evenodd;fill:#95B41D;}
	.st37{fill-rule:evenodd;clip-rule:evenodd;fill:#A8C731;}
	.st38{fill-rule:evenodd;clip-rule:evenodd;fill:#85A214;}
	.st39{fill-rule:evenodd;clip-rule:evenodd;fill:#C6EF28;}
	.st40{fill-rule:evenodd;clip-rule:evenodd;fill:#ED982B;}
	.st41{fill-rule:evenodd;clip-rule:evenodd;fill:#FCCF7C;}
	.st42{fill-rule:evenodd;clip-rule:evenodd;fill:#FFE8BC;}
	.st43{fill-rule:evenodd;clip-rule:evenodd;fill:#ED6961;}
	.st44{fill-rule:evenodd;clip-rule:evenodd;fill:#696E1E;}
	.st45{fill-rule:evenodd;clip-rule:evenodd;fill:#9CA42A;}
	.st46{fill-rule:evenodd;clip-rule:evenodd;fill:#7F8615;}
	.st47{fill-rule:evenodd;clip-rule:evenodd;fill:#FFEECF;}
	.st48{fill-rule:evenodd;clip-rule:evenodd;fill:#77786D;}
	.st49{fill-rule:evenodd;clip-rule:evenodd;fill:#D3D5C6;}
	.st50{fill-rule:evenodd;clip-rule:evenodd;fill:#7C7A7A;}
	.st51{fill-rule:evenodd;clip-rule:evenodd;fill:#DBDCD9;}
	.st52{fill-rule:evenodd;clip-rule:evenodd;fill:#CA372D;}
	.st53{fill-rule:evenodd;clip-rule:evenodd;fill:#FE7D75;}
	.st54{fill-rule:evenodd;clip-rule:evenodd;fill:#B0B0B0;}
	.st55{fill-rule:evenodd;clip-rule:evenodd;fill:#888787;}
	.st56{fill-rule:evenodd;clip-rule:evenodd;fill:#6E6E6E;}
	.st57{fill-rule:evenodd;clip-rule:evenodd;fill:#757575;}
	.st58{fill-rule:evenodd;clip-rule:evenodd;fill:#60341E;}
	.st59{fill-rule:evenodd;clip-rule:evenodd;fill:#B0451B;}
	.st60{fill-rule:evenodd;clip-rule:evenodd;fill:#8A4727;}
	.st61{fill-rule:evenodd;clip-rule:evenodd;fill:#FABB64;}
	.st62{fill-rule:evenodd;clip-rule:evenodd;fill:#3E88AF;}
	.st63{fill-rule:evenodd;clip-rule:evenodd;fill:#5BA0C5;}
	.st64{fill-rule:evenodd;clip-rule:evenodd;fill:#FFF1DE;}
	.st65{fill-rule:evenodd;clip-rule:evenodd;fill:#F8B89B;}
	.st66{fill-rule:evenodd;clip-rule:evenodd;fill:#E98A5F;}
	.st67{fill-rule:evenodd;clip-rule:evenodd;fill:#FFCAB3;}
	.st68{fill-rule:evenodd;clip-rule:evenodd;fill:#F9A580;}
	.st69{fill-rule:evenodd;clip-rule:evenodd;fill:#FFDFD2;}
	.st70{fill-rule:evenodd;clip-rule:evenodd;fill:#E2A85C;}
	.st71{fill-rule:evenodd;clip-rule:evenodd;fill:#C68446;}
	.st72{fill-rule:evenodd;clip-rule:evenodd;fill:#F2BC75;}
	.st73{fill-rule:evenodd;clip-rule:evenodd;fill:#F2BC76;}
	.st74{fill-rule:evenodd;clip-rule:evenodd;fill:#FFD69F;}
	.st75{fill-rule:evenodd;clip-rule:evenodd;fill:#E7624B;}
	.st76{fill-rule:evenodd;clip-rule:evenodd;fill:#FFEED9;}
	.st77{fill-rule:evenodd;clip-rule:evenodd;fill:#C26E11;}
	.st78{fill-rule:evenodd;clip-rule:evenodd;fill:#F39226;}
	.st79{fill-rule:evenodd;clip-rule:evenodd;fill:#DF5020;}
	.st80{fill-rule:evenodd;clip-rule:evenodd;fill:#2C140B;}
	.st81{fill-rule:evenodd;clip-rule:evenodd;fill:#FFFFFF;}
	.st82{fill-rule:evenodd;clip-rule:evenodd;}
	.st83{fill-rule:evenodd;clip-rule:evenodd;fill:#A96F3E;}
	.st84{fill-rule:evenodd;clip-rule:evenodd;fill:#683A15;}
	.st85{fill-rule:evenodd;clip-rule:evenodd;fill:#F0DCCB;}
	.st86{fill-rule:evenodd;clip-rule:evenodd;fill:#E6D1B6;}
	.st87{fill-rule:evenodd;clip-rule:evenodd;fill:#69553C;}
</style>
<g>
	<path class="st0" d="M1609.45,1471.67c66.09-27.35-266.66-911.86-432.98-905.42c-132.78,5.14-406.31,16.45-539.2,60.51
		c-275.61,91.4-541.47,699.7-496.43,775.82c50.06,84.6,685.21,230.93,796.35,220.65
		C1176.95,1601.05,1390.55,1562.26,1609.45,1471.67L1609.45,1471.67z"/>
	<path class="st1" d="M1122,250.08c20.33-6.2-91.78-14.27-142.37,19.51c-55.08,36.77-124.7,127.76-161.11,197.35
		c-17.75,33.92-53.02,109.66-43,117.39c6.24,4.81,99.83,4.13,98.01-0.35c-6.42-15.8,44.11-151.79,73.63-200.03
		C1011.48,278.88,1075.73,264.18,1122,250.08L1122,250.08z"/>
	<path class="st2" d="M1447.29,510.68c-80.15,2.4-794.88,78.59-788.64,79.02c98.1,6.66,246.19,165.9,276.62,246.09
		c135.04,355.82,111.78,679.75,67.15,809.92c-18.36,53.53,851.05-222.31,873.24-251.94c65.79-87.85,56.45-402.64-80.28-644.63
		C1685.57,554.79,1554.02,507.48,1447.29,510.68L1447.29,510.68z"/>
	<path class="st3" d="M589.84,644.68c-147.81,225.26-280.24,572.58-288.49,825.31c-0.12,3.62,2.73,6.67,6.36,6.78
		c3.63,0.12,6.67-2.73,6.79-6.36c8.18-250.67,139.74-595.1,286.34-818.52c1.99-3.03,1.14-7.11-1.89-9.1
		C595.9,640.8,591.82,641.65,589.84,644.68L589.84,644.68z"/>
	<path class="st4" d="M727.57,625.5c-82.51,132.24-192.61,471.76-243.46,698.37c-22.03,98.17-32.73,175.43-25.91,206.18
		c0.79,3.54,4.3,5.78,7.84,5c3.54-0.79,5.78-4.3,4.99-7.84c-6.63-29.92,4.47-104.97,25.9-200.46
		c50.55-225.27,159.76-562.84,241.78-694.29c1.92-3.08,0.98-7.14-2.1-9.06C733.55,621.48,729.49,622.42,727.57,625.5L727.57,625.5z"
		/>
	<path class="st4" d="M836.81,718.86c-94.37,241.78-185.85,633.48-181.58,893.1c0.06,3.63,3.05,6.52,6.68,6.46
		c3.63-0.06,6.52-3.05,6.46-6.68c-4.24-258.17,86.84-647.67,180.68-888.1c1.32-3.38-0.35-7.19-3.73-8.51
		C841.95,713.8,838.14,715.48,836.81,718.86L836.81,718.86z"/>
	<path class="st4" d="M959.76,878.05c-65.37,175.93-154.95,552.69-133.25,729.18c0.44,3.6,3.73,6.16,7.33,5.72
		c3.6-0.44,6.17-3.73,5.72-7.33c-21.51-175,67.71-548.53,132.53-722.99c1.26-3.4-0.47-7.19-3.87-8.45
		C964.81,872.92,961.02,874.65,959.76,878.05L959.76,878.05z"/>
	<path class="st4" d="M427.18,801.03c153.09,29.87,455.45,70.01,532.21,55.58c3.56-0.67,5.91-4.11,5.25-7.67
		c-0.67-3.57-4.11-5.92-7.68-5.25c-76.05,14.29-375.58-25.97-527.26-55.57c-3.56-0.69-7.01,1.63-7.71,5.19
		C421.3,796.88,423.62,800.33,427.18,801.03L427.18,801.03z"/>
	<path class="st4" d="M336.5,913c150.27,55.13,513.08,87.22,651.99,83.51c3.63-0.1,6.49-3.12,6.4-6.75c-0.1-3.63-3.12-6.49-6.75-6.4
		c-137.87,3.68-497.97-27.99-647.11-82.7c-3.4-1.25-7.18,0.5-8.44,3.91C331.35,907.97,333.1,911.75,336.5,913L336.5,913z"/>
	<path class="st4" d="M250.63,1026c39.24,25.94,186.55,65.2,346.71,90.07c160.09,24.85,332.94,35.32,423.22,4.94
		c3.44-1.16,5.29-4.89,4.13-8.33c-1.16-3.44-4.89-5.29-8.33-4.13c-88.95,29.94-259.27,19.02-417.01-5.47
		c-157.67-24.48-302.85-62.51-341.48-88.04c-3.03-2-7.11-1.17-9.11,1.86C246.77,1019.92,247.6,1024,250.63,1026L250.63,1026z"/>
	<path class="st4" d="M185.14,1147.28c49.36,34.29,181.55,66.76,328.68,91.49c219.93,36.97,473.18,57.02,530.76,43.06
		c3.52-0.86,5.69-4.41,4.84-7.94c-0.85-3.52-4.41-5.69-7.94-4.84c-57.01,13.83-307.72-6.64-525.49-43.25
		c-144.67-24.32-274.82-55.61-323.35-89.32c-2.98-2.07-7.08-1.33-9.15,1.65C181.42,1141.11,182.16,1145.21,185.14,1147.28
		L185.14,1147.28z"/>
	<path class="st4" d="M145.39,1290.65c269.31,92.06,641.26,176.92,899.26,149.5c3.61-0.38,6.23-3.62,5.84-7.23
		c-0.38-3.61-3.62-6.23-7.23-5.84c-256.39,27.25-625.98-57.38-893.62-148.87c-3.43-1.17-7.17,0.66-8.35,4.09
		C140.13,1285.74,141.96,1289.48,145.39,1290.65L145.39,1290.65z"/>
	<path class="st5" d="M1012.96,874.44C975.73,755.7,877.14,588.77,737.28,576.71c-86.12-7.42-236.85,66.15-322.51,152.62
		C253.67,891.97,87.97,1219.26,96.4,1409.02c2.01,45.31,194.64,133.86,411.07,194.81c215.85,60.79,516.08,85.73,567.78,39.51
		C1125.19,1598.68,1133.89,1260.09,1012.96,874.44L1012.96,874.44z M943.84,930.27c-27.37-104.56-108.57-273.71-229.37-290.25
		c-92.83-12.71-225.86,102.21-285.53,170.27c-165.45,188.73-257.48,417.37-257.61,563.76c-0.04,39.39,157.67,110.9,345.66,163.84
		c187.49,52.8,430.73,72.99,475.63,32.84C1036,1531.95,1017.47,1211.48,943.84,930.27L943.84,930.27z"/>
	<path class="st0" d="M1118.28,615.57c-16.19,4.09-8.49,60.13,1.81,92.57c8.09,25.5,249-43.77,282.62-48.84
		c27.04-4.08-2.6-96.47-19.51-95.27C1339.71,567.11,1154.67,606.37,1118.28,615.57L1118.28,615.57z"/>
	<path class="st4" d="M1167.01,661.68c9.81-33.84,12.91-97.19,11.83-152.48c-1.61-81.93-16.37-217.32-86.47-244.12
		c-61.2-23.4-148.47,35.46-145.5,31.55c14.56-19.2,81.47-74.05,164.15-67.81c82.03,6.19,143.06,72.13,174.15,149.82
		c22.38,55.92,42.84,205.54,40.09,246.71C1323.25,655.45,1164.52,670.27,1167.01,661.68L1167.01,661.68z"/>
	<path class="st5" d="M1086.05,653.89c2.27-1.76,6.37-3.23,11.15-4.6c12.48-3.57,29.46-5.8,36.35-5.93c2.78-0.06,5-2.36,4.94-5.15
		c-0.06-2.79-2.36-5-5.15-4.94c-7.38,0.15-25.56,2.5-38.92,6.32c-6.29,1.8-11.56,4.01-14.55,6.33c-2.2,1.71-2.61,4.88-0.9,7.08
		C1080.68,655.19,1083.85,655.6,1086.05,653.89L1086.05,653.89z"/>
	<path class="st5" d="M1084.72,684.57c2.79-3.41,8.94-5.49,15.78-7.31c12.04-3.2,26.29-4.82,33.38-6.52
		c2.71-0.65,4.38-3.38,3.73-6.09c-0.65-2.71-3.38-4.38-6.09-3.73c-7.14,1.71-21.5,3.36-33.62,6.58
		c-9.27,2.46-17.23,6.06-21.01,10.68c-1.76,2.16-1.44,5.34,0.72,7.1C1079.78,687.05,1082.96,686.73,1084.72,684.57L1084.72,684.57z"
		/>
	<path class="st5" d="M1096.5,706.82c5.79-3.44,13.66-4.64,21.68-5.51c9.01-0.98,18.21-1.48,25.5-3.25c2.71-0.66,4.37-3.39,3.71-6.1
		c-0.66-2.71-3.39-4.37-6.1-3.71c-8.4,2.04-19.43,2.24-29.61,3.7c-7.6,1.09-14.75,2.88-20.34,6.2c-2.4,1.42-3.19,4.52-1.76,6.92
		C1091.01,707.45,1094.11,708.24,1096.5,706.82L1096.5,706.82z"/>
	<path class="st5" d="M1380.52,590.8c22.12-10.25,38.53-9.45,48.17-9.76c2.79-0.09,4.97-2.43,4.88-5.21
		c-0.09-2.78-2.43-4.97-5.21-4.88c-10.43,0.34-28.15-0.4-52.08,10.69c-2.53,1.17-3.63,4.18-2.46,6.7
		C1374.99,590.87,1378,591.97,1380.52,590.8L1380.52,590.8z"/>
	<path class="st5" d="M1382.75,611.87c14.7-4.13,39.15-11.15,56.44-9.05c2.77,0.34,5.28-1.64,5.62-4.4c0.34-2.76-1.64-5.29-4.4-5.62
		c-18.49-2.25-44.68,4.94-60.39,9.35c-2.68,0.75-4.25,3.54-3.49,6.22C1377.28,611.05,1380.07,612.62,1382.75,611.87L1382.75,611.87z
		"/>
	<path class="st5" d="M1387.46,635.06c11.44-1.9,24.74-5.15,36.52-6.51c7.1-0.82,13.6-1,18.58,0.56c2.66,0.83,5.49-0.65,6.33-3.31
		c0.83-2.66-0.65-5.49-3.31-6.33c-6.09-1.91-14.05-1.96-22.75-0.95c-11.94,1.38-25.42,4.65-37.02,6.58
		c-2.75,0.46-4.61,3.06-4.15,5.81C1382.11,633.66,1384.71,635.52,1387.46,635.06L1387.46,635.06z"/>
	<path class="st6" d="M1146.35,805.18c25-1.77,46.74,17.09,48.5,42.09c1.77,25-17.09,46.74-42.09,48.51
		c-25,1.77-46.74-17.09-48.51-42.1C1102.49,828.68,1121.35,806.95,1146.35,805.18L1146.35,805.18z"/>
	<path class="st6" d="M1286.65,1391.31c24.78-3.78,47.96,13.28,51.74,38.05c3.78,24.78-13.27,47.96-38.06,51.74
		c-24.78,3.78-47.96-13.28-51.74-38.05C1244.82,1418.27,1261.87,1395.08,1286.65,1391.31L1286.65,1391.31z"/>
	<path class="st6" d="M1305.32,773.97c25-1.77,46.74,17.09,48.51,42.09c1.77,25-17.09,46.74-42.1,48.51
		c-25,1.77-46.74-17.09-48.51-42.1C1261.46,797.47,1280.32,775.74,1305.32,773.97L1305.32,773.97z"/>
	<path class="st6" d="M1442.59,1347.4c24.78-3.78,47.96,13.28,51.74,38.05c3.78,24.78-13.28,47.96-38.05,51.74
		c-24.78,3.78-47.96-13.28-51.74-38.05C1400.76,1374.36,1417.81,1351.18,1442.59,1347.4L1442.59,1347.4z"/>
	<path class="st6" d="M1465.7,738.99c25-1.77,46.74,17.09,48.51,42.1c1.77,25-17.09,46.74-42.1,48.51
		c-25,1.77-46.74-17.09-48.5-42.1C1421.84,762.49,1440.7,740.76,1465.7,738.99L1465.7,738.99z"/>
	<path class="st6" d="M1599.64,1299.63c24.78-3.78,47.96,13.27,51.74,38.05c3.78,24.78-13.28,47.96-38.05,51.74
		c-24.78,3.78-47.96-13.28-51.74-38.05C1557.81,1326.59,1574.86,1303.4,1599.64,1299.63L1599.64,1299.63z"/>
	<path class="st6" d="M1626.33,704.15c25-1.77,46.74,17.09,48.51,42.1c1.77,25-17.09,46.74-42.1,48.5
		c-25,1.77-46.74-17.09-48.51-42.09C1582.47,727.66,1601.33,705.92,1626.33,704.15L1626.33,704.15z"/>
	<path class="st6" d="M1756.94,1251.97c24.78-3.77,47.96,13.27,51.74,38.05c3.78,24.78-13.27,47.96-38.05,51.74
		c-24.78,3.78-47.96-13.28-51.74-38.05C1715.11,1278.93,1732.16,1255.74,1756.94,1251.97L1756.94,1251.97z"/>
	<path class="st5" d="M1146.25,274.36c18.74,8.24,37.72,27.41,53.92,54.04c25.03,41.14,43.13,99.99,42.65,165.71
		c-0.03,3.63,2.9,6.6,6.53,6.62c3.63,0.03,6.59-2.9,6.62-6.52c0.5-68.48-18.48-129.77-44.56-172.64
		c-17.87-29.37-39.19-50.15-59.86-59.24c-3.32-1.46-7.2,0.05-8.66,3.37C1141.42,269.01,1142.93,272.9,1146.25,274.36L1146.25,274.36
		z"/>
	<path class="st5" d="M1200.28,294.57c36.06,33.15,59.42,99.83,65.82,147.67c0.48,3.6,3.79,6.12,7.39,5.64
		c3.6-0.48,6.12-3.79,5.64-7.39c-6.76-50.48-31.91-120.62-69.95-155.6c-2.67-2.46-6.83-2.28-9.29,0.39
		C1197.44,287.95,1197.61,292.12,1200.28,294.57L1200.28,294.57z"/>
	<path class="st5" d="M1182.71,345.43c47.44,82.08,35.23,202.41,33.12,281.46c-0.1,3.63,2.77,6.65,6.39,6.75
		c3.63,0.1,6.65-2.77,6.75-6.4c2.16-81.02,13.74-204.25-34.88-288.38c-1.81-3.14-5.84-4.22-8.98-2.4
		C1181.97,338.27,1180.89,342.29,1182.71,345.43L1182.71,345.43z"/>
	<path class="st5" d="M1120.01,1051.89c164.73-32.53,506.53-140.4,652.81-213.59c3.9-1.95,5.47-6.69,3.53-10.58
		c-1.95-3.89-6.69-5.47-10.58-3.52c-145.38,72.74-485.1,179.89-648.81,212.22c-4.27,0.85-7.05,5-6.21,9.27
		C1111.58,1049.95,1115.74,1052.73,1120.01,1051.89L1120.01,1051.89z"/>
	<path class="st5" d="M1112.38,1105.13c275.23-74.88,475.46-141.33,681.31-234.68c3.97-1.8,5.73-6.48,3.93-10.44
		c-1.8-3.97-6.48-5.73-10.44-3.93c-205.13,93.02-404.67,159.21-678.93,233.83c-4.2,1.14-6.68,5.48-5.54,9.68
		C1103.85,1103.79,1108.18,1106.27,1112.38,1105.13L1112.38,1105.13z"/>
	<path class="st5" d="M1147.88,1369.99c200.93-50.17,653.1-201.06,732.65-250.64c3.69-2.3,4.82-7.17,2.52-10.87
		c-2.3-3.69-7.17-4.83-10.87-2.52c-79.04,49.27-528.47,198.87-728.12,248.73c-4.22,1.05-6.8,5.34-5.74,9.56
		C1139.37,1368.47,1143.66,1371.04,1147.88,1369.99L1147.88,1369.99z"/>
	<path class="st5" d="M1128.11,1411.31c165.37-39.7,623.35-189.54,761.76-256.37c3.92-1.89,5.56-6.61,3.67-10.53
		c-1.89-3.92-6.61-5.57-10.53-3.67c-137.83,66.54-593.91,215.7-758.59,255.23c-4.23,1.02-6.84,5.28-5.83,9.51
		C1119.62,1409.71,1123.88,1412.33,1128.11,1411.31L1128.11,1411.31z"/>
</g>
</svg>
