<?xml version="1.0" encoding="utf-8"?>
<!-- Generator: Adobe Illustrator 26.4.1, SVG Export Plug-In . SVG Version: 6.00 Build 0)  -->
<svg version="1.1" id="Layer_1" xmlns="http://www.w3.org/2000/svg" xmlns:xlink="http://www.w3.org/1999/xlink" x="0px" y="0px"
	 viewBox="0 0 2000 2000" style="enable-background:new 0 0 2000 2000;" xml:space="preserve">
<style type="text/css">
	.st0{fill-rule:evenodd;clip-rule:evenodd;fill:#145468;}
	.st1{fill-rule:evenodd;clip-rule:evenodd;fill:#3B7A7A;}
	.st2{fill-rule:evenodd;clip-rule:evenodd;fill:#098B8D;}
	.st3{fill-rule:evenodd;clip-rule:evenodd;fill:#689595;}
	.st4{fill-rule:evenodd;clip-rule:evenodd;fill:#679595;}
	.st5{fill-rule:evenodd;clip-rule:evenodd;fill:#CEE4E4;}
	
		.st6{fill-rule:evenodd;clip-rule:evenodd;fill:#145468;stroke:#CEE4E4;stroke-width:5;stroke-linecap:round;stroke-linejoin:round;stroke-miterlimit:10;}
	.st7{fill-rule:evenodd;clip-rule:evenodd;fill:#043A60;}
	.st8{fill-rule:evenodd;clip-rule:evenodd;fill:#FD9A65;}
	.st9{fill-rule:evenodd;clip-rule:evenodd;fill:#18658D;}
	.st10{fill-rule:evenodd;clip-rule:evenodd;fill:#9FCDE5;}
	.st11{fill-rule:evenodd;clip-rule:evenodd;fill:#56A8D3;}
	.st12{fill-rule:evenodd;clip-rule:evenodd;fill:#276383;}
	.st13{fill-rule:evenodd;clip-rule:evenodd;fill:#E0F0F8;}
	.st14{fill-rule:evenodd;clip-rule:evenodd;fill:#A51E1C;}
	.st15{fill-rule:evenodd;clip-rule:evenodd;fill:#CB442D;}
	.st16{fill-rule:evenodd;clip-rule:evenodd;fill:#DC5A44;}
	.st17{fill-rule:evenodd;clip-rule:evenodd;fill:#F7BD54;}
	.st18{fill-rule:evenodd;clip-rule:evenodd;fill:#E46B37;}
	.st19{fill-rule:evenodd;clip-rule:evenodd;fill:#B67227;}
	.st20{fill-rule:evenodd;clip-rule:evenodd;fill:#D78A35;}
	.st21{fill-rule:evenodd;clip-rule:evenodd;fill:#A4331F;}
	.st22{fill-rule:evenodd;clip-rule:evenodd;fill:#F2A550;}
	.st23{fill-rule:evenodd;clip-rule:evenodd;fill:#F9E9D6;}
	.st24{fill-rule:evenodd;clip-rule:evenodd;fill:#844013;}
	.st25{fill-rule:evenodd;clip-rule:evenodd;fill:#A04E18;}
	.st26{fill-rule:evenodd;clip-rule:evenodd;fill:#F8B872;}
	.st27{fill-rule:evenodd;clip-rule:evenodd;fill:#FFC689;}
	.st28{fill-rule:evenodd;clip-rule:evenodd;fill:#B6844D;}
	.st29{fill-rule:evenodd;clip-rule:evenodd;fill:#CA5320;}
	.st30{fill-rule:evenodd;clip-rule:evenodd;fill:#D76332;}
	.st31{fill-rule:evenodd;clip-rule:evenodd;fill:#812F0C;}
	.st32{fill-rule:evenodd;clip-rule:evenodd;fill:#8A460F;}
	.st33{fill-rule:evenodd;clip-rule:evenodd;fill:#B46914;}
	.st34{fill-rule:evenodd;clip-rule:evenodd;fill:#B54515;}
	.st35{fill-rule:evenodd;clip-rule:evenodd;fill:#FFCD71;}
	.st36{fill-rule:evenodd;clip-rule:evenodd;fill:#95B41D;}
	.st37{fill-rule:evenodd;clip-rule:evenodd;fill:#A8C731;}
	.st38{fill-rule:evenodd;clip-rule:evenodd;fill:#85A214;}
	.st39{fill-rule:evenodd;clip-rule:evenodd;fill:#C6EF28;}
	.st40{fill-rule:evenodd;clip-rule:evenodd;fill:#ED982B;}
	.st41{fill-rule:evenodd;clip-rule:evenodd;fill:#FCCF7C;}
	.st42{fill-rule:evenodd;clip-rule:evenodd;fill:#FFE8BC;}
	.st43{fill-rule:evenodd;clip-rule:evenodd;fill:#ED6961;}
	.st44{fill-rule:evenodd;clip-rule:evenodd;fill:#696E1E;}
	.st45{fill-rule:evenodd;clip-rule:evenodd;fill:#9CA42A;}
	.st46{fill-rule:evenodd;clip-rule:evenodd;fill:#7F8615;}
	.st47{fill-rule:evenodd;clip-rule:evenodd;fill:#FFEECF;}
	.st48{fill-rule:evenodd;clip-rule:evenodd;fill:#77786D;}
	.st49{fill-rule:evenodd;clip-rule:evenodd;fill:#D3D5C6;}
	.st50{fill-rule:evenodd;clip-rule:evenodd;fill:#7C7A7A;}
	.st51{fill-rule:evenodd;clip-rule:evenodd;fill:#DBDCD9;}
	.st52{fill-rule:evenodd;clip-rule:evenodd;fill:#CA372D;}
	.st53{fill-rule:evenodd;clip-rule:evenodd;fill:#FE7D75;}
	.st54{fill-rule:evenodd;clip-rule:evenodd;fill:#B0B0B0;}
	.st55{fill-rule:evenodd;clip-rule:evenodd;fill:#888787;}
	.st56{fill-rule:evenodd;clip-rule:evenodd;fill:#6E6E6E;}
	.st57{fill-rule:evenodd;clip-rule:evenodd;fill:#757575;}
	.st58{fill-rule:evenodd;clip-rule:evenodd;fill:#60341E;}
	.st59{fill-rule:evenodd;clip-rule:evenodd;fill:#B0451B;}
	.st60{fill-rule:evenodd;clip-rule:evenodd;fill:#8A4727;}
	.st61{fill-rule:evenodd;clip-rule:evenodd;fill:#FABB64;}
	.st62{fill-rule:evenodd;clip-rule:evenodd;fill:#3E88AF;}
	.st63{fill-rule:evenodd;clip-rule:evenodd;fill:#5BA0C5;}
	.st64{fill-rule:evenodd;clip-rule:evenodd;fill:#FFF1DE;}
	.st65{fill-rule:evenodd;clip-rule:evenodd;fill:#F8B89B;}
	.st66{fill-rule:evenodd;clip-rule:evenodd;fill:#E98A5F;}
	.st67{fill-rule:evenodd;clip-rule:evenodd;fill:#FFCAB3;}
	.st68{fill-rule:evenodd;clip-rule:evenodd;fill:#F9A580;}
	.st69{fill-rule:evenodd;clip-rule:evenodd;fill:#FFDFD2;}
	.st70{fill-rule:evenodd;clip-rule:evenodd;fill:#E2A85C;}
	.st71{fill-rule:evenodd;clip-rule:evenodd;fill:#C68446;}
	.st72{fill-rule:evenodd;clip-rule:evenodd;fill:#F2BC75;}
	.st73{fill-rule:evenodd;clip-rule:evenodd;fill:#F2BC76;}
	.st74{fill-rule:evenodd;clip-rule:evenodd;fill:#FFD69F;}
	.st75{fill-rule:evenodd;clip-rule:evenodd;fill:#E7624B;}
	.st76{fill-rule:evenodd;clip-rule:evenodd;fill:#FFEED9;}
	.st77{fill-rule:evenodd;clip-rule:evenodd;fill:#C26E11;}
	.st78{fill-rule:evenodd;clip-rule:evenodd;fill:#F39226;}
	.st79{fill-rule:evenodd;clip-rule:evenodd;fill:#DF5020;}
	.st80{fill-rule:evenodd;clip-rule:evenodd;fill:#2C140B;}
	.st81{fill-rule:evenodd;clip-rule:evenodd;fill:#FFFFFF;}
	.st82{fill-rule:evenodd;clip-rule:evenodd;}
	.st83{fill-rule:evenodd;clip-rule:evenodd;fill:#A96F3E;}
	.st84{fill-rule:evenodd;clip-rule:evenodd;fill:#683A15;}
	.st85{fill-rule:evenodd;clip-rule:evenodd;fill:#F0DCCB;}
	.st86{fill-rule:evenodd;clip-rule:evenodd;fill:#E6D1B6;}
	.st87{fill-rule:evenodd;clip-rule:evenodd;fill:#69553C;}
</style>
<g>
	<path class="st54" d="M683.24,497.86c143.18,185.66,184.4,394.25,91.98,465.53c-92.42,71.27-283.69-21.59-426.87-207.25
		c-143.19-185.66-184.4-394.26-91.98-465.53C348.79,219.33,540.06,312.2,683.24,497.86L683.24,497.86z"/>
	<path class="st54" d="M678.16,980.24c4.98,1.76-58.05,27.75-66.65,24.27c-13.01-5.27-8.83-47.05-8.83-47.05
		s-56.91,16.47-67.72,14.83c-8.44-1.28-10.99-47.8-10.99-47.8s-46.49,4.16-52,1.92c-5.5-2.23-6.8-47.33-6.8-47.33
		s-47.15,6.48-55.24-0.06c-9.21-7.44-0.79-52.39-0.79-52.39s-36.04,5.13-47.49-2.23c-12.17-7.82,0.19-53.2,0.19-53.2
		s-54.1-4.42-57.09-12.51c-6.89-18.62,6.02-58.08,6.02-58.08s-56.59-9.07-59.62-22.56c-2.08-9.3,22.82-48.55,22.82-48.55
		s-41.26-13.32-46.1-19.3c-6.43-7.95,10.44-47.95,10.44-47.95s-38.57-21.7-41.9-34.42c-3.29-12.53,21.03-52.4,21.03-52.4
		s-37.55-46.22-37.34-56.3c0.09-4.48,29.05-30.67,29.05-30.67s-22.12-47.51-19.34-58.23c2.25-8.72,50.78-21.42,50.78-21.42
		s8.85-57.65,25.32-62.91c9.22-2.95,67.93,21.35,67.93,21.35s44.04-24.51,52.7-23.18c9.47,1.45,35.78,42.64,35.78,42.64
		s43.32-6.78,45.83-4.68c8.44,7.05,12.78,34.93,12.78,34.93s47.46-0.23,55.81,0.91c6.42,0.88,16.66,46.16,16.66,46.16
		s44.88-2.9,52.57,3.79c7.53,6.56,12.5,59.11,12.5,59.11s51.43,11.01,57.03,18.18c8.88,11.36,5.97,55.87,5.97,55.87
		s45.63,11.29,54.17,21.17c5.04,5.83-5.71,48.75-5.71,48.75s42.58,8.13,45.36,13.95c4.07,8.5-7.89,56.58-7.89,56.58
		s38.32,18.63,40.77,26.87c3.87,13.06-0.56,63.51-0.56,63.51s29.07,18.35,30.14,27.06c1.31,10.62-16.04,44.19-16.04,44.19
		s38.3,10.7,39.44,20.81c1.14,10.11-32.61,39.84-32.61,39.84s-12.07,24.73-15.51,38.48C811.61,907.96,678.16,980.24,678.16,980.24
		L678.16,980.24z"/>
	<path class="st55" d="M630.68,516.53c110.45,143.22,143.51,303.13,73.8,356.9c-69.71,53.77-215.98-18.85-326.43-162.07
		c-110.45-143.22-143.51-303.13-73.8-356.9C373.96,300.7,520.23,373.32,630.68,516.53L630.68,516.53z"/>
	<path class="st56" d="M604.88,536.68c82.64,106.76,107.54,226.1,55.57,266.33c-51.97,40.23-161.26-13.79-243.91-120.55
		C333.9,575.7,309,456.36,360.97,416.13C412.95,375.89,522.24,429.91,604.88,536.68L604.88,536.68z"/>
	<path class="st54" d="M1647.46,975.67c-137.95-91.17-780.84-104.38-955.54-24.38c-42.29,19.36-28.96,590.53-24.14,650.84
		c4.33,54.26,283.43,96.92,505.73,103.49c139.75,4.13,377.83-20.73,453.09-67.62C1650.75,1622.94,1695.39,1007.35,1647.46,975.67
		L1647.46,975.67z"/>
	<path class="st57" d="M1170.54,877.21c270.71,7.5,489.22,59.83,487.65,116.79c-1.58,56.96-222.65,97.11-493.37,89.61
		c-270.72-7.5-489.23-59.83-487.65-116.78C678.75,909.87,899.82,869.71,1170.54,877.21L1170.54,877.21z"/>
	<path class="st58" d="M955.88,1099.33c-55.16-11.55-244.29-86.12-245.34-92.29c-4.52-26.76,28.03-57.19,45.1-63.29
		c22.47-8.05,40.53,1.53,41.78-2.18c2.99-8.88,14.28-26.71,27.85-40.33c21.44-21.51,73.18-25.57,101.45-9.25
		c30.04,17.34,36.33-14.56,85.13-20.24c46.52-5.42,53.82,21.82,60.74,18.32c26.5-13.4,32.24-38.46,86.24-37.09
		c54.51,1.38,72.76,37.1,82.46,46.19c6.65,6.23,49.84-19.43,86.07,1.05c19,10.75,18.94,29.64,23.96,27.6
		c9.65-3.92,23.79-14.88,49.7-19.52c67.5-12.07,78.42,37.35,93.48,37.94c19.61,0.76,69.43-16.71,96.04,22.84
		c12.11,17.99,5.28,32.07,10.28,31.54c15.52-1.65,36.84,9.68,40.59,25.72c8.63,36.89-113.75,64.61-136.86,71.03
		C1392.97,1128.35,1072.18,1123.7,955.88,1099.33L955.88,1099.33z"/>
	<path class="st59" d="M832.79,1044.72c-87.54-24.12-143.99-57.1-151.87-83.68c-3.02-10.2-14.34,70.95-7.04,75.59
		c49.18,31.29,149.63,69.95,223.9,83.01c187.63,32.99,321.02,40.87,472.65,26.55c206.04-19.46,290.62-81.48,296.78-92.39
		c4.05-7.17-8.97-71.48-9.91-65.44c-5.51,35.33-162.76,81.57-223.49,92.6C1304.05,1104.54,985.36,1086.75,832.79,1044.72
		L832.79,1044.72z"/>
	<path class="st59" d="M665.91,1565.72c-0.85-1.65-4.97,45.38,5.49,54.84c47.8,43.24,120.04,66.96,238.99,92.47
		c128.03,27.46,237.67,33.68,408.97,23.06c134.74-8.36,265.22-49.28,314.19-81.11c11.33-7.37,11.13-69.6,7.9-65.41
		c-38.64,50.16-224.65,101.95-417.65,102.39c-119.35,0.27-306.95-18.93-438.55-63.4C724.31,1607.97,676.03,1585.33,665.91,1565.72
		L665.91,1565.72z"/>
	<path class="st60" d="M1050.36,1319.53c30,2.24,207.34,12.21,210.57,10.91c11.33-4.55-0.33-37.89,32.41-65.87
		c31.29-26.74,88.33,3.78,97.99,19.37c17.63,28.45,16.25,47.42-1.86,64.31c-11.34,10.57-17.23,17.11-15.6,25.83
		c3.35,17.88,24.09,25.99,22.19,55.53c-1.48,23-22.8,51.9-52.31,61.74c-27.44,9.15-66.23,6.39-84.11-32.88
		c-13.94-30.61,3.72-51.11-14.81-51.41c-29.74-0.48-178.24-4.81-185.75,1.82c-10.58,9.33-0.76,21.49-5.81,41.8
		c-8.04,32.35-36.35,54.99-75.1,48.16c-22.93-4.04-67.87-39.29-60.5-68.46c9.53-37.71,27.84-35.96,26.83-49.18
		c-1.49-19.42-24.08-12.65-33.78-44.11c-10.39-33.7,10.92-57.11,29.85-67.83c27.08-15.34,61.26-18.04,85.79,11.78
		C1042.02,1300.06,1046.2,1319.22,1050.36,1319.53L1050.36,1319.53z"/>
	<path class="st23" d="M676.46,1564c59.36,47.75,161.95,66.89,221.93,70.42c3.78,0.22,7.03-2.67,7.25-6.45
		c0.22-3.78-2.67-7.03-6.45-7.25c-57.82-3.4-156.9-21.37-214.13-67.41c-2.95-2.37-7.27-1.9-9.64,1.05
		C673.04,1557.31,673.51,1561.63,676.46,1564L676.46,1564z"/>
	<path class="st23" d="M703.53,1552.56c45.15,30.72,88.89,43.41,118.69,43.72c3.78,0.04,6.89-3,6.93-6.79
		c0.04-3.79-3-6.89-6.79-6.94c-27.93-0.29-68.79-12.55-111.12-41.34c-3.13-2.13-7.4-1.32-9.53,1.81
		C699.58,1546.16,700.4,1550.43,703.53,1552.56L703.53,1552.56z"/>
	<path class="st23" d="M678.78,1112.8c50.57,41.48,133.5,48.46,197.36,57.58c3.75,0.53,7.22-2.08,7.76-5.82
		c0.54-3.75-2.07-7.22-5.82-7.76c-61.59-8.79-141.83-14.6-190.6-54.61c-2.93-2.4-7.25-1.98-9.65,0.95
		C675.43,1106.08,675.85,1110.41,678.78,1112.8L678.78,1112.8z"/>
	<path class="st23" d="M685.33,1144.31c4.77,6.29,17.23,13.46,33.67,19.69c35.7,13.55,90.47,24.24,115.02,20.89
		c3.75-0.51,6.38-3.97,5.87-7.72c-0.51-3.75-3.97-6.38-7.72-5.87c-23.13,3.15-74.66-7.36-108.3-20.13
		c-13.28-5.04-23.75-10.08-27.61-15.16c-2.29-3.02-6.59-3.61-9.61-1.32C683.63,1136.98,683.04,1141.29,685.33,1144.31
		L685.33,1144.31z"/>
	<path class="st23" d="M675.33,1074.58c7.22,13.31,23.48,25.15,41.93,34.12c26.86,13.07,58.08,20.21,69.56,19.35
		c3.77-0.29,6.61-3.58,6.32-7.36c-0.29-3.78-3.58-6.61-7.36-6.32c-10.34,0.78-38.32-6.22-62.53-18
		c-15.6-7.59-29.77-17.07-35.87-28.33c-1.8-3.33-5.97-4.56-9.3-2.76C674.76,1067.08,673.53,1071.25,675.33,1074.58L675.33,1074.58z"
		/>
	<path class="st23" d="M1388.18,1201.33c38.64,2.38,100.38-2.28,152.92-14.77c35.87-8.53,67.45-20.84,85.16-36.7
		c2.82-2.53,3.06-6.87,0.53-9.69c-2.53-2.82-6.87-3.06-9.69-0.53c-16.42,14.71-45.9,25.67-79.17,33.58
		c-51.16,12.16-111.28,16.74-148.9,14.42c-3.78-0.23-7.03,2.65-7.27,6.43C1381.52,1197.84,1384.4,1201.1,1388.18,1201.33
		L1388.18,1201.33z"/>
	<path class="st23" d="M1470.28,1168.38c36.26,1.71,86.32-10.27,113.48-23.16c3.42-1.62,4.88-5.72,3.26-9.14
		c-1.62-3.42-5.72-4.88-9.14-3.26c-25.6,12.14-72.77,23.46-106.95,21.85c-3.78-0.18-7,2.75-7.18,6.53
		C1463.57,1164.99,1466.5,1168.2,1470.28,1168.38L1470.28,1168.38z"/>
	<path class="st23" d="M1462.41,1245.24c41.05,3.18,95.95-4.08,137.27-23.41c3.43-1.61,4.91-5.69,3.31-9.12
		c-1.61-3.43-5.69-4.91-9.12-3.31c-39.25,18.37-91.41,25.17-130.4,22.16c-3.77-0.29-7.08,2.53-7.37,6.31
		C1455.82,1241.65,1458.64,1244.95,1462.41,1245.24L1462.41,1245.24z"/>
	<path class="st23" d="M1499.09,1217.13c33.47,1.22,97.28-18.22,132.11-37.73c3.31-1.85,4.48-6.03,2.64-9.34
		c-1.85-3.3-6.03-4.48-9.34-2.63c-32.95,18.46-93.24,37.14-124.91,35.99c-3.78-0.14-6.97,2.82-7.1,6.6
		C1492.35,1213.81,1495.31,1216.99,1499.09,1217.13L1499.09,1217.13z"/>
	<path class="st23" d="M1408.02,1614.7c36.11,5,92.43,1.09,140.46-9.67c32.63-7.31,61.43-17.88,77.95-30.67
		c2.99-2.32,3.54-6.63,1.22-9.62c-2.32-2.99-6.63-3.54-9.62-1.23c-15.35,11.89-42.25,21.34-72.55,28.14
		c-46.37,10.39-100.72,14.29-135.58,9.47c-3.75-0.52-7.22,2.1-7.74,5.85C1401.64,1610.71,1404.27,1614.18,1408.02,1614.7
		L1408.02,1614.7z"/>
	<path class="st23" d="M1459.36,1584.02c27.87,4.3,97.67-2.45,145.12-24.44c3.44-1.59,4.93-5.67,3.34-9.11
		c-1.59-3.44-5.67-4.93-9.11-3.34c-44.89,20.81-110.89,27.4-137.26,23.33c-3.74-0.58-7.25,1.99-7.83,5.74
		C1453.05,1579.94,1455.62,1583.44,1459.36,1584.02L1459.36,1584.02z"/>
	<path class="st23" d="M1500.71,1551.58c49.51,1.22,83.2-5.27,113.13-25.61c3.13-2.13,3.95-6.4,1.82-9.53
		c-2.13-3.13-6.4-3.95-9.53-1.82c-27.76,18.87-59.15,24.37-105.08,23.24c-3.78-0.09-6.93,2.9-7.03,6.69
		C1493.93,1548.34,1496.93,1551.49,1500.71,1551.58L1500.71,1551.58z"/>
	<path class="st60" d="M935.39,1033.15c8.33-16.1,23.08-35.94,44.6-40.75c19.82-4.43,29.9,2.42,39.89,10.87
		c12.33,10.43,24.66,22.73,48.49,25.8c10.16,1.31,21.17-4.15,33.03-10.31c13.76-7.15,29.23-15.26,47.44-4.14
		c3.23,1.97,7.46,0.95,9.43-2.28c1.98-3.23,0.96-7.46-2.28-9.43c-19.74-12.06-37.05-7.74-52.64-0.46
		c-6.81,3.18-13.23,6.93-19.35,9.7c-4.87,2.2-9.43,3.88-13.87,3.31c-20.48-2.64-30.79-13.71-41.39-22.67
		c-12.94-10.95-26.08-19.52-51.74-13.79c-25.64,5.73-43.86,28.65-53.8,47.83c-1.74,3.36-0.43,7.51,2.94,9.24
		C929.51,1037.83,933.65,1036.51,935.39,1033.15L935.39,1033.15z"/>
	<path class="st60" d="M1117.77,903.07c15.19-12.49,37.86-19.02,57.17-16.65c17.84,2.19,32.74,12.42,34.35,33.75
		c0.29,3.78,3.58,6.61,7.36,6.32c3.78-0.29,6.61-3.58,6.32-7.36c-2.2-29.04-22.08-43.37-46.36-46.34
		c-22.81-2.79-49.6,4.92-67.55,19.67c-2.92,2.41-3.35,6.73-0.94,9.66C1110.51,905.04,1114.84,905.47,1117.77,903.07L1117.77,903.07z
		"/>
	<path class="st60" d="M1149.46,923.3c9.01-5.34,19.82-5.17,27.21-1.19c3.98,2.14,6.97,5.44,7.26,9.76c0.25,3.78,3.52,6.65,7.3,6.4
		c3.78-0.25,6.64-3.52,6.39-7.3c-0.59-9.04-6.11-16.46-14.44-20.94c-11.06-5.96-27.22-6.52-40.71,1.47c-3.26,1.93-4.33,6.14-2.4,9.4
		C1142,924.15,1146.21,925.23,1149.46,923.3L1149.46,923.3z"/>
	<path class="st60" d="M1249.37,1031.78c-2.1,0.41-14.74,3.04-22.76,7.64c-8.22,4.72-14.42,12.03-14.01,22.83
		c0.14,3.78,3.33,6.74,7.11,6.6c3.79-0.14,6.74-3.33,6.6-7.11c-0.25-6.77,5.6-10.06,11.06-12.33c5.98-2.49,12.19-3.55,14.97-4.21
		c1.73-0.41,2.87-0.92,3.39-1.23c5.46-3.23,9.88-7.5,14.55-11.56c5.47-4.76,11.39-9.24,21.51-9.56c13.52-0.43,26.33,6.9,33.83,15.32
		c2.31,2.6,4.12,5.3,5.17,7.92c0.72,1.8,1.14,3.5,0.78,5.01c-0.89,3.68,1.38,7.39,5.06,8.28c3.68,0.89,7.39-1.38,8.28-5.06
		c1.73-7.19-1.47-16.77-9.03-25.27c-9.85-11.07-26.76-20.48-44.52-19.91c-11.87,0.38-19.72,4.62-26.46,9.92
		C1259.58,1023.22,1255.15,1028.2,1249.37,1031.78L1249.37,1031.78z"/>
	<path class="st60" d="M1281.95,1058.64c2.91-4.49,8.42-5.08,13.5-4.06c5.65,1.13,11.22,4.31,13.26,8.76
		c1.58,3.44,5.66,4.95,9.1,3.36c3.44-1.58,4.95-5.66,3.37-9.1c-3.65-7.92-12.96-14.46-23.02-16.48
		c-10.63-2.14-21.64,0.67-27.72,10.05c-2.06,3.18-1.15,7.43,2.03,9.49C1275.64,1062.72,1279.89,1061.82,1281.95,1058.64
		L1281.95,1058.64z"/>
	<path class="st60" d="M1298.77,962.46c7.82-8.25,15.96-12.41,23.77-13.28c11.31-1.26,21.63,4.42,28.34,12.96
		c2.34,2.98,6.65,3.5,9.63,1.16c2.98-2.34,3.5-6.65,1.16-9.63c-9.58-12.2-24.48-19.92-40.64-18.12
		c-10.51,1.17-21.69,6.36-32.22,17.48c-2.61,2.75-2.49,7.1,0.26,9.7C1291.82,965.33,1296.16,965.21,1298.77,962.46L1298.77,962.46z"
		/>
	<path class="st60" d="M1366.71,1010.62c8.28-6.03,20.67-7.87,27.21,0.43c2.35,2.97,6.66,3.48,9.63,1.14
		c2.97-2.34,3.48-6.66,1.14-9.64c-11.1-14.07-32.01-13.25-46.06-3.02c-3.06,2.23-3.74,6.52-1.51,9.58
		C1359.36,1012.17,1363.65,1012.84,1366.71,1010.62L1366.71,1010.62z"/>
	<path class="st60" d="M829.4,961.93c-1.52-4.61-0.34-9.73,2.23-14.88c4.71-9.46,14.12-18.81,25.02-25.97
		c9.14-5.99,19.37-10.45,28.97-11.92c8.34-1.28,16.2-0.35,21.89,4.61c2.85,2.48,7.19,2.19,9.68-0.66c2.49-2.85,2.19-7.19-0.66-9.68
		c-7-6.1-16.01-8.74-25.93-8.47c-13.29,0.35-28.36,6.06-41.46,14.66c-13.07,8.57-24.14,19.99-29.78,31.33
		c-4.33,8.71-5.54,17.47-2.98,25.28c1.18,3.6,5.06,5.56,8.66,4.37C828.62,969.41,830.58,965.53,829.4,961.93L829.4,961.93z"/>
	<path class="st60" d="M875.67,935.2c3.56-4.18,9.23-5.73,14.85-5.63c6.01,0.11,12.11,2.11,16.13,5.73c2.82,2.53,7.16,2.3,9.69-0.52
		c2.53-2.81,2.3-7.16-0.52-9.69c-6.28-5.64-15.69-9.08-25.06-9.24c-9.76-0.17-19.33,3.19-25.52,10.45
		c-2.45,2.88-2.11,7.22,0.77,9.67C868.88,938.42,873.21,938.08,875.67,935.2L875.67,935.2z"/>
	<path class="st60" d="M976.01,935.19c13.03-14.05,33.3-15.21,47.81-6.92c3.29,1.88,7.48,0.73,9.36-2.56
		c1.88-3.29,0.74-7.48-2.55-9.36c-19.64-11.21-47.04-9.5-64.67,9.51c-2.57,2.77-2.41,7.12,0.37,9.69
		C969.09,938.13,973.44,937.97,976.01,935.19L976.01,935.19z"/>
	<path class="st60" d="M878.88,1018.63c-0.39-1.08-1.61-4.43-2.63-6.86c-2.51-5.99-6.86-13.1-18.19-18.78
		c-7.71-3.86-18.15-3.52-27.56-0.22c-9.32,3.27-17.42,9.35-20.98,15.75c-1.84,3.31-0.66,7.49,2.65,9.33
		c3.31,1.84,7.49,0.66,9.33-2.65c2.25-4.03,7.67-7.42,13.54-9.48c5.77-2.02,12.16-2.83,16.88-0.47
		c10.51,5.27,11.9,12.43,13.53,16.86c1.64,4.47,3.9,7.37,7.3,8.8c4.23,1.78,9.23,3.75,13.33,6.26c2.5,1.53,4.91,2.94,5.29,5.26
		c0.62,3.74,4.15,6.27,7.89,5.65c3.73-0.62,6.27-4.15,5.65-7.88c-0.81-4.89-3.93-9.19-8.65-12.7
		C891.35,1023.88,884.62,1021.04,878.88,1018.63L878.88,1018.63z"/>
	<path class="st60" d="M883.21,991.44c6.36,8.73,14.46,12.07,21.04,11.22c7.05-0.91,13.73-6.37,15.73-18
		c0.64-3.73-1.87-7.28-5.6-7.92c-3.73-0.64-7.28,1.87-7.92,5.6c-0.65,3.8-1.66,6.43-3.96,6.73c-2.76,0.35-5.54-2.04-8.2-5.69
		c-2.23-3.06-6.52-3.73-9.58-1.5S880.98,988.37,883.21,991.44L883.21,991.44z"/>
	<path class="st60" d="M980.8,1028.16c4.32-5.94,10.94-6.62,16.88-4.64c6.68,2.23,12.79,7.6,14.91,13.92
		c1.2,3.59,5.09,5.53,8.68,4.33c3.59-1.2,5.53-5.09,4.33-8.68c-3.38-10.13-12.88-19.02-23.58-22.59c-11.44-3.82-24-1.85-32.31,9.58
		c-2.23,3.06-1.55,7.35,1.51,9.58C974.28,1031.9,978.58,1031.22,980.8,1028.16L980.8,1028.16z"/>
	<path class="st60" d="M1083.98,973.41c-2.25-1.7-1.94-4.31-0.76-6.47c2.49-4.58,8.74-8.33,14.3-4.49c3.11,2.15,7.39,1.37,9.54-1.75
		c2.15-3.11,1.37-7.39-1.75-9.54c-13.12-9.06-28.27-1.58-34.15,9.23c-4.41,8.1-3.88,17.6,4.55,23.97c3.02,2.28,7.33,1.68,9.61-1.34
		C1087.6,979.99,1087,975.69,1083.98,973.41L1083.98,973.41z"/>
	<path class="st60" d="M1479.79,964.74c-2.25-8.26-5.48-30.75-34.96-36.6c-15.96-3.17-39,7.02-40.76,34.43
		c-0.24,3.78,2.63,7.04,6.41,7.28c3.78,0.24,7.04-2.63,7.28-6.41c1.08-16.82,14.6-23.8,24.4-21.85
		c18.26,3.63,22.06,16.53,23.78,23.8c0.62,2.62,1.09,4.73,1.6,6.03c0.56,1.42,1.53,2.82,3.11,4.01c1.42,1.08,3.75,2.11,6.67,3.04
		c3,0.95,6.89,1.92,10.32,3.68c2.16,1.11,4.23,2.5,4.99,4.98c2.11,6.88-2.44,12.64-7.25,14.46c-3.54,1.34-5.33,5.31-3.98,8.85
		c1.34,3.54,5.31,5.33,8.85,3.98c10.4-3.94,20.05-16.46,15.5-31.31c-2.57-8.39-10.11-12.97-17.73-15.64
		C1485.2,966.48,1481.5,965.28,1479.79,964.74L1479.79,964.74z"/>
	<path class="st60" d="M1433.85,988.31c6.05-2,13.14,0.04,17.87,3.87c3.75,3.04,6.1,7.49,3.35,12.08c-1.94,3.25-0.89,7.47,2.36,9.41
		c3.25,1.94,7.47,0.88,9.41-2.36c5.45-9.11,3.7-18.21-2.03-25.34c-7.54-9.39-22.73-14.83-35.27-10.69
		c-3.59,1.19-5.55,5.07-4.36,8.67C1426.37,987.55,1430.25,989.5,1433.85,988.31L1433.85,988.31z"/>
	<path class="st60" d="M1549.52,980.83c7.84-0.3,14.3,3.35,14.56,11.08c0.13,3.79,3.31,6.75,7.09,6.62c3.78-0.13,6.75-3.3,6.62-7.09
		c-0.54-15.92-12.66-24.95-28.8-24.33c-3.78,0.15-6.74,3.34-6.59,7.12C1542.54,978.02,1545.73,980.98,1549.52,980.83L1549.52,980.83
		z"/>
	<path class="st60" d="M1473.52,1035.03c-3.2-4.91-9.52-11.69-20.42-12.7c-10.05-0.94-20.16,5.4-25.35,13.67
		c-3.86,6.15-4.93,13.17-2.55,18.96c1.44,3.5,5.45,5.18,8.95,3.74c3.5-1.44,5.18-5.45,3.74-8.95c-0.82-2.01,0.14-4.33,1.48-6.46
		c2.6-4.14,7.42-7.77,12.46-7.3c8.16,0.76,11.15,8.03,11.58,9.09c0.79,1.95,2.05,3.2,3.57,4.02c1.45,0.78,3.36,1.23,5.73,0.78
		c1.57-0.29,3.91-1.38,6.6-2.35c1.51-0.55,3.35-1.44,5.03-0.27c3.1,2.17,7.38,1.4,9.55-1.7c2.17-3.1,1.4-7.38-1.7-9.55
		c-5.07-3.54-10.47-3.47-15.31-2.1C1475.82,1034.19,1474.62,1034.61,1473.52,1035.03L1473.52,1035.03z"/>
	<path class="st60" d="M1520.29,1027.43c3.28-3.65,8.86-4.76,13.59-3.79c3.94,0.81,7.48,3.27,7.59,7.83
		c0.09,3.79,3.23,6.78,7.02,6.7c3.79-0.09,6.79-3.23,6.7-7.02c-0.27-11.7-8.45-18.88-18.56-20.95c-9.31-1.9-20.12,0.89-26.56,8.07
		c-2.53,2.82-2.29,7.16,0.53,9.68C1513.43,1030.49,1517.77,1030.25,1520.29,1027.43L1520.29,1027.43z"/>
	<path class="st60" d="M1239.49,960.18c-31.54-11.56-53.88,12.96-45.78,34.21c4.38,11.48,11.78,16.53,19.27,17.77
		c10.93,1.81,23.15-5.14,29.04-15.71c1.84-3.31,0.66-7.49-2.65-9.33c-3.31-1.84-7.49-0.65-9.33,2.65c-3.08,5.53-9.1,9.81-14.81,8.86
		c-3.61-0.6-6.59-3.6-8.7-9.12c-4.63-12.15,10.2-23.05,28.24-16.44c3.56,1.3,7.5-0.53,8.8-4.08
		C1244.88,965.43,1243.05,961.48,1239.49,960.18L1239.49,960.18z"/>
	<path class="st60" d="M1156.6,1037.41c-11.88-4.19-24.38,3.59-29.65,13.77c-3.52,6.81-3.7,14.34,0.09,19.96
		c2.47,3.67,6.73,6.82,13.65,8.08c3.72,0.68,7.3-1.8,7.98-5.52c0.68-3.73-1.8-7.3-5.52-7.97c-2.28-0.42-3.91-1.04-4.73-2.25
		c-1.15-1.7-0.35-3.93,0.71-5.99c2.38-4.59,7.55-9.02,12.91-7.13c3.57,1.26,7.49-0.62,8.75-4.19
		C1162.05,1042.59,1160.18,1038.67,1156.6,1037.41L1156.6,1037.41z"/>
	<path class="st23" d="M341.51,305.16c-69.13,13.85-100.61,74.09-100.15,145.68c0.02,3.79,3.12,6.84,6.9,6.81
		c3.79-0.02,6.84-3.11,6.82-6.9c-0.41-64.54,26.81-119.65,89.13-132.14c3.71-0.74,6.12-4.36,5.38-8.07
		C348.85,306.83,345.23,304.42,341.51,305.16L341.51,305.16z"/>
	<path class="st23" d="M247.94,486.82c4.91,44.33,19.46,80.14,39.3,115.85c1.84,3.31,6.02,4.5,9.33,2.66
		c3.31-1.84,4.5-6.02,2.67-9.33c-18.96-34.13-32.96-68.32-37.66-110.7c-0.42-3.76-3.81-6.48-7.58-6.06
		C250.24,479.66,247.52,483.05,247.94,486.82L247.94,486.82z"/>
	<path class="st23" d="M448.77,352.54c74.47,32.38,125.12,77.37,158.57,125.47c2.16,3.11,6.44,3.88,9.55,1.72
		c3.11-2.16,3.88-6.44,1.71-9.55c-34.69-49.89-87.14-96.64-164.37-130.22c-3.47-1.51-7.52,0.08-9.03,3.56
		C443.71,346.99,445.3,351.03,448.77,352.54L448.77,352.54z"/>
	<path class="st23" d="M556.51,395.36c22.72,19.78,55.82,51.88,75.26,84.07c1.96,3.24,6.18,4.28,9.42,2.32
		c3.24-1.96,4.28-6.18,2.32-9.42c-20.18-33.4-54.42-66.8-77.99-87.32c-2.85-2.49-7.19-2.18-9.68,0.67
		C553.36,388.53,553.66,392.87,556.51,395.36L556.51,395.36z"/>
	<path class="st23" d="M341,708.26c35.91,63.49,108.88,144.09,162.96,174.52c3.3,1.86,7.48,0.69,9.34-2.61
		c1.85-3.3,0.69-7.48-2.62-9.34c-52.41-29.49-122.94-107.79-157.74-169.32c-1.87-3.3-6.05-4.46-9.35-2.59
		C340.3,700.78,339.13,704.97,341,708.26L341,708.26z"/>
	<path class="st23" d="M457.39,823.31c25.3,26.14,79.6,60.95,115.07,77.91c3.41,1.63,7.51,0.19,9.15-3.23
		c1.63-3.42,0.19-7.51-3.23-9.15c-34.23-16.37-86.72-49.85-111.13-75.08c-2.63-2.72-6.98-2.79-9.7-0.16
		C454.83,816.24,454.76,820.59,457.39,823.31L457.39,823.31z"/>
</g>
</svg>
