<?xml version="1.0" encoding="utf-8"?>
<!-- Generator: Adobe Illustrator 26.4.1, SVG Export Plug-In . SVG Version: 6.00 Build 0)  -->
<svg version="1.1" id="Layer_1" xmlns="http://www.w3.org/2000/svg" xmlns:xlink="http://www.w3.org/1999/xlink" x="0px" y="0px"
	 viewBox="0 0 2000 2000" style="enable-background:new 0 0 2000 2000;" xml:space="preserve">
<style type="text/css">
	.st0{fill-rule:evenodd;clip-rule:evenodd;fill:#145468;}
	.st1{fill-rule:evenodd;clip-rule:evenodd;fill:#3B7A7A;}
	.st2{fill-rule:evenodd;clip-rule:evenodd;fill:#098B8D;}
	.st3{fill-rule:evenodd;clip-rule:evenodd;fill:#689595;}
	.st4{fill-rule:evenodd;clip-rule:evenodd;fill:#679595;}
	.st5{fill-rule:evenodd;clip-rule:evenodd;fill:#CEE4E4;}
	
		.st6{fill-rule:evenodd;clip-rule:evenodd;fill:#145468;stroke:#CEE4E4;stroke-width:5;stroke-linecap:round;stroke-linejoin:round;stroke-miterlimit:10;}
	.st7{fill-rule:evenodd;clip-rule:evenodd;fill:#043A60;}
	.st8{fill-rule:evenodd;clip-rule:evenodd;fill:#FD9A65;}
	.st9{fill-rule:evenodd;clip-rule:evenodd;fill:#18658D;}
	.st10{fill-rule:evenodd;clip-rule:evenodd;fill:#9FCDE5;}
	.st11{fill-rule:evenodd;clip-rule:evenodd;fill:#56A8D3;}
	.st12{fill-rule:evenodd;clip-rule:evenodd;fill:#276383;}
	.st13{fill-rule:evenodd;clip-rule:evenodd;fill:#E0F0F8;}
	.st14{fill-rule:evenodd;clip-rule:evenodd;fill:#A51E1C;}
	.st15{fill-rule:evenodd;clip-rule:evenodd;fill:#CB442D;}
	.st16{fill-rule:evenodd;clip-rule:evenodd;fill:#DC5A44;}
	.st17{fill-rule:evenodd;clip-rule:evenodd;fill:#F7BD54;}
	.st18{fill-rule:evenodd;clip-rule:evenodd;fill:#E46B37;}
	.st19{fill-rule:evenodd;clip-rule:evenodd;fill:#B67227;}
	.st20{fill-rule:evenodd;clip-rule:evenodd;fill:#D78A35;}
	.st21{fill-rule:evenodd;clip-rule:evenodd;fill:#A4331F;}
	.st22{fill-rule:evenodd;clip-rule:evenodd;fill:#F2A550;}
	.st23{fill-rule:evenodd;clip-rule:evenodd;fill:#F9E9D6;}
	.st24{fill-rule:evenodd;clip-rule:evenodd;fill:#844013;}
	.st25{fill-rule:evenodd;clip-rule:evenodd;fill:#A04E18;}
	.st26{fill-rule:evenodd;clip-rule:evenodd;fill:#F8B872;}
	.st27{fill-rule:evenodd;clip-rule:evenodd;fill:#FFC689;}
	.st28{fill-rule:evenodd;clip-rule:evenodd;fill:#B6844D;}
	.st29{fill-rule:evenodd;clip-rule:evenodd;fill:#CA5320;}
	.st30{fill-rule:evenodd;clip-rule:evenodd;fill:#D76332;}
	.st31{fill-rule:evenodd;clip-rule:evenodd;fill:#812F0C;}
	.st32{fill-rule:evenodd;clip-rule:evenodd;fill:#8A460F;}
	.st33{fill-rule:evenodd;clip-rule:evenodd;fill:#B46914;}
	.st34{fill-rule:evenodd;clip-rule:evenodd;fill:#B54515;}
	.st35{fill-rule:evenodd;clip-rule:evenodd;fill:#FFCD71;}
	.st36{fill-rule:evenodd;clip-rule:evenodd;fill:#95B41D;}
	.st37{fill-rule:evenodd;clip-rule:evenodd;fill:#A8C731;}
	.st38{fill-rule:evenodd;clip-rule:evenodd;fill:#85A214;}
	.st39{fill-rule:evenodd;clip-rule:evenodd;fill:#C6EF28;}
	.st40{fill-rule:evenodd;clip-rule:evenodd;fill:#ED982B;}
	.st41{fill-rule:evenodd;clip-rule:evenodd;fill:#FCCF7C;}
	.st42{fill-rule:evenodd;clip-rule:evenodd;fill:#FFE8BC;}
	.st43{fill-rule:evenodd;clip-rule:evenodd;fill:#ED6961;}
	.st44{fill-rule:evenodd;clip-rule:evenodd;fill:#696E1E;}
	.st45{fill-rule:evenodd;clip-rule:evenodd;fill:#9CA42A;}
	.st46{fill-rule:evenodd;clip-rule:evenodd;fill:#7F8615;}
	.st47{fill-rule:evenodd;clip-rule:evenodd;fill:#FFEECF;}
	.st48{fill-rule:evenodd;clip-rule:evenodd;fill:#77786D;}
	.st49{fill-rule:evenodd;clip-rule:evenodd;fill:#D3D5C6;}
	.st50{fill-rule:evenodd;clip-rule:evenodd;fill:#7C7A7A;}
	.st51{fill-rule:evenodd;clip-rule:evenodd;fill:#DBDCD9;}
	.st52{fill-rule:evenodd;clip-rule:evenodd;fill:#CA372D;}
	.st53{fill-rule:evenodd;clip-rule:evenodd;fill:#FE7D75;}
	.st54{fill-rule:evenodd;clip-rule:evenodd;fill:#B0B0B0;}
	.st55{fill-rule:evenodd;clip-rule:evenodd;fill:#888787;}
	.st56{fill-rule:evenodd;clip-rule:evenodd;fill:#6E6E6E;}
	.st57{fill-rule:evenodd;clip-rule:evenodd;fill:#757575;}
	.st58{fill-rule:evenodd;clip-rule:evenodd;fill:#60341E;}
	.st59{fill-rule:evenodd;clip-rule:evenodd;fill:#B0451B;}
	.st60{fill-rule:evenodd;clip-rule:evenodd;fill:#8A4727;}
	.st61{fill-rule:evenodd;clip-rule:evenodd;fill:#FABB64;}
	.st62{fill-rule:evenodd;clip-rule:evenodd;fill:#3E88AF;}
	.st63{fill-rule:evenodd;clip-rule:evenodd;fill:#5BA0C5;}
	.st64{fill-rule:evenodd;clip-rule:evenodd;fill:#FFF1DE;}
	.st65{fill-rule:evenodd;clip-rule:evenodd;fill:#F8B89B;}
	.st66{fill-rule:evenodd;clip-rule:evenodd;fill:#E98A5F;}
	.st67{fill-rule:evenodd;clip-rule:evenodd;fill:#FFCAB3;}
	.st68{fill-rule:evenodd;clip-rule:evenodd;fill:#F9A580;}
	.st69{fill-rule:evenodd;clip-rule:evenodd;fill:#FFDFD2;}
	.st70{fill-rule:evenodd;clip-rule:evenodd;fill:#E2A85C;}
	.st71{fill-rule:evenodd;clip-rule:evenodd;fill:#C68446;}
	.st72{fill-rule:evenodd;clip-rule:evenodd;fill:#F2BC75;}
	.st73{fill-rule:evenodd;clip-rule:evenodd;fill:#F2BC76;}
	.st74{fill-rule:evenodd;clip-rule:evenodd;fill:#FFD69F;}
	.st75{fill-rule:evenodd;clip-rule:evenodd;fill:#E7624B;}
	.st76{fill-rule:evenodd;clip-rule:evenodd;fill:#FFEED9;}
	.st77{fill-rule:evenodd;clip-rule:evenodd;fill:#C26E11;}
	.st78{fill-rule:evenodd;clip-rule:evenodd;fill:#F39226;}
	.st79{fill-rule:evenodd;clip-rule:evenodd;fill:#DF5020;}
	.st80{fill-rule:evenodd;clip-rule:evenodd;fill:#2C140B;}
	.st81{fill-rule:evenodd;clip-rule:evenodd;fill:#FFFFFF;}
	.st82{fill-rule:evenodd;clip-rule:evenodd;}
	.st83{fill-rule:evenodd;clip-rule:evenodd;fill:#A96F3E;}
	.st84{fill-rule:evenodd;clip-rule:evenodd;fill:#683A15;}
	.st85{fill-rule:evenodd;clip-rule:evenodd;fill:#F0DCCB;}
	.st86{fill-rule:evenodd;clip-rule:evenodd;fill:#E6D1B6;}
	.st87{fill-rule:evenodd;clip-rule:evenodd;fill:#69553C;}
</style>
<g>
	<path class="st19" d="M1542.15,449.85c-22.21,107.64-52,322.94-16.12,456.87c41.88,156.31,282.02,333.95,220.76,468.23
		c-23.34,51.18-72.44,47.38-122.87,81.18c-112.27,75.25-85.51,107.92-203.68,126.66c-90.09,14.28-18.68-232.65-11.69-323.77
		c5.68-74.16-29.09-474.98-32.44-547.91C1369.9,575.69,1551.6,404.06,1542.15,449.85L1542.15,449.85z"/>
	<path class="st20" d="M1417.28,1589.94c89.29-15.29,135.19-76.08,134.02-181.24c-1.38-124.2-105.22-261.76-112.88-409.03
		c-5.28-101.51,0.31-200.84,12.91-261.82c32.02-155,35.32-179.56,52.55-243.49c15.43-57.25-593.71,7.82-727.67-24.08
		c-45.79-10.9-191.95-91.67-186.53-65.7c19.81,94.94,15.75,289.17-16.54,380.35c-60.04,169.45-282.47,383.69-266.54,586.82
		c8.12,103.46,133.48,176.17,258.65,187.01c112.75,9.77,247.87-21.01,312.68-20.94C1076.1,1538.06,1235.56,1621.05,1417.28,1589.94
		L1417.28,1589.94z"/>
	<path class="st21" d="M1061.03,586.64c-27.53-62.32-77.6-367.39-68.79-390.86c8.89-23.69,151.58-71.73,153.74-18.81
		c4.7,115.01,1.98,332.99,11.43,392.71C1162.45,601.54,1074.22,616.48,1061.03,586.64L1061.03,586.64z"/>
	<path class="st22" d="M1542.27,444.38c-23.86-47.35-239.74,26.96-363.96,16.05c-85.83-7.54-148.87-42.53-227.95-67.72
		c-100.73-32.07-259.83-70.85-366.94-56.28c-80.23,10.91-41.07,99.78-48.63,152.23c-5.8,40.23-72.29,116.92-30.15,137.76
		c47.4,23.44,278.5,4.84,314.59,2.88c204.62-11.12,417.26,169.7,613.23,137.38c62.01-10.23,50.63-91.57,51.45-121.68
		C1486.27,558.61,1557.11,473.81,1542.27,444.38L1542.27,444.38z"/>
	<path class="st15" d="M982.61,551.06c-15.84-66.25-10.1-375.36,2.8-396.86c13.01-21.7,165.42-25.39,158.01,27.05
		c-16.12,113.97-61.48,310.06-62.95,370.5C1079.68,583.99,990.2,582.78,982.61,551.06L982.61,551.06z"/>
	<path class="st23" d="M896.6,837.3c145.43,0,263.5,118.07,263.5,263.5c0,145.43-118.07,263.5-263.5,263.5
		c-145.43,0-263.5-118.07-263.5-263.5C633.1,955.38,751.17,837.3,896.6,837.3L896.6,837.3z"/>
	<path class="st24" d="M737.96,1118.99c-3.25-59.6,56.27-89.12,118.55-93.42c62.67-4.32,99.46,36.92,114.16,37.27
		c4.34,0.1,62.98-34.5,71.37-19.55c5.82,10.37-7.37,44.71-2.44,50.87c10.08,12.63,28.15,42.51,15.49,57.77
		c-11.44,13.78-70.86-11.4-75.06-10.57c-4.8,0.95-37.46,49.37-111.35,53.15C798.62,1198.1,739.34,1144.33,737.96,1118.99
		L737.96,1118.99z"/>
	<path class="st25" d="M739.93,1108.45c-5.16-38.26,54.96-87.54,117.24-91.84c62.67-4.32,99.46,36.93,114.16,37.27
		c4.34,0.1,61.83-33.79,71.37-19.55c8.74,13.04-4.73,46.23-3.14,53.96c1.4,6.77,25.51,43.02,18.6,52.86
		c-10.29,14.66-73.55-12.39-77.75-11.56c-4.8,0.95-35.29,44.29-109.18,48.07C801.19,1181.24,743.33,1133.59,739.93,1108.45
		L739.93,1108.45z"/>
	<path class="st19" d="M361.67,1422.48c-11.25-52.1,9.4-99.53,38.18-146.11c30.15-48.8,69.3-96.62,93.7-147.15
		c2.05-4.25,0.27-9.38-3.99-11.43c-4.26-2.06-9.38-0.27-11.43,3.99c-24.16,50.01-63,97.28-92.85,145.59
		c-31.21,50.52-52.55,102.22-40.35,158.72c0.99,4.62,5.56,7.56,10.17,6.56C359.73,1431.65,362.67,1427.09,361.67,1422.48
		L361.67,1422.48z"/>
	<path class="st19" d="M393.25,1452.91c2.42-24.53,13.88-50.64,29.04-76.04c23.51-39.38,56.02-76.92,79.9-104.28
		c3.11-3.56,2.74-8.97-0.82-12.08c-3.56-3.11-8.97-2.74-12.08,0.82c-41.24,47.24-106.62,124.22-113.08,189.9
		c-0.46,4.7,2.97,8.89,7.68,9.36C388.59,1461.05,392.79,1457.61,393.25,1452.91L393.25,1452.91z"/>
	<path class="st19" d="M395.71,1372.76c0.73-11.95,9.72-25.58,20.41-40.55c18.24-25.57,41.79-54.14,49.57-82.29
		c1.26-4.55-1.42-9.27-5.97-10.53c-4.56-1.26-9.27,1.42-10.53,5.97c-7.3,26.42-29.89,52.92-47,76.91
		c-12.89,18.07-22.68,35.03-23.56,49.45c-0.29,4.72,3.3,8.78,8.02,9.07C391.35,1381.07,395.42,1377.47,395.71,1372.76
		L395.71,1372.76z"/>
	<path class="st19" d="M445.42,1509.95c9.03-7.86,25.06-10.99,43.23-13.86c31.02-4.91,67.9-8.15,93.44-22.33
		c4.13-2.3,5.62-7.51,3.33-11.64c-2.3-4.13-7.51-5.62-11.64-3.33c-23.96,13.31-58.69,15.78-87.8,20.39
		c-21.92,3.47-40.88,8.38-51.78,17.86c-3.57,3.1-3.94,8.51-0.84,12.08C436.44,1512.68,441.86,1513.05,445.42,1509.95L445.42,1509.95
		z"/>
	<path class="st19" d="M427.83,1493.41c28.31-35.4,61.84-50.45,95.05-64.59c35.55-15.13,70.77-29.33,100.24-62.59
		c3.13-3.54,2.81-8.95-0.73-12.08c-3.54-3.13-8.95-2.81-12.09,0.73c-27.6,31.15-60.84,44.02-94.13,58.19
		c-35.63,15.17-71.35,31.67-101.71,69.65c-2.95,3.69-2.35,9.08,1.34,12.03S424.89,1497.1,427.83,1493.41L427.83,1493.41z"/>
	<path class="st19" d="M1308.43,1211.95c-4.81,13.36-4.32,28.71,0.29,45.6c6.3,23.11,20.4,49.46,37.23,77.65
		c24.37,40.81,54.5,85.7,73.15,130.44c11.95,28.68,19.19,57.26,16.49,84.58c-0.46,4.7,2.97,8.89,7.68,9.36
		c4.7,0.46,8.89-2.97,9.36-7.68c2.97-29.97-4.61-61.39-17.73-92.85c-18.95-45.47-49.48-91.14-74.25-132.63
		c-15.93-26.67-29.45-51.51-35.41-73.38c-3.57-13.08-4.42-24.96-0.69-35.3c1.6-4.44-0.71-9.35-5.16-10.95
		C1314.94,1205.19,1310.03,1207.5,1308.43,1211.95L1308.43,1211.95z"/>
	<path class="st19" d="M1414.72,1314.75c-0.37,14.1,3.37,28.39,9.43,42.95c8.43,20.24,21.38,41.1,32.45,62.93
		c17.09,33.71,29.88,69.93,9.42,110.4c-2.13,4.21-0.44,9.37,3.78,11.5c4.21,2.14,9.37,0.44,11.5-3.78
		c23.31-46.1,10.04-87.46-9.43-125.86c-9.11-17.97-19.54-35.25-27.57-52.09c-7.44-15.57-12.87-30.66-12.47-45.59
		c0.12-4.73-3.61-8.66-8.33-8.79C1418.79,1306.29,1414.85,1310.03,1414.72,1314.75L1414.72,1314.75z"/>
	<path class="st19" d="M1301.66,1403.05c16.01,30.75,27.93,62.23,43.48,89.9c16.33,29.07,36.61,54,68.71,70.23
		c4.22,2.13,9.37,0.44,11.5-3.78c2.13-4.21,0.44-9.37-3.78-11.5c-28.85-14.59-46.83-37.22-61.51-63.34
		c-15.46-27.52-27.29-58.84-43.22-89.42c-2.18-4.19-7.36-5.82-11.54-3.64C1301.12,1393.69,1299.48,1398.86,1301.66,1403.05
		L1301.66,1403.05z"/>
	<path class="st19" d="M1163.95,757.32c-8.39,39.55,4.28,79.3,26.02,121.63c30.95,60.23,80.41,126.14,106.92,206.08
		c1.49,4.49,6.33,6.92,10.82,5.43c4.48-1.49,6.92-6.34,5.43-10.82c-26.82-80.85-76.64-147.6-107.94-208.52
		c-19.75-38.44-32.13-74.34-24.51-110.25c0.98-4.62-1.97-9.17-6.59-10.15C1169.48,749.75,1164.93,752.7,1163.95,757.32
		L1163.95,757.32z"/>
	<path class="st19" d="M1233.55,858.39c-0.7,17.78,9.86,37.52,24.28,58c19.1,27.13,45.01,56,51.33,84.93
		c1.01,4.61,5.57,7.54,10.19,6.54c4.61-1.01,7.54-5.57,6.54-10.19c-5.67-25.97-25.43-52.23-43.87-77.12
		c-8.6-11.61-16.85-22.93-22.82-33.82c-5.31-9.68-8.88-18.89-8.53-27.66c0.19-4.72-3.49-8.7-8.21-8.89
		C1237.72,849.99,1233.74,853.67,1233.55,858.39L1233.55,858.39z"/>
	<path class="st19" d="M675.89,699.94c-12.66,23.4-19.47,50.01-29.04,74.88c-8.83,22.92-20.06,44.37-42.16,59.42
		c-3.9,2.66-4.92,7.98-2.26,11.89c2.66,3.91,7.99,4.92,11.89,2.26c25.19-17.16,38.43-41.28,48.5-67.42
		c9.32-24.19,15.82-50.13,28.13-72.89c2.25-4.16,0.7-9.35-3.46-11.6C683.33,694.23,678.13,695.78,675.89,699.94L675.89,699.94z"/>
	<path class="st19" d="M559.49,467.45c14.28,12.13,35.43,18.07,60.81,19.86c35.31,2.49,79.18-2.8,122.5-7.11
		c41.89-4.17,83.25-7.49,115.3-1.09c19.39,3.87,35.23,11.26,44.73,25.17c2.67,3.9,7.99,4.9,11.89,2.23
		c3.9-2.66,4.91-7.99,2.24-11.89c-11.89-17.4-31.25-27.44-55.51-32.29c-33.45-6.68-76.62-3.52-120.35,0.84
		c-42.3,4.21-85.12,9.49-119.6,7.06c-21.15-1.49-39.02-5.71-50.93-15.82c-3.6-3.06-9.01-2.62-12.06,0.98
		C555.45,458.99,555.89,464.39,559.49,467.45L559.49,467.45z"/>
	<path class="st19" d="M599.73,522.1c29.04,11.43,47.8,10.53,66.56,7.74c16.86-2.5,33.73-6.8,59.85-3.33
		c4.68,0.62,8.99-2.67,9.61-7.36c0.63-4.68-2.67-8.99-7.35-9.61c-22.78-3.04-39.11-0.76-54.14,1.68
		c-20.17,3.28-37.74,6.95-68.27-5.06c-4.4-1.73-9.37,0.43-11.1,4.83C593.17,515.39,595.34,520.37,599.73,522.1L599.73,522.1z"/>
	<path class="st19" d="M704.85,447.97c70.15-18.5,131.46-19.37,174.01,5.66c4.07,2.4,9.32,1.04,11.72-3.04
		c2.4-4.07,1.04-9.32-3.04-11.72c-45.75-26.91-111.63-27.35-187.05-7.47c-4.57,1.21-7.3,5.89-6.09,10.46
		C695.6,446.44,700.28,449.17,704.85,447.97L704.85,447.97z"/>
	<path class="st19" d="M1080.82,595.55c47.92,33.91,97.79,44.34,140.62,38.94c104.08-13.13,132.94-20.73,215.47,10.05
		c4.43,1.65,9.36-0.6,11.01-5.03c1.65-4.43-0.6-9.36-5.03-11.01c-85.66-31.94-115.59-24.61-223.6-10.99
		c-39.2,4.94-84.74-4.9-128.59-35.93c-3.86-2.73-9.2-1.81-11.93,2.05C1076.05,587.47,1076.96,592.82,1080.82,595.55L1080.82,595.55z
		"/>
	<path class="st19" d="M1251.11,599.1c49.78-21.15,120.19-16.21,182.04,6.49c4.44,1.63,9.36-0.65,10.99-5.09
		c1.63-4.44-0.65-9.36-5.09-10.99c-66.11-24.27-141.42-28.78-194.63-6.17c-4.35,1.85-6.38,6.88-4.53,11.23
		C1241.73,598.92,1246.76,600.95,1251.11,599.1L1251.11,599.1z"/>
	<path class="st19" d="M1196.6,511.93c48.83,11.24,101.57,4.66,150.29-3.29c46.49-7.59,89.1-16.62,120.34-10.46
		c4.63,0.91,9.14-2.1,10.05-6.74c0.91-4.64-2.11-9.14-6.74-10.05c-26.43-5.21-60.59-0.57-98.38,5.69
		c-53.88,8.93-115.5,21.11-171.72,8.17c-4.61-1.06-9.2,1.82-10.26,6.42C1189.12,506.28,1192,510.88,1196.6,511.93L1196.6,511.93z"/>
</g>
</svg>
