<?xml version="1.0" encoding="utf-8"?>
<!-- Generator: Adobe Illustrator 26.4.1, SVG Export Plug-In . SVG Version: 6.00 Build 0)  -->
<svg version="1.1" id="Layer_1" xmlns="http://www.w3.org/2000/svg" xmlns:xlink="http://www.w3.org/1999/xlink" x="0px" y="0px"
	 viewBox="0 0 2000 2000" style="enable-background:new 0 0 2000 2000;" xml:space="preserve">
<style type="text/css">
	.st0{fill-rule:evenodd;clip-rule:evenodd;fill:#145468;}
	.st1{fill-rule:evenodd;clip-rule:evenodd;fill:#3B7A7A;}
	.st2{fill-rule:evenodd;clip-rule:evenodd;fill:#098B8D;}
	.st3{fill-rule:evenodd;clip-rule:evenodd;fill:#689595;}
	.st4{fill-rule:evenodd;clip-rule:evenodd;fill:#679595;}
	.st5{fill-rule:evenodd;clip-rule:evenodd;fill:#CEE4E4;}
	
		.st6{fill-rule:evenodd;clip-rule:evenodd;fill:#145468;stroke:#CEE4E4;stroke-width:5;stroke-linecap:round;stroke-linejoin:round;stroke-miterlimit:10;}
	.st7{fill-rule:evenodd;clip-rule:evenodd;fill:#043A60;}
	.st8{fill-rule:evenodd;clip-rule:evenodd;fill:#FD9A65;}
	.st9{fill-rule:evenodd;clip-rule:evenodd;fill:#18658D;}
	.st10{fill-rule:evenodd;clip-rule:evenodd;fill:#9FCDE5;}
	.st11{fill-rule:evenodd;clip-rule:evenodd;fill:#56A8D3;}
	.st12{fill-rule:evenodd;clip-rule:evenodd;fill:#276383;}
	.st13{fill-rule:evenodd;clip-rule:evenodd;fill:#E0F0F8;}
	.st14{fill-rule:evenodd;clip-rule:evenodd;fill:#A51E1C;}
	.st15{fill-rule:evenodd;clip-rule:evenodd;fill:#CB442D;}
	.st16{fill-rule:evenodd;clip-rule:evenodd;fill:#DC5A44;}
	.st17{fill-rule:evenodd;clip-rule:evenodd;fill:#F7BD54;}
	.st18{fill-rule:evenodd;clip-rule:evenodd;fill:#E46B37;}
	.st19{fill-rule:evenodd;clip-rule:evenodd;fill:#B67227;}
	.st20{fill-rule:evenodd;clip-rule:evenodd;fill:#D78A35;}
	.st21{fill-rule:evenodd;clip-rule:evenodd;fill:#A4331F;}
	.st22{fill-rule:evenodd;clip-rule:evenodd;fill:#F2A550;}
	.st23{fill-rule:evenodd;clip-rule:evenodd;fill:#F9E9D6;}
	.st24{fill-rule:evenodd;clip-rule:evenodd;fill:#844013;}
	.st25{fill-rule:evenodd;clip-rule:evenodd;fill:#A04E18;}
	.st26{fill-rule:evenodd;clip-rule:evenodd;fill:#F8B872;}
	.st27{fill-rule:evenodd;clip-rule:evenodd;fill:#FFC689;}
	.st28{fill-rule:evenodd;clip-rule:evenodd;fill:#B6844D;}
	.st29{fill-rule:evenodd;clip-rule:evenodd;fill:#CA5320;}
	.st30{fill-rule:evenodd;clip-rule:evenodd;fill:#D76332;}
	.st31{fill-rule:evenodd;clip-rule:evenodd;fill:#812F0C;}
	.st32{fill-rule:evenodd;clip-rule:evenodd;fill:#8A460F;}
	.st33{fill-rule:evenodd;clip-rule:evenodd;fill:#B46914;}
	.st34{fill-rule:evenodd;clip-rule:evenodd;fill:#B54515;}
	.st35{fill-rule:evenodd;clip-rule:evenodd;fill:#FFCD71;}
	.st36{fill-rule:evenodd;clip-rule:evenodd;fill:#95B41D;}
	.st37{fill-rule:evenodd;clip-rule:evenodd;fill:#A8C731;}
	.st38{fill-rule:evenodd;clip-rule:evenodd;fill:#85A214;}
	.st39{fill-rule:evenodd;clip-rule:evenodd;fill:#C6EF28;}
	.st40{fill-rule:evenodd;clip-rule:evenodd;fill:#ED982B;}
	.st41{fill-rule:evenodd;clip-rule:evenodd;fill:#FCCF7C;}
	.st42{fill-rule:evenodd;clip-rule:evenodd;fill:#FFE8BC;}
	.st43{fill-rule:evenodd;clip-rule:evenodd;fill:#ED6961;}
	.st44{fill-rule:evenodd;clip-rule:evenodd;fill:#696E1E;}
	.st45{fill-rule:evenodd;clip-rule:evenodd;fill:#9CA42A;}
	.st46{fill-rule:evenodd;clip-rule:evenodd;fill:#7F8615;}
	.st47{fill-rule:evenodd;clip-rule:evenodd;fill:#FFEECF;}
	.st48{fill-rule:evenodd;clip-rule:evenodd;fill:#77786D;}
	.st49{fill-rule:evenodd;clip-rule:evenodd;fill:#D3D5C6;}
	.st50{fill-rule:evenodd;clip-rule:evenodd;fill:#7C7A7A;}
	.st51{fill-rule:evenodd;clip-rule:evenodd;fill:#DBDCD9;}
	.st52{fill-rule:evenodd;clip-rule:evenodd;fill:#CA372D;}
	.st53{fill-rule:evenodd;clip-rule:evenodd;fill:#FE7D75;}
	.st54{fill-rule:evenodd;clip-rule:evenodd;fill:#B0B0B0;}
	.st55{fill-rule:evenodd;clip-rule:evenodd;fill:#888787;}
	.st56{fill-rule:evenodd;clip-rule:evenodd;fill:#6E6E6E;}
	.st57{fill-rule:evenodd;clip-rule:evenodd;fill:#757575;}
	.st58{fill-rule:evenodd;clip-rule:evenodd;fill:#60341E;}
	.st59{fill-rule:evenodd;clip-rule:evenodd;fill:#B0451B;}
	.st60{fill-rule:evenodd;clip-rule:evenodd;fill:#8A4727;}
	.st61{fill-rule:evenodd;clip-rule:evenodd;fill:#FABB64;}
	.st62{fill-rule:evenodd;clip-rule:evenodd;fill:#3E88AF;}
	.st63{fill-rule:evenodd;clip-rule:evenodd;fill:#5BA0C5;}
	.st64{fill-rule:evenodd;clip-rule:evenodd;fill:#FFF1DE;}
	.st65{fill-rule:evenodd;clip-rule:evenodd;fill:#F8B89B;}
	.st66{fill-rule:evenodd;clip-rule:evenodd;fill:#E98A5F;}
	.st67{fill-rule:evenodd;clip-rule:evenodd;fill:#FFCAB3;}
	.st68{fill-rule:evenodd;clip-rule:evenodd;fill:#F9A580;}
	.st69{fill-rule:evenodd;clip-rule:evenodd;fill:#FFDFD2;}
	.st70{fill-rule:evenodd;clip-rule:evenodd;fill:#E2A85C;}
	.st71{fill-rule:evenodd;clip-rule:evenodd;fill:#C68446;}
	.st72{fill-rule:evenodd;clip-rule:evenodd;fill:#F2BC75;}
	.st73{fill-rule:evenodd;clip-rule:evenodd;fill:#F2BC76;}
	.st74{fill-rule:evenodd;clip-rule:evenodd;fill:#FFD69F;}
	.st75{fill-rule:evenodd;clip-rule:evenodd;fill:#E7624B;}
	.st76{fill-rule:evenodd;clip-rule:evenodd;fill:#FFEED9;}
	.st77{fill-rule:evenodd;clip-rule:evenodd;fill:#C26E11;}
	.st78{fill-rule:evenodd;clip-rule:evenodd;fill:#F39226;}
	.st79{fill-rule:evenodd;clip-rule:evenodd;fill:#DF5020;}
	.st80{fill-rule:evenodd;clip-rule:evenodd;fill:#2C140B;}
	.st81{fill-rule:evenodd;clip-rule:evenodd;fill:#FFFFFF;}
	.st82{fill-rule:evenodd;clip-rule:evenodd;}
	.st83{fill-rule:evenodd;clip-rule:evenodd;fill:#A96F3E;}
	.st84{fill-rule:evenodd;clip-rule:evenodd;fill:#683A15;}
	.st85{fill-rule:evenodd;clip-rule:evenodd;fill:#F0DCCB;}
	.st86{fill-rule:evenodd;clip-rule:evenodd;fill:#E6D1B6;}
	.st87{fill-rule:evenodd;clip-rule:evenodd;fill:#69553C;}
</style>
<g>
	<path class="st15" d="M1225.73,1232.54l-67.76-40.76c0,0-259.91,107.28-332.41,159.07c-146.46,104.61-161.34,239.83-109.52,326.36
		c57.79,96.5,169.33,137.33,262.91,132.89c150-7.12,212.99-69.96,248.86-157.48c24.57-59.95,34.74-137.13-37.3-206.75
		c-35.83-34.63-115.44-45.96-115.44-45.96s30.85-30.39,69.6-44.02c53.2-18.72,72.9-19.6,72.9-19.6L1225.73,1232.54L1225.73,1232.54z
		"/>
	<path class="st15" d="M672.37,1551.78c-12.3-7.91-52.1-7.69-52.44,19.62c-0.38,30.48,40.06,27.72,56.15,12.72L672.37,1551.78
		L672.37,1551.78z"/>
	<path class="st15" d="M1230.65,1551.67c11.63-8.86,51.32-11.83,53.84,15.37c2.82,30.35-37.72,30.84-54.96,17.17L1230.65,1551.67
		L1230.65,1551.67z"/>
	<path class="st75" d="M1225.7,1232.55l-79.34-56.21c0,0-128.25,23.42-199.69,45.69c-162.17,50.54-252.98,118.59-282.74,229.91
		c-30.34,113.51,21.58,211.66,52.53,252.77c44.97,59.71,156.11,94.45,144.46,86.67c-86.5-57.75-134.05-162.78-81.31-306.77
		c41.67-113.75,178.2-166.28,332.38-219.25C1160.36,1248.74,1225.7,1232.55,1225.7,1232.55L1225.7,1232.55z"/>
	<path class="st23" d="M1017.62,1468.57c68.08,0,123.36,55.27,123.36,123.36c0,68.08-55.27,123.36-123.36,123.36
		c-68.08,0-123.35-55.28-123.35-123.36C894.27,1523.84,949.55,1468.57,1017.62,1468.57L1017.62,1468.57z"/>
	<path class="st75" d="M1017.62,1517.05c41.32,0,74.87,33.55,74.87,74.87c0,41.32-33.55,74.87-74.87,74.87
		c-41.32,0-74.87-33.55-74.87-74.87C942.75,1550.6,976.3,1517.05,1017.62,1517.05L1017.62,1517.05z"/>
	<path class="st23" d="M1065.92,1276.6c-63.11,18.1-135.89,49.35-192.66,90.72c-38.34,27.93-69.37,60.52-85.57,96.69
		c-1.22,2.72,0,5.93,2.73,7.15s5.93,0,7.15-2.73c15.5-34.62,45.38-65.64,82.07-92.37c55.77-40.64,127.29-71.28,189.27-89.06
		c2.87-0.83,4.53-3.82,3.71-6.69C1071.79,1277.44,1068.79,1275.78,1065.92,1276.6L1065.92,1276.6z"/>
	<path class="st23" d="M855.7,1434.98c50.31-69.48,107.79-91.92,188.18-113.76c2.88-0.78,4.58-3.76,3.8-6.64
		c-0.78-2.88-3.76-4.58-6.64-3.8c-83.02,22.55-142.16,46.1-194.11,117.85c-1.75,2.42-1.21,5.8,1.21,7.55
		C850.57,1437.94,853.95,1437.4,855.7,1434.98L855.7,1434.98z"/>
	<path class="st23" d="M795.17,1573.15c-24.6,100.69,45.81,196.89,151.58,217.49c2.93,0.57,5.77-1.34,6.35-4.28
		c0.57-2.93-1.35-5.77-4.28-6.34c-99.53-19.39-166.28-109.56-143.14-204.31c0.71-2.9-1.07-5.83-3.97-6.54
		C798.81,1568.47,795.88,1570.24,795.17,1573.15L795.17,1573.15z"/>
	<path class="st23" d="M830.65,1673.82c16.94,45.28,70.2,84.74,116.98,88.54c2.98,0.24,5.59-1.98,5.83-4.95
		c0.24-2.98-1.98-5.59-4.95-5.83c-43.08-3.5-92.12-39.85-107.72-81.55c-1.05-2.8-4.16-4.22-6.96-3.17
		C831.02,1667.9,829.6,1671.02,830.65,1673.82L830.65,1673.82z"/>
	<path class="st23" d="M1146.34,1469.55c32.61,20.7,46.01,54.84,47.07,90.47c1.08,36.29-10.56,74.18-28.25,101.67
		c-1.62,2.51-0.89,5.86,1.62,7.47c2.51,1.62,5.86,0.89,7.47-1.62c18.77-29.16,31.13-69.35,29.97-107.85
		c-1.17-39.16-16.24-76.52-52.09-99.28c-2.52-1.6-5.87-0.85-7.47,1.67C1143.07,1464.6,1143.82,1467.95,1146.34,1469.55
		L1146.34,1469.55z"/>
	<path class="st23" d="M1192.45,1489.76c27.04,40.85,27.46,108.15,15.14,140.37c-1.06,2.79,0.33,5.92,3.12,6.98
		c2.79,1.06,5.92-0.33,6.99-3.12c13.17-34.48,12.7-106.49-16.23-150.2c-1.65-2.49-5.01-3.17-7.5-1.52
		C1191.48,1483.91,1190.8,1487.27,1192.45,1489.76L1192.45,1489.76z"/>
	<path class="st23" d="M728.21,1380.52c15.52-32.8,44.12-56.82,82.38-77.48c2.63-1.42,3.61-4.71,2.19-7.33
		c-1.42-2.63-4.71-3.61-7.33-2.19c-40.53,21.9-70.57,47.62-87.01,82.37c-1.28,2.7-0.12,5.93,2.58,7.2
		C723.7,1384.37,726.93,1383.22,728.21,1380.52L728.21,1380.52z"/>
	<path class="st23" d="M763.92,1358.89c27.79-30.96,73.98-50.24,107.81-60.65c2.85-0.88,4.46-3.91,3.58-6.76
		c-0.88-2.85-3.91-4.46-6.76-3.58c-35.41,10.9-83.6,31.36-112.68,63.76c-1.99,2.22-1.81,5.65,0.41,7.64
		C758.51,1361.29,761.93,1361.11,763.92,1358.89L763.92,1358.89z"/>
	<path class="st23" d="M642.49,1556.76c8.44,0,15.3,6.86,15.3,15.3c0,8.45-6.86,15.31-15.3,15.31c-8.45,0-15.31-6.86-15.31-15.31
		C627.19,1563.62,634.05,1556.76,642.49,1556.76L642.49,1556.76z"/>
	<path class="st23" d="M1263.63,1552.51c8.52,0,15.43,6.91,15.43,15.43s-6.91,15.43-15.43,15.43c-8.52,0-15.43-6.91-15.43-15.43
		S1255.11,1552.51,1263.63,1552.51L1263.63,1552.51z"/>
	<path class="st75" d="M647.46,1565.11c-15.03-10.05-26.71-28.48-35.09-49.71c-13.02-33-17.88-72.9-12.88-101.42
		c10.2-58.19,47.13-122.32,86.33-190.57c40.1-69.82,82.63-143.81,103.17-219.82c41.66-154.2,83.36-414.34,161.56-604.02
		c33.12-80.34,77.24-149.48,120.27-188.24c26.5-23.87,52.06-36.39,74.15-30.2c40.91,11.46,47.24,51.51,40.81,104.61
		c-10.56,87.17-57.5,208.43-74.93,312.25c-20.64,122.99,31.94,265.88,80.62,358.76c28.78,54.92,82.79,119.87,122.31,195.6
		c57.96,111.05,83.91,245.79-52.79,406.71c-3.02,3.56-2.59,8.89,0.97,11.91c3.56,3.02,8.89,2.59,11.91-0.97
		c142.99-168.33,115.52-309.31,54.89-425.47c-39.53-75.74-93.54-140.7-122.32-195.63c-47.26-90.17-98.96-228.73-78.92-348.12
		c17.46-104.07,64.46-225.63,75.04-313.02c7.67-63.3-4.26-109.25-53.03-122.92c-26.54-7.44-58.18,5.24-90.02,33.92
		c-44.47,40.06-90.36,111.33-124.58,194.36c-78.47,190.33-120.45,451.32-162.25,606.05c-20.17,74.66-62.12,147.23-101.51,215.81
		c-40.29,70.15-77.83,136.25-88.32,196.07c-5.45,31.07-0.37,74.59,13.81,110.54c9.76,24.74,23.9,45.85,41.42,57.56
		c3.88,2.59,9.13,1.55,11.72-2.33C652.39,1572.95,651.34,1567.7,647.46,1565.11L647.46,1565.11z"/>
</g>
</svg>
