<?xml version="1.0" encoding="utf-8"?>
<!-- Generator: Adobe Illustrator 26.4.1, SVG Export Plug-In . SVG Version: 6.00 Build 0)  -->
<svg version="1.1" id="Layer_1" xmlns="http://www.w3.org/2000/svg" xmlns:xlink="http://www.w3.org/1999/xlink" x="0px" y="0px"
	 viewBox="0 0 2000 2000" style="enable-background:new 0 0 2000 2000;" xml:space="preserve">
<style type="text/css">
	.st0{fill-rule:evenodd;clip-rule:evenodd;fill:#F49E23;}
	.st1{fill-rule:evenodd;clip-rule:evenodd;fill:#D14D36;}
	.st2{fill-rule:evenodd;clip-rule:evenodd;fill:#FDF0D3;}
	.st3{fill-rule:evenodd;clip-rule:evenodd;fill:#0C427E;}
	.st4{fill-rule:evenodd;clip-rule:evenodd;fill:#B45A25;}
	.st5{fill-rule:evenodd;clip-rule:evenodd;fill:#EC8C28;}
	.st6{fill-rule:evenodd;clip-rule:evenodd;fill:#EE9726;}
	.st7{fill-rule:evenodd;clip-rule:evenodd;fill:#302574;}
	.st8{fill-rule:evenodd;clip-rule:evenodd;fill:#F3B953;}
	.st9{fill-rule:evenodd;clip-rule:evenodd;fill:#3D648F;}
	.st10{fill-rule:evenodd;clip-rule:evenodd;fill:#145468;}
	.st11{fill-rule:evenodd;clip-rule:evenodd;fill:#3B7A7A;}
	.st12{fill-rule:evenodd;clip-rule:evenodd;fill:#098B8D;}
	.st13{fill-rule:evenodd;clip-rule:evenodd;fill:#689595;}
	.st14{fill-rule:evenodd;clip-rule:evenodd;fill:#679595;}
	.st15{fill-rule:evenodd;clip-rule:evenodd;fill:#CEE4E4;}
	
		.st16{fill-rule:evenodd;clip-rule:evenodd;fill:#145468;stroke:#CEE4E4;stroke-width:5;stroke-linecap:round;stroke-linejoin:round;stroke-miterlimit:10;}
	.st17{fill-rule:evenodd;clip-rule:evenodd;fill:#043A60;}
	.st18{fill-rule:evenodd;clip-rule:evenodd;fill:#FD9A65;}
	.st19{fill-rule:evenodd;clip-rule:evenodd;fill:#18658D;}
	.st20{fill-rule:evenodd;clip-rule:evenodd;fill:#9FCDE5;}
	.st21{fill-rule:evenodd;clip-rule:evenodd;fill:#56A8D3;}
	.st22{fill-rule:evenodd;clip-rule:evenodd;fill:#276383;}
	.st23{fill-rule:evenodd;clip-rule:evenodd;fill:#E0F0F8;}
	.st24{fill-rule:evenodd;clip-rule:evenodd;fill:#A51E1C;}
	.st25{fill-rule:evenodd;clip-rule:evenodd;fill:#CB442D;}
	.st26{fill-rule:evenodd;clip-rule:evenodd;fill:#DC5A44;}
	.st27{fill-rule:evenodd;clip-rule:evenodd;fill:#F7BD54;}
	.st28{fill-rule:evenodd;clip-rule:evenodd;fill:#E46B37;}
	.st29{fill-rule:evenodd;clip-rule:evenodd;fill:#B67227;}
	.st30{fill-rule:evenodd;clip-rule:evenodd;fill:#D78A35;}
	.st31{fill-rule:evenodd;clip-rule:evenodd;fill:#A4331F;}
	.st32{fill-rule:evenodd;clip-rule:evenodd;fill:#F2A550;}
	.st33{fill-rule:evenodd;clip-rule:evenodd;fill:#F9E9D6;}
	.st34{fill-rule:evenodd;clip-rule:evenodd;fill:#844013;}
	.st35{fill-rule:evenodd;clip-rule:evenodd;fill:#A04E18;}
	.st36{fill-rule:evenodd;clip-rule:evenodd;fill:#F8B872;}
	.st37{fill-rule:evenodd;clip-rule:evenodd;fill:#FFC689;}
	.st38{fill-rule:evenodd;clip-rule:evenodd;fill:#B6844D;}
	.st39{fill-rule:evenodd;clip-rule:evenodd;fill:#CA5320;}
	.st40{fill-rule:evenodd;clip-rule:evenodd;fill:#D76332;}
	.st41{fill-rule:evenodd;clip-rule:evenodd;fill:#812F0C;}
	.st42{fill-rule:evenodd;clip-rule:evenodd;fill:#8A460F;}
	.st43{fill-rule:evenodd;clip-rule:evenodd;fill:#B46914;}
	.st44{fill-rule:evenodd;clip-rule:evenodd;fill:#B54515;}
	.st45{fill-rule:evenodd;clip-rule:evenodd;fill:#FFCD71;}
	.st46{fill-rule:evenodd;clip-rule:evenodd;fill:#95B41D;}
	.st47{fill-rule:evenodd;clip-rule:evenodd;fill:#A8C731;}
	.st48{fill-rule:evenodd;clip-rule:evenodd;fill:#85A214;}
	.st49{fill-rule:evenodd;clip-rule:evenodd;fill:#C6EF28;}
	.st50{fill-rule:evenodd;clip-rule:evenodd;fill:#ED982B;}
	.st51{fill-rule:evenodd;clip-rule:evenodd;fill:#FCCF7C;}
	.st52{fill-rule:evenodd;clip-rule:evenodd;fill:#FFE8BC;}
	.st53{fill-rule:evenodd;clip-rule:evenodd;fill:#ED6961;}
	.st54{fill-rule:evenodd;clip-rule:evenodd;fill:#696E1E;}
	.st55{fill-rule:evenodd;clip-rule:evenodd;fill:#9CA42A;}
	.st56{fill-rule:evenodd;clip-rule:evenodd;fill:#7F8615;}
	.st57{fill-rule:evenodd;clip-rule:evenodd;fill:#FFEECF;}
	.st58{fill-rule:evenodd;clip-rule:evenodd;fill:#77786D;}
	.st59{fill-rule:evenodd;clip-rule:evenodd;fill:#D3D5C6;}
	.st60{fill-rule:evenodd;clip-rule:evenodd;fill:#7C7A7A;}
	.st61{fill-rule:evenodd;clip-rule:evenodd;fill:#DBDCD9;}
	.st62{fill-rule:evenodd;clip-rule:evenodd;fill:#CA372D;}
	.st63{fill-rule:evenodd;clip-rule:evenodd;fill:#FE7D75;}
	.st64{fill-rule:evenodd;clip-rule:evenodd;fill:#B0B0B0;}
	.st65{fill-rule:evenodd;clip-rule:evenodd;fill:#888787;}
	.st66{fill-rule:evenodd;clip-rule:evenodd;fill:#6E6E6E;}
	.st67{fill-rule:evenodd;clip-rule:evenodd;fill:#757575;}
	.st68{fill-rule:evenodd;clip-rule:evenodd;fill:#60341E;}
	.st69{fill-rule:evenodd;clip-rule:evenodd;fill:#B0451B;}
	.st70{fill-rule:evenodd;clip-rule:evenodd;fill:#8A4727;}
	.st71{fill-rule:evenodd;clip-rule:evenodd;fill:#FABB64;}
	.st72{fill-rule:evenodd;clip-rule:evenodd;fill:#3E88AF;}
	.st73{fill-rule:evenodd;clip-rule:evenodd;fill:#5BA0C5;}
	.st74{fill-rule:evenodd;clip-rule:evenodd;fill:#FFF1DE;}
	.st75{fill-rule:evenodd;clip-rule:evenodd;fill:#F8B89B;}
	.st76{fill-rule:evenodd;clip-rule:evenodd;fill:#E98A5F;}
	.st77{fill-rule:evenodd;clip-rule:evenodd;fill:#FFCAB3;}
	.st78{fill-rule:evenodd;clip-rule:evenodd;fill:#F9A580;}
	.st79{fill-rule:evenodd;clip-rule:evenodd;fill:#FFDFD2;}
	.st80{fill-rule:evenodd;clip-rule:evenodd;fill:#E2A85C;}
	.st81{fill-rule:evenodd;clip-rule:evenodd;fill:#C68446;}
	.st82{fill-rule:evenodd;clip-rule:evenodd;fill:#F2BC75;}
	.st83{fill-rule:evenodd;clip-rule:evenodd;fill:#F2BC76;}
	.st84{fill-rule:evenodd;clip-rule:evenodd;fill:#FFD69F;}
	.st85{fill-rule:evenodd;clip-rule:evenodd;fill:#E7624B;}
	.st86{fill-rule:evenodd;clip-rule:evenodd;fill:#F6E8DB;}
	.st87{fill-rule:evenodd;clip-rule:evenodd;fill:#FC9EB6;}
	.st88{fill-rule:evenodd;clip-rule:evenodd;fill:#FFFFFF;}
</style>
<g>
	<path class="st5" d="M389.74,619.15c-5.62-0.63,4.42-33.45,5.93-36.56c24.24-50.01,52.96-80.93,96.7-114.58
		c14.2-10.93,71.92-101.48,87.6-83.47c17.58,20.21,20.66,247.89-33.64,234.84C539.57,617.77,389.74,619.15,389.74,619.15
		L389.74,619.15z"/>
	<path class="st6" d="M714.85,850.61c-41.33-42.88-42.61-124.71-78.06-171c-41.68-54.43-77.07-75.48-102.79-87.27
		c-41.13-18.85-104.44-26.36-169.34,28.29c-34.38,28.96-36.94,86.38-85.07,103.08c-43.46,15.08-148.31-22.02-167.95,0.49
		c-17.01,19.49-16.09,43.52-13.3,67.66c10.56,91.17,106.96,129.2,187.39,125.16c29.87-1.5,95.1-12.25,100.29-13.79
		c51.48-15.28,69.35,96.09,122.55,94.2C578,994.97,717.91,853.78,714.85,850.61L714.85,850.61z"/>
	<path class="st7" d="M114.05,683.6c11.67,0,21.14,12.81,21.14,28.59c0,15.78-9.47,28.59-21.14,28.59
		c-11.67,0-21.14-12.81-21.14-28.59C92.91,696.41,102.38,683.6,114.05,683.6L114.05,683.6z"/>
	<path class="st7" d="M388.1,744.04c9.57,0,17.34,7.77,17.34,17.34c0,9.57-7.77,17.34-17.34,17.34c-9.57,0-17.34-7.77-17.34-17.34
		C370.76,751.81,378.53,744.04,388.1,744.04L388.1,744.04z"/>
	<path class="st7" d="M417.27,698.24c4.92,1.21,9.71,5.02,14.13,9.37c7.66,7.55,13.96,17.1,16.75,22.34
		c2.18,4.09,7.27,5.64,11.36,3.46c4.09-2.18,5.64-7.27,3.46-11.36c-3.3-6.2-10.73-17.48-19.78-26.41
		c-6.73-6.63-14.41-11.87-21.91-13.72c-4.5-1.11-9.05,1.65-10.16,6.15C410.01,692.58,412.77,697.13,417.27,698.24L417.27,698.24z"/>
	<path class="st7" d="M116.06,835.43c21.5,17.49,50.78,25.47,78.98,25.72c28.26,0.25,55.39-7.27,72.52-20.46
		c1.32-1.02,1.57-2.92,0.55-4.24c-1.02-1.32-2.92-1.57-4.24-0.55c-16.24,12.49-42,19.44-68.78,19.2
		c-26.84-0.24-54.75-7.71-75.22-24.36c-1.29-1.05-3.2-0.86-4.25,0.44C114.57,832.47,114.77,834.37,116.06,835.43L116.06,835.43z"/>
	<path class="st5" d="M685.61,1311.06c0,0,100.32,145.98,123.21,187.68c10.99,20.02-60.25-20.97-78.81,37.15
		c-11.04,34.58,9.52,74.83,36.84,78.25c34.34,4.29,71.8,9.7,99.79,1.01c36.26-11.26,73.54-40.11,60.47-78.63
		c-10.19-30.04-70.71-264.16-101.78-283.96C804.9,1239.54,699.3,1289.59,685.61,1311.06L685.61,1311.06z"/>
	<path class="st5" d="M1301.46,1228.52c0,0-112.37,255.67-149.96,271.31c-23.95,9.96-65.75-43.3-101.37,3.46
		c-35.67,46.82-0.88,93.51,22.91,106.15c29.04,15.43,75.25,7.01,101.05,8.25c31.53,1.52,93.66-72.32,118.23-100.65
		c37.86-43.65,164.95-114.95,176.29-167.01C1484.64,1276.44,1298.73,1254.79,1301.46,1228.52L1301.46,1228.52z"/>
	<path class="st6" d="M496.3,1033.17c-3.25,85.67,94.7,163.96,40.98,248.25c-29.96,47-71.38,116.03-119.4,146.87
		c-32.25,20.72-55.6-27.11-98.08,10.8c-63.86,56.98,6.03,109.47,25.72,123.61c112.03,80.47,154.8-45.16,221.01-107.89
		c50.4-47.75,101.95-93.83,166.89-118.26c74.76-28.13,120.57,11.44,347.52,2.75c96.6-3.7,192.46-12.52,225.77-25.05
		c20.91-7.87,34.58,53.59,115.22,98.02c75.27,41.46,158.65,43.61,155.95,73.35c-3.63,40.04-88.97,30.8-58.14,109.82
		c20.48,52.49,105.37,19.52,131.79-1.32c52.65-41.53,67.07-59.09,60.77-96.61c-8.87-52.76-57.46-112.09-96.28-164.39
		c-29.9-40.28,16.97-75.99,46.81-131.76c31.4-58.69-6.46-227.21-45.14-268.31c-74.92-79.6-141.7-137.02-453.24-52.57
		c-194.91,52.83-382.84,66.52-466.47-36.55L496.3,1033.17L496.3,1033.17z"/>
	<path class="st6" d="M676.81,782.87c-1.71,2.61-136.65-151.24-135.15-154.83c30.06-71.92,101.65-99.92,157.99-147.3
		c45.06-37.9,104.19-118.12,116.31-102.36c50.66,65.85,12.21,225.75-54.17,307.97C716.13,742.92,692.18,759.36,676.81,782.87
		L676.81,782.87z"/>
	<path class="st8" d="M321.48,912.7c-62.95,7.03-122.81-10.88-117.82-5.73c6.77,6.99,48.29,22.15,86.94,26.31
		c38.13,4.1,73.41-2.8,78.08,5.47c17.54,31.08-11.86,86.93,18.11,138.07c13.9,23.72,60.67-72.03,75.04-64.7
		c53.73,27.4-20.26,140.91,1.3,172.87c8.43,12.5,47.76-21.83,62.98-11.57c11.02,7.43,9.65,69.97,25,72.71
		c7.15,1.28,27.17-54.39-9.15-175.23c-13.94-46.4-36.02-83.05-57.07-125.72C445.38,865.13,394.04,904.6,321.48,912.7L321.48,912.7z"
		/>
	<path class="st9" d="M465.36,1008.31c12.21-11.48,97.19-63.18,128.52-88.98c12.62-10.39,77.03-56.58,104.47-89.64
		c2.38-2.86,40.67,40.47,46.09,49.37c2.21,3.64-55.31,53.47-77.75,73.42c-30.67,27.27-141.74,102.14-165.55,115.71
		C485.99,1076.84,448.04,1024.59,465.36,1008.31L465.36,1008.31z"/>
	<path class="st8" d="M1643.47,1008.25c-16.99-50.63-54.25-94.87-52.28-99.33c17.76-40.11,82.08-57.3,123.64-29.82
		c43.95,29.06,53.67,71.61,43.27,92.07c-11.95,23.5-32.92,10.3-42.09,9.4c-16.77-1.64,75.47,44.6,45.41,93.44
		c-8.52,13.83-30.38,0.54-43.21-7.63c-7.12-4.54,7.08,8.26,15.19,18.79c13.91,18.05,7.71,37.17-5.34,53.21
		c-28.47,34.99-66.3,2.86-67.61-33.41C1659.3,1072.68,1654.87,1042.21,1643.47,1008.25L1643.47,1008.25z"/>
	<path class="st8" d="M724.67,1339.11c-9.6,5.38,17.97,5.69,123.67,27.51c44.49,9.19,106.45,85.95,112.45,28.31
		c1.44-13.87-23.01-36.57,1.53-29.81c42.18,11.63,72.66,31.82,119.43,34.52c28.26,1.63-13.42-57.62,3.67-55.11
		c53.31,7.83,87.64,54.62,155.4,60.46c54.28,4.68-41.44-61.98-5.27-59.47c59.24,4.12,83.4-25.26,84.01-30.52
		c0.43-3.7-135.76-58.34-298.32-46.27C909.54,1277.03,751.54,1324.05,724.67,1339.11L724.67,1339.11z"/>
	<path class="st8" d="M599.02,633.67c17.78-18.46,69.29-35.22,110.82-83.65c22.74-26.53,62.03-83.39,69-64.13
		c10.42,28.79-8.07,158.43-96.79,230.21c-26.59,21.52-27.65-8.27-45.52-36.09C620.9,655.68,593.89,639,599.02,633.67L599.02,633.67z
		"/>
</g>
</svg>
