<?xml version="1.0" encoding="utf-8"?>
<!-- Generator: Adobe Illustrator 26.4.1, SVG Export Plug-In . SVG Version: 6.00 Build 0)  -->
<svg version="1.1" id="Layer_1" xmlns="http://www.w3.org/2000/svg" xmlns:xlink="http://www.w3.org/1999/xlink" x="0px" y="0px"
	 viewBox="0 0 2000 2000" style="enable-background:new 0 0 2000 2000;" xml:space="preserve">
<style type="text/css">
	.st0{fill-rule:evenodd;clip-rule:evenodd;fill:#F49E23;}
	.st1{fill-rule:evenodd;clip-rule:evenodd;fill:#D14D36;}
	.st2{fill-rule:evenodd;clip-rule:evenodd;fill:#FDF0D3;}
	.st3{fill-rule:evenodd;clip-rule:evenodd;fill:#0C427E;}
	.st4{fill-rule:evenodd;clip-rule:evenodd;fill:#B45A25;}
	.st5{fill-rule:evenodd;clip-rule:evenodd;fill:#EC8C28;}
	.st6{fill-rule:evenodd;clip-rule:evenodd;fill:#EE9726;}
	.st7{fill-rule:evenodd;clip-rule:evenodd;fill:#302574;}
	.st8{fill-rule:evenodd;clip-rule:evenodd;fill:#F3B953;}
	.st9{fill-rule:evenodd;clip-rule:evenodd;fill:#3D648F;}
	.st10{fill-rule:evenodd;clip-rule:evenodd;fill:#145468;}
	.st11{fill-rule:evenodd;clip-rule:evenodd;fill:#3B7A7A;}
	.st12{fill-rule:evenodd;clip-rule:evenodd;fill:#098B8D;}
	.st13{fill-rule:evenodd;clip-rule:evenodd;fill:#689595;}
	.st14{fill-rule:evenodd;clip-rule:evenodd;fill:#679595;}
	.st15{fill-rule:evenodd;clip-rule:evenodd;fill:#CEE4E4;}
	
		.st16{fill-rule:evenodd;clip-rule:evenodd;fill:#145468;stroke:#CEE4E4;stroke-width:5;stroke-linecap:round;stroke-linejoin:round;stroke-miterlimit:10;}
	.st17{fill-rule:evenodd;clip-rule:evenodd;fill:#043A60;}
	.st18{fill-rule:evenodd;clip-rule:evenodd;fill:#FD9A65;}
	.st19{fill-rule:evenodd;clip-rule:evenodd;fill:#18658D;}
	.st20{fill-rule:evenodd;clip-rule:evenodd;fill:#9FCDE5;}
	.st21{fill-rule:evenodd;clip-rule:evenodd;fill:#56A8D3;}
	.st22{fill-rule:evenodd;clip-rule:evenodd;fill:#276383;}
	.st23{fill-rule:evenodd;clip-rule:evenodd;fill:#E0F0F8;}
	.st24{fill-rule:evenodd;clip-rule:evenodd;fill:#A51E1C;}
	.st25{fill-rule:evenodd;clip-rule:evenodd;fill:#CB442D;}
	.st26{fill-rule:evenodd;clip-rule:evenodd;fill:#DC5A44;}
	.st27{fill-rule:evenodd;clip-rule:evenodd;fill:#F7BD54;}
	.st28{fill-rule:evenodd;clip-rule:evenodd;fill:#E46B37;}
	.st29{fill-rule:evenodd;clip-rule:evenodd;fill:#B67227;}
	.st30{fill-rule:evenodd;clip-rule:evenodd;fill:#D78A35;}
	.st31{fill-rule:evenodd;clip-rule:evenodd;fill:#A4331F;}
	.st32{fill-rule:evenodd;clip-rule:evenodd;fill:#F2A550;}
	.st33{fill-rule:evenodd;clip-rule:evenodd;fill:#F9E9D6;}
	.st34{fill-rule:evenodd;clip-rule:evenodd;fill:#844013;}
	.st35{fill-rule:evenodd;clip-rule:evenodd;fill:#A04E18;}
	.st36{fill-rule:evenodd;clip-rule:evenodd;fill:#F8B872;}
	.st37{fill-rule:evenodd;clip-rule:evenodd;fill:#FFC689;}
	.st38{fill-rule:evenodd;clip-rule:evenodd;fill:#B6844D;}
	.st39{fill-rule:evenodd;clip-rule:evenodd;fill:#CA5320;}
	.st40{fill-rule:evenodd;clip-rule:evenodd;fill:#D76332;}
	.st41{fill-rule:evenodd;clip-rule:evenodd;fill:#812F0C;}
	.st42{fill-rule:evenodd;clip-rule:evenodd;fill:#8A460F;}
	.st43{fill-rule:evenodd;clip-rule:evenodd;fill:#B46914;}
	.st44{fill-rule:evenodd;clip-rule:evenodd;fill:#B54515;}
	.st45{fill-rule:evenodd;clip-rule:evenodd;fill:#FFCD71;}
	.st46{fill-rule:evenodd;clip-rule:evenodd;fill:#95B41D;}
	.st47{fill-rule:evenodd;clip-rule:evenodd;fill:#A8C731;}
	.st48{fill-rule:evenodd;clip-rule:evenodd;fill:#85A214;}
	.st49{fill-rule:evenodd;clip-rule:evenodd;fill:#C6EF28;}
	.st50{fill-rule:evenodd;clip-rule:evenodd;fill:#ED982B;}
	.st51{fill-rule:evenodd;clip-rule:evenodd;fill:#FCCF7C;}
	.st52{fill-rule:evenodd;clip-rule:evenodd;fill:#FFE8BC;}
	.st53{fill-rule:evenodd;clip-rule:evenodd;fill:#ED6961;}
	.st54{fill-rule:evenodd;clip-rule:evenodd;fill:#696E1E;}
	.st55{fill-rule:evenodd;clip-rule:evenodd;fill:#9CA42A;}
	.st56{fill-rule:evenodd;clip-rule:evenodd;fill:#7F8615;}
	.st57{fill-rule:evenodd;clip-rule:evenodd;fill:#FFEECF;}
	.st58{fill-rule:evenodd;clip-rule:evenodd;fill:#77786D;}
	.st59{fill-rule:evenodd;clip-rule:evenodd;fill:#D3D5C6;}
	.st60{fill-rule:evenodd;clip-rule:evenodd;fill:#7C7A7A;}
	.st61{fill-rule:evenodd;clip-rule:evenodd;fill:#DBDCD9;}
	.st62{fill-rule:evenodd;clip-rule:evenodd;fill:#CA372D;}
	.st63{fill-rule:evenodd;clip-rule:evenodd;fill:#FE7D75;}
	.st64{fill-rule:evenodd;clip-rule:evenodd;fill:#B0B0B0;}
	.st65{fill-rule:evenodd;clip-rule:evenodd;fill:#888787;}
	.st66{fill-rule:evenodd;clip-rule:evenodd;fill:#6E6E6E;}
	.st67{fill-rule:evenodd;clip-rule:evenodd;fill:#757575;}
	.st68{fill-rule:evenodd;clip-rule:evenodd;fill:#60341E;}
	.st69{fill-rule:evenodd;clip-rule:evenodd;fill:#B0451B;}
	.st70{fill-rule:evenodd;clip-rule:evenodd;fill:#8A4727;}
	.st71{fill-rule:evenodd;clip-rule:evenodd;fill:#FABB64;}
	.st72{fill-rule:evenodd;clip-rule:evenodd;fill:#3E88AF;}
	.st73{fill-rule:evenodd;clip-rule:evenodd;fill:#5BA0C5;}
	.st74{fill-rule:evenodd;clip-rule:evenodd;fill:#FFF1DE;}
	.st75{fill-rule:evenodd;clip-rule:evenodd;fill:#F8B89B;}
	.st76{fill-rule:evenodd;clip-rule:evenodd;fill:#E98A5F;}
	.st77{fill-rule:evenodd;clip-rule:evenodd;fill:#FFCAB3;}
	.st78{fill-rule:evenodd;clip-rule:evenodd;fill:#F9A580;}
	.st79{fill-rule:evenodd;clip-rule:evenodd;fill:#FFDFD2;}
	.st80{fill-rule:evenodd;clip-rule:evenodd;fill:#E2A85C;}
	.st81{fill-rule:evenodd;clip-rule:evenodd;fill:#C68446;}
	.st82{fill-rule:evenodd;clip-rule:evenodd;fill:#F2BC75;}
	.st83{fill-rule:evenodd;clip-rule:evenodd;fill:#F2BC76;}
	.st84{fill-rule:evenodd;clip-rule:evenodd;fill:#FFD69F;}
	.st85{fill-rule:evenodd;clip-rule:evenodd;fill:#E7624B;}
	.st86{fill-rule:evenodd;clip-rule:evenodd;fill:#F6E8DB;}
	.st87{fill-rule:evenodd;clip-rule:evenodd;fill:#FC9EB6;}
	.st88{fill-rule:evenodd;clip-rule:evenodd;fill:#FFFFFF;}
</style>
<g>
	<path class="st0" d="M1772.75,1521.33c21.31,44.39-27.02,73.11-96.51,77.55c-47.05,3.01-217.98,18.64-277,14.94
		c-61.58-3.87-88.26-7.21-132.14-12.93c-74.04-9.68-176.48-5.26-314.29-36.01c-23.47-5.24-47.97-11.5-73.53-19.02
		c-29.09-8.58-60.83-21.28-90.94-34.91c-33.71-15.25-65.41-31.66-89.11-44.7c-9.02-4.95-23.84,55.29-8.21,65.36
		c12.61,8.14,24.63,1.22,39.71,15.45c20.78,19.6,21.31,57.55-35.18,71.64c-27.22,6.8-83.79,1.7-91-24.68
		c-24.12-88.43-31.28-245.22-37.37-242.97c-17.48,6.46-118.49,187.1-123.1,216.85c-1.37,8.9,42.19,7.89,65.87,30.63
		c21.44,20.58,11.96,79.89-46.81,87.26c-32.41,4.07-109.3-17.96-127.41-60.64c-23.91-56.33,4.45-196.81-3.56-268.45
		c-2.49-22.2-7.36-43.32-13.54-64.84c-16.8-58.64-43.16-120.37-56.5-215.7v-0.01c-4.75-33.95-7.84-72.15-8.27-115.99
		c-1.27-131.45,89.25-227.13,96.19-236.58c3.46-4.71-19.35-71.72-12.51-140.28c1.44-14.49,4.1-29.07,7.79-43.64
		c15.18-60.05,47.88-120.02,85.73-172.79c44.69-62.33,96.56-114.62,135.18-145.19c48.43-38.31,97.42-58.61,106.1-43.16
		c7.76,13.85-68.78,109.29-84.44,137.09c-1.23,2.19-2.44,4.42-3.6,6.68c-21.74,41.8-33.4,95.1-35.88,146.97
		c-3.31,68.5,9.37,134.53,35.95,168.34c10.37,13.2,98.48,2.47,173.86,61.34c27.95,21.81,54.16,53.2,74,98.9
		c22.46,51.71,26.39,122.77,29.75,194.26c5.37,114.82,9.23,230.73,85.84,269.32c83.44,42.02,275.27,60.28,280.08,18.6
		c2.78-24.2,12.92-90.18,43.6-138.88c60.93-96.7,175.76-142.61,283.67-164.29c68.63-13.78,157.75-15.84,217.98,36.26
		c90.25,78.07,72.44,223.1-28.69,332.06c-68.66,73.97-205.18,137.3-238.77,144.35c-1,0.21,31.67,7.08,98.22-1.75
		C1632.61,1483.94,1744.54,1462.61,1772.75,1521.33z"/>
	<path class="st1" d="M1723.56,1201.55c-6.3,4.44-28.18,9.67-44.78,19.26c-20.89,12.07-25.48,41.52-5.76,49.7
		c36.91,15.3,73.85-34.54,74.17-59.73C1747.23,1208.58,1730.48,1196.68,1723.56,1201.55L1723.56,1201.55z"/>
	<path class="st2" d="M1596.03,1174.68c19.57-11.58,33.36-33.64-0.72-56.95c-70.79-48.44-190.87-34.7-180.1,22.4
		C1422.4,1178.28,1530.19,1213.65,1596.03,1174.68L1596.03,1174.68z"/>
	<path class="st2" d="M1559.57,1023.17c10.41-12.61,14.55-31.16-13.6-39.5c-58.49-17.31-135.59,20.11-115.24,57.38
		C1444.32,1065.96,1524.53,1065.58,1559.57,1023.17L1559.57,1023.17z"/>
	<path class="st3" d="M1508.68,1157.35c11.6-6.49,21.61-20.28,7.15-37.87c-30.03-36.53-93.63-34.82-95.63,3.76
		C1418.86,1149.02,1469.66,1179.16,1508.68,1157.35L1508.68,1157.35z"/>
	<path class="st3" d="M1770.59,933.17c-8.11-12.84-25.07-25.92-46.17-16.19c-43.83,20.22-40.52,82.38,6.42,93.74
		C1762.21,1018.32,1797.87,976.38,1770.59,933.17L1770.59,933.17z"/>
	<path class="st3" d="M1496.59,1015.71c3.43-8.16,2.83-19.18-12.58-21.44c-32-4.68-65.46,23.7-49.8,43.25
		C1444.67,1050.59,1485.06,1043.18,1496.59,1015.71L1496.59,1015.71z"/>
	<path class="st3" d="M1686.14,1160.37c22.44,59.58,89.9,68.04,125.15,31.56c23.04-23.84,32.73-67.38,5.39-129.03
		c-3.89-8.76-31.43-53.13-61.33-69.54c-2.03-1.11-4.57-0.37-5.69,1.66c-1.11,2.03-0.37,4.57,1.66,5.69
		c28.17,15.47,54.05,57.33,57.71,65.59c25.38,57.23,17.63,97.69-3.76,119.82c-31.39,32.48-91.31,24.36-111.29-28.69
		c-0.81-2.16-3.23-3.26-5.39-2.45C1686.42,1155.79,1685.32,1158.21,1686.14,1160.37L1686.14,1160.37z"/>
	<path class="st4" d="M1360.95,1203.6c-26.96,7.59-68.04,43.91-117.36,71.09c-115.62,63.72-261.01,162.51-264.64,335.2
		c-1.49,70.98,80.8,189.51,203.69,141.41c165.63-64.83,106.06-169.06,139.7-302.98c26.04-103.66,80.42-153.34,92.82-192.72
		C1424.93,1224.58,1389.3,1195.63,1360.95,1203.6L1360.95,1203.6z"/>
	<path class="st4" d="M1302.68,1123.19c-57.63-31.41-134.34-104.66-187.9-151.85c-52.58-46.34-194.31-227.55-64.89-353.12
		c43.38-42.09,179.12,41.04,220.2,66.51c74.38,46.12,87.23,156,94.67,230.69c5.22,52.41,4.56,110.85,10.07,138.91
		C1381.49,1088.37,1328.75,1137.4,1302.68,1123.19L1302.68,1123.19z"/>
	<path class="st4" d="M620.75,1154.31c2.86,24.77-6.24,61.19-21.45,101.82c-36,96.19-106.63,215.41-140.64,260.75
		c-1.39,1.85-1.01,4.48,0.84,5.86c1.85,1.39,4.48,1.01,5.86-0.84c34.28-45.71,105.49-165.88,141.78-262.84
		c15.78-42.15,24.89-80.01,21.92-105.71c-0.27-2.3-2.34-3.95-4.64-3.68C622.14,1149.93,620.49,1152.01,620.75,1154.31
		L620.75,1154.31z"/>
	<path class="st4" d="M1328.56,1445.41c84.4,49.79,170.9,53.55,229.44,53.57c34.65,0.01,102.76-17.18,153.89-12.31
		c32,3.05,57.26,14.82,61.04,47.12c0.27,2.29,2.35,3.94,4.65,3.67c2.3-0.27,3.94-2.35,3.67-4.65
		c-4.29-36.68-32.22-51.02-68.56-54.48c-51.39-4.89-119.86,12.28-154.68,12.27c-57.44-0.01-142.37-3.54-225.18-52.41
		c-1.99-1.17-4.56-0.51-5.73,1.48C1325.91,1441.67,1326.57,1444.24,1328.56,1445.41L1328.56,1445.41z"/>
	<path class="st4" d="M562.3,1348.16c44.02,55.77,137.21,126.83,206.04,157.97c2.11,0.95,4.59,0.02,5.54-2.09
		c0.95-2.1,0.02-4.59-2.09-5.54c-67.77-30.66-159.57-100.62-202.92-155.53c-1.43-1.81-4.07-2.12-5.88-0.69
		C561.18,1343.71,560.87,1346.34,562.3,1348.16L562.3,1348.16z"/>
	<path class="st4" d="M584.3,322.28c-21.74,41.8-33.4,95.1-35.88,146.97c-37.83,12.22-103.42,17.58-120.65,25.88
		c-35.94,17.34-65.36,41.55-82.42,44.52c15.18-60.05,47.88-120.02,85.73-172.79c38.44-11.67,78.13-4.85,98.9-24.12
		C542.21,331.36,567.65,314.62,584.3,322.28z"/>
	<path class="st4" d="M861.98,992.07c-12.51,21.64-28.96,35.93-48.46,37.42c-82.58,6.33-46.51-104.53-62.59-147.19
		c-15.73-41.72-113.77-151.04-26.36-178.48c9.58-3.01,21.28-4.85,33.66-4.9c27.95,21.81,54.16,53.2,74,98.9
		C854.69,849.53,858.61,920.59,861.98,992.07z"/>
	<path class="st4" d="M465.68,1213.04c-11.74,46.95-75.34,81.42-119.76,81.41c-9.98,0-19.04-0.9-27.28-2.6
		c-16.8-58.64-43.16-120.37-56.5-215.7v-0.01c8.49-9.78,17.3-18.81,23.84-29.1c45.9-72.13,145.54-79.47,171.62-34.81
		c22.17,37.95-25.78,66.92-23.91,101.64C435.41,1146.15,473.27,1182.7,465.68,1213.04z"/>
	<path class="st4" d="M978.73,1532.68c-3.28,13.61-14.05,24-25.92,32.19c-23.47-5.24-47.97-11.5-73.53-19.02
		c-29.09-8.58-60.83-21.28-90.94-34.91c-0.25-48.73-29.41-53.18-22.61-92.85c4.47-26.06,32.21-52.22,45.8-54.61
		c52.25-9.19,55.27,60.83,87.88,83.71C929.58,1468.39,996.04,1460.94,978.73,1532.68z"/>
</g>
</svg>
