<?xml version="1.0" encoding="utf-8"?>
<!-- Generator: Adobe Illustrator 26.4.1, SVG Export Plug-In . SVG Version: 6.00 Build 0)  -->
<svg version="1.1" id="Layer_1" xmlns="http://www.w3.org/2000/svg" xmlns:xlink="http://www.w3.org/1999/xlink" x="0px" y="0px"
	 viewBox="0 0 2000 2000" style="enable-background:new 0 0 2000 2000;" xml:space="preserve">
<style type="text/css">
	.st0{fill-rule:evenodd;clip-rule:evenodd;fill:#145468;}
	.st1{fill-rule:evenodd;clip-rule:evenodd;fill:#3B7A7A;}
	.st2{fill-rule:evenodd;clip-rule:evenodd;fill:#098B8D;}
	.st3{fill-rule:evenodd;clip-rule:evenodd;fill:#689595;}
	.st4{fill-rule:evenodd;clip-rule:evenodd;fill:#679595;}
	.st5{fill-rule:evenodd;clip-rule:evenodd;fill:#CEE4E4;}
	
		.st6{fill-rule:evenodd;clip-rule:evenodd;fill:#145468;stroke:#CEE4E4;stroke-width:5;stroke-linecap:round;stroke-linejoin:round;stroke-miterlimit:10;}
	.st7{fill-rule:evenodd;clip-rule:evenodd;fill:#043A60;}
	.st8{fill-rule:evenodd;clip-rule:evenodd;fill:#FD9A65;}
	.st9{fill-rule:evenodd;clip-rule:evenodd;fill:#18658D;}
	.st10{fill-rule:evenodd;clip-rule:evenodd;fill:#9FCDE5;}
	.st11{fill-rule:evenodd;clip-rule:evenodd;fill:#56A8D3;}
	.st12{fill-rule:evenodd;clip-rule:evenodd;fill:#276383;}
	.st13{fill-rule:evenodd;clip-rule:evenodd;fill:#E0F0F8;}
	.st14{fill-rule:evenodd;clip-rule:evenodd;fill:#A51E1C;}
	.st15{fill-rule:evenodd;clip-rule:evenodd;fill:#CB442D;}
	.st16{fill-rule:evenodd;clip-rule:evenodd;fill:#DC5A44;}
	.st17{fill-rule:evenodd;clip-rule:evenodd;fill:#F7BD54;}
	.st18{fill-rule:evenodd;clip-rule:evenodd;fill:#E46B37;}
	.st19{fill-rule:evenodd;clip-rule:evenodd;fill:#B67227;}
	.st20{fill-rule:evenodd;clip-rule:evenodd;fill:#D78A35;}
	.st21{fill-rule:evenodd;clip-rule:evenodd;fill:#A4331F;}
	.st22{fill-rule:evenodd;clip-rule:evenodd;fill:#F2A550;}
	.st23{fill-rule:evenodd;clip-rule:evenodd;fill:#F9E9D6;}
	.st24{fill-rule:evenodd;clip-rule:evenodd;fill:#844013;}
	.st25{fill-rule:evenodd;clip-rule:evenodd;fill:#A04E18;}
	.st26{fill-rule:evenodd;clip-rule:evenodd;fill:#F8B872;}
	.st27{fill-rule:evenodd;clip-rule:evenodd;fill:#FFC689;}
	.st28{fill-rule:evenodd;clip-rule:evenodd;fill:#B6844D;}
	.st29{fill-rule:evenodd;clip-rule:evenodd;fill:#CA5320;}
	.st30{fill-rule:evenodd;clip-rule:evenodd;fill:#D76332;}
	.st31{fill-rule:evenodd;clip-rule:evenodd;fill:#812F0C;}
	.st32{fill-rule:evenodd;clip-rule:evenodd;fill:#8A460F;}
	.st33{fill-rule:evenodd;clip-rule:evenodd;fill:#B46914;}
	.st34{fill-rule:evenodd;clip-rule:evenodd;fill:#B54515;}
	.st35{fill-rule:evenodd;clip-rule:evenodd;fill:#FFCD71;}
	.st36{fill-rule:evenodd;clip-rule:evenodd;fill:#95B41D;}
	.st37{fill-rule:evenodd;clip-rule:evenodd;fill:#A8C731;}
	.st38{fill-rule:evenodd;clip-rule:evenodd;fill:#85A214;}
	.st39{fill-rule:evenodd;clip-rule:evenodd;fill:#C6EF28;}
	.st40{fill-rule:evenodd;clip-rule:evenodd;fill:#ED982B;}
	.st41{fill-rule:evenodd;clip-rule:evenodd;fill:#FCCF7C;}
	.st42{fill-rule:evenodd;clip-rule:evenodd;fill:#FFE8BC;}
	.st43{fill-rule:evenodd;clip-rule:evenodd;fill:#ED6961;}
	.st44{fill-rule:evenodd;clip-rule:evenodd;fill:#696E1E;}
	.st45{fill-rule:evenodd;clip-rule:evenodd;fill:#9CA42A;}
	.st46{fill-rule:evenodd;clip-rule:evenodd;fill:#7F8615;}
	.st47{fill-rule:evenodd;clip-rule:evenodd;fill:#FFEECF;}
	.st48{fill-rule:evenodd;clip-rule:evenodd;fill:#77786D;}
	.st49{fill-rule:evenodd;clip-rule:evenodd;fill:#D3D5C6;}
	.st50{fill-rule:evenodd;clip-rule:evenodd;fill:#7C7A7A;}
	.st51{fill-rule:evenodd;clip-rule:evenodd;fill:#DBDCD9;}
	.st52{fill-rule:evenodd;clip-rule:evenodd;fill:#CA372D;}
	.st53{fill-rule:evenodd;clip-rule:evenodd;fill:#FE7D75;}
	.st54{fill-rule:evenodd;clip-rule:evenodd;fill:#B0B0B0;}
	.st55{fill-rule:evenodd;clip-rule:evenodd;fill:#888787;}
	.st56{fill-rule:evenodd;clip-rule:evenodd;fill:#6E6E6E;}
	.st57{fill-rule:evenodd;clip-rule:evenodd;fill:#757575;}
	.st58{fill-rule:evenodd;clip-rule:evenodd;fill:#60341E;}
	.st59{fill-rule:evenodd;clip-rule:evenodd;fill:#B0451B;}
	.st60{fill-rule:evenodd;clip-rule:evenodd;fill:#8A4727;}
	.st61{fill-rule:evenodd;clip-rule:evenodd;fill:#FABB64;}
	.st62{fill-rule:evenodd;clip-rule:evenodd;fill:#3E88AF;}
	.st63{fill-rule:evenodd;clip-rule:evenodd;fill:#5BA0C5;}
	.st64{fill-rule:evenodd;clip-rule:evenodd;fill:#FFF1DE;}
	.st65{fill-rule:evenodd;clip-rule:evenodd;fill:#F8B89B;}
	.st66{fill-rule:evenodd;clip-rule:evenodd;fill:#E98A5F;}
	.st67{fill-rule:evenodd;clip-rule:evenodd;fill:#FFCAB3;}
	.st68{fill-rule:evenodd;clip-rule:evenodd;fill:#F9A580;}
	.st69{fill-rule:evenodd;clip-rule:evenodd;fill:#FFDFD2;}
	.st70{fill-rule:evenodd;clip-rule:evenodd;fill:#E2A85C;}
	.st71{fill-rule:evenodd;clip-rule:evenodd;fill:#C68446;}
	.st72{fill-rule:evenodd;clip-rule:evenodd;fill:#F2BC75;}
	.st73{fill-rule:evenodd;clip-rule:evenodd;fill:#F2BC76;}
	.st74{fill-rule:evenodd;clip-rule:evenodd;fill:#FFD69F;}
	.st75{fill-rule:evenodd;clip-rule:evenodd;fill:#E7624B;}
	.st76{fill-rule:evenodd;clip-rule:evenodd;fill:#FFEED9;}
	.st77{fill-rule:evenodd;clip-rule:evenodd;fill:#C26E11;}
	.st78{fill-rule:evenodd;clip-rule:evenodd;fill:#F39226;}
	.st79{fill-rule:evenodd;clip-rule:evenodd;fill:#DF5020;}
	.st80{fill-rule:evenodd;clip-rule:evenodd;fill:#2C140B;}
	.st81{fill-rule:evenodd;clip-rule:evenodd;fill:#FFFFFF;}
	.st82{fill-rule:evenodd;clip-rule:evenodd;}
	.st83{fill-rule:evenodd;clip-rule:evenodd;fill:#A96F3E;}
	.st84{fill-rule:evenodd;clip-rule:evenodd;fill:#683A15;}
	.st85{fill-rule:evenodd;clip-rule:evenodd;fill:#F0DCCB;}
	.st86{fill-rule:evenodd;clip-rule:evenodd;fill:#E6D1B6;}
	.st87{fill-rule:evenodd;clip-rule:evenodd;fill:#69553C;}
</style>
<g>
	<path class="st26" d="M641.91,1023.19c75.69-41.76,518.13-296.46,523.86-304.66c20.12-28.75-60.35-90.65-25.53-209.44
		c33.27-113.52,218.49-129.72,266.25-107.38c87.13,40.77,113.61,88.58,96.58,157.68c-10.66,43.27-14.57,68.26,3.06,86.67
		c36.16,37.76,98.83,24.69,140.67,98.75c32.58,57.66,26.69,160.71-28.87,230.77c-51.65,65.13-149.34,119.46-254.07,53.06
		c-81.64-51.76-71.37-128.83-116.42-100.44c-72.32,45.59-436.47,268.54-444.13,296.28c-10.79,39.07,31.96,52.91,51.72,109.71
		c31.47,90.48-1.06,189.47-105.05,233.91c-61.52,26.3-225.07,12.1-253.15-69.66c-36.32-105.74,10.48-130.29-12.74-160.52
		c-34.1-44.39-77.83,7.41-150.59-53.06c-77.97-64.79-63.48-154.58-34.77-210.14c41.07-79.47,119.08-139.68,224.95-106.48
		C591.26,989.43,631.42,1028.98,641.91,1023.19L641.91,1023.19z"/>
	<path class="st27" d="M323.29,1216.84c-33.68-60.35-13.51-197.96,125.7-229.95c107.5-24.71,140.92,90.6,200,65.55
		c79.42-33.67,256.81-156.92,372.38-212.85c78.92-38.19,127.65-72.7,175.69-108.17c35.85-26.47-24.28-87.58-33.58-150.04
		c-7.24-48.58,4.69-110.64,96.89-143.92c52.45-18.94,144.4-32.97,181.2,9.19c53.09,60.81,55.16,113.82,14.97,144.13
		c-23.77,17.93-77.84,14.32-102.82,36.59c-30.16,26.9-58.84,76.26-72.47,116.35c-17.03,50.11-89.71,78.83-133.93,105.1
		c-150.78,89.56-286.27,181.97-447.42,264.89c-41.32,21.26-69.06,87.84-116.17,98.92c-52.68,12.39-81.28,68.01-139.13,58.36
		C401.78,1263.86,349.59,1263.96,323.29,1216.84L323.29,1216.84z"/>
	<path class="st27" d="M519.96,1352.62c-23,59.19-30.34,167.77,69.61,188.11c70.44,14.33,125.14,30.44,175.36-8.29
		c14.83-11.44,83.61-101.76,77.47-141.85c-13.83-90.17-90.86-140.04-82.89-192.35c6.42-42.12-85.33-8.47-155.12,47.45
		C568.52,1274.42,536.4,1310.28,519.96,1352.62L519.96,1352.62z"/>
	<path class="st27" d="M1298.3,892.57c51.8,13.28,7.17,153.71,156.29,126.22c56.84-10.49,51.84,9.54,106.74-27.77
		c31.09-21.12,37.62-38.65,51.42-70.27c34.79-79.72,32.18-190.06-57.71-225.88c-59.39-23.67-74.84,47.57-117.79,41.15
		c-21.49-3.2-13.63-30.36-42.99-40.59c-26.89-9.36-67.56,22.82-79.7,36.37C1270.18,781.35,1215.82,871.43,1298.3,892.57
		L1298.3,892.57z"/>
	<path class="st28" d="M448.68,947.68c-78.9,10.56-146.91,80.49-172.43,141.16c-33.24,79,2.95,186.47,79.28,223.91
		c29.63,14.53,59.72,14.81,87,16.26c20.21,1.07,38.73,2.39,53.05,15.17c9.54,8.51,16.96,21.97,22.37,42.86
		c1.71,6.57,8.43,10.53,15,8.82c6.58-1.7,10.54-8.43,8.83-15c-7.31-28.23-18.37-45.51-31.47-56.49
		c-13.44-11.27-29.28-16.13-46.84-18.33c-29.06-3.64-63.49,1.09-97.09-15.38c-65.48-32.12-95.95-124.51-67.44-192.27
		c22.72-54.01,82.77-116.9,153.01-126.3c6.74-0.91,11.47-7.1,10.57-13.84C461.61,951.52,455.41,946.79,448.68,947.68L448.68,947.68z
		"/>
	<path class="st28" d="M357.13,1074.13c-22.84,20.67-32.41,55.65-27.93,88.88c4.51,33.46,23.08,64.64,54.32,77.72
		c6.26,2.63,13.48-0.33,16.1-6.6c2.63-6.27-0.33-13.48-6.59-16.11c-23.18-9.71-36.09-33.47-39.43-58.3
		c-3.38-25.06,2.83-51.75,20.05-67.34c5.04-4.56,5.43-12.35,0.87-17.39C369.96,1069.97,362.17,1069.58,357.13,1074.13
		L357.13,1074.13z"/>
	<path class="st28" d="M389.36,1105.94c-12.56,14.04-13,32.44-6.6,50.02c5.75,15.81,17,30.75,26.58,39.48
		c5.11,4.66,9.99,7.67,13.63,8.97c6.39,2.29,13.45-1.05,15.73-7.45c2.29-6.39-1.05-13.45-7.45-15.73c-1.73-0.62-3.84-2.53-6.31-4.9
		c-5.28-5.06-11.07-12.43-15.39-20.62c-5.87-11.11-10.15-24.06-1.84-33.36c4.53-5.06,4.1-12.85-0.97-17.38
		C401.68,1100.45,393.89,1100.88,389.36,1105.94L389.36,1105.94z"/>
	<path class="st28" d="M601.78,1579.78c99.95,16.69,189.66-6.86,230.85-64.98c20.98-29.6,35.73-57.26,40.64-89.27
		c7.24-47.14-6.93-104.39-57.75-192.81c-0.87-1.51,0.1-3.26,0.99-5.34c2.23-5.22,6.6-10.97,12.43-17.24
		c31.93-34.35,104.88-79.41,170.62-112.38c6.08-3.05,8.53-10.45,5.49-16.52c-3.04-6.07-10.45-8.53-16.52-5.49
		c-68.55,34.38-144.32,81.81-177.62,117.63c-10.03,10.79-16.44,20.91-18.87,29.46c-2.38,8.35-1.52,15.78,2.14,22.15
		c46.73,81.32,61.41,133.47,54.76,176.81c-4.35,28.32-17.83,52.58-36.39,78.77c-36.73,51.83-117.56,69.81-206.71,54.93
		c-6.7-1.12-13.05,3.41-14.17,10.11C590.54,1572.31,595.08,1578.66,601.78,1579.78L601.78,1579.78z"/>
	<path class="st28" d="M773.8,1304.19c-12.46-21.9-18.59-42.03-16.91-60.8c1.62-18.16,10.75-34.76,27.5-50.32
		c4.98-4.62,5.26-12.42,0.64-17.4c-4.62-4.98-12.42-5.26-17.4-0.64c-21.89,20.34-33.13,42.41-35.26,66.15
		c-2.07,23.14,4.67,48.17,20.03,75.17c3.36,5.91,10.88,7.97,16.78,4.61C775.09,1317.62,777.16,1310.1,773.8,1304.19L773.8,1304.19z"
		/>
	<path class="st28" d="M1030.01,1012.25c48.28-30.31,126.49-75.12,175.65-104.21c5.84-3.46,7.78-11.01,4.32-16.86
		c-3.46-5.84-11.01-7.78-16.86-4.32c-49.32,29.18-127.77,74.14-176.2,104.55c-5.75,3.61-7.49,11.21-3.88,16.96
		C1016.65,1014.12,1024.25,1015.85,1030.01,1012.25L1030.01,1012.25z"/>
	<path class="st28" d="M1103.25,1025.75c39.74-26.71,84.69-55.45,126.11-77.87c5.98-3.23,8.21-10.71,4.97-16.68
		c-3.23-5.97-10.7-8.2-16.68-4.97c-42.09,22.77-87.76,51.95-128.13,79.09c-5.64,3.79-7.14,11.44-3.35,17.08
		C1089.96,1028.05,1097.61,1029.55,1103.25,1025.75L1103.25,1025.75z"/>
	<path class="st28" d="M1147.66,762.22c30.81-22.42,34.94-51.26,28.55-84.5c-4.15-21.59-13.03-45.24-20.28-69.97
		c-6.7-22.85-12.04-46.71-9.7-70.78c3.45-35.59,23.19-65.15,50.61-87.53c42.53-34.71,103.51-52.38,154.6-47.9
		c93.7,8.21,141.95,48.74,140.5,109.21c-0.79,33.1-14.71,71.05-16.26,105.11c-0.9,19.62,2.04,38.05,11.89,54.17
		c9.76,15.95,26.39,29.9,54.05,39.88c6.39,2.3,13.45-1.01,15.76-7.4c2.3-6.39-1.01-13.45-7.4-15.75
		c-20.16-7.27-33.02-16.74-40.56-28.23c-11.45-17.45-10.53-38.83-7.08-61.1c4.48-28.81,13.55-59.05,14.21-86.09
		c1.71-71.77-51.77-124.58-162.97-134.32c-56.94-4.99-124.91,14.67-172.31,53.36c-32.55,26.56-55.44,61.97-59.55,104.22
		c-4.3,44.32,13.9,88.16,25.16,127c9.27,32,14.33,60.32-13.71,80.72c-5.5,4-6.71,11.7-2.71,17.19
		C1134.46,765,1142.16,766.22,1147.66,762.22L1147.66,762.22z"/>
	<path class="st28" d="M1322.24,464.47c60.18-29.26,111.32,20.83,119.08,67.86c1.11,6.7,7.45,11.25,14.16,10.14
		c6.7-1.11,11.24-7.44,10.13-14.15c-10-60.57-76.64-123.68-154.13-85.99c-6.11,2.97-8.66,10.34-5.69,16.45
		C1308.76,464.9,1316.13,467.45,1322.24,464.47L1322.24,464.47z"/>
	<path class="st28" d="M1302.48,954.2c24.37,124.05,172.45,144.13,256.95,81.37c5.45-4.06,6.59-11.77,2.54-17.23
		c-4.05-5.45-11.77-6.59-17.22-2.54c-71.47,53.09-197.5,38.58-218.12-66.35c-1.31-6.66-7.78-11.01-14.45-9.7
		C1305.52,941.06,1301.18,947.54,1302.48,954.2L1302.48,954.2z"/>
	<path class="st28" d="M1401.07,1002.29c21.57,18.43,48.24,22.02,74.33,16.41c36.88-7.91,72.26-34.64,87.78-59.49
		c3.59-5.77,1.84-13.36-3.92-16.96c-5.76-3.6-13.36-1.84-16.96,3.92c-10.6,16.99-32.71,34.78-57.24,44.06
		c-23,8.69-48.47,10.03-67.99-6.65c-5.16-4.41-12.94-3.8-17.35,1.36C1395.3,990.1,1395.91,997.88,1401.07,1002.29L1401.07,1002.29z"
		/>
	<path class="st28" d="M1566.89,771.8c15.28,11.67,23.29,33.49,25.79,55.67c2.55,22.62-0.67,45.98-10.07,60.53
		c-3.69,5.71-2.05,13.33,3.67,17.01c5.71,3.69,13.33,2.05,17.02-3.66c11.93-18.48,17.09-47.94,13.85-76.65
		c-3.29-29.14-15.24-57.14-35.31-72.48c-5.4-4.12-13.13-3.09-17.25,2.31C1560.45,759.94,1561.49,767.68,1566.89,771.8L1566.89,771.8
		z"/>
	<path class="st28" d="M1617.9,738.01c33.49,54.95,25.4,129.89,10.57,176.76c-2.04,6.48,1.55,13.4,8.03,15.45
		c6.48,2.05,13.4-1.55,15.45-8.02c16.53-52.26,24.31-135.74-13.02-197c-3.53-5.8-11.12-7.64-16.92-4.11
		C1616.2,724.63,1614.36,732.21,1617.9,738.01L1617.9,738.01z"/>
	<path class="st28" d="M731.75,1007.61c48.1-34.07,104.92-57.05,153.98-88.2c5.74-3.64,7.44-11.25,3.8-16.99
		c-3.65-5.74-11.26-7.44-16.99-3.8c-49.4,31.37-106.57,54.59-155.02,88.89c-5.54,3.93-6.86,11.62-2.93,17.16
		C718.52,1010.23,726.21,1011.53,731.75,1007.61L731.75,1007.61z"/>
	<path class="st28" d="M959.06,931.65c8.06-4.57,18.32-1.73,22.89,6.33c4.57,8.07,1.73,18.32-6.33,22.89
		c-8.06,4.57-18.32,1.73-22.89-6.33C948.16,946.47,951,936.22,959.06,931.65L959.06,931.65z"/>
	<path class="st28" d="M568.44,1062.48c11.66-6.61,26.49-2.51,33.1,9.16s2.51,26.49-9.16,33.1c-11.66,6.61-26.49,2.51-33.1-9.16
		S556.78,1069.09,568.44,1062.48L568.44,1062.48z"/>
	<path class="st28" d="M521.77,1154.49c9.16-5.19,20.8-1.96,25.99,7.19c5.19,9.15,1.97,20.8-7.19,25.99
		c-9.15,5.19-20.8,1.97-25.99-7.19C509.39,1171.32,512.61,1159.67,521.77,1154.49L521.77,1154.49z"/>
	<path class="st28" d="M490.08,1056.19c14.88-8.43,33.81-3.2,42.24,11.68c8.43,14.88,3.2,33.81-11.68,42.24
		c-14.88,8.43-33.81,3.2-42.24-11.68C469.96,1083.55,475.19,1064.63,490.08,1056.19L490.08,1056.19z"/>
	<path class="st28" d="M1018.75,847.9c9.89-5.61,22.48-2.13,28.08,7.77c5.61,9.89,2.13,22.48-7.77,28.08
		c-9.89,5.61-22.48,2.13-28.09-7.77C1005.37,866.09,1008.85,853.51,1018.75,847.9L1018.75,847.9z"/>
	<path class="st28" d="M872.13,993.53c9.89-5.61,22.48-2.12,28.08,7.77s2.13,22.48-7.77,28.08c-9.9,5.61-22.48,2.13-28.08-7.77
		C858.76,1011.72,862.24,999.13,872.13,993.53L872.13,993.53z"/>
	<path class="st28" d="M1026.25,919.64c6.6-3.74,15-1.42,18.73,5.18c3.74,6.6,1.42,15-5.18,18.73c-6.6,3.74-15,1.42-18.73-5.18
		C1017.33,931.78,1019.65,923.38,1026.25,919.64L1026.25,919.64z"/>
	<path class="st28" d="M670.35,1376.44c12.61-7.14,28.64-2.71,35.78,9.89s2.71,28.64-9.9,35.78c-12.61,7.14-28.63,2.7-35.78-9.9
		C653.32,1399.61,657.75,1383.58,670.35,1376.44L670.35,1376.44z"/>
	<path class="st28" d="M585.17,1463.52c8.51-4.82,19.34-1.83,24.16,6.68s1.83,19.34-6.68,24.16c-8.51,4.82-19.34,1.83-24.16-6.68
		S576.65,1468.34,585.17,1463.52L585.17,1463.52z"/>
	<path class="st28" d="M672.9,1451.97c8.51-4.82,19.33-1.83,24.16,6.69s1.83,19.33-6.68,24.16c-8.51,4.82-19.34,1.83-24.16-6.68
		C661.39,1467.62,664.39,1456.79,672.9,1451.97L672.9,1451.97z"/>
	<path class="st28" d="M1323.14,502.4c13.34-7.56,30.31-2.87,37.87,10.47c7.56,13.34,2.87,30.31-10.48,37.87
		s-30.31,2.87-37.87-10.48C1305.1,526.93,1309.8,509.96,1323.14,502.4L1323.14,502.4z"/>
	<path class="st28" d="M1221.67,550.65c10.85-6.15,24.65-2.33,30.8,8.52c6.15,10.85,2.33,24.65-8.52,30.8
		c-10.85,6.15-24.65,2.33-30.8-8.52C1207,570.59,1210.82,556.79,1221.67,550.65L1221.67,550.65z"/>
	<path class="st28" d="M1280.49,586.75c7.98-4.52,18.12-1.71,22.64,6.26c4.52,7.98,1.72,18.13-6.26,22.65
		c-7.98,4.52-18.13,1.72-22.65-6.26C1269.7,601.42,1272.51,591.27,1280.49,586.75L1280.49,586.75z"/>
	<path class="st28" d="M1246.23,475.92c11.75-6.66,26.69-2.52,33.34,9.22c6.66,11.75,2.52,26.68-9.23,33.34
		c-11.75,6.66-26.68,2.53-33.34-9.22S1234.49,482.58,1246.23,475.92L1246.23,475.92z"/>
	<path class="st28" d="M1277.72,537.91c7.08-4.01,16.08-1.51,20.09,5.56c4.01,7.07,1.52,16.08-5.56,20.09
		c-7.08,4.01-16.08,1.52-20.09-5.56C1268.15,550.93,1270.64,541.92,1277.72,537.91L1277.72,537.91z"/>
	<path class="st28" d="M1402.55,902.73c12.71-7.2,28.88-2.73,36.08,9.98c7.2,12.71,2.73,28.88-9.98,36.08
		c-12.71,7.2-28.88,2.73-36.08-9.98C1385.36,926.1,1389.84,909.93,1402.55,902.73L1402.55,902.73z"/>
	<path class="st28" d="M1493.05,818.67c10.51-5.96,23.88-2.26,29.84,8.26c5.95,10.51,2.26,23.88-8.25,29.83
		c-10.51,5.95-23.87,2.26-29.83-8.25C1478.84,837.99,1482.54,824.62,1493.05,818.67L1493.05,818.67z"/>
	<path class="st28" d="M1471.82,893.42c8.56-4.85,19.45-1.83,24.3,6.72c4.85,8.56,1.84,19.45-6.72,24.3
		c-8.55,4.85-19.45,1.84-24.3-6.72C1460.25,909.17,1463.26,898.27,1471.82,893.42L1471.82,893.42z"/>
	<path class="st28" d="M1423.49,824.7c11.71-6.64,26.61-2.52,33.25,9.2c6.64,11.71,2.52,26.61-9.2,33.25
		c-11.71,6.64-26.61,2.52-33.25-9.2C1407.65,846.23,1411.78,831.33,1423.49,824.7L1423.49,824.7z"/>
	<path class="st28" d="M1527.45,876.51c6.44-3.65,14.63-1.39,18.28,5.05c3.65,6.44,1.38,14.64-5.06,18.29
		c-6.44,3.65-14.64,1.38-18.29-5.06C1518.74,888.35,1521.01,880.16,1527.45,876.51L1527.45,876.51z"/>
</g>
</svg>
