<?xml version="1.0" encoding="utf-8"?>
<!-- Generator: Adobe Illustrator 26.4.1, SVG Export Plug-In . SVG Version: 6.00 Build 0)  -->
<svg version="1.1" id="Layer_1" xmlns="http://www.w3.org/2000/svg" xmlns:xlink="http://www.w3.org/1999/xlink" x="0px" y="0px"
	 viewBox="0 0 2000 2000" style="enable-background:new 0 0 2000 2000;" xml:space="preserve">
<style type="text/css">
	.st0{fill-rule:evenodd;clip-rule:evenodd;fill:#F49E23;}
	.st1{fill-rule:evenodd;clip-rule:evenodd;fill:#D14D36;}
	.st2{fill-rule:evenodd;clip-rule:evenodd;fill:#FDF0D3;}
	.st3{fill-rule:evenodd;clip-rule:evenodd;fill:#0C427E;}
	.st4{fill-rule:evenodd;clip-rule:evenodd;fill:#B45A25;}
	.st5{fill-rule:evenodd;clip-rule:evenodd;fill:#EC8C28;}
	.st6{fill-rule:evenodd;clip-rule:evenodd;fill:#EE9726;}
	.st7{fill-rule:evenodd;clip-rule:evenodd;fill:#302574;}
	.st8{fill-rule:evenodd;clip-rule:evenodd;fill:#F3B953;}
	.st9{fill-rule:evenodd;clip-rule:evenodd;fill:#3D648F;}
	.st10{fill-rule:evenodd;clip-rule:evenodd;fill:#145468;}
	.st11{fill-rule:evenodd;clip-rule:evenodd;fill:#3B7A7A;}
	.st12{fill-rule:evenodd;clip-rule:evenodd;fill:#098B8D;}
	.st13{fill-rule:evenodd;clip-rule:evenodd;fill:#689595;}
	.st14{fill-rule:evenodd;clip-rule:evenodd;fill:#679595;}
	.st15{fill-rule:evenodd;clip-rule:evenodd;fill:#CEE4E4;}
	
		.st16{fill-rule:evenodd;clip-rule:evenodd;fill:#145468;stroke:#CEE4E4;stroke-width:5;stroke-linecap:round;stroke-linejoin:round;stroke-miterlimit:10;}
	.st17{fill-rule:evenodd;clip-rule:evenodd;fill:#043A60;}
	.st18{fill-rule:evenodd;clip-rule:evenodd;fill:#FD9A65;}
	.st19{fill-rule:evenodd;clip-rule:evenodd;fill:#18658D;}
	.st20{fill-rule:evenodd;clip-rule:evenodd;fill:#9FCDE5;}
	.st21{fill-rule:evenodd;clip-rule:evenodd;fill:#56A8D3;}
	.st22{fill-rule:evenodd;clip-rule:evenodd;fill:#276383;}
	.st23{fill-rule:evenodd;clip-rule:evenodd;fill:#E0F0F8;}
	.st24{fill-rule:evenodd;clip-rule:evenodd;fill:#A51E1C;}
	.st25{fill-rule:evenodd;clip-rule:evenodd;fill:#CB442D;}
	.st26{fill-rule:evenodd;clip-rule:evenodd;fill:#DC5A44;}
	.st27{fill-rule:evenodd;clip-rule:evenodd;fill:#F7BD54;}
	.st28{fill-rule:evenodd;clip-rule:evenodd;fill:#E46B37;}
	.st29{fill-rule:evenodd;clip-rule:evenodd;fill:#B67227;}
	.st30{fill-rule:evenodd;clip-rule:evenodd;fill:#D78A35;}
	.st31{fill-rule:evenodd;clip-rule:evenodd;fill:#A4331F;}
	.st32{fill-rule:evenodd;clip-rule:evenodd;fill:#F2A550;}
	.st33{fill-rule:evenodd;clip-rule:evenodd;fill:#F9E9D6;}
	.st34{fill-rule:evenodd;clip-rule:evenodd;fill:#844013;}
	.st35{fill-rule:evenodd;clip-rule:evenodd;fill:#A04E18;}
	.st36{fill-rule:evenodd;clip-rule:evenodd;fill:#F8B872;}
	.st37{fill-rule:evenodd;clip-rule:evenodd;fill:#FFC689;}
	.st38{fill-rule:evenodd;clip-rule:evenodd;fill:#B6844D;}
	.st39{fill-rule:evenodd;clip-rule:evenodd;fill:#CA5320;}
	.st40{fill-rule:evenodd;clip-rule:evenodd;fill:#D76332;}
	.st41{fill-rule:evenodd;clip-rule:evenodd;fill:#812F0C;}
	.st42{fill-rule:evenodd;clip-rule:evenodd;fill:#8A460F;}
	.st43{fill-rule:evenodd;clip-rule:evenodd;fill:#B46914;}
	.st44{fill-rule:evenodd;clip-rule:evenodd;fill:#B54515;}
	.st45{fill-rule:evenodd;clip-rule:evenodd;fill:#FFCD71;}
	.st46{fill-rule:evenodd;clip-rule:evenodd;fill:#95B41D;}
	.st47{fill-rule:evenodd;clip-rule:evenodd;fill:#A8C731;}
	.st48{fill-rule:evenodd;clip-rule:evenodd;fill:#85A214;}
	.st49{fill-rule:evenodd;clip-rule:evenodd;fill:#C6EF28;}
	.st50{fill-rule:evenodd;clip-rule:evenodd;fill:#ED982B;}
	.st51{fill-rule:evenodd;clip-rule:evenodd;fill:#FCCF7C;}
	.st52{fill-rule:evenodd;clip-rule:evenodd;fill:#FFE8BC;}
	.st53{fill-rule:evenodd;clip-rule:evenodd;fill:#ED6961;}
	.st54{fill-rule:evenodd;clip-rule:evenodd;fill:#696E1E;}
	.st55{fill-rule:evenodd;clip-rule:evenodd;fill:#9CA42A;}
	.st56{fill-rule:evenodd;clip-rule:evenodd;fill:#7F8615;}
	.st57{fill-rule:evenodd;clip-rule:evenodd;fill:#FFEECF;}
	.st58{fill-rule:evenodd;clip-rule:evenodd;fill:#77786D;}
	.st59{fill-rule:evenodd;clip-rule:evenodd;fill:#D3D5C6;}
	.st60{fill-rule:evenodd;clip-rule:evenodd;fill:#7C7A7A;}
	.st61{fill-rule:evenodd;clip-rule:evenodd;fill:#DBDCD9;}
	.st62{fill-rule:evenodd;clip-rule:evenodd;fill:#CA372D;}
	.st63{fill-rule:evenodd;clip-rule:evenodd;fill:#FE7D75;}
	.st64{fill-rule:evenodd;clip-rule:evenodd;fill:#B0B0B0;}
	.st65{fill-rule:evenodd;clip-rule:evenodd;fill:#888787;}
	.st66{fill-rule:evenodd;clip-rule:evenodd;fill:#6E6E6E;}
	.st67{fill-rule:evenodd;clip-rule:evenodd;fill:#757575;}
	.st68{fill-rule:evenodd;clip-rule:evenodd;fill:#60341E;}
	.st69{fill-rule:evenodd;clip-rule:evenodd;fill:#B0451B;}
	.st70{fill-rule:evenodd;clip-rule:evenodd;fill:#8A4727;}
	.st71{fill-rule:evenodd;clip-rule:evenodd;fill:#FABB64;}
	.st72{fill-rule:evenodd;clip-rule:evenodd;fill:#3E88AF;}
	.st73{fill-rule:evenodd;clip-rule:evenodd;fill:#5BA0C5;}
	.st74{fill-rule:evenodd;clip-rule:evenodd;fill:#FFF1DE;}
	.st75{fill-rule:evenodd;clip-rule:evenodd;fill:#F8B89B;}
	.st76{fill-rule:evenodd;clip-rule:evenodd;fill:#E98A5F;}
	.st77{fill-rule:evenodd;clip-rule:evenodd;fill:#FFCAB3;}
	.st78{fill-rule:evenodd;clip-rule:evenodd;fill:#F9A580;}
	.st79{fill-rule:evenodd;clip-rule:evenodd;fill:#FFDFD2;}
	.st80{fill-rule:evenodd;clip-rule:evenodd;fill:#E2A85C;}
	.st81{fill-rule:evenodd;clip-rule:evenodd;fill:#C68446;}
	.st82{fill-rule:evenodd;clip-rule:evenodd;fill:#F2BC75;}
	.st83{fill-rule:evenodd;clip-rule:evenodd;fill:#F2BC76;}
	.st84{fill-rule:evenodd;clip-rule:evenodd;fill:#FFD69F;}
	.st85{fill-rule:evenodd;clip-rule:evenodd;fill:#E7624B;}
	.st86{fill-rule:evenodd;clip-rule:evenodd;fill:#F6E8DB;}
	.st87{fill-rule:evenodd;clip-rule:evenodd;fill:#FC9EB6;}
	.st88{fill-rule:evenodd;clip-rule:evenodd;fill:#FFFFFF;}
</style>
<g>
	<path class="st46" d="M626.64,1037.8c-49.08,62.17-125.09,102.11-210.36,102.11c-147.83,0-267.85-120.02-267.85-267.86
		c0-147.83,120.02-267.85,267.85-267.85c147.83,0,267.86,120.02,267.86,267.85c0,0.81,0,1.63-0.01,2.42l624.51,168.6
		c45.48-83.16,133.79-139.61,235.17-139.61c147.83,0,267.85,120.02,267.85,267.85s-120.02,267.85-267.85,267.85
		c-133.61,0-244.51-98.04-264.6-226.03L626.64,1037.8L626.64,1037.8z"/>
	<path class="st47" d="M624.68,759.82c17.68-25.83-72.26-110.26-135.06-127.38c-152.18-41.48-268.53,62.47-294.54,142.37
		c-23.65,72.65-15.14,163.47,16.54,186.45c48.95,35.5,82.71-4.54,126.86-87.88c24.24-45.74,76.07-63.68,119.39-75.65
		C541.01,774.75,610.67,780.29,624.68,759.82L624.68,759.82z"/>
	<path class="st48" d="M602.44,906.93c-64.51,67.01-97.72,117.15-211.98,135.54c-70.85,11.4-180.28-34.76-178.18-26.8
		c8.42,32.03,58.66,69.01,132.79,95.1c56.44,19.86,130.19,12.71,182.13-17.79C600.27,1050.06,649.43,991,659.92,906.4
		C667.94,841.76,637.57,870.43,602.44,906.93L602.44,906.93z"/>
	<path class="st48" d="M1773.02,1067.77c-8.55-16.13-9.81,38.29-24.91,75.89c-47.49,118.24-83.78,190.27-223.01,227.17
		c-73.59,19.5-105.6,7.44-109.94,19.87c-4.24,12.15,93.89,43.85,151.1,32.38c83.04-16.64,132.52-33.15,187.42-107.38
		C1804.08,1247.56,1809.28,1136.25,1773.02,1067.77L1773.02,1067.77z"/>
	<path class="st47" d="M1700.31,978.43c-25.78-19.53-73.65-53.79-133.4-56.68c-120.28-5.8-226.45,79.22-237.98,155.52
		c-10.79,71.46,28.76,153.7,73.93,150.79c71.6-4.61,99.85-44.44,156.64-104.26c51.37-54.12,121.83-43.58,168.98-62.05
		C1757.99,1050.2,1733.01,1003.19,1700.31,978.43L1700.31,978.43z"/>
	<path class="st46" d="M379.09,622.82c-38.51,13.17-75.27,23.07-118.14,42.96c-18.08,8.39,9.61-130.71,28.46-133.77
		C314.97,527.86,384.64,620.93,379.09,622.82L379.09,622.82z"/>
	<path class="st47" d="M270.1,643.34c-2.89-15.27,1.46-55.8,4.95-68.86c1.19-4.48,11-34.14,16.63-36.09
		c11.07-3.83,19.31,31.19,16.63,43.82c-2.59,12.22-6.83,24.54-13.2,34.73C288.74,627.13,271.43,650.39,270.1,643.34L270.1,643.34z"
		/>
	<path class="st46" d="M524.11,790.23c-32.04,25.1-63.5,46.53-97.46,79.4c-14.32,13.86-33.88-126.6-17.08-135.7
		C432.34,721.61,528.72,786.61,524.11,790.23L524.11,790.23z"/>
	<path class="st47" d="M427.91,845.42c-7.74-13.47-16.96-53.18-17.96-66.66c-0.34-4.62-0.83-35.86,3.84-39.55
		c9.2-7.26,28.49,23.11,30.11,35.92c1.57,12.39,1.61,25.42-1.05,37.14C440.19,823.98,431.49,851.64,427.91,845.42L427.91,845.42z"/>
	<path class="st46" d="M593.58,903.63c-12.61-38.7-21.98-75.59-41.24-118.75c-8.13-18.2,130.55,11.51,133.35,30.4
		C689.46,840.9,595.39,909.21,593.58,903.63L593.58,903.63z"/>
	<path class="st47" d="M574.65,794.36c15.31-2.67,55.77,2.27,68.77,5.95c4.46,1.26,33.98,11.5,35.85,17.16
		c3.67,11.12-31.47,18.86-44.06,15.99c-12.17-2.77-24.44-7.19-34.53-13.71C590.59,813.23,567.58,795.59,574.65,794.36L574.65,794.36
		z"/>
	<path class="st46" d="M1625.34,922.32c-40.4-4.94-77.79-12.07-125.05-12.86c-19.93-0.34,65.66-113.43,83.96-107.97
		C1609.06,808.89,1631.16,923.03,1625.34,922.32L1625.34,922.32z"/>
	<path class="st47" d="M1518.32,893.24c4.06-15,25.65-49.58,34.48-59.81c3.03-3.51,24.8-25.92,30.71-25.22
		c11.63,1.38,3.78,36.49-4.15,46.69c-7.66,9.86-16.85,19.1-27.03,25.49C1542.16,886.78,1516.44,900.17,1518.32,893.24
		L1518.32,893.24z"/>
	<path class="st46" d="M1781.49,1061.56c-24.18-32.74-44.71-64.79-76.61-99.67c-13.45-14.7,127.51-30.28,136.12-13.23
		C1852.68,971.77,1784.97,1066.28,1781.49,1061.56L1781.49,1061.56z"/>
	<path class="st47" d="M1729.04,963.84c13.69-7.36,53.64-15.44,67.14-16.06c4.63-0.21,35.87,0.19,39.43,4.96
		c6.99,9.4-23.91,27.82-36.77,29.08c-12.43,1.22-25.46,0.89-37.09-2.11C1750.12,976.72,1722.72,967.23,1729.04,963.84
		L1729.04,963.84z"/>
	<path class="st46" d="M1754.17,1334.87c17.79-36.61,36.66-69.67,52.76-114.1c6.79-18.74,85.98,98.92,74.87,114.46
		C1866.73,1356.28,1751.6,1340.14,1754.17,1334.87L1754.17,1334.87z"/>
	<path class="st47" d="M1816.41,1243.08c12.87,8.71,38.56,40.35,45.37,52.03c2.34,4.01,16.47,31.87,13.89,37.23
		c-5.08,10.56-35.74-8.27-42.82-19.08c-6.84-10.45-12.6-22.14-15.34-33.84C1814.78,1267.72,1810.47,1239.05,1816.41,1243.08
		L1816.41,1243.08z"/>
	<path class="st46" d="M1514.28,1436.42c40.37-5.15,78.37-7.44,124.37-18.29c19.4-4.57-35.74,126.09-54.82,125.3
		C1557.95,1542.36,1508.46,1437.16,1514.28,1436.42L1514.28,1436.42z"/>
	<path class="st47" d="M1625.16,1438.28c-0.25,15.54-12.67,54.36-18.71,66.45c-2.07,4.15-17.65,31.23-23.56,32.01
		c-11.62,1.52-12.64-34.44-7.47-46.28c5-11.44,11.63-22.66,19.92-31.36C1603.64,1450.4,1625.28,1431.11,1625.16,1438.28
		L1625.16,1438.28z"/>
	<path class="st46" d="M1317.12,1273.74c21.71,34.43,39.83,67.9,69.09,105.02c12.34,15.65-129.39,20.84-136.73,3.21
		C1239.53,1358.07,1313.99,1268.78,1317.12,1273.74L1317.12,1273.74z"/>
	<path class="st47" d="M1362.26,1375.05c-14.19,6.34-54.63,11.47-68.14,11.09c-4.64-0.13-35.77-2.82-38.96-7.85
		c-6.29-9.89,25.88-26,38.8-26.31c12.48-0.3,25.45,0.98,36.83,4.82C1342.18,1360.65,1368.81,1372.12,1362.26,1375.05
		L1362.26,1375.05z"/>
	<path class="st46" d="M1544.46,1343.29c28.52-29.04,56.94-54.36,86.34-91.36c12.4-15.6,50,121.15,34.53,132.33
		C1644.35,1399.44,1540.35,1347.48,1544.46,1343.29L1544.46,1343.29z"/>
	<path class="st47" d="M1632.69,1276.1c9.43,12.35,23.71,50.53,26.45,63.77c0.94,4.54,5.47,35.45,1.31,39.72
		c-8.18,8.39-31.24-19.22-34.51-31.72c-3.16-12.08-4.89-25-3.77-36.96C1623.29,1298.95,1628.34,1270.39,1632.69,1276.1
		L1632.69,1276.1z"/>
	<path class="st46" d="M1687.24,1224.24c-3.48-40.55-4.21-78.61-13.16-125.02c-3.77-19.57,124.52,40.9,122.94,59.93
		C1794.88,1184.96,1687.74,1230.08,1687.24,1224.24L1687.24,1224.24z"/>
	<path class="st47" d="M1693.66,1113.53c15.51,0.89,53.8,14.89,65.62,21.43c4.06,2.24,30.48,18.92,31.01,24.86
		c1.04,11.67-34.93,11.21-46.55,5.55c-11.23-5.46-22.16-12.56-30.51-21.2C1704.88,1135.53,1686.49,1113.12,1693.66,1113.53
		L1693.66,1113.53z"/>
	<path class="st46" d="M1572.68,1129.19c-29.5,28.05-58.76,52.39-89.42,88.36c-12.93,15.17-45.83-122.79-29.99-133.44
		C1474.77,1069.67,1576.93,1125.15,1572.68,1129.19L1572.68,1129.19z"/>
	<path class="st47" d="M1482.2,1193.33c-9-12.67-21.97-51.32-24.25-64.64c-0.78-4.57-4.25-35.62,0.05-39.74
		c8.46-8.1,30.57,20.28,33.41,32.88c2.75,12.18,4.04,25.15,2.51,37.07C1492.38,1170.82,1486.36,1199.18,1482.2,1193.33
		L1482.2,1193.33z"/>
	<path class="st46" d="M1407.43,943.86c-27.07,30.39-54.22,57.07-81.8,95.46c-11.62,16.18-55.83-118.57-40.92-130.5
		C1304.93,892.64,1411.33,939.48,1407.43,943.86L1407.43,943.86z"/>
	<path class="st47" d="M1322.58,1015.27c-10.02-11.88-26.14-49.32-29.52-62.41c-1.16-4.49-7.19-35.15-3.24-39.61
		c7.76-8.78,32.14,17.68,36.02,30c3.75,11.91,6.1,24.73,5.56,36.73C1330.85,991.99,1327.2,1020.76,1322.58,1015.27L1322.58,1015.27z
		"/>
	<path class="st46" d="M627.93,709.94c-32.71-24.22-61.73-48.86-102.44-72.86c-17.17-10.12,113.05-66.3,126.28-52.52
		C669.7,603.24,632.64,713.42,627.93,709.94L627.93,709.94z"/>
	<path class="st47" d="M549.16,631.86c10.93-11.04,46.76-30.47,59.49-35.02c4.36-1.56,34.35-10.33,39.15-6.8
		c9.44,6.94-14.71,33.61-26.63,38.57c-11.52,4.8-24.08,8.31-36.08,8.85C573.09,638.01,544.11,636.96,549.16,631.86L549.16,631.86z"
		/>
	<path class="st46" d="M167.61,790.15c-5.43,40.33-13.01,77.64-14.38,124.88C152.65,934.95,40.6,848,46.29,829.77
		C53.99,805.05,168.39,784.34,167.61,790.15L167.61,790.15z"/>
	<path class="st47" d="M137.23,896.81c-14.95-4.24-49.26-26.25-59.38-35.21c-3.47-3.07-25.62-25.11-24.85-31.01
		c1.52-11.62,36.53-3.33,46.64,4.71c9.77,7.78,18.89,17.08,25.16,27.33C131.07,872.89,144.14,898.77,137.23,896.81L137.23,896.81z"
		/>
	<path class="st46" d="M208.37,1036.22c33.25,23.47,62.82,47.44,104.07,70.51c17.39,9.73-111.52,68.85-125.05,55.38
		C169.03,1143.84,203.58,1032.84,208.37,1036.22L208.37,1036.22z"/>
	<path class="st47" d="M288.89,1112.48c-10.68,11.29-46.06,31.53-58.68,36.37c-4.33,1.66-34.11,11.1-38.99,7.69
		c-9.6-6.72,13.94-33.93,25.75-39.17c11.41-5.06,23.88-8.85,35.87-9.67C264.83,1106.89,293.82,1107.27,288.89,1112.48
		L288.89,1112.48z"/>
	<path class="st46" d="M438.16,1132.42c38.8-12.29,75.78-21.35,119.09-40.25c18.26-7.97-12.6,130.45-31.51,133.09
		C500.09,1228.83,432.58,1134.19,438.16,1132.42L438.16,1132.42z"/>
	<path class="st47" d="M547.6,1114.41c2.54,15.33-2.74,55.75-6.52,68.72c-1.3,4.45-11.78,33.89-17.45,35.7
		c-11.16,3.58-18.6-31.62-15.63-44.19c2.87-12.15,7.39-24.38,13.99-34.42C528.58,1130.19,546.42,1107.32,547.6,1114.41
		L547.6,1114.41z"/>
	<path class="st46" d="M350.8,991.84c40.7,0.35,78.66,3.21,125.7-1.32c19.84-1.91-52.45,120.11-71.25,116.74
		C379.77,1102.7,344.94,991.79,350.8,991.84L350.8,991.84z"/>
	<path class="st47" d="M460.42,1008.66c-2.34,15.36-19.9,52.15-27.52,63.31c-2.61,3.83-21.71,28.56-27.67,28.52
		c-11.71-0.06-7.86-35.83-1.14-46.86c6.5-10.66,14.59-20.88,23.98-28.38C437.46,1017.77,461.51,1001.57,460.42,1008.66
		L460.42,1008.66z"/>
	<path class="st48" d="M441.57,882.17c-8.77-16.02-26.51-70.32-26.81-109.09c-0.06-7.83,0.59-14.98,2.28-20.97
		c1.41-4.97,3.47-9.07,6.74-11.68c3.03-2.42,3.53-6.85,1.11-9.88c-2.42-3.04-6.85-3.53-9.88-1.11
		c-9.94,7.93-14.47,24.01-14.31,43.74c0.33,41.14,19.24,98.73,28.54,115.73c1.86,3.41,6.14,4.66,9.54,2.79
		C442.18,889.85,443.43,885.58,441.57,882.17L441.57,882.17z"/>
	<path class="st48" d="M457.8,757.34c34.9,15.58,54.05,36.76,62.71,51.06c2.01,3.32,6.34,4.38,9.66,2.37
		c3.32-2.01,4.38-6.34,2.37-9.66c-9.56-15.78-30.48-39.41-69-56.61c-3.54-1.58-7.7,0.01-9.29,3.55
		C452.67,751.6,454.26,755.76,457.8,757.34L457.8,757.34z"/>
	<path class="st48" d="M502.44,814.42c-0.57,8.56-6.36,15.99-13.31,22.5c-12.19,11.39-28.39,19.77-35.29,24.5
		c-3.2,2.19-4.01,6.58-1.81,9.77c2.2,3.2,6.58,4.01,9.78,1.82c7.22-4.96,24.14-13.87,36.92-25.82c9.7-9.06,16.94-19.89,17.74-31.83
		c0.26-3.87-2.68-7.22-6.55-7.48C506.06,807.62,502.7,810.55,502.44,814.42L502.44,814.42z"/>
	<path class="st48" d="M336.52,967.84c6.1,40.74,24.29,115.95,54.42,146.08c2.75,2.74,7.2,2.74,9.94,0c2.74-2.75,2.74-7.2,0-9.94
		c-11.13-11.13-20.29-29.02-27.8-48.8c-11.67-30.73-19.16-66.03-22.66-89.41c-0.57-3.84-4.16-6.48-7.99-5.91
		C338.59,960.42,335.94,964,336.52,967.84L336.52,967.84z"/>
	<path class="st48" d="M372.73,973.24c18.59,4.02,38.42,2.84,58.24,13.59c3.41,1.85,7.68,0.58,9.53-2.83
		c1.85-3.41,0.58-7.68-2.83-9.53c-21.12-11.46-42.16-10.69-61.97-14.97c-3.79-0.82-7.54,1.59-8.36,5.39
		C366.52,968.67,368.94,972.42,372.73,973.24L372.73,973.24z"/>
	<path class="st48" d="M381.46,991.61c8.29,4.51,31.49,9.18,40.81,12.28c3.68,1.23,7.67-0.77,8.89-4.45
		c1.23-3.68-0.77-7.66-4.45-8.89c-8.79-2.93-30.73-7.05-38.54-11.3c-3.41-1.85-7.68-0.59-9.53,2.82
		C376.79,985.48,378.06,989.75,381.46,991.61L381.46,991.61z"/>
	<path class="st48" d="M437.34,970.99c8.98,2.71,17.03,6.03,23.18,10.4c5.19,3.7,8.97,8.11,10.25,13.76
		c1.15,5.05,0.31,10.93-2.62,17.88c-1.51,3.57,0.17,7.7,3.75,9.21c3.57,1.51,7.7-0.17,9.21-3.74c5.85-13.87,5.22-24.99,0.66-33.99
		c-6.38-12.57-21.45-21.27-40.37-26.97c-3.71-1.12-7.64,0.98-8.76,4.7C431.52,965.95,433.63,969.87,437.34,970.99L437.34,970.99z"/>
	<path class="st48" d="M436.53,1138.84c8.43,14.15,19.2,35.61,32.11,52.99c9.31,12.54,19.81,22.94,31.14,27.87
		c3.56,1.55,7.7-0.08,9.25-3.64c1.55-3.56-0.08-7.7-3.64-9.25c-9.37-4.08-17.77-13-25.47-23.36
		c-12.61-16.98-23.08-37.98-31.32-51.81c-1.99-3.33-6.31-4.43-9.64-2.44C435.63,1131.19,434.54,1135.51,436.53,1138.84
		L436.53,1138.84z"/>
	<path class="st48" d="M464.7,1136.93c5.96,16.8,12.48,34.98,21.89,48.87c2.17,3.22,6.55,4.06,9.77,1.88
		c3.21-2.18,4.05-6.55,1.88-9.77c-8.78-12.97-14.72-30-20.28-45.69c-1.3-3.65-5.32-5.57-8.97-4.27
		C465.32,1129.25,463.41,1133.28,464.7,1136.93L464.7,1136.93z"/>
	<path class="st48" d="M192.18,1132.18c-1.05-26.13,9.72-62.09,21.89-84.7c1.84-3.42,0.56-7.69-2.86-9.52
		c-3.42-1.84-7.68-0.56-9.52,2.86c-13.2,24.52-24.7,63.59-23.56,91.93c0.15,3.88,3.43,6.9,7.3,6.74
		C189.31,1139.33,192.33,1136.06,192.18,1132.18L192.18,1132.18z"/>
	<path class="st48" d="M219.08,1103.74c-0.02-5.66,0.63-13.95,2.45-20.74c0.88-3.28,1.76-6.25,3.48-7.68
		c2.98-2.48,3.39-6.92,0.92-9.9c-2.48-2.98-6.91-3.39-9.9-0.92c-2.73,2.27-5.1,6.03-6.8,10.77c-3.07,8.56-4.22,20.65-4.2,28.51
		c0.01,3.88,3.17,7.02,7.05,7.01C215.95,1110.78,219.09,1107.62,219.08,1103.74L219.08,1103.74z"/>
	<path class="st48" d="M78.08,819.96c22.39-13.22,63.5-16.36,83.59-19.12c3.84-0.53,6.54-4.08,6-7.92c-0.53-3.84-4.08-6.53-7.92-6
		c-21.38,2.94-65,6.88-88.83,20.94c-3.34,1.97-4.45,6.29-2.48,9.63C70.42,820.83,74.74,821.94,78.08,819.96L78.08,819.96z"/>
	<path class="st48" d="M118.85,827.81c8.4-0.19,29.55-2.54,39.38,0.35c3.72,1.09,7.63-1.04,8.73-4.76c1.1-3.72-1.04-7.63-4.76-8.73
		c-10.9-3.21-34.36-1.14-43.68-0.92c-3.88,0.09-6.95,3.31-6.87,7.19C111.74,824.82,114.96,827.9,118.85,827.81L118.85,827.81z"/>
	<path class="st48" d="M311.83,556.5c20.83,13.5,39.43,40.01,48.04,55.08c1.93,3.37,6.22,4.54,9.59,2.62
		c3.37-1.93,4.54-6.22,2.61-9.59c-9.39-16.43-29.88-45.18-52.6-59.9c-3.26-2.11-7.61-1.18-9.73,2.07
		C307.65,550.03,308.58,554.39,311.83,556.5L311.83,556.5z"/>
	<path class="st48" d="M287.36,656.2c22.41-16.78,43.64-28.27,65.89-30.2c3.87-0.34,6.73-3.75,6.4-7.61
		c-0.34-3.87-3.75-6.73-7.61-6.4c-24.61,2.13-48.31,14.39-73.1,32.95c-3.11,2.33-3.74,6.74-1.41,9.84
		C279.85,657.89,284.25,658.53,287.36,656.2L287.36,656.2z"/>
	<path class="st48" d="M317,588.77c6.9,4.34,12.56,13.75,15.48,18.38c2.07,3.28,6.42,4.26,9.7,2.19c3.28-2.07,4.27-6.41,2.2-9.7
		c-3.68-5.83-11.21-17.33-19.89-22.79c-3.28-2.06-7.63-1.07-9.69,2.21C312.72,582.36,313.71,586.71,317,588.77L317,588.77z"/>
	<path class="st48" d="M645.56,616.2c-0.94,20.97-4.34,44.57-9.68,63.13c-3.28,11.42-7.14,20.88-11.85,26.08
		c-2.6,2.87-2.38,7.33,0.49,9.93c2.87,2.61,7.32,2.39,9.93-0.49c5.75-6.35,10.93-17.68,14.95-31.64
		c5.61-19.52,9.22-44.33,10.21-66.38c0.17-3.88-2.83-7.17-6.71-7.34C649.02,609.32,645.74,612.32,645.56,616.2L645.56,616.2z"/>
	<path class="st48" d="M621.35,646.08c-2.32,15.45-4.56,24.25-17.07,34.97c-2.94,2.53-3.28,6.97-0.76,9.91
		c2.53,2.95,6.97,3.28,9.91,0.76c15.66-13.43,18.92-24.21,21.82-43.56c0.57-3.84-2.07-7.42-5.91-7.99
		C625.51,639.59,621.93,642.24,621.35,646.08L621.35,646.08z"/>
	<path class="st48" d="M559.44,895.33c46.97,2.75,93.28-21.71,129.17-58.49c2.71-2.78,2.66-7.23-0.12-9.94
		c-2.78-2.71-7.23-2.65-9.94,0.12c-32.94,33.76-75.17,56.79-118.29,54.27c-3.87-0.23-7.2,2.73-7.43,6.61
		C552.6,891.77,555.57,895.1,559.44,895.33L559.44,895.33z"/>
	<path class="st48" d="M551.14,788.91c-4.29,4.7-8.75,15.25-11.59,27.95c-4.05,18.08-5.09,40.47-0.09,54.47
		c1.3,3.65,5.33,5.56,8.99,4.25c3.65-1.3,5.56-5.33,4.25-8.98c-4.29-11.99-2.9-31.17,0.57-46.67c2.17-9.68,4.98-17.96,8.25-21.54
		c2.62-2.86,2.42-7.32-0.45-9.93C558.21,785.85,553.76,786.05,551.14,788.91L551.14,788.91z"/>
	<path class="st48" d="M578.35,871.76c21.91,2.6,42.6-9.29,57.58-17.77c3.38-1.91,4.57-6.21,2.65-9.58
		c-1.91-3.38-6.21-4.57-9.58-2.65c-12.82,7.25-30.25,18.27-48.99,16.04c-3.85-0.46-7.35,2.3-7.81,6.15
		C571.74,867.8,574.49,871.3,578.35,871.76L578.35,871.76z"/>
	<path class="st48" d="M1303.42,911.17c42.7,2.73,85.2,22.49,108.51,38.13c3.22,2.16,7.59,1.3,9.75-1.92
		c2.16-3.22,1.3-7.59-1.92-9.75c-24.79-16.64-70.03-37.59-115.45-40.49c-3.87-0.25-7.22,2.69-7.46,6.57
		C1296.6,907.58,1299.54,910.92,1303.42,911.17L1303.42,911.17z"/>
	<path class="st48" d="M1347.6,939.05c9.7,1.84,20,5.47,27.6,9.46c4.13,2.17,7.45,4.22,8.84,6.3c2.16,3.22,6.53,4.09,9.75,1.93
		c3.22-2.16,4.09-6.53,1.93-9.75c-1.78-2.67-5.15-5.68-9.75-8.52c-8.87-5.45-22.76-10.77-35.76-13.23c-3.81-0.72-7.49,1.78-8.22,5.6
		C1341.28,934.64,1343.79,938.33,1347.6,939.05L1347.6,939.05z"/>
	<path class="st48" d="M1334.81,1042.36c19.87-7.86,68.13-54.86,83.72-76.69c2.26-3.16,1.52-7.55-1.64-9.81
		c-3.16-2.26-7.55-1.52-9.81,1.64c-14.49,20.31-58.97,64.48-77.44,71.78c-3.61,1.42-5.38,5.51-3.95,9.12
		C1327.11,1042.01,1331.2,1043.78,1334.81,1042.36L1334.81,1042.36z"/>
	<path class="st48" d="M1374.65,966.66c-7.34,7.86-10.45,11.75-21.41,18.14c-3.35,1.96-4.48,6.26-2.53,9.62
		c1.96,3.35,6.26,4.49,9.62,2.53c12.55-7.32,16.19-11.68,24.6-20.68c2.65-2.83,2.5-7.29-0.34-9.94
		C1381.75,963.68,1377.3,963.83,1374.65,966.66L1374.65,966.66z"/>
	<path class="st48" d="M1289.13,1055.32c-10.59,11.19-17.42,28.33-21.09,47.44c-5.27,27.37-4.23,58.76-0.21,80.64
		c0.7,3.82,4.37,6.35,8.18,5.64c3.82-0.7,6.35-4.37,5.65-8.18c-3.76-20.47-4.74-49.84,0.19-75.45c3.12-16.21,8.52-30.94,17.5-40.43
		c2.67-2.82,2.54-7.27-0.27-9.94C1296.25,1052.38,1291.8,1052.51,1289.13,1055.32L1289.13,1055.32z"/>
	<path class="st48" d="M1301.62,1083.18c-11.13,22.4-9.43,49.54-10.74,76.51c-0.19,3.88,2.8,7.18,6.68,7.37
		c3.87,0.19,7.17-2.8,7.36-6.68c1.22-24.97-1.01-50.2,9.29-70.94c1.72-3.47,0.31-7.7-3.17-9.42
		C1307.57,1078.29,1303.35,1079.71,1301.62,1083.18L1301.62,1083.18z"/>
	<path class="st48" d="M728.51,998.61c150.03,28.45,375.8,104.89,476.67,122.82c3.82,0.68,7.47-1.87,8.15-5.69
		c0.68-3.82-1.87-7.47-5.69-8.15c-100.83-17.92-326.53-94.35-476.51-122.79c-3.81-0.72-7.49,1.78-8.22,5.6
		C722.2,994.2,724.7,997.89,728.51,998.61L728.51,998.61z"/>
	<path class="st48" d="M787.65,980.57c54,11.7,219.24,64.48,273.24,76.19c3.79,0.82,7.54-1.59,8.36-5.38
		c0.82-3.79-1.59-7.54-5.38-8.36c-54-11.71-219.24-64.5-273.25-76.19c-3.79-0.82-7.53,1.59-8.36,5.38
		C781.45,976,783.86,979.75,787.65,980.57L787.65,980.57z"/>
	<path class="st48" d="M832.38,1055.9c122.73,36.49,241.52,62.62,328.3,87.4c3.73,1.07,7.62-1.1,8.69-4.83
		c1.07-3.73-1.1-7.63-4.83-8.69c-86.74-24.78-205.48-50.89-328.15-87.36c-3.72-1.11-7.63,1.02-8.74,4.74
		C826.54,1050.87,828.66,1054.79,832.38,1055.9L832.38,1055.9z"/>
	<path class="st48" d="M1310.7,1263.42c-28.09,22.49-49.8,60.79-63.75,94.43c-1.49,3.58,0.21,7.7,3.8,9.19
		c3.58,1.49,7.7-0.22,9.19-3.8c13.11-31.58,33.18-67.73,59.56-88.85c3.03-2.42,3.52-6.85,1.1-9.88
		C1318.16,1261.49,1313.73,1260.99,1310.7,1263.42L1310.7,1263.42z"/>
	<path class="st48" d="M1333.82,1280.16c-12.23,14.53-11.33,14.48-21.46,30.12c-2.11,3.26-1.18,7.61,2.08,9.72
		c3.26,2.11,7.62,1.18,9.72-2.08c9.66-14.91,8.77-14.87,20.42-28.72c2.5-2.97,2.12-7.41-0.85-9.9
		C1340.76,1276.81,1336.32,1277.19,1333.82,1280.16L1333.82,1280.16z"/>
	<path class="st48" d="M1346.27,1272.41c24.02,23.65,43.65,53.61,50.91,74.19c1.29,3.66,5.31,5.58,8.97,4.29
		c3.66-1.29,5.58-5.31,4.29-8.97c-7.78-22.03-28.59-54.22-54.3-79.53c-2.76-2.72-7.22-2.69-9.94,0.08
		C1343.47,1265.23,1343.51,1269.69,1346.27,1272.41L1346.27,1272.41z"/>
	<path class="st48" d="M1348.59,1323.88c5.74,2.35,11.02,8.09,16.01,15.18c8.49,12.06,15.7,28.11,20.84,41.84
		c1.36,3.64,5.41,5.48,9.04,4.13c3.64-1.36,5.48-5.41,4.13-9.04c-5.52-14.79-13.37-32.03-22.51-45.02
		c-6.77-9.61-14.39-16.91-22.17-20.09c-3.59-1.47-7.7,0.25-9.17,3.84C1343.28,1318.3,1345,1322.41,1348.59,1323.88L1348.59,1323.88z
		"/>
	<path class="st48" d="M1445.32,1145.74c12.23,54.39,19,80.19,49.15,100.9c3.2,2.2,7.58,1.38,9.77-1.82c2.2-3.2,1.38-7.58-1.81-9.78
		c-27.43-18.83-32.27-42.92-43.39-92.39c-0.85-3.79-4.62-6.17-8.4-5.32C1446.86,1138.19,1444.48,1141.95,1445.32,1145.74
		L1445.32,1145.74z"/>
	<path class="st48" d="M1473.05,1089.47c30.26,4.61,59.84,23.95,76.77,39.16c6.61,5.94,11.27,11.05,12.76,14.29
		c1.62,3.53,5.8,5.07,9.32,3.46c3.53-1.62,5.07-5.79,3.46-9.32c-1.93-4.21-7.57-11.19-16.15-18.89
		c-18.51-16.62-50.96-37.56-84.05-42.6c-3.83-0.59-7.43,2.05-8.01,5.89C1466.58,1085.3,1469.22,1088.89,1473.05,1089.47
		L1473.05,1089.47z"/>
	<path class="st48" d="M1568.33,1162.79c-1.17,7.04-6.64,15.82-13.73,24.73c-11.43,14.35-27.34,28.72-39.87,36.18
		c-3.34,1.98-4.43,6.3-2.45,9.63c1.98,3.34,6.3,4.43,9.64,2.45c13.7-8.16,31.17-23.8,43.67-39.5c8.86-11.13,15.14-22.39,16.6-31.18
		c0.64-3.83-1.95-7.45-5.78-8.09C1572.59,1156.37,1568.97,1158.96,1568.33,1162.79L1568.33,1162.79z"/>
	<path class="st48" d="M1542.98,1163.55c-6.45,6.95-18.09,23.12-27.34,31.38c-2.9,2.59-3.15,7.03-0.56,9.93
		c2.58,2.9,7.03,3.15,9.93,0.56c9.54-8.52,21.63-25.14,28.28-32.3c2.64-2.85,2.47-7.3-0.37-9.94
		C1550.07,1160.54,1545.62,1160.71,1542.98,1163.55L1542.98,1163.55z"/>
	<path class="st48" d="M1595.61,831.7c15.56,27.14,22.23,54.67,23.21,84.76c0.13,3.88,3.38,6.92,7.26,6.8
		c3.88-0.13,6.92-3.38,6.8-7.26c-1.07-32.42-8.3-62.05-25.07-91.29c-1.93-3.36-6.23-4.53-9.6-2.6
		C1594.84,824.03,1593.68,828.33,1595.61,831.7L1595.61,831.7z"/>
	<path class="st48" d="M1521.65,916.47c17.93-4.5,52.9-3.46,71.47,2.59c3.69,1.2,7.66-0.81,8.86-4.5c1.21-3.69-0.81-7.66-4.5-8.86
		c-20.58-6.72-59.36-7.86-79.25-2.87c-3.76,0.95-6.05,4.77-5.11,8.53C1514.07,915.12,1517.89,917.41,1521.65,916.47L1521.65,916.47z
		"/>
	<path class="st48" d="M1589.69,866.67c3.1,7.41,5.28,14.94,6.14,20.72c0.38,2.58,0.73,4.63,0.27,5.81
		c-1.42,3.61,0.36,7.69,3.97,9.11c3.61,1.42,7.7-0.36,9.12-3.97c0.84-2.13,1.28-5.43,0.95-9.57c-0.56-7.05-3.23-17.39-7.47-27.53
		c-1.5-3.58-5.62-5.27-9.2-3.77C1589.89,858.96,1588.19,863.09,1589.69,866.67L1589.69,866.67z"/>
	<path class="st48" d="M1712.86,974.18c12.86,22.98,35.32,58.32,54.5,77.14c2.77,2.72,7.22,2.67,9.94-0.1
		c2.72-2.77,2.67-7.22-0.1-9.94c-18.37-18.02-39.76-51.96-52.07-73.97c-1.9-3.38-6.18-4.59-9.57-2.7
		C1712.18,966.51,1710.97,970.79,1712.86,974.18L1712.86,974.18z"/>
	<path class="st48" d="M1827.62,972.05c-6.38,24.08-18.97,49.95-42.6,70.22c-2.95,2.53-3.29,6.97-0.76,9.91
		c2.53,2.95,6.97,3.29,9.91,0.76c26.04-22.32,40.01-50.77,47.04-77.29c0.99-3.75-1.24-7.61-4.99-8.6
		C1832.47,966.06,1828.62,968.3,1827.62,972.05L1827.62,972.05z"/>
	<path class="st48" d="M1798.18,993.23c-5.3,7.61-7.77,14.68-19.48,21.77c-3.32,2.01-4.38,6.34-2.38,9.66
		c2.01,3.32,6.34,4.38,9.66,2.37c14.04-8.49,17.38-16.63,23.73-25.76c2.22-3.18,1.43-7.57-1.75-9.79
		C1804.78,989.26,1800.4,990.05,1798.18,993.23L1798.18,993.23z"/>
	<path class="st48" d="M1680.83,1232.65c32.33-9.58,70.1-20.67,99.94-36.84c3.41-1.85,4.68-6.12,2.83-9.53
		c-1.85-3.41-6.12-4.68-9.53-2.83c-29.02,15.72-65.79,26.41-97.24,35.72c-3.72,1.1-5.85,5.02-4.75,8.74
		C1673.2,1231.63,1677.11,1233.75,1680.83,1232.65L1680.83,1232.65z"/>
	<path class="st48" d="M1677.28,1196.37c-1.78-4.2-1.98-11.65-1.57-20.47c1.07-22.88,7.43-54.18,13.13-67.85
		c1.49-3.58-0.2-7.7-3.78-9.2c-3.58-1.49-7.7,0.2-9.19,3.79c-6.1,14.63-13.05,48.11-14.2,72.6c-0.54,11.49,0.35,21.15,2.67,26.62
		c1.52,3.57,5.65,5.24,9.22,3.72C1677.13,1204.08,1678.79,1199.94,1677.28,1196.37L1677.28,1196.37z"/>
	<path class="st48" d="M1512.38,1335.13c27.25,27.93,75.79,47.1,112.26,57.09c3.74,1.03,7.61-1.18,8.64-4.92
		c1.02-3.74-1.18-7.61-4.92-8.64c-34.33-9.41-80.25-27.05-105.91-53.35c-2.71-2.78-7.16-2.83-9.94-0.12
		C1509.72,1327.9,1509.67,1332.36,1512.38,1335.13L1512.38,1335.13z"/>
	<path class="st48" d="M1527.22,1309.77c15.2-32.62,53.58-46.16,75.86-45.99c3.88,0.03,7.05-3.1,7.08-6.98
		c0.03-3.88-3.1-7.06-6.97-7.09c-26.1-0.19-70.9,15.91-88.71,54.11c-1.64,3.52-0.11,7.7,3.4,9.34
		C1521.39,1314.82,1525.58,1313.29,1527.22,1309.77L1527.22,1309.77z"/>
	<path class="st48" d="M1507.72,1441.87c11.07,23.44,27.58,55.07,40.13,72.54c2.27,3.15,6.66,3.87,9.81,1.61
		c3.15-2.27,3.87-6.66,1.6-9.81c-12.17-16.93-28.11-47.62-38.83-70.33c-1.66-3.51-5.85-5.01-9.36-3.35
		C1507.57,1434.17,1506.07,1438.36,1507.72,1441.87L1507.72,1441.87z"/>
	<path class="st48" d="M1540.61,1450.91c0.29,7.37,2.52,13.65,5.22,19.85c2.22,5.07,4.78,10.08,6.26,15.92
		c0.95,3.76,4.78,6.04,8.54,5.09c3.76-0.96,6.04-4.78,5.09-8.54c-1.68-6.62-4.5-12.33-7-18.08c-2.02-4.63-3.84-9.27-4.06-14.78
		c-0.15-3.88-3.42-6.9-7.3-6.75C1543.49,1443.76,1540.46,1447.03,1540.61,1450.91L1540.61,1450.91z"/>
	<path class="st48" d="M1761.05,1336.92c19.65,4.31,58.77,11.9,78.16,9.62c3.85-0.45,6.61-3.95,6.16-7.8
		c-0.45-3.86-3.95-6.62-7.8-6.16c-18.25,2.14-55.02-5.33-73.51-9.39c-3.79-0.83-7.54,1.57-8.37,5.36
		C1754.86,1332.33,1757.26,1336.09,1761.05,1336.92L1761.05,1336.92z"/>
	<path class="st48" d="M1782.27,1319.44c9.28,1.79,17.37,4.73,30.76,4.98c3.88,0.08,7.09-3.01,7.17-6.89
		c0.08-3.88-3.01-7.09-6.89-7.17c-12.37-0.24-19.82-3.09-28.38-4.73c-3.81-0.73-7.5,1.77-8.23,5.58
		C1775.96,1315.03,1778.46,1318.71,1782.27,1319.44L1782.27,1319.44z"/>
	<path class="st49" d="M262.61,678.42c-60.48,58.48-90.33,114.79-78.65,222.49c0.42,3.86,3.89,6.65,7.74,6.23
		c3.86-0.42,6.65-3.89,6.23-7.75c-11.07-102.05,17.14-155.45,74.45-210.87c2.79-2.7,2.87-7.15,0.17-9.94
		C269.85,675.8,265.4,675.72,262.61,678.42L262.61,678.42z"/>
	<path class="st49" d="M260.39,714.02c-32.66,28.06-57.9,89.37-57.18,137.59c0.06,3.88,3.26,6.98,7.13,6.92
		c3.88-0.06,6.98-3.25,6.92-7.14c-0.66-44.36,22.23-100.9,52.28-126.71c2.94-2.53,3.28-6.97,0.75-9.91
		C267.77,711.83,263.33,711.5,260.39,714.02L260.39,714.02z"/>
	<path class="st49" d="M211.19,709.1c-11.3,11.93-34.94,48.48-37.22,71.88c-0.38,3.86,2.45,7.3,6.32,7.68
		c3.86,0.38,7.3-2.45,7.68-6.31c2.02-20.76,23.41-52.99,33.44-63.57c2.67-2.82,2.54-7.27-0.27-9.94
		C218.31,706.17,213.85,706.29,211.19,709.1L211.19,709.1z"/>
	<path class="st49" d="M70.45,853c10.27,15.2,33.62,27.42,47.92,35.87c3.34,1.97,7.65,0.86,9.63-2.48c1.97-3.34,0.86-7.66-2.47-9.63
		c-12.83-7.58-34.2-18-43.42-31.64c-2.17-3.21-6.55-4.06-9.76-1.89C69.12,845.41,68.28,849.78,70.45,853L70.45,853z"/>
	<path class="st49" d="M284.91,554.24c-1.76,5.62-3.3,13.28-4.07,17.11c-0.76,3.81,1.72,7.51,5.52,8.27
		c3.81,0.76,7.51-1.72,8.27-5.52c0.7-3.5,2.08-10.51,3.69-15.65c1.16-3.7-0.9-7.65-4.6-8.81
		C290.02,548.48,286.07,550.54,284.91,554.24L284.91,554.24z"/>
	<path class="st49" d="M429.34,765.17c17.24,6.98,41.29,20.26,53.33,35.74c2.38,3.07,6.8,3.62,9.86,1.24
		c3.06-2.38,3.62-6.8,1.24-9.86c-13.4-17.24-39.95-32.38-59.16-40.15c-3.6-1.46-7.7,0.28-9.15,3.88
		C424,759.61,425.74,763.71,429.34,765.17L429.34,765.17z"/>
	<path class="st49" d="M387.56,638.07c48.65-10.37,111.53,7.36,140.46,27.34c3.19,2.2,7.58,1.4,9.78-1.79
		c2.2-3.19,1.4-7.58-1.79-9.78c-31.18-21.53-98.95-40.69-151.38-29.52c-3.8,0.81-6.22,4.55-5.41,8.34
		C380.03,636.46,383.77,638.88,387.56,638.07L387.56,638.07z"/>
	<path class="st49" d="M450.09,658.74c18.39,0.37,41.25,10.47,60.31,21.21c18.88,10.64,34.1,21.89,36.93,25.66
		c2.34,3.1,6.75,3.72,9.85,1.39c3.1-2.34,3.72-6.75,1.39-9.85c-3.2-4.25-19.98-17.45-41.26-29.45
		c-21.1-11.9-46.58-22.62-66.94-23.02c-3.88-0.08-7.09,3.01-7.17,6.89C443.12,655.44,446.21,658.66,450.09,658.74L450.09,658.74z"/>
	<path class="st49" d="M590.51,632.78c6.92-5.2,15.05-11.2,29.42-17.39c3.56-1.53,5.21-5.68,3.68-9.24
		c-1.53-3.56-5.67-5.21-9.24-3.68c-15.77,6.79-24.7,13.35-32.3,19.06c-3.1,2.33-3.73,6.74-1.4,9.84
		C583,634.48,587.41,635.11,590.51,632.78L590.51,632.78z"/>
	<path class="st49" d="M582.49,799.45c19.85-3.66,56.52,3.98,77.43,13.5c3.53,1.61,7.7,0.04,9.31-3.49c1.61-3.53,0.04-7.7-3.49-9.31
		c-23.15-10.54-63.83-18.58-85.81-14.53c-3.81,0.7-6.34,4.37-5.64,8.19C575.01,797.63,578.67,800.16,582.49,799.45L582.49,799.45z"
		/>
	<path class="st49" d="M611.91,818.48c8.97,0.23,25.46,6.39,34.3,8c3.82,0.7,7.48-1.84,8.18-5.66c0.7-3.82-1.84-7.48-5.66-8.18
		c-9.39-1.71-26.95-7.99-36.47-8.23c-3.88-0.1-7.11,2.97-7.21,6.85C604.96,815.15,608.03,818.38,611.91,818.48L611.91,818.48z"/>
	<path class="st49" d="M374.3,1004.74c-1.21,21.69,9.98,55.03,19.2,74c1.7,3.49,5.91,4.94,9.4,3.25c3.49-1.7,4.95-5.91,3.25-9.4
		c-8.37-17.22-18.92-47.38-17.81-67.06c0.22-3.87-2.75-7.19-6.63-7.41C377.83,997.9,374.51,1000.87,374.3,1004.74L374.3,1004.74z"/>
	<path class="st49" d="M414.4,1018.39c-4.52,10.08-5.29,22.58-3.34,35.04c0.6,3.83,4.2,6.46,8.03,5.86c3.83-0.6,6.46-4.2,5.85-8.04
		c-1.51-9.63-1.22-19.32,2.28-27.1c1.59-3.54,0-7.7-3.54-9.29C420.14,1013.26,415.98,1014.85,414.4,1018.39L414.4,1018.39z"/>
	<path class="st49" d="M215.44,1136.98c13.7-9.27,36.91-18.14,52.11-20.3c3.84-0.55,6.51-4.11,5.97-7.95
		c-0.55-3.84-4.11-6.52-7.95-5.97c-16.92,2.41-42.76,12.26-58.01,22.58c-3.21,2.17-4.06,6.55-1.88,9.76
		C207.85,1138.31,212.23,1139.15,215.44,1136.98L215.44,1136.98z"/>
	<path class="st49" d="M237.15,1145.8c7.14-2.2,17.05-6.45,23.03-8.26c3.71-1.13,5.81-5.06,4.69-8.77
		c-1.12-3.71-5.05-5.81-8.77-4.69c-5.99,1.82-15.93,6.08-23.09,8.28c-3.71,1.14-5.79,5.08-4.65,8.79
		C229.5,1144.86,233.44,1146.94,237.15,1145.8L237.15,1145.8z"/>
	<path class="st49" d="M248.22,862.77c-6.29,22.37-0.38,55.31,11.83,85.52c12.16,30.1,30.49,57.34,47.78,68.97
		c3.22,2.16,7.59,1.31,9.76-1.91c2.16-3.22,1.31-7.59-1.92-9.76c-15.6-10.48-31.61-35.41-42.59-62.56
		c-10.93-27.04-16.96-56.42-11.34-76.45c1.05-3.73-1.13-7.62-4.87-8.67C253.15,856.86,249.27,859.04,248.22,862.77L248.22,862.77z"
		/>
	<path class="st49" d="M669.99,878.36c3.17,20.9-8.61,48.85-13.92,60.2c-1.64,3.51-0.13,7.7,3.39,9.35c3.52,1.64,7.7,0.12,9.35-3.39
		c6-12.84,18.67-44.62,15.09-68.26c-0.58-3.84-4.17-6.48-8-5.9C672.05,870.94,669.41,874.53,669.99,878.36L669.99,878.36z"/>
	<path class="st49" d="M684.66,919.02c-6.66,30.86-25.06,77.17-47.94,108.89c-2.27,3.15-1.56,7.55,1.59,9.82
		c3.15,2.27,7.54,1.56,9.81-1.59c23.99-33.26,43.31-81.81,50.28-114.15c0.82-3.79-1.6-7.54-5.39-8.36
		C689.22,912.81,685.48,915.22,684.66,919.02L684.66,919.02z"/>
	<path class="st49" d="M528.09,1109.57c-9.04,30.35-8.55,55.48-5.87,77.73c0.46,3.85,3.97,6.6,7.82,6.14s6.6-3.97,6.14-7.82
		c-2.49-20.62-2.99-43.91,5.39-72.03c1.11-3.72-1.01-7.63-4.73-8.74C533.11,1103.74,529.2,1105.86,528.09,1109.57L528.09,1109.57z"
		/>
	<path class="st49" d="M501.2,1137.3c-1.12,9.71-0.21,22.11,0.82,31c0.45,3.86,3.95,6.62,7.8,6.17c3.86-0.45,6.62-3.94,6.17-7.8
		c-0.93-7.96-1.82-19.07-0.82-27.77c0.44-3.86-2.33-7.34-6.18-7.79C505.13,1130.67,501.64,1133.44,501.2,1137.3L501.2,1137.3z"/>
	<path class="st49" d="M815.66,946.12c100.83,22.62,208.34,53.88,308.48,79.7c3.76,0.97,7.59-1.3,8.56-5.05
		c0.97-3.76-1.29-7.59-5.05-8.56c-100.28-25.85-207.95-57.14-308.92-79.8c-3.79-0.85-7.55,1.53-8.4,5.32
		C809.49,941.51,811.88,945.27,815.66,946.12L815.66,946.12z"/>
	<path class="st49" d="M1006.51,1016.54c62.14,12.73,142.91,39.71,202.58,60.92c3.65,1.3,7.68-0.62,8.98-4.27
		c1.3-3.66-0.61-7.68-4.27-8.98c-60.23-21.41-141.76-48.6-204.47-61.45c-3.8-0.78-7.52,1.67-8.3,5.48
		C1000.25,1012.04,1002.71,1015.76,1006.51,1016.54L1006.51,1016.54z"/>
	<path class="st49" d="M728.12,918.66c13.9,3.02,27.81,6.03,41.72,9.05c3.79,0.82,7.54-1.59,8.36-5.38
		c0.82-3.79-1.59-7.53-5.38-8.36c-13.91-3.02-27.81-6.03-41.72-9.05c-3.79-0.82-7.54,1.59-8.36,5.38
		C721.92,914.09,724.33,917.84,728.12,918.66L728.12,918.66z"/>
	<path class="st49" d="M1299.07,923.25c-4.24,15.05,3.64,39.47,10.75,51.26c2,3.32,6.33,4.39,9.65,2.39c3.32-2,4.39-6.33,2.39-9.65
		c-5.6-9.29-12.59-28.34-9.26-40.19c1.05-3.73-1.13-7.62-4.86-8.67C1304,917.34,1300.12,919.52,1299.07,923.25L1299.07,923.25z"/>
	<path class="st49" d="M1319.12,940.56c-0.43,12.02,5.05,26.44,15.84,36.7c2.81,2.67,7.27,2.56,9.94-0.25
		c2.67-2.81,2.56-7.27-0.25-9.94c-7.67-7.29-11.78-17.45-11.48-26c0.14-3.88-2.9-7.14-6.77-7.28
		C1322.51,933.65,1319.25,936.69,1319.12,940.56L1319.12,940.56z"/>
	<path class="st49" d="M1671.91,972.91c-25.72-18.15-64.72-26.18-102.99-24.27c-38.36,1.91-75.85,13.81-98.5,34.47
		c-2.87,2.61-3.07,7.06-0.46,9.93c2.61,2.87,7.06,3.07,9.93,0.46c20.6-18.78,54.86-29.08,89.73-30.82
		c34.96-1.74,70.69,5.13,94.19,21.71c3.17,2.24,7.56,1.48,9.8-1.69C1675.84,979.53,1675.08,975.14,1671.91,972.91L1671.91,972.91z"
		/>
	<path class="st49" d="M1584.39,974.04c-60.17-6.62-125.55,33.3-149.26,74.54c-1.93,3.36-0.77,7.66,2.59,9.6
		c3.37,1.93,7.67,0.77,9.6-2.59c21.51-37.43,80.91-73.58,135.52-67.57c3.85,0.42,7.33-2.36,7.76-6.22
		C1591.03,977.94,1588.25,974.47,1584.39,974.04L1584.39,974.04z"/>
	<path class="st49" d="M1498.48,937.13c-56.24,19.6-117.86,84.47-126.39,140.77c-0.58,3.83,2.06,7.42,5.9,8
		c3.84,0.58,7.42-2.06,8-5.9c7.88-51.99,65.19-111.5,117.12-129.6c3.66-1.28,5.6-5.29,4.32-8.95
		C1506.15,937.79,1502.14,935.86,1498.48,937.13L1498.48,937.13z"/>
	<path class="st49" d="M1447.9,1087.12c-1.44,30.08,0.58,39.96,4.64,52.42c1.21,3.69,5.18,5.71,8.86,4.5
		c3.69-1.2,5.71-5.17,4.5-8.86c-3.67-11.26-5.27-20.21-3.97-47.39c0.19-3.87-2.81-7.17-6.69-7.36
		C1451.39,1080.25,1448.09,1083.25,1447.9,1087.12L1447.9,1087.12z"/>
	<path class="st49" d="M1471.42,1107.73c2.15,19.44,7.32,37.83,11.44,49.57c1.28,3.66,5.3,5.59,8.96,4.3
		c3.66-1.29,5.59-5.3,4.3-8.96c-3.86-11-8.72-28.23-10.74-46.45c-0.42-3.85-3.9-6.64-7.76-6.21
		C1473.78,1100.39,1470.99,1103.87,1471.42,1107.73L1471.42,1107.73z"/>
	<path class="st49" d="M1821.97,946.73c-22.59-1.6-50.56,0.51-70.65,6.46c-3.72,1.11-5.84,5.02-4.74,8.74
		c1.11,3.72,5.02,5.84,8.74,4.74c18.67-5.54,44.67-7.41,65.66-5.92c3.87,0.27,7.24-2.64,7.51-6.51
		C1828.77,950.37,1825.85,947.01,1821.97,946.73L1821.97,946.73z"/>
	<path class="st49" d="M1797.58,963.93c-10.19,0.8-14.38,1-20.19,1.85c-3.84,0.56-6.5,4.13-5.94,7.97c0.56,3.84,4.13,6.5,7.97,5.94
		c5.54-0.81,9.54-0.98,19.26-1.74c3.87-0.3,6.76-3.69,6.46-7.56C1804.83,966.52,1801.44,963.62,1797.58,963.93L1797.58,963.93z"/>
	<path class="st49" d="M1573.53,816.32c-5.91,2.27-11.92,7.06-17.13,13.1c-7.31,8.48-13.1,19.35-15.29,27.74
		c-0.98,3.75,1.27,7.6,5.02,8.58c3.75,0.99,7.6-1.27,8.58-5.02c1.76-6.7,6.49-15.34,12.34-22.12c3.56-4.12,7.49-7.61,11.52-9.16
		c3.62-1.39,5.44-5.46,4.05-9.08C1581.22,816.75,1577.15,814.93,1573.53,816.32L1573.53,816.32z"/>
	<path class="st49" d="M1576.27,835.46c-5.42,5.99-10.25,10.86-12.56,21.09c-0.85,3.79,1.53,7.55,5.31,8.41
		c3.79,0.85,7.55-1.52,8.41-5.31c1.64-7.26,5.42-10.5,9.27-14.76c2.6-2.87,2.38-7.33-0.5-9.93
		C1583.32,832.37,1578.87,832.59,1576.27,835.46L1576.27,835.46z"/>
	<path class="st49" d="M1657.22,1029.3c11.77,0.27,24.83,5.92,37.11,13.59c19.15,11.97,36.39,29.07,43.9,41.11
		c2.05,3.29,6.39,4.3,9.69,2.24c3.29-2.05,4.29-6.39,2.24-9.68c-8.3-13.31-27.22-32.37-48.38-45.59
		c-14.59-9.12-30.25-15.4-44.23-15.73c-3.88-0.09-7.1,2.99-7.2,6.87C1650.26,1025.99,1653.34,1029.21,1657.22,1029.3L1657.22,1029.3
		z"/>
	<path class="st49" d="M1697.26,1113.07c17.31,1.48,62.33,23.73,80.07,41.61c2.73,2.76,7.19,2.78,9.94,0.04
		c2.76-2.73,2.78-7.18,0.04-9.94c-19.64-19.8-69.68-44.08-88.84-45.72c-3.87-0.33-7.28,2.54-7.61,6.4
		C1690.53,1109.33,1693.4,1112.74,1697.26,1113.07L1697.26,1113.07z"/>
	<path class="st49" d="M1720.38,1148.3c11.94,1.94,22.48,8.59,33.06,14.48c3.39,1.89,7.67,0.67,9.56-2.72
		c1.89-3.39,0.67-7.67-2.72-9.56c-12-6.68-24.1-13.87-37.64-16.07c-3.83-0.63-7.44,1.98-8.07,5.81
		C1713.95,1144.06,1716.55,1147.68,1720.38,1148.3L1720.38,1148.3z"/>
	<path class="st49" d="M1629.34,1264.74c17.24,21.82,25.66,73.46,27.65,101.51c0.27,3.87,3.64,6.79,7.51,6.51
		c3.87-0.27,6.79-3.64,6.51-7.51c-2.15-30.24-12.05-85.7-30.64-109.23c-2.41-3.05-6.83-3.56-9.88-1.16
		C1627.46,1257.27,1626.94,1261.69,1629.34,1264.74L1629.34,1264.74z"/>
	<path class="st49" d="M1620.91,1301.97c7.27,11.75,12.56,31.26,12.52,41.18c-0.01,3.88,3.12,7.04,7,7.06
		c3.88,0.02,7.04-3.12,7.06-7c0.05-11.71-6.04-34.77-14.62-48.64c-2.04-3.3-6.38-4.32-9.68-2.28
		C1619.89,1294.34,1618.87,1298.67,1620.91,1301.97L1620.91,1301.97z"/>
	<path class="st49" d="M1295.01,1318.21c-16.82,18.66-29.95,38.76-37.23,56.19c-1.49,3.58,0.2,7.7,3.78,9.2
		c3.58,1.49,7.7-0.2,9.19-3.78c6.76-16.21,19.06-34.85,34.7-52.2c2.6-2.88,2.37-7.33-0.52-9.93
		C1302.06,1315.09,1297.61,1315.32,1295.01,1318.21L1295.01,1318.21z"/>
	<path class="st49" d="M1305.36,1341.89c-9.81,8.27-9.81,11.64-17.99,22.45c-2.35,3.09-1.74,7.51,1.35,9.85
		c3.09,2.34,7.51,1.74,9.85-1.36c7.3-9.64,7.1-12.81,15.85-20.19c2.97-2.5,3.34-6.94,0.84-9.91
		C1312.76,1339.76,1308.33,1339.39,1305.36,1341.89L1305.36,1341.89z"/>
	<path class="st49" d="M1396.96,1150.65c-12.46,47.1,3.2,108.74,25.25,142.78c2.11,3.26,6.47,4.19,9.72,2.08
		c3.26-2.11,4.19-6.47,2.08-9.72c-20.32-31.37-34.93-88.14-23.46-131.54c0.99-3.75-1.24-7.6-5-8.59
		C1401.81,1144.66,1397.96,1146.91,1396.96,1150.65L1396.96,1150.65z"/>
	<path class="st49" d="M1370.19,1176.26c-3.72,56.13,7.87,73.55,18.57,96.31c1.65,3.51,5.84,5.02,9.35,3.37
		c3.51-1.65,5.02-5.84,3.37-9.35c-9.93-21.12-20.72-37.29-17.26-89.39c0.26-3.87-2.68-7.22-6.55-7.48
		C1373.8,1169.46,1370.45,1172.39,1370.19,1176.26L1370.19,1176.26z"/>
	<path class="st49" d="M1776.45,1252.04c-12.58,34.76-38.2,75.97-67.47,103.17c-2.84,2.64-3.01,7.09-0.37,9.93
		c2.64,2.84,7.09,3.01,9.93,0.37c30.84-28.66,57.87-72.06,71.12-108.68c1.32-3.65-0.57-7.68-4.22-9
		C1781.81,1246.5,1777.77,1248.39,1776.45,1252.04L1776.45,1252.04z"/>
	<path class="st49" d="M1817.98,1253.59c14.94,14.47,30.47,42.59,39.38,56.68c2.07,3.28,6.42,4.26,9.7,2.19
		c3.28-2.07,4.26-6.42,2.19-9.7c-9.34-14.78-25.83-44.11-41.48-59.28c-2.79-2.7-7.24-2.63-9.94,0.16
		C1815.12,1246.44,1815.19,1250.89,1817.98,1253.59L1817.98,1253.59z"/>
	<path class="st49" d="M1820.05,1283.24c7.17,7.16,10.2,15.72,14.59,24.09c1.8,3.43,6.06,4.76,9.49,2.96
		c3.43-1.81,4.76-6.06,2.95-9.49c-5.05-9.62-8.85-19.26-17.1-27.5c-2.74-2.74-7.2-2.74-9.94,0.01
		C1817.3,1276.04,1817.31,1280.5,1820.05,1283.24L1820.05,1283.24z"/>
	<path class="st49" d="M1761.6,1223.64c-2.23,13.35-19.81,53.33-35.89,73.15c-2.44,3.01-1.98,7.45,1.03,9.89
		c3.01,2.45,7.44,1.98,9.89-1.03c17.5-21.57,36.42-65.17,38.85-79.7c0.64-3.83-1.95-7.45-5.78-8.09
		C1765.87,1217.23,1762.24,1219.81,1761.6,1223.64L1761.6,1223.64z"/>
	<path class="st49" d="M1633.65,1423.37c-2.08,28.22-23.73,70.15-37.87,90.93c-2.18,3.21-1.35,7.58,1.86,9.77
		c3.21,2.18,7.58,1.35,9.76-1.86c15.18-22.31,38.03-67.5,40.26-97.8c0.29-3.87-2.62-7.25-6.49-7.53
		C1637.31,1416.59,1633.94,1419.5,1633.65,1423.37L1633.65,1423.37z"/>
	<path class="st49" d="M1597.59,1461.51c-1.44,6.22-3.56,13.86-6.48,20.23c-1.62,3.53-3.4,6.67-5.62,8.61
		c-2.92,2.56-3.21,7-0.65,9.92c2.56,2.92,7,3.21,9.92,0.65c7.97-6.99,13.66-23.84,16.53-36.24c0.87-3.78-1.49-7.56-5.27-8.43
		C1602.24,1455.37,1598.46,1457.72,1597.59,1461.51L1597.59,1461.51z"/>
	<path class="st49" d="M1418.9,1337.84c18.1,30.37,68.87,71.87,117.85,82.25c3.8,0.81,7.53-1.62,8.34-5.42
		c0.8-3.8-1.63-7.53-5.42-8.33c-45.15-9.57-92.01-47.71-108.69-75.7c-1.98-3.34-6.31-4.43-9.64-2.44
		C1418.01,1330.19,1416.92,1334.51,1418.9,1337.84L1418.9,1337.84z"/>
	<path class="st49" d="M1460.25,1350.23c18.33,23.81,41.65,35.65,64.66,42.26c3.73,1.07,7.63-1.09,8.7-4.81
		c1.07-3.73-1.09-7.63-4.81-8.7c-20.4-5.86-41.16-16.22-57.41-37.33c-2.37-3.08-6.78-3.65-9.86-1.28
		C1458.45,1342.74,1457.88,1347.16,1460.25,1350.23L1460.25,1350.23z"/>
</g>
</svg>
