<?xml version="1.0" encoding="utf-8"?>
<!-- Generator: Adobe Illustrator 26.4.1, SVG Export Plug-In . SVG Version: 6.00 Build 0)  -->
<svg version="1.1" id="Layer_1" xmlns="http://www.w3.org/2000/svg" xmlns:xlink="http://www.w3.org/1999/xlink" x="0px" y="0px"
	 viewBox="0 0 2000 2000" style="enable-background:new 0 0 2000 2000;" xml:space="preserve">
<style type="text/css">
	.st0{fill-rule:evenodd;clip-rule:evenodd;fill:#145468;}
	.st1{fill-rule:evenodd;clip-rule:evenodd;fill:#3B7A7A;}
	.st2{fill-rule:evenodd;clip-rule:evenodd;fill:#098B8D;}
	.st3{fill-rule:evenodd;clip-rule:evenodd;fill:#689595;}
	.st4{fill-rule:evenodd;clip-rule:evenodd;fill:#679595;}
	.st5{fill-rule:evenodd;clip-rule:evenodd;fill:#CEE4E4;}
	
		.st6{fill-rule:evenodd;clip-rule:evenodd;fill:#145468;stroke:#CEE4E4;stroke-width:5;stroke-linecap:round;stroke-linejoin:round;stroke-miterlimit:10;}
	.st7{fill-rule:evenodd;clip-rule:evenodd;fill:#043A60;}
	.st8{fill-rule:evenodd;clip-rule:evenodd;fill:#FD9A65;}
	.st9{fill-rule:evenodd;clip-rule:evenodd;fill:#18658D;}
	.st10{fill-rule:evenodd;clip-rule:evenodd;fill:#9FCDE5;}
	.st11{fill-rule:evenodd;clip-rule:evenodd;fill:#56A8D3;}
	.st12{fill-rule:evenodd;clip-rule:evenodd;fill:#276383;}
	.st13{fill-rule:evenodd;clip-rule:evenodd;fill:#E0F0F8;}
	.st14{fill-rule:evenodd;clip-rule:evenodd;fill:#A51E1C;}
	.st15{fill-rule:evenodd;clip-rule:evenodd;fill:#CB442D;}
	.st16{fill-rule:evenodd;clip-rule:evenodd;fill:#DC5A44;}
	.st17{fill-rule:evenodd;clip-rule:evenodd;fill:#F7BD54;}
	.st18{fill-rule:evenodd;clip-rule:evenodd;fill:#E46B37;}
	.st19{fill-rule:evenodd;clip-rule:evenodd;fill:#B67227;}
	.st20{fill-rule:evenodd;clip-rule:evenodd;fill:#D78A35;}
	.st21{fill-rule:evenodd;clip-rule:evenodd;fill:#A4331F;}
	.st22{fill-rule:evenodd;clip-rule:evenodd;fill:#F2A550;}
	.st23{fill-rule:evenodd;clip-rule:evenodd;fill:#F9E9D6;}
	.st24{fill-rule:evenodd;clip-rule:evenodd;fill:#844013;}
	.st25{fill-rule:evenodd;clip-rule:evenodd;fill:#A04E18;}
	.st26{fill-rule:evenodd;clip-rule:evenodd;fill:#F8B872;}
	.st27{fill-rule:evenodd;clip-rule:evenodd;fill:#FFC689;}
	.st28{fill-rule:evenodd;clip-rule:evenodd;fill:#B6844D;}
	.st29{fill-rule:evenodd;clip-rule:evenodd;fill:#CA5320;}
	.st30{fill-rule:evenodd;clip-rule:evenodd;fill:#D76332;}
	.st31{fill-rule:evenodd;clip-rule:evenodd;fill:#812F0C;}
	.st32{fill-rule:evenodd;clip-rule:evenodd;fill:#8A460F;}
	.st33{fill-rule:evenodd;clip-rule:evenodd;fill:#B46914;}
	.st34{fill-rule:evenodd;clip-rule:evenodd;fill:#B54515;}
	.st35{fill-rule:evenodd;clip-rule:evenodd;fill:#FFCD71;}
	.st36{fill-rule:evenodd;clip-rule:evenodd;fill:#95B41D;}
	.st37{fill-rule:evenodd;clip-rule:evenodd;fill:#A8C731;}
	.st38{fill-rule:evenodd;clip-rule:evenodd;fill:#85A214;}
	.st39{fill-rule:evenodd;clip-rule:evenodd;fill:#C6EF28;}
	.st40{fill-rule:evenodd;clip-rule:evenodd;fill:#ED982B;}
	.st41{fill-rule:evenodd;clip-rule:evenodd;fill:#FCCF7C;}
	.st42{fill-rule:evenodd;clip-rule:evenodd;fill:#FFE8BC;}
	.st43{fill-rule:evenodd;clip-rule:evenodd;fill:#ED6961;}
	.st44{fill-rule:evenodd;clip-rule:evenodd;fill:#696E1E;}
	.st45{fill-rule:evenodd;clip-rule:evenodd;fill:#9CA42A;}
	.st46{fill-rule:evenodd;clip-rule:evenodd;fill:#7F8615;}
	.st47{fill-rule:evenodd;clip-rule:evenodd;fill:#FFEECF;}
	.st48{fill-rule:evenodd;clip-rule:evenodd;fill:#77786D;}
	.st49{fill-rule:evenodd;clip-rule:evenodd;fill:#D3D5C6;}
	.st50{fill-rule:evenodd;clip-rule:evenodd;fill:#7C7A7A;}
	.st51{fill-rule:evenodd;clip-rule:evenodd;fill:#DBDCD9;}
	.st52{fill-rule:evenodd;clip-rule:evenodd;fill:#CA372D;}
	.st53{fill-rule:evenodd;clip-rule:evenodd;fill:#FE7D75;}
	.st54{fill-rule:evenodd;clip-rule:evenodd;fill:#B0B0B0;}
	.st55{fill-rule:evenodd;clip-rule:evenodd;fill:#888787;}
	.st56{fill-rule:evenodd;clip-rule:evenodd;fill:#6E6E6E;}
	.st57{fill-rule:evenodd;clip-rule:evenodd;fill:#757575;}
	.st58{fill-rule:evenodd;clip-rule:evenodd;fill:#60341E;}
	.st59{fill-rule:evenodd;clip-rule:evenodd;fill:#B0451B;}
	.st60{fill-rule:evenodd;clip-rule:evenodd;fill:#8A4727;}
	.st61{fill-rule:evenodd;clip-rule:evenodd;fill:#FABB64;}
	.st62{fill-rule:evenodd;clip-rule:evenodd;fill:#3E88AF;}
	.st63{fill-rule:evenodd;clip-rule:evenodd;fill:#5BA0C5;}
	.st64{fill-rule:evenodd;clip-rule:evenodd;fill:#FFF1DE;}
	.st65{fill-rule:evenodd;clip-rule:evenodd;fill:#F8B89B;}
	.st66{fill-rule:evenodd;clip-rule:evenodd;fill:#E98A5F;}
	.st67{fill-rule:evenodd;clip-rule:evenodd;fill:#FFCAB3;}
	.st68{fill-rule:evenodd;clip-rule:evenodd;fill:#F9A580;}
	.st69{fill-rule:evenodd;clip-rule:evenodd;fill:#FFDFD2;}
	.st70{fill-rule:evenodd;clip-rule:evenodd;fill:#E2A85C;}
	.st71{fill-rule:evenodd;clip-rule:evenodd;fill:#C68446;}
	.st72{fill-rule:evenodd;clip-rule:evenodd;fill:#F2BC75;}
	.st73{fill-rule:evenodd;clip-rule:evenodd;fill:#F2BC76;}
	.st74{fill-rule:evenodd;clip-rule:evenodd;fill:#FFD69F;}
	.st75{fill-rule:evenodd;clip-rule:evenodd;fill:#E7624B;}
	.st76{fill-rule:evenodd;clip-rule:evenodd;fill:#FFEED9;}
	.st77{fill-rule:evenodd;clip-rule:evenodd;fill:#C26E11;}
	.st78{fill-rule:evenodd;clip-rule:evenodd;fill:#F39226;}
	.st79{fill-rule:evenodd;clip-rule:evenodd;fill:#DF5020;}
	.st80{fill-rule:evenodd;clip-rule:evenodd;fill:#2C140B;}
	.st81{fill-rule:evenodd;clip-rule:evenodd;fill:#FFFFFF;}
	.st82{fill-rule:evenodd;clip-rule:evenodd;}
	.st83{fill-rule:evenodd;clip-rule:evenodd;fill:#A96F3E;}
	.st84{fill-rule:evenodd;clip-rule:evenodd;fill:#683A15;}
	.st85{fill-rule:evenodd;clip-rule:evenodd;fill:#F0DCCB;}
	.st86{fill-rule:evenodd;clip-rule:evenodd;fill:#E6D1B6;}
	.st87{fill-rule:evenodd;clip-rule:evenodd;fill:#69553C;}
</style>
<g>
	<path class="st36" d="M663.68,1006.91c-44.99,57-114.68,93.61-192.86,93.61c-135.53,0-245.56-110.03-245.56-245.57
		c0-135.53,110.03-245.56,245.56-245.56c135.53,0,245.57,110.03,245.57,245.56c0,0.74,0,1.49-0.01,2.22l572.54,154.57
		c41.7-76.24,122.66-127.99,215.6-127.99c135.53,0,245.56,110.03,245.56,245.56s-110.03,245.56-245.56,245.56
		c-122.49,0-224.16-89.88-242.59-207.22L663.68,1006.91L663.68,1006.91z"/>
	<path class="st37" d="M661.88,752.07c16.21-23.68-66.25-101.09-123.82-116.78c-139.51-38.03-246.19,57.27-270.03,130.52
		c-21.68,66.6-13.88,149.87,15.16,170.93c44.88,32.55,75.82-4.17,116.3-80.56c22.22-41.94,69.74-58.38,109.46-69.36
		C585.18,765.76,649.03,770.84,661.88,752.07L661.88,752.07z"/>
	<path class="st38" d="M641.49,886.93c-59.14,61.44-89.59,107.41-194.34,124.26c-64.96,10.45-165.28-31.87-163.36-24.57
		c7.72,29.37,53.78,63.27,121.74,87.18c51.74,18.21,119.36,11.65,166.97-16.31c66.99-39.34,112.07-93.48,121.69-171.04
		C701.54,827.19,673.7,853.48,641.49,886.93L641.49,886.93z"/>
	<path class="st38" d="M1714.67,1034.4c-7.84-14.79-8.99,35.11-22.84,69.58c-43.54,108.4-76.8,174.44-204.45,208.27
		c-67.46,17.88-96.81,6.82-100.79,18.21c-3.89,11.13,86.08,40.2,138.53,29.69c76.13-15.26,121.49-30.4,171.82-98.45
		C1743.15,1199.23,1747.92,1097.17,1714.67,1034.4L1714.67,1034.4z"/>
	<path class="st37" d="M1648.01,952.49c-23.64-17.91-67.52-49.32-122.3-51.96c-110.27-5.31-207.61,72.63-218.18,142.58
		c-9.9,65.52,26.37,140.91,67.78,138.25c65.64-4.23,91.54-40.74,143.61-95.58c47.1-49.62,111.69-39.96,154.92-56.89
		C1700.89,1018.28,1677.99,975.19,1648.01,952.49L1648.01,952.49z"/>
	<path class="st36" d="M436.73,626.47c-35.31,12.08-69,21.15-108.31,39.39c-16.57,7.69,8.81-119.83,26.09-122.64
		C377.94,539.41,441.81,624.73,436.73,626.47L436.73,626.47z"/>
	<path class="st37" d="M336.81,645.28c-2.65-14,1.34-51.16,4.53-63.13c1.09-4.11,10.09-31.3,15.25-33.09
		c10.15-3.52,17.71,28.59,15.25,40.18c-2.38,11.2-6.26,22.5-12.1,31.84C353.9,630.42,338.03,651.74,336.81,645.28L336.81,645.28z"/>
	<path class="st36" d="M569.68,779.94c-29.38,23.01-58.22,42.66-89.35,72.8c-13.13,12.71-31.06-116.07-15.66-124.4
		C485.55,717.04,573.91,776.63,569.68,779.94L569.68,779.94z"/>
	<path class="st37" d="M481.49,830.55c-7.1-12.35-15.55-48.75-16.47-61.11c-0.32-4.24-0.76-32.88,3.52-36.26
		c8.43-6.65,26.12,21.19,27.61,32.93c1.44,11.36,1.48,23.31-0.96,34.05C492.75,810.89,484.77,836.25,481.49,830.55L481.49,830.55z"
		/>
	<path class="st36" d="M633.37,883.92c-11.56-35.48-20.15-69.3-37.81-108.87c-7.45-16.68,119.69,10.55,122.25,27.87
		C721.28,826.4,635.03,889.03,633.37,883.92L633.37,883.92z"/>
	<path class="st37" d="M616.02,783.73c14.04-2.44,51.13,2.08,63.05,5.45c4.09,1.16,31.16,10.54,32.87,15.73
		c3.36,10.2-28.85,17.29-40.4,14.66c-11.16-2.54-22.4-6.59-31.66-12.56C630.63,801.04,609.53,784.86,616.02,783.73L616.02,783.73z"
		/>
	<path class="st36" d="M1579.28,901.04c-37.04-4.53-71.32-11.06-114.64-11.79c-18.27-0.31,60.19-103.99,76.97-98.98
		C1564.35,797.05,1584.62,901.69,1579.28,901.04L1579.28,901.04z"/>
	<path class="st37" d="M1481.16,874.39c3.72-13.75,23.51-45.45,31.61-54.83c2.78-3.22,22.73-23.77,28.15-23.13
		c10.66,1.27,3.46,33.45-3.8,42.81c-7.02,9.04-15.45,17.51-24.78,23.37C1503.02,868.47,1479.44,880.74,1481.16,874.39
		L1481.16,874.39z"/>
	<path class="st36" d="M1722.44,1028.7c-22.17-30.02-40.99-59.4-70.24-91.37c-12.33-13.48,116.9-27.76,124.8-12.13
		C1787.7,946.38,1725.63,1033.02,1722.44,1028.7L1722.44,1028.7z"/>
	<path class="st37" d="M1674.35,939.11c12.55-6.75,49.18-14.16,61.55-14.72c4.25-0.19,32.89,0.17,36.15,4.55
		c6.41,8.62-21.92,25.51-33.71,26.66c-11.39,1.11-23.34,0.82-34-1.93C1693.68,950.92,1668.56,942.22,1674.35,939.11L1674.35,939.11z
		"/>
	<path class="st36" d="M1697.39,1279.27c16.31-33.56,33.61-63.87,48.37-104.61c6.22-17.18,78.82,90.69,68.64,104.93
		C1800.59,1298.9,1695.04,1284.1,1697.39,1279.27L1697.39,1279.27z"/>
	<path class="st37" d="M1754.45,1195.11c11.8,7.98,35.35,37,41.6,47.7c2.14,3.67,15.1,29.21,12.74,34.14
		c-4.66,9.68-32.77-7.58-39.25-17.49c-6.27-9.58-11.55-20.3-14.07-31.02C1752.95,1217.71,1749,1191.42,1754.45,1195.11
		L1754.45,1195.11z"/>
	<path class="st36" d="M1477.46,1372.37c37.01-4.72,71.85-6.82,114.02-16.77c17.78-4.19-32.77,115.6-50.26,114.87
		C1517.5,1469.49,1472.12,1373.05,1477.46,1372.37L1477.46,1372.37z"/>
	<path class="st37" d="M1579.12,1374.07c-0.22,14.25-11.61,49.84-17.16,60.92c-1.9,3.8-16.18,28.63-21.6,29.34
		c-10.65,1.4-11.58-31.58-6.84-42.43c4.58-10.49,10.66-20.78,18.26-28.75C1559.38,1385.19,1579.22,1367.5,1579.12,1374.07
		L1579.12,1374.07z"/>
	<path class="st36" d="M1296.71,1223.23c19.9,31.56,36.52,62.25,63.34,96.28c11.31,14.35-118.62,19.1-125.35,2.94
		C1225.57,1300.54,1293.84,1218.68,1296.71,1223.23L1296.71,1223.23z"/>
	<path class="st37" d="M1338.09,1316.1c-13.01,5.81-50.08,10.51-62.47,10.17c-4.25-0.12-32.79-2.58-35.72-7.19
		c-5.76-9.06,23.73-23.83,35.57-24.12c11.44-0.28,23.33,0.9,33.77,4.42C1319.68,1302.91,1344.09,1313.42,1338.09,1316.1
		L1338.09,1316.1z"/>
	<path class="st36" d="M1505.13,1286.99c26.15-26.62,52.2-49.84,79.16-83.76c11.37-14.3,45.84,111.06,31.65,121.32
		C1596.71,1338.47,1501.36,1290.83,1505.13,1286.99L1505.13,1286.99z"/>
	<path class="st37" d="M1586.02,1225.39c8.64,11.33,21.74,46.33,24.25,58.46c0.86,4.17,5.02,32.5,1.2,36.42
		c-7.5,7.69-28.64-17.62-31.64-29.08c-2.9-11.07-4.48-22.92-3.45-33.88C1577.4,1246.34,1582.03,1220.16,1586.02,1225.39
		L1586.02,1225.39z"/>
	<path class="st36" d="M1636.03,1177.85c-3.19-37.18-3.86-72.07-12.06-114.62c-3.46-17.94,114.16,37.5,112.71,54.94
		C1734.71,1141.83,1636.49,1183.2,1636.03,1177.85L1636.03,1177.85z"/>
	<path class="st37" d="M1641.91,1076.35c14.22,0.81,49.32,13.66,60.16,19.65c3.72,2.05,27.94,17.35,28.43,22.79
		c0.96,10.7-32.02,10.28-42.67,5.09c-10.29-5.01-20.32-11.51-27.97-19.43C1652.2,1096.52,1635.34,1075.97,1641.91,1076.35
		L1641.91,1076.35z"/>
	<path class="st36" d="M1531,1090.71c-27.04,25.71-53.87,48.03-81.97,81.01c-11.85,13.9-42.02-112.57-27.49-122.34
		C1441.24,1036.13,1534.89,1087,1531,1090.71L1531,1090.71z"/>
	<path class="st37" d="M1448.05,1149.51c-8.25-11.61-20.14-47.05-22.23-59.26c-0.72-4.19-3.9-32.66,0.04-36.43
		c7.75-7.43,28.03,18.59,30.63,30.14c2.52,11.17,3.7,23.06,2.3,33.99C1457.38,1128.87,1451.86,1154.87,1448.05,1149.51
		L1448.05,1149.51z"/>
	<path class="st36" d="M1379.5,920.8c-24.82,27.86-49.71,52.32-74.99,87.51c-10.66,14.84-51.19-108.7-37.52-119.64
		C1285.53,873.84,1383.08,916.78,1379.5,920.8L1379.5,920.8z"/>
	<path class="st37" d="M1301.71,986.26c-9.18-10.89-23.96-45.22-27.06-57.21c-1.06-4.12-6.59-32.22-2.97-36.31
		c7.12-8.05,29.47,16.21,33.02,27.51c3.43,10.92,5.6,22.67,5.1,33.67C1309.29,964.92,1305.95,991.29,1301.71,986.26L1301.71,986.26z
		"/>
	<path class="st36" d="M664.86,706.34c-29.99-22.21-56.59-44.79-93.92-66.79c-15.74-9.28,103.65-60.78,115.77-48.15
		C703.15,608.51,669.18,709.53,664.86,706.34L664.86,706.34z"/>
	<path class="st37" d="M592.65,634.76c10.02-10.12,42.87-27.94,54.54-32.1c4-1.43,31.49-9.47,35.89-6.23
		c8.65,6.36-13.48,30.81-24.42,35.36c-10.56,4.4-22.07,7.62-33.08,8.11C614.58,640.39,588.02,639.44,592.65,634.76L592.65,634.76z"
		/>
	<path class="st36" d="M242.84,779.87c-4.98,36.98-11.92,71.18-13.19,114.49c-0.53,18.26-103.25-61.45-98.04-78.17
		C138.68,793.53,243.56,774.55,242.84,779.87L242.84,779.87z"/>
	<path class="st37" d="M215,877.66c-13.71-3.89-45.16-24.07-54.44-32.28c-3.19-2.82-23.49-23.02-22.78-28.43
		c1.4-10.65,33.49-3.06,42.76,4.32c8.95,7.13,17.32,15.66,23.06,25.06C209.34,855.73,221.32,879.46,215,877.66L215,877.66z"/>
	<path class="st36" d="M280.21,1005.47c30.48,21.52,57.59,43.49,95.41,64.64c15.95,8.92-102.24,63.12-114.65,50.77
		C244.15,1104.14,275.82,1002.37,280.21,1005.47L280.21,1005.47z"/>
	<path class="st37" d="M354.03,1075.39c-9.79,10.35-42.23,28.91-53.8,33.34c-3.97,1.52-31.27,10.18-35.74,7.05
		c-8.8-6.16,12.78-31.11,23.61-35.91c10.46-4.64,21.9-8.12,32.89-8.86C331.97,1070.26,358.56,1070.61,354.03,1075.39L354.03,1075.39
		z"/>
	<path class="st36" d="M490.89,1093.67c35.57-11.27,69.47-19.57,109.18-36.9c16.74-7.31-11.55,119.6-28.89,122.01
		C547.66,1182.05,485.76,1095.29,490.89,1093.67L490.89,1093.67z"/>
	<path class="st37" d="M591.21,1077.15c2.33,14.05-2.51,51.11-5.98,63c-1.19,4.08-10.8,31.07-16,32.73
		c-10.23,3.28-17.05-28.99-14.33-40.51c2.63-11.14,6.77-22.35,12.83-31.55C573.78,1091.62,590.14,1070.66,591.21,1077.15
		L591.21,1077.15z"/>
	<path class="st36" d="M410.79,964.78c37.31,0.33,72.11,2.95,115.24-1.21c18.19-1.75-48.08,110.11-65.32,107.03
		C437.35,1066.42,405.42,964.74,410.79,964.78L410.79,964.78z"/>
	<path class="st37" d="M511.29,980.21c-2.15,14.08-18.24,47.81-25.23,58.04c-2.4,3.51-19.91,26.18-25.37,26.15
		c-10.74-0.05-7.21-32.85-1.05-42.96c5.96-9.78,13.38-19.14,21.98-26.02C490.24,988.55,512.29,973.7,511.29,980.21L511.29,980.21z"
		/>
	<path class="st38" d="M494.01,864.24c-8.04-14.69-24.3-64.47-24.58-100.01c-0.06-7.17,0.54-13.74,2.09-19.22
		c1.29-4.56,3.18-8.31,6.18-10.71c2.78-2.22,3.24-6.28,1.02-9.06c-2.22-2.78-6.28-3.24-9.06-1.02c-9.12,7.27-13.26,22.01-13.12,40.1
		c0.3,37.72,17.64,90.52,26.16,106.1c1.71,3.12,5.63,4.27,8.75,2.56C494.57,871.28,495.72,867.36,494.01,864.24L494.01,864.24z"/>
	<path class="st38" d="M508.89,749.79c32,14.28,49.55,33.7,57.49,46.81c1.84,3.04,5.81,4.01,8.85,2.17
		c3.04-1.84,4.02-5.81,2.18-8.85c-8.76-14.46-27.95-36.13-63.26-51.9c-3.25-1.45-7.06,0.01-8.51,3.26
		C504.18,744.53,505.64,748.34,508.89,749.79L508.89,749.79z"/>
	<path class="st38" d="M549.82,802.13c-0.52,7.85-5.83,14.66-12.2,20.62c-11.18,10.45-26.03,18.12-32.35,22.46
		c-2.93,2.01-3.68,6.03-1.66,8.96c2.01,2.93,6.03,3.68,8.96,1.67c6.62-4.55,22.13-12.72,33.85-23.67
		c8.89-8.31,15.53-18.23,16.26-29.18c0.23-3.55-2.45-6.62-6-6.86C553.13,795.89,550.05,798.58,549.82,802.13L549.82,802.13z"/>
	<path class="st38" d="M397.7,942.78c5.59,37.35,22.27,106.3,49.89,133.92c2.52,2.51,6.6,2.51,9.12,0c2.51-2.52,2.51-6.6,0-9.12
		c-10.2-10.2-18.6-26.61-25.49-44.74c-10.69-28.17-17.56-60.54-20.77-81.97c-0.53-3.52-3.81-5.94-7.33-5.42
		C399.6,935.98,397.17,939.26,397.7,942.78L397.7,942.78z"/>
	<path class="st38" d="M430.9,947.73c17.04,3.68,35.22,2.6,53.39,12.46c3.13,1.7,7.04,0.53,8.74-2.6c1.7-3.12,0.53-7.04-2.59-8.74
		c-19.37-10.5-38.65-9.8-56.81-13.72c-3.47-0.75-6.91,1.46-7.66,4.94C425.21,943.54,427.42,946.97,430.9,947.73L430.9,947.73z"/>
	<path class="st38" d="M438.91,964.57c7.6,4.13,28.87,8.41,37.41,11.26c3.38,1.12,7.03-0.7,8.15-4.08c1.12-3.37-0.7-7.03-4.08-8.15
		c-8.06-2.69-28.17-6.47-35.34-10.36c-3.13-1.7-7.04-0.54-8.74,2.58C434.62,958.95,435.78,962.87,438.91,964.57L438.91,964.57z"/>
	<path class="st38" d="M490.13,945.67c8.23,2.48,15.61,5.53,21.26,9.54c4.76,3.39,8.22,7.43,9.4,12.61
		c1.05,4.63,0.29,10.02-2.4,16.39c-1.38,3.28,0.15,7.06,3.43,8.44c3.28,1.38,7.06-0.15,8.44-3.43c5.37-12.72,4.79-22.91,0.6-31.16
		c-5.85-11.53-19.66-19.5-37.01-24.73c-3.4-1.03-7,0.9-8.03,4.31C484.8,941.04,486.73,944.64,490.13,945.67L490.13,945.67z"/>
	<path class="st38" d="M489.39,1099.55c7.73,12.97,17.61,32.65,29.44,48.58c8.54,11.5,18.16,21.03,28.55,25.55
		c3.26,1.42,7.06-0.07,8.48-3.33c1.42-3.26-0.07-7.06-3.34-8.48c-8.59-3.74-16.29-11.91-23.35-21.42
		c-11.56-15.57-21.16-34.82-28.71-47.5c-1.82-3.05-5.78-4.06-8.83-2.24C488.57,1092.54,487.56,1096.5,489.39,1099.55L489.39,1099.55
		z"/>
	<path class="st38" d="M515.22,1097.8c5.47,15.4,11.44,32.07,20.07,44.8c1.99,2.95,6.01,3.72,8.95,1.73c2.94-2,3.72-6.01,1.72-8.95
		c-8.05-11.89-13.49-27.51-18.59-41.89c-1.19-3.35-4.87-5.11-8.23-3.92C515.78,1090.76,514.03,1094.45,515.22,1097.8L515.22,1097.8z
		"/>
	<path class="st38" d="M265.37,1093.45c-0.96-23.95,8.91-56.93,20.07-77.65c1.69-3.13,0.51-7.05-2.62-8.73
		c-3.13-1.68-7.04-0.51-8.73,2.62c-12.1,22.48-22.65,58.29-21.6,84.28c0.14,3.56,3.14,6.32,6.7,6.18
		C262.74,1100,265.51,1097,265.37,1093.45L265.37,1093.45z"/>
	<path class="st38" d="M290.04,1067.38c-0.02-5.19,0.58-12.79,2.24-19.01c0.81-3.01,1.61-5.73,3.19-7.04
		c2.74-2.27,3.11-6.34,0.84-9.08c-2.27-2.74-6.34-3.11-9.08-0.84c-2.5,2.08-4.68,5.53-6.24,9.87c-2.82,7.85-3.87,18.93-3.85,26.13
		c0.01,3.56,2.91,6.44,6.47,6.43C287.17,1073.83,290.05,1070.93,290.04,1067.38L290.04,1067.38z"/>
	<path class="st38" d="M160.76,807.21c20.53-12.12,58.22-15,76.64-17.53c3.52-0.48,5.99-3.74,5.51-7.26
		c-0.48-3.52-3.74-5.99-7.26-5.51c-19.6,2.7-59.59,6.3-81.44,19.2c-3.06,1.81-4.08,5.76-2.27,8.83
		C153.74,808,157.7,809.02,160.76,807.21L160.76,807.21z"/>
	<path class="st38" d="M198.14,814.4c7.7-0.18,27.09-2.33,36.11,0.33c3.41,1,7-0.95,8-4.36c1.01-3.41-0.95-7-4.36-8
		c-10-2.94-31.5-1.04-40.04-0.85c-3.55,0.08-6.37,3.04-6.29,6.59C191.63,811.66,194.58,814.49,198.14,814.4L198.14,814.4z"/>
	<path class="st38" d="M375.07,565.67c19.09,12.38,36.15,36.68,44.04,50.5c1.77,3.09,5.71,4.16,8.79,2.4
		c3.09-1.77,4.16-5.71,2.4-8.8c-8.61-15.07-27.4-41.42-48.22-54.92c-2.98-1.94-6.98-1.08-8.92,1.9
		C371.23,559.74,372.08,563.73,375.07,565.67L375.07,565.67z"/>
	<path class="st38" d="M352.63,657.07c20.55-15.39,40.01-25.92,60.41-27.69c3.54-0.31,6.17-3.43,5.86-6.98
		c-0.31-3.54-3.43-6.17-6.98-5.86c-22.56,1.96-44.29,13.19-67.02,30.21c-2.85,2.13-3.43,6.18-1.3,9.02
		C345.74,658.62,349.78,659.21,352.63,657.07L352.63,657.07z"/>
	<path class="st38" d="M379.8,595.25c6.32,3.97,11.51,12.61,14.19,16.85c1.9,3.01,5.88,3.91,8.89,2.01c3.01-1.9,3.91-5.88,2.01-8.89
		c-3.37-5.34-10.28-15.89-18.24-20.89c-3.01-1.89-6.99-0.98-8.89,2.03C375.88,589.38,376.79,593.36,379.8,595.25L379.8,595.25z"/>
	<path class="st38" d="M681.03,620.4c-0.87,19.22-3.98,40.86-8.87,57.88c-3.01,10.47-6.55,19.14-10.87,23.91
		c-2.39,2.63-2.19,6.72,0.45,9.1c2.64,2.39,6.71,2.19,9.1-0.45c5.27-5.82,10.02-16.21,13.7-29.01c5.14-17.89,8.45-40.64,9.36-60.85
		c0.16-3.55-2.6-6.57-6.15-6.73C684.2,614.09,681.19,616.85,681.03,620.4L681.03,620.4z"/>
	<path class="st38" d="M658.83,647.79c-2.12,14.17-4.18,22.23-15.65,32.06c-2.7,2.32-3.01,6.39-0.69,9.09
		c2.32,2.7,6.39,3.01,9.09,0.69c14.35-12.31,17.34-22.2,20-39.94c0.53-3.52-1.9-6.8-5.42-7.33
		C662.65,641.84,659.36,644.27,658.83,647.79L658.83,647.79z"/>
	<path class="st38" d="M602.07,876.3c43.07,2.52,85.52-19.9,118.42-53.62c2.49-2.54,2.44-6.63-0.11-9.11
		c-2.54-2.48-6.63-2.43-9.11,0.11c-30.2,30.95-68.92,52.07-108.45,49.75c-3.55-0.21-6.6,2.51-6.81,6.06
		C595.8,873.04,598.52,876.09,602.07,876.3L602.07,876.3z"/>
	<path class="st38" d="M594.46,778.74c-3.93,4.31-8.02,13.98-10.63,25.62c-3.71,16.58-4.67,37.1-0.08,49.94
		c1.19,3.35,4.89,5.1,8.24,3.9c3.35-1.19,5.1-4.89,3.9-8.24c-3.93-10.99-2.66-28.58,0.52-42.78c1.99-8.88,4.57-16.46,7.56-19.74
		c2.4-2.62,2.22-6.71-0.41-9.11C600.94,775.93,596.86,776.11,594.46,778.74L594.46,778.74z"/>
	<path class="st38" d="M619.4,854.69c20.08,2.39,39.06-8.51,52.79-16.29c3.09-1.75,4.19-5.69,2.43-8.79
		c-1.75-3.09-5.69-4.19-8.78-2.43c-11.75,6.65-27.73,16.75-44.92,14.71c-3.53-0.42-6.74,2.1-7.16,5.64
		C613.34,851.07,615.87,854.28,619.4,854.69L619.4,854.69z"/>
	<path class="st38" d="M1284.14,890.83c39.14,2.5,78.11,20.61,99.48,34.96c2.95,1.98,6.96,1.2,8.94-1.76
		c1.98-2.95,1.2-6.96-1.76-8.94c-22.73-15.26-64.2-34.46-105.84-37.12c-3.55-0.23-6.62,2.47-6.84,6.02
		C1277.89,887.53,1280.59,890.6,1284.14,890.83L1284.14,890.83z"/>
	<path class="st38" d="M1324.65,916.39c8.9,1.69,18.34,5.01,25.31,8.68c3.78,1.99,6.83,3.87,8.11,5.77
		c1.98,2.95,5.99,3.75,8.94,1.77c2.95-1.98,3.75-5.99,1.77-8.94c-1.64-2.44-4.72-5.21-8.94-7.81c-8.13-5-20.87-9.87-32.78-12.13
		c-3.49-0.66-6.87,1.64-7.53,5.13C1318.85,912.35,1321.15,915.72,1324.65,916.39L1324.65,916.39z"/>
	<path class="st38" d="M1312.92,1011.1c18.21-7.2,62.46-50.29,76.75-70.31c2.07-2.89,1.39-6.92-1.5-8.99
		c-2.89-2.07-6.92-1.39-8.99,1.5c-13.29,18.62-54.06,59.11-71,65.81c-3.31,1.31-4.93,5.06-3.62,8.36
		C1305.87,1010.78,1309.62,1012.4,1312.92,1011.1L1312.92,1011.1z"/>
	<path class="st38" d="M1349.45,941.7c-6.73,7.2-9.58,10.77-19.63,16.63c-3.07,1.79-4.11,5.74-2.32,8.82
		c1.79,3.07,5.74,4.11,8.82,2.32c11.51-6.71,14.84-10.71,22.55-18.96c2.43-2.6,2.29-6.68-0.31-9.11
		C1355.96,938.96,1351.88,939.1,1349.45,941.7L1349.45,941.7z"/>
	<path class="st38" d="M1271.05,1022.98c-9.7,10.26-15.97,25.98-19.34,43.49c-4.83,25.1-3.88,53.87-0.19,73.93
		c0.64,3.5,4,5.82,7.5,5.17c3.5-0.64,5.82-4,5.18-7.5c-3.45-18.77-4.35-45.69,0.17-69.17c2.86-14.86,7.81-28.37,16.04-37.07
		c2.44-2.58,2.33-6.67-0.25-9.11C1277.58,1020.29,1273.49,1020.4,1271.05,1022.98L1271.05,1022.98z"/>
	<path class="st38" d="M1282.5,1048.53c-10.2,20.54-8.64,45.42-9.85,70.14c-0.17,3.56,2.57,6.58,6.12,6.75
		c3.55,0.17,6.58-2.57,6.75-6.12c1.12-22.89-0.93-46.02,8.52-65.04c1.58-3.19,0.28-7.06-2.9-8.64
		C1287.95,1044.04,1284.08,1045.34,1282.5,1048.53L1282.5,1048.53z"/>
	<path class="st38" d="M757.08,970.99c137.54,26.09,344.53,96.16,437,112.6c3.5,0.62,6.85-1.72,7.47-5.22
		c0.62-3.5-1.72-6.85-5.22-7.48c-92.44-16.43-299.36-86.5-436.86-112.57c-3.49-0.66-6.87,1.64-7.53,5.13
		C751.28,966.95,753.58,970.33,757.08,970.99L757.08,970.99z"/>
	<path class="st38" d="M811.29,954.45c49.51,10.72,201,59.12,250.51,69.85c3.48,0.75,6.91-1.46,7.66-4.93
		c0.75-3.48-1.46-6.91-4.93-7.66c-49.51-10.74-201-59.13-250.52-69.85c-3.47-0.75-6.91,1.46-7.66,4.93
		C805.6,950.26,807.82,953.7,811.29,954.45L811.29,954.45z"/>
	<path class="st38" d="M852.3,1023.51c112.52,33.45,221.42,57.41,300.98,80.13c3.42,0.98,6.99-1.01,7.97-4.42
		c0.98-3.42-1.01-6.99-4.43-7.97c-79.52-22.72-188.38-46.65-300.85-80.09c-3.41-1.01-7,0.93-8.01,4.34
		C846.95,1018.91,848.89,1022.5,852.3,1023.51L852.3,1023.51z"/>
	<path class="st38" d="M1290.82,1213.77c-25.76,20.62-45.65,55.73-58.45,86.58c-1.37,3.29,0.2,7.06,3.48,8.42
		c3.29,1.36,7.06-0.2,8.42-3.48c12.02-28.96,30.42-62.09,54.6-81.46c2.78-2.22,3.23-6.28,1-9.06
		C1297.66,1211.99,1293.6,1211.54,1290.82,1213.77L1290.82,1213.77z"/>
	<path class="st38" d="M1312.02,1229.11c-11.21,13.32-10.38,13.27-19.68,27.62c-1.93,2.99-1.08,6.98,1.9,8.92
		c2.99,1.93,6.98,1.08,8.92-1.91c8.85-13.67,8.04-13.64,18.72-26.33c2.29-2.72,1.94-6.79-0.78-9.08
		C1318.38,1226.04,1314.31,1226.39,1312.02,1229.11L1312.02,1229.11z"/>
	<path class="st38" d="M1323.43,1222.01c22.02,21.68,40.01,49.15,46.67,68.02c1.18,3.36,4.87,5.12,8.22,3.93
		c3.35-1.18,5.12-4.87,3.93-8.22c-7.13-20.2-26.21-49.71-49.79-72.91c-2.53-2.5-6.62-2.46-9.11,0.07
		C1320.86,1215.43,1320.9,1219.51,1323.43,1222.01L1323.43,1222.01z"/>
	<path class="st38" d="M1325.56,1269.19c5.26,2.16,10.1,7.42,14.68,13.92c7.78,11.06,14.4,25.77,19.1,38.36
		c1.24,3.33,4.96,5.03,8.29,3.78c3.33-1.25,5.03-4.96,3.78-8.29c-5.07-13.56-12.26-29.36-20.64-41.27
		c-6.2-8.81-13.2-15.5-20.33-18.42c-3.29-1.35-7.06,0.23-8.41,3.52C1320.69,1264.08,1322.27,1267.84,1325.56,1269.19
		L1325.56,1269.19z"/>
	<path class="st38" d="M1414.24,1105.88c11.21,49.86,17.42,73.51,45.06,92.5c2.93,2.01,6.95,1.27,8.96-1.66
		c2.01-2.93,1.27-6.95-1.66-8.96c-25.15-17.27-29.59-39.35-39.78-84.7c-0.78-3.47-4.23-5.65-7.7-4.87
		C1415.65,1098.95,1413.46,1102.4,1414.24,1105.88L1414.24,1105.88z"/>
	<path class="st38" d="M1439.66,1054.29c27.74,4.23,54.86,21.96,70.39,35.9c6.06,5.44,10.33,10.13,11.7,13.11
		c1.48,3.23,5.31,4.65,8.55,3.17c3.23-1.48,4.65-5.31,3.17-8.54c-1.77-3.86-6.94-10.26-14.81-17.32
		c-16.97-15.24-46.72-34.43-77.05-39.05c-3.52-0.54-6.81,1.88-7.34,5.4C1433.73,1050.47,1436.15,1053.76,1439.66,1054.29
		L1439.66,1054.29z"/>
	<path class="st38" d="M1527.01,1121.51c-1.07,6.45-6.09,14.51-12.59,22.68c-10.48,13.16-25.06,26.33-36.55,33.17
		c-3.06,1.82-4.06,5.78-2.24,8.83c1.82,3.06,5.78,4.06,8.84,2.24c12.56-7.48,28.58-21.82,40.04-36.21
		c8.12-10.2,13.88-20.53,15.22-28.59c0.58-3.51-1.79-6.83-5.3-7.42C1530.92,1115.63,1527.6,1118,1527.01,1121.51L1527.01,1121.51z"
		/>
	<path class="st38" d="M1503.78,1122.21c-5.91,6.37-16.59,21.19-25.06,28.76c-2.66,2.37-2.88,6.45-0.52,9.1
		c2.37,2.66,6.45,2.88,9.1,0.52c8.75-7.81,19.83-23.04,25.93-29.61c2.42-2.61,2.27-6.69-0.34-9.11
		C1510.28,1119.44,1506.2,1119.6,1503.78,1122.21L1503.78,1122.21z"/>
	<path class="st38" d="M1552.02,817.96c14.27,24.88,20.38,50.12,21.28,77.7c0.12,3.56,3.1,6.35,6.65,6.23
		c3.55-0.12,6.35-3.1,6.23-6.65c-0.98-29.72-7.61-56.89-22.98-83.69c-1.77-3.08-5.71-4.16-8.8-2.39
		C1551.32,810.94,1550.25,814.88,1552.02,817.96L1552.02,817.96z"/>
	<path class="st38" d="M1484.22,895.69c16.44-4.13,48.5-3.18,65.52,2.38c3.38,1.1,7.03-0.74,8.13-4.13
		c1.11-3.38-0.74-7.03-4.13-8.13c-18.87-6.16-54.42-7.2-72.66-2.63c-3.45,0.87-5.55,4.37-4.68,7.82
		C1477.26,894.45,1480.77,896.55,1484.22,895.69L1484.22,895.69z"/>
	<path class="st38" d="M1546.6,850.03c2.84,6.8,4.84,13.69,5.63,19c0.35,2.36,0.67,4.25,0.25,5.33c-1.3,3.31,0.33,7.05,3.64,8.35
		c3.31,1.3,7.06-0.33,8.36-3.64c0.77-1.95,1.17-4.98,0.87-8.78c-0.51-6.47-2.96-15.95-6.84-25.24c-1.37-3.28-5.15-4.83-8.44-3.46
		C1546.77,842.96,1545.22,846.74,1546.6,850.03L1546.6,850.03z"/>
	<path class="st38" d="M1659.52,948.59c11.79,21.07,32.38,53.47,49.96,70.72c2.54,2.49,6.62,2.45,9.12-0.09
		c2.49-2.54,2.45-6.62-0.09-9.11c-16.84-16.52-36.45-47.63-47.74-67.82c-1.74-3.1-5.67-4.21-8.77-2.47
		C1658.89,941.56,1657.78,945.49,1659.52,948.59L1659.52,948.59z"/>
	<path class="st38" d="M1764.73,946.64c-5.85,22.07-17.39,45.8-39.06,64.38c-2.7,2.32-3.01,6.39-0.7,9.09
		c2.32,2.7,6.39,3.01,9.09,0.7c23.87-20.47,36.68-46.54,43.13-70.86c0.91-3.44-1.14-6.97-4.58-7.88
		C1769.17,941.14,1765.64,943.2,1764.73,946.64L1764.73,946.64z"/>
	<path class="st38" d="M1737.74,966.06c-4.86,6.98-7.12,13.46-17.85,19.96c-3.05,1.84-4.02,5.81-2.18,8.85
		c1.84,3.05,5.81,4.02,8.85,2.18c12.87-7.79,15.93-15.25,21.76-23.62c2.03-2.92,1.31-6.94-1.6-8.97
		C1743.79,962.42,1739.77,963.14,1737.74,966.06L1737.74,966.06z"/>
	<path class="st38" d="M1630.16,1185.56c29.64-8.78,64.27-18.95,91.63-33.78c3.13-1.69,4.29-5.61,2.6-8.73
		c-1.7-3.13-5.61-4.29-8.74-2.6c-26.61,14.41-60.32,24.21-89.14,32.75c-3.41,1.01-5.36,4.6-4.35,8.01
		C1623.16,1184.62,1626.75,1186.57,1630.16,1185.56L1630.16,1185.56z"/>
	<path class="st38" d="M1626.89,1152.3c-1.63-3.85-1.82-10.68-1.44-18.76c0.98-20.98,6.81-49.67,12.04-62.2
		c1.37-3.28-0.19-7.06-3.47-8.43c-3.28-1.37-7.06,0.18-8.43,3.47c-5.6,13.41-11.97,44.1-13.02,66.56
		c-0.49,10.53,0.32,19.39,2.45,24.41c1.39,3.28,5.18,4.8,8.45,3.41C1626.76,1159.36,1628.29,1155.57,1626.89,1152.3L1626.89,1152.3z
		"/>
	<path class="st38" d="M1475.71,1279.51c24.98,25.6,69.49,43.18,102.92,52.34c3.43,0.94,6.98-1.08,7.92-4.51
		c0.94-3.43-1.08-6.98-4.51-7.92c-31.48-8.63-73.57-24.8-97.1-48.91c-2.48-2.54-6.57-2.59-9.11-0.11
		C1473.28,1272.88,1473.23,1276.97,1475.71,1279.51L1475.71,1279.51z"/>
	<path class="st38" d="M1489.32,1256.26c13.94-29.9,49.12-42.32,69.54-42.16c3.55,0.03,6.46-2.84,6.49-6.39
		c0.03-3.56-2.84-6.47-6.39-6.5c-23.92-0.18-65,14.59-81.33,49.61c-1.5,3.23-0.1,7.06,3.12,8.57
		C1483.98,1260.88,1487.82,1259.49,1489.32,1256.26L1489.32,1256.26z"/>
	<path class="st38" d="M1471.45,1377.37c10.15,21.49,25.28,50.48,36.79,66.5c2.08,2.89,6.11,3.55,9,1.47c2.89-2.08,3.55-6.11,1.47-9
		c-11.16-15.53-25.77-43.66-35.6-64.48c-1.52-3.22-5.36-4.6-8.58-3.08C1471.31,1370.3,1469.93,1374.15,1471.45,1377.37
		L1471.45,1377.37z"/>
	<path class="st38" d="M1501.6,1385.66c0.27,6.76,2.31,12.52,4.78,18.2c2.03,4.65,4.38,9.24,5.74,14.59
		c0.87,3.45,4.38,5.54,7.83,4.66c3.45-0.88,5.54-4.38,4.66-7.83c-1.54-6.07-4.12-11.31-6.42-16.58c-1.85-4.24-3.52-8.5-3.72-13.55
		c-0.14-3.55-3.14-6.33-6.69-6.19C1504.24,1379.1,1501.46,1382.1,1501.6,1385.66L1501.6,1385.66z"/>
	<path class="st38" d="M1703.7,1281.15c18.02,3.95,53.88,10.91,71.66,8.82c3.53-0.42,6.06-3.62,5.65-7.15
		c-0.42-3.54-3.62-6.07-7.15-5.65c-16.73,1.96-50.44-4.89-67.39-8.61c-3.47-0.76-6.91,1.44-7.68,4.91
		C1698.02,1276.94,1700.22,1280.38,1703.7,1281.15L1703.7,1281.15z"/>
	<path class="st38" d="M1723.15,1265.13c8.51,1.64,15.92,4.33,28.2,4.57c3.56,0.07,6.5-2.76,6.57-6.32c0.07-3.56-2.76-6.5-6.32-6.57
		c-11.34-0.22-18.17-2.83-26.02-4.34c-3.49-0.67-6.87,1.62-7.55,5.11C1717.37,1261.08,1719.66,1264.46,1723.15,1265.13
		L1723.15,1265.13z"/>
	<path class="st39" d="M329.94,677.44c-55.45,53.61-82.82,105.24-72.11,203.98c0.38,3.54,3.57,6.1,7.1,5.71
		c3.54-0.38,6.1-3.56,5.71-7.1c-10.15-93.56,15.71-142.52,68.25-193.32c2.56-2.47,2.63-6.56,0.15-9.11
		C336.58,675.04,332.5,674.97,329.94,677.44L329.94,677.44z"/>
	<path class="st39" d="M327.9,710.08c-29.95,25.72-53.08,81.94-52.42,126.14c0.05,3.55,2.98,6.4,6.54,6.35
		c3.56-0.05,6.4-2.98,6.35-6.54c-0.61-40.66,20.38-92.5,47.93-116.17c2.7-2.32,3.01-6.39,0.69-9.09
		C334.67,708.07,330.6,707.77,327.9,710.08L327.9,710.08z"/>
	<path class="st39" d="M282.79,705.57c-10.36,10.94-32.03,44.45-34.13,65.89c-0.35,3.54,2.25,6.7,5.79,7.04
		c3.54,0.35,6.69-2.25,7.04-5.79c1.85-19.04,21.46-48.58,30.66-58.28c2.44-2.58,2.33-6.67-0.25-9.11
		C289.32,702.88,285.24,702.99,282.79,705.57L282.79,705.57z"/>
	<path class="st39" d="M153.77,837.49c9.42,13.93,30.83,25.14,43.93,32.89c3.06,1.81,7.02,0.79,8.83-2.27
		c1.81-3.06,0.79-7.02-2.27-8.83c-11.76-6.95-31.35-16.5-39.81-29.01c-1.99-2.95-6-3.73-8.95-1.73
		C152.55,830.54,151.78,834.54,153.77,837.49L153.77,837.49z"/>
	<path class="st39" d="M350.38,563.6c-1.62,5.15-3.03,12.17-3.73,15.68c-0.69,3.49,1.57,6.89,5.06,7.58
		c3.49,0.7,6.88-1.57,7.58-5.06c0.64-3.21,1.91-9.64,3.38-14.34c1.07-3.39-0.82-7.01-4.22-8.08
		C355.07,558.31,351.45,560.2,350.38,563.6L350.38,563.6z"/>
	<path class="st39" d="M482.79,756.97c15.81,6.4,37.86,18.58,48.89,32.77c2.18,2.81,6.23,3.32,9.04,1.14
		c2.81-2.18,3.32-6.24,1.13-9.04c-12.28-15.81-36.63-29.68-54.23-36.81c-3.3-1.34-7.06,0.26-8.39,3.56
		C477.9,751.87,479.49,755.63,482.79,756.97L482.79,756.97z"/>
	<path class="st39" d="M444.5,640.45c44.6-9.5,102.25,6.75,128.77,25.06c2.93,2.02,6.95,1.29,8.97-1.64
		c2.02-2.93,1.29-6.95-1.64-8.97c-28.59-19.74-90.71-37.3-138.78-27.06c-3.48,0.74-5.7,4.17-4.96,7.65
		C437.59,638.97,441.02,641.2,444.5,640.45L444.5,640.45z"/>
	<path class="st39" d="M501.82,659.4c16.86,0.34,37.82,9.6,55.29,19.45c17.31,9.76,31.26,20.07,33.86,23.52
		c2.14,2.84,6.19,3.41,9.03,1.27c2.84-2.14,3.41-6.19,1.27-9.03c-2.94-3.89-18.32-16-37.83-27c-19.35-10.91-42.71-20.74-61.37-21.11
		c-3.55-0.07-6.5,2.76-6.57,6.31C495.43,656.38,498.26,659.33,501.82,659.4L501.82,659.4z"/>
	<path class="st39" d="M630.56,635.6c6.35-4.77,13.79-10.27,26.97-15.94c3.27-1.41,4.78-5.2,3.37-8.47
		c-1.41-3.27-5.2-4.78-8.47-3.37c-14.46,6.23-22.65,12.24-29.61,17.47c-2.84,2.13-3.42,6.18-1.29,9.02
		C623.67,637.16,627.71,637.74,630.56,635.6L630.56,635.6z"/>
	<path class="st39" d="M623.2,788.4c18.2-3.35,51.82,3.65,70.99,12.38c3.24,1.47,7.06,0.04,8.54-3.2c1.47-3.24,0.04-7.06-3.2-8.54
		c-21.23-9.66-58.52-17.03-78.67-13.32c-3.5,0.64-5.81,4.01-5.17,7.51C616.34,786.73,619.71,789.05,623.2,788.4L623.2,788.4z"/>
	<path class="st39" d="M650.18,805.85c8.22,0.21,23.34,5.86,31.45,7.34c3.5,0.64,6.86-1.68,7.5-5.19c0.64-3.5-1.69-6.86-5.19-7.5
		c-8.61-1.57-24.71-7.32-33.43-7.54c-3.55-0.09-6.52,2.73-6.61,6.28C643.81,802.8,646.62,805.76,650.18,805.85L650.18,805.85z"/>
	<path class="st39" d="M432.33,976.61c-1.11,19.88,9.15,50.45,17.61,67.84c1.56,3.2,5.41,4.53,8.61,2.98
		c3.2-1.55,4.54-5.41,2.98-8.61c-7.67-15.78-17.34-43.44-16.33-61.48c0.2-3.55-2.52-6.6-6.08-6.79
		C435.58,970.34,432.53,973.06,432.33,976.61L432.33,976.61z"/>
	<path class="st39" d="M469.1,989.12c-4.15,9.24-4.85,20.7-3.06,32.12c0.55,3.51,3.85,5.92,7.36,5.37c3.51-0.55,5.92-3.85,5.37-7.37
		c-1.38-8.83-1.11-17.71,2.09-24.84c1.46-3.25,0-7.06-3.24-8.52C474.37,984.42,470.55,985.88,469.1,989.12L469.1,989.12z"/>
	<path class="st39" d="M286.7,1097.85c12.56-8.5,33.84-16.63,47.77-18.61c3.52-0.5,5.97-3.77,5.47-7.29
		c-0.5-3.52-3.77-5.97-7.29-5.47c-15.51,2.21-39.2,11.24-53.18,20.7c-2.94,1.99-3.72,6-1.73,8.95
		C279.74,1099.07,283.75,1099.84,286.7,1097.85L286.7,1097.85z"/>
	<path class="st39" d="M306.6,1105.93c6.55-2.01,15.63-5.91,21.11-7.58c3.4-1.03,5.33-4.64,4.3-8.04c-1.03-3.4-4.63-5.33-8.04-4.3
		c-5.5,1.67-14.6,5.57-21.17,7.59c-3.4,1.05-5.31,4.66-4.26,8.06C299.59,1105.07,303.2,1106.98,306.6,1105.93L306.6,1105.93z"/>
	<path class="st39" d="M316.75,846.46c-5.76,20.51-0.35,50.71,10.85,78.4c11.15,27.59,27.95,52.57,43.8,63.23
		c2.95,1.98,6.96,1.2,8.95-1.76c1.98-2.95,1.2-6.96-1.76-8.95c-14.3-9.61-28.98-32.46-39.04-57.36
		c-10.02-24.79-15.55-51.73-10.39-70.08c0.96-3.42-1.03-6.98-4.46-7.95C321.27,841.04,317.71,843.03,316.75,846.46L316.75,846.46z"
		/>
	<path class="st39" d="M703.43,860.74c2.91,19.16-7.89,44.79-12.76,55.19c-1.51,3.22-0.12,7.06,3.11,8.57
		c3.22,1.51,7.06,0.11,8.57-3.11c5.51-11.77,17.12-40.9,13.83-62.58c-0.53-3.52-3.82-5.94-7.34-5.41
		C705.32,853.94,702.89,857.23,703.43,860.74L703.43,860.74z"/>
	<path class="st39" d="M716.87,898.02c-6.1,28.29-22.97,70.75-43.95,99.83c-2.08,2.89-1.43,6.92,1.46,9c2.88,2.08,6.91,1.43,9-1.46
		c22-30.49,39.7-75,46.1-104.66c0.75-3.48-1.46-6.91-4.94-7.66C721.05,892.33,717.62,894.54,716.87,898.02L716.87,898.02z"/>
	<path class="st39" d="M573.33,1072.72c-8.28,27.83-7.84,50.86-5.38,71.26c0.43,3.53,3.64,6.05,7.17,5.63s6.05-3.64,5.63-7.17
		c-2.28-18.91-2.74-40.25,4.94-66.04c1.01-3.41-0.93-7-4.34-8.02C577.94,1067.37,574.34,1069.31,573.33,1072.72L573.33,1072.72z"/>
	<path class="st39" d="M548.68,1098.14c-1.02,8.9-0.19,20.27,0.76,28.42c0.41,3.53,3.62,6.07,7.15,5.65
		c3.53-0.41,6.07-3.61,5.65-7.15c-0.85-7.3-1.67-17.48-0.75-25.46c0.4-3.53-2.13-6.73-5.67-7.14
		C552.28,1092.06,549.08,1094.6,548.68,1098.14L548.68,1098.14z"/>
	<path class="st39" d="M836.97,922.87c92.44,20.74,191.01,49.4,282.82,73.06c3.44,0.89,6.96-1.19,7.85-4.63
		c0.89-3.44-1.19-6.96-4.63-7.85c-91.94-23.7-190.64-52.39-283.21-73.16c-3.47-0.78-6.92,1.41-7.7,4.88
		C831.32,918.64,833.5,922.09,836.97,922.87L836.97,922.87z"/>
	<path class="st39" d="M1011.94,987.42c56.97,11.67,131.02,36.41,185.73,55.85c3.35,1.19,7.04-0.56,8.23-3.91
		c1.19-3.35-0.56-7.04-3.91-8.23c-55.22-19.62-129.96-44.55-187.46-56.34c-3.48-0.71-6.89,1.53-7.61,5.02
		C1006.2,983.3,1008.45,986.71,1011.94,987.42L1011.94,987.42z"/>
	<path class="st39" d="M756.72,897.69c12.75,2.77,25.5,5.53,38.24,8.3c3.47,0.75,6.91-1.46,7.66-4.93c0.76-3.47-1.46-6.91-4.93-7.66
		c-12.75-2.77-25.5-5.53-38.24-8.3c-3.48-0.75-6.91,1.46-7.67,4.93C751.03,893.5,753.24,896.94,756.72,897.69L756.72,897.69z"/>
	<path class="st39" d="M1280.16,901.9c-3.89,13.8,3.33,36.18,9.86,47c1.84,3.05,5.8,4.03,8.85,2.19c3.04-1.84,4.02-5.8,2.19-8.85
		c-5.13-8.51-11.54-25.98-8.49-36.85c0.96-3.42-1.03-6.99-4.46-7.95S1281.12,898.48,1280.16,901.9L1280.16,901.9z"/>
	<path class="st39" d="M1298.54,917.77c-0.39,11.02,4.63,24.24,14.52,33.64c2.58,2.45,6.66,2.35,9.11-0.23
		c2.45-2.58,2.35-6.66-0.23-9.11c-7.04-6.69-10.8-16-10.52-23.84c0.13-3.56-2.65-6.55-6.21-6.67
		C1301.65,911.44,1298.66,914.22,1298.54,917.77L1298.54,917.77z"/>
	<path class="st39" d="M1621.97,947.42c-23.58-16.64-59.33-24-94.42-22.25c-35.17,1.75-69.53,12.66-90.31,31.6
		c-2.63,2.4-2.82,6.48-0.42,9.1c2.4,2.63,6.48,2.82,9.1,0.42c18.89-17.22,50.29-26.66,82.26-28.25c32.05-1.6,64.81,4.7,86.35,19.91
		c2.91,2.05,6.93,1.36,8.98-1.55C1625.57,953.5,1624.88,949.48,1621.97,947.42L1621.97,947.42z"/>
	<path class="st39" d="M1541.74,948.47c-55.16-6.07-115.11,30.53-136.84,68.34c-1.77,3.08-0.71,7.03,2.38,8.8
		c3.09,1.77,7.03,0.71,8.8-2.38c19.72-34.32,74.18-67.46,124.25-61.95c3.53,0.39,6.72-2.17,7.11-5.7
		C1547.83,952.04,1545.27,948.85,1541.74,948.47L1541.74,948.47z"/>
	<path class="st39" d="M1462.97,914.63c-51.56,17.97-108.05,77.44-115.88,129.06c-0.53,3.52,1.89,6.8,5.41,7.34
		c3.52,0.53,6.8-1.89,7.34-5.41c7.22-47.66,59.77-102.23,107.37-118.82c3.36-1.17,5.14-4.85,3.96-8.21
		C1470.01,915.23,1466.33,913.46,1462.97,914.63L1462.97,914.63z"/>
	<path class="st39" d="M1416.61,1052.14c-1.32,27.57,0.53,36.63,4.26,48.06c1.11,3.38,4.75,5.23,8.13,4.13
		c3.38-1.1,5.23-4.74,4.13-8.12c-3.37-10.33-4.83-18.53-3.64-43.44c0.17-3.55-2.58-6.58-6.13-6.75
		C1419.8,1045.84,1416.78,1048.58,1416.61,1052.14L1416.61,1052.14z"/>
	<path class="st39" d="M1438.17,1071.03c1.97,17.82,6.71,34.68,10.49,45.44c1.18,3.36,4.86,5.12,8.22,3.94
		c3.36-1.18,5.12-4.86,3.94-8.22c-3.54-10.08-8-25.88-9.84-42.59c-0.39-3.53-3.58-6.09-7.11-5.7
		C1440.33,1064.3,1437.77,1067.49,1438.17,1071.03L1438.17,1071.03z"/>
	<path class="st39" d="M1759.55,923.43c-20.71-1.47-46.35,0.46-64.77,5.92c-3.41,1.01-5.36,4.6-4.35,8.01
		c1.01,3.41,4.6,5.36,8.01,4.35c17.11-5.08,40.95-6.79,60.2-5.43c3.55,0.25,6.63-2.42,6.89-5.97
		C1765.78,926.77,1763.1,923.68,1759.55,923.43L1759.55,923.43z"/>
	<path class="st39" d="M1737.18,939.19c-9.34,0.73-13.18,0.92-18.51,1.69c-3.52,0.51-5.96,3.79-5.44,7.31
		c0.52,3.52,3.79,5.96,7.31,5.45c5.08-0.74,8.74-0.9,17.65-1.6c3.54-0.28,6.2-3.38,5.92-6.93
		C1743.84,941.57,1740.73,938.92,1737.18,939.19L1737.18,939.19z"/>
	<path class="st39" d="M1531.78,803.87c-5.42,2.08-10.93,6.47-15.71,12.01c-6.7,7.77-12.01,17.74-14.02,25.43
		c-0.9,3.44,1.16,6.97,4.61,7.87c3.44,0.9,6.97-1.16,7.87-4.6c1.61-6.15,5.95-14.06,11.31-20.28c3.26-3.78,6.87-6.98,10.56-8.4
		c3.32-1.27,4.99-5,3.71-8.32C1538.83,804.26,1535.1,802.6,1531.78,803.87L1531.78,803.87z"/>
	<path class="st39" d="M1534.29,821.42c-4.97,5.49-9.4,9.96-11.51,19.34c-0.78,3.47,1.4,6.93,4.87,7.71
		c3.47,0.78,6.93-1.4,7.71-4.87c1.5-6.66,4.97-9.63,8.5-13.53c2.39-2.63,2.18-6.72-0.46-9.1
		C1540.76,818.58,1536.67,818.78,1534.29,821.42L1534.29,821.42z"/>
	<path class="st39" d="M1608.5,999.13c10.79,0.25,22.76,5.42,34.02,12.46c17.55,10.97,33.36,26.65,40.25,37.69
		c1.88,3.02,5.86,3.94,8.88,2.06c3.02-1.88,3.94-5.86,2.05-8.88c-7.61-12.21-24.95-29.67-44.35-41.8
		c-13.38-8.36-27.73-14.12-40.55-14.42c-3.56-0.08-6.51,2.74-6.6,6.29C1602.13,996.09,1604.95,999.04,1608.5,999.13L1608.5,999.13z"
		/>
	<path class="st39" d="M1645.21,1075.93c15.87,1.36,57.14,21.76,73.4,38.15c2.5,2.53,6.59,2.54,9.11,0.04
		c2.53-2.5,2.54-6.59,0.04-9.11c-18-18.15-63.88-40.41-81.45-41.92c-3.54-0.31-6.67,2.33-6.98,5.87
		C1639.04,1072.5,1641.67,1075.62,1645.21,1075.93L1645.21,1075.93z"/>
	<path class="st39" d="M1666.41,1108.23c10.95,1.78,20.61,7.88,30.31,13.28c3.11,1.73,7.04,0.61,8.77-2.49
		c1.73-3.11,0.61-7.04-2.5-8.77c-11-6.13-22.09-12.72-34.51-14.74c-3.51-0.57-6.82,1.82-7.4,5.32
		C1660.52,1104.34,1662.9,1107.66,1666.41,1108.23L1666.41,1108.23z"/>
	<path class="st39" d="M1582.95,1214.97c15.81,20,23.52,67.35,25.35,93.06c0.25,3.55,3.34,6.22,6.89,5.97
		c3.55-0.25,6.22-3.34,5.97-6.89c-1.97-27.72-11.05-78.57-28.09-100.14c-2.21-2.79-6.26-3.27-9.05-1.06
		C1581.22,1208.12,1580.74,1212.18,1582.95,1214.97L1582.95,1214.97z"/>
	<path class="st39" d="M1575.21,1249.11c6.66,10.77,11.51,28.66,11.47,37.76c-0.01,3.56,2.86,6.46,6.42,6.47
		c3.55,0.02,6.45-2.86,6.47-6.42c0.04-10.73-5.54-31.88-13.4-44.59c-1.87-3.02-5.85-3.96-8.87-2.09
		C1574.28,1242.11,1573.34,1246.08,1575.21,1249.11L1575.21,1249.11z"/>
	<path class="st39" d="M1276.43,1263.99c-15.42,17.11-27.46,35.54-34.13,51.52c-1.37,3.28,0.18,7.06,3.47,8.43
		c3.28,1.37,7.06-0.18,8.43-3.47c6.2-14.86,17.47-31.95,31.81-47.85c2.38-2.64,2.17-6.72-0.47-9.1
		C1282.9,1261.14,1278.82,1261.35,1276.43,1263.99L1276.43,1263.99z"/>
	<path class="st39" d="M1285.92,1285.7c-8.99,7.58-8.99,10.67-16.5,20.58c-2.15,2.84-1.59,6.88,1.24,9.03
		c2.83,2.15,6.88,1.59,9.03-1.24c6.7-8.84,6.51-11.74,14.54-18.51c2.72-2.29,3.06-6.36,0.77-9.08
		C1292.71,1283.76,1288.64,1283.41,1285.92,1285.7L1285.92,1285.7z"/>
	<path class="st39" d="M1369.91,1110.38c-11.42,43.18,2.93,99.69,23.15,130.9c1.93,2.99,5.93,3.84,8.91,1.91
		c2.99-1.93,3.84-5.93,1.91-8.91c-18.63-28.76-32.02-80.8-21.5-120.6c0.91-3.44-1.14-6.97-4.58-7.88
		C1374.35,1104.89,1370.81,1106.95,1369.91,1110.38L1369.91,1110.38z"/>
	<path class="st39" d="M1345.36,1133.86c-3.41,51.46,7.22,67.43,17.03,88.29c1.51,3.22,5.36,4.6,8.58,3.09
		c3.22-1.51,4.6-5.36,3.09-8.58c-9.11-19.36-19-34.18-15.83-81.95c0.23-3.55-2.46-6.62-6.01-6.86
		C1348.67,1127.62,1345.59,1130.31,1345.36,1133.86L1345.36,1133.86z"/>
	<path class="st39" d="M1717.82,1203.33c-11.53,31.87-35.02,69.65-61.85,94.58c-2.61,2.42-2.76,6.5-0.34,9.11
		c2.42,2.6,6.5,2.76,9.11,0.34c28.28-26.27,53.05-66.06,65.2-99.64c1.21-3.34-0.52-7.04-3.87-8.25
		C1722.73,1198.26,1719.03,1199.99,1717.82,1203.33L1717.82,1203.33z"/>
	<path class="st39" d="M1755.89,1204.75c13.7,13.27,27.94,39.04,36.1,51.97c1.9,3.01,5.88,3.91,8.89,2.01
		c3.01-1.9,3.91-5.88,2.01-8.89c-8.56-13.55-23.68-40.44-38.03-54.34c-2.55-2.47-6.64-2.41-9.11,0.14
		C1753.27,1198.2,1753.34,1202.28,1755.89,1204.75L1755.89,1204.75z"/>
	<path class="st39" d="M1757.79,1231.94c6.58,6.57,9.35,14.41,13.37,22.08c1.65,3.15,5.56,4.36,8.7,2.71
		c3.15-1.66,4.36-5.55,2.71-8.7c-4.63-8.82-8.12-17.66-15.68-25.21c-2.51-2.51-6.6-2.51-9.11,0.01
		C1755.27,1225.34,1755.27,1229.42,1757.79,1231.94L1757.79,1231.94z"/>
	<path class="st39" d="M1704.2,1177.3c-2.04,12.24-18.16,48.89-32.91,67.07c-2.24,2.76-1.82,6.83,0.95,9.07
		c2.76,2.24,6.82,1.82,9.06-0.95c16.04-19.77,33.39-59.75,35.61-73.07c0.58-3.51-1.79-6.83-5.3-7.42
		C1708.12,1171.41,1704.79,1173.78,1704.2,1177.3L1704.2,1177.3z"/>
	<path class="st39" d="M1586.9,1360.41c-1.91,25.87-21.76,64.31-34.72,83.36c-2,2.94-1.24,6.95,1.71,8.95
		c2.94,2,6.95,1.24,8.95-1.71c13.91-20.45,34.86-61.88,36.91-89.66c0.26-3.55-2.4-6.64-5.95-6.91
		C1590.25,1354.19,1587.16,1356.86,1586.9,1360.41L1586.9,1360.41z"/>
	<path class="st39" d="M1553.84,1395.37c-1.32,5.7-3.26,12.71-5.95,18.55c-1.48,3.23-3.12,6.11-5.15,7.89
		c-2.68,2.35-2.94,6.42-0.59,9.09c2.35,2.68,6.42,2.94,9.09,0.59c7.3-6.4,12.53-21.86,15.16-33.23c0.8-3.46-1.36-6.93-4.83-7.73
		C1558.1,1389.74,1554.64,1391.9,1553.84,1395.37L1553.84,1395.37z"/>
	<path class="st39" d="M1390.02,1282c16.59,27.84,63.14,65.89,108.05,75.41c3.48,0.74,6.91-1.49,7.64-4.97
		c0.74-3.48-1.49-6.91-4.97-7.64c-41.39-8.77-84.36-43.74-99.64-69.4c-1.82-3.06-5.78-4.06-8.84-2.24
		C1389.2,1274.98,1388.2,1278.94,1390.02,1282L1390.02,1282z"/>
	<path class="st39" d="M1427.92,1293.36c16.8,21.83,38.18,32.68,59.28,38.75c3.42,0.98,6.99-1,7.98-4.41c0.98-3.42-1-6.99-4.41-7.98
		c-18.7-5.37-37.73-14.87-52.63-34.22c-2.17-2.82-6.22-3.35-9.04-1.17C1426.28,1286.49,1425.75,1290.54,1427.92,1293.36
		L1427.92,1293.36z"/>
</g>
</svg>
