<?xml version="1.0" encoding="utf-8"?>
<!-- Generator: Adobe Illustrator 26.4.1, SVG Export Plug-In . SVG Version: 6.00 Build 0)  -->
<svg version="1.1" id="Layer_1" xmlns="http://www.w3.org/2000/svg" xmlns:xlink="http://www.w3.org/1999/xlink" x="0px" y="0px"
	 viewBox="0 0 2000 2000" style="enable-background:new 0 0 2000 2000;" xml:space="preserve">
<style type="text/css">
	.st0{fill-rule:evenodd;clip-rule:evenodd;fill:#F49E23;}
	.st1{fill-rule:evenodd;clip-rule:evenodd;fill:#D14D36;}
	.st2{fill-rule:evenodd;clip-rule:evenodd;fill:#FDF0D3;}
	.st3{fill-rule:evenodd;clip-rule:evenodd;fill:#0C427E;}
	.st4{fill-rule:evenodd;clip-rule:evenodd;fill:#B45A25;}
	.st5{fill-rule:evenodd;clip-rule:evenodd;fill:#EC8C28;}
	.st6{fill-rule:evenodd;clip-rule:evenodd;fill:#EE9726;}
	.st7{fill-rule:evenodd;clip-rule:evenodd;fill:#302574;}
	.st8{fill-rule:evenodd;clip-rule:evenodd;fill:#F3B953;}
	.st9{fill-rule:evenodd;clip-rule:evenodd;fill:#3D648F;}
	.st10{fill-rule:evenodd;clip-rule:evenodd;fill:#145468;}
	.st11{fill-rule:evenodd;clip-rule:evenodd;fill:#3B7A7A;}
	.st12{fill-rule:evenodd;clip-rule:evenodd;fill:#098B8D;}
	.st13{fill-rule:evenodd;clip-rule:evenodd;fill:#689595;}
	.st14{fill-rule:evenodd;clip-rule:evenodd;fill:#679595;}
	.st15{fill-rule:evenodd;clip-rule:evenodd;fill:#CEE4E4;}
	
		.st16{fill-rule:evenodd;clip-rule:evenodd;fill:#145468;stroke:#CEE4E4;stroke-width:5;stroke-linecap:round;stroke-linejoin:round;stroke-miterlimit:10;}
	.st17{fill-rule:evenodd;clip-rule:evenodd;fill:#043A60;}
	.st18{fill-rule:evenodd;clip-rule:evenodd;fill:#FD9A65;}
	.st19{fill-rule:evenodd;clip-rule:evenodd;fill:#18658D;}
	.st20{fill-rule:evenodd;clip-rule:evenodd;fill:#9FCDE5;}
	.st21{fill-rule:evenodd;clip-rule:evenodd;fill:#56A8D3;}
	.st22{fill-rule:evenodd;clip-rule:evenodd;fill:#276383;}
	.st23{fill-rule:evenodd;clip-rule:evenodd;fill:#E0F0F8;}
	.st24{fill-rule:evenodd;clip-rule:evenodd;fill:#A51E1C;}
	.st25{fill-rule:evenodd;clip-rule:evenodd;fill:#CB442D;}
	.st26{fill-rule:evenodd;clip-rule:evenodd;fill:#DC5A44;}
	.st27{fill-rule:evenodd;clip-rule:evenodd;fill:#F7BD54;}
	.st28{fill-rule:evenodd;clip-rule:evenodd;fill:#E46B37;}
	.st29{fill-rule:evenodd;clip-rule:evenodd;fill:#B67227;}
	.st30{fill-rule:evenodd;clip-rule:evenodd;fill:#D78A35;}
	.st31{fill-rule:evenodd;clip-rule:evenodd;fill:#A4331F;}
	.st32{fill-rule:evenodd;clip-rule:evenodd;fill:#F2A550;}
	.st33{fill-rule:evenodd;clip-rule:evenodd;fill:#F9E9D6;}
	.st34{fill-rule:evenodd;clip-rule:evenodd;fill:#844013;}
	.st35{fill-rule:evenodd;clip-rule:evenodd;fill:#A04E18;}
	.st36{fill-rule:evenodd;clip-rule:evenodd;fill:#F8B872;}
	.st37{fill-rule:evenodd;clip-rule:evenodd;fill:#FFC689;}
	.st38{fill-rule:evenodd;clip-rule:evenodd;fill:#B6844D;}
	.st39{fill-rule:evenodd;clip-rule:evenodd;fill:#CA5320;}
	.st40{fill-rule:evenodd;clip-rule:evenodd;fill:#D76332;}
	.st41{fill-rule:evenodd;clip-rule:evenodd;fill:#812F0C;}
	.st42{fill-rule:evenodd;clip-rule:evenodd;fill:#8A460F;}
	.st43{fill-rule:evenodd;clip-rule:evenodd;fill:#B46914;}
	.st44{fill-rule:evenodd;clip-rule:evenodd;fill:#B54515;}
	.st45{fill-rule:evenodd;clip-rule:evenodd;fill:#FFCD71;}
	.st46{fill-rule:evenodd;clip-rule:evenodd;fill:#95B41D;}
	.st47{fill-rule:evenodd;clip-rule:evenodd;fill:#A8C731;}
	.st48{fill-rule:evenodd;clip-rule:evenodd;fill:#85A214;}
	.st49{fill-rule:evenodd;clip-rule:evenodd;fill:#C6EF28;}
	.st50{fill-rule:evenodd;clip-rule:evenodd;fill:#ED982B;}
	.st51{fill-rule:evenodd;clip-rule:evenodd;fill:#FCCF7C;}
	.st52{fill-rule:evenodd;clip-rule:evenodd;fill:#FFE8BC;}
	.st53{fill-rule:evenodd;clip-rule:evenodd;fill:#ED6961;}
	.st54{fill-rule:evenodd;clip-rule:evenodd;fill:#696E1E;}
	.st55{fill-rule:evenodd;clip-rule:evenodd;fill:#9CA42A;}
	.st56{fill-rule:evenodd;clip-rule:evenodd;fill:#7F8615;}
	.st57{fill-rule:evenodd;clip-rule:evenodd;fill:#FFEECF;}
	.st58{fill-rule:evenodd;clip-rule:evenodd;fill:#77786D;}
	.st59{fill-rule:evenodd;clip-rule:evenodd;fill:#D3D5C6;}
	.st60{fill-rule:evenodd;clip-rule:evenodd;fill:#7C7A7A;}
	.st61{fill-rule:evenodd;clip-rule:evenodd;fill:#DBDCD9;}
	.st62{fill-rule:evenodd;clip-rule:evenodd;fill:#CA372D;}
	.st63{fill-rule:evenodd;clip-rule:evenodd;fill:#FE7D75;}
	.st64{fill-rule:evenodd;clip-rule:evenodd;fill:#B0B0B0;}
	.st65{fill-rule:evenodd;clip-rule:evenodd;fill:#888787;}
	.st66{fill-rule:evenodd;clip-rule:evenodd;fill:#6E6E6E;}
	.st67{fill-rule:evenodd;clip-rule:evenodd;fill:#757575;}
	.st68{fill-rule:evenodd;clip-rule:evenodd;fill:#60341E;}
	.st69{fill-rule:evenodd;clip-rule:evenodd;fill:#B0451B;}
	.st70{fill-rule:evenodd;clip-rule:evenodd;fill:#8A4727;}
	.st71{fill-rule:evenodd;clip-rule:evenodd;fill:#FABB64;}
	.st72{fill-rule:evenodd;clip-rule:evenodd;fill:#3E88AF;}
	.st73{fill-rule:evenodd;clip-rule:evenodd;fill:#5BA0C5;}
	.st74{fill-rule:evenodd;clip-rule:evenodd;fill:#FFF1DE;}
	.st75{fill-rule:evenodd;clip-rule:evenodd;fill:#F8B89B;}
	.st76{fill-rule:evenodd;clip-rule:evenodd;fill:#E98A5F;}
	.st77{fill-rule:evenodd;clip-rule:evenodd;fill:#FFCAB3;}
	.st78{fill-rule:evenodd;clip-rule:evenodd;fill:#F9A580;}
	.st79{fill-rule:evenodd;clip-rule:evenodd;fill:#FFDFD2;}
	.st80{fill-rule:evenodd;clip-rule:evenodd;fill:#E2A85C;}
	.st81{fill-rule:evenodd;clip-rule:evenodd;fill:#C68446;}
	.st82{fill-rule:evenodd;clip-rule:evenodd;fill:#F2BC75;}
	.st83{fill-rule:evenodd;clip-rule:evenodd;fill:#F2BC76;}
	.st84{fill-rule:evenodd;clip-rule:evenodd;fill:#FFD69F;}
	.st85{fill-rule:evenodd;clip-rule:evenodd;fill:#E7624B;}
	.st86{fill-rule:evenodd;clip-rule:evenodd;fill:#F6E8DB;}
	.st87{fill-rule:evenodd;clip-rule:evenodd;fill:#FC9EB6;}
	.st88{fill-rule:evenodd;clip-rule:evenodd;fill:#FFFFFF;}
</style>
<g>
	<path class="st71" d="M562.04,1380.75c29.72,4.06,200.79,22.51,204.09,21.33c11.59-4.14,4.56-27.64,39.06-55.23
		c32.97-26.36,87.7,9.01,96.27,25.97c15.62,30.94,12.97,50.82-6.2,67.57c-12,10.49-18.31,17.03-17.28,26.3
		c2.12,19.01,22.24,28.73,18.34,59.7c-3.03,24.11-26.21,53.31-56.27,61.99c-27.94,8.06-66.39,2.96-81.53-39.39
		c-11.8-33,4.53-34.55-13.9-35.92c-29.58-2.19-174.68-15.72-182.61-9.18c-11.16,9.22-2.04,4.06-8.44,25.14
		c-10.2,33.58-39.92,55.8-78.04,46.4c-22.56-5.56-64.93-45.21-55.61-75.48c12.04-39.14,30.15-36.25,30.04-50.23
		c-0.17-20.52-23.12-14.69-30.65-48.34c-8.06-36.06,14.73-59.47,34.31-69.68c28.01-14.6,62.22-15.49,84.63,17.27
		C552.54,1369.9,557.92,1380.19,562.04,1380.75L562.04,1380.75z"/>
	<path class="st19" d="M152.13,855.47c58.79-96.67,229.85-172.89,473.3-221.2c215.46-42.76,682.42-51.81,948.08,13.17
		c263.97,64.58,392.07,178.11,385.19,236.92c-3.66,31.28-45.39,131.6-64.24,98.34c-55.24-97.5-269.31-161.75-384.21-184.55
		c-285.33-56.64-560.53-40.83-895.96,14.12c-133.23,21.82-366.47,82.83-385.93,196.66C217.74,1070.97,124.74,900.5,152.13,855.47
		L152.13,855.47z"/>
	<path class="st72" d="M153.65,856.53c-2.17-2.96-24.04,62.35-21.49,145.71c4.25,139.14,25.31,146.15,64.63,163.69
		c81.55,36.38,713.17,134.36,837.84,131.57c295.61-6.61,646.03,1.69,823.17-76.97c66.48-29.51,63.63-129.45,81.91-204.44
		c19.62-80.52,21.38-153.09,17.85-144.99c-51.39,117.98-212.63,152.31-311.08,175.26c-154.76,36.08-632.81,39.19-716.86,36.3
		c-182.96-6.31-561.44-88.77-683.24-145.91C198.28,914.18,177.74,889.34,153.65,856.53L153.65,856.53z"/>
	<path class="st73" d="M153.48,854.73c40.29,74.47,219.92,124.64,293.83,145.84c235.95,67.69,419.82,87.57,640.46,105.06
		c59.02,4.68,121.35,7.25,148.02,11.1c23.21,3.35,191.38,42.84,191.48,69.78c0.05,15.67-161.68,113.06-204.37,110.48
		c-72.76-4.39-322.14-4.63-509.08-34.32c-164.67-26.16-376.09-27.13-547.22-109.45c-33.44-16.08-35.66-115.35-32.06-194.92
		C137.56,891.91,150.35,848.96,153.48,854.73L153.48,854.73z M732.27,1122.14c22.21,0,40.24,18.03,40.24,40.24
		c0,22.21-18.03,40.24-40.24,40.24c-22.21,0-40.24-18.03-40.24-40.24C692.03,1140.17,710.06,1122.14,732.27,1122.14L732.27,1122.14z
		 M548.15,1084.28c22.21,0,40.24,18.03,40.24,40.24c0,22.21-18.03,40.24-40.24,40.24c-22.21,0-40.24-18.03-40.24-40.24
		C507.91,1102.31,525.94,1084.28,548.15,1084.28L548.15,1084.28z M374.87,1044c22.21,0,40.24,18.03,40.24,40.24
		c0,22.21-18.03,40.24-40.24,40.24c-22.21,0-40.24-18.03-40.24-40.24C334.63,1062.03,352.66,1044,374.87,1044L374.87,1044z"/>
	<path class="st71" d="M1018.91,1064.52c2.12-27.83-10.23-53.53-30.18-66.07c-14.11-8.88-32.15-11.84-52.53-4.28
		c-18.96,7.03-34.62,25.33-46.01,49.79c-14.53,31.21-22.86,72.54-27.27,104.54c-4.59,33.25-8.01,81.38-3.38,122.03
		c3.45,30.22,11.82,56.43,25.66,71.86c14.76,16.45,37.64,20.86,57.8,15.5c20.77-5.52,37.71-21.22,40.92-41.7
		c1.45-9.24-4.88-17.92-14.12-19.37c-9.24-1.44-17.92,4.88-19.37,14.12c-1.18,7.54-8.5,12.16-16.14,14.2
		c-8.24,2.19-17.83,1.35-23.86-5.38c-10.12-11.28-14.69-30.97-17.21-53.06c-4.32-37.83-0.99-82.61,3.27-113.56
		c4-29.01,11.25-66.56,24.42-94.85c7.09-15.21,15.28-27.95,27.07-32.32c23.53-8.72,38.86,13.26,37.13,36
		c-0.71,9.33,6.29,17.47,15.61,18.19C1010.04,1080.84,1018.19,1073.85,1018.91,1064.52L1018.91,1064.52z"/>
	<path class="st71" d="M718.99,1024.15c-10.89-3.59-20.43-3.46-28.77-0.87c-11.94,3.72-21.8,12.8-29.18,26.01
		c-14.26,25.54-19.34,68.44-20.78,101.51c-1.4,32.34,1.28,65.84,7.82,89.99c4.73,17.49,11.97,30.49,20.13,37.11
		c8.4,6.82,17.98,8.86,28.73,5.08c7.61-2.69,11.62-11.04,8.94-18.66c-2.68-7.61-11.04-11.62-18.65-8.94
		c-0.47,0.17-0.74-0.32-1.09-0.67c-0.58-0.58-1.14-1.25-1.68-2c-1.68-2.33-3.15-5.25-4.51-8.61c-8.67-21.37-11.94-57.47-10.43-92.04
		c1.25-28.77,4.68-66.3,17.09-88.52c3.29-5.89,7-10.68,12.33-12.34c3.17-0.99,6.78-0.66,10.92,0.71c7.67,2.53,15.95-1.64,18.47-9.31
		C730.83,1034.96,726.66,1026.68,718.99,1024.15L718.99,1024.15z"/>
	<path class="st71" d="M657.42,1252.62c-15.22,30.43-9.5,55.87-2.78,81.56c5.48,20.95,11.87,42.09,0.76,67.67
		c-2.46,5.69,0.15,12.31,5.84,14.78c5.69,2.47,12.31-0.14,14.78-5.83c13.51-31.12,7.02-56.83,0.36-82.31
		c-5.42-20.72-11.13-41.28,1.15-65.83c2.77-5.55,0.52-12.3-5.03-15.07C666.95,1244.82,660.2,1247.07,657.42,1252.62L657.42,1252.62z
		"/>
	<path class="st74" d="M438.32,1399.9c-3.53-29.65,21.47-57.92,48.81-55.58c3.22,0.27,6.06-2.12,6.33-5.34
		c0.27-3.21-2.11-6.05-5.33-6.32c-34.05-2.92-65.83,31.71-61.43,68.62c0.38,3.21,3.29,5.5,6.51,5.12
		C436.42,1406.02,438.71,1403.1,438.32,1399.9L438.32,1399.9z"/>
	<path class="st74" d="M464.57,1377.05c0.64-2.41,2.54-4.45,4.96-6.3c4.72-3.6,11.46-6.21,18.38-7.65
		c6.92-1.45,14.05-1.75,19.58-0.43c2.66,0.63,4.94,1.53,6.2,3.21c1.94,2.58,5.61,3.1,8.19,1.16c2.59-1.94,3.1-5.61,1.17-8.19
		c-2.7-3.59-7.17-6.21-12.86-7.56c-6.98-1.66-15.96-1.46-24.68,0.36c-8.72,1.83-17.15,5.27-23.09,9.81
		c-4.69,3.58-7.91,7.89-9.16,12.57c-0.84,3.12,1.02,6.33,4.14,7.17C460.52,1382.03,463.74,1380.17,464.57,1377.05L464.57,1377.05z"
		/>
	<path class="st74" d="M692.38,1266.01c-9.39-3.03-16.52-11.28-21.57-24.42c-8.54-22.19-10.89-57.44-6.01-106.43
		c0.32-3.21-2.03-6.08-5.24-6.4c-3.21-0.32-6.08,2.02-6.4,5.24c-5.13,51.48-2.24,88.48,6.73,111.79
		c6.62,17.2,16.61,27.39,28.91,31.36c3.08,0.99,6.38-0.7,7.37-3.77C697.15,1270.3,695.46,1267,692.38,1266.01L692.38,1266.01z"/>
	<path class="st74" d="M886.68,1160.46c-1.72-33.29,12.62-94.15,34.91-127.82c8.54-12.89,17.91-21.93,28.49-22.04
		c3.23-0.03,5.82-2.68,5.79-5.91c-0.04-3.23-2.69-5.82-5.92-5.79c-13.76,0.15-27.01,10.51-38.11,27.29
		c-23.52,35.53-38.65,99.76-36.84,134.89c0.17,3.23,2.92,5.71,6.14,5.54C884.36,1166.44,886.85,1163.68,886.68,1160.46
		L886.68,1160.46z"/>
	<path class="st74" d="M434.74,1491.46c-4.45,12.06-1,29.09,7.82,43.24c8.81,14.15,22.77,25.18,37.97,26.07
		c3.22,0.19,5.99-2.28,6.18-5.51c0.19-3.22-2.28-5.99-5.5-6.18c-11.65-0.68-21.95-9.72-28.71-20.57c-6.76-10.85-10.19-23.76-6.78-33
		c1.12-3.03-0.43-6.4-3.46-7.52C439.22,1486.88,435.85,1488.43,434.74,1491.46L434.74,1491.46z"/>
	<path class="st74" d="M587.15,1404.48c36.22,2.44,98.57,12.31,124.55,12.7c3.23,0.05,5.89-2.53,5.94-5.76
		c0.05-3.23-2.53-5.89-5.76-5.94c-25.85-0.4-87.89-10.25-123.93-12.68c-3.22-0.21-6.01,2.22-6.23,5.44
		C581.5,1401.47,583.93,1404.26,587.15,1404.48L587.15,1404.48z"/>
	<path class="st74" d="M799.22,1382.8c16.64-23.59,53.71-31.57,82.27-3.23c2.3,2.27,6.01,2.26,8.28-0.03c2.27-2.29,2.26-6-0.03-8.27
		c-34.76-34.49-79.83-23.91-100.08,4.8c-1.86,2.64-1.23,6.29,1.41,8.15C793.7,1386.08,797.35,1385.44,799.22,1382.8L799.22,1382.8z"
		/>
	<path class="st74" d="M941.65,1118.52c88.36-0.57,184.76,15.66,243.74,14.99c3.23-0.04,5.82-2.69,5.78-5.91
		c-0.04-3.23-2.69-5.82-5.92-5.79c-58.96,0.68-155.34-15.55-243.68-14.99c-3.23,0.02-5.83,2.66-5.82,5.89
		C935.78,1115.93,938.42,1118.54,941.65,1118.52L941.65,1118.52z"/>
	<path class="st74" d="M1216.65,1136.25c52.38,5.16,122.16,30.9,167.51,44.76c3.09,0.94,6.36-0.8,7.31-3.89
		c0.94-3.09-0.8-6.36-3.88-7.31c-45.96-14.04-116.71-39.98-169.79-45.21c-3.22-0.32-6.08,2.03-6.4,5.25
		C1211.08,1133.07,1213.43,1135.93,1216.65,1136.25L1216.65,1136.25z"/>
	<path class="st74" d="M993.09,1143.49c46.56-1.76,112.21,11.97,169.4,11.62c3.23-0.02,5.83-2.65,5.82-5.88
		c-0.02-3.23-2.66-5.84-5.89-5.82c-57.31,0.35-123.1-13.37-169.77-11.61c-3.22,0.12-5.75,2.84-5.62,6.07
		C987.14,1141.09,989.86,1143.61,993.09,1143.49L993.09,1143.49z"/>
	<path class="st74" d="M1919.81,957.15c-2.67,14.81-17.97,29.57-39.39,43.79c-53.11,35.26-144.35,64.88-198.53,70.67
		c-3.21,0.34-5.54,3.23-5.2,6.44c0.35,3.21,3.23,5.54,6.44,5.2c55.61-5.94,149.24-36.36,203.75-72.55
		c24.72-16.41,41.35-34.36,44.43-51.46c0.57-3.18-1.54-6.23-4.72-6.8C1923.43,951.85,1920.38,953.97,1919.81,957.15L1919.81,957.15z
		"/>
	<path class="st74" d="M1919.44,996.16c-3.02,7.37-11.88,15.66-23.6,24.21c-29.34,21.42-76.74,43.15-107.8,50.43
		c-3.14,0.74-5.1,3.89-4.36,7.03c0.73,3.15,3.89,5.1,7.03,4.37c32.28-7.56,81.54-30.12,112.03-52.38
		c13.93-10.16,23.95-20.47,27.54-29.23c1.22-2.99-0.21-6.41-3.2-7.63C1924.08,991.74,1920.67,993.17,1919.44,996.16L1919.44,996.16z
		"/>
	<path class="st74" d="M1897.68,1080.42c-10.22,8.26-104.65,54.01-163.86,57.57c-3.23,0.19-5.69,2.97-5.49,6.19
		c0.19,3.22,2.97,5.69,6.19,5.5c61.66-3.7,159.89-51.55,170.53-60.15c2.51-2.03,2.9-5.72,0.87-8.23
		C1903.87,1078.78,1900.19,1078.39,1897.68,1080.42L1897.68,1080.42z"/>
	<path class="st74" d="M145.83,928.4c10.57,14.42,33.16,28.57,59.7,40.46c38.73,17.36,85.75,30.2,113.46,33.42
		c3.21,0.38,6.11-1.92,6.49-5.13c0.37-3.21-1.93-6.11-5.14-6.49c-26.88-3.12-72.47-15.65-110.02-32.48
		c-24.34-10.91-45.35-23.48-55.04-36.7c-1.91-2.6-5.57-3.17-8.18-1.26C144.49,922.13,143.93,925.8,145.83,928.4L145.83,928.4z"/>
	<path class="st74" d="M148.17,967.48c7.87,9.12,22.84,17.7,41.01,25.3c25.96,10.87,58.53,20.06,84.51,27.35
		c3.11,0.87,6.34-0.94,7.22-4.05c0.87-3.11-0.95-6.34-4.06-7.22c-25.56-7.17-57.62-16.18-83.15-26.88
		c-16.15-6.76-29.67-14.05-36.66-22.15c-2.11-2.44-5.8-2.72-8.25-0.61C146.34,961.35,146.06,965.04,148.17,967.48L148.17,967.48z"/>
	<path class="st74" d="M542.81,734.07c201.49-95.71,462.26-94.91,630.78-89.98c3.23,0.09,5.93-2.45,6.02-5.68
		c0.09-3.23-2.45-5.93-5.68-6.02c-169.97-4.98-432.92-5.43-636.14,91.1c-2.92,1.39-4.16,4.88-2.78,7.8
		C536.39,734.21,539.89,735.46,542.81,734.07L542.81,734.07z"/>
	<path class="st74" d="M803,700.89c87.23-22.83,228.22-26.01,317.47-24.32c3.23,0.06,5.9-2.51,5.96-5.74
		c0.06-3.22-2.51-5.9-5.74-5.96c-90.15-1.71-232.55,1.64-320.66,24.7c-3.12,0.82-5,4.02-4.18,7.14
		C796.68,699.83,799.87,701.71,803,700.89L803,700.89z"/>
</g>
</svg>
