<?xml version="1.0" encoding="utf-8"?>
<!-- Generator: Adobe Illustrator 26.4.1, SVG Export Plug-In . SVG Version: 6.00 Build 0)  -->
<svg version="1.1" id="Layer_1" xmlns="http://www.w3.org/2000/svg" xmlns:xlink="http://www.w3.org/1999/xlink" x="0px" y="0px"
	 viewBox="0 0 2000 2000" style="enable-background:new 0 0 2000 2000;" xml:space="preserve">
<style type="text/css">
	.st0{fill-rule:evenodd;clip-rule:evenodd;fill:#F49E23;}
	.st1{fill-rule:evenodd;clip-rule:evenodd;fill:#D14D36;}
	.st2{fill-rule:evenodd;clip-rule:evenodd;fill:#FDF0D3;}
	.st3{fill-rule:evenodd;clip-rule:evenodd;fill:#0C427E;}
	.st4{fill-rule:evenodd;clip-rule:evenodd;fill:#B45A25;}
	.st5{fill-rule:evenodd;clip-rule:evenodd;fill:#EC8C28;}
	.st6{fill-rule:evenodd;clip-rule:evenodd;fill:#EE9726;}
	.st7{fill-rule:evenodd;clip-rule:evenodd;fill:#302574;}
	.st8{fill-rule:evenodd;clip-rule:evenodd;fill:#F3B953;}
	.st9{fill-rule:evenodd;clip-rule:evenodd;fill:#3D648F;}
	.st10{fill-rule:evenodd;clip-rule:evenodd;fill:#145468;}
	.st11{fill-rule:evenodd;clip-rule:evenodd;fill:#3B7A7A;}
	.st12{fill-rule:evenodd;clip-rule:evenodd;fill:#098B8D;}
	.st13{fill-rule:evenodd;clip-rule:evenodd;fill:#689595;}
	.st14{fill-rule:evenodd;clip-rule:evenodd;fill:#679595;}
	.st15{fill-rule:evenodd;clip-rule:evenodd;fill:#CEE4E4;}
	
		.st16{fill-rule:evenodd;clip-rule:evenodd;fill:#145468;stroke:#CEE4E4;stroke-width:5;stroke-linecap:round;stroke-linejoin:round;stroke-miterlimit:10;}
	.st17{fill-rule:evenodd;clip-rule:evenodd;fill:#043A60;}
	.st18{fill-rule:evenodd;clip-rule:evenodd;fill:#FD9A65;}
	.st19{fill-rule:evenodd;clip-rule:evenodd;fill:#18658D;}
	.st20{fill-rule:evenodd;clip-rule:evenodd;fill:#9FCDE5;}
	.st21{fill-rule:evenodd;clip-rule:evenodd;fill:#56A8D3;}
	.st22{fill-rule:evenodd;clip-rule:evenodd;fill:#276383;}
	.st23{fill-rule:evenodd;clip-rule:evenodd;fill:#E0F0F8;}
	.st24{fill-rule:evenodd;clip-rule:evenodd;fill:#A51E1C;}
	.st25{fill-rule:evenodd;clip-rule:evenodd;fill:#CB442D;}
	.st26{fill-rule:evenodd;clip-rule:evenodd;fill:#DC5A44;}
	.st27{fill-rule:evenodd;clip-rule:evenodd;fill:#F7BD54;}
	.st28{fill-rule:evenodd;clip-rule:evenodd;fill:#E46B37;}
	.st29{fill-rule:evenodd;clip-rule:evenodd;fill:#B67227;}
	.st30{fill-rule:evenodd;clip-rule:evenodd;fill:#D78A35;}
	.st31{fill-rule:evenodd;clip-rule:evenodd;fill:#A4331F;}
	.st32{fill-rule:evenodd;clip-rule:evenodd;fill:#F2A550;}
	.st33{fill-rule:evenodd;clip-rule:evenodd;fill:#F9E9D6;}
	.st34{fill-rule:evenodd;clip-rule:evenodd;fill:#844013;}
	.st35{fill-rule:evenodd;clip-rule:evenodd;fill:#A04E18;}
	.st36{fill-rule:evenodd;clip-rule:evenodd;fill:#F8B872;}
	.st37{fill-rule:evenodd;clip-rule:evenodd;fill:#FFC689;}
	.st38{fill-rule:evenodd;clip-rule:evenodd;fill:#B6844D;}
	.st39{fill-rule:evenodd;clip-rule:evenodd;fill:#CA5320;}
	.st40{fill-rule:evenodd;clip-rule:evenodd;fill:#D76332;}
	.st41{fill-rule:evenodd;clip-rule:evenodd;fill:#812F0C;}
	.st42{fill-rule:evenodd;clip-rule:evenodd;fill:#8A460F;}
	.st43{fill-rule:evenodd;clip-rule:evenodd;fill:#B46914;}
	.st44{fill-rule:evenodd;clip-rule:evenodd;fill:#B54515;}
	.st45{fill-rule:evenodd;clip-rule:evenodd;fill:#FFCD71;}
	.st46{fill-rule:evenodd;clip-rule:evenodd;fill:#95B41D;}
	.st47{fill-rule:evenodd;clip-rule:evenodd;fill:#A8C731;}
	.st48{fill-rule:evenodd;clip-rule:evenodd;fill:#85A214;}
	.st49{fill-rule:evenodd;clip-rule:evenodd;fill:#C6EF28;}
	.st50{fill-rule:evenodd;clip-rule:evenodd;fill:#ED982B;}
	.st51{fill-rule:evenodd;clip-rule:evenodd;fill:#FCCF7C;}
	.st52{fill-rule:evenodd;clip-rule:evenodd;fill:#FFE8BC;}
	.st53{fill-rule:evenodd;clip-rule:evenodd;fill:#ED6961;}
	.st54{fill-rule:evenodd;clip-rule:evenodd;fill:#696E1E;}
	.st55{fill-rule:evenodd;clip-rule:evenodd;fill:#9CA42A;}
	.st56{fill-rule:evenodd;clip-rule:evenodd;fill:#7F8615;}
	.st57{fill-rule:evenodd;clip-rule:evenodd;fill:#FFEECF;}
	.st58{fill-rule:evenodd;clip-rule:evenodd;fill:#77786D;}
	.st59{fill-rule:evenodd;clip-rule:evenodd;fill:#D3D5C6;}
	.st60{fill-rule:evenodd;clip-rule:evenodd;fill:#7C7A7A;}
	.st61{fill-rule:evenodd;clip-rule:evenodd;fill:#DBDCD9;}
	.st62{fill-rule:evenodd;clip-rule:evenodd;fill:#CA372D;}
	.st63{fill-rule:evenodd;clip-rule:evenodd;fill:#FE7D75;}
	.st64{fill-rule:evenodd;clip-rule:evenodd;fill:#B0B0B0;}
	.st65{fill-rule:evenodd;clip-rule:evenodd;fill:#888787;}
	.st66{fill-rule:evenodd;clip-rule:evenodd;fill:#6E6E6E;}
	.st67{fill-rule:evenodd;clip-rule:evenodd;fill:#757575;}
	.st68{fill-rule:evenodd;clip-rule:evenodd;fill:#60341E;}
	.st69{fill-rule:evenodd;clip-rule:evenodd;fill:#B0451B;}
	.st70{fill-rule:evenodd;clip-rule:evenodd;fill:#8A4727;}
	.st71{fill-rule:evenodd;clip-rule:evenodd;fill:#FABB64;}
	.st72{fill-rule:evenodd;clip-rule:evenodd;fill:#3E88AF;}
	.st73{fill-rule:evenodd;clip-rule:evenodd;fill:#5BA0C5;}
	.st74{fill-rule:evenodd;clip-rule:evenodd;fill:#FFF1DE;}
	.st75{fill-rule:evenodd;clip-rule:evenodd;fill:#F8B89B;}
	.st76{fill-rule:evenodd;clip-rule:evenodd;fill:#E98A5F;}
	.st77{fill-rule:evenodd;clip-rule:evenodd;fill:#FFCAB3;}
	.st78{fill-rule:evenodd;clip-rule:evenodd;fill:#F9A580;}
	.st79{fill-rule:evenodd;clip-rule:evenodd;fill:#FFDFD2;}
	.st80{fill-rule:evenodd;clip-rule:evenodd;fill:#E2A85C;}
	.st81{fill-rule:evenodd;clip-rule:evenodd;fill:#C68446;}
	.st82{fill-rule:evenodd;clip-rule:evenodd;fill:#F2BC75;}
	.st83{fill-rule:evenodd;clip-rule:evenodd;fill:#F2BC76;}
	.st84{fill-rule:evenodd;clip-rule:evenodd;fill:#FFD69F;}
	.st85{fill-rule:evenodd;clip-rule:evenodd;fill:#E7624B;}
	.st86{fill-rule:evenodd;clip-rule:evenodd;fill:#F6E8DB;}
	.st87{fill-rule:evenodd;clip-rule:evenodd;fill:#FC9EB6;}
	.st88{fill-rule:evenodd;clip-rule:evenodd;fill:#FFFFFF;}
</style>
<g>
	<path class="st29" d="M1519.05,515.38c-21.04,101.97-49.26,305.93-15.27,432.81c39.68,148.08,267.16,316.37,209.14,443.57
		c-22.11,48.48-68.62,44.88-116.4,76.9c-106.36,71.28-81.01,102.24-192.96,119.99c-85.35,13.53-17.7-220.4-11.07-306.72
		c5.38-70.26-27.55-449.96-30.73-519.06C1355.86,634.59,1528,472,1519.05,515.38L1519.05,515.38z"/>
	<path class="st30" d="M1400.75,1595.43c84.59-14.48,128.07-72.08,126.97-171.69c-1.3-117.66-99.68-247.98-106.94-387.49
		c-5-96.16,0.29-190.27,12.23-248.03c30.33-146.84,33.46-170.1,49.78-230.66c14.61-54.24-562.44,7.4-689.35-22.81
		c-43.38-10.33-181.84-86.84-176.71-62.24c18.76,89.94,14.92,273.95-15.67,360.32c-56.88,160.53-267.6,363.49-252.5,555.92
		c7.69,98.01,126.46,166.89,245.03,177.16c106.82,9.25,234.82-19.91,296.21-19.83C1077.54,1546.28,1228.6,1624.9,1400.75,1595.43
		L1400.75,1595.43z"/>
	<path class="st31" d="M1063.27,644.97c-26.08-59.04-73.51-348.05-65.17-370.28c8.42-22.44,143.6-67.95,145.64-17.82
		c4.45,108.95,1.87,315.46,10.83,372.03C1159.35,659.08,1075.75,673.23,1063.27,644.97L1063.27,644.97z"/>
	<path class="st32" d="M1519.16,510.19c-22.61-44.85-227.12,25.54-344.79,15.2c-81.31-7.15-141.03-40.29-215.95-64.15
		c-95.43-30.38-246.15-67.12-347.61-53.32c-76,10.34-38.91,94.52-46.07,144.21c-5.49,38.11-68.48,110.76-28.56,130.5
		c44.91,22.21,263.83,4.59,298.02,2.73c193.84-10.53,395.29,160.77,580.94,130.15c58.75-9.69,47.96-86.75,48.74-115.28
		C1466.11,618.41,1533.21,538.08,1519.16,510.19L1519.16,510.19z"/>
	<path class="st25" d="M988.97,611.25c-15.01-62.77-9.56-355.59,2.65-375.96c12.32-20.56,156.71-24.06,149.69,25.62
		c-15.27,107.96-58.24,293.73-59.63,350.99C1080.93,642.46,996.16,641.31,988.97,611.25L988.97,611.25z"/>
	<path class="st33" d="M907.49,882.43c137.77,0,249.63,111.85,249.63,249.62c0,137.77-111.85,249.63-249.63,249.63
		c-137.77,0-249.62-111.85-249.62-249.63C657.87,994.28,769.72,882.43,907.49,882.43L907.49,882.43z"/>
	<path class="st34" d="M757.2,1149.28c-3.08-56.46,53.3-84.43,112.31-88.5c59.37-4.1,94.22,34.98,108.15,35.31
		c4.11,0.1,59.66-32.69,67.61-18.52c5.52,9.82-6.98,42.35-2.32,48.19c9.55,11.96,26.66,40.27,14.67,54.73
		c-10.83,13.06-67.13-10.8-71.11-10.01c-4.55,0.9-35.49,46.77-105.49,50.35C814.67,1224.22,758.51,1173.29,757.2,1149.28
		L757.2,1149.28z"/>
	<path class="st35" d="M759.07,1139.29c-4.89-36.24,52.06-82.93,111.06-87c59.37-4.1,94.22,34.98,108.15,35.31
		c4.11,0.1,58.58-32.01,67.61-18.52c8.28,12.35-4.48,43.79-2.97,51.12c1.32,6.41,24.16,40.75,17.62,50.08
		c-9.75,13.89-69.67-11.74-73.66-10.95c-4.55,0.9-33.43,41.96-103.43,45.54C817.1,1208.25,762.29,1163.12,759.07,1139.29
		L759.07,1139.29z"/>
	<path class="st29" d="M400.73,1436.79c-10.66-49.36,8.91-94.28,36.17-138.42c28.56-46.23,65.65-91.54,88.77-139.4
		c1.94-4.03,0.25-8.88-3.78-10.82c-4.03-1.95-8.88-0.26-10.83,3.78c-22.88,47.38-59.69,92.16-87.96,137.93
		c-29.57,47.86-49.79,96.84-38.23,150.36c0.94,4.38,5.26,7.16,9.64,6.22C398.89,1445.48,401.67,1441.16,400.73,1436.79
		L400.73,1436.79z"/>
	<path class="st29" d="M430.65,1465.61c2.29-23.24,13.15-47.97,27.51-72.03c22.27-37.3,53.07-72.87,75.7-98.79
		c2.94-3.37,2.59-8.5-0.78-11.44c-3.37-2.94-8.5-2.6-11.44,0.77c-39.07,44.75-101,117.68-107.13,179.9
		c-0.44,4.45,2.82,8.43,7.27,8.86C426.24,1473.32,430.21,1470.07,430.65,1465.61L430.65,1465.61z"/>
	<path class="st29" d="M432.97,1389.68c0.69-11.32,9.21-24.23,19.33-38.42c17.28-24.22,39.59-51.29,46.96-77.96
		c1.19-4.31-1.34-8.78-5.66-9.98c-4.32-1.19-8.78,1.34-9.98,5.66c-6.92,25.03-28.31,50.14-44.53,72.86
		c-12.21,17.12-21.48,33.19-22.32,46.85c-0.27,4.47,3.13,8.32,7.6,8.59C428.85,1397.56,432.7,1394.15,432.97,1389.68L432.97,1389.68
		z"/>
	<path class="st29" d="M480.07,1519.66c8.56-7.44,23.74-10.41,40.95-13.13c29.39-4.65,64.33-7.72,88.52-21.16
		c3.91-2.18,5.33-7.12,3.15-11.03c-2.18-3.92-7.11-5.33-11.03-3.15c-22.7,12.61-55.6,14.95-83.18,19.31
		c-20.77,3.29-38.73,7.94-49.05,16.92c-3.38,2.94-3.73,8.06-0.8,11.44C471.57,1522.24,476.69,1522.59,480.07,1519.66L480.07,1519.66
		z"/>
	<path class="st29" d="M463.41,1503.99c26.82-33.54,58.58-47.79,90.04-61.19c33.68-14.33,67.04-27.78,94.96-59.3
		c2.97-3.35,2.66-8.48-0.69-11.45c-3.35-2.97-8.48-2.66-11.45,0.69c-26.15,29.51-57.63,41.7-89.18,55.13
		c-33.75,14.37-67.59,30-96.36,65.98c-2.8,3.49-2.23,8.6,1.27,11.39S460.62,1507.48,463.41,1503.99L463.41,1503.99z"/>
	<path class="st29" d="M1297.63,1237.34c-4.55,12.66-4.09,27.19,0.28,43.2c5.97,21.89,19.33,46.86,35.27,73.56
		c23.08,38.67,51.63,81.18,69.29,123.57c11.32,27.17,18.18,54.24,15.62,80.13c-0.44,4.45,2.82,8.43,7.27,8.87
		c4.45,0.44,8.43-2.82,8.87-7.27c2.81-28.39-4.37-58.16-16.79-87.96c-17.95-43.08-46.88-86.34-70.34-125.64
		c-15.09-25.27-27.9-48.8-33.55-69.52c-3.38-12.4-4.18-23.65-0.66-33.45c1.51-4.21-0.68-8.86-4.89-10.38
		C1303.8,1230.94,1299.15,1233.13,1297.63,1237.34L1297.63,1237.34z"/>
	<path class="st29" d="M1398.33,1334.73c-0.35,13.36,3.2,26.9,8.94,40.68c7.98,19.17,20.26,38.94,30.74,59.62
		c16.19,31.94,28.31,66.24,8.93,104.59c-2.02,3.99-0.42,8.87,3.58,10.89c3.99,2.02,8.87,0.42,10.9-3.58
		c22.08-43.67,9.51-82.85-8.93-119.24c-8.63-17.02-18.51-33.39-26.12-49.34c-7.04-14.75-12.19-29.05-11.82-43.19
		c0.12-4.48-3.42-8.2-7.89-8.32C1402.18,1326.72,1398.45,1330.26,1398.33,1334.73L1398.33,1334.73z"/>
	<path class="st29" d="M1291.22,1418.38c15.17,29.13,26.46,58.96,41.19,85.17c15.47,27.54,34.68,51.15,65.09,66.54
		c4,2.02,8.88,0.42,10.9-3.58c2.02-3.99,0.42-8.87-3.58-10.9c-27.33-13.82-44.37-35.26-58.27-60.01
		c-14.65-26.07-25.86-55.74-40.94-84.71c-2.06-3.97-6.97-5.52-10.93-3.45C1290.7,1409.51,1289.16,1414.41,1291.22,1418.38
		L1291.22,1418.38z"/>
	<path class="st29" d="M1160.76,806.66c-7.95,37.47,4.05,75.12,24.65,115.22c29.32,57.06,76.17,119.49,101.29,195.23
		c1.41,4.25,6,6.55,10.25,5.14c4.25-1.41,6.55-6,5.14-10.25c-25.4-76.59-72.61-139.83-102.26-197.54
		c-18.71-36.41-30.43-70.43-23.22-104.45c0.93-4.38-1.87-8.69-6.25-9.61C1166,799.48,1161.69,802.28,1160.76,806.66L1160.76,806.66z
		"/>
	<path class="st29" d="M1226.7,902.41c-0.66,16.84,9.34,35.54,23,54.94c18.09,25.7,42.64,53.06,48.62,80.46
		c0.95,4.37,5.28,7.15,9.65,6.19c4.37-0.95,7.15-5.28,6.19-9.65c-5.37-24.6-24.09-49.48-41.56-73.06
		c-8.15-11-15.96-21.72-21.62-32.04c-5.03-9.17-8.41-17.9-8.09-26.2c0.18-4.47-3.31-8.24-7.78-8.42
		C1230.65,894.44,1226.87,897.93,1226.7,902.41L1226.7,902.41z"/>
	<path class="st29" d="M698.4,752.3c-11.99,22.17-18.44,47.38-27.52,70.94c-8.37,21.72-19.01,42.03-39.94,56.29
		c-3.7,2.52-4.66,7.56-2.14,11.26c2.52,3.7,7.57,4.66,11.27,2.14c23.86-16.26,36.41-39.11,45.94-63.87
		c8.83-22.92,14.99-47.49,26.65-69.05c2.13-3.94,0.66-8.86-3.28-10.99C705.45,746.89,700.53,748.36,698.4,752.3L698.4,752.3z"/>
	<path class="st29" d="M588.13,532.05c13.53,11.49,33.56,17.12,57.6,18.81c33.45,2.36,75.01-2.65,116.05-6.73
		c39.69-3.95,78.87-7.1,109.23-1.03c18.37,3.67,33.38,10.66,42.38,23.84c2.53,3.69,7.57,4.64,11.27,2.12
		c3.7-2.52,4.65-7.57,2.12-11.27c-11.27-16.49-29.6-26-52.59-30.59c-31.69-6.33-72.59-3.33-114.01,0.79
		c-40.07,3.99-80.64,8.99-113.3,6.69c-20.04-1.41-36.97-5.41-48.24-14.99c-3.41-2.9-8.53-2.48-11.43,0.93
		C584.3,524.03,584.72,529.15,588.13,532.05L588.13,532.05z"/>
	<path class="st29" d="M626.26,583.82c27.51,10.82,45.28,9.97,63.06,7.34c15.97-2.37,31.95-6.45,56.7-3.15
		c4.43,0.59,8.52-2.53,9.11-6.97c0.59-4.43-2.53-8.52-6.96-9.11c-21.58-2.88-37.05-0.72-51.28,1.6c-19.11,3.11-35.76,6.58-64.67-4.8
		c-4.16-1.64-8.88,0.41-10.52,4.57C620.04,577.47,622.09,582.18,626.26,583.82L626.26,583.82z"/>
	<path class="st29" d="M725.84,513.59c66.45-17.52,124.54-18.35,164.85,5.36c3.86,2.27,8.83,0.98,11.1-2.88
		c2.27-3.86,0.98-8.83-2.88-11.1c-43.34-25.5-105.75-25.91-177.2-7.07c-4.33,1.14-6.92,5.58-5.77,9.91
		C717.07,512.15,721.51,514.73,725.84,513.59L725.84,513.59z"/>
	<path class="st29" d="M1082.01,653.4c45.4,32.12,92.64,42,133.22,36.89c98.6-12.43,125.94-19.64,204.13,9.52
		c4.19,1.56,8.87-0.57,10.43-4.76c1.56-4.19-0.57-8.87-4.76-10.43c-81.15-30.26-109.5-23.32-211.82-10.42
		c-37.13,4.68-80.28-4.64-121.82-34.04c-3.65-2.58-8.72-1.71-11.3,1.94C1077.49,645.75,1078.35,650.82,1082.01,653.4L1082.01,653.4z
		"/>
	<path class="st29" d="M1243.33,656.77c47.16-20.04,113.86-15.36,172.45,6.15c4.2,1.54,8.86-0.62,10.41-4.82
		c1.54-4.2-0.62-8.87-4.82-10.41c-62.63-22.99-133.97-27.27-184.38-5.85c-4.12,1.75-6.04,6.52-4.29,10.63
		C1234.44,656.6,1239.21,658.52,1243.33,656.77L1243.33,656.77z"/>
	<path class="st29" d="M1191.69,574.19c46.25,10.65,96.22,4.42,142.38-3.12c44.04-7.19,84.41-15.75,114-9.91
		c4.39,0.87,8.66-1.99,9.52-6.39c0.87-4.39-2-8.66-6.39-9.52c-25.03-4.94-57.4-0.54-93.19,5.39c-51.04,8.46-109.42,20-162.68,7.74
		c-4.36-1.01-8.72,1.72-9.72,6.09C1184.61,568.83,1187.33,573.19,1191.69,574.19L1191.69,574.19z"/>
</g>
</svg>
