<?xml version="1.0" encoding="utf-8"?>
<!-- Generator: Adobe Illustrator 26.4.1, SVG Export Plug-In . SVG Version: 6.00 Build 0)  -->
<svg version="1.1" id="Layer_1" xmlns="http://www.w3.org/2000/svg" xmlns:xlink="http://www.w3.org/1999/xlink" x="0px" y="0px"
	 viewBox="0 0 2000 2000" style="enable-background:new 0 0 2000 2000;" xml:space="preserve">
<style type="text/css">
	.st0{fill-rule:evenodd;clip-rule:evenodd;fill:#F49E23;}
	.st1{fill-rule:evenodd;clip-rule:evenodd;fill:#D14D36;}
	.st2{fill-rule:evenodd;clip-rule:evenodd;fill:#FDF0D3;}
	.st3{fill-rule:evenodd;clip-rule:evenodd;fill:#0C427E;}
	.st4{fill-rule:evenodd;clip-rule:evenodd;fill:#B45A25;}
	.st5{fill-rule:evenodd;clip-rule:evenodd;fill:#EC8C28;}
	.st6{fill-rule:evenodd;clip-rule:evenodd;fill:#EE9726;}
	.st7{fill-rule:evenodd;clip-rule:evenodd;fill:#302574;}
	.st8{fill-rule:evenodd;clip-rule:evenodd;fill:#F3B953;}
	.st9{fill-rule:evenodd;clip-rule:evenodd;fill:#3D648F;}
	.st10{fill-rule:evenodd;clip-rule:evenodd;fill:#145468;}
	.st11{fill-rule:evenodd;clip-rule:evenodd;fill:#3B7A7A;}
	.st12{fill-rule:evenodd;clip-rule:evenodd;fill:#098B8D;}
	.st13{fill-rule:evenodd;clip-rule:evenodd;fill:#689595;}
	.st14{fill-rule:evenodd;clip-rule:evenodd;fill:#679595;}
	.st15{fill-rule:evenodd;clip-rule:evenodd;fill:#CEE4E4;}
	
		.st16{fill-rule:evenodd;clip-rule:evenodd;fill:#145468;stroke:#CEE4E4;stroke-width:5;stroke-linecap:round;stroke-linejoin:round;stroke-miterlimit:10;}
	.st17{fill-rule:evenodd;clip-rule:evenodd;fill:#043A60;}
	.st18{fill-rule:evenodd;clip-rule:evenodd;fill:#FD9A65;}
	.st19{fill-rule:evenodd;clip-rule:evenodd;fill:#18658D;}
	.st20{fill-rule:evenodd;clip-rule:evenodd;fill:#9FCDE5;}
	.st21{fill-rule:evenodd;clip-rule:evenodd;fill:#56A8D3;}
	.st22{fill-rule:evenodd;clip-rule:evenodd;fill:#276383;}
	.st23{fill-rule:evenodd;clip-rule:evenodd;fill:#E0F0F8;}
	.st24{fill-rule:evenodd;clip-rule:evenodd;fill:#A51E1C;}
	.st25{fill-rule:evenodd;clip-rule:evenodd;fill:#CB442D;}
	.st26{fill-rule:evenodd;clip-rule:evenodd;fill:#DC5A44;}
	.st27{fill-rule:evenodd;clip-rule:evenodd;fill:#F7BD54;}
	.st28{fill-rule:evenodd;clip-rule:evenodd;fill:#E46B37;}
	.st29{fill-rule:evenodd;clip-rule:evenodd;fill:#B67227;}
	.st30{fill-rule:evenodd;clip-rule:evenodd;fill:#D78A35;}
	.st31{fill-rule:evenodd;clip-rule:evenodd;fill:#A4331F;}
	.st32{fill-rule:evenodd;clip-rule:evenodd;fill:#F2A550;}
	.st33{fill-rule:evenodd;clip-rule:evenodd;fill:#F9E9D6;}
	.st34{fill-rule:evenodd;clip-rule:evenodd;fill:#844013;}
	.st35{fill-rule:evenodd;clip-rule:evenodd;fill:#A04E18;}
	.st36{fill-rule:evenodd;clip-rule:evenodd;fill:#F8B872;}
	.st37{fill-rule:evenodd;clip-rule:evenodd;fill:#FFC689;}
	.st38{fill-rule:evenodd;clip-rule:evenodd;fill:#B6844D;}
	.st39{fill-rule:evenodd;clip-rule:evenodd;fill:#CA5320;}
	.st40{fill-rule:evenodd;clip-rule:evenodd;fill:#D76332;}
	.st41{fill-rule:evenodd;clip-rule:evenodd;fill:#812F0C;}
	.st42{fill-rule:evenodd;clip-rule:evenodd;fill:#8A460F;}
	.st43{fill-rule:evenodd;clip-rule:evenodd;fill:#B46914;}
	.st44{fill-rule:evenodd;clip-rule:evenodd;fill:#B54515;}
	.st45{fill-rule:evenodd;clip-rule:evenodd;fill:#FFCD71;}
	.st46{fill-rule:evenodd;clip-rule:evenodd;fill:#95B41D;}
	.st47{fill-rule:evenodd;clip-rule:evenodd;fill:#A8C731;}
	.st48{fill-rule:evenodd;clip-rule:evenodd;fill:#85A214;}
	.st49{fill-rule:evenodd;clip-rule:evenodd;fill:#C6EF28;}
	.st50{fill-rule:evenodd;clip-rule:evenodd;fill:#ED982B;}
	.st51{fill-rule:evenodd;clip-rule:evenodd;fill:#FCCF7C;}
	.st52{fill-rule:evenodd;clip-rule:evenodd;fill:#FFE8BC;}
	.st53{fill-rule:evenodd;clip-rule:evenodd;fill:#ED6961;}
	.st54{fill-rule:evenodd;clip-rule:evenodd;fill:#696E1E;}
	.st55{fill-rule:evenodd;clip-rule:evenodd;fill:#9CA42A;}
	.st56{fill-rule:evenodd;clip-rule:evenodd;fill:#7F8615;}
	.st57{fill-rule:evenodd;clip-rule:evenodd;fill:#FFEECF;}
	.st58{fill-rule:evenodd;clip-rule:evenodd;fill:#77786D;}
	.st59{fill-rule:evenodd;clip-rule:evenodd;fill:#D3D5C6;}
	.st60{fill-rule:evenodd;clip-rule:evenodd;fill:#7C7A7A;}
	.st61{fill-rule:evenodd;clip-rule:evenodd;fill:#DBDCD9;}
	.st62{fill-rule:evenodd;clip-rule:evenodd;fill:#CA372D;}
	.st63{fill-rule:evenodd;clip-rule:evenodd;fill:#FE7D75;}
	.st64{fill-rule:evenodd;clip-rule:evenodd;fill:#B0B0B0;}
	.st65{fill-rule:evenodd;clip-rule:evenodd;fill:#888787;}
	.st66{fill-rule:evenodd;clip-rule:evenodd;fill:#6E6E6E;}
	.st67{fill-rule:evenodd;clip-rule:evenodd;fill:#757575;}
	.st68{fill-rule:evenodd;clip-rule:evenodd;fill:#60341E;}
	.st69{fill-rule:evenodd;clip-rule:evenodd;fill:#B0451B;}
	.st70{fill-rule:evenodd;clip-rule:evenodd;fill:#8A4727;}
	.st71{fill-rule:evenodd;clip-rule:evenodd;fill:#FABB64;}
	.st72{fill-rule:evenodd;clip-rule:evenodd;fill:#3E88AF;}
	.st73{fill-rule:evenodd;clip-rule:evenodd;fill:#5BA0C5;}
	.st74{fill-rule:evenodd;clip-rule:evenodd;fill:#FFF1DE;}
	.st75{fill-rule:evenodd;clip-rule:evenodd;fill:#F8B89B;}
	.st76{fill-rule:evenodd;clip-rule:evenodd;fill:#E98A5F;}
	.st77{fill-rule:evenodd;clip-rule:evenodd;fill:#FFCAB3;}
	.st78{fill-rule:evenodd;clip-rule:evenodd;fill:#F9A580;}
	.st79{fill-rule:evenodd;clip-rule:evenodd;fill:#FFDFD2;}
	.st80{fill-rule:evenodd;clip-rule:evenodd;fill:#E2A85C;}
	.st81{fill-rule:evenodd;clip-rule:evenodd;fill:#C68446;}
	.st82{fill-rule:evenodd;clip-rule:evenodd;fill:#F2BC75;}
	.st83{fill-rule:evenodd;clip-rule:evenodd;fill:#F2BC76;}
	.st84{fill-rule:evenodd;clip-rule:evenodd;fill:#FFD69F;}
	.st85{fill-rule:evenodd;clip-rule:evenodd;fill:#E7624B;}
	.st86{fill-rule:evenodd;clip-rule:evenodd;fill:#F6E8DB;}
	.st87{fill-rule:evenodd;clip-rule:evenodd;fill:#FC9EB6;}
	.st88{fill-rule:evenodd;clip-rule:evenodd;fill:#FFFFFF;}
</style>
<g>
	<path class="st10" d="M1625.23,1600.87c68.44-28.32-276.14-944.27-448.36-937.6c-137.5,5.33-420.75,17.03-558.36,62.67
		c-285.4,94.65-560.71,724.57-514.07,803.39c51.84,87.61,709.56,239.14,824.65,228.49
		C1177.36,1734.84,1398.55,1694.68,1625.23,1600.87L1625.23,1600.87z"/>
	<path class="st11" d="M1120.46,335.86c21.06-6.42-95.04-14.77-147.43,20.2c-57.03,38.07-129.13,132.3-166.84,204.36
		c-18.38,35.13-54.9,113.56-44.53,121.56c6.46,4.98,103.38,4.28,101.5-0.36c-6.65-16.36,45.68-157.18,76.25-207.13
		C1006.01,365.68,1072.54,350.46,1120.46,335.86L1120.46,335.86z"/>
	<path class="st12" d="M1457.31,605.72c-83,2.49-823.13,81.39-816.67,81.82c101.58,6.89,254.93,171.79,286.45,254.83
		c139.84,368.46,115.75,703.91,69.54,838.71c-19.01,55.44,881.29-230.21,904.28-260.9c68.13-90.97,58.45-416.95-83.14-667.54
		C1704.06,651.4,1567.83,602.41,1457.31,605.72L1457.31,605.72z"/>
	<path class="st13" d="M569.38,744.48c-153.06,233.26-290.2,592.93-298.74,854.64c-0.12,3.75,2.83,6.9,6.58,7.02
		c3.76,0.12,6.9-2.82,7.03-6.58c8.47-259.58,144.7-616.25,296.52-847.61c2.06-3.14,1.19-7.36-1.96-9.43
		C575.66,740.47,571.44,741.34,569.38,744.48L569.38,744.48z"/>
	<path class="st14" d="M712.01,724.62c-85.44,136.94-199.45,488.52-252.11,723.19c-22.81,101.66-33.89,181.66-26.83,213.51
		c0.81,3.67,4.45,5.99,8.12,5.17c3.67-0.81,5.98-4.45,5.17-8.12c-6.87-30.98,4.63-108.7,26.82-207.58
		c52.34-233.27,165.44-582.84,250.37-718.97c1.99-3.19,1.02-7.39-2.17-9.38C718.2,720.46,714,721.44,712.01,724.62L712.01,724.62z"
		/>
	<path class="st14" d="M825.14,821.3c-97.72,250.37-192.45,655.99-188.03,924.84c0.06,3.76,3.16,6.76,6.92,6.69
		c3.76-0.06,6.76-3.16,6.69-6.92c-4.39-267.34,89.92-670.69,187.1-919.66c1.37-3.5-0.37-7.45-3.87-8.82
		C830.45,816.06,826.5,817.8,825.14,821.3L825.14,821.3z"/>
	<path class="st14" d="M952.45,986.15c-67.69,182.18-160.45,572.33-137.99,755.09c0.46,3.73,3.86,6.38,7.59,5.92
		c3.73-0.46,6.38-3.86,5.92-7.59c-22.27-181.22,70.11-568.03,137.24-748.68c1.31-3.52-0.49-7.44-4.01-8.75
		C957.68,980.83,953.76,982.63,952.45,986.15L952.45,986.15z"/>
	<path class="st14" d="M400.95,906.39c158.53,30.93,471.64,72.5,551.12,57.56c3.69-0.69,6.12-4.25,5.43-7.94
		c-0.7-3.69-4.25-6.13-7.95-5.43c-78.75,14.8-388.92-26.9-546-57.54c-3.69-0.72-7.26,1.69-7.98,5.38
		C394.85,902.09,397.26,905.67,400.95,906.39L400.95,906.39z"/>
	<path class="st14" d="M307.04,1022.34c155.61,57.09,531.31,90.31,675.16,86.48c3.76-0.1,6.72-3.23,6.62-6.99
		c-0.1-3.76-3.23-6.72-6.99-6.62c-142.77,3.81-515.67-28.98-670.11-85.64c-3.53-1.3-7.44,0.52-8.73,4.05
		C301.7,1017.13,303.52,1021.05,307.04,1022.34L307.04,1022.34z"/>
	<path class="st14" d="M218.12,1139.36c40.63,26.86,193.18,67.52,359.03,93.27c165.78,25.73,344.77,36.58,438.26,5.11
		c3.56-1.2,5.48-5.06,4.28-8.62c-1.2-3.56-5.06-5.48-8.62-4.28c-92.12,31-268.48,19.7-431.83-5.66
		c-163.27-25.35-313.61-64.73-353.61-91.17c-3.14-2.07-7.36-1.21-9.43,1.92C214.12,1133.06,214.99,1137.29,218.12,1139.36
		L218.12,1139.36z"/>
	<path class="st14" d="M150.3,1264.94c51.11,35.51,188,69.13,340.36,94.74c227.75,38.29,490,59.05,549.63,44.59
		c3.65-0.89,5.89-4.57,5.01-8.22c-0.88-3.65-4.57-5.89-8.22-5.01c-59.04,14.32-318.66-6.87-544.16-44.78
		c-149.81-25.19-284.59-57.58-334.85-92.5c-3.09-2.14-7.33-1.38-9.47,1.71C146.45,1258.55,147.22,1262.8,150.3,1264.94
		L150.3,1264.94z"/>
	<path class="st14" d="M109.14,1413.41c278.89,95.34,664.05,183.21,931.22,154.82c3.74-0.4,6.45-3.75,6.05-7.49
		c-0.4-3.74-3.75-6.45-7.49-6.05c-265.5,28.21-648.22-59.42-925.38-154.16c-3.56-1.21-7.43,0.68-8.64,4.24
		C103.69,1408.32,105.59,1412.2,109.14,1413.41L109.14,1413.41z"/>
	<path class="st15" d="M1007.55,982.4c-38.55-122.95-140.65-295.82-285.48-308.3c-89.18-7.69-245.27,68.5-333.97,158.04
		c-166.83,168.42-338.41,507.34-329.69,703.84c2.08,46.92,201.55,138.61,425.68,201.73c223.52,62.95,534.42,88.78,587.96,40.91
		C1123.76,1732.38,1132.77,1381.76,1007.55,982.4L1007.55,982.4z M935.96,1040.23c-28.35-108.27-112.43-283.44-237.52-300.57
		C602.31,726.5,464.55,845.5,402.76,915.98c-171.33,195.43-266.63,432.2-266.76,583.79c-0.04,40.79,163.28,114.84,357.95,169.66
		c194.15,54.68,446.03,75.59,492.53,34.01C1031.4,1663.28,1012.21,1331.43,935.96,1040.23L935.96,1040.23z"/>
	<path class="st10" d="M1116.6,714.34c-16.77,4.24-8.79,62.27,1.88,95.86c8.38,26.4,257.85-45.32,292.66-50.57
		c28-4.22-2.69-99.9-20.2-98.66C1345.9,664.16,1154.29,704.81,1116.6,714.34L1116.6,714.34z"/>
	<path class="st14" d="M1167.07,762.09c10.16-35.04,13.37-100.64,12.25-157.9c-1.66-84.84-16.95-225.04-89.54-252.79
		c-63.37-24.23-153.75,36.72-150.67,32.67c15.08-19.88,84.36-76.68,169.99-70.22c84.95,6.41,148.14,74.7,180.34,155.15
		c23.18,57.91,44.37,212.84,41.51,255.48C1328.86,755.64,1164.49,770.98,1167.07,762.09L1167.07,762.09z"/>
	<path class="st15" d="M1083.23,754.02c2.35-1.82,6.59-3.35,11.54-4.76c12.92-3.7,30.5-6,37.64-6.15c2.88-0.06,5.18-2.45,5.12-5.33
		c-0.06-2.89-2.45-5.18-5.33-5.12c-7.64,0.16-26.47,2.59-40.3,6.54c-6.51,1.86-11.97,4.15-15.07,6.55c-2.28,1.77-2.7,5.05-0.93,7.33
		C1077.66,755.37,1080.95,755.79,1083.23,754.02L1083.23,754.02z"/>
	<path class="st15" d="M1081.86,785.79c2.89-3.53,9.26-5.69,16.34-7.57c12.46-3.31,27.22-4.99,34.57-6.75
		c2.81-0.67,4.54-3.5,3.87-6.3c-0.67-2.8-3.5-4.54-6.3-3.86c-7.4,1.77-22.26,3.48-34.82,6.81c-9.6,2.55-17.85,6.27-21.76,11.06
		c-1.82,2.23-1.49,5.53,0.74,7.36C1076.74,788.36,1080.03,788.03,1081.86,785.79L1081.86,785.79z"/>
	<path class="st15" d="M1094.05,808.83c6-3.56,14.15-4.8,22.45-5.71c9.33-1.02,18.85-1.53,26.41-3.37c2.8-0.68,4.53-3.51,3.84-6.32
		c-0.68-2.8-3.51-4.53-6.31-3.84c-8.7,2.12-20.12,2.32-30.66,3.83c-7.87,1.13-15.27,2.98-21.06,6.42c-2.48,1.48-3.3,4.69-1.83,7.17
		C1088.36,809.49,1091.57,810.31,1094.05,808.83L1094.05,808.83z"/>
	<path class="st15" d="M1388.17,688.69c22.91-10.61,39.9-9.78,49.88-10.11c2.88-0.1,5.15-2.51,5.05-5.4
		c-0.09-2.88-2.51-5.15-5.4-5.05c-10.8,0.36-29.16-0.41-53.93,11.07c-2.62,1.21-3.76,4.33-2.55,6.94
		C1382.44,688.77,1385.55,689.9,1388.17,688.69L1388.17,688.69z"/>
	<path class="st15" d="M1390.47,710.51c15.22-4.27,40.54-11.55,58.45-9.37c2.86,0.35,5.47-1.69,5.82-4.56
		c0.35-2.86-1.69-5.47-4.56-5.82c-19.14-2.33-46.26,5.11-62.54,9.68c-2.78,0.78-4.4,3.67-3.62,6.44
		C1384.81,709.66,1387.7,711.28,1390.47,710.51L1390.47,710.51z"/>
	<path class="st15" d="M1395.35,734.52c11.85-1.97,25.62-5.34,37.82-6.74c7.35-0.85,14.08-1.04,19.24,0.58
		c2.75,0.86,5.69-0.67,6.55-3.42c0.86-2.75-0.67-5.69-3.43-6.55c-6.31-1.98-14.55-2.03-23.56-0.99
		c-12.36,1.43-26.33,4.82-38.34,6.82c-2.85,0.47-4.77,3.17-4.3,6.01C1389.81,733.07,1392.5,735,1395.35,734.52L1395.35,734.52z"/>
	<path class="st16" d="M1145.68,910.69c25.89-1.83,48.4,17.7,50.23,43.59c1.83,25.89-17.7,48.4-43.59,50.23
		c-25.89,1.83-48.4-17.7-50.23-43.59C1100.25,935.02,1119.78,912.52,1145.68,910.69L1145.68,910.69z"/>
	<path class="st16" d="M1290.96,1517.64c25.66-3.91,49.67,13.75,53.58,39.41c3.91,25.66-13.75,49.67-39.41,53.58
		c-25.66,3.91-49.66-13.75-53.58-39.41C1247.64,1545.56,1265.3,1521.55,1290.96,1517.64L1290.96,1517.64z"/>
	<path class="st16" d="M1310.3,878.37c25.89-1.83,48.4,17.7,50.23,43.59c1.83,25.89-17.7,48.4-43.59,50.23
		c-25.89,1.83-48.4-17.7-50.23-43.59C1264.87,902.7,1284.41,880.2,1310.3,878.37L1310.3,878.37z"/>
	<path class="st16" d="M1452.44,1472.18c25.66-3.91,49.66,13.75,53.58,39.41c3.91,25.66-13.75,49.67-39.41,53.58
		c-25.66,3.91-49.67-13.75-53.58-39.41C1409.13,1500.1,1426.78,1476.09,1452.44,1472.18L1452.44,1472.18z"/>
	<path class="st16" d="M1476.37,842.15c25.89-1.83,48.4,17.7,50.23,43.59c1.83,25.89-17.7,48.4-43.59,50.23
		c-25.89,1.83-48.4-17.7-50.23-43.59S1450.48,843.98,1476.37,842.15L1476.37,842.15z"/>
	<path class="st16" d="M1615.07,1422.71c25.66-3.91,49.67,13.75,53.58,39.41c3.91,25.66-13.75,49.67-39.41,53.58
		c-25.66,3.91-49.67-13.75-53.58-39.41C1571.75,1450.62,1589.41,1426.62,1615.07,1422.71L1615.07,1422.71z"/>
	<path class="st16" d="M1642.71,806.07c25.89-1.83,48.4,17.7,50.23,43.59c1.83,25.89-17.7,48.4-43.59,50.23
		c-25.89,1.83-48.4-17.7-50.23-43.59C1597.29,830.41,1616.82,807.9,1642.71,806.07L1642.71,806.07z"/>
	<path class="st16" d="M1777.96,1373.36c25.66-3.91,49.67,13.75,53.57,39.41c3.91,25.66-13.75,49.67-39.41,53.58
		c-25.66,3.91-49.67-13.75-53.58-39.41C1734.65,1401.27,1752.3,1377.26,1777.96,1373.36L1777.96,1373.36z"/>
	<path class="st15" d="M1145.56,361c19.41,8.53,39.06,28.38,55.84,55.96c25.92,42.6,44.66,103.54,44.16,171.6
		c-0.03,3.76,3,6.83,6.76,6.86c3.76,0.03,6.83-3,6.86-6.75c0.52-70.92-19.14-134.39-46.14-178.77
		c-18.51-30.42-40.58-51.93-61.99-61.34c-3.44-1.51-7.46,0.05-8.97,3.49C1140.56,355.47,1142.13,359.49,1145.56,361L1145.56,361z"/>
	<path class="st15" d="M1201.52,381.93c37.34,34.33,61.53,103.38,68.16,152.92c0.5,3.72,3.93,6.34,7.65,5.84
		c3.72-0.5,6.34-3.93,5.84-7.65c-7-52.28-33.04-124.91-72.44-161.13c-2.77-2.55-7.08-2.36-9.62,0.4
		C1198.58,375.08,1198.76,379.39,1201.52,381.93L1201.52,381.93z"/>
	<path class="st15" d="M1183.32,434.6c49.12,85,36.48,209.6,34.3,291.46c-0.1,3.76,2.87,6.89,6.62,6.99
		c3.76,0.1,6.89-2.87,6.99-6.62c2.24-83.9,14.23-211.51-36.12-298.63c-1.88-3.25-6.05-4.37-9.3-2.49
		C1182.56,427.18,1181.44,431.35,1183.32,434.6L1183.32,434.6z"/>
	<path class="st15" d="M1118.39,1166.17c170.58-33.68,524.53-145.39,676.01-221.18c4.03-2.02,5.67-6.93,3.65-10.96
		c-2.02-4.03-6.93-5.67-10.96-3.65c-150.54,75.32-502.34,186.28-671.86,219.76c-4.42,0.88-7.3,5.17-6.43,9.6
		C1109.67,1164.16,1113.97,1167.04,1118.39,1166.17L1118.39,1166.17z"/>
	<path class="st15" d="M1110.5,1221.29c285.01-77.54,492.35-146.36,705.52-243.02c4.11-1.86,5.93-6.71,4.07-10.81
		c-1.86-4.11-6.71-5.93-10.81-4.07c-212.42,96.33-419.05,164.87-703.06,242.14c-4.35,1.18-6.92,5.68-5.74,10.02
		C1101.66,1219.91,1106.15,1222.48,1110.5,1221.29L1110.5,1221.29z"/>
	<path class="st15" d="M1147.26,1495.57c208.07-51.96,676.31-208.21,758.68-259.55c3.82-2.39,5-7.43,2.61-11.25
		c-2.38-3.82-7.43-5-11.25-2.61c-81.85,51.02-547.25,205.94-754,257.57c-4.37,1.09-7.04,5.53-5.95,9.9
		C1138.44,1494,1142.88,1496.66,1147.26,1495.57L1147.26,1495.57z"/>
	<path class="st15" d="M1126.78,1538.36c171.24-41.11,645.5-196.28,788.84-265.48c4.06-1.96,5.76-6.85,3.8-10.91
		c-1.96-4.06-6.85-5.76-10.91-3.8c-142.73,68.91-615.02,223.37-785.55,264.3c-4.38,1.05-7.09,5.47-6.03,9.85
		C1117.99,1536.7,1122.4,1539.41,1126.78,1538.36L1126.78,1538.36z"/>
</g>
</svg>
