<?xml version="1.0" encoding="utf-8"?>
<!-- Generator: Adobe Illustrator 26.4.1, SVG Export Plug-In . SVG Version: 6.00 Build 0)  -->
<svg version="1.1" id="Layer_1" xmlns="http://www.w3.org/2000/svg" xmlns:xlink="http://www.w3.org/1999/xlink" x="0px" y="0px"
	 viewBox="0 0 2000 2000" style="enable-background:new 0 0 2000 2000;" xml:space="preserve">
<style type="text/css">
	.st0{fill-rule:evenodd;clip-rule:evenodd;fill:#F49E23;}
	.st1{fill-rule:evenodd;clip-rule:evenodd;fill:#D14D36;}
	.st2{fill-rule:evenodd;clip-rule:evenodd;fill:#FDF0D3;}
	.st3{fill-rule:evenodd;clip-rule:evenodd;fill:#0C427E;}
	.st4{fill-rule:evenodd;clip-rule:evenodd;fill:#B45A25;}
	.st5{fill-rule:evenodd;clip-rule:evenodd;fill:#EC8C28;}
	.st6{fill-rule:evenodd;clip-rule:evenodd;fill:#EE9726;}
	.st7{fill-rule:evenodd;clip-rule:evenodd;fill:#302574;}
	.st8{fill-rule:evenodd;clip-rule:evenodd;fill:#F3B953;}
	.st9{fill-rule:evenodd;clip-rule:evenodd;fill:#3D648F;}
	.st10{fill-rule:evenodd;clip-rule:evenodd;fill:#145468;}
	.st11{fill-rule:evenodd;clip-rule:evenodd;fill:#3B7A7A;}
	.st12{fill-rule:evenodd;clip-rule:evenodd;fill:#098B8D;}
	.st13{fill-rule:evenodd;clip-rule:evenodd;fill:#689595;}
	.st14{fill-rule:evenodd;clip-rule:evenodd;fill:#679595;}
	.st15{fill-rule:evenodd;clip-rule:evenodd;fill:#CEE4E4;}
	
		.st16{fill-rule:evenodd;clip-rule:evenodd;fill:#145468;stroke:#CEE4E4;stroke-width:5;stroke-linecap:round;stroke-linejoin:round;stroke-miterlimit:10;}
	.st17{fill-rule:evenodd;clip-rule:evenodd;fill:#043A60;}
	.st18{fill-rule:evenodd;clip-rule:evenodd;fill:#FD9A65;}
	.st19{fill-rule:evenodd;clip-rule:evenodd;fill:#18658D;}
	.st20{fill-rule:evenodd;clip-rule:evenodd;fill:#9FCDE5;}
	.st21{fill-rule:evenodd;clip-rule:evenodd;fill:#56A8D3;}
	.st22{fill-rule:evenodd;clip-rule:evenodd;fill:#276383;}
	.st23{fill-rule:evenodd;clip-rule:evenodd;fill:#E0F0F8;}
	.st24{fill-rule:evenodd;clip-rule:evenodd;fill:#A51E1C;}
	.st25{fill-rule:evenodd;clip-rule:evenodd;fill:#CB442D;}
	.st26{fill-rule:evenodd;clip-rule:evenodd;fill:#DC5A44;}
	.st27{fill-rule:evenodd;clip-rule:evenodd;fill:#F7BD54;}
	.st28{fill-rule:evenodd;clip-rule:evenodd;fill:#E46B37;}
	.st29{fill-rule:evenodd;clip-rule:evenodd;fill:#B67227;}
	.st30{fill-rule:evenodd;clip-rule:evenodd;fill:#D78A35;}
	.st31{fill-rule:evenodd;clip-rule:evenodd;fill:#A4331F;}
	.st32{fill-rule:evenodd;clip-rule:evenodd;fill:#F2A550;}
	.st33{fill-rule:evenodd;clip-rule:evenodd;fill:#F9E9D6;}
	.st34{fill-rule:evenodd;clip-rule:evenodd;fill:#844013;}
	.st35{fill-rule:evenodd;clip-rule:evenodd;fill:#A04E18;}
	.st36{fill-rule:evenodd;clip-rule:evenodd;fill:#F8B872;}
	.st37{fill-rule:evenodd;clip-rule:evenodd;fill:#FFC689;}
	.st38{fill-rule:evenodd;clip-rule:evenodd;fill:#B6844D;}
	.st39{fill-rule:evenodd;clip-rule:evenodd;fill:#CA5320;}
	.st40{fill-rule:evenodd;clip-rule:evenodd;fill:#D76332;}
	.st41{fill-rule:evenodd;clip-rule:evenodd;fill:#812F0C;}
	.st42{fill-rule:evenodd;clip-rule:evenodd;fill:#8A460F;}
	.st43{fill-rule:evenodd;clip-rule:evenodd;fill:#B46914;}
	.st44{fill-rule:evenodd;clip-rule:evenodd;fill:#B54515;}
	.st45{fill-rule:evenodd;clip-rule:evenodd;fill:#FFCD71;}
	.st46{fill-rule:evenodd;clip-rule:evenodd;fill:#95B41D;}
	.st47{fill-rule:evenodd;clip-rule:evenodd;fill:#A8C731;}
	.st48{fill-rule:evenodd;clip-rule:evenodd;fill:#85A214;}
	.st49{fill-rule:evenodd;clip-rule:evenodd;fill:#C6EF28;}
	.st50{fill-rule:evenodd;clip-rule:evenodd;fill:#ED982B;}
	.st51{fill-rule:evenodd;clip-rule:evenodd;fill:#FCCF7C;}
	.st52{fill-rule:evenodd;clip-rule:evenodd;fill:#FFE8BC;}
	.st53{fill-rule:evenodd;clip-rule:evenodd;fill:#ED6961;}
	.st54{fill-rule:evenodd;clip-rule:evenodd;fill:#696E1E;}
	.st55{fill-rule:evenodd;clip-rule:evenodd;fill:#9CA42A;}
	.st56{fill-rule:evenodd;clip-rule:evenodd;fill:#7F8615;}
	.st57{fill-rule:evenodd;clip-rule:evenodd;fill:#FFEECF;}
	.st58{fill-rule:evenodd;clip-rule:evenodd;fill:#77786D;}
	.st59{fill-rule:evenodd;clip-rule:evenodd;fill:#D3D5C6;}
	.st60{fill-rule:evenodd;clip-rule:evenodd;fill:#7C7A7A;}
	.st61{fill-rule:evenodd;clip-rule:evenodd;fill:#DBDCD9;}
	.st62{fill-rule:evenodd;clip-rule:evenodd;fill:#CA372D;}
	.st63{fill-rule:evenodd;clip-rule:evenodd;fill:#FE7D75;}
	.st64{fill-rule:evenodd;clip-rule:evenodd;fill:#B0B0B0;}
	.st65{fill-rule:evenodd;clip-rule:evenodd;fill:#888787;}
	.st66{fill-rule:evenodd;clip-rule:evenodd;fill:#6E6E6E;}
	.st67{fill-rule:evenodd;clip-rule:evenodd;fill:#757575;}
	.st68{fill-rule:evenodd;clip-rule:evenodd;fill:#60341E;}
	.st69{fill-rule:evenodd;clip-rule:evenodd;fill:#B0451B;}
	.st70{fill-rule:evenodd;clip-rule:evenodd;fill:#8A4727;}
	.st71{fill-rule:evenodd;clip-rule:evenodd;fill:#FABB64;}
	.st72{fill-rule:evenodd;clip-rule:evenodd;fill:#3E88AF;}
	.st73{fill-rule:evenodd;clip-rule:evenodd;fill:#5BA0C5;}
	.st74{fill-rule:evenodd;clip-rule:evenodd;fill:#FFF1DE;}
	.st75{fill-rule:evenodd;clip-rule:evenodd;fill:#F8B89B;}
	.st76{fill-rule:evenodd;clip-rule:evenodd;fill:#E98A5F;}
	.st77{fill-rule:evenodd;clip-rule:evenodd;fill:#FFCAB3;}
	.st78{fill-rule:evenodd;clip-rule:evenodd;fill:#F9A580;}
	.st79{fill-rule:evenodd;clip-rule:evenodd;fill:#FFDFD2;}
	.st80{fill-rule:evenodd;clip-rule:evenodd;fill:#E2A85C;}
	.st81{fill-rule:evenodd;clip-rule:evenodd;fill:#C68446;}
	.st82{fill-rule:evenodd;clip-rule:evenodd;fill:#F2BC75;}
	.st83{fill-rule:evenodd;clip-rule:evenodd;fill:#F2BC76;}
	.st84{fill-rule:evenodd;clip-rule:evenodd;fill:#FFD69F;}
	.st85{fill-rule:evenodd;clip-rule:evenodd;fill:#E7624B;}
	.st86{fill-rule:evenodd;clip-rule:evenodd;fill:#F6E8DB;}
	.st87{fill-rule:evenodd;clip-rule:evenodd;fill:#FC9EB6;}
	.st88{fill-rule:evenodd;clip-rule:evenodd;fill:#FFFFFF;}
</style>
<g>
	<path class="st36" d="M605.88,785.43c102.41-20.47,704.86-152.4,714.45-159.75c33.66-25.77-36.43-126.41,47-250.52
		c79.73-118.6,298.96-69.69,345.81-26.53c85.47,78.74,98.53,143.46,53.71,216.83c-28.06,45.94-41.69,73.29-28.1,100.93
		c27.86,56.68,104.81,64.49,125.98,165.05c16.48,78.29-27.89,194.82-117.44,255.24c-83.24,56.16-215.57,83.1-311.96-31.58
		c-75.14-89.39-35.2-174.41-97.43-158.14c-99.92,26.12-600.63,150.03-619.57,179.19c-26.68,41.06,17.5,72.59,19.54,145.21
		c3.24,115.69-70.34,217.81-206.31,231.06c-80.44,7.84-263.61-68.17-266.13-172.58c-3.25-135.02,59.6-146.22,43.89-189.51
		c-23.07-63.57-92.33-19.86-154.07-116.05c-66.15-103.05-16.71-201.18,36.63-254.7c76.29-76.54,188.09-117.42,297.91-40.56
		C559.87,728.08,591.69,788.27,605.88,785.43L605.88,785.43z"/>
	<path class="st37" d="M168.3,892.21c-16.77-81.79,56.66-232.91,228.65-218.96C529.77,684.01,526.19,829,603.37,821.71
		c103.74-9.8,353-87.03,506.5-109.27c104.83-15.19,173.53-37.16,241.8-60.48c50.94-17.4,3.98-109.72,16.06-185.05
		c9.39-58.59,45.77-125.7,164.09-130.4c67.32-2.67,178.32,14.71,205.33,76.68c38.96,89.4,22.01,151.2-35.35,171.45
		c-33.92,11.97-94.87-11.91-131.76,4.63c-44.55,19.97-95.58,66.36-125.9,107.56c-37.89,51.5-132.07,58.06-192.58,72.18
		c-206.32,48.14-396.07,105.13-611.91,141.83c-55.34,9.41-111.58,75.96-169.87,71.55c-65.19-4.94-118.41,48.67-181.52,16.45
		C241.55,974.99,181.4,956.07,168.3,892.21L168.3,892.21z"/>
	<path class="st37" d="M345.26,1120.33c-48.08,59.77-96.14,182.15,11.55,242.03c75.89,42.2,133.02,80.71,204.98,54.42
		c21.26-7.76,133.42-86.69,140.96-135.1c16.97-108.89-53.55-194.43-25.28-251.76c22.76-46.17-95.18-40.88-195.96-1.94
		C429.71,1047.99,379.64,1077.57,345.26,1120.33L345.26,1120.33z"/>
	<path class="st37" d="M1409.47,874.46c54.81,34.19-47.82,179.64,133.95,202.38c69.29,8.66,56.22,29.9,133.06,6.96
		c43.51-12.99,57.42-30.79,84.85-62.16c69.15-79.12,106.4-207.14,15.95-281.19c-59.76-48.93-103.54,27.48-150.67,4.42
		c-23.58-11.53-4.62-39.93-34.7-62.42c-27.55-20.59-86.13,1.64-105.05,12.81C1417.66,736.12,1322.2,820.03,1409.47,874.46
		L1409.47,874.46z"/>
	<path class="st38" d="M410.89,627.98c-94.71-16.62-198.55,39.1-250.08,99.66c-67.1,78.85-64.64,215.82,9.61,286.79
		c28.82,27.55,63.38,38.85,94.27,50.46c22.89,8.6,43.73,16.88,55.56,36.82c7.89,13.28,11.51,31.49,10.12,57.51
		c-0.43,8.19,5.86,15.2,14.06,15.63c8.2,0.44,15.21-5.86,15.64-14.06c1.88-35.18-4.56-59.11-15.63-76.54
		c-11.37-17.88-27.84-29.26-47.25-38.19c-32.13-14.8-73.52-21.9-106.2-53.13c-63.69-60.88-65.07-178.39-7.52-246.03
		c45.87-53.92,137.97-104.43,222.29-89.63c8.09,1.41,15.8-4,17.22-12.08C424.39,637.12,418.98,629.4,410.89,627.98L410.89,627.98z"
		/>
	<path class="st38" d="M259.33,740.21c-33.85,15.47-57.63,52.26-64.59,92.17c-7.01,40.18,3,82.86,34.2,109.32
		c6.25,5.31,15.65,4.54,20.95-1.72c5.32-6.26,4.54-15.65-1.72-20.95c-23.16-19.64-29.35-51.71-24.14-81.53
		c5.25-30.1,22.13-58.57,47.66-70.24c7.46-3.42,10.76-12.24,7.35-19.71C275.63,740.09,266.8,736.8,259.33,740.21L259.33,740.21z"/>
	<path class="st38" d="M284.85,788.6c-19.59,11.59-26.81,32.61-25.85,55.2c0.86,20.31,8.36,41.62,16.21,55.16
		c4.18,7.24,8.71,12.48,12.42,15.31c6.53,4.97,15.87,3.69,20.83-2.85c4.97-6.53,3.69-15.87-2.85-20.83
		c-1.77-1.34-3.49-4.32-5.48-7.94c-4.23-7.75-8.21-18.35-10.2-29.36c-2.71-14.94-2.92-31.41,10.05-39.09
		c7.06-4.18,9.4-13.3,5.23-20.37C301.04,786.77,291.91,784.42,284.85,788.6L284.85,788.6z"/>
	<path class="st38" d="M356.61,1411.79c109.02,55.68,220.92,61.29,289.56,9.39c34.95-26.44,62.03-52.91,79.37-87.98
		c25.53-51.65,30.1-122.75,3.83-243.12c-0.45-2.06,1.3-3.72,3.09-5.79c4.47-5.2,11.6-10.22,20.61-15.32
		c49.31-27.91,149.75-53.19,237.49-67.18c8.11-1.29,13.63-8.92,12.35-17.02c-1.29-8.1-8.92-13.63-17.02-12.35
		c-91.49,14.58-196.05,41.56-247.47,70.67c-15.49,8.77-26.56,18.09-32.47,27.04c-5.78,8.75-7.51,17.62-5.62,26.28
		c24.15,110.7,22.03,176.11-1.44,223.6c-15.33,31.03-39.72,54.05-70.65,77.44c-61.2,46.29-160.86,37.5-258.09-12.16
		c-7.31-3.73-16.27-0.83-20,6.48C346.4,1399.08,349.31,1408.06,356.61,1411.79L356.61,1411.79z"/>
	<path class="st38" d="M655.26,1157.17c-6.36-29.77-6.08-55.19,2.71-76.19c8.5-20.32,25.06-36.1,50.02-47.91
		c7.42-3.51,10.59-12.38,7.08-19.8c-3.51-7.42-12.38-10.59-19.8-7.08c-32.63,15.44-53.63,36.76-64.74,63.33
		c-10.83,25.89-12.2,57.18-4.35,93.88c1.72,8.03,9.63,13.15,17.65,11.44C651.86,1173.11,656.98,1165.2,655.26,1157.17
		L655.26,1157.17z"/>
	<path class="st38" d="M1056.83,914.41c66.66-17.3,173.08-40.36,240.31-55.93c7.99-1.85,12.98-9.84,11.13-17.84
		c-1.85-7.99-9.84-12.98-17.83-11.13c-67.44,15.62-174.2,38.77-241.07,56.12c-7.94,2.05-12.72,10.17-10.65,18.12
		S1048.89,916.47,1056.83,914.41L1056.83,914.41z"/>
	<path class="st38" d="M1136.26,956.69c55.51-16.26,117.76-32.97,173.65-43.67c8.07-1.54,13.36-9.34,11.81-17.4
		c-1.54-8.06-9.34-13.35-17.4-11.81c-56.78,10.87-120.02,27.82-176.42,44.34c-7.88,2.31-12.4,10.58-10.09,18.45
		C1120.12,954.48,1128.38,959,1136.26,956.69L1136.26,956.69z"/>
	<path class="st38" d="M1283.54,669.39c43.66-14.59,58.94-46.28,63.7-86.9c3.09-26.38,1.5-56.85,2.17-87.98
		c0.62-28.76,3.17-58.19,14.65-85.05c16.96-39.72,50.47-66.57,90.21-82.34c61.65-24.46,138.31-22.56,195.53,1.23
		c104.91,43.63,145.7,107.92,121.97,177.03c-12.99,37.83-42.86,76.46-57.07,115.12c-8.2,22.26-11.54,44.57-6.06,66.72
		c5.42,21.93,19.49,44.07,47.7,65.65c6.52,4.98,15.86,3.74,20.85-2.78c4.98-6.52,3.74-15.86-2.78-20.84
		c-20.56-15.73-31.92-31.33-36.41-47.31c-6.82-24.27,2.04-48.56,14.14-72.94c15.66-31.55,37.15-63.06,47.77-93.96
		c28.15-82.02-14.17-162.36-138.68-214.15c-63.75-26.52-149.2-28.68-217.91-1.42c-47.17,18.72-86.46,51.14-106.6,98.3
		c-21.12,49.47-16.15,106.6-17.36,155.44c-1,40.23-5.5,74.69-45.24,87.96c-7.79,2.6-11.99,11.03-9.39,18.81
		C1267.32,667.78,1275.75,671.99,1283.54,669.39L1283.54,669.39z"/>
	<path class="st38" d="M1593.21,390.18c79.99-11.74,120.6,64.6,112.38,121.59c-1.17,8.12,4.47,15.67,12.6,16.84
		c8.12,1.17,15.66-4.47,16.83-12.6c10.58-73.4-43.14-170.39-146.13-155.26c-8.12,1.19-13.74,8.75-12.55,16.87
		C1577.54,385.75,1585.1,391.38,1593.21,390.18L1593.21,390.18z"/>
	<path class="st38" d="M1391.81,946.97c-17.19,151.75,146.03,228.9,266.23,187.44c7.76-2.68,11.89-11.15,9.21-18.91
		c-2.68-7.76-11.16-11.89-18.91-9.21c-101.68,35.07-241.52-27.62-226.99-155.98c0.93-8.15-4.94-15.52-13.1-16.45
		C1400.1,932.94,1392.73,938.82,1391.81,946.97L1391.81,946.97z"/>
	<path class="st38" d="M1487.8,1038.32c18.12,29.09,47.52,42.96,79.62,46.02c45.36,4.34,95.85-13.53,122.79-36.48
		c6.24-5.33,6.99-14.72,1.67-20.97c-5.32-6.24-14.72-6.99-20.96-1.67c-18.41,15.69-50.36,28.12-82,29.85
		c-29.65,1.62-59.48-6.14-75.88-32.47c-4.34-6.97-13.51-9.1-20.48-4.77C1485.6,1022.18,1483.46,1031.35,1487.8,1038.32
		L1487.8,1038.32z"/>
	<path class="st38" d="M1762.85,833.37c13.34,19.02,14.6,47.07,9.39,73.52c-5.31,26.98-17.55,52.71-33.68,66.04
		c-6.33,5.23-7.22,14.61-1.99,20.93c5.23,6.33,14.61,7.22,20.93,1.99c20.48-16.93,37.17-48.98,43.91-83.22
		c6.85-34.76,3.3-71.36-14.22-96.35c-4.71-6.72-13.99-8.35-20.71-3.64C1759.77,817.37,1758.14,826.65,1762.85,833.37L1762.85,833.37
		z"/>
	<path class="st38" d="M1833.92,813.07c18.52,75.49-18.14,158.85-52.32,207.42c-4.72,6.72-3.1,16,3.61,20.72
		c6.72,4.72,16,3.1,20.72-3.61c38.1-54.15,77.51-147.45,56.87-231.62c-1.95-7.97-10.02-12.86-17.98-10.9
		C1836.85,797.03,1831.96,805.1,1833.92,813.07L1833.92,813.07z"/>
	<path class="st38" d="M715.04,800.27c67.83-21.68,141.65-27.43,209.51-45.4c7.94-2.1,12.67-10.24,10.57-18.18
		c-2.11-7.94-10.25-12.67-18.18-10.57c-68.34,18.1-142.65,23.99-210.96,45.82c-7.81,2.5-12.14,10.88-9.63,18.69
		C698.84,798.45,707.22,802.76,715.04,800.27L715.04,800.27z"/>
	<path class="st38" d="M1004.53,795.71c10.95-2.32,21.73,4.69,24.05,15.64c2.32,10.96-4.69,21.73-15.64,24.05
		c-10.95,2.32-21.73-4.68-24.05-15.64C986.57,808.81,993.58,798.03,1004.53,795.71L1004.53,795.71z"/>
	<path class="st38" d="M506.94,803.88c15.84-3.36,31.42,6.78,34.78,22.62c3.36,15.84-6.78,31.42-22.62,34.78
		s-31.43-6.78-34.78-22.62S491.1,807.24,506.94,803.88L506.94,803.88z"/>
	<path class="st38" d="M419.62,892.81c12.44-2.63,24.67,5.33,27.31,17.77c2.63,12.43-5.32,24.67-17.76,27.31
		c-12.43,2.63-24.67-5.33-27.31-17.76C399.23,907.68,407.19,895.45,419.62,892.81L419.62,892.81z"/>
	<path class="st38" d="M418.99,768.05c20.22-4.28,40.1,8.65,44.38,28.87c4.28,20.21-8.65,40.1-28.87,44.38
		c-20.21,4.28-40.1-8.65-44.38-28.87C385.84,792.22,398.77,772.33,418.99,768.05L418.99,768.05z"/>
	<path class="st38" d="M1103.82,721.04c13.44-2.85,26.66,5.75,29.51,19.19c2.85,13.44-5.75,26.66-19.19,29.51
		c-13.44,2.85-26.66-5.75-29.51-19.19C1081.78,737.11,1090.38,723.88,1103.82,721.04L1103.82,721.04z"/>
	<path class="st38" d="M881.85,835.26c13.44-2.85,26.66,5.75,29.51,19.19c2.85,13.44-5.75,26.66-19.19,29.51
		c-13.44,2.85-26.66-5.75-29.51-19.19C859.81,851.33,868.41,838.11,881.85,835.26L881.85,835.26z"/>
	<path class="st38" d="M1086.29,806.39c8.96-1.9,17.79,3.84,19.69,12.8c1.9,8.96-3.84,17.79-12.8,19.68
		c-8.96,1.9-17.79-3.84-19.69-12.8C1071.59,817.11,1077.33,808.29,1086.29,806.39L1086.29,806.39z"/>
	<path class="st38" d="M509.77,1202.63c17.12-3.63,33.97,7.32,37.6,24.45c3.63,17.12-7.33,33.97-24.45,37.6
		c-17.12,3.63-33.96-7.33-37.59-24.45C481.7,1223.1,492.65,1206.26,509.77,1202.63L509.77,1202.63z"/>
	<path class="st38" d="M379.9,1271.84c11.56-2.45,22.94,4.95,25.39,16.51c2.45,11.56-4.95,22.94-16.51,25.39
		c-11.56,2.45-22.94-4.95-25.39-16.51C360.94,1285.67,368.33,1274.29,379.9,1271.84L379.9,1271.84z"/>
	<path class="st38" d="M485.15,1290.54c11.56-2.45,22.93,4.95,25.38,16.51c2.45,11.56-4.94,22.94-16.5,25.39
		c-11.56,2.45-22.94-4.95-25.39-16.51C466.19,1304.37,473.59,1292.99,485.15,1290.54L485.15,1290.54z"/>
	<path class="st38" d="M1580.42,434.19c18.12-3.84,35.95,7.75,39.79,25.87c3.84,18.12-7.76,35.95-25.88,39.79
		c-18.12,3.84-35.95-7.76-39.79-25.88C1550.7,455.85,1562.29,438.03,1580.42,434.19L1580.42,434.19z"/>
	<path class="st38" d="M1445.96,452.73c14.74-3.12,29.24,6.31,32.37,21.05c3.12,14.74-6.31,29.24-21.05,32.36
		c-14.73,3.12-29.24-6.31-32.36-21.05C1421.79,470.35,1431.22,455.85,1445.96,452.73L1445.96,452.73z"/>
	<path class="st38" d="M1500.53,515.77c10.83-2.29,21.49,4.64,23.79,15.47c2.3,10.84-4.64,21.5-15.47,23.8
		c-10.84,2.3-21.5-4.64-23.8-15.48C1482.75,528.72,1489.68,518.06,1500.53,515.77L1500.53,515.77z"/>
	<path class="st38" d="M1501.51,375.64c15.96-3.38,31.66,6.83,35.04,22.79c3.38,15.96-6.83,31.65-22.79,35.03
		c-15.96,3.38-31.65-6.83-35.03-22.78S1485.55,379.02,1501.51,375.64L1501.51,375.64z"/>
	<path class="st38" d="M1515.16,458.51c9.61-2.04,19.07,4.12,21.11,13.74c2.04,9.61-4.11,19.07-13.73,21.11
		c-9.61,2.04-19.07-4.12-21.11-13.73C1499.39,470.01,1505.54,460.55,1515.16,458.51L1515.16,458.51z"/>
	<path class="st38" d="M1525.82,924.2c17.27-3.66,34.25,7.39,37.91,24.66s-7.39,34.25-24.66,37.91
		c-17.27,3.66-34.26-7.39-37.91-24.66C1497.51,944.84,1508.56,927.86,1525.82,924.2L1525.82,924.2z"/>
	<path class="st38" d="M1660.71,860.4c14.28-3.02,28.32,6.11,31.35,20.39c3.02,14.27-6.11,28.32-20.39,31.35
		c-14.27,3.02-28.32-6.11-31.34-20.39C1637.31,877.47,1646.44,863.43,1660.71,860.4L1660.71,860.4z"/>
	<path class="st38" d="M1608.99,938.75c11.63-2.46,23.07,4.98,25.54,16.61c2.46,11.63-4.98,23.07-16.61,25.53
		c-11.62,2.46-23.07-4.98-25.53-16.61C1589.93,952.66,1597.37,941.21,1608.99,938.75L1608.99,938.75z"/>
	<path class="st38" d="M1578.41,841.97c15.91-3.37,31.56,6.81,34.93,22.72c3.37,15.91-6.81,31.56-22.72,34.93
		c-15.91,3.37-31.56-6.81-34.93-22.72C1552.32,861,1562.5,845.34,1578.41,841.97L1578.41,841.97z"/>
	<path class="st38" d="M1679.24,939.57c8.75-1.85,17.36,3.74,19.21,12.49c1.85,8.75-3.75,17.36-12.5,19.22
		c-8.75,1.85-17.36-3.75-19.21-12.5C1664.88,950.03,1670.49,941.42,1679.24,939.57L1679.24,939.57z"/>
</g>
</svg>
