<?xml version="1.0" encoding="utf-8"?>
<!-- Generator: Adobe Illustrator 26.4.1, SVG Export Plug-In . SVG Version: 6.00 Build 0)  -->
<svg version="1.1" id="Layer_1" xmlns="http://www.w3.org/2000/svg" xmlns:xlink="http://www.w3.org/1999/xlink" x="0px" y="0px"
	 viewBox="0 0 2000 2000" style="enable-background:new 0 0 2000 2000;" xml:space="preserve">
<style type="text/css">
	.st0{fill-rule:evenodd;clip-rule:evenodd;fill:#F49E23;}
	.st1{fill-rule:evenodd;clip-rule:evenodd;fill:#D14D36;}
	.st2{fill-rule:evenodd;clip-rule:evenodd;fill:#FDF0D3;}
	.st3{fill-rule:evenodd;clip-rule:evenodd;fill:#0C427E;}
	.st4{fill-rule:evenodd;clip-rule:evenodd;fill:#B45A25;}
	.st5{fill-rule:evenodd;clip-rule:evenodd;fill:#EC8C28;}
	.st6{fill-rule:evenodd;clip-rule:evenodd;fill:#EE9726;}
	.st7{fill-rule:evenodd;clip-rule:evenodd;fill:#302574;}
	.st8{fill-rule:evenodd;clip-rule:evenodd;fill:#F3B953;}
	.st9{fill-rule:evenodd;clip-rule:evenodd;fill:#3D648F;}
	.st10{fill-rule:evenodd;clip-rule:evenodd;fill:#145468;}
	.st11{fill-rule:evenodd;clip-rule:evenodd;fill:#3B7A7A;}
	.st12{fill-rule:evenodd;clip-rule:evenodd;fill:#098B8D;}
	.st13{fill-rule:evenodd;clip-rule:evenodd;fill:#689595;}
	.st14{fill-rule:evenodd;clip-rule:evenodd;fill:#679595;}
	.st15{fill-rule:evenodd;clip-rule:evenodd;fill:#CEE4E4;}
	
		.st16{fill-rule:evenodd;clip-rule:evenodd;fill:#145468;stroke:#CEE4E4;stroke-width:5;stroke-linecap:round;stroke-linejoin:round;stroke-miterlimit:10;}
	.st17{fill-rule:evenodd;clip-rule:evenodd;fill:#043A60;}
	.st18{fill-rule:evenodd;clip-rule:evenodd;fill:#FD9A65;}
	.st19{fill-rule:evenodd;clip-rule:evenodd;fill:#18658D;}
	.st20{fill-rule:evenodd;clip-rule:evenodd;fill:#9FCDE5;}
	.st21{fill-rule:evenodd;clip-rule:evenodd;fill:#56A8D3;}
	.st22{fill-rule:evenodd;clip-rule:evenodd;fill:#276383;}
	.st23{fill-rule:evenodd;clip-rule:evenodd;fill:#E0F0F8;}
	.st24{fill-rule:evenodd;clip-rule:evenodd;fill:#A51E1C;}
	.st25{fill-rule:evenodd;clip-rule:evenodd;fill:#CB442D;}
	.st26{fill-rule:evenodd;clip-rule:evenodd;fill:#DC5A44;}
	.st27{fill-rule:evenodd;clip-rule:evenodd;fill:#F7BD54;}
	.st28{fill-rule:evenodd;clip-rule:evenodd;fill:#E46B37;}
	.st29{fill-rule:evenodd;clip-rule:evenodd;fill:#B67227;}
	.st30{fill-rule:evenodd;clip-rule:evenodd;fill:#D78A35;}
	.st31{fill-rule:evenodd;clip-rule:evenodd;fill:#A4331F;}
	.st32{fill-rule:evenodd;clip-rule:evenodd;fill:#F2A550;}
	.st33{fill-rule:evenodd;clip-rule:evenodd;fill:#F9E9D6;}
	.st34{fill-rule:evenodd;clip-rule:evenodd;fill:#844013;}
	.st35{fill-rule:evenodd;clip-rule:evenodd;fill:#A04E18;}
	.st36{fill-rule:evenodd;clip-rule:evenodd;fill:#F8B872;}
	.st37{fill-rule:evenodd;clip-rule:evenodd;fill:#FFC689;}
	.st38{fill-rule:evenodd;clip-rule:evenodd;fill:#B6844D;}
	.st39{fill-rule:evenodd;clip-rule:evenodd;fill:#CA5320;}
	.st40{fill-rule:evenodd;clip-rule:evenodd;fill:#D76332;}
	.st41{fill-rule:evenodd;clip-rule:evenodd;fill:#812F0C;}
	.st42{fill-rule:evenodd;clip-rule:evenodd;fill:#8A460F;}
	.st43{fill-rule:evenodd;clip-rule:evenodd;fill:#B46914;}
	.st44{fill-rule:evenodd;clip-rule:evenodd;fill:#B54515;}
	.st45{fill-rule:evenodd;clip-rule:evenodd;fill:#FFCD71;}
	.st46{fill-rule:evenodd;clip-rule:evenodd;fill:#95B41D;}
	.st47{fill-rule:evenodd;clip-rule:evenodd;fill:#A8C731;}
	.st48{fill-rule:evenodd;clip-rule:evenodd;fill:#85A214;}
	.st49{fill-rule:evenodd;clip-rule:evenodd;fill:#C6EF28;}
	.st50{fill-rule:evenodd;clip-rule:evenodd;fill:#ED982B;}
	.st51{fill-rule:evenodd;clip-rule:evenodd;fill:#FCCF7C;}
	.st52{fill-rule:evenodd;clip-rule:evenodd;fill:#FFE8BC;}
	.st53{fill-rule:evenodd;clip-rule:evenodd;fill:#ED6961;}
	.st54{fill-rule:evenodd;clip-rule:evenodd;fill:#696E1E;}
	.st55{fill-rule:evenodd;clip-rule:evenodd;fill:#9CA42A;}
	.st56{fill-rule:evenodd;clip-rule:evenodd;fill:#7F8615;}
	.st57{fill-rule:evenodd;clip-rule:evenodd;fill:#FFEECF;}
	.st58{fill-rule:evenodd;clip-rule:evenodd;fill:#77786D;}
	.st59{fill-rule:evenodd;clip-rule:evenodd;fill:#D3D5C6;}
	.st60{fill-rule:evenodd;clip-rule:evenodd;fill:#7C7A7A;}
	.st61{fill-rule:evenodd;clip-rule:evenodd;fill:#DBDCD9;}
	.st62{fill-rule:evenodd;clip-rule:evenodd;fill:#CA372D;}
	.st63{fill-rule:evenodd;clip-rule:evenodd;fill:#FE7D75;}
	.st64{fill-rule:evenodd;clip-rule:evenodd;fill:#B0B0B0;}
	.st65{fill-rule:evenodd;clip-rule:evenodd;fill:#888787;}
	.st66{fill-rule:evenodd;clip-rule:evenodd;fill:#6E6E6E;}
	.st67{fill-rule:evenodd;clip-rule:evenodd;fill:#757575;}
	.st68{fill-rule:evenodd;clip-rule:evenodd;fill:#60341E;}
	.st69{fill-rule:evenodd;clip-rule:evenodd;fill:#B0451B;}
	.st70{fill-rule:evenodd;clip-rule:evenodd;fill:#8A4727;}
	.st71{fill-rule:evenodd;clip-rule:evenodd;fill:#FABB64;}
	.st72{fill-rule:evenodd;clip-rule:evenodd;fill:#3E88AF;}
	.st73{fill-rule:evenodd;clip-rule:evenodd;fill:#5BA0C5;}
	.st74{fill-rule:evenodd;clip-rule:evenodd;fill:#FFF1DE;}
	.st75{fill-rule:evenodd;clip-rule:evenodd;fill:#F8B89B;}
	.st76{fill-rule:evenodd;clip-rule:evenodd;fill:#E98A5F;}
	.st77{fill-rule:evenodd;clip-rule:evenodd;fill:#FFCAB3;}
	.st78{fill-rule:evenodd;clip-rule:evenodd;fill:#F9A580;}
	.st79{fill-rule:evenodd;clip-rule:evenodd;fill:#FFDFD2;}
	.st80{fill-rule:evenodd;clip-rule:evenodd;fill:#E2A85C;}
	.st81{fill-rule:evenodd;clip-rule:evenodd;fill:#C68446;}
	.st82{fill-rule:evenodd;clip-rule:evenodd;fill:#F2BC75;}
	.st83{fill-rule:evenodd;clip-rule:evenodd;fill:#F2BC76;}
	.st84{fill-rule:evenodd;clip-rule:evenodd;fill:#FFD69F;}
	.st85{fill-rule:evenodd;clip-rule:evenodd;fill:#E7624B;}
	.st86{fill-rule:evenodd;clip-rule:evenodd;fill:#F6E8DB;}
	.st87{fill-rule:evenodd;clip-rule:evenodd;fill:#FC9EB6;}
	.st88{fill-rule:evenodd;clip-rule:evenodd;fill:#FFFFFF;}
</style>
<g>
	<path class="st17" d="M798.29,1117.55c-46.26-169.26-246.42-334.31-299.5-346.59c-68.38-15.82-138.67,2.75-205.18,90.58
		C152.05,1048.5,63.8,1530.19,89.81,1543.26c37.64,18.93,685.67,159.65,713.11,141.36C831.24,1665.74,851.12,1310.82,798.29,1117.55
		L798.29,1117.55z"/>
	<path class="st18" d="M105.42,1548.14c-21.76-9.3-6.82-56.24,26.72-81.45c80.79-60.71,126.03-45.16,193.93-62.25
		c75.04-18.88,132.86-25.84,197.41-22.45c47.5,2.5,112.35,16.6,155.56,16.6c95.35,0,157.15-31.46,162.4,5.72
		c8.07,57.24,21.37,281.18-22.31,281.11c-49.48-0.08-281.56-35-478.37-75.88C246.17,1589.92,169.93,1575.71,105.42,1548.14
		L105.42,1548.14z"/>
	<path class="st19" d="M398.66,748.96c133.89-79.47,1073.31-104.13,1177.57-99.11c83.58,4.02,197.49,127.86,231.93,222.19
		c65.98,180.74,102.26,580.08,72.6,598.38c-53.95,33.29-1017.41,229.72-1062.9,229.02c-55.91-0.86,28.81-185.94,13.46-295.86
		c-41.89-299.89-97.28-438.24-190.23-522.68C519.45,770.4,379.29,760.46,398.66,748.96L398.66,748.96z"/>
	<path class="st20" d="M750.19,693.75c5.6,9.29-80.42,22.4-90.41,8.8c-103.51-141.06,32.31-310.58,154.17-355.33
		c194.45-71.41,327.08-10.75,503.49,13.31c205.95,28.08,352.34-88.56,434.71-114.71c114.02-36.2,188.31,21.01,203.83,90.31
		c27.99,125.01-185.14,181.67-321.58,204.86c-48.3,8.21-139.08,68.91-111.56,117.75c6.36,11.28-69.77,8.1-78.61-5.34
		c-19.23-29.23,20.88-105.37,117.65-147.65c73.57-32.15,339.68-71.98,301.67-151.08c-41.83-87.06-187.15,5.69-317.11,53.64
		c-103.54,38.2-234.54,42.27-339.8,10.56c-150.34-45.29-257.86-54.96-371.97-2.87C727.74,464.79,683.23,582.57,750.19,693.75
		L750.19,693.75z"/>
	<path class="st21" d="M747.59,687.2c-4.72-5.34-95.52,4.73-93.19,8.65c106.56,179.08,194.31,286.92,244.98,445
		c61.95,193.28,77.06,438.6,82.01,530.42c0.26,4.74,79.15-9.95,80.56-16.78c4.98-24.19-27.46-359.64-92.92-546.53
		C907.28,931.63,823.59,773.11,747.59,687.2L747.59,687.2z"/>
	<path class="st21" d="M1522.75,650.03c-3.6-4.22-86.68-1.61-84.15,1.52c74.78,92.58,138.12,235.58,171.52,365.45
		c51.01,198.36,69.81,378.69,67.96,507.69c-0.07,5.08,92.12-16.18,92.1-20.94c-0.34-79.27-16.78-336.31-74.47-510.21
		C1636.26,814.35,1597.57,737.87,1522.75,650.03L1522.75,650.03z"/>
	<path class="st17" d="M923.75,777.9c-18.38,12.62,23.42,62.64,38.92,59.28c16.83-3.64,107.24-11.79,127.98-19.97
		c13.63-5.38,1.64-39.18-17.7-55.73C1059.76,750.19,942.13,765.28,923.75,777.9L923.75,777.9z"/>
	<path class="st17" d="M1285.57,740.54c-18.38,12.62,23.42,62.64,38.92,59.29c16.83-3.65,107.24-11.8,127.98-19.97
		c13.63-5.37,1.65-39.18-17.7-55.73C1421.57,712.84,1303.95,727.93,1285.57,740.54L1285.57,740.54z"/>
	<path class="st22" d="M408.72,772.95c-39.99,71.75-98.89,275.31-126.32,475.32c-18.34,133.72-22.55,265.84,1.87,356.11
		c1.11,4.09,5.32,6.51,9.41,5.4c4.09-1.1,6.51-5.32,5.4-9.41c-24-88.74-19.5-218.6-1.48-350.03
		c27.11-197.71,84.99-399.01,124.52-469.94c2.06-3.7,0.73-8.37-2.97-10.43C415.45,767.93,410.78,769.25,408.72,772.95L408.72,772.95
		z"/>
	<path class="st22" d="M515.66,792.6c-69.29,238.52-136.1,557.29-92.91,814c0.7,4.18,4.66,6.99,8.84,6.29
		c4.17-0.7,6.99-4.66,6.29-8.84c-42.82-254.57,23.8-570.64,92.52-807.18c1.18-4.06-1.16-8.32-5.23-9.5
		C521.1,786.2,516.84,788.54,515.66,792.6L515.66,792.6z"/>
	<path class="st22" d="M631.4,862.66c-47.38,177.7-141.4,525.65-62.62,773.82c1.28,4.03,5.6,6.27,9.63,4.99
		c4.03-1.28,6.27-5.6,4.99-9.63c-77.91-245.44,15.96-589.49,62.82-765.23c1.09-4.09-1.34-8.3-5.43-9.38
		C636.7,856.13,632.49,858.57,631.4,862.66L631.4,862.66z"/>
	<path class="st22" d="M718.3,1016.4c-42.24,121.97-79.96,488.15-19.89,649.73c1.48,3.97,5.89,5.99,9.86,4.52
		c3.97-1.47,5.99-5.89,4.52-9.86c-59.11-159-21.56-519.34,20.01-639.36c1.39-4-0.74-8.37-4.74-9.76
		C724.05,1010.28,719.68,1012.4,718.3,1016.4L718.3,1016.4z"/>
	<path class="st22" d="M252.65,958.87c131.29,45.1,381.11,52.75,462.87,37.26c4.16-0.79,6.89-4.8,6.11-8.96
		c-0.79-4.16-4.8-6.9-8.96-6.11c-80.37,15.23-325.96,7.64-455.03-36.69c-4-1.37-8.37,0.76-9.74,4.76
		C246.51,953.13,248.65,957.49,252.65,958.87L252.65,958.87z"/>
	<path class="st22" d="M186.14,1105c145.36,59.61,342.23,81.61,475.54,77.44c58-1.82,104.12-8.69,129.22-19.32
		c3.9-1.65,5.72-6.16,4.07-10.05c-1.65-3.9-6.16-5.72-10.06-4.07c-24.02,10.17-68.21,16.38-123.71,18.11
		c-131.54,4.11-325.81-17.48-469.24-76.3c-3.92-1.61-8.4,0.27-10,4.18C180.35,1098.91,182.22,1103.39,186.14,1105L186.14,1105z"/>
	<path class="st22" d="M137.53,1262.72c36.56,21.26,135.97,43.51,249.66,60.46c169.73,25.31,371.3,39.14,441.06,22.87
		c4.12-0.96,6.69-5.09,5.73-9.21c-0.96-4.12-5.09-6.69-9.21-5.73c-68.85,16.06-267.78,1.88-435.31-23.1
		c-111.15-16.57-208.48-37.76-244.22-58.54c-3.66-2.13-8.36-0.88-10.49,2.77C132.63,1255.89,133.87,1260.59,137.53,1262.72
		L137.53,1262.72z"/>
	<path class="st22" d="M103.39,1409.2c158.39,80.72,569.64,107.87,734.69,75.18c4.15-0.82,6.85-4.86,6.03-9.01
		c-0.82-4.15-4.86-6.86-9.01-6.03c-162.8,32.24-568.51,5.82-724.74-73.8c-3.77-1.92-8.39-0.42-10.31,3.35
		C98.12,1402.66,99.62,1407.28,103.39,1409.2L103.39,1409.2z"/>
	<path class="st20" d="M805.82,1094.35c-65.9-228.12-215.22-371.96-352.17-356.67c-161.65,18.06-285.62,280.8-334.57,476.07
		c-12.59,50.22-64.23,297.86-40.59,340.33c21.42,38.51,693.52,153.11,771.36,145.08C908.94,1693.06,866.99,1306.08,805.82,1094.35
		L805.82,1094.35z M746.96,1122.43c-54.95-190.71-182.14-325.67-292.34-310.31c-144.35,20.11-243,230.08-286.85,405.03
		c-11.27,44.99-55.86,258.63-34.69,296.69c19.19,34.5,574.88,139.11,644.63,131.92C830.65,1640.3,793.6,1284.33,746.96,1122.43
		L746.96,1122.43z"/>
	<path class="st17" d="M1355.11,763.87c-4.67-21.55,67.61-34.43,78.3,14.9c25.35,117.06-50.49,257.95-171.29,284.1
		c-120.8,26.16-249.09-69.85-279.8-207.59c-13.33-59.79,62.14-70.72,66.71-49.61c25.35,117.06,108.78,197.35,208.36,175.78
		C1356.98,959.89,1380.46,880.93,1355.11,763.87L1355.11,763.87z"/>
	<path class="st23" d="M677.59,535.37c19.81-86.58,108.32-155.56,188.09-178.95c3.12-0.91,4.91-4.19,3.99-7.31
		c-0.91-3.12-4.19-4.91-7.31-3.99c-83.43,24.47-175.53,97.08-196.25,187.63c-0.73,3.17,1.26,6.33,4.43,7.06
		C673.7,540.52,676.86,538.54,677.59,535.37L677.59,535.37z"/>
	<path class="st23" d="M725.64,492.33c2.91-14.52,13.42-31.39,28.36-47.43c22.99-24.69,56.53-47.27,90.81-55.94
		c3.15-0.8,5.06-4,4.26-7.15c-0.8-3.15-4-5.06-7.15-4.27c-36.42,9.21-72.12,33.11-96.54,59.34c-16.67,17.9-28.05,36.94-31.29,53.15
		c-0.64,3.19,1.43,6.29,4.62,6.93C721.9,497.59,725.01,495.52,725.64,492.33L725.64,492.33z"/>
	<path class="st23" d="M1615.53,325.92c-98.93,65.46-208.21,77.16-298.27,63.31c-3.21-0.49-6.22,1.71-6.72,4.93
		c-0.49,3.21,1.72,6.22,4.93,6.72c92.57,14.24,204.87,2.15,306.56-65.12c2.71-1.79,3.46-5.45,1.66-8.16
		C1621.9,324.87,1618.24,324.13,1615.53,325.92L1615.53,325.92z"/>
	<path class="st23" d="M1539.2,383.51c-52.68,21.3-111.92,34.01-172.05,32.65c-3.25-0.07-5.95,2.51-6.02,5.76
		c-0.07,3.25,2.5,5.95,5.75,6.02c61.77,1.4,122.62-11.63,176.73-33.51c3.01-1.22,4.47-4.66,3.25-7.67
		C1545.65,383.75,1542.21,382.29,1539.2,383.51L1539.2,383.51z"/>
	<path class="st23" d="M1153.89,358.66c85.26,19.76,184.29,24.87,245.65,26.1c3.25,0.06,5.94-2.52,6.01-5.77
		c0.07-3.25-2.52-5.94-5.77-6.01c-60.75-1.22-158.81-6.24-243.23-25.8c-3.17-0.73-6.33,1.24-7.07,4.41
		C1148.74,354.76,1150.72,357.93,1153.89,358.66L1153.89,358.66z"/>
	<path class="st23" d="M1923.22,352.16c-13.09,62.29-64.92,93.45-123.49,111.95c-3.1,0.98-4.82,4.29-3.84,7.39
		c0.98,3.1,4.29,4.82,7.39,3.84c62.73-19.81,117.45-54.04,131.47-120.76c0.67-3.18-1.37-6.31-4.55-6.98
		C1927.02,346.94,1923.89,348.98,1923.22,352.16L1923.22,352.16z"/>
	<path class="st23" d="M1899.03,364.5c-4.58,27.35-33.63,51.68-57.56,64.18c-2.88,1.51-4,5.07-2.49,7.95c1.51,2.88,5.07,4,7.95,2.49
		c26.83-14.01,58.59-42.01,63.72-72.68c0.54-3.21-1.63-6.24-4.84-6.78C1902.6,359.13,1899.57,361.3,1899.03,364.5L1899.03,364.5z"/>
	<path class="st23" d="M1928.04,317.27c22.6,37.65,11.89,78.53-35.04,117.02c-2.52,2.06-2.88,5.78-0.82,8.29
		c2.06,2.51,5.78,2.88,8.29,0.82c52.82-43.31,63.11-89.83,37.68-132.2c-1.67-2.79-5.3-3.69-8.08-2.02
		C1927.27,310.86,1926.36,314.48,1928.04,317.27L1928.04,317.27z"/>
	<path class="st23" d="M1422.82,730.78c-22.36-5.27-79.5,3.88-97.14,10.25c-3.06,1.1-4.64,4.48-3.54,7.54
		c1.1,3.06,4.48,4.64,7.54,3.54c16.43-5.93,69.61-14.78,90.43-9.87c3.17,0.75,6.34-1.22,7.09-4.38
		C1427.94,734.7,1425.98,731.53,1422.82,730.78L1422.82,730.78z"/>
	<path class="st23" d="M1416.47,750.98c-3.55-0.89-9.32-1.05-16.01-0.65c-13.98,0.84-32.42,3.91-40.43,4.88
		c-3.23,0.39-5.53,3.33-5.14,6.56c0.39,3.23,3.33,5.53,6.56,5.14c6.77-0.82,21.1-3.18,33.74-4.35c7.64-0.71,14.6-1.11,18.4-0.15
		c3.15,0.8,6.36-1.12,7.15-4.27C1421.54,754.98,1419.62,751.77,1416.47,750.98L1416.47,750.98z"/>
	<path class="st23" d="M1058.88,764.71c-21.8-0.43-37.35,2.8-64.74,7.99c-3.19,0.6-5.29,3.69-4.69,6.88
		c0.6,3.19,3.69,5.29,6.88,4.69c26.36-4.99,41.32-8.2,62.31-7.79c3.25,0.06,5.94-2.52,6-5.77
		C1064.72,767.47,1062.13,764.77,1058.88,764.71L1058.88,764.71z"/>
	<path class="st23" d="M1052.61,782.56c-22.63-0.45-56.43,7.05-72.54,10.46c-3.18,0.67-5.21,3.8-4.54,6.98
		c0.68,3.18,3.8,5.22,6.98,4.54c15.52-3.29,48.05-10.65,69.86-10.21c3.25,0.07,5.94-2.52,6.01-5.77
		C1058.45,785.31,1055.86,782.62,1052.61,782.56L1052.61,782.56z"/>
	<path class="st23" d="M1324.02,982.99c-8.96,11.18-30.56,23.29-54.61,31.54c-24.12,8.28-50.82,12.69-70.21,7.5
		c-3.14-0.84-6.37,1.03-7.21,4.17c-0.84,3.14,1.03,6.37,4.17,7.21c21.27,5.69,50.61,1.34,77.08-7.74
		c26.54-9.11,50.08-22.97,59.97-35.31c2.03-2.54,1.62-6.25-0.92-8.28C1329.77,980.05,1326.06,980.46,1324.02,982.99L1324.02,982.99z
		"/>
	<path class="st23" d="M1266.75,1034.46c-39.94,16.24-103.4,8.15-138.37-16.96c-2.64-1.9-6.32-1.29-8.22,1.35
		c-1.9,2.64-1.29,6.32,1.35,8.22c37.83,27.16,106.48,35.87,149.68,18.31c3.01-1.22,4.46-4.66,3.24-7.67
		C1273.2,1034.69,1269.76,1033.24,1266.75,1034.46L1266.75,1034.46z"/>
	<path class="st23" d="M1266.83,993.57c-34.95,18-100.44,15.13-156.07-24.52c-2.65-1.89-6.33-1.27-8.22,1.38
		c-1.89,2.65-1.27,6.33,1.38,8.22c59.93,42.71,130.65,44.79,168.3,25.4c2.89-1.49,4.03-5.04,2.54-7.93
		C1273.27,993.21,1269.72,992.08,1266.83,993.57L1266.83,993.57z"/>
	<path class="st23" d="M1650.24,950.61c50.46,115.28,66.23,218.91,72.92,325.07c0.21,3.25,3,5.72,6.25,5.51
		c3.24-0.21,5.71-3,5.51-6.25c-6.77-107.47-22.81-212.36-73.89-329.06c-1.3-2.98-4.78-4.34-7.76-3.04
		C1650.3,944.15,1648.94,947.63,1650.24,950.61L1650.24,950.61z"/>
	<path class="st23" d="M1660.65,1044.36c16.56,51.92,33.01,133.67,38.68,187.9c0.34,3.23,3.24,5.58,6.47,5.25
		c3.23-0.34,5.58-3.24,5.25-6.47c-5.74-54.91-22.4-137.68-39.17-190.25c-0.99-3.1-4.31-4.81-7.4-3.82
		C1661.38,1037.95,1659.67,1041.26,1660.65,1044.36L1660.65,1044.36z"/>
	<path class="st23" d="M1591.36,917.05c52.51,98.66,79.07,274.81,90.85,384.57c0.35,3.23,3.25,5.57,6.49,5.23
		c3.23-0.35,5.57-3.25,5.23-6.49c-11.92-110.99-39.06-289.07-92.17-388.84c-1.53-2.87-5.1-3.96-7.97-2.43
		C1590.92,910.61,1589.83,914.18,1591.36,917.05L1591.36,917.05z"/>
	<path class="st23" d="M942.93,1178.91c33.62,110.71,51.61,209.96,66.24,340.47c0.36,3.23,3.28,5.56,6.51,5.2
		c3.23-0.36,5.56-3.28,5.2-6.51c-14.72-131.33-32.85-231.19-66.67-342.59c-0.95-3.11-4.24-4.87-7.35-3.92
		C943.74,1172.51,941.98,1175.8,942.93,1178.91L942.93,1178.91z"/>
	<path class="st23" d="M961.14,1360.75c22.78,86.11,34.46,235.36,35.52,285.5c0.07,3.25,2.76,5.83,6.01,5.76
		c3.25-0.07,5.84-2.76,5.77-6.01c-1.07-50.62-12.91-201.32-35.91-288.26c-0.83-3.14-4.06-5.02-7.2-4.19
		C962.18,1354.37,960.31,1357.6,961.14,1360.75L961.14,1360.75z"/>
	<path class="st23" d="M991.71,1272.27c17.43,72.06,37.58,192.96,39.95,268.11c0.1,3.25,2.82,5.8,6.07,5.7
		c3.25-0.1,5.8-2.83,5.7-6.07c-2.39-75.82-22.69-197.81-40.27-270.51c-0.76-3.16-3.95-5.1-7.11-4.34
		C992.9,1265.92,990.95,1269.11,991.71,1272.27L991.71,1272.27z"/>
	<path class="st23" d="M499.34,784.87c119.72,27.85,199.15,131.03,236.26,234.17c1.1,3.06,4.48,4.65,7.53,3.55
		c3.06-1.1,4.65-4.48,3.55-7.54c-38.37-106.62-120.91-212.86-244.67-241.66c-3.17-0.74-6.34,1.24-7.08,4.4
		C494.2,780.96,496.17,784.13,499.34,784.87L499.34,784.87z"/>
	<path class="st23" d="M625.73,878.84c66.04,72.64,97.5,147.36,126.71,231.2c1.07,3.07,4.43,4.69,7.5,3.63
		c3.07-1.07,4.69-4.43,3.62-7.5c-29.73-85.34-61.9-161.31-129.12-235.25c-2.19-2.41-5.91-2.58-8.32-0.4
		C623.72,872.71,623.54,876.43,625.73,878.84L625.73,878.84z"/>
	<path class="st23" d="M672.56,873.12c85.73,97.94,122.49,232.92,139.4,359.34c0.43,3.22,3.4,5.49,6.62,5.06
		c3.22-0.43,5.49-3.4,5.06-6.62c-17.21-128.65-54.96-265.87-142.21-365.53c-2.14-2.45-5.87-2.69-8.31-0.55
		C670.67,866.95,670.42,870.68,672.56,873.12L672.56,873.12z"/>
	<path class="st23" d="M144.1,1173.08c-24.17,67.65-49.26,183.53-54.44,249.17c-0.25,3.24,2.17,6.08,5.41,6.33
		c3.24,0.26,6.08-2.17,6.33-5.41c5.11-64.84,29.91-179.31,53.79-246.13c1.09-3.06-0.5-6.43-3.57-7.53
		C148.57,1168.42,145.2,1170.02,144.1,1173.08L144.1,1173.08z"/>
	<path class="st23" d="M131.89,1295.83c-10.31,45.71-23.23,111.85-25.03,169.13c-0.1,3.25,2.45,5.97,5.7,6.07
		c3.25,0.1,5.97-2.45,6.07-5.7c1.78-56.53,14.57-121.8,24.74-166.91c0.71-3.17-1.28-6.33-4.45-7.04
		C135.76,1290.66,132.6,1292.66,131.89,1295.83L131.89,1295.83z"/>
</g>
</svg>
