<?xml version="1.0" encoding="utf-8"?>
<!-- Generator: Adobe Illustrator 26.4.1, SVG Export Plug-In . SVG Version: 6.00 Build 0)  -->
<svg version="1.1" id="Layer_1" xmlns="http://www.w3.org/2000/svg" xmlns:xlink="http://www.w3.org/1999/xlink" x="0px" y="0px"
	 viewBox="0 0 2000 2000" style="enable-background:new 0 0 2000 2000;" xml:space="preserve">
<style type="text/css">
	.st0{fill-rule:evenodd;clip-rule:evenodd;fill:#F49E23;}
	.st1{fill-rule:evenodd;clip-rule:evenodd;fill:#D14D36;}
	.st2{fill-rule:evenodd;clip-rule:evenodd;fill:#FDF0D3;}
	.st3{fill-rule:evenodd;clip-rule:evenodd;fill:#0C427E;}
	.st4{fill-rule:evenodd;clip-rule:evenodd;fill:#B45A25;}
	.st5{fill-rule:evenodd;clip-rule:evenodd;fill:#EC8C28;}
	.st6{fill-rule:evenodd;clip-rule:evenodd;fill:#EE9726;}
	.st7{fill-rule:evenodd;clip-rule:evenodd;fill:#302574;}
	.st8{fill-rule:evenodd;clip-rule:evenodd;fill:#F3B953;}
	.st9{fill-rule:evenodd;clip-rule:evenodd;fill:#3D648F;}
	.st10{fill-rule:evenodd;clip-rule:evenodd;fill:#145468;}
	.st11{fill-rule:evenodd;clip-rule:evenodd;fill:#3B7A7A;}
	.st12{fill-rule:evenodd;clip-rule:evenodd;fill:#098B8D;}
	.st13{fill-rule:evenodd;clip-rule:evenodd;fill:#689595;}
	.st14{fill-rule:evenodd;clip-rule:evenodd;fill:#679595;}
	.st15{fill-rule:evenodd;clip-rule:evenodd;fill:#CEE4E4;}
	
		.st16{fill-rule:evenodd;clip-rule:evenodd;fill:#145468;stroke:#CEE4E4;stroke-width:5;stroke-linecap:round;stroke-linejoin:round;stroke-miterlimit:10;}
	.st17{fill-rule:evenodd;clip-rule:evenodd;fill:#043A60;}
	.st18{fill-rule:evenodd;clip-rule:evenodd;fill:#FD9A65;}
	.st19{fill-rule:evenodd;clip-rule:evenodd;fill:#18658D;}
	.st20{fill-rule:evenodd;clip-rule:evenodd;fill:#9FCDE5;}
	.st21{fill-rule:evenodd;clip-rule:evenodd;fill:#56A8D3;}
	.st22{fill-rule:evenodd;clip-rule:evenodd;fill:#276383;}
	.st23{fill-rule:evenodd;clip-rule:evenodd;fill:#E0F0F8;}
	.st24{fill-rule:evenodd;clip-rule:evenodd;fill:#A51E1C;}
	.st25{fill-rule:evenodd;clip-rule:evenodd;fill:#CB442D;}
	.st26{fill-rule:evenodd;clip-rule:evenodd;fill:#DC5A44;}
	.st27{fill-rule:evenodd;clip-rule:evenodd;fill:#F7BD54;}
	.st28{fill-rule:evenodd;clip-rule:evenodd;fill:#E46B37;}
	.st29{fill-rule:evenodd;clip-rule:evenodd;fill:#B67227;}
	.st30{fill-rule:evenodd;clip-rule:evenodd;fill:#D78A35;}
	.st31{fill-rule:evenodd;clip-rule:evenodd;fill:#A4331F;}
	.st32{fill-rule:evenodd;clip-rule:evenodd;fill:#F2A550;}
	.st33{fill-rule:evenodd;clip-rule:evenodd;fill:#F9E9D6;}
	.st34{fill-rule:evenodd;clip-rule:evenodd;fill:#844013;}
	.st35{fill-rule:evenodd;clip-rule:evenodd;fill:#A04E18;}
	.st36{fill-rule:evenodd;clip-rule:evenodd;fill:#F8B872;}
	.st37{fill-rule:evenodd;clip-rule:evenodd;fill:#FFC689;}
	.st38{fill-rule:evenodd;clip-rule:evenodd;fill:#B6844D;}
	.st39{fill-rule:evenodd;clip-rule:evenodd;fill:#CA5320;}
	.st40{fill-rule:evenodd;clip-rule:evenodd;fill:#D76332;}
	.st41{fill-rule:evenodd;clip-rule:evenodd;fill:#812F0C;}
	.st42{fill-rule:evenodd;clip-rule:evenodd;fill:#8A460F;}
	.st43{fill-rule:evenodd;clip-rule:evenodd;fill:#B46914;}
	.st44{fill-rule:evenodd;clip-rule:evenodd;fill:#B54515;}
	.st45{fill-rule:evenodd;clip-rule:evenodd;fill:#FFCD71;}
	.st46{fill-rule:evenodd;clip-rule:evenodd;fill:#95B41D;}
	.st47{fill-rule:evenodd;clip-rule:evenodd;fill:#A8C731;}
	.st48{fill-rule:evenodd;clip-rule:evenodd;fill:#85A214;}
	.st49{fill-rule:evenodd;clip-rule:evenodd;fill:#C6EF28;}
	.st50{fill-rule:evenodd;clip-rule:evenodd;fill:#ED982B;}
	.st51{fill-rule:evenodd;clip-rule:evenodd;fill:#FCCF7C;}
	.st52{fill-rule:evenodd;clip-rule:evenodd;fill:#FFE8BC;}
	.st53{fill-rule:evenodd;clip-rule:evenodd;fill:#ED6961;}
	.st54{fill-rule:evenodd;clip-rule:evenodd;fill:#696E1E;}
	.st55{fill-rule:evenodd;clip-rule:evenodd;fill:#9CA42A;}
	.st56{fill-rule:evenodd;clip-rule:evenodd;fill:#7F8615;}
	.st57{fill-rule:evenodd;clip-rule:evenodd;fill:#FFEECF;}
	.st58{fill-rule:evenodd;clip-rule:evenodd;fill:#77786D;}
	.st59{fill-rule:evenodd;clip-rule:evenodd;fill:#D3D5C6;}
	.st60{fill-rule:evenodd;clip-rule:evenodd;fill:#7C7A7A;}
	.st61{fill-rule:evenodd;clip-rule:evenodd;fill:#DBDCD9;}
	.st62{fill-rule:evenodd;clip-rule:evenodd;fill:#CA372D;}
	.st63{fill-rule:evenodd;clip-rule:evenodd;fill:#FE7D75;}
	.st64{fill-rule:evenodd;clip-rule:evenodd;fill:#B0B0B0;}
	.st65{fill-rule:evenodd;clip-rule:evenodd;fill:#888787;}
	.st66{fill-rule:evenodd;clip-rule:evenodd;fill:#6E6E6E;}
	.st67{fill-rule:evenodd;clip-rule:evenodd;fill:#757575;}
	.st68{fill-rule:evenodd;clip-rule:evenodd;fill:#60341E;}
	.st69{fill-rule:evenodd;clip-rule:evenodd;fill:#B0451B;}
	.st70{fill-rule:evenodd;clip-rule:evenodd;fill:#8A4727;}
	.st71{fill-rule:evenodd;clip-rule:evenodd;fill:#FABB64;}
	.st72{fill-rule:evenodd;clip-rule:evenodd;fill:#3E88AF;}
	.st73{fill-rule:evenodd;clip-rule:evenodd;fill:#5BA0C5;}
	.st74{fill-rule:evenodd;clip-rule:evenodd;fill:#FFF1DE;}
	.st75{fill-rule:evenodd;clip-rule:evenodd;fill:#F8B89B;}
	.st76{fill-rule:evenodd;clip-rule:evenodd;fill:#E98A5F;}
	.st77{fill-rule:evenodd;clip-rule:evenodd;fill:#FFCAB3;}
	.st78{fill-rule:evenodd;clip-rule:evenodd;fill:#F9A580;}
	.st79{fill-rule:evenodd;clip-rule:evenodd;fill:#FFDFD2;}
	.st80{fill-rule:evenodd;clip-rule:evenodd;fill:#E2A85C;}
	.st81{fill-rule:evenodd;clip-rule:evenodd;fill:#C68446;}
	.st82{fill-rule:evenodd;clip-rule:evenodd;fill:#F2BC75;}
	.st83{fill-rule:evenodd;clip-rule:evenodd;fill:#F2BC76;}
	.st84{fill-rule:evenodd;clip-rule:evenodd;fill:#FFD69F;}
	.st85{fill-rule:evenodd;clip-rule:evenodd;fill:#E7624B;}
	.st86{fill-rule:evenodd;clip-rule:evenodd;fill:#F6E8DB;}
	.st87{fill-rule:evenodd;clip-rule:evenodd;fill:#FC9EB6;}
	.st88{fill-rule:evenodd;clip-rule:evenodd;fill:#FFFFFF;}
</style>
<g>
	<path class="st64" d="M658.16,459.61c144.16,167.98,193.32,362.62,109.7,434.38c-83.62,71.76-268.54-6.36-412.71-174.34
		c-144.17-167.98-193.32-362.63-109.7-434.38C329.07,213.51,514,291.62,658.16,459.61L658.16,459.61z"/>
	<path class="st64" d="M677.18,914.67c4.78,1.41-53.36,29.03-61.64,26.17c-12.52-4.32-10.65-43.93-10.65-43.93
		s-52.84,18.34-63.12,17.32c-8.03-0.79-12.72-44.52-12.72-44.52s-43.63,6.22-48.94,4.38c-5.29-1.83-8.75-44.29-8.75-44.29
		s-44.14,8.43-52.08,2.67c-9.05-6.56-3.33-49.35-3.33-49.35s-33.73,6.62-44.88,0.24c-11.86-6.77-2.44-50.17-2.44-50.17
		s-51.22-1.5-54.44-8.97c-7.41-17.22,2.81-55.06,2.81-55.06s-53.81-5.76-57.32-18.33c-2.42-8.66,19.12-46.9,19.12-46.9
		s-39.56-10.52-44.42-15.92c-6.46-7.18,7.48-45.72,7.48-45.72s-37.43-18.56-41.21-30.39c-3.72-11.65,17.24-50.44,17.24-50.44
		s-37.69-41.73-37.99-51.24c-0.13-4.23,25.87-30.36,25.87-30.36s-23.2-43.7-21.11-53.95c1.69-8.33,46.82-22.71,46.82-22.71
		s5.5-54.79,20.77-60.57c8.54-3.23,65.1,16.78,65.1,16.78s40.31-25.28,48.55-24.45c9,0.9,35.84,38.44,35.84,38.44
		s40.51-8.53,42.98-6.68c8.3,6.23,13.78,32.3,13.78,32.3s44.74-2.56,52.67-1.9c6.09,0.51,17.99,42.7,17.99,42.7
		s42.18-4.95,49.75,0.98c7.43,5.82,14.7,55.11,14.7,55.11s49.03,7.85,54.67,14.33c8.93,10.27,8.39,52.38,8.39,52.38
		s43.58,8.39,52.12,17.28c5.04,5.25-2.98,46.24-2.98,46.24s40.55,5.56,43.46,10.92c4.26,7.81-4.64,53.73-4.64,53.73
		s37.05,15.67,39.76,23.32c4.3,12.12,2.6,59.91,2.6,59.91s28.31,15.87,29.76,24.03c1.76,9.95-12.94,42.46-12.94,42.46
		s36.64,8.2,38.22,17.67c1.57,9.47-28.78,39.17-28.78,39.17s-10.16,23.91-12.73,37.05C799.43,839.94,677.18,914.67,677.18,914.67
		L677.18,914.67z"/>
	<path class="st65" d="M609.52,479.81c111.2,129.58,150.27,278.73,87.2,332.86c-63.08,54.13-204.57-7.12-315.77-136.69
		c-111.2-129.58-150.28-278.73-87.2-332.86C356.82,288.98,498.32,350.23,609.52,479.81L609.52,479.81z"/>
	<path class="st66" d="M586.19,500.08c83.19,96.58,112.56,207.88,65.54,248.37c-47.02,40.5-152.73-5.04-235.92-101.63
		c-83.19-96.58-112.56-207.88-65.54-248.37C397.29,357.95,503,403.49,586.19,500.08L586.19,500.08z"/>
	<path class="st64" d="M1590.86,862.52c-134.57-79.15-741.37-59.88-902.14,24.17c-38.92,20.34,1.85,558.21,9.36,614.84
		c6.76,50.95,272.02,77.39,481.94,72.62c131.97-3,355.22-38.19,423.86-86.12C1625.91,1472.64,1637.62,890.03,1590.86,862.52
		L1590.86,862.52z"/>
	<path class="st67" d="M1136.33,793.23c255.61-6.29,464.22,32.26,465.55,86.05c1.32,53.78-205.13,102.55-460.75,108.84
		c-255.62,6.29-464.22-32.26-465.55-86.04C674.26,848.29,880.71,799.52,1136.33,793.23L1136.33,793.23z"/>
	<path class="st68" d="M944.91,1013.25c-52.58-8.17-234.58-69.14-235.87-74.9c-5.58-25.01,23.6-55.3,39.4-61.9
		c20.79-8.7,38.29-0.56,39.28-4.11c2.38-8.52,12.14-25.89,24.27-39.4c19.16-21.34,67.74-27.72,95.19-13.73
		c29.18,14.87,33.53-15.52,79.27-23.29c43.6-7.41,51.82,17.92,58.18,14.28c24.32-13.95,28.5-37.85,79.48-39.23
		c51.47-1.39,70.43,31.39,80.03,39.48c6.58,5.55,46.03-20.78,81.2-3.26c18.44,9.2,19.32,27.01,23.95,24.84
		c8.9-4.18,21.69-15.21,45.9-20.85c63.05-14.71,75.78,31.35,90.02,31.16c18.53-0.25,64.64-19.18,91.68,16.79
		c12.3,16.36,6.56,29.98,11.25,29.23c14.55-2.32,35.21,7.31,39.54,22.25c9.95,34.36-104.06,66.53-125.54,73.72
		C1358.45,1019.04,1055.76,1030.48,944.91,1013.25L944.91,1013.25z"/>
	<path class="st69" d="M826.15,967.84c-83.72-18.42-138.58-46.73-147.32-71.4c-3.35-9.47-10.02,67.6-2.91,71.62
		c47.92,27.08,144.53,58.57,215.2,67.22c178.53,21.85,304.69,22.69,446.95,1.7c193.3-28.52,270-91.17,275.26-101.75
		c3.46-6.96-11.98-66.95-12.57-61.21c-3.45,33.58-149.44,84.94-206.15,98.34C1273.43,1000.98,972.07,999.94,826.15,967.84
		L826.15,967.84z"/>
	<path class="st69" d="M694.53,1467.3c-0.89-1.52-2.45,43.03,7.88,51.44c47.2,38.41,116.49,57.21,229.9,75.39
		c122.07,19.57,225.76,20.03,386.74,1.56c126.63-14.53,247.63-59.55,292.23-91.98c10.32-7.51,7.06-66.17,4.22-62.06
		c-33.96,49.2-206.78,107.21-388.73,117.15c-112.51,6.15-290.35-2.7-416.62-38.13C751.67,1504.26,705.03,1485.29,694.53,1467.3
		L694.53,1467.3z"/>
	<path class="st70" d="M1044.85,1216.2c28.39,0.63,196.09,1.28,199.07-0.11c10.46-4.85-2.18-35.71,27.31-63.71
		c28.18-26.76,83.47-0.8,93.34,13.43c18.02,25.96,17.66,43.91,1.42,60.73c-10.17,10.53-15.4,16.98-13.43,25.12
		c4.04,16.69,24,23.32,23.67,51.26c-0.26,21.76-18.93,50.06-46.28,60.79c-25.42,9.98-62.13,9.29-80.93-26.85
		c-14.65-28.17,0.98-48.37-16.5-47.74c-28.07,1.02-168.29,4.26-175.04,10.88c-9.51,9.32,0.35,20.3-3.41,39.7
		c-5.99,30.9-31.56,53.64-68.43,49.11c-21.81-2.68-65.93-33.7-60.42-61.56c7.13-36.03,24.47-35.28,22.87-47.7
		c-2.36-18.24-23.33-10.74-34.02-39.92c-11.46-31.27,7.48-54.38,24.8-65.43c24.78-15.8,56.87-20.03,81.47,6.87
		C1036.03,1198.26,1040.92,1216.11,1044.85,1216.2L1044.85,1216.2z"/>
	<path class="st33" d="M704.38,1465.16c58.32,42.09,156,55.08,212.72,55.44c3.58,0.02,6.49-2.86,6.52-6.44
		c0.02-3.57-2.86-6.49-6.44-6.52c-54.69-0.35-148.99-12.4-205.22-52.99c-2.9-2.09-6.95-1.44-9.04,1.46
		C700.83,1459.02,701.49,1463.07,704.38,1465.16L704.38,1465.16z"/>
	<path class="st33" d="M729.34,1453.03c44.09,26.74,85.95,36.54,114.07,35.37c3.57-0.15,6.35-3.17,6.2-6.74
		c-0.15-3.57-3.17-6.35-6.74-6.2c-26.35,1.1-65.48-8.43-106.81-33.5c-3.06-1.85-7.04-0.88-8.9,2.18
		C725.3,1447.2,726.28,1451.18,729.34,1453.03L729.34,1453.03z"/>
	<path class="st33" d="M684.3,1039.63c49.73,36.61,128.26,39.1,188.93,44.55c3.56,0.32,6.71-2.31,7.03-5.87
		c0.32-3.56-2.31-6.71-5.87-7.03c-58.5-5.25-134.45-6.77-182.4-42.08c-2.88-2.12-6.94-1.5-9.05,1.38
		C680.81,1033.46,681.42,1037.51,684.3,1039.63L684.3,1039.63z"/>
	<path class="st33" d="M692.03,1069.01c4.81,5.69,16.91,11.84,32.72,16.91c34.33,11.01,86.5,18.39,109.48,14.02
		c3.51-0.66,5.82-4.06,5.15-7.57c-0.66-3.51-4.06-5.82-7.57-5.15c-21.65,4.12-70.75-3.26-103.11-13.63
		c-12.77-4.09-22.89-8.33-26.78-12.93c-2.31-2.73-6.4-3.08-9.13-0.77C690.07,1062.19,689.73,1066.28,692.03,1069.01L692.03,1069.01z
		"/>
	<path class="st33" d="M679.16,1003.76c7.46,12.19,23.38,22.55,41.22,30.1c25.97,11,55.76,16.19,66.54,14.81
		c3.55-0.46,6.05-3.7,5.6-7.25c-0.46-3.55-3.7-6.06-7.25-5.6c-9.71,1.25-36.44-3.98-59.84-13.89
		c-15.08-6.39-28.91-14.63-35.22-24.94c-1.87-3.05-5.86-4.01-8.91-2.14C678.26,996.72,677.3,1000.71,679.16,1003.76L679.16,1003.76z
		"/>
	<path class="st33" d="M1357.53,1088.09c36.55,0.33,94.53-7.11,143.45-21.47c33.4-9.81,62.57-22.98,78.48-38.81
		c2.53-2.52,2.54-6.62,0.02-9.16c-2.52-2.54-6.62-2.55-9.16-0.02c-14.75,14.68-42.01,26.47-72.99,35.56
		c-47.64,13.99-104.09,21.27-139.68,20.95c-3.57-0.03-6.5,2.84-6.53,6.42C1351.08,1085.12,1353.96,1088.05,1357.53,1088.09
		L1357.53,1088.09z"/>
	<path class="st33" d="M1433.32,1052.96c34.28-0.18,80.88-13.94,105.85-27.43c3.15-1.7,4.32-5.63,2.62-8.78
		c-1.7-3.15-5.63-4.32-8.78-2.62c-23.54,12.71-67.45,25.71-99.76,25.88c-3.58,0.02-6.46,2.94-6.44,6.51
		C1426.83,1050.1,1429.74,1052.98,1433.32,1052.96L1433.32,1052.96z"/>
	<path class="st33" d="M1429.69,1125.82c38.86,0.97,90.26-8.58,128.27-28.84c3.15-1.68,4.35-5.61,2.67-8.76
		c-1.68-3.15-5.61-4.35-8.76-2.67c-36.1,19.25-84.95,28.25-121.85,27.33c-3.57-0.09-6.55,2.74-6.64,6.31
		C1423.29,1122.76,1426.12,1125.73,1429.69,1125.82L1429.69,1125.82z"/>
	<path class="st33" d="M1462.89,1097.51c31.62-0.5,90.82-21.98,122.7-42.09c3.03-1.91,3.93-5.91,2.02-8.94
		c-1.91-3.02-5.91-3.93-8.94-2.02c-30.16,19.03-86.08,39.62-116,40.1c-3.57,0.05-6.43,3-6.37,6.58
		C1456.37,1094.71,1459.31,1097.56,1462.89,1097.51L1462.89,1097.51z"/>
	<path class="st33" d="M1396.64,1476.85c34.3,2.93,87.21-3.54,131.96-16.05c30.4-8.5,57.04-19.89,71.98-32.77
		c2.71-2.33,3.01-6.43,0.68-9.13c-2.33-2.71-6.43-3.01-9.13-0.68c-13.89,11.96-38.78,22.21-67.02,30.11
		c-43.2,12.08-94.26,18.45-127.37,15.62c-3.56-0.31-6.7,2.34-7.01,5.9C1390.43,1473.41,1393.08,1476.55,1396.64,1476.85
		L1396.64,1476.85z"/>
	<path class="st33" d="M1443.54,1445.39c26.49,2.68,91.97-7.13,135.62-30.21c3.16-1.67,4.37-5.59,2.7-8.75
		c-1.67-3.16-5.59-4.37-8.75-2.7c-41.3,21.84-103.2,31.31-128.26,28.77c-3.56-0.36-6.74,2.24-7.1,5.79
		C1437.38,1441.86,1439.98,1445.03,1443.54,1445.39L1443.54,1445.39z"/>
	<path class="st33" d="M1480.92,1412.77c46.74-1.3,78.19-9.07,105.4-29.73c2.85-2.16,3.4-6.23,1.24-9.07
		c-2.16-2.85-6.23-3.41-9.07-1.24c-25.25,19.16-54.56,25.9-97.93,27.1c-3.57,0.1-6.39,3.08-6.29,6.65
		C1474.37,1410.05,1477.35,1412.87,1480.92,1412.77L1480.92,1412.77z"/>
	<path class="st70" d="M922.32,951.87c7.06-15.59,19.99-35.03,40.04-40.62c18.47-5.15,28.31,0.81,38.15,8.28
		c12.14,9.23,24.37,20.21,46.99,21.94c9.64,0.74,19.76-4.96,30.63-11.35c12.62-7.42,26.81-15.83,44.52-6.24
		c3.14,1.7,7.08,0.53,8.78-2.61c1.7-3.14,0.53-7.08-2.61-8.78c-19.2-10.4-35.32-5.46-49.65,2.16c-6.26,3.33-12.13,7.18-17.77,10.1
		c-4.48,2.32-8.7,4.13-12.92,3.8c-19.44-1.48-29.71-11.4-40.14-19.33c-12.74-9.68-25.55-17.12-49.47-10.45
		c-23.89,6.67-39.94,29.18-48.36,47.75c-1.47,3.26-0.03,7.1,3.22,8.57C917,956.57,920.84,955.12,922.32,951.87L922.32,951.87z"/>
	<path class="st70" d="M1087.85,820.21c13.71-12.52,34.76-19.8,53.08-18.52c16.93,1.18,31.48,10.1,34.05,30.13
		c0.46,3.55,3.7,6.06,7.25,5.6c3.55-0.46,6.06-3.7,5.6-7.25c-3.5-27.27-22.96-39.8-46-41.4c-21.65-1.51-46.52,7.08-62.72,21.88
		c-2.64,2.41-2.82,6.51-0.41,9.15C1081.11,822.43,1085.21,822.62,1087.85,820.21L1087.85,820.21z"/>
	<path class="st70" d="M1118.74,837.73c8.23-5.48,18.43-5.86,25.59-2.47c3.86,1.82,6.84,4.78,7.32,8.84
		c0.42,3.55,3.65,6.09,7.2,5.67c3.55-0.42,6.09-3.65,5.67-7.2c-1.01-8.49-6.58-15.21-14.65-19.03c-10.72-5.07-25.99-4.81-38.31,3.39
		c-2.98,1.98-3.78,6-1.8,8.98C1111.74,838.9,1115.76,839.71,1118.74,837.73L1118.74,837.73z"/>
	<path class="st70" d="M1218.29,935.08c-1.96,0.49-13.75,3.59-21.08,8.33c-7.52,4.86-13,12.05-12.09,22.22
		c0.32,3.56,3.47,6.19,7.03,5.87c3.56-0.32,6.19-3.47,5.87-7.03c-0.57-6.37,4.79-9.77,9.82-12.17c5.52-2.64,11.32-3.95,13.9-4.71
		c1.61-0.47,2.67-1.01,3.14-1.32c4.99-3.31,8.94-7.56,13.15-11.62c4.93-4.76,10.29-9.27,19.8-10.07
		c12.73-1.07,25.17,5.21,32.65,12.78c2.31,2.34,4.14,4.79,5.27,7.21c0.77,1.66,1.25,3.24,0.98,4.69c-0.65,3.51,1.67,6.9,5.18,7.56
		c3.51,0.65,6.9-1.67,7.55-5.18c1.28-6.86-2.21-15.74-9.77-23.38c-9.83-9.95-26.24-17.99-42.96-16.58
		c-11.17,0.94-18.37,5.33-24.46,10.66C1227.49,926.5,1223.56,931.42,1218.29,935.08L1218.29,935.08z"/>
	<path class="st70" d="M1250.33,958.79c2.52-4.38,7.69-5.21,12.53-4.5c5.38,0.79,10.79,3.51,12.94,7.61
		c1.66,3.16,5.58,4.38,8.74,2.72c3.16-1.66,4.39-5.58,2.73-8.74c-3.83-7.29-12.93-12.99-22.52-14.4
		c-10.13-1.49-20.37,1.7-25.64,10.85c-1.78,3.1-0.72,7.06,2.38,8.84C1244.58,962.96,1248.54,961.89,1250.33,958.79L1250.33,958.79z"
		/>
	<path class="st70" d="M1261.44,867.28c6.97-8.17,14.44-12.49,21.76-13.69c10.61-1.74,20.61,3.1,27.36,10.82
		c2.35,2.69,6.45,2.97,9.14,0.62c2.69-2.35,2.97-6.45,0.62-9.14c-9.63-11.03-24.07-17.57-39.21-15.08
		c-9.85,1.62-20.14,7.07-29.51,18.07c-2.32,2.72-1.99,6.81,0.73,9.13C1255.03,870.33,1259.12,870,1261.44,867.28L1261.44,867.28z"/>
	<path class="st70" d="M1327.88,909.33c7.51-6.1,19.1-8.44,25.68-0.94c2.36,2.69,6.45,2.96,9.14,0.6c2.69-2.36,2.95-6.45,0.6-9.14
		c-11.16-12.71-30.83-10.91-43.58-0.58c-2.78,2.25-3.2,6.34-0.95,9.11C1321.02,911.16,1325.1,911.58,1327.88,909.33L1327.88,909.33z
		"/>
	<path class="st70" d="M818.87,889.95c-1.66-4.27-0.8-9.15,1.37-14.14c3.97-9.15,12.38-18.44,22.31-25.72
		c8.32-6.1,17.74-10.81,26.72-12.67c7.8-1.62,15.25-1.13,20.86,3.27c2.81,2.2,6.89,1.71,9.09-1.1c2.21-2.81,1.71-6.89-1.1-9.09
		c-6.9-5.41-15.52-7.45-24.86-6.71c-12.51,0.99-26.44,7.11-38.37,15.86c-11.9,8.73-21.77,20.04-26.53,31.01
		c-3.66,8.43-4.37,16.75-1.56,23.98c1.29,3.33,5.05,4.99,8.38,3.7C818.51,897.04,820.16,893.28,818.87,889.95L818.87,889.95z"/>
	<path class="st70" d="M861.17,862.46c3.15-4.11,8.42-5.86,13.72-6.05c5.67-0.2,11.52,1.39,15.49,4.6c2.78,2.25,6.86,1.81,9.11-0.97
		c2.25-2.78,1.81-6.86-0.97-9.11c-6.2-5.01-15.24-7.78-24.09-7.47c-9.21,0.32-18.07,3.96-23.55,11.11c-2.17,2.84-1.64,6.91,1.2,9.08
		C854.93,865.83,859,865.29,861.17,862.46L861.17,862.46z"/>
	<path class="st70" d="M955.78,857.5c11.59-13.89,30.64-15.99,44.74-8.89c3.19,1.61,7.09,0.32,8.7-2.87
		c1.61-3.19,0.32-7.09-2.87-8.7c-19.07-9.6-44.82-6.64-60.51,12.16c-2.29,2.74-1.92,6.83,0.82,9.12
		C949.41,860.61,953.49,860.24,955.78,857.5L955.78,857.5z"/>
	<path class="st70" d="M868.32,940.96c-0.42-1-1.74-4.1-2.82-6.34c-2.66-5.53-7.11-12.01-18.07-16.8c-7.46-3.26-17.28-2.42-26,1.16
		c-8.62,3.54-15.96,9.68-19,15.88c-1.58,3.21-0.25,7.09,2.96,8.67c3.21,1.57,7.09,0.25,8.67-2.96c1.92-3.91,6.86-7.38,12.3-9.61
		c5.34-2.19,11.32-3.27,15.89-1.27c10.17,4.45,11.83,11.13,13.59,15.23c1.77,4.14,4.04,6.76,7.31,7.94
		c4.07,1.47,8.89,3.08,12.88,5.25c2.43,1.32,4.77,2.53,5.25,4.7c0.77,3.49,4.22,5.7,7.71,4.94c3.49-0.77,5.7-4.22,4.93-7.71
		c-1-4.57-4.16-8.47-8.78-11.54C880.34,945.3,873.85,942.95,868.32,940.96L868.32,940.96z"/>
	<path class="st70" d="M871.06,915.11c6.43,7.92,14.23,10.66,20.39,9.54c6.6-1.2,12.63-6.68,13.94-17.75
		c0.42-3.55-2.12-6.77-5.67-7.2c-3.55-0.42-6.77,2.12-7.2,5.67c-0.43,3.62-1.25,6.14-3.4,6.54c-2.58,0.47-5.32-1.65-8.01-4.96
		c-2.25-2.77-6.33-3.2-9.11-0.95S868.81,912.33,871.06,915.11L871.06,915.11z"/>
	<path class="st70" d="M964.89,944.92c3.78-5.81,9.98-6.78,15.69-5.2c6.41,1.77,12.44,6.53,14.74,12.39
		c1.31,3.33,5.07,4.97,8.4,3.66c3.33-1.31,4.96-5.07,3.65-8.4c-3.69-9.38-13.08-17.29-23.34-20.14
		c-10.98-3.04-22.72-0.56-29.99,10.63c-1.95,3-1.1,7.01,1.9,8.96C958.93,948.76,962.94,947.91,964.89,944.92L964.89,944.92z"/>
	<path class="st70" d="M1059.47,888.2c-2.21-1.49-2.04-3.96-1.04-6.06c2.12-4.44,7.83-8.28,13.26-4.94
		c3.04,1.88,7.04,0.92,8.91-2.12c1.88-3.04,0.92-7.04-2.12-8.91c-12.82-7.89-26.73-0.1-31.74,10.39
		c-3.75,7.86-2.79,16.79,5.47,22.38c2.96,2,6.99,1.22,8.99-1.74C1063.21,894.23,1062.43,890.2,1059.47,888.2L1059.47,888.2z"/>
	<path class="st70" d="M1432.23,860.49c-2.53-7.67-6.68-28.72-34.76-32.78c-15.2-2.2-36.43,8.55-36.73,34.48
		c-0.04,3.58,2.83,6.51,6.4,6.55c3.57,0.04,6.51-2.82,6.55-6.4c0.19-15.91,12.59-23.16,21.92-21.81
		c17.39,2.52,21.62,14.49,23.6,21.27c0.72,2.44,1.27,4.41,1.8,5.6c0.59,1.32,1.59,2.58,3.13,3.63c1.4,0.94,3.64,1.81,6.44,2.53
		c2.87,0.75,6.59,1.47,9.91,2.96c2.09,0.94,4.11,2.15,4.95,4.45c2.33,6.38-1.67,12.04-6.12,13.99c-3.27,1.44-4.76,5.27-3.32,8.54
		c1.44,3.27,5.27,4.76,8.54,3.32c9.61-4.23,18.09-16.51,13.07-30.29c-2.84-7.79-10.17-11.73-17.49-13.87
		C1437.41,861.86,1433.87,860.92,1432.23,860.49L1432.23,860.49z"/>
	<path class="st70" d="M1390.08,884.99c5.61-2.19,12.39-0.61,17.04,2.77c3.69,2.68,6.12,6.76,3.76,11.22
		c-1.67,3.16-0.47,7.08,2.69,8.76c3.16,1.67,7.08,0.46,8.76-2.69c4.69-8.85,2.59-17.35-3.16-23.79
		c-7.58-8.48-22.17-12.86-33.78-8.34c-3.33,1.3-4.98,5.05-3.68,8.39C1382.99,884.63,1386.75,886.29,1390.08,884.99L1390.08,884.99z"
		/>
	<path class="st70" d="M1498.77,872.22c7.37-0.67,13.65,2.46,14.28,9.73c0.31,3.56,3.45,6.2,7.01,5.89c3.56-0.31,6.2-3.45,5.89-7.01
		c-1.3-14.99-13.17-22.9-28.36-21.51c-3.56,0.32-6.19,3.48-5.86,7.04C1492.05,869.92,1495.21,872.55,1498.77,872.22L1498.77,872.22z
		"/>
	<path class="st70" d="M1429.79,927.07c-3.26-4.47-9.56-10.55-19.88-10.97c-9.52-0.39-18.74,6.09-23.22,14.14
		c-3.34,5.99-3.99,12.66-1.47,18.01c1.53,3.23,5.39,4.61,8.63,3.08c3.23-1.53,4.61-5.39,3.08-8.62c-0.87-1.85-0.08-4.09,1.07-6.16
		c2.25-4.03,6.61-7.69,11.38-7.5c7.73,0.32,10.91,7.02,11.36,7.99c0.84,1.8,2.09,2.91,3.57,3.61c1.41,0.66,3.23,1,5.44,0.45
		c1.46-0.35,3.62-1.49,6.11-2.54c1.4-0.59,3.08-1.52,4.73-0.5c3.03,1.89,7.03,0.96,8.92-2.08c1.89-3.03,0.96-7.03-2.08-8.92
		c-4.95-3.08-10.05-2.75-14.54-1.23C1431.92,926.17,1430.8,926.63,1429.79,927.07L1429.79,927.07z"/>
	<path class="st70" d="M1473.52,917.6c2.91-3.61,8.12-4.92,12.63-4.24c3.76,0.57,7.22,2.72,7.55,7.01c0.27,3.57,3.38,6.24,6.95,5.97
		c3.57-0.27,6.24-3.38,5.97-6.95c-0.84-11.02-8.9-17.39-18.53-18.84c-8.88-1.34-18.92,1.83-24.64,8.92
		c-2.24,2.78-1.81,6.86,0.97,9.1C1467.19,920.82,1471.27,920.38,1473.52,917.6L1473.52,917.6z"/>
	<path class="st70" d="M1205.44,868.06c-30.31-9.34-50.16,14.88-41.47,34.51c4.69,10.61,11.92,15,19.05,15.8
		c10.4,1.17,21.57-5.99,26.6-16.25c1.58-3.21,0.25-7.09-2.96-8.67c-3.21-1.58-7.09-0.25-8.67,2.96c-2.63,5.36-8.09,9.7-13.53,9.08
		c-3.43-0.38-6.4-3.07-8.65-8.17c-4.97-11.23,8.48-22.23,25.81-16.89c3.42,1.05,7.05-0.87,8.1-4.28
		C1210.78,872.73,1208.86,869.11,1205.44,868.06L1205.44,868.06z"/>
	<path class="st70" d="M1131.1,944.97c-11.4-3.36-22.81,4.58-27.28,14.45c-2.99,6.59-2.78,13.7,1.07,18.82
		c2.51,3.34,6.69,6.1,13.27,6.94c3.55,0.46,6.79-2.05,7.25-5.6c0.46-3.55-2.05-6.79-5.6-7.25c-2.17-0.28-3.74-0.78-4.57-1.89
		c-1.16-1.55-0.53-3.69,0.38-5.69c2.01-4.45,6.67-8.88,11.82-7.36c3.43,1.01,7.03-0.95,8.04-4.38
		C1136.49,949.58,1134.53,945.98,1131.1,944.97L1131.1,944.97z"/>
	<path class="st33" d="M326.45,294.79c-64.49,16.48-91.21,74.83-87.24,142.3c0.21,3.57,3.28,6.29,6.84,6.08
		c3.57-0.21,6.3-3.27,6.09-6.84c-3.58-60.83,19.37-114.13,77.52-128.99c3.46-0.88,5.56-4.42,4.67-7.88
		C333.44,296,329.91,293.9,326.45,294.79L326.45,294.79z"/>
	<path class="st33" d="M247.19,470.68c6.82,41.56,22.31,74.6,42.77,107.29c1.9,3.03,5.9,3.95,8.93,2.05c3.03-1.9,3.95-5.9,2.05-8.93
		c-19.56-31.24-34.45-62.79-40.97-102.51c-0.58-3.53-3.91-5.92-7.44-5.34C249,463.82,246.61,467.15,247.19,470.68L247.19,470.68z"/>
	<path class="st33" d="M429.92,334.17c71.81,26.85,121.79,66.77,155.71,110.48c2.19,2.82,6.26,3.34,9.09,1.15
		c2.82-2.19,3.34-6.26,1.14-9.09c-35.17-45.32-86.93-86.82-161.4-114.67c-3.35-1.25-7.08,0.45-8.34,3.8
		C424.87,329.18,426.57,332.91,429.92,334.17L429.92,334.17z"/>
	<path class="st33" d="M533.61,369.22c22.4,17.53,55.19,46.16,75.11,75.55c2.01,2.96,6.03,3.73,8.99,1.73
		c2.96-2.01,3.73-6.04,1.73-9c-20.67-30.49-54.6-60.3-77.85-78.48c-2.81-2.2-6.89-1.7-9.09,1.11
		C530.3,362.94,530.8,367.02,533.61,369.22L533.61,369.22z"/>
	<path class="st33" d="M345.86,674.88c36.99,58.09,109.77,130.48,162.26,156.51c3.2,1.59,7.09,0.28,8.68-2.92
		c1.59-3.2,0.28-7.09-2.93-8.68c-50.87-25.22-121.23-95.56-157.08-151.86c-1.92-3.02-5.93-3.91-8.94-1.98
		C344.82,667.86,343.93,671.87,345.86,674.88L345.86,674.88z"/>
	<path class="st33" d="M461.28,777.61c25.14,23.4,78.06,53.54,112.34,67.78c3.3,1.37,7.09-0.2,8.47-3.49c1.37-3.3-0.2-7.09-3.5-8.47
		c-33.08-13.75-84.22-42.72-108.49-65.3c-2.62-2.44-6.72-2.29-9.15,0.33C458.51,771.07,458.66,775.17,461.28,777.61L461.28,777.61z"
		/>
</g>
</svg>
