<?xml version="1.0" encoding="utf-8"?>
<!-- Generator: Adobe Illustrator 26.4.1, SVG Export Plug-In . SVG Version: 6.00 Build 0)  -->
<svg version="1.1" id="Layer_1" xmlns="http://www.w3.org/2000/svg" xmlns:xlink="http://www.w3.org/1999/xlink" x="0px" y="0px"
	 viewBox="0 0 2000 2000" style="enable-background:new 0 0 2000 2000;" xml:space="preserve">
<style type="text/css">
	.st0{fill-rule:evenodd;clip-rule:evenodd;fill:#145468;}
	.st1{fill-rule:evenodd;clip-rule:evenodd;fill:#3B7A7A;}
	.st2{fill-rule:evenodd;clip-rule:evenodd;fill:#098B8D;}
	.st3{fill-rule:evenodd;clip-rule:evenodd;fill:#689595;}
	.st4{fill-rule:evenodd;clip-rule:evenodd;fill:#679595;}
	.st5{fill-rule:evenodd;clip-rule:evenodd;fill:#CEE4E4;}
	
		.st6{fill-rule:evenodd;clip-rule:evenodd;fill:#145468;stroke:#CEE4E4;stroke-width:5;stroke-linecap:round;stroke-linejoin:round;stroke-miterlimit:10;}
	.st7{fill-rule:evenodd;clip-rule:evenodd;fill:#043A60;}
	.st8{fill-rule:evenodd;clip-rule:evenodd;fill:#FD9A65;}
	.st9{fill-rule:evenodd;clip-rule:evenodd;fill:#18658D;}
	.st10{fill-rule:evenodd;clip-rule:evenodd;fill:#9FCDE5;}
	.st11{fill-rule:evenodd;clip-rule:evenodd;fill:#56A8D3;}
	.st12{fill-rule:evenodd;clip-rule:evenodd;fill:#276383;}
	.st13{fill-rule:evenodd;clip-rule:evenodd;fill:#E0F0F8;}
	.st14{fill-rule:evenodd;clip-rule:evenodd;fill:#A51E1C;}
	.st15{fill-rule:evenodd;clip-rule:evenodd;fill:#CB442D;}
	.st16{fill-rule:evenodd;clip-rule:evenodd;fill:#DC5A44;}
	.st17{fill-rule:evenodd;clip-rule:evenodd;fill:#F7BD54;}
	.st18{fill-rule:evenodd;clip-rule:evenodd;fill:#E46B37;}
	.st19{fill-rule:evenodd;clip-rule:evenodd;fill:#B67227;}
	.st20{fill-rule:evenodd;clip-rule:evenodd;fill:#D78A35;}
	.st21{fill-rule:evenodd;clip-rule:evenodd;fill:#A4331F;}
	.st22{fill-rule:evenodd;clip-rule:evenodd;fill:#F2A550;}
	.st23{fill-rule:evenodd;clip-rule:evenodd;fill:#F9E9D6;}
	.st24{fill-rule:evenodd;clip-rule:evenodd;fill:#844013;}
	.st25{fill-rule:evenodd;clip-rule:evenodd;fill:#A04E18;}
	.st26{fill-rule:evenodd;clip-rule:evenodd;fill:#F8B872;}
	.st27{fill-rule:evenodd;clip-rule:evenodd;fill:#FFC689;}
	.st28{fill-rule:evenodd;clip-rule:evenodd;fill:#B6844D;}
	.st29{fill-rule:evenodd;clip-rule:evenodd;fill:#CA5320;}
	.st30{fill-rule:evenodd;clip-rule:evenodd;fill:#D76332;}
	.st31{fill-rule:evenodd;clip-rule:evenodd;fill:#812F0C;}
	.st32{fill-rule:evenodd;clip-rule:evenodd;fill:#8A460F;}
	.st33{fill-rule:evenodd;clip-rule:evenodd;fill:#B46914;}
	.st34{fill-rule:evenodd;clip-rule:evenodd;fill:#B54515;}
	.st35{fill-rule:evenodd;clip-rule:evenodd;fill:#FFCD71;}
	.st36{fill-rule:evenodd;clip-rule:evenodd;fill:#95B41D;}
	.st37{fill-rule:evenodd;clip-rule:evenodd;fill:#A8C731;}
	.st38{fill-rule:evenodd;clip-rule:evenodd;fill:#85A214;}
	.st39{fill-rule:evenodd;clip-rule:evenodd;fill:#C6EF28;}
	.st40{fill-rule:evenodd;clip-rule:evenodd;fill:#ED982B;}
	.st41{fill-rule:evenodd;clip-rule:evenodd;fill:#FCCF7C;}
	.st42{fill-rule:evenodd;clip-rule:evenodd;fill:#FFE8BC;}
	.st43{fill-rule:evenodd;clip-rule:evenodd;fill:#ED6961;}
	.st44{fill-rule:evenodd;clip-rule:evenodd;fill:#696E1E;}
	.st45{fill-rule:evenodd;clip-rule:evenodd;fill:#9CA42A;}
	.st46{fill-rule:evenodd;clip-rule:evenodd;fill:#7F8615;}
	.st47{fill-rule:evenodd;clip-rule:evenodd;fill:#FFEECF;}
	.st48{fill-rule:evenodd;clip-rule:evenodd;fill:#77786D;}
	.st49{fill-rule:evenodd;clip-rule:evenodd;fill:#D3D5C6;}
	.st50{fill-rule:evenodd;clip-rule:evenodd;fill:#7C7A7A;}
	.st51{fill-rule:evenodd;clip-rule:evenodd;fill:#DBDCD9;}
	.st52{fill-rule:evenodd;clip-rule:evenodd;fill:#CA372D;}
	.st53{fill-rule:evenodd;clip-rule:evenodd;fill:#FE7D75;}
	.st54{fill-rule:evenodd;clip-rule:evenodd;fill:#B0B0B0;}
	.st55{fill-rule:evenodd;clip-rule:evenodd;fill:#888787;}
	.st56{fill-rule:evenodd;clip-rule:evenodd;fill:#6E6E6E;}
	.st57{fill-rule:evenodd;clip-rule:evenodd;fill:#757575;}
	.st58{fill-rule:evenodd;clip-rule:evenodd;fill:#60341E;}
	.st59{fill-rule:evenodd;clip-rule:evenodd;fill:#B0451B;}
	.st60{fill-rule:evenodd;clip-rule:evenodd;fill:#8A4727;}
	.st61{fill-rule:evenodd;clip-rule:evenodd;fill:#FABB64;}
	.st62{fill-rule:evenodd;clip-rule:evenodd;fill:#3E88AF;}
	.st63{fill-rule:evenodd;clip-rule:evenodd;fill:#5BA0C5;}
	.st64{fill-rule:evenodd;clip-rule:evenodd;fill:#FFF1DE;}
	.st65{fill-rule:evenodd;clip-rule:evenodd;fill:#F8B89B;}
	.st66{fill-rule:evenodd;clip-rule:evenodd;fill:#E98A5F;}
	.st67{fill-rule:evenodd;clip-rule:evenodd;fill:#FFCAB3;}
	.st68{fill-rule:evenodd;clip-rule:evenodd;fill:#F9A580;}
	.st69{fill-rule:evenodd;clip-rule:evenodd;fill:#FFDFD2;}
	.st70{fill-rule:evenodd;clip-rule:evenodd;fill:#E2A85C;}
	.st71{fill-rule:evenodd;clip-rule:evenodd;fill:#C68446;}
	.st72{fill-rule:evenodd;clip-rule:evenodd;fill:#F2BC75;}
	.st73{fill-rule:evenodd;clip-rule:evenodd;fill:#F2BC76;}
	.st74{fill-rule:evenodd;clip-rule:evenodd;fill:#FFD69F;}
	.st75{fill-rule:evenodd;clip-rule:evenodd;fill:#E7624B;}
	.st76{fill-rule:evenodd;clip-rule:evenodd;fill:#FFEED9;}
	.st77{fill-rule:evenodd;clip-rule:evenodd;fill:#C26E11;}
	.st78{fill-rule:evenodd;clip-rule:evenodd;fill:#F39226;}
	.st79{fill-rule:evenodd;clip-rule:evenodd;fill:#DF5020;}
	.st80{fill-rule:evenodd;clip-rule:evenodd;fill:#2C140B;}
	.st81{fill-rule:evenodd;clip-rule:evenodd;fill:#FFFFFF;}
	.st82{fill-rule:evenodd;clip-rule:evenodd;}
	.st83{fill-rule:evenodd;clip-rule:evenodd;fill:#A96F3E;}
	.st84{fill-rule:evenodd;clip-rule:evenodd;fill:#683A15;}
	.st85{fill-rule:evenodd;clip-rule:evenodd;fill:#F0DCCB;}
	.st86{fill-rule:evenodd;clip-rule:evenodd;fill:#E6D1B6;}
	.st87{fill-rule:evenodd;clip-rule:evenodd;fill:#69553C;}
</style>
<g>
	<path class="st70" d="M412.07,1259.2c-28.3,35.43-128.11,108.62-124.41,84.02c1.89-12.63,33.66-66.15,70.93-114.42
		c27.3-35.39,65.74-86.61,78.13-112.66c0.81-1.75,1.53-3.39,2.13-4.88c1.97-5.15,2.48-8.86,1.04-10.58
		c-1.39-1.66-4.82,0.12-9.68,4.3c-1.14,0.97-2.37,2.09-3.65,3.33c-23.67,22.47-71.59,84.66-99.23,106.96
		c-25.77,20.8-83.31,59.68-85.58,50.48c-2.34-9.51,16.71-50.02,32.51-70.52c40.93-53.15,103.14-98.54,125.44-116.5
		c1.52-1.21,2.85-2.3,3.97-3.28c3.18-2.69,4.73-4.35,4.28-4.83c-1.28-1.36-3.83-1.47-7.47-0.56c-1.6,0.4-3.4,1-5.43,1.78
		c-37.29,14.65-140.04,93.13-181.29,115.66c-30.82,16.83-92.08,60.14-96.57,42.03c-8.92-35.89,118.34-144.72,140.22-156.39
		c42.64-22.68,95.43-45.13,93.57-45.33c-41.67-4.04-73.92,15.77-108.21,28.51c-68.33,25.42-127.62,58.66-165.71,70.07
		c-27.1,8.12,16.56-49.14,43.89-72.63c42.14-36.21,129.95-87.86,176.94-97.55c16.29-3.38-37.11-6.28-93.97,3.3
		c-63.22,10.6-134.81,35.36-137.76,31.09c-9.24-13.29,50.28-46.48,81.24-59.42c62.87-26.28,122.94-18.14,111.81-21.19
		c-51.33-14.13-89.7-18.52-142.94-21.01c-40.2-1.88-72.51-1.08-67.15-6.08c26.07-24.3,99.82-35.07,173.32-25.5
		c38.6,5.03,77.87,17.11,106.92,29.52c2.49,1.05,4.89,2.11,7.21,3.17c2.56,1.18,5.02,2.34,7.36,3.5c2.19,1.07,4.29,2.13,6.27,3.2
		c3.44,1.83,6.6,3.64,9.39,5.37c1.76,1.09,3.39,2.15,4.87,3.19l4.05,4.7l17.87,20.83l4.21,4.92l6.06,7.05l9.05,10.56l9.83,11.43
		l4.87,5.69l11.75,13.68l6.46,7.5l8.8,10.29l6.57,7.62l8.95,10.44l6.76,7.89l20.74,24.14l13.13,15.31l0.57,0.67
		c0.27,15.72-3.34,33.19-9.59,51.43c-0.96,2.78-1.99,5.58-3.07,8.41c-0.85,2.26-1.78,4.53-2.7,6.81c-2.16,5.22-4.5,10.5-7.02,15.78
		C463.59,1188.89,436.99,1228.02,412.07,1259.2z"/>
	<path class="st70" d="M1579.41,826.06c60-5.41,144.71-61.23,192.98-77.01c31.12-10.18,106.23-34.22,96.63-17.69
		c-22.06,37.97-187.5,84.2-218.71,113.38c-4.7,4.4,119.82-38.01,151.93-42.64c18.14-2.61,62.81-11.32,62.36-5.55
		c-1.64,21.13-60.72,36.01-88.44,44.17c-12.4,3.65-114.41,35.68-111.24,37.59c6.9,4.14,99.6-24.95,146.93-34.67
		c54.11-11.12,112.09-20.4,124.9-23.6c8.23-2.06,28.79-1.81-0.49,14.62c-46.33,26-92.24,47.9-144.94,62.14
		c-15.19,4.11-94.9,19.04-94.45,21.09c0.44,2.05,66.52-4.44,97.11-8.8c55.12-7.86,107.69-6.8,111.09-1.59
		c9.7,14.88-56.44,30.89-79.43,31.57c-25.56,0.75-176.93,17.15-172.88,17.02c31.08-0.95,227.48-16.63,240.17,3.3
		c5.24,8.23-17.87,8.58-27.53,9.99c-42.89,6.28-86.58,6.18-129.6,11.71c-10.71,1.38-32.16,3.9-32.16,3.9s28.56,1.63,41.77,6.55
		c28.06,10.43,120.46,28.93,126.61,56.06c3.45,15.19-16.02-0.19-131.1-17.05c-18.53-2.71-78.45-18.92-77.76-16.19
		c1.04,4.16,118.7,47.2,148.47,79.38c22.79,24.65,29.17,56.49,3.58,35.85c-24.2-19.52-49.23-38.15-82.52-52.48
		c-49.24-21.2-101.93-49.4-127.46-55.07L1579.41,826.06L1579.41,826.06z"/>
	<path class="st70" d="M684.46,1121.99c-23.66,33.11-58.97,39.59-78.58,39.85c-6.24,0.09-10.89-0.46-13.05-0.99
		c-1.34-0.33-2.82,0.28-4.59,1.37c-7.14,4.38-19.4,16.72-49.7,8.45c-23.13-6.3-34.39-25.02-40.31-35.35
		c-0.32-0.55-0.62-1.08-0.9-1.54c-1.73-3.01-2.96-5.05-3.88-5.42c-0.47-0.19-1.13-0.32-1.97-0.45c-1.69-0.28-4.13-0.44-7.17-0.77
		c-10.07-1.06-26.83-3.68-45.45-15.88c-2.85-1.83-5.75-3.92-8.65-6.28c-4.63-3.69-9.32-8.01-13.97-13.07
		c-4.72-5.1-8.88-10.66-12.56-16.46c-1.12-1.76-2.2-3.56-3.19-5.39c-13.09-23.09-18.59-49.26-17.87-67.31
		c0.16-4.83,0.77-9.06,1.83-12.49c0.25-0.91,0.55-1.76,0.89-2.56c0.25-0.56-2.35-3.06-6.35-6.96c-7.69-7.47-20.62-20.12-28.93-34.48
		c-0.01-0.03-0.01-0.03-0.02-0.07c-2.22-3.81-4.12-7.78-5.49-11.78c-6.03-17.56-8.28-32.14-7.99-44.32
		c0.62-27.07,13.7-42.45,25.85-53.08c3.15-2.74,6.19-5.16,8.97-7.38l0.01-0.02c1.56-1.22,3-2.39,4.32-3.51
		c0.58-0.48,1.33-1.73,2.4-3.51c5.32-9.01,18.02-31.87,51.33-42.73c46.03-15.02,90.59-4.24,134.34,36.33c1.08,1,2.15,2.06,3.24,3.15
		c1.47,1.53,2.9,3.13,4.34,4.81c17.22,20.23,31.47,51.57,42.58,79.69c0,0,0.02,0.01,0.03,0.05c8.09,20.33,14.46,38.94,19.18,50.44
		c0.1,0.23,0.18,0.43,0.28,0.67c11.76,28.31,36.98,72.02,48.18,88.38c6.25,9.14,9.98,20.17,11.49,31.27
		c0.99,7.11,1.06,14.25,0.32,20.94C692.27,1106.01,689.19,1115.39,684.46,1121.99z"/>
	<path class="st70" d="M1655.19,1039.66c-0.41,0.73-0.84,1.44-1.29,2.15c-5.62,9.13-12.53,16.51-20.01,22.55l-0.12,0.1
		c-2.45,1.98-4.96,3.8-7.53,5.48c-22.7,14.95-48.43,19.03-60.17,20.21c-0.78,0.07-1.5,0.13-2.15,0.19
		c-2.71,0.2-6.34,3.24-11.73,7.08c-10.39,7.39-27.4,17.82-57.35,17.33c-28.65-0.44-76.56-20.42-97.56-70.63
		c-1.96-4.69-3.7-9.65-5.16-14.89c-0.18-0.64-0.35-1.24-0.5-1.86c-0.2-0.74-0.38-1.53-0.55-2.28l0.01-0.02
		c-2.79-12.99-0.63-27.11,0.98-39.91l0.01-0.02c0.57-4.49,1.07-8.82,1.26-12.86c0.37-7.06-0.21-13.27-2.95-18.13
		c-10.11-17.94-18.3-40.4-23.99-59.87c-0.84-2.92-1.64-5.76-2.39-8.5c0.01-0.02,0.01-0.02-0.01-0.03c-1.23-4.69-2.31-9.08-3.22-13.1
		c-0.95-4.22-1.22-8.72-0.83-13.41c-0.02-0.07-0.01-0.13,0-0.2c0.1-1.59,0.32-3.23,0.6-4.89l0-0.06c0.64-3.86,1.65-7.82,3.04-11.85
		l0.03-0.04c14.16-41.06,65.16-87.37,116.34-88.45c50.13-1.06,87.55,27.66,97.19,47.12c0.52,1.05,0.96,2.08,1.32,3.06
		c0.06,0.15,0.3,0.33,0.72,0.58c1.62,0.94,5.95,2.71,11.9,5.46c5.48,2.55,12.37,5.92,19.74,10.28
		c20.32,12.01,44.5,31.47,54.21,61.28c11.75,36.14,7.07,51.07-2.27,64.52l-0.14,0.24c-1.76,2.48-3.63,4.93-5.62,7.45
		c-0.15,0.2-0.33,0.39-0.48,0.6c-0.09,0.15,0.13,0.76,0.55,1.83c0.07,0.13,0.1,0.27,0.17,0.4c0.46,1.19,1.14,2.81,1.92,4.81
		c0.26,0.69,0.55,1.45,0.85,2.22c0,0-0.01,0.02,0.01,0.03l0.02,0.01c1.76,4.83,3.74,11.26,5.01,18.83c0,0,0.03,0.05,0,0.06
		c1.61,9.36,2.07,20.43-0.36,32.3c-0.11,0.52-0.2,1.03-0.33,1.54C1662.67,1023.9,1659.77,1031.74,1655.19,1039.66z"/>
	<path class="st70" d="M1409.92,1020.21c-5.31,3.54-11.25,6.57-17.79,9.02c-1.38,0.53-2.8,1.03-4.23,1.5
		c-3.94,1.26-8.07,2.35-12.37,3.22c-17.11,3.47-42.56-0.8-56.97-3.84c-6.72-1.43-11.04-2.58-11.04-2.58s-2.12,1.71-6.62,4.16
		c-11.24,6.17-37.33,17.08-82.33,18.09c-24.17,0.54-44.11-6.03-56.77-11.8c-7.71-3.51-12.73-6.69-14.37-7.79
		c-0.38-0.26-0.58-0.41-0.58-0.41s-27.3,39.07-111.2,38.95c-24.81-0.02-54.72-8.92-72.45-15.04c-5.67-1.95-10.05-3.64-12.65-4.67
		l-0.53-0.2l-0.94-0.36c-0.75-0.33-1.15-0.49-1.15-0.49s-21.21,24.6-62.96,26.88c-34.71,1.9-77.3-14.38-92.68-20.87
		c-3.77-1.58-5.91-2.57-5.91-2.57s-3.37,1.99-9.12,4.79c-12.43,6.08-35.95,16.05-60.34,18.34c-4.09,0.38-8.24,0.57-12.39,0.56
		c-3.81,0.01-7.63-0.15-11.45-0.47c-1.48-0.09-2.97-0.25-4.47-0.41c-2.82-0.31-5.66-0.68-8.48-1.14
		c-5.59-0.91-11.18-2.11-16.72-3.57c-4.18-1.09-8.35-2.35-12.47-3.73c-3.02-1.01-6.02-2.11-9-3.28c-3.4-1.3-6.74-2.72-10.06-4.21
		c-11.44-5.15-22.4-11.31-32.49-18.13c-9.44-6.37-18.1-13.36-25.76-20.7c-1.14-1.1-2.3-2.26-3.44-3.45
		c-3.22-3.38-6.42-7.09-9.56-11.1c-1.29-1.69-2.6-3.39-3.87-5.15c-1.74-2.4-3.48-4.86-5.17-7.4c-2.23-3.31-4.42-6.78-6.54-10.32
		c-6.92-11.4-13.3-23.78-18.82-36.14c-1.09-2.45-2.17-4.93-3.17-7.39c-0.3-0.68-0.59-1.38-0.86-2.05c-3-7.28-5.65-14.47-7.93-21.38
		c-1.64-4.99-3.05-9.85-4.24-14.45c-2.19-8.44-3.57-16.17-4-22.68c-0.17-2.13-0.22-4.11-0.17-5.97c0.12-3.49,0.81-6.85,2-10.06
		c1.66-4.49,4.26-8.68,7.6-12.57l0.01-0.02c1.23-1.5,2.58-2.93,4.04-4.33c2.31-2.24,4.86-4.37,7.58-6.39
		c4.92-3.68,10.39-6.95,16.01-9.79c3.02-1.55,6.11-2.97,9.18-4.25c0.87-0.36,1.72-0.71,2.57-1.05c4.14-1.64,8.25-3.04,12.16-4.2
		c0.41-0.14,0.8-0.26,1.22-0.36c4.11-1.19,8.01-2.1,11.5-2.71c1.36-0.25,2.72-0.46,4.1-0.64c22.96-3.24,45.04,0.4,58.68,3.69
		c8.64,2.06,13.92,4.02,13.92,4.02s4.78-2.85,12.94-6.68c18.3-8.54,53.62-22.02,90.84-19.5c47.58,3.19,93.97,23.35,111.15,31.56
		c4.48,2.16,6.99,3.48,6.99,3.48s4.4-3.49,11.95-7.89c14.72-8.56,41.37-20.67,70.83-17.59c24.39,2.58,47.44,9.41,62.98,14.96
		l0.09,0.05c12.11,4.29,19.62,7.79,19.62,7.79s3.86-2.26,10.84-5.35c16.37-7.19,49.74-18.89,90.41-16.72
		c66.38,3.53,97.1,32.92,97.1,32.92s0.1-0.03,0.3-0.06c1.53-0.29,8.76-1.58,19.83-2.11c16.72-0.79,42.21,0.2,70.03,9.14
		c9.39,3.01,18.44,6.85,27.05,11.36c0.02,0.01,0.02,0.01,0.02,0.01c0.21,0.1,0.38,0.2,0.55,0.3c15.41,8.12,29.37,18.41,41.14,29.95
		l0.02,0.01c13.47,13.18,24.04,27.98,30.65,43.11c0.92,2.11,1.77,4.22,2.56,6.34c1.35,3.84,2.49,7.69,3.32,11.51
		c0.25,1.06,0.44,2.12,0.63,3.18c0.81,4.5,1.21,8.95,1.2,13.33c-0.03,9.59-2.02,18.51-5.74,26.57c-0.31,0.61-0.63,1.24-0.93,1.89
		C1427.82,1004.92,1420.02,1013.5,1409.92,1020.21z"/>
	<path class="st71" d="M792.3,1054c-3.77-1.58-5.91-2.57-5.91-2.57s-3.37,1.99-9.12,4.79c-1.75-43.14-18.51-106.75-51.51-159.15
		c-20.96-33.26-48.53-62.09-83.24-77.75c8.64,2.06,13.92,4.02,13.92,4.02s4.78-2.85,12.94-6.68c27.92,17.69,50.94,43.34,69.21,72.34
		C772.65,943.06,790.02,1008.65,792.3,1054z"/>
	<path class="st71" d="M963.21,1053.69l-13.18-4.87l-0.94-0.36c6.92-21.02,7.36-47.9,2.66-75.89
		c-9.14-54.59-38.03-113.71-80.39-143.87c4.48,2.16,6.99,3.48,6.99,3.48s4.4-3.49,11.95-7.89c39.86,34.05,67.39,91.79,76.39,145.77
		C971.86,1000.88,970.9,1030.4,963.21,1053.69z"/>
	<path class="st71" d="M1161.8,1037.99l-14.37-7.79c2.09-24.42-3.02-51.24-13.48-77.68c-20.29-51.29-60.74-101.31-109.75-130.79
		c12.11,4.29,19.62,7.79,19.62,7.79s3.86-2.26,10.84-5.35c41.5,31.61,75.18,76.69,93.4,122.78
		C1160.37,978.06,1165.6,1009.64,1161.8,1037.99z"/>
	<path class="st71" d="M1318.56,1030.11c-6.72-1.43-11.04-2.58-11.04-2.58s-2.12,1.71-6.62,4.16c12.68-22.08,12.97-51.11,6.09-80.38
		c-10.1-43.02-35.92-86.71-64.53-111.01c1.53-0.29,8.76-1.58,19.83-2.11c26.63,27.15,49.82,68.59,59.49,109.63
		C1328.68,977.23,1328.58,1006.32,1318.56,1030.11z"/>
	<path class="st72" d="M605.41,839.48c14.06-11.56,46.71,0.08,66.91,16.52c32.81,26.7,53.09,52.83,73.74,104.46
		c19.98,49.96-3.26,114.49-28.36,79.66c-27.49-38.16-50.48-94.07-71.59-120.49C632.72,902.89,588.96,853,605.41,839.48
		L605.41,839.48z"/>
	<path class="st72" d="M721.67,824.97c20.21-19.97,93.77-10.62,130.14,11.52c67.94,41.35,97.68,121.06,90.02,176.49
		c-3.53,25.6-18.38,40.7-38.43,33.78c-15.61-5.39-32.14-21.84-44.72-36.37c-23.85-27.55-77.73-110.65-98.38-128.96
		C732.74,856.99,711.24,835.28,721.67,824.97L721.67,824.97z"/>
	<path class="st72" d="M941.34,820.54c39.43-0.55,93.14,18.99,133.82,66.03c50.03,57.85,71.15,128.67,44.41,148.94
		c-29.45,22.32-63.6-25.56-100.01-82.07c-30.62-47.52-47.93-78.04-92.71-109.33C911.15,833.15,920.98,820.83,941.34,820.54
		L941.34,820.54z"/>
	<path class="st72" d="M1098.41,827.07c11.63-8.17,79.1-12.42,123.2,16.42c35.72,23.36,58.26,67.47,67.45,97.93
		c14.76,48.9-1.36,88.6-30.85,92.87c-17.84,2.58-43.09-14.43-61.27-52.96c-13.21-28.01-30.34-69.9-45.12-88.82
		C1117.49,848.54,1086.78,835.24,1098.41,827.07L1098.41,827.07z"/>
	<path class="st72" d="M1326.31,859.99c38.24,20.55,55.77,55.76,64.86,80.3c14.56,39.32-3.56,55.96-18.44,59.01
		c-15.81,3.25-28.63-20.55-35.16-48.68c-3.99-17.16-13.89-50.84-25.55-73.2C1302.89,859.91,1302.82,847.37,1326.31,859.99
		L1326.31,859.99z"/>
	<path class="st71" d="M693.4,1095.58c-1.13-7.16-2.75-14.29-4.79-21.35c-11.26-39.21-35.7-77-67.65-110.46
		c-3.75-3.96-7.64-7.85-11.63-11.66l-0.02-0.01c-13.64-13.19-28.41-25.56-43.96-36.98c0,0,0,0-0.02-0.01
		c-0.94-0.74-1.86-1.41-2.83-2.11c-7.65-5.53-15.46-10.84-23.42-15.9c-10.8-6.86-21.85-13.25-33.05-19.11
		c-46.73-24.46-95.82-39.58-139.32-40.85c-1.43-0.06-2.86-0.1-4.3-0.1c-5.27-0.06-10.5,0.1-15.59,0.49
		c3.39-4.92,7.32-9.49,11.8-13.73c1.09-1.03,2.41-1.65,3.76-1.9c1.03,0,2.05,0.02,3.09,0.06l0.02,0.01
		c4.17,0.08,8.37,0.3,12.62,0.64c41.14,3.25,86.32,17.37,129.76,39.36c21.87,11.06,43.3,24.08,63.53,38.75
		c9.7,7.03,19.1,14.4,28.14,22.13c4.65,3.94,9.2,7.96,13.62,12.09c7.04,6.49,13.82,13.18,20.26,20.08
		c34.23,36.36,60,77.58,71.12,120.12c-3.81,0.01-7.63-0.15-11.45-0.47C694.07,1081.74,694.14,1088.89,693.4,1095.58z"/>
	<path class="st71" d="M566.75,900.21c-32.89-8.87-75.8,1.77-113.82,21.65c-37.74,19.73-70.53,48.4-84.11,74.5
		c-1.93,3.71-0.49,8.3,3.23,10.23c3.71,1.93,8.29,0.49,10.23-3.23c12.49-23.99,42.99-49.93,77.68-68.06
		c34.41-17.99,73.08-28.47,102.85-20.45c4.04,1.09,8.21-1.31,9.29-5.35C573.19,905.47,570.79,901.31,566.75,900.21L566.75,900.21z"
		/>
	<path class="st71" d="M620.96,963.76c-0.91,0.87-2.09,1.52-3.43,1.83c-15.54,3.59-30.8,13.36-44.98,26.88
		c-4.08,3.86-8.03,8.03-11.92,12.45c-1.74,2.02-3.48,4.08-5.19,6.2c-2.23,2.73-4.43,5.57-6.58,8.46
		c-23.15,31.13-41.14,70.12-48.42,103.69c-0.73,3.28-1.34,6.51-1.83,9.69c-0.01,0.02-0.01,0.02-0.01,0.02
		c-0.12,0.78-0.26,1.56-0.37,2.34c-0.32-0.55-0.62-1.08-0.9-1.54c-0.88,0.48-1.91,0.77-2.98,0.84c-1.87,0.12-3.72,0.16-5.57,0.1
		c-2.16,5.22-4.5,10.5-7.02,15.78c0.12-5.12,0.58-10.5,1.34-16.09c0.34-2.39,0.73-4.81,1.2-7.27c0.45-2.53,0.97-5.11,1.56-7.7
		c3.71-16.61,9.8-34.42,17.71-52.04c8.95-19.89,20.27-39.54,33.14-56.88c4.75-6.4,9.76-12.48,14.9-18.15
		c17.75-19.57,37.59-34.22,57.71-40.29l0.02,0.01c1.59-0.49,3.18-0.92,4.78-1.29c4.07-0.95,8.16,1.62,9.09,5.69
		C623.83,959.23,622.89,961.97,620.96,963.76z"/>
	<path class="st71" d="M605.88,1161.84c-6.24,0.09-10.89-0.46-13.05-0.99c-1.34-0.33-2.82,0.28-4.59,1.37
		c-23.45-39.24-38.28-94.23-32.79-151.1c0.32-3.78,0.78-7.55,1.32-11.35c0.32-2.16,0.66-4.35,1.04-6.54
		c0.7-4.12,4.63-6.89,8.75-6.19c2.97,0.51,5.22,2.69,6,5.43c0.32,1.04,0.38,2.17,0.19,3.33c-1.17,6.76-2,13.51-2.55,20.22
		C565.68,1071.91,581.69,1125.55,605.88,1161.84z"/>
	<path class="st71" d="M603.8,941.56c-4.08-0.97-6.59-5.08-5.64-9.13c0.69-2.92,1.14-6.13,1.37-9.61
		c1.76-25.24-8.11-64.32-28.18-98.67c-1.02-1.73-2.05-3.47-3.12-5.17c4.11-1.19,8.01-2.1,11.5-2.71c1.36-0.25,2.72-0.46,4.1-0.64
		c17.15,29.3,27.31,61.95,30.1,88.21c0,0,0.02,0.01,0.03,0.05c1.27,11.99,1,22.65-0.81,31.03c-0.06,0.35-0.14,0.68-0.23,1.01
		C611.96,939.99,607.85,942.51,603.8,941.56z"/>
	<path class="st71" d="M1359.38,858.7c0.02,0.01,0.02,0.01,0.02,0.01c0.19,0.17,0.38,0.35,0.55,0.51
		c47.01,44.53,57.18,116.42,31.13,165.85l-0.01,0.02c-1.01,1.93-2.05,3.81-3.18,5.64l9.39,13.39c5.06-7.4,9.29-15.44,12.63-23.91
		c9.59-24.05,12.39-51.67,8.29-78.94c-1.17-7.78-2.91-15.54-5.21-23.17c-3-9.99-6.95-19.76-11.89-29.12l-0.02-0.01
		c-9.13-17.41-21.62-33.45-37.46-46.79L1359.38,858.7z"/>
	<path class="st71" d="M1656.72,945.96c-78.37,33.17-188.24,21.06-242.59-27.04c-3.13-2.77-7.93-2.48-10.7,0.65
		c-2.78,3.13-2.48,7.93,0.65,10.7c57.95,51.29,174.99,65.01,258.55,29.65c3.85-1.63,5.66-6.08,4.03-9.94
		C1665.03,946.13,1660.58,944.33,1656.72,945.96L1656.72,945.96z"/>
	<path class="st71" d="M1566.08,1090.15c-0.78,0.07-1.5,0.13-2.15,0.19c-2.71,0.2-6.34,3.24-11.73,7.08
		c-29.24-32.54-47.32-79.05-41.27-121.58c0.26-1.82,0.56-3.64,0.92-5.46c0.78-4.1,4.76-6.81,8.87-6c4.1,0.78,6.79,4.75,6,8.87
		c-0.3,1.53-0.56,3.05-0.78,4.6C1520.25,1017.41,1538.14,1060.71,1566.08,1090.15z"/>
	<path class="st71" d="M1521.17,923.64c-17.44,13.06-36.29,21.83-54.6,25.43c-9.19,1.8-18.27,2.3-26.94,1.38
		c-0.7-0.06-1.37-0.23-1.97-0.5c-3.08-1.2-5.13-4.37-4.76-7.84c0.15-1.38,0.67-2.64,1.44-3.68c0.89-1.24,2.12-2.15,3.54-2.65
		c1.06-0.39,2.21-0.53,3.38-0.42c22.53,2.43,48.01-6.78,70.84-23.86c32.05-23.99,58.83-63.64,65.07-110.65
		c0.52,1.05,0.96,2.08,1.32,3.06c0.06,0.15,0.3,0.33,0.72,0.58c0.04-0.36,0.12-0.69,0.2-1.03c1.15-4.03,5.35-6.37,9.38-5.22
		c1.29,0.36,2.56,0.74,3.83,1.18c-0.4,3.56-0.9,7.06-1.51,10.53c-0.29,1.56-0.57,3.11-0.92,4.63c-0.72,3.75-1.6,7.44-2.61,11.08
		c-1.73,6.42-3.83,12.68-6.26,18.74C1568.31,877.37,1546.22,904.91,1521.17,923.64z"/>
	<path class="st72" d="M554.91,823.56c-29.18-33.07-71.11-55.5-122.51-32.32c-17.41,7.85-11.69,23.59-3.6,29.07
		c24.8,16.8,54.61,14.73,89.7,30.34c30.5,13.57,44.54,26.71,53.49,27.27C585.45,878.75,572.34,843.31,554.91,823.56L554.91,823.56z"
		/>
	<path class="st72" d="M459.25,866.92c-14.87-7.88-48.46-17.11-72.95-16.17c-38.17,1.46-48.21,62.09-19.81,80.84
		c18.18,12,46.78-1.75,60.96-9.86c13.49-7.72,35.99-16.2,49-19.58C485.96,899.69,482.35,879.16,459.25,866.92L459.25,866.92z"/>
	<path class="st72" d="M534.88,992.64c29.08-27.49,33.09-50.29,4.82-53c-32.36-3.1-61.41-1.31-89.9,11.79
		c-24.62,11.32-53.89,35.69-52.1,62.43c0.48,7.09,10.15,43.74,25.98,61.52c16.62,18.67,40.49,17.75,54.47-3.37
		C489.99,1054.11,509.13,1016.98,534.88,992.64L534.88,992.64z"/>
	<path class="st72" d="M616.96,989.37c29.07,19.75,52.46,54.89,65.13,88.76c6.05,16.17-1.21,47-30.21,62.36
		c-16.83,8.91-42.24,8.86-48.22,0.02c-7.55-11.18-7.36-41.25-6.32-60.07c1.35-24.28,3.81-45.88,0.22-70.96
		C595.31,993.77,607.97,983.27,616.96,989.37L616.96,989.37z"/>
	<path class="st72" d="M561.82,1121.03c-3.15-13.98-6.68-28.98-15.12-42.09c-10.87-16.9-20.82-5.28-29.43,12.15
		c-6.06,12.26-12.39,27.11-12.08,38.72c0.69,25.76,36.24,40.67,60.39,33.04C580.21,1158.22,564.89,1134.69,561.82,1121.03
		L561.82,1121.03z"/>
	<path class="st72" d="M1404.13,814.07c9.94-22.68,40.38-38.4,58.35-42.45c15.89-3.58,33.18-1.88,49.22,2.03
		c41.55,10.14,55.57,47.55,36.15,82.2c-10.51,18.75-37.42,46.33-65.15,39c-19.33-5.11-38.85-23.18-55.29-32.28
		C1407.52,851.58,1399.53,824.57,1404.13,814.07L1404.13,814.07z"/>
	<path class="st72" d="M1586.96,855.5c5.5-10.75,22.64-14.53,34.94-4.85c23.56,18.54,40.08,51.77,34.51,73.76
		c-7.68,30.34-54.1,31.63-75.2,30.33c-11.44-0.7-32.8-1.52-40.43-13.42c-5.99-9.35,9.4-26.9,13.07-31.48
		C1564.46,896.56,1580.26,868.6,1586.96,855.5L1586.96,855.5z"/>
	<path class="st72" d="M1534.93,1000.02c7.71-6.94,39.3-6.68,56.51-8.9c13.53-1.74,31.78-7.39,43.15-4.25
		c18.39,5.08,6.07,48.15-2.66,59.06c-20.79,25.98-51.9,32.34-70.41,12.53c-3.65-3.91-11.8-19.21-16.3-25.67
		C1538.08,1022.54,1527.23,1006.96,1534.93,1000.02L1534.93,1000.02z"/>
	<path class="st73" d="M1450.46,974.73c15.34-5.75,38.79,10.25,47.33,33.53c12.73,34.72,19.15,54,28.65,67.19
		c19.09,26.49-29.29,35.63-50.11,29.16c-25.83-8.02-46.56-30.57-51.19-59.57C1420.9,1018.51,1433.44,981.11,1450.46,974.73
		L1450.46,974.73z"/>
	<path class="st71" d="M376.17,1001.89c-1.19,1.5-2.86,2.41-4.61,2.72c-0.62,0.1-1.24,0.14-1.86,0.1c-1.48-0.09-2.94-0.65-4.21-1.64
		c-15.73-12.65-31.28-44.76-35.72-80.2c-1.49-11.86-1.74-24.03-0.43-35.95c1.97-17.77,7.41-34.91,17.47-49.42
		c3.39-4.92,7.32-9.49,11.8-13.73c1.09-1.03,2.41-1.65,3.76-1.9c1.04-0.2,2.09-0.19,3.09,0.06c0.01-0.02,0.01-0.02,0.02,0.01
		c1.44,0.3,2.78,1.02,3.86,2.17c1.46,1.55,2.13,3.52,2.04,5.5c-0.06,1.91-0.87,3.81-2.37,5.24c-0.79,0.73-1.56,1.51-2.31,2.27
		c-14.76,15.17-21.38,35.49-22.79,56.48c-0.61,9.13-0.21,18.39,0.9,27.39c1.11,8.71,2.89,17.24,5.22,25.21
		c5.43,18.85,13.81,34.72,22.85,43.18c0.35,0.36,0.7,0.65,1.05,0.95c0.36,0.33,0.69,0.62,1.05,0.9
		C378.25,993.85,378.78,998.62,376.17,1001.89z"/>
	<path class="st71" d="M498.61,1132.96c-0.01,0.02-0.01,0.02-0.01,0.02c-0.4,0.32-0.81,0.57-1.27,0.8
		c-0.88,0.48-1.91,0.77-2.98,0.84c-1.87,0.12-3.72,0.16-5.57,0.1c-1.9-0.02-3.8-0.1-5.68-0.31c-16.1-1.46-31.92-8.12-46.38-18.27
		c-3.48-2.41-6.86-5.03-10.16-7.83c-1.76-1.5-3.49-3.07-5.2-4.65c-7.96-7.46-15.25-15.9-21.66-24.93c-1.62-2.27-3.17-4.55-4.65-6.89
		c-13.48-21.02-22.16-44.48-23.4-65.47c-0.06-0.59-0.08-1.2-0.09-1.76c-0.16-3.22-0.1-6.37,0.12-9.45c0.15-1.92,0.98-3.6,2.25-4.84
		c1.51-1.48,3.62-2.31,5.88-2.13c1.8,0.14,3.41,0.9,4.63,2.07c1.5,1.37,2.41,3.36,2.37,5.49c0.03,0.2,0.03,0.4,0,0.59
		c-1.93,25.58,11.27,57.19,31.68,82.08c18.26,22.24,42.37,39.39,67.36,41.02c2.51,0.18,5.04,0.19,7.56,0.02
		c0.4-0.03,0.77-0.01,1.13,0.03c2.5,0.2,4.69,1.66,5.9,3.78c0.57,0.96,0.93,2.09,1.01,3.29
		C501.61,1129.13,500.47,1131.48,498.61,1132.96z"/>
	<path class="st71" d="M1626.25,1069.93c-1.13-2.89-0.38-6.3,2.12-8.45c6.16-5.3,12.68-13.38,18.48-22.9
		c7.52-12.29,13.85-26.92,16.67-40.96c1.03-5.16,1.62-10.26,1.55-15.11c0.03-0.01,0-0.06,0-0.06c-0.08-7.04-1.56-13.52-5.03-18.84
		c-0.02-0.01-0.01-0.03-0.01-0.03c-0.46-0.66-0.94-1.33-1.46-1.99c-0.66-0.81-1.37-1.59-2.15-2.35c-0.76-0.75-1.35-1.63-1.73-2.57
		c-0.04-0.08-0.06-0.15-0.1-0.23c-0.77-2.11-0.61-4.49,0.55-6.48c0.3-0.5,0.65-0.99,1.1-1.44c1.73-1.76,4.1-2.52,6.39-2.24
		c0.3,0.03,0.65,0.1,0.95,0.19c1.24,0.3,2.41,0.94,3.4,1.89c0.97,0.94,1.86,1.91,2.72,2.93s1.67,2.09,2.42,3.19
		c0.29,0.41,0.56,0.84,0.82,1.23c7.61,12.08,8.82,28.1,5.43,44.91c-1.05,5.24-2.53,10.57-4.39,15.82c-0.44,1.33-0.93,2.63-1.43,3.95
		c-3.26,8.54-7.38,16.88-11.93,24.5L1626.25,1069.93z"/>
	<path class="st71" d="M1666.99,954.78c-0.13,0.13-0.28,0.22-0.44,0.29c-1.87,1.15-4.2,1.46-6.38,0.71
		c-0.18-0.05-0.36-0.13-0.53-0.2c-1.03-0.44-1.91-1.09-2.62-1.87c-0.98-1.06-1.61-2.38-1.86-3.77c-0.21-1.13-0.17-2.28,0.16-3.41
		c0.09-0.3,0.2-0.59,0.33-0.89c19.99-47.08-7.26-100.44-49.74-124.01c-5.05-2.79-10.32-5.16-15.73-7.05
		c-1.82-0.65-3.68-1.23-5.54-1.76c-3.67-1.05-5.95-4.63-5.44-8.33c0.04-0.36,0.12-0.69,0.2-1.03c1.15-4.03,5.35-6.37,9.38-5.22
		c1.29,0.36,2.56,0.74,3.83,1.18c11.44,3.68,22.25,9.25,32.08,16.3c10.63,7.58,20.12,16.87,28.03,27.33
		c0.47,0.64,0.95,1.27,1.42,1.91c6.93,9.52,12.54,19.93,16.52,30.89c0.39,1.03,0.74,2.06,1.09,3.1c7.68,23.17,8.02,48.5-2.03,72.33
		c-0.03,0.1-0.08,0.19-0.11,0.29C1669.03,952.9,1668.11,954,1666.99,954.78z"/>
	<path class="st74" d="M127.38,1080.5c42.86-37.91,67.74-59.34,107.41-78.71c2.41-1.18,3.41-4.08,2.23-6.49
		c-1.17-2.41-4.08-3.41-6.49-2.23c-40.45,19.75-65.88,41.51-109.59,80.16c-2.01,1.78-2.2,4.84-0.42,6.85
		C122.3,1082.09,125.37,1082.28,127.38,1080.5L127.38,1080.5z"/>
	<path class="st74" d="M200.58,1040.09c26.65-20.98,63.87-35.98,88.12-46.47c2.46-1.06,3.59-3.92,2.53-6.38
		c-1.06-2.46-3.92-3.59-6.38-2.53c-24.85,10.75-62.95,26.25-90.27,47.76c-2.1,1.66-2.47,4.71-0.81,6.81
		C195.42,1041.39,198.48,1041.75,200.58,1040.09L200.58,1040.09z"/>
	<path class="st74" d="M181.27,940.81c13.68-7.45,40.6-13.45,59.2-14.41c2.68-0.14,4.74-2.42,4.6-5.09
		c-0.14-2.68-2.42-4.74-5.09-4.6c-19.91,1.02-48.7,7.6-63.35,15.58c-2.35,1.28-3.22,4.23-1.94,6.59
		C175.96,941.23,178.92,942.1,181.27,940.81L181.27,940.81z"/>
	<path class="st74" d="M257.31,927.46c16.96-0.1,36.69,4.15,46.05,7.81c2.49,0.98,5.31-0.26,6.29-2.75
		c0.98-2.49-0.26-5.31-2.75-6.29c-10.09-3.95-31.35-8.58-49.64-8.47c-2.68,0.02-4.84,2.2-4.82,4.88
		C252.45,925.31,254.64,927.48,257.31,927.46L257.31,927.46z"/>
	<path class="st74" d="M182.78,873.02c29.4-3.59,71.59,5.66,90.16,12.29c2.52,0.9,5.3-0.42,6.2-2.94c0.9-2.52-0.42-5.3-2.94-6.2
		c-19.48-6.95-63.76-16.55-94.6-12.78c-2.66,0.32-4.55,2.75-4.23,5.4C177.7,871.45,180.12,873.34,182.78,873.02L182.78,873.02z"/>
	<path class="st74" d="M221.9,888.23c20,0.31,47.06,10.35,54.13,14.59c2.29,1.38,5.28,0.64,6.66-1.66c1.38-2.3,0.64-5.28-1.66-6.66
		c-7.7-4.63-37.17-15.64-58.98-15.98c-2.68-0.04-4.88,2.1-4.93,4.78C217.08,885.99,219.22,888.19,221.9,888.23L221.9,888.23z"/>
	<path class="st74" d="M323.74,1052.08c-64.16,25.28-109.9,62.09-139.63,97.4c-1.73,2.05-1.46,5.11,0.58,6.84
		c2.05,1.73,5.12,1.46,6.84-0.59c28.89-34.32,73.39-70.05,135.76-94.62c2.49-0.98,3.72-3.8,2.74-6.3
		C329.05,1052.33,326.23,1051.1,323.74,1052.08L323.74,1052.08z"/>
	<path class="st74" d="M269.68,1101.06c-19.59,9.69-84.66,65.53-98.66,85.18c-1.55,2.18-1.04,5.22,1.14,6.77
		c2.18,1.55,5.22,1.04,6.77-1.14c13.48-18.94,76.18-72.77,95.06-82.11c2.4-1.19,3.38-4.1,2.2-6.5
		C275,1100.86,272.08,1099.87,269.68,1101.06L269.68,1101.06z"/>
	<path class="st74" d="M332.33,1146.08c-19.7,18.43-42.24,48.98-56.07,72.04c-1.38,2.3-0.63,5.28,1.67,6.66
		c2.3,1.38,5.28,0.63,6.66-1.67c13.43-22.38,35.26-52.06,54.38-69.94c1.96-1.83,2.06-4.9,0.23-6.86
		C337.36,1144.36,334.28,1144.26,332.33,1146.08L332.33,1146.08z"/>
	<path class="st74" d="M382.05,1115.86c-23.92,27.9-35.95,35.16-58.24,65.11c-1.6,2.15-1.15,5.19,0.99,6.79
		c2.15,1.6,5.19,1.15,6.79-1c22.12-29.72,34.09-36.9,57.83-64.59c1.74-2.03,1.51-5.1-0.53-6.84
		C386.86,1113.58,383.79,1113.82,382.05,1115.86L382.05,1115.86z"/>
	<path class="st74" d="M444.74,1144.53c-11.85,32.36-52.18,90.37-75.09,115.82c-1.79,1.99-1.63,5.06,0.36,6.85
		c1.99,1.79,5.06,1.63,6.85-0.36c23.52-26.13,64.83-85.75,76.99-118.98c0.92-2.51-0.38-5.3-2.89-6.23
		C448.45,1140.72,445.66,1142.01,444.74,1144.53L444.74,1144.53z"/>
	<path class="st74" d="M453.2,1168.62c-7.26,23.42-37.97,62.5-51.31,77.97c-1.75,2.03-1.52,5.1,0.51,6.85
		c2.03,1.75,5.09,1.52,6.85-0.51c13.9-16.13,45.66-57.02,53.23-81.43c0.79-2.56-0.64-5.28-3.2-6.07
		C456.71,1164.63,453.99,1166.06,453.2,1168.62L453.2,1168.62z"/>
	<path class="st74" d="M525.61,936.22c-28.09,1.46-64.34,16.91-87.1,40.64c-15.68,16.35-24.99,36.56-21.7,58.73
		c0.39,2.65,2.87,4.48,5.52,4.09c2.65-0.39,4.48-2.86,4.09-5.51c-2.84-19.14,5.56-36.46,19.1-50.58
		c21.08-21.97,54.6-36.32,80.6-37.67c2.68-0.14,4.74-2.42,4.59-5.1C530.57,938.14,528.29,936.08,525.61,936.22L525.61,936.22z"/>
	<path class="st74" d="M486.54,969.37c-17,7.38-33.62,22.44-42.43,37.76c-6.41,11.13-8.61,22.47-5.04,31.47
		c0.99,2.49,3.81,3.71,6.3,2.72c2.49-0.99,3.71-3.81,2.73-6.3c-2.63-6.63-0.29-14.85,4.43-23.05c7.87-13.68,22.71-27.11,37.88-33.7
		c2.46-1.07,3.59-3.93,2.52-6.39C491.86,969.43,488.99,968.3,486.54,969.37L486.54,969.37z"/>
	<path class="st74" d="M527.74,976.46c-23.53,3.96-56.82,25.26-67.23,48.2c-1.11,2.44-0.03,5.32,2.41,6.42
		c2.44,1.11,5.32,0.03,6.43-2.41c9.26-20.42,39.07-39.12,60-42.64c2.64-0.44,4.43-2.95,3.98-5.59
		C532.88,977.8,530.38,976.02,527.74,976.46L527.74,976.46z"/>
	<path class="st74" d="M459.6,799.08c27.87-5.73,60.08,6.1,84.89,31.08c1.89,1.9,4.96,1.91,6.86,0.02c1.9-1.89,1.91-4.96,0.02-6.87
		c-27.35-27.52-63.02-40.06-93.73-33.74c-2.62,0.54-4.32,3.11-3.78,5.73C454.41,797.93,456.98,799.62,459.6,799.08L459.6,799.08z"/>
	<path class="st74" d="M477.37,811.84c19.07,0.69,36.05,8.98,48.57,22.32c1.83,1.95,4.91,2.05,6.86,0.22
		c1.95-1.83,2.05-4.91,0.22-6.86c-14.25-15.18-33.59-24.59-55.3-25.38c-2.68-0.1-4.93,2-5.03,4.67
		C472.6,809.49,474.69,811.75,477.37,811.84L477.37,811.84z"/>
	<path class="st74" d="M511.57,840.82c13.32,4.92,39.19,29.44,47.94,45.36c1.29,2.35,4.24,3.21,6.59,1.91
		c2.35-1.29,3.21-4.24,1.91-6.59c-9.65-17.55-38.4-44.36-53.09-49.79c-2.51-0.93-5.3,0.36-6.23,2.87
		C507.77,837.1,509.06,839.89,511.57,840.82L511.57,840.82z"/>
	<path class="st74" d="M423.22,856.48c-4.52-1.14-10.43-0.45-16.61,2.36c-12.76,5.79-27.13,20.7-31.02,43.62
		c-0.45,2.64,1.33,5.15,3.97,5.6c2.64,0.45,5.15-1.33,5.6-3.97c2.78-16.38,11.8-27.97,21.05-33.97c5.39-3.51,10.75-5.2,14.64-4.22
		c2.6,0.66,5.24-0.92,5.89-3.52C427.39,859.78,425.81,857.14,423.22,856.48L423.22,856.48z"/>
	<path class="st74" d="M411.8,884.31c-10.93,5.93-18.19,17.17-22.05,28.61c-3.89,11.51-4.27,23.14-2.17,29.52
		c0.84,2.55,3.58,3.93,6.13,3.09c2.54-0.84,3.93-3.58,3.09-6.13c-1.66-5.06-0.94-14.25,2.15-23.38c3.11-9.2,8.69-18.42,17.48-23.18
		c2.35-1.28,3.23-4.22,1.95-6.58C417.11,883.91,414.16,883.03,411.8,884.31L411.8,884.31z"/>
	<path class="st74" d="M384.78,851.3c-9.82,8.06-18.96,23.54-23.36,41.3c-4.39,17.72-4.06,37.61,4.51,54.42
		c1.22,2.39,4.14,3.33,6.53,2.12c2.39-1.22,3.33-4.14,2.12-6.53c-7.51-14.72-7.58-32.16-3.74-47.67
		c3.83-15.47,11.54-29.11,20.09-36.13c2.07-1.7,2.37-4.76,0.67-6.83C389.91,849.9,386.85,849.6,384.78,851.3L384.78,851.3z"/>
	<path class="st74" d="M622.17,1024.85c15.02,15.9,28.36,36.6,35.2,55.76c4.31,12.09,6.11,23.51,3.64,32.51
		c-0.71,2.58,0.82,5.26,3.4,5.96c2.59,0.71,5.26-0.82,5.96-3.4c2.91-10.6,1.22-24.1-3.86-38.34c-7.26-20.33-21.36-42.31-37.29-59.17
		c-1.84-1.95-4.91-2.03-6.86-0.19C620.42,1019.83,620.33,1022.9,622.17,1024.85L622.17,1024.85z"/>
	<path class="st74" d="M631.54,1064.43c6.41,8.82,11.54,20.74,13.28,31.1c1.02,6.04,1.03,11.5-1.11,15.12
		c-1.36,2.3-0.6,5.28,1.71,6.65c2.31,1.36,5.28,0.59,6.65-1.71c3.07-5.2,3.79-12.99,2.33-21.67c-1.97-11.72-7.75-25.21-15.01-35.2
		c-1.57-2.17-4.61-2.65-6.78-1.07C630.44,1059.23,629.96,1062.27,631.54,1064.43L631.54,1064.43z"/>
	<path class="st74" d="M530.6,1064.67c-13.43,28.32-14.28,63.8-1.23,89.58c1.21,2.39,4.13,3.35,6.52,2.14
		c2.39-1.21,3.35-4.13,2.14-6.52c-11.8-23.32-10.8-55.41,1.34-81.03c1.15-2.42,0.11-5.32-2.31-6.47
		C534.64,1061.22,531.74,1062.25,530.6,1064.67L530.6,1064.67z"/>
	<path class="st74" d="M536.22,1104.34c-2.22,13.89,2.27,37.28,9.11,46.34c1.61,2.14,4.66,2.56,6.8,0.94
		c2.14-1.61,2.56-4.66,0.95-6.8c-5.74-7.6-9.14-27.3-7.27-38.95c0.43-2.65-1.38-5.14-4.03-5.56
		C539.14,1099.89,536.65,1101.69,536.22,1104.34L536.22,1104.34z"/>
	<path class="st74" d="M628.52,839.25c43.93,19.59,83.91,59.8,102.71,115.37c0.86,2.54,3.62,3.9,6.15,3.04
		c2.54-0.86,3.9-3.62,3.04-6.15c-19.75-58.37-61.8-100.55-107.95-121.12c-2.45-1.09-5.32,0.01-6.41,2.45
		C624.98,835.29,626.08,838.16,628.52,839.25L628.52,839.25z"/>
	<path class="st74" d="M633.57,870.36c33.92,14.91,56.7,46.33,70.07,74.97c1.13,2.43,4.02,3.48,6.45,2.35
		c2.43-1.13,3.48-4.02,2.35-6.45c-14.26-30.55-38.77-63.85-74.96-79.75c-2.45-1.08-5.32,0.04-6.4,2.49
		C630,866.42,631.11,869.29,633.57,870.36L633.57,870.36z"/>
	<path class="st74" d="M637.72,896.98c36.64,28.16,79.56,92.61,89.24,125.01c0.77,2.57,3.47,4.03,6.04,3.26
		c2.57-0.77,4.03-3.47,3.26-6.04c-10.06-33.65-54.56-100.66-92.63-129.92c-2.13-1.63-5.17-1.23-6.81,0.89
		C635.2,892.3,635.6,895.35,637.72,896.98L637.72,896.98z"/>
	<path class="st74" d="M790.55,831.35c58.7,17.26,97.91,72.26,114.79,117.36c0.94,2.51,3.74,3.78,6.25,2.84
		c2.51-0.94,3.78-3.74,2.84-6.25c-17.77-47.48-59.35-105.1-121.15-123.27c-2.57-0.76-5.27,0.72-6.02,3.29
		C786.51,827.9,787.98,830.6,790.55,831.35L790.55,831.35z"/>
	<path class="st74" d="M799.5,857.95c11.77,3.4,24.35,14.02,35.97,26.75c18.05,19.77,33.6,44.84,39.56,58.56
		c1.06,2.46,3.93,3.59,6.38,2.52c2.46-1.07,3.59-3.93,2.52-6.38c-6.23-14.35-22.43-40.58-41.29-61.24
		c-12.98-14.22-27.3-25.73-40.45-29.53c-2.57-0.74-5.27,0.74-6.01,3.32C795.44,854.52,796.92,857.21,799.5,857.95L799.5,857.95z"/>
	<path class="st74" d="M733.85,836.46c22.49,6.01,47.02,24.72,69.99,48.36c35.05,36.09,66.28,83.83,80.47,117.7
		c1.04,2.47,3.88,3.64,6.35,2.6c2.47-1.03,3.64-3.88,2.6-6.35c-14.55-34.73-46.52-83.71-82.46-120.71
		c-24.36-25.08-50.6-44.6-74.45-50.98c-2.59-0.69-5.25,0.85-5.94,3.43C729.72,833.1,731.26,835.76,733.85,836.46L733.85,836.46z"/>
	<path class="st74" d="M965.42,822.82c51.15,12.63,111.33,56.66,125.54,118.54c0.6,2.61,3.21,4.24,5.82,3.64
		c2.61-0.6,4.24-3.21,3.64-5.82c-15.05-65.53-78.51-112.42-132.67-125.79c-2.6-0.64-5.23,0.95-5.87,3.55
		C961.23,819.54,962.82,822.18,965.42,822.82L965.42,822.82z"/>
	<path class="st74" d="M984.57,845.15c34.86,16.64,60.9,45.06,72.18,78.35c0.86,2.54,3.62,3.9,6.16,3.04
		c2.54-0.86,3.9-3.62,3.04-6.15c-12.09-35.64-39.87-66.17-77.2-83.99c-2.42-1.15-5.32-0.13-6.47,2.29
		C981.13,841.1,982.16,844,984.57,845.15L984.57,845.15z"/>
	<path class="st74" d="M944.75,852.4c12.04,3.09,27.49,13.71,40.79,26.75c13.26,13.01,24.43,28.46,27.5,41.74
		c0.6,2.61,3.21,4.24,5.82,3.64c2.61-0.6,4.24-3.21,3.64-5.82c-3.39-14.72-15.46-32.07-30.16-46.49
		c-14.66-14.39-31.89-25.82-45.17-29.23c-2.59-0.67-5.24,0.9-5.91,3.49C940.59,849.09,942.16,851.74,944.75,852.4L944.75,852.4z"/>
	<path class="st74" d="M1029.68,910.04c19.08,21.73,35.17,65.81,34.78,85.56c-0.05,2.68,2.08,4.9,4.76,4.95
		c2.68,0.05,4.9-2.08,4.95-4.75c0.42-21.26-16.66-68.78-37.19-92.16c-1.77-2.01-4.84-2.21-6.85-0.45
		C1028.11,904.96,1027.91,908.03,1029.68,910.04L1029.68,910.04z"/>
	<path class="st74" d="M1155.26,839.52c37.43,10.72,73.43,40.72,95.93,75.56c14.85,22.99,23.86,48.11,23.23,71.22
		c-0.07,2.68,2.04,4.91,4.72,4.98c2.68,0.07,4.91-2.04,4.98-4.72c0.68-24.89-8.78-52-24.78-76.75
		c-23.76-36.78-61.89-68.31-101.41-79.62c-2.58-0.74-5.27,0.76-6,3.33C1151.2,836.09,1152.69,838.78,1155.26,839.52L1155.26,839.52z
		"/>
	<path class="st74" d="M1176.38,865.6c27.39,15.25,66.09,59.62,73.99,87.55c0.73,2.58,3.42,4.08,5.99,3.35
		c2.58-0.73,4.08-3.41,3.35-5.99c-8.42-29.74-49.44-77.14-78.61-93.38c-2.34-1.3-5.3-0.46-6.6,1.88
		C1173.19,861.33,1174.04,864.29,1176.38,865.6L1176.38,865.6z"/>
	<path class="st74" d="M1130.19,857.13c22.44,14.17,46.14,40.36,61.4,64.28c9.76,15.29,16.19,29.52,15.94,38.86
		c-0.07,2.68,2.05,4.91,4.72,4.98c2.68,0.07,4.91-2.04,4.98-4.72c0.22-8.07-3.51-19.45-10.23-32.03
		c-14.87-27.85-44.18-62.25-71.63-79.57c-2.26-1.43-5.27-0.75-6.69,1.51C1127.25,852.7,1127.93,855.7,1130.19,857.13L1130.19,857.13
		z"/>
	<path class="st74" d="M1214.85,843.8c10.04,5.48,22.58,18.01,31.76,29.79c5.9,7.56,10.45,14.76,11.71,19.54
		c0.68,2.59,3.34,4.14,5.93,3.46c2.59-0.68,4.14-3.34,3.46-5.93c-1.47-5.6-6.54-14.19-13.44-23.04
		c-10.02-12.84-23.82-26.37-34.77-32.34c-2.35-1.28-5.3-0.42-6.58,1.93C1211.63,839.57,1212.5,842.52,1214.85,843.8L1214.85,843.8z"
		/>
	<path class="st74" d="M1325.45,865.26c20.22,9.95,35.54,29.97,46.01,50.2c10.52,20.33,16.16,40.93,16.51,52.16
		c0.08,2.68,2.33,4.78,5,4.7c2.68-0.08,4.78-2.32,4.7-5c-0.38-12.11-6.24-34.4-17.59-56.32c-11.4-22.02-28.33-43.61-50.34-54.44
		c-2.4-1.18-5.31-0.19-6.5,2.21C1322.06,861.16,1323.05,864.07,1325.45,865.26L1325.45,865.26z"/>
	<path class="st74" d="M1342.94,897.66c15.85,16.25,24.41,39.66,29.2,65.04c0.5,2.63,3.04,4.37,5.67,3.87
		c2.63-0.5,4.37-3.04,3.87-5.67c-5.17-27.38-14.69-52.5-31.79-70.02c-1.87-1.91-4.94-1.95-6.86-0.08S1341.07,895.74,1342.94,897.66
		L1342.94,897.66z"/>
	<path class="st74" d="M1318.93,891.1c8.69,9.22,19.01,31.13,25.5,51.06c4.22,12.95,6.89,25.04,6.02,32.14
		c-0.33,2.66,1.57,5.08,4.23,5.41c2.66,0.33,5.08-1.57,5.41-4.23c0.98-8-1.66-21.71-6.42-36.32c-6.97-21.41-18.33-44.82-27.67-54.72
		c-1.84-1.95-4.91-2.04-6.86-0.2C1317.18,886.08,1317.09,889.15,1318.93,891.1L1318.93,891.1z"/>
	<path class="st74" d="M1552.99,835.11c-9.75-20.81-33.69-35.3-59.09-40.83c-25.56-5.57-52.34-1.93-67.28,12.16
		c-1.95,1.84-2.04,4.91-0.2,6.86c1.84,1.95,4.91,2.04,6.86,0.2c12.97-12.23,36.36-14.57,58.56-9.73
		c22.36,4.87,43.78,17.14,52.36,35.47c1.14,2.42,4.03,3.47,6.45,2.34C1553.08,840.43,1554.12,837.54,1552.99,835.11L1552.99,835.11z
		"/>
	<path class="st74" d="M1528.51,829.52c-8.88-8.02-24.26-14.07-40.51-16.67c-16.19-2.6-33.18-1.78-45.29,3.33
		c-2.47,1.04-3.63,3.89-2.58,6.36c1.04,2.47,3.89,3.63,6.36,2.58c10.69-4.51,25.69-4.98,39.98-2.69
		c14.21,2.28,27.77,7.28,35.54,14.29c1.99,1.8,5.06,1.64,6.85-0.35C1530.66,834.39,1530.5,831.32,1528.51,829.52L1528.51,829.52z"/>
	<path class="st74" d="M1536.92,790.79c-10.43-11.28-39.45-21.19-61.95-14.84c-2.58,0.73-4.08,3.41-3.36,5.99
		c0.73,2.58,3.41,4.08,5.99,3.36c18.93-5.34,43.42,2.6,52.19,12.09c1.82,1.97,4.89,2.09,6.86,0.27
		C1538.61,795.83,1538.74,792.76,1536.92,790.79L1536.92,790.79z"/>
	<path class="st74" d="M1520.82,858.75c-11.72-9.94-41.53-17.4-67.88-16.94c-18.22,0.32-34.68,4.59-42.96,13.36
		c-1.84,1.95-1.75,5.02,0.2,6.86c1.95,1.84,5.02,1.75,6.86-0.2c6.91-7.32,20.88-10.05,36.08-10.32
		c23.78-0.42,50.84,5.66,61.43,14.63c2.04,1.73,5.11,1.48,6.84-0.56C1523.12,863.55,1522.87,860.48,1520.82,858.75L1520.82,858.75z"
		/>
	<path class="st74" d="M1597.77,858.38c27.92,8.24,37.93,36.67,40.96,58.22c0.37,2.65,2.83,4.5,5.48,4.13
		c2.65-0.37,4.5-2.83,4.13-5.48c-3.48-24.71-15.81-56.72-47.83-66.17c-2.57-0.76-5.27,0.71-6.03,3.28
		C1593.73,854.92,1595.2,857.62,1597.77,858.38L1597.77,858.38z"/>
	<path class="st74" d="M1598.95,882.92c10.52,7.64,20.33,26.23,21.64,33.12c0.5,2.63,3.05,4.36,5.68,3.86
		c2.63-0.5,4.36-3.05,3.86-5.68c-1.55-8.13-13.05-30.14-25.47-39.16c-2.17-1.58-5.2-1.09-6.78,1.07
		C1596.3,878.31,1596.78,881.34,1598.95,882.92L1598.95,882.92z"/>
	<path class="st74" d="M1632.46,998.21c-0.65,35-26.2,60.01-47.29,62.84c-2.66,0.36-4.52,2.8-4.16,5.46
		c0.36,2.66,2.8,4.52,5.46,4.16c24.46-3.29,54.94-31.68,55.7-72.29c0.05-2.68-2.08-4.89-4.76-4.94
		C1634.72,993.4,1632.51,995.53,1632.46,998.21L1632.46,998.21z"/>
	<path class="st74" d="M1607.81,1004.3c-1.97,9.44-11,17.12-21.18,22.03c-10.33,4.97-22.07,7.16-29.9,4.38
		c-2.52-0.9-5.3,0.42-6.2,2.95c-0.9,2.52,0.42,5.3,2.94,6.2c9.75,3.47,24.48,1.43,37.36-4.78c13.03-6.27,23.94-16.7,26.47-28.79
		c0.55-2.62-1.14-5.19-3.76-5.74C1610.92,1000,1608.35,1001.68,1607.81,1004.3L1607.81,1004.3z"/>
	<path class="st74" d="M1584.24,1046.36c-8.9,5.35-21.03,6.53-29.46,5.04c-2.64-0.46-5.15,1.3-5.62,3.93
		c-0.47,2.64,1.3,5.16,3.94,5.62c10.34,1.83,25.21,0.29,36.14-6.28c2.29-1.38,3.04-4.36,1.66-6.66
		C1589.53,1045.72,1586.54,1044.98,1584.24,1046.36L1584.24,1046.36z"/>
	<path class="st74" d="M1518.03,1079.54c-12.63,5.33-31.53,4.3-49.57-1.85c-18.19-6.19-35.59-17.66-44.87-33.81
		c-1.33-2.32-4.3-3.13-6.62-1.79c-2.32,1.34-3.13,4.3-1.79,6.63c10.4,18.12,29.76,31.22,50.16,38.17c20.55,7,42.08,7.68,56.48,1.6
		c2.47-1.04,3.63-3.89,2.58-6.36C1523.35,1079.66,1520.5,1078.5,1518.03,1079.54L1518.03,1079.54z"/>
	<path class="st74" d="M1497.95,1061.92c-5.95,2.31-13.54,2-21.32,0.12c-12.34-2.98-25.12-10.03-33.06-18.56
		c-1.82-1.96-4.9-2.07-6.86-0.24c-1.96,1.82-2.07,4.9-0.25,6.86c9.11,9.79,23.73,17.96,37.89,21.38c9.89,2.39,19.55,2.44,27.11-0.51
		c2.5-0.97,3.73-3.79,2.77-6.28C1503.27,1062.19,1500.45,1060.95,1497.95,1061.92L1497.95,1061.92z"/>
	<path class="st74" d="M1489.93,1035.67c-12.88,3.63-35.29-1.89-52.85-18.21c-1.96-1.82-5.04-1.71-6.86,0.25
		c-1.82,1.96-1.71,5.04,0.25,6.86c20.54,19.08,47.02,24.68,62.09,20.44c2.58-0.73,4.08-3.41,3.36-5.99
		C1495.19,1036.44,1492.51,1034.94,1489.93,1035.67L1489.93,1035.67z"/>
	<path class="st74" d="M1810.92,745.99c-30.98,1.97-73.16,19.81-100.57,35.48c-2.33,1.33-3.13,4.3-1.81,6.62
		c1.33,2.33,4.3,3.13,6.62,1.81c26.29-15.03,66.66-32.33,96.37-34.22c2.67-0.17,4.71-2.48,4.53-5.15
		C1815.9,747.85,1813.59,745.82,1810.92,745.99L1810.92,745.99z"/>
	<path class="st74" d="M1770.22,772.83c-16.2,3.83-58.3,19.69-84.59,33.43c-2.37,1.24-3.29,4.18-2.05,6.55
		c1.24,2.37,4.18,3.29,6.55,2.05c25.59-13.37,66.55-28.86,82.32-32.58c2.61-0.62,4.22-3.23,3.61-5.84
		C1775.44,773.83,1772.83,772.22,1770.22,772.83L1770.22,772.83z"/>
	<path class="st74" d="M1806.99,807.44c-16.52,3.6-40.21,8.54-61.81,15.62c-2.55,0.83-3.94,3.58-3.1,6.12
		c0.84,2.54,3.58,3.93,6.12,3.1c21.27-6.97,44.6-11.81,60.86-15.36c2.62-0.57,4.28-3.16,3.71-5.78
		C1812.2,808.53,1809.61,806.87,1806.99,807.44L1806.99,807.44z"/>
	<path class="st74" d="M1759.1,832.27c-9.63,3.49-37.29,11.67-50.3,14.42c-2.62,0.55-4.3,3.13-3.75,5.75
		c0.55,2.62,3.13,4.3,5.75,3.75c13.34-2.81,41.73-11.21,51.6-14.79c2.52-0.91,3.82-3.7,2.91-6.22
		C1764.4,832.66,1761.62,831.36,1759.1,832.27L1759.1,832.27z"/>
	<path class="st74" d="M1860.94,846.94c-20.64,5.71-49.33,14.82-69.96,20.55c-2.58,0.72-4.09,3.4-3.37,5.98
		c0.72,2.58,3.4,4.09,5.97,3.38c20.63-5.73,49.31-14.84,69.95-20.55c2.58-0.71,4.1-3.39,3.38-5.97
		C1866.19,847.74,1863.52,846.23,1860.94,846.94L1860.94,846.94z"/>
	<path class="st74" d="M1814.3,874.4c-16.74,5.18-56.38,14.6-70.77,15.99c-2.66,0.26-4.62,2.63-4.36,5.3
		c0.26,2.67,2.63,4.62,5.3,4.36c14.78-1.43,55.5-11.06,72.7-16.38c2.56-0.79,3.99-3.51,3.2-6.07
		C1819.58,875.04,1816.86,873.61,1814.3,874.4L1814.3,874.4z"/>
	<path class="st74" d="M1773.21,863.56c-14.55,5.59-44.88,12.42-60.9,15.85c-2.62,0.56-4.29,3.14-3.73,5.76
		c0.56,2.62,3.14,4.29,5.76,3.73c16.41-3.52,47.45-10.56,62.35-16.28c2.5-0.96,3.75-3.77,2.79-6.27
		C1778.52,863.85,1775.71,862.6,1773.21,863.56L1773.21,863.56z"/>
	<path class="st74" d="M1854.38,909.39c-16.6-1.46-48.02,5.38-65.51,7.04c-2.67,0.25-4.63,2.62-4.38,5.29
		c0.25,2.67,2.62,4.63,5.29,4.37c17.03-1.61,47.59-8.45,63.75-7.03c2.67,0.23,5.02-1.74,5.26-4.41
		C1859.02,911.98,1857.05,909.62,1854.38,909.39L1854.38,909.39z"/>
	<path class="st74" d="M1809.09,925.33c-21.54,2.65-61.28,7.43-77.69,8.47c-2.67,0.17-4.71,2.48-4.53,5.15
		c0.17,2.67,2.48,4.71,5.15,4.53c16.53-1.05,56.56-5.85,78.26-8.53c2.66-0.33,4.55-2.75,4.22-5.41
		C1814.17,926.89,1811.75,925,1809.09,925.33L1809.09,925.33z"/>
	<path class="st74" d="M1826.48,956.83c-19.53-2.22-50.57-0.25-70.12,1.21c-2.67,0.2-4.68,2.53-4.48,5.2
		c0.2,2.67,2.53,4.68,5.2,4.48c19.05-1.43,49.27-3.41,68.3-1.25c2.66,0.3,5.07-1.61,5.37-4.27
		C1831.05,959.54,1829.14,957.13,1826.48,956.83L1826.48,956.83z"/>
	<path class="st74" d="M1810.68,1017.87c-18.28-8.26-40.96-16.1-67.34-20.32c-2.64-0.42-5.13,1.38-5.56,4.03
		c-0.42,2.64,1.38,5.14,4.03,5.56c25.41,4.07,47.26,11.62,64.87,19.58c2.44,1.1,5.32,0.02,6.42-2.42
		C1814.2,1021.85,1813.12,1018.98,1810.68,1017.87L1810.68,1017.87z"/>
	<path class="st74" d="M1767.34,1018.72c-13.8-6.87-48.59-14.23-69.18-16.09c-2.67-0.24-5.03,1.73-5.27,4.4
		c-0.24,2.67,1.73,5.03,4.4,5.27c19.54,1.76,52.62,8.59,65.72,15.11c2.4,1.19,5.31,0.22,6.51-2.18
		C1770.72,1022.83,1769.74,1019.91,1767.34,1018.72L1767.34,1018.72z"/>
	<path class="st74" d="M1733.59,1062.75c25.76,11.66,42.2,21.82,58.91,37.36c1.96,1.82,5.03,1.71,6.86-0.25
		c1.82-1.96,1.71-5.03-0.25-6.86c-17.45-16.24-34.6-26.91-61.52-39.1c-2.44-1.1-5.32-0.02-6.42,2.42
		C1730.06,1058.77,1731.14,1061.65,1733.59,1062.75L1733.59,1062.75z"/>
</g>
</svg>
