<?xml version="1.0" encoding="utf-8"?>
<!-- Generator: Adobe Illustrator 26.4.1, SVG Export Plug-In . SVG Version: 6.00 Build 0)  -->
<svg version="1.1" id="Layer_1" xmlns="http://www.w3.org/2000/svg" xmlns:xlink="http://www.w3.org/1999/xlink" x="0px" y="0px"
	 viewBox="0 0 2000 2000" style="enable-background:new 0 0 2000 2000;" xml:space="preserve">
<style type="text/css">
	.st0{fill-rule:evenodd;clip-rule:evenodd;fill:#F49E23;}
	.st1{fill-rule:evenodd;clip-rule:evenodd;fill:#D14D36;}
	.st2{fill-rule:evenodd;clip-rule:evenodd;fill:#FDF0D3;}
	.st3{fill-rule:evenodd;clip-rule:evenodd;fill:#0C427E;}
	.st4{fill-rule:evenodd;clip-rule:evenodd;fill:#B45A25;}
	.st5{fill-rule:evenodd;clip-rule:evenodd;fill:#EC8C28;}
	.st6{fill-rule:evenodd;clip-rule:evenodd;fill:#EE9726;}
	.st7{fill-rule:evenodd;clip-rule:evenodd;fill:#302574;}
	.st8{fill-rule:evenodd;clip-rule:evenodd;fill:#F3B953;}
	.st9{fill-rule:evenodd;clip-rule:evenodd;fill:#3D648F;}
	.st10{fill-rule:evenodd;clip-rule:evenodd;fill:#145468;}
	.st11{fill-rule:evenodd;clip-rule:evenodd;fill:#3B7A7A;}
	.st12{fill-rule:evenodd;clip-rule:evenodd;fill:#098B8D;}
	.st13{fill-rule:evenodd;clip-rule:evenodd;fill:#689595;}
	.st14{fill-rule:evenodd;clip-rule:evenodd;fill:#679595;}
	.st15{fill-rule:evenodd;clip-rule:evenodd;fill:#CEE4E4;}
	
		.st16{fill-rule:evenodd;clip-rule:evenodd;fill:#145468;stroke:#CEE4E4;stroke-width:5;stroke-linecap:round;stroke-linejoin:round;stroke-miterlimit:10;}
	.st17{fill-rule:evenodd;clip-rule:evenodd;fill:#043A60;}
	.st18{fill-rule:evenodd;clip-rule:evenodd;fill:#FD9A65;}
	.st19{fill-rule:evenodd;clip-rule:evenodd;fill:#18658D;}
	.st20{fill-rule:evenodd;clip-rule:evenodd;fill:#9FCDE5;}
	.st21{fill-rule:evenodd;clip-rule:evenodd;fill:#56A8D3;}
	.st22{fill-rule:evenodd;clip-rule:evenodd;fill:#276383;}
	.st23{fill-rule:evenodd;clip-rule:evenodd;fill:#E0F0F8;}
	.st24{fill-rule:evenodd;clip-rule:evenodd;fill:#A51E1C;}
	.st25{fill-rule:evenodd;clip-rule:evenodd;fill:#CB442D;}
	.st26{fill-rule:evenodd;clip-rule:evenodd;fill:#DC5A44;}
	.st27{fill-rule:evenodd;clip-rule:evenodd;fill:#F7BD54;}
	.st28{fill-rule:evenodd;clip-rule:evenodd;fill:#E46B37;}
	.st29{fill-rule:evenodd;clip-rule:evenodd;fill:#B67227;}
	.st30{fill-rule:evenodd;clip-rule:evenodd;fill:#D78A35;}
	.st31{fill-rule:evenodd;clip-rule:evenodd;fill:#A4331F;}
	.st32{fill-rule:evenodd;clip-rule:evenodd;fill:#F2A550;}
	.st33{fill-rule:evenodd;clip-rule:evenodd;fill:#F9E9D6;}
	.st34{fill-rule:evenodd;clip-rule:evenodd;fill:#844013;}
	.st35{fill-rule:evenodd;clip-rule:evenodd;fill:#A04E18;}
	.st36{fill-rule:evenodd;clip-rule:evenodd;fill:#F8B872;}
	.st37{fill-rule:evenodd;clip-rule:evenodd;fill:#FFC689;}
	.st38{fill-rule:evenodd;clip-rule:evenodd;fill:#B6844D;}
	.st39{fill-rule:evenodd;clip-rule:evenodd;fill:#CA5320;}
	.st40{fill-rule:evenodd;clip-rule:evenodd;fill:#D76332;}
	.st41{fill-rule:evenodd;clip-rule:evenodd;fill:#812F0C;}
	.st42{fill-rule:evenodd;clip-rule:evenodd;fill:#8A460F;}
	.st43{fill-rule:evenodd;clip-rule:evenodd;fill:#B46914;}
	.st44{fill-rule:evenodd;clip-rule:evenodd;fill:#B54515;}
	.st45{fill-rule:evenodd;clip-rule:evenodd;fill:#FFCD71;}
	.st46{fill-rule:evenodd;clip-rule:evenodd;fill:#95B41D;}
	.st47{fill-rule:evenodd;clip-rule:evenodd;fill:#A8C731;}
	.st48{fill-rule:evenodd;clip-rule:evenodd;fill:#85A214;}
	.st49{fill-rule:evenodd;clip-rule:evenodd;fill:#C6EF28;}
	.st50{fill-rule:evenodd;clip-rule:evenodd;fill:#ED982B;}
	.st51{fill-rule:evenodd;clip-rule:evenodd;fill:#FCCF7C;}
	.st52{fill-rule:evenodd;clip-rule:evenodd;fill:#FFE8BC;}
	.st53{fill-rule:evenodd;clip-rule:evenodd;fill:#ED6961;}
	.st54{fill-rule:evenodd;clip-rule:evenodd;fill:#696E1E;}
	.st55{fill-rule:evenodd;clip-rule:evenodd;fill:#9CA42A;}
	.st56{fill-rule:evenodd;clip-rule:evenodd;fill:#7F8615;}
	.st57{fill-rule:evenodd;clip-rule:evenodd;fill:#FFEECF;}
	.st58{fill-rule:evenodd;clip-rule:evenodd;fill:#77786D;}
	.st59{fill-rule:evenodd;clip-rule:evenodd;fill:#D3D5C6;}
	.st60{fill-rule:evenodd;clip-rule:evenodd;fill:#7C7A7A;}
	.st61{fill-rule:evenodd;clip-rule:evenodd;fill:#DBDCD9;}
	.st62{fill-rule:evenodd;clip-rule:evenodd;fill:#CA372D;}
	.st63{fill-rule:evenodd;clip-rule:evenodd;fill:#FE7D75;}
	.st64{fill-rule:evenodd;clip-rule:evenodd;fill:#B0B0B0;}
	.st65{fill-rule:evenodd;clip-rule:evenodd;fill:#888787;}
	.st66{fill-rule:evenodd;clip-rule:evenodd;fill:#6E6E6E;}
	.st67{fill-rule:evenodd;clip-rule:evenodd;fill:#757575;}
	.st68{fill-rule:evenodd;clip-rule:evenodd;fill:#60341E;}
	.st69{fill-rule:evenodd;clip-rule:evenodd;fill:#B0451B;}
	.st70{fill-rule:evenodd;clip-rule:evenodd;fill:#8A4727;}
	.st71{fill-rule:evenodd;clip-rule:evenodd;fill:#FABB64;}
	.st72{fill-rule:evenodd;clip-rule:evenodd;fill:#3E88AF;}
	.st73{fill-rule:evenodd;clip-rule:evenodd;fill:#5BA0C5;}
	.st74{fill-rule:evenodd;clip-rule:evenodd;fill:#FFF1DE;}
	.st75{fill-rule:evenodd;clip-rule:evenodd;fill:#F8B89B;}
	.st76{fill-rule:evenodd;clip-rule:evenodd;fill:#E98A5F;}
	.st77{fill-rule:evenodd;clip-rule:evenodd;fill:#FFCAB3;}
	.st78{fill-rule:evenodd;clip-rule:evenodd;fill:#F9A580;}
	.st79{fill-rule:evenodd;clip-rule:evenodd;fill:#FFDFD2;}
	.st80{fill-rule:evenodd;clip-rule:evenodd;fill:#E2A85C;}
	.st81{fill-rule:evenodd;clip-rule:evenodd;fill:#C68446;}
	.st82{fill-rule:evenodd;clip-rule:evenodd;fill:#F2BC75;}
	.st83{fill-rule:evenodd;clip-rule:evenodd;fill:#F2BC76;}
	.st84{fill-rule:evenodd;clip-rule:evenodd;fill:#FFD69F;}
	.st85{fill-rule:evenodd;clip-rule:evenodd;fill:#E7624B;}
	.st86{fill-rule:evenodd;clip-rule:evenodd;fill:#F6E8DB;}
	.st87{fill-rule:evenodd;clip-rule:evenodd;fill:#FC9EB6;}
	.st88{fill-rule:evenodd;clip-rule:evenodd;fill:#FFFFFF;}
</style>
<g>
	<path class="st25" d="M1319.77,1250.12l-71.89-43.24c0,0-275.74,113.82-352.66,168.77c-155.39,110.99-171.17,254.44-116.2,346.25
		c61.31,102.38,179.65,145.7,278.93,140.98c159.14-7.56,225.97-74.22,264.02-167.08c26.06-63.6,36.85-145.48-39.57-219.35
		c-38.01-36.74-122.47-48.76-122.47-48.76s32.73-32.24,73.84-46.71c56.44-19.86,77.34-20.79,77.34-20.79L1319.77,1250.12
		L1319.77,1250.12z"/>
	<path class="st25" d="M732.69,1588.81c-13.05-8.39-55.27-8.16-55.64,20.81c-0.41,32.34,42.5,29.41,59.58,13.5L732.69,1588.81
		L732.69,1588.81z"/>
	<path class="st25" d="M1324.99,1588.7c12.34-9.4,54.44-12.55,57.12,16.3c2.99,32.2-40.01,32.71-58.31,18.21L1324.99,1588.7
		L1324.99,1588.7z"/>
	<path class="st85" d="M1319.74,1250.13l-84.18-59.64c0,0-136.06,24.85-211.86,48.47c-172.06,53.62-268.4,125.82-299.97,243.92
		c-32.19,120.42,22.89,224.56,55.74,268.17c47.71,63.35,165.63,100.21,153.26,91.95c-91.77-61.27-142.22-172.7-86.26-325.46
		c44.21-120.68,189.06-176.42,352.63-232.61C1250.42,1267.31,1319.74,1250.13,1319.74,1250.13L1319.74,1250.13z"/>
	<path class="st33" d="M1098.98,1500.53c72.23,0,130.87,58.64,130.87,130.87c0,72.23-58.64,130.87-130.87,130.87
		c-72.23,0-130.87-58.64-130.87-130.87C968.11,1559.17,1026.76,1500.53,1098.98,1500.53L1098.98,1500.53z"/>
	<path class="st85" d="M1098.98,1551.96c43.84,0,79.44,35.59,79.44,79.43c0,43.84-35.59,79.43-79.44,79.43
		c-43.84,0-79.43-35.59-79.43-79.43C1019.55,1587.56,1055.15,1551.96,1098.98,1551.96L1098.98,1551.96z"/>
	<path class="st33" d="M1150.22,1296.87c-66.95,19.21-144.17,52.36-204.4,96.24c-40.68,29.64-73.6,64.2-90.78,102.58
		c-1.29,2.89,0,6.29,2.89,7.58c2.89,1.29,6.29,0,7.58-2.89c16.44-36.73,48.14-69.64,87.07-98c59.17-43.11,135.04-75.62,200.81-94.49
		c3.05-0.88,4.81-4.06,3.93-7.1C1156.45,1297.75,1153.27,1295.99,1150.22,1296.87L1150.22,1296.87z"/>
	<path class="st33" d="M927.19,1464.89c53.37-73.71,114.36-97.53,199.65-120.69c3.06-0.83,4.86-3.98,4.04-7.04
		c-0.83-3.06-3.99-4.86-7.05-4.03c-88.08,23.92-150.82,48.91-205.94,125.04c-1.86,2.56-1.28,6.16,1.28,8.01
		S925.34,1467.46,927.19,1464.89L927.19,1464.89z"/>
	<path class="st33" d="M862.98,1611.48c-26.1,106.82,48.6,208.88,160.82,230.75c3.11,0.6,6.12-1.43,6.73-4.54
		c0.6-3.11-1.43-6.12-4.54-6.73c-105.59-20.58-176.42-116.24-151.86-216.76c0.75-3.08-1.14-6.19-4.22-6.94
		C866.84,1606.51,863.73,1608.4,862.98,1611.48L862.98,1611.48z"/>
	<path class="st33" d="M900.61,1718.29c17.97,48.04,74.48,89.9,124.11,93.94c3.16,0.26,5.93-2.1,6.18-5.26
		c0.26-3.16-2.1-5.93-5.26-6.19c-45.7-3.71-97.74-42.27-114.28-86.52c-1.11-2.97-4.42-4.48-7.39-3.36
		C901.01,1712.01,899.5,1715.32,900.61,1718.29L900.61,1718.29z"/>
	<path class="st33" d="M1235.54,1501.57c34.6,21.97,48.81,58.18,49.94,95.98c1.15,38.51-11.2,78.7-29.98,107.86
		c-1.72,2.66-0.95,6.22,1.72,7.93c2.66,1.72,6.22,0.95,7.93-1.72c19.92-30.93,33.02-73.58,31.8-114.42
		c-1.24-41.55-17.23-81.18-55.26-105.33c-2.68-1.7-6.22-0.91-7.92,1.77C1232.08,1496.32,1232.87,1499.87,1235.54,1501.57
		L1235.54,1501.57z"/>
	<path class="st33" d="M1284.46,1523.01c28.69,43.34,29.13,114.74,16.07,148.92c-1.13,2.96,0.35,6.28,3.31,7.41
		c2.96,1.13,6.28-0.35,7.41-3.31c13.98-36.58,13.48-112.98-17.22-159.36c-1.75-2.64-5.31-3.37-7.95-1.62
		C1283.44,1516.81,1282.71,1520.37,1284.46,1523.01L1284.46,1523.01z"/>
	<path class="st33" d="M791.93,1407.11c16.47-34.8,46.81-60.28,87.4-82.2c2.79-1.51,3.83-4.99,2.32-7.78
		c-1.51-2.79-4.99-3.83-7.78-2.32c-43,23.23-74.87,50.53-92.32,87.39c-1.35,2.86-0.13,6.29,2.73,7.64
		C787.15,1411.2,790.57,1409.98,791.93,1407.11L791.93,1407.11z"/>
	<path class="st33" d="M829.82,1384.16c29.48-32.85,78.49-53.3,114.38-64.35c3.03-0.93,4.73-4.15,3.8-7.17
		c-0.93-3.02-4.15-4.73-7.17-3.8c-37.56,11.56-88.69,33.27-119.55,67.65c-2.11,2.36-1.92,5.99,0.44,8.1
		C824.08,1386.72,827.71,1386.52,829.82,1384.16L829.82,1384.16z"/>
	<path class="st33" d="M700.99,1594.1c8.96,0,16.23,7.28,16.23,16.23c0,8.96-7.28,16.24-16.23,16.24c-8.96,0-16.24-7.28-16.24-16.24
		C684.75,1601.37,692.03,1594.1,700.99,1594.1L700.99,1594.1z"/>
	<path class="st33" d="M1359.98,1589.58c9.04,0,16.37,7.34,16.37,16.37s-7.34,16.37-16.37,16.37c-9.04,0-16.38-7.34-16.38-16.37
		S1350.94,1589.58,1359.98,1589.58L1359.98,1589.58z"/>
	<path class="st85" d="M706.27,1602.95c-15.95-10.66-28.34-30.22-37.23-52.74c-13.81-35.01-18.97-77.35-13.67-107.6
		c10.82-61.73,50-129.77,91.59-202.18c42.54-74.07,87.67-152.57,109.45-233.21c44.2-163.6,88.44-439.59,171.41-640.83
		c35.14-85.23,81.95-158.59,127.6-199.72c28.11-25.33,55.23-38.6,78.66-32.04c43.4,12.16,50.12,54.65,43.29,110.98
		c-11.2,92.49-61.01,221.13-79.49,331.28c-21.9,130.49,33.88,282.08,85.53,380.63c30.54,58.27,87.83,127.18,129.77,207.52
		c61.49,117.82,89.02,260.76-56,431.49c-3.2,3.77-2.74,9.43,1.03,12.64c3.77,3.2,9.43,2.74,12.64-1.03
		c151.71-178.58,122.56-328.16,58.24-451.4c-41.94-80.36-99.24-149.28-129.78-207.55c-50.14-95.66-104.99-242.66-83.73-369.33
		c18.53-110.41,68.38-239.38,79.61-332.09c8.13-67.15-4.51-115.91-56.27-130.41c-28.16-7.89-61.73,5.55-95.51,35.99
		c-47.18,42.51-95.86,118.12-132.18,206.2c-83.25,201.93-127.79,478.83-172.14,642.99c-21.4,79.2-65.91,156.21-107.69,228.96
		c-42.74,74.42-82.57,144.56-93.7,208.01c-5.78,32.97-0.4,79.13,14.65,117.28c10.36,26.25,25.35,48.64,43.95,61.07
		c4.11,2.75,9.69,1.64,12.44-2.47S710.38,1605.7,706.27,1602.95L706.27,1602.95z"/>
</g>
</svg>
