<?xml version="1.0" encoding="utf-8"?>
<!-- Generator: Adobe Illustrator 26.4.1, SVG Export Plug-In . SVG Version: 6.00 Build 0)  -->
<svg version="1.1" id="Layer_1" xmlns="http://www.w3.org/2000/svg" xmlns:xlink="http://www.w3.org/1999/xlink" x="0px" y="0px"
	 viewBox="0 0 2000 2000" style="enable-background:new 0 0 2000 2000;" xml:space="preserve">
<style type="text/css">
	.st0{fill-rule:evenodd;clip-rule:evenodd;fill:#145468;}
	.st1{fill-rule:evenodd;clip-rule:evenodd;fill:#3B7A7A;}
	.st2{fill-rule:evenodd;clip-rule:evenodd;fill:#098B8D;}
	.st3{fill-rule:evenodd;clip-rule:evenodd;fill:#689595;}
	.st4{fill-rule:evenodd;clip-rule:evenodd;fill:#679595;}
	.st5{fill-rule:evenodd;clip-rule:evenodd;fill:#CEE4E4;}
	
		.st6{fill-rule:evenodd;clip-rule:evenodd;fill:#145468;stroke:#CEE4E4;stroke-width:5;stroke-linecap:round;stroke-linejoin:round;stroke-miterlimit:10;}
	.st7{fill-rule:evenodd;clip-rule:evenodd;fill:#043A60;}
	.st8{fill-rule:evenodd;clip-rule:evenodd;fill:#FD9A65;}
	.st9{fill-rule:evenodd;clip-rule:evenodd;fill:#18658D;}
	.st10{fill-rule:evenodd;clip-rule:evenodd;fill:#9FCDE5;}
	.st11{fill-rule:evenodd;clip-rule:evenodd;fill:#56A8D3;}
	.st12{fill-rule:evenodd;clip-rule:evenodd;fill:#276383;}
	.st13{fill-rule:evenodd;clip-rule:evenodd;fill:#E0F0F8;}
	.st14{fill-rule:evenodd;clip-rule:evenodd;fill:#A51E1C;}
	.st15{fill-rule:evenodd;clip-rule:evenodd;fill:#CB442D;}
	.st16{fill-rule:evenodd;clip-rule:evenodd;fill:#DC5A44;}
	.st17{fill-rule:evenodd;clip-rule:evenodd;fill:#F7BD54;}
	.st18{fill-rule:evenodd;clip-rule:evenodd;fill:#E46B37;}
	.st19{fill-rule:evenodd;clip-rule:evenodd;fill:#B67227;}
	.st20{fill-rule:evenodd;clip-rule:evenodd;fill:#D78A35;}
	.st21{fill-rule:evenodd;clip-rule:evenodd;fill:#A4331F;}
	.st22{fill-rule:evenodd;clip-rule:evenodd;fill:#F2A550;}
	.st23{fill-rule:evenodd;clip-rule:evenodd;fill:#F9E9D6;}
	.st24{fill-rule:evenodd;clip-rule:evenodd;fill:#844013;}
	.st25{fill-rule:evenodd;clip-rule:evenodd;fill:#A04E18;}
	.st26{fill-rule:evenodd;clip-rule:evenodd;fill:#F8B872;}
	.st27{fill-rule:evenodd;clip-rule:evenodd;fill:#FFC689;}
	.st28{fill-rule:evenodd;clip-rule:evenodd;fill:#B6844D;}
	.st29{fill-rule:evenodd;clip-rule:evenodd;fill:#CA5320;}
	.st30{fill-rule:evenodd;clip-rule:evenodd;fill:#D76332;}
	.st31{fill-rule:evenodd;clip-rule:evenodd;fill:#812F0C;}
	.st32{fill-rule:evenodd;clip-rule:evenodd;fill:#8A460F;}
	.st33{fill-rule:evenodd;clip-rule:evenodd;fill:#B46914;}
	.st34{fill-rule:evenodd;clip-rule:evenodd;fill:#B54515;}
	.st35{fill-rule:evenodd;clip-rule:evenodd;fill:#FFCD71;}
	.st36{fill-rule:evenodd;clip-rule:evenodd;fill:#95B41D;}
	.st37{fill-rule:evenodd;clip-rule:evenodd;fill:#A8C731;}
	.st38{fill-rule:evenodd;clip-rule:evenodd;fill:#85A214;}
	.st39{fill-rule:evenodd;clip-rule:evenodd;fill:#C6EF28;}
	.st40{fill-rule:evenodd;clip-rule:evenodd;fill:#ED982B;}
	.st41{fill-rule:evenodd;clip-rule:evenodd;fill:#FCCF7C;}
	.st42{fill-rule:evenodd;clip-rule:evenodd;fill:#FFE8BC;}
	.st43{fill-rule:evenodd;clip-rule:evenodd;fill:#ED6961;}
	.st44{fill-rule:evenodd;clip-rule:evenodd;fill:#696E1E;}
	.st45{fill-rule:evenodd;clip-rule:evenodd;fill:#9CA42A;}
	.st46{fill-rule:evenodd;clip-rule:evenodd;fill:#7F8615;}
	.st47{fill-rule:evenodd;clip-rule:evenodd;fill:#FFEECF;}
	.st48{fill-rule:evenodd;clip-rule:evenodd;fill:#77786D;}
	.st49{fill-rule:evenodd;clip-rule:evenodd;fill:#D3D5C6;}
	.st50{fill-rule:evenodd;clip-rule:evenodd;fill:#7C7A7A;}
	.st51{fill-rule:evenodd;clip-rule:evenodd;fill:#DBDCD9;}
	.st52{fill-rule:evenodd;clip-rule:evenodd;fill:#CA372D;}
	.st53{fill-rule:evenodd;clip-rule:evenodd;fill:#FE7D75;}
	.st54{fill-rule:evenodd;clip-rule:evenodd;fill:#B0B0B0;}
	.st55{fill-rule:evenodd;clip-rule:evenodd;fill:#888787;}
	.st56{fill-rule:evenodd;clip-rule:evenodd;fill:#6E6E6E;}
	.st57{fill-rule:evenodd;clip-rule:evenodd;fill:#757575;}
	.st58{fill-rule:evenodd;clip-rule:evenodd;fill:#60341E;}
	.st59{fill-rule:evenodd;clip-rule:evenodd;fill:#B0451B;}
	.st60{fill-rule:evenodd;clip-rule:evenodd;fill:#8A4727;}
	.st61{fill-rule:evenodd;clip-rule:evenodd;fill:#FABB64;}
	.st62{fill-rule:evenodd;clip-rule:evenodd;fill:#3E88AF;}
	.st63{fill-rule:evenodd;clip-rule:evenodd;fill:#5BA0C5;}
	.st64{fill-rule:evenodd;clip-rule:evenodd;fill:#FFF1DE;}
	.st65{fill-rule:evenodd;clip-rule:evenodd;fill:#F8B89B;}
	.st66{fill-rule:evenodd;clip-rule:evenodd;fill:#E98A5F;}
	.st67{fill-rule:evenodd;clip-rule:evenodd;fill:#FFCAB3;}
	.st68{fill-rule:evenodd;clip-rule:evenodd;fill:#F9A580;}
	.st69{fill-rule:evenodd;clip-rule:evenodd;fill:#FFDFD2;}
	.st70{fill-rule:evenodd;clip-rule:evenodd;fill:#E2A85C;}
	.st71{fill-rule:evenodd;clip-rule:evenodd;fill:#C68446;}
	.st72{fill-rule:evenodd;clip-rule:evenodd;fill:#F2BC75;}
	.st73{fill-rule:evenodd;clip-rule:evenodd;fill:#F2BC76;}
	.st74{fill-rule:evenodd;clip-rule:evenodd;fill:#FFD69F;}
	.st75{fill-rule:evenodd;clip-rule:evenodd;fill:#E7624B;}
	.st76{fill-rule:evenodd;clip-rule:evenodd;fill:#FFEED9;}
	.st77{fill-rule:evenodd;clip-rule:evenodd;fill:#C26E11;}
	.st78{fill-rule:evenodd;clip-rule:evenodd;fill:#F39226;}
	.st79{fill-rule:evenodd;clip-rule:evenodd;fill:#DF5020;}
	.st80{fill-rule:evenodd;clip-rule:evenodd;fill:#2C140B;}
	.st81{fill-rule:evenodd;clip-rule:evenodd;fill:#FFFFFF;}
	.st82{fill-rule:evenodd;clip-rule:evenodd;}
	.st83{fill-rule:evenodd;clip-rule:evenodd;fill:#A96F3E;}
	.st84{fill-rule:evenodd;clip-rule:evenodd;fill:#683A15;}
	.st85{fill-rule:evenodd;clip-rule:evenodd;fill:#F0DCCB;}
	.st86{fill-rule:evenodd;clip-rule:evenodd;fill:#E6D1B6;}
	.st87{fill-rule:evenodd;clip-rule:evenodd;fill:#69553C;}
</style>
<g>
	<path class="st7" d="M777.23,1118.64c-45.18-165.31-240.67-326.51-292.51-338.51c-66.79-15.45-135.43,2.68-200.39,88.47
		C146.07,1051.2,59.88,1521.65,85.28,1534.42c36.76,18.48,669.67,155.93,696.47,138.06C809.42,1654.04,828.83,1307.4,777.23,1118.64
		L777.23,1118.64z"/>
	<path class="st8" d="M100.53,1539.18c-21.25-9.08-6.66-54.93,26.1-79.55c78.91-59.3,123.09-44.11,189.4-60.79
		c73.29-18.44,129.76-25.24,192.8-21.92c46.39,2.44,109.73,16.22,151.93,16.22c93.13,0,153.48-30.73,158.61,5.59
		c7.88,55.9,20.88,274.62-21.79,274.55c-48.33-0.08-274.99-34.18-467.21-74.1C238,1579.99,163.54,1566.11,100.53,1539.18
		L100.53,1539.18z"/>
	<path class="st9" d="M386.93,758.65c130.76-77.62,1048.27-101.7,1150.09-96.8c81.63,3.92,192.88,124.88,226.52,217
		c64.44,176.52,99.87,566.55,70.91,584.42c-52.69,32.51-993.68,224.36-1038.1,223.68c-54.61-0.84,28.14-181.6,13.14-288.95
		c-40.91-292.89-95.01-428.02-185.79-510.49C504.9,779.59,368.01,769.88,386.93,758.65L386.93,758.65z"/>
	<path class="st10" d="M730.25,704.72c5.47,9.07-78.55,21.88-88.3,8.59c-101.09-137.77,31.55-303.33,150.58-347.04
		c189.92-69.75,319.45-10.5,491.74,13c201.15,27.43,344.12-86.49,424.56-112.03c111.36-35.36,183.91,20.52,199.07,88.2
		c27.34,122.09-180.82,177.44-314.08,200.08c-47.18,8.02-135.84,67.31-108.96,115.01c6.21,11.01-68.14,7.91-76.78-5.22
		c-18.78-28.55,20.4-102.91,114.91-144.21c71.86-31.4,331.75-70.3,294.63-147.56c-40.86-85.03-182.78,5.56-309.71,52.38
		c-101.13,37.3-229.07,41.28-331.88,10.31c-146.83-44.23-251.84-53.68-363.29-2.8C708.33,481.11,664.85,596.14,730.25,704.72
		L730.25,704.72z"/>
	<path class="st11" d="M727.72,698.33c-4.61-5.21-93.29,4.62-91.02,8.44c104.07,174.9,189.78,280.22,239.26,434.62
		c60.5,188.77,75.26,428.37,80.09,518.05c0.25,4.63,77.31-9.72,78.68-16.39c4.87-23.63-26.82-351.25-90.75-533.78
		C883.68,937.05,801.95,782.24,727.72,698.33L727.72,698.33z"/>
	<path class="st11" d="M1484.79,662.03c-3.52-4.13-84.66-1.57-82.19,1.49c73.04,90.42,134.9,230.09,167.52,356.92
		c49.82,193.73,68.18,369.85,66.38,495.85c-0.07,4.96,89.97-15.8,89.95-20.45c-0.33-77.42-16.39-328.46-72.74-498.31
		C1595.65,822.51,1557.86,747.82,1484.79,662.03L1484.79,662.03z"/>
	<path class="st7" d="M899.77,786.91c-17.95,12.32,22.87,61.18,38.01,57.9c16.44-3.56,104.74-11.52,124.99-19.5
		c13.32-5.25,1.61-38.26-17.29-54.43C1032.6,759.85,917.72,774.59,899.77,786.91L899.77,786.91z"/>
	<path class="st7" d="M1253.14,750.43c-17.95,12.32,22.87,61.18,38.01,57.9c16.44-3.56,104.74-11.52,124.99-19.51
		c13.32-5.25,1.61-38.26-17.29-54.43C1385.97,723.37,1271.09,738.11,1253.14,750.43L1253.14,750.43z"/>
	<path class="st12" d="M396.75,782.08c-39.06,70.08-96.58,268.88-123.37,464.23c-17.91,130.6-22.03,259.63,1.82,347.81
		c1.08,3.99,5.2,6.36,9.19,5.28c3.99-1.08,6.36-5.2,5.28-9.19c-23.44-86.67-19.05-213.5-1.44-341.86
		c26.48-193.1,83.01-389.7,121.61-458.97c2.01-3.61,0.72-8.18-2.9-10.19C403.33,777.17,398.76,778.47,396.75,782.08L396.75,782.08z"
		/>
	<path class="st12" d="M501.19,801.27c-67.68,232.95-132.92,544.29-90.74,795.01c0.68,4.08,4.55,6.83,8.63,6.15
		c4.08-0.69,6.83-4.55,6.14-8.63c-41.82-248.63,23.24-557.33,90.36-788.34c1.15-3.97-1.14-8.13-5.11-9.28
		C506.51,795.02,502.35,797.3,501.19,801.27L501.19,801.27z"/>
	<path class="st12" d="M614.24,869.69c-46.27,173.55-138.1,513.39-61.16,755.77c1.25,3.94,5.47,6.12,9.41,4.87
		c3.94-1.25,6.12-5.47,4.87-9.41c-76.09-239.71,15.59-575.73,61.35-747.37c1.07-3.99-1.31-8.1-5.31-9.17
		C619.41,863.32,615.3,865.7,614.24,869.69L614.24,869.69z"/>
	<path class="st12" d="M699.1,1019.85c-41.26,119.13-78.09,476.76-19.42,634.57c1.44,3.88,5.76,5.85,9.63,4.41
		c3.88-1.44,5.85-5.76,4.41-9.63c-57.73-155.29-21.06-507.22,19.54-624.45c1.35-3.91-0.72-8.18-4.63-9.53
		C704.73,1013.87,700.46,1015.94,699.1,1019.85L699.1,1019.85z"/>
	<path class="st12" d="M244.33,963.66c128.23,44.05,372.22,51.52,452.07,36.39c4.06-0.77,6.73-4.69,5.97-8.76
		c-0.77-4.06-4.69-6.74-8.76-5.97c-78.49,14.87-318.35,7.46-444.41-35.84c-3.91-1.34-8.17,0.74-9.52,4.65
		C238.33,958.05,240.42,962.32,244.33,963.66L244.33,963.66z"/>
	<path class="st12" d="M179.36,1106.38c141.97,58.22,334.25,79.71,464.45,75.63c56.65-1.77,101.69-8.49,126.21-18.87
		c3.81-1.61,5.59-6.01,3.98-9.82c-1.62-3.81-6.01-5.59-9.82-3.98c-23.46,9.94-66.62,15.99-120.83,17.69
		c-128.47,4.02-318.21-17.08-458.29-74.52c-3.82-1.57-8.2,0.26-9.77,4.09C173.71,1100.43,175.54,1104.81,179.36,1106.38
		L179.36,1106.38z"/>
	<path class="st12" d="M131.89,1260.42c35.7,20.77,132.8,42.49,243.84,59.05c165.77,24.72,362.64,38.23,430.77,22.33
		c4.03-0.94,6.53-4.97,5.59-8.99c-0.94-4.03-4.97-6.53-9-5.59c-67.24,15.69-261.53,1.83-425.15-22.57
		c-108.56-16.19-203.61-36.88-238.52-57.18c-3.57-2.08-8.16-0.86-10.24,2.71C127.1,1253.75,128.32,1258.34,131.89,1260.42
		L131.89,1260.42z"/>
	<path class="st12" d="M98.55,1403.49c154.69,78.84,556.35,105.35,717.55,73.43c4.05-0.8,6.69-4.75,5.89-8.8
		c-0.8-4.06-4.75-6.7-8.8-5.89c-159.01,31.49-555.24,5.68-707.83-72.08c-3.68-1.88-8.2-0.41-10.07,3.27
		C93.4,1397.1,94.86,1401.61,98.55,1403.49L98.55,1403.49z"/>
	<path class="st10" d="M784.59,1095.98c-64.36-222.8-210.2-363.29-343.95-348.35c-157.88,17.64-278.96,274.25-326.76,464.96
		c-12.29,49.04-62.73,290.91-39.65,332.39c20.92,37.61,677.33,149.54,753.36,141.69C885.3,1680.72,844.33,1302.77,784.59,1095.98
		L784.59,1095.98z M727.1,1123.41c-53.67-186.26-177.89-318.07-285.52-303.07c-140.98,19.64-237.33,224.71-280.16,395.58
		c-11.01,43.94-54.56,252.6-33.88,289.77c18.75,33.69,561.47,135.87,629.59,128.84C808.84,1629.19,772.65,1281.53,727.1,1123.41
		L727.1,1123.41z"/>
	<path class="st7" d="M1321.06,773.21c-4.56-21.05,66.04-33.63,76.47,14.55c24.76,114.33-49.31,251.93-167.29,277.48
		c-117.98,25.55-243.28-68.22-273.28-202.74c-13.02-58.39,60.69-69.07,65.15-48.46c24.76,114.33,106.24,192.74,203.5,171.68
		C1322.88,964.66,1345.82,887.54,1321.06,773.21L1321.06,773.21z"/>
	<path class="st13" d="M659.35,550.04c19.35-84.56,105.79-151.93,183.7-174.77c3.05-0.89,4.79-4.09,3.9-7.14
		c-0.89-3.05-4.09-4.79-7.14-3.9c-81.48,23.9-171.44,94.82-191.67,183.25c-0.71,3.1,1.23,6.18,4.32,6.89
		C655.55,555.07,658.64,553.14,659.35,550.04L659.35,550.04z"/>
	<path class="st13" d="M706.28,508.01c2.84-14.18,13.11-30.66,27.69-46.33c22.45-24.11,55.21-46.17,88.69-54.64
		c3.08-0.78,4.94-3.91,4.17-6.99c-0.78-3.08-3.91-4.94-6.99-4.17c-35.57,9-70.44,32.34-94.29,57.95
		c-16.28,17.48-27.39,36.08-30.56,51.91c-0.62,3.11,1.4,6.15,4.51,6.77C702.62,513.14,705.66,511.12,706.28,508.01L706.28,508.01z"
		/>
	<path class="st13" d="M1575.41,345.48c-96.63,63.93-203.35,75.36-291.31,61.83c-3.14-0.48-6.08,1.67-6.56,4.81
		c-0.48,3.14,1.68,6.08,4.81,6.56c90.41,13.91,200.09,2.1,299.41-63.6c2.65-1.75,3.38-5.32,1.62-7.97
		C1581.63,344.46,1578.05,343.73,1575.41,345.48L1575.41,345.48z"/>
	<path class="st13" d="M1500.85,401.73c-51.45,20.8-109.31,33.22-168.04,31.89c-3.17-0.07-5.81,2.45-5.88,5.62
		c-0.07,3.18,2.44,5.81,5.62,5.88c60.33,1.37,119.76-11.36,172.61-32.73c2.94-1.19,4.36-4.55,3.18-7.49
		C1507.15,401.96,1503.8,400.54,1500.85,401.73L1500.85,401.73z"/>
	<path class="st13" d="M1124.53,377.46c83.27,19.3,179.99,24.29,239.92,25.49c3.18,0.06,5.8-2.46,5.87-5.64
		c0.07-3.18-2.46-5.8-5.64-5.87c-59.33-1.19-155.1-6.09-237.55-25.2c-3.09-0.72-6.19,1.21-6.9,4.31
		C1119.51,373.65,1121.44,376.74,1124.53,377.46L1124.53,377.46z"/>
	<path class="st13" d="M1875.92,371.11c-12.79,60.84-63.41,91.27-120.61,109.34c-3.03,0.96-4.71,4.19-3.75,7.22
		c0.96,3.03,4.19,4.71,7.22,3.75c61.26-19.35,114.71-52.78,128.4-117.94c0.65-3.11-1.34-6.16-4.45-6.81
		C1879.62,366.01,1876.57,368,1875.92,371.11L1875.92,371.11z"/>
	<path class="st13" d="M1852.29,383.16c-4.47,26.71-32.84,50.48-56.22,62.68c-2.81,1.47-3.9,4.95-2.44,7.76
		c1.47,2.81,4.95,3.9,7.76,2.44c26.21-13.69,57.22-41.03,62.24-70.98c0.52-3.13-1.59-6.1-4.73-6.62
		C1855.78,377.91,1852.81,380.03,1852.29,383.16L1852.29,383.16z"/>
	<path class="st13" d="M1880.62,337.03c22.08,36.77,11.61,76.7-34.23,114.29c-2.46,2.01-2.82,5.64-0.8,8.1
		c2.01,2.45,5.64,2.81,8.1,0.8c51.59-42.3,61.64-87.74,36.8-129.11c-1.63-2.72-5.17-3.6-7.89-1.97
		C1879.87,330.77,1878.99,334.31,1880.62,337.03L1880.62,337.03z"/>
	<path class="st13" d="M1387.19,740.89c-21.84-5.15-77.64,3.79-94.87,10.01c-2.99,1.08-4.54,4.38-3.46,7.36
		c1.08,2.98,4.38,4.54,7.36,3.46c16.04-5.79,67.99-14.43,88.32-9.64c3.09,0.73,6.19-1.19,6.92-4.28
		C1392.2,744.72,1390.28,741.62,1387.19,740.89L1387.19,740.89z"/>
	<path class="st13" d="M1380.99,760.62c-3.47-0.87-9.1-1.03-15.63-0.63c-13.65,0.82-31.66,3.82-39.48,4.77
		c-3.15,0.38-5.4,3.25-5.02,6.41c0.38,3.15,3.25,5.4,6.4,5.02c6.61-0.8,20.61-3.1,32.95-4.25c7.46-0.69,14.26-1.08,17.97-0.15
		c3.08,0.78,6.21-1.1,6.98-4.17C1385.94,764.52,1384.07,761.4,1380.99,760.62L1380.99,760.62z"/>
	<path class="st13" d="M1031.74,774.03c-21.29-0.42-36.48,2.74-63.23,7.8c-3.12,0.59-5.17,3.6-4.58,6.72
		c0.59,3.12,3.6,5.17,6.72,4.58c25.74-4.88,40.35-8.01,60.86-7.61c3.18,0.06,5.8-2.46,5.86-5.64
		C1037.44,776.72,1034.92,774.09,1031.74,774.03L1031.74,774.03z"/>
	<path class="st13" d="M1025.62,791.46c-22.11-0.44-55.11,6.89-70.85,10.22c-3.11,0.66-5.09,3.71-4.44,6.82
		c0.66,3.11,3.72,5.09,6.82,4.43c15.16-3.21,46.93-10.4,68.23-9.97c3.17,0.07,5.8-2.46,5.87-5.64
		C1031.32,794.15,1028.8,791.52,1025.62,791.46L1025.62,791.46z"/>
	<path class="st13" d="M1290.7,987.22c-8.75,10.92-29.84,22.74-53.33,30.8c-23.56,8.09-49.63,12.4-68.57,7.33
		c-3.07-0.82-6.22,1-7.04,4.07c-0.82,3.07,1,6.22,4.07,7.04c20.78,5.56,49.43,1.31,75.28-7.56c25.92-8.9,48.91-22.43,58.58-34.49
		c1.98-2.48,1.59-6.1-0.89-8.09C1296.31,984.35,1292.69,984.74,1290.7,987.22L1290.7,987.22z"/>
	<path class="st13" d="M1234.76,1037.49c-39.01,15.86-100.99,7.96-135.15-16.57c-2.58-1.85-6.18-1.26-8.03,1.32
		c-1.85,2.58-1.26,6.18,1.32,8.03c36.94,26.53,104,35.04,146.19,17.88c2.94-1.2,4.36-4.55,3.16-7.49
		C1241.06,1037.71,1237.7,1036.3,1234.76,1037.49L1234.76,1037.49z"/>
	<path class="st13" d="M1234.84,997.55c-34.13,17.58-98.1,14.77-152.43-23.94c-2.59-1.84-6.18-1.24-8.02,1.34
		c-1.84,2.59-1.24,6.18,1.35,8.02c58.54,41.71,127.6,43.74,164.37,24.8c2.82-1.46,3.93-4.93,2.48-7.75
		C1241.13,997.2,1237.66,996.09,1234.84,997.55L1234.84,997.55z"/>
	<path class="st13" d="M1609.31,955.59c49.28,112.59,64.69,213.81,71.22,317.49c0.2,3.17,2.93,5.58,6.1,5.38
		c3.17-0.2,5.58-2.93,5.38-6.1c-6.61-104.96-22.28-207.4-72.16-321.38c-1.27-2.91-4.67-4.24-7.58-2.97
		C1609.36,949.29,1608.03,952.68,1609.31,955.59L1609.31,955.59z"/>
	<path class="st13" d="M1619.48,1047.16c16.18,50.71,32.24,130.55,37.77,183.51c0.33,3.15,3.16,5.45,6.32,5.12
		c3.16-0.33,5.45-3.16,5.12-6.32c-5.6-53.63-21.88-134.47-38.26-185.81c-0.97-3.03-4.21-4.7-7.23-3.73
		C1620.18,1040.89,1618.51,1044.13,1619.48,1047.16L1619.48,1047.16z"/>
	<path class="st13" d="M1551.8,922.81c51.29,96.36,77.22,268.4,88.73,375.59c0.34,3.16,3.18,5.44,6.33,5.11
		c3.16-0.34,5.44-3.18,5.11-6.33c-11.64-108.4-38.15-282.32-90.02-379.77c-1.49-2.8-4.98-3.87-7.78-2.38
		C1551.37,916.52,1550.31,920.01,1551.8,922.81L1551.8,922.81z"/>
	<path class="st13" d="M918.49,1178.57c32.84,108.12,50.4,205.06,64.7,332.53c0.35,3.16,3.2,5.43,6.36,5.08
		c3.16-0.35,5.43-3.2,5.08-6.36c-14.38-128.26-32.08-225.8-65.12-334.6c-0.92-3.04-4.14-4.76-7.18-3.83
		C919.29,1172.31,917.57,1175.53,918.49,1178.57L918.49,1178.57z"/>
	<path class="st13" d="M936.28,1356.16c22.25,84.1,33.65,229.87,34.69,278.84c0.07,3.17,2.7,5.7,5.87,5.63
		c3.18-0.07,5.7-2.7,5.63-5.87c-1.05-49.44-12.61-196.62-35.07-281.54c-0.81-3.07-3.96-4.9-7.03-4.09
		C937.3,1349.94,935.47,1353.09,936.28,1356.16L936.28,1356.16z"/>
	<path class="st13" d="M966.14,1269.74c17.02,70.37,36.7,188.46,39.02,261.86c0.1,3.17,2.76,5.67,5.93,5.57
		c3.17-0.1,5.66-2.76,5.57-5.93c-2.33-74.05-22.16-193.2-39.33-264.2c-0.75-3.09-3.86-4.99-6.95-4.24
		C967.3,1263.55,965.4,1266.66,966.14,1269.74L966.14,1269.74z"/>
	<path class="st13" d="M485.25,793.72c116.93,27.2,194.5,127.98,230.75,228.71c1.08,2.99,4.37,4.54,7.36,3.47
		c2.99-1.08,4.54-4.37,3.47-7.36c-37.47-104.14-118.08-207.89-238.96-236.02c-3.09-0.72-6.19,1.21-6.91,4.3
		C480.24,789.9,482.16,793,485.25,793.72L485.25,793.72z"/>
	<path class="st13" d="M608.7,885.5c64.5,70.95,95.23,143.92,123.75,225.8c1.05,3,4.33,4.58,7.33,3.54c3-1.05,4.58-4.33,3.54-7.33
		c-29.04-83.35-60.46-157.54-126.1-229.76c-2.14-2.35-5.78-2.52-8.13-0.39C606.74,879.51,606.56,883.15,608.7,885.5L608.7,885.5z"/>
	<path class="st13" d="M654.44,879.92c83.73,95.65,119.63,227.49,136.15,350.95c0.42,3.15,3.32,5.36,6.46,4.94
		c3.15-0.42,5.36-3.32,4.94-6.47c-16.81-125.64-53.68-259.67-138.89-357.01c-2.09-2.39-5.73-2.63-8.12-0.54
		C652.59,873.89,652.35,877.53,654.44,879.92L654.44,879.92z"/>
	<path class="st13" d="M138.31,1172.87c-23.6,66.07-48.12,179.25-53.17,243.35c-0.25,3.17,2.12,5.94,5.29,6.19
		c3.16,0.25,5.94-2.12,6.18-5.28c4.99-63.33,29.22-175.12,52.53-240.39c1.07-2.99-0.49-6.28-3.48-7.35
		C142.67,1168.32,139.38,1169.88,138.31,1172.87L138.31,1172.87z"/>
	<path class="st13" d="M126.38,1292.76c-10.07,44.64-22.69,109.24-24.44,165.18c-0.1,3.17,2.39,5.83,5.57,5.93
		c3.17,0.1,5.83-2.4,5.93-5.57c1.74-55.21,14.23-118.96,24.17-163.01c0.7-3.1-1.25-6.18-4.34-6.88
		C130.16,1287.71,127.08,1289.66,126.38,1292.76L126.38,1292.76z"/>
</g>
</svg>
