<?xml version="1.0" encoding="utf-8"?>
<!-- Generator: Adobe Illustrator 26.4.1, SVG Export Plug-In . SVG Version: 6.00 Build 0)  -->
<svg version="1.1" id="Layer_1" xmlns="http://www.w3.org/2000/svg" xmlns:xlink="http://www.w3.org/1999/xlink" x="0px" y="0px"
	 viewBox="0 0 2000 2000" style="enable-background:new 0 0 2000 2000;" xml:space="preserve">
<style type="text/css">
	.st0{fill-rule:evenodd;clip-rule:evenodd;fill:#F49E23;}
	.st1{fill-rule:evenodd;clip-rule:evenodd;fill:#D14D36;}
	.st2{fill-rule:evenodd;clip-rule:evenodd;fill:#FDF0D3;}
	.st3{fill-rule:evenodd;clip-rule:evenodd;fill:#0C427E;}
	.st4{fill-rule:evenodd;clip-rule:evenodd;fill:#B45A25;}
	.st5{fill-rule:evenodd;clip-rule:evenodd;fill:#EC8C28;}
	.st6{fill-rule:evenodd;clip-rule:evenodd;fill:#EE9726;}
	.st7{fill-rule:evenodd;clip-rule:evenodd;fill:#302574;}
	.st8{fill-rule:evenodd;clip-rule:evenodd;fill:#F3B953;}
	.st9{fill-rule:evenodd;clip-rule:evenodd;fill:#3D648F;}
	.st10{fill-rule:evenodd;clip-rule:evenodd;fill:#145468;}
	.st11{fill-rule:evenodd;clip-rule:evenodd;fill:#3B7A7A;}
	.st12{fill-rule:evenodd;clip-rule:evenodd;fill:#098B8D;}
	.st13{fill-rule:evenodd;clip-rule:evenodd;fill:#689595;}
	.st14{fill-rule:evenodd;clip-rule:evenodd;fill:#679595;}
	.st15{fill-rule:evenodd;clip-rule:evenodd;fill:#CEE4E4;}
	
		.st16{fill-rule:evenodd;clip-rule:evenodd;fill:#145468;stroke:#CEE4E4;stroke-width:5;stroke-linecap:round;stroke-linejoin:round;stroke-miterlimit:10;}
	.st17{fill-rule:evenodd;clip-rule:evenodd;fill:#043A60;}
	.st18{fill-rule:evenodd;clip-rule:evenodd;fill:#FD9A65;}
	.st19{fill-rule:evenodd;clip-rule:evenodd;fill:#18658D;}
	.st20{fill-rule:evenodd;clip-rule:evenodd;fill:#9FCDE5;}
	.st21{fill-rule:evenodd;clip-rule:evenodd;fill:#56A8D3;}
	.st22{fill-rule:evenodd;clip-rule:evenodd;fill:#276383;}
	.st23{fill-rule:evenodd;clip-rule:evenodd;fill:#E0F0F8;}
	.st24{fill-rule:evenodd;clip-rule:evenodd;fill:#A51E1C;}
	.st25{fill-rule:evenodd;clip-rule:evenodd;fill:#CB442D;}
	.st26{fill-rule:evenodd;clip-rule:evenodd;fill:#DC5A44;}
	.st27{fill-rule:evenodd;clip-rule:evenodd;fill:#F7BD54;}
	.st28{fill-rule:evenodd;clip-rule:evenodd;fill:#E46B37;}
	.st29{fill-rule:evenodd;clip-rule:evenodd;fill:#B67227;}
	.st30{fill-rule:evenodd;clip-rule:evenodd;fill:#D78A35;}
	.st31{fill-rule:evenodd;clip-rule:evenodd;fill:#A4331F;}
	.st32{fill-rule:evenodd;clip-rule:evenodd;fill:#F2A550;}
	.st33{fill-rule:evenodd;clip-rule:evenodd;fill:#F9E9D6;}
	.st34{fill-rule:evenodd;clip-rule:evenodd;fill:#844013;}
	.st35{fill-rule:evenodd;clip-rule:evenodd;fill:#A04E18;}
	.st36{fill-rule:evenodd;clip-rule:evenodd;fill:#F8B872;}
	.st37{fill-rule:evenodd;clip-rule:evenodd;fill:#FFC689;}
	.st38{fill-rule:evenodd;clip-rule:evenodd;fill:#B6844D;}
	.st39{fill-rule:evenodd;clip-rule:evenodd;fill:#CA5320;}
	.st40{fill-rule:evenodd;clip-rule:evenodd;fill:#D76332;}
	.st41{fill-rule:evenodd;clip-rule:evenodd;fill:#812F0C;}
	.st42{fill-rule:evenodd;clip-rule:evenodd;fill:#8A460F;}
	.st43{fill-rule:evenodd;clip-rule:evenodd;fill:#B46914;}
	.st44{fill-rule:evenodd;clip-rule:evenodd;fill:#B54515;}
	.st45{fill-rule:evenodd;clip-rule:evenodd;fill:#FFCD71;}
	.st46{fill-rule:evenodd;clip-rule:evenodd;fill:#95B41D;}
	.st47{fill-rule:evenodd;clip-rule:evenodd;fill:#A8C731;}
	.st48{fill-rule:evenodd;clip-rule:evenodd;fill:#85A214;}
	.st49{fill-rule:evenodd;clip-rule:evenodd;fill:#C6EF28;}
	.st50{fill-rule:evenodd;clip-rule:evenodd;fill:#ED982B;}
	.st51{fill-rule:evenodd;clip-rule:evenodd;fill:#FCCF7C;}
	.st52{fill-rule:evenodd;clip-rule:evenodd;fill:#FFE8BC;}
	.st53{fill-rule:evenodd;clip-rule:evenodd;fill:#ED6961;}
	.st54{fill-rule:evenodd;clip-rule:evenodd;fill:#696E1E;}
	.st55{fill-rule:evenodd;clip-rule:evenodd;fill:#9CA42A;}
	.st56{fill-rule:evenodd;clip-rule:evenodd;fill:#7F8615;}
	.st57{fill-rule:evenodd;clip-rule:evenodd;fill:#FFEECF;}
	.st58{fill-rule:evenodd;clip-rule:evenodd;fill:#77786D;}
	.st59{fill-rule:evenodd;clip-rule:evenodd;fill:#D3D5C6;}
	.st60{fill-rule:evenodd;clip-rule:evenodd;fill:#7C7A7A;}
	.st61{fill-rule:evenodd;clip-rule:evenodd;fill:#DBDCD9;}
	.st62{fill-rule:evenodd;clip-rule:evenodd;fill:#CA372D;}
	.st63{fill-rule:evenodd;clip-rule:evenodd;fill:#FE7D75;}
	.st64{fill-rule:evenodd;clip-rule:evenodd;fill:#B0B0B0;}
	.st65{fill-rule:evenodd;clip-rule:evenodd;fill:#888787;}
	.st66{fill-rule:evenodd;clip-rule:evenodd;fill:#6E6E6E;}
	.st67{fill-rule:evenodd;clip-rule:evenodd;fill:#757575;}
	.st68{fill-rule:evenodd;clip-rule:evenodd;fill:#60341E;}
	.st69{fill-rule:evenodd;clip-rule:evenodd;fill:#B0451B;}
	.st70{fill-rule:evenodd;clip-rule:evenodd;fill:#8A4727;}
	.st71{fill-rule:evenodd;clip-rule:evenodd;fill:#FABB64;}
	.st72{fill-rule:evenodd;clip-rule:evenodd;fill:#3E88AF;}
	.st73{fill-rule:evenodd;clip-rule:evenodd;fill:#5BA0C5;}
	.st74{fill-rule:evenodd;clip-rule:evenodd;fill:#FFF1DE;}
	.st75{fill-rule:evenodd;clip-rule:evenodd;fill:#F8B89B;}
	.st76{fill-rule:evenodd;clip-rule:evenodd;fill:#E98A5F;}
	.st77{fill-rule:evenodd;clip-rule:evenodd;fill:#FFCAB3;}
	.st78{fill-rule:evenodd;clip-rule:evenodd;fill:#F9A580;}
	.st79{fill-rule:evenodd;clip-rule:evenodd;fill:#FFDFD2;}
	.st80{fill-rule:evenodd;clip-rule:evenodd;fill:#E2A85C;}
	.st81{fill-rule:evenodd;clip-rule:evenodd;fill:#C68446;}
	.st82{fill-rule:evenodd;clip-rule:evenodd;fill:#F2BC75;}
	.st83{fill-rule:evenodd;clip-rule:evenodd;fill:#F2BC76;}
	.st84{fill-rule:evenodd;clip-rule:evenodd;fill:#FFD69F;}
	.st85{fill-rule:evenodd;clip-rule:evenodd;fill:#E7624B;}
	.st86{fill-rule:evenodd;clip-rule:evenodd;fill:#F6E8DB;}
	.st87{fill-rule:evenodd;clip-rule:evenodd;fill:#FC9EB6;}
	.st88{fill-rule:evenodd;clip-rule:evenodd;fill:#FFFFFF;}
</style>
<g>
	<path class="st80" d="M558.69,1375.43c-15.33,43.22-86.53,146.18-91.13,121.44c-2.37-12.7,10.3-74.35,29.96-132.81
		c14.39-42.85,34.2-104.51,37.42-133.51c0.2-1.94,0.34-3.74,0.42-5.37c0.18-5.58-0.56-9.29-2.5-10.45
		c-1.88-1.13-4.56,1.71-7.83,7.31c-0.77,1.3-1.58,2.78-2.38,4.38c-15.2,29.3-40.43,104.59-59.48,135.04
		c-17.75,28.4-59.89,84.59-65.1,76.54c-5.38-8.32-0.57-53.33,7.76-78.15c21.54-64.33,66-128.29,81.37-152.82
		c1.05-1.66,1.97-3.14,2.71-4.45c2.15-3.62,3.08-5.73,2.5-6.03c-1.67-0.87-4.15-0.14-7.33,1.93c-1.39,0.91-2.92,2.08-4.6,3.5
		c-30.8,26.34-103.05,135.31-135.03,170.49c-23.89,26.27-68.12,87.93-78.4,72.1c-20.39-31.35,65.26-177.45,82.31-195.83
		c33.25-35.77,76.28-74.69,74.44-74.27c-41.17,9.92-65.44,39.51-94,63.02c-56.91,46.89-102.58,98.26-135.21,121.76
		c-23.21,16.72-0.42-52.44,17.93-83.93c28.31-48.54,95.16-126.94,136.86-151.74c14.45-8.61-37.55,6.26-88.72,34.22
		c-56.92,31.03-117.16,78.37-121.39,75.26c-13.23-9.65,32.69-61.05,58-83.65c51.4-45.91,111.51-57.98,99.86-57.22
		c-53.73,3.46-91.86,11.96-143.57,27.18c-39.04,11.49-69.66,22.95-66.19,16.39c16.88-31.85,83.81-66.52,157.22-81.68
		c38.56-7.96,80.08-9.39,111.95-7.13c2.73,0.18,5.38,0.4,7.94,0.65c2.84,0.28,5.57,0.57,8.19,0.91c2.44,0.3,4.81,0.62,7.05,0.99
		c3.89,0.61,7.51,1.29,10.75,2.03c2.05,0.46,3.96,0.94,5.71,1.43l5.42,3.15l23.96,14l5.65,3.3l8.12,4.74l12.14,7.1l13.17,7.68
		l6.54,3.83l15.75,9.19l8.66,5.03l11.81,6.92l8.8,5.12l12,7.02l9.07,5.3l27.81,16.22l17.61,10.29l0.77,0.45
		c5.45,14.94,7.78,32.83,7.83,52.33c0,2.98-0.06,6-0.15,9.06c-0.07,2.44-0.2,4.92-0.33,7.4c-0.34,5.7-0.83,11.53-1.49,17.4
		C584.68,1291.19,572.2,1337.39,558.69,1375.43z"/>
	<path class="st80" d="M1531.18,575.48c55.56-25.01,118.07-106.37,158.98-137.41c26.38-20.02,90.22-67.84,86.51-48.86
		c-8.53,43.58-151.36,142.47-171.55,180.68c-3.04,5.76,101.95-75.95,131.11-90.99c16.47-8.49,56.29-31.58,57.77-25.93
		c5.42,20.74-46.13,54.49-69.92,71.46c-10.65,7.59-97.55,71.93-93.89,72.7c7.96,1.67,86.95-56.78,128.97-81.72
		c48.04-28.52,100.39-56.56,111.57-63.85c7.18-4.69,26.92-11.25,4.37,14.13c-35.68,40.16-72.32,76.27-117.98,107.31
		c-13.16,8.95-84.4,49.58-83.3,51.39c1.1,1.81,62.11-26.24,89.9-40.52c50.08-25.73,100.68-42.11,105.65-38.25
		c14.19,11.02-43.73,48.19-65.48,56.43c-24.18,9.17-163.43,74.89-159.61,73.43c29.39-11.18,211.92-91.11,230.64-76.25
		c7.73,6.14-14.24,14.11-23,18.65c-38.91,20.18-80.7,34.53-120,54.05c-9.78,4.86-29.44,14.36-29.44,14.36s27.84-7.88,42.09-7.55
		c30.27,0.69,124.7-12.17,139.55,11.71c8.31,13.38-15.37,5.11-130.94,27.05c-18.61,3.53-81.23,7.85-79.67,10.24
		c2.37,3.63,129.06,5.87,168.15,26.78c29.94,16.02,46.55,44.35,15.27,33.08c-29.58-10.65-59.67-20.19-96.22-22.88
		c-54.07-3.98-113.75-13.51-140.03-10.49L1531.18,575.48L1531.18,575.48z"/>
	<path class="st80" d="M773.66,1154.22c-11.67,39.47-43.27,57.33-61.93,64.07c-5.94,2.15-10.57,3.16-12.8,3.37
		c-1.39,0.13-2.6,1.2-3.94,2.83c-5.37,6.55-13.02,22.39-44.7,24.51c-24.19,1.63-41.15-12.54-50.22-20.46
		c-0.49-0.42-0.95-0.83-1.37-1.18c-2.65-2.31-4.49-3.84-5.5-3.9c-0.52-0.03-1.19,0.06-2.03,0.23c-1.71,0.29-4.09,0.94-7.11,1.64
		c-9.97,2.32-26.86,5.35-48.69-0.15c-3.33-0.8-6.8-1.85-10.34-3.14c-5.64-2-11.55-4.57-17.68-7.87c-6.2-3.31-12.01-7.25-17.44-11.58
		c-1.66-1.31-3.28-2.67-4.83-4.1c-20.15-17.74-34.05-40.94-39.34-58.43c-1.45-4.67-2.25-8.91-2.38-12.54
		c-0.06-0.95-0.05-1.87,0-2.74c0.05-0.62-3.26-2.15-8.37-4.55c-9.82-4.6-26.36-12.41-39.05-23.39c-0.02-0.03-0.02-0.03-0.04-0.06
		c-3.39-2.91-6.51-6.07-9.14-9.45c-11.57-14.79-18.54-27.98-22.29-39.72c-8.36-26.08-0.94-45.1,7.16-59.28
		c2.1-3.66,4.21-6.98,6.13-10.02l0.01-0.03c1.08-1.68,2.07-3.27,2.97-4.78c0.4-0.65,0.7-2.1,1.13-4.15
		c2.1-10.37,6.69-36.42,34.93-57.81c39.03-29.57,85.18-34,140.41-9.69c1.36,0.6,2.74,1.26,4.14,1.94c1.91,0.98,3.81,2.03,5.73,3.16
		c23.15,13.64,47.13,38.88,67.04,62.08c0,0,0.03,0.01,0.04,0.04c14.45,16.75,26.7,32.44,35.01,41.87c0.17,0.19,0.32,0.35,0.49,0.55
		c20.6,23.17,59.15,56.61,75.27,68.54c8.99,6.67,16.21,15.97,21.32,26.09c3.29,6.47,5.73,13.27,7.23,19.91
		C775.85,1136.37,775.99,1146.35,773.66,1154.22z"/>
	<path class="st80" d="M1674.24,754.58c-0.15,0.83-0.32,1.66-0.52,2.48c-2.36,10.58-6.51,19.92-11.67,28.16l-0.08,0.14
		c-1.69,2.7-3.49,5.28-5.39,7.72c-16.76,21.79-40,34.2-50.82,39.21c-0.72,0.32-1.38,0.62-1.99,0.89c-2.53,1.09-4.98,5.2-8.87,10.65
		c-7.48,10.5-20.3,26.09-49.08,35.53c-27.53,9.05-79.93,5.79-116.6-35.25c-3.43-3.83-6.73-8-9.85-12.52
		c-0.38-0.55-0.74-1.07-1.1-1.62c-0.44-0.64-0.87-1.33-1.28-1.99l0.01-0.02c-6.96-11.49-9.56-25.7-12.26-38.47l0.01-0.02
		c-0.94-4.48-1.89-8.78-3.05-12.71c-1.98-6.87-4.58-12.61-8.81-16.35c-15.59-13.81-30.85-32.56-42.72-49.29
		c-1.77-2.51-3.48-4.96-5.09-7.34c0.01-0.03,0.01-0.03-0.02-0.03c-2.72-4.07-5.21-7.91-7.41-11.46c-2.3-3.72-4.05-7.93-5.23-12.54
		c-0.04-0.06-0.05-0.12-0.06-0.2c-0.43-1.55-0.77-3.19-1.04-4.87l-0.01-0.06c-0.67-3.9-1-8.02-1.01-12.33l0.01-0.05
		c-0.04-43.92,33.4-105.05,81.95-123c47.56-17.59,92.82-2.51,108.47,12.9c0.84,0.83,1.61,1.67,2.27,2.49
		c0.1,0.13,0.4,0.21,0.87,0.31c1.86,0.36,6.58,0.63,13.18,1.28c6.09,0.63,13.78,1.56,22.27,3.3c23.4,4.76,52.94,15.36,72.07,40.65
		c23.18,30.66,23.64,46.48,19.17,62.41l-0.06,0.28c-0.86,2.95-1.84,5.91-2.91,8.98c-0.08,0.24-0.18,0.48-0.26,0.73
		c-0.04,0.18,0.38,0.68,1.13,1.57c0.11,0.1,0.19,0.22,0.3,0.32c0.84,0.99,2.02,2.31,3.43,3.96c0.48,0.57,1,1.2,1.55,1.84
		c0,0-0.01,0.03,0.02,0.03l0.03,0.01c3.28,4.03,7.3,9.53,11.01,16.34c0,0,0.04,0.04,0.01,0.06c4.63,8.42,8.73,18.84,10.33,30.99
		c0.07,0.54,0.15,1.05,0.19,1.58C1676.18,737.04,1675.99,745.49,1674.24,754.58z"/>
	<path class="st80" d="M1433.38,817.08c-3.9,5.14-8.58,10-14.02,14.5c-1.14,0.96-2.34,1.91-3.55,2.83
		c-3.35,2.51-6.94,4.92-10.75,7.17c-15.21,8.98-40.94,13.31-55.72,15.17c-6.89,0.85-11.4,1.18-11.4,1.18s-1.46,2.33-4.95,6.17
		c-8.71,9.61-30.03,28.67-72.71,44.51c-22.92,8.5-44.15,8.82-58.16,7.5c-8.53-0.8-14.38-2.19-16.31-2.7
		c-0.44-0.12-0.69-0.2-0.69-0.2s-13.17,46.37-93.4,73.99c-23.72,8.18-55.25,9.57-74.22,9.58c-6.06,0.01-10.81-0.16-13.63-0.28
		l-0.57-0.02l-1.01-0.03c-0.82-0.07-1.26-0.08-1.26-0.08s-12.14,30.52-51.29,46.51c-32.55,13.3-78.63,11.81-95.48,10.7
		c-4.12-0.27-6.5-0.51-6.5-0.51s-2.57,3.01-7.13,7.59c-9.87,9.92-29.05,27.23-51.61,37.48c-3.78,1.71-7.69,3.27-11.66,4.63
		c-3.64,1.27-7.34,2.37-11.1,3.34c-1.44,0.4-2.93,0.74-4.41,1.08c-2.8,0.64-5.64,1.22-8.49,1.72c-5.64,0.98-11.38,1.68-17.16,2.11
		c-4.36,0.34-8.75,0.51-13.15,0.55c-3.22,0.03-6.45-0.02-9.69-0.16c-3.68-0.12-7.34-0.37-11.01-0.69
		c-12.64-1.14-25.15-3.41-37.04-6.59c-11.13-2.97-21.72-6.79-31.46-11.26c-1.45-0.67-2.94-1.4-4.43-2.16
		c-4.2-2.16-8.48-4.66-12.8-7.45c-1.79-1.19-3.6-2.38-5.4-3.64c-2.46-1.72-4.93-3.49-7.39-5.37c-3.23-2.43-6.47-5.02-9.67-7.7
		c-10.39-8.61-20.57-18.33-29.94-28.32c-1.86-1.98-3.71-3.99-5.48-6.01c-0.51-0.55-1.02-1.13-1.5-1.67
		c-5.28-5.97-10.18-11.96-14.65-17.81c-3.21-4.23-6.17-8.4-8.83-12.41c-4.88-7.35-8.75-14.28-11.32-20.35
		c-0.86-1.98-1.57-3.86-2.13-5.65c-1.04-3.38-1.49-6.82-1.42-10.28c0.1-4.84,1.2-9.7,3.11-14.52l0.01-0.03
		c0.67-1.84,1.5-3.66,2.43-5.47c1.47-2.9,3.2-5.78,5.13-8.61c3.48-5.15,7.63-10.07,12.07-14.65c2.38-2.48,4.86-4.86,7.37-7.1
		c0.71-0.63,1.41-1.24,2.11-1.85c3.41-2.94,6.88-5.63,10.23-8.04c0.34-0.27,0.68-0.51,1.05-0.75c3.53-2.5,6.96-4.65,10.1-6.39
		c1.22-0.68,2.45-1.34,3.7-1.96c20.87-10.68,43.18-14.51,57.31-15.88c8.94-0.89,14.63-0.76,14.63-0.76s3.62-4.31,10.16-10.67
		c14.66-14.21,43.97-38.77,80.37-48.67c46.53-12.68,97.53-8.75,116.67-6.59c5,0.58,7.83,1.02,7.83,1.02s3.05-4.79,8.82-11.5
		c11.23-13.05,32.71-33.43,61.88-40.23c24.17-5.6,48.45-6.69,65.14-6.53l0.1,0.02c12.99,0.09,21.32,0.96,21.32,0.96
		s2.94-3.43,8.59-8.69c13.27-12.28,41.29-34.5,80.88-45.87c64.62-18.57,103.69-0.64,103.69-0.64s0.09-0.06,0.27-0.15
		c1.37-0.78,7.85-4.41,18.26-8.57c15.71-6.28,40.41-13.76,69.96-14.42c9.97-0.23,19.89,0.45,29.61,1.92
		c0.03,0.01,0.03,0.01,0.03,0.01c0.23,0.02,0.43,0.06,0.63,0.11c17.41,2.67,34.16,7.89,49.22,15.02l0.03,0.01
		c17.23,8.14,32.23,18.79,43.55,31.07c1.57,1.72,3.09,3.44,4.55,5.21c2.56,3.23,4.92,6.52,6.98,9.91c0.59,0.93,1.12,1.88,1.65,2.83
		c2.26,4.03,4.11,8.15,5.55,12.35c3.14,9.18,4.19,18.36,3.3,27.29c-0.09,0.69-0.19,1.4-0.26,2.11
		C1445.43,796.55,1440.81,807.33,1433.38,817.08z"/>
	<path class="st81" d="M854.25,1053.58c-4.12-0.27-6.5-0.51-6.5-0.51s-2.57,3.01-7.13,7.59c-15.93-40.65-52.98-95.91-101.85-135.08
		c-31.03-24.86-66.92-43.3-105.26-46.79c8.94-0.89,14.63-0.76,14.63-0.76s3.62-4.31,10.16-10.67c32.53,7.67,63.01,24.58,90.07,46.26
		C798.79,954.05,837.08,1011,854.25,1053.58z"/>
	<path class="st81" d="M1017.49,996.79l-14.2-0.29l-1.01-0.03c-0.34-22.38-8.8-48.22-22.55-73.42
		c-26.79-49.15-73.94-96.11-124.41-110.92c5,0.58,7.83,1.02,7.83,1.02s3.05-4.79,8.82-11.5c49.35,19.36,94.76,65.45,121.21,114.07
		C1008.31,943.44,1017.15,971.97,1017.49,996.79z"/>
	<path class="st81" d="M1202.11,916.11l-16.31-2.7c-6.08-24.03-19.82-47.98-38.57-69.79c-36.35-42.31-91.55-76.74-148.15-88.72
		c12.99,0.09,21.32,0.96,21.32,0.96s2.94-3.43,8.59-8.69c50.11,16.49,97.21,48.44,129.86,86.47
		C1180.93,859.31,1196.37,887.76,1202.11,916.11z"/>
	<path class="st81" d="M1349.34,856.75c-6.89,0.85-11.4,1.18-11.4,1.18s-1.46,2.33-4.95,6.17c4.82-25.29-4.5-53.14-20.76-78.84
		c-23.88-37.78-63-71-98.38-84.76c1.37-0.78,7.85-4.41,18.26-8.57c34.43,17.14,70.3,49.08,93.1,85.12
		C1341.52,802.86,1351.05,830.7,1349.34,856.75z"/>
	<path class="st82" d="M604.7,910.35c9.62-15.7,44.67-15.37,69.41-6.33c40.19,14.67,68.21,32.94,105.02,75.46
		c35.61,41.14,34.73,110.5-0.77,85.51c-38.89-27.38-79.35-73.21-108.26-91.49C651.77,961.93,593.45,928.71,604.7,910.35
		L604.7,910.35z"/>
	<path class="st82" d="M711.02,858.04c12.71-25.77,86.11-41.15,128.19-32.02c78.61,17.06,133.38,83.41,144.39,138.92
		c5.09,25.64-4.11,44.98-25.56,44.99c-16.7,0.01-37.94-10.25-54.76-19.98c-31.9-18.45-110.88-80.05-136.67-90.73
		C732.18,884.98,704.45,871.34,711.02,858.04L711.02,858.04z"/>
	<path class="st82" d="M919.51,781.18c37.51-13.57,95.3-12.65,149.73,18.87c66.94,38.75,110.55,99.45,91.69,127.67
		c-20.76,31.07-69.24-3.4-122.73-45.38c-44.98-35.3-71.61-58.75-124.76-73.84C894.82,803.21,900.14,788.18,919.51,781.18
		L919.51,781.18z"/>
	<path class="st82" d="M1071.79,735.48c8.42-11.65,71.5-38.02,123.18-25.04c41.86,10.52,77.99,45.23,96.85,71.3
		c30.28,41.85,28,85.13,1.22,98.96c-16.2,8.36-45.95,0.45-76.07-30.37c-21.89-22.4-52.11-56.77-72.49-69.97
		C1097.12,749.69,1063.38,747.13,1071.79,735.48L1071.79,735.48z"/>
	<path class="st82" d="M1300.5,691.6c43.35,7,71.74,34.86,88.54,55.31c26.92,32.77,15.1,54.66,1.89,62.5
		c-14.03,8.33-34.16-10.18-49.7-34.9c-9.49-15.09-30.08-44-48.63-61.52C1278.09,699.26,1273.87,687.3,1300.5,691.6L1300.5,691.6z"/>
	<path class="st81" d="M773.48,1126.02c-3.45-6.47-7.35-12.75-11.64-18.83c-23.73-33.75-59.58-61.79-101.18-83.21
		c-4.9-2.55-9.9-4.98-14.97-7.3l-0.03-0.01c-17.39-8.1-35.61-15.04-54.25-20.81c0,0,0,0-0.02-0.01c-1.14-0.4-2.25-0.73-3.4-1.08
		c-9.14-2.76-18.36-5.24-27.64-7.46c-12.59-2.99-25.27-5.44-37.9-7.34c-52.75-7.93-104.66-6.15-146.67,7.02
		c-1.39,0.41-2.77,0.86-4.14,1.32c-5.06,1.68-10,3.57-14.74,5.63c1.62-5.83,3.85-11.49,6.74-17.03c0.7-1.34,1.75-2.37,2.97-3.06
		c0.99-0.34,1.97-0.66,2.97-0.97l0.03,0.01c4.01-1.3,8.1-2.48,12.27-3.56c40.4-10.5,88.25-11.93,137.03-5.28
		c24.56,3.33,49.35,8.7,73.54,16.03c11.59,3.51,23.02,7.45,34.21,11.84c5.75,2.23,11.42,4.57,17.01,7.05
		c8.88,3.88,17.56,8.03,26,12.49c44.73,23.43,82.99,54.31,107.69,91.29c-3.64,1.27-7.34,2.37-11.1,3.34
		C769.54,1112.58,771.97,1119.39,773.48,1126.02z"/>
	<path class="st81" d="M587.83,981.18c-34.37,2.4-71.86,26.76-101.63,58.33c-29.55,31.34-51.4,69.58-55.76,99.01
		c-0.62,4.19,2.28,8.09,6.47,8.71c4.19,0.62,8.09-2.28,8.71-6.47c4-27.05,24.58-61.93,51.74-90.73
		c26.94-28.57,60.44-51.38,91.54-53.55c4.22-0.3,7.41-3.96,7.12-8.18C595.72,984.07,592.05,980.89,587.83,981.18L587.83,981.18z"/>
	<path class="st81" d="M660.65,1023.99c-0.58,1.13-1.49,2.14-2.67,2.89c-13.66,8.57-25.02,22.95-34.1,40.56
		c-2.63,5.04-5.02,10.33-7.28,15.84c-1,2.51-1.97,5.04-2.91,7.64c-1.23,3.35-2.39,6.79-3.49,10.26
		c-11.83,37.4-16.14,80.62-12,115.11c0.39,3.37,0.87,6.66,1.45,9.87c-0.01,0.03-0.01,0.03-0.01,0.03c0.15,0.79,0.27,1.57,0.42,2.36
		c-0.49-0.42-0.95-0.83-1.37-1.18c-0.68,0.75-1.57,1.37-2.57,1.78c-1.75,0.73-3.5,1.38-5.29,1.94c-0.34,5.7-0.83,11.53-1.49,17.4
		c-1.58-4.93-2.92-10.23-4.04-15.82c-0.46-2.4-0.89-4.84-1.25-7.34c-0.4-2.57-0.76-5.2-1.06-7.88c-1.94-17.1-2.02-36.13-0.28-55.6
		c1.98-21.97,6.3-44.5,12.87-65.32c2.43-7.69,5.2-15.16,8.24-22.28c10.49-24.57,24.62-45.14,41.83-57.58l0.03,0.01
		c1.36-0.99,2.73-1.93,4.14-2.81c3.58-2.25,8.34-1.15,10.57,2.43C661.89,1018.71,661.91,1021.64,660.65,1023.99z"/>
	<path class="st81" d="M711.73,1218.29c-5.94,2.15-10.57,3.16-12.8,3.37c-1.39,0.13-2.6,1.2-3.94,2.83
		c-35.39-29.75-67.74-77.41-81.3-133.57c-0.94-3.72-1.75-7.47-2.49-11.29c-0.4-2.18-0.8-4.38-1.17-6.59
		c-0.69-4.17,2.15-8.12,6.32-8.81c3-0.49,5.88,0.84,7.53,3.2c0.65,0.89,1.08,1.95,1.28,3.12c1.12,6.84,2.55,13.57,4.25,20.17
		C643.57,1145.63,676.62,1191.61,711.73,1218.29z"/>
	<path class="st81" d="M636.91,1008.44c-4.22,0.42-7.98-2.67-8.41-6.86c-0.31-3.02-0.94-6.23-1.87-9.64
		c-6.67-24.7-29.02-58.79-59.56-84.99c-1.55-1.32-3.1-2.64-4.69-3.91c3.53-2.5,6.96-4.65,10.1-6.39c1.22-0.68,2.45-1.34,3.7-1.96
		c26.08,22.33,46.58,50.18,57.93,74.35c0,0,0.03,0.01,0.04,0.04c5.18,11.04,8.45,21.32,9.49,29.92c0.06,0.35,0.09,0.7,0.12,1.04
		C644.19,1004.25,641.1,1008.02,636.91,1008.44z"/>
	<path class="st81" d="M1331.68,679.43c0.03,0.01,0.03,0.01,0.03,0.01c0.24,0.1,0.48,0.21,0.69,0.3
		c59.66,27.01,93.15,92.36,84.59,148.22l-0.01,0.02c-0.33,2.18-0.7,4.32-1.17,6.44l13.4,9.69c2.39-8.75,3.78-17.83,4.17-27.02
		c1.21-26.16-5.24-53.48-18.17-78.19c-3.69-7.05-7.92-13.89-12.63-20.42c-6.17-8.56-13.18-16.59-20.99-23.9l-0.03-0.01
		c-14.48-13.62-31.72-24.82-51.27-32.33L1331.68,679.43z"/>
	<path class="st81" d="M1644.72,664.52c-63.94,57.61-172.95,82.37-240.8,54.36c-3.91-1.62-8.4,0.25-10.01,4.16
		c-1.62,3.91,0.25,8.4,4.16,10.02c72.34,29.86,188.75,4.28,256.92-57.15c3.14-2.83,3.4-7.69,0.56-10.83
		C1652.72,661.94,1647.86,661.68,1644.72,664.52L1644.72,664.52z"/>
	<path class="st81" d="M1605.76,832.29c-0.72,0.32-1.38,0.62-1.99,0.89c-2.53,1.09-4.98,5.2-8.87,10.65
		c-38.7-21.43-71.37-59.91-79.64-102.56c-0.35-1.82-0.67-3.67-0.93-5.52c-0.61-4.18,2.3-8.08,6.5-8.67c4.18-0.61,8.06,2.3,8.67,6.5
		c0.22,1.56,0.47,3.1,0.77,4.66C1537.9,777.93,1569.32,813.4,1605.76,832.29z"/>
	<path class="st81" d="M1507.78,688c-12.35,18.25-27.47,32.86-43.78,42.36c-8.18,4.76-16.7,8.24-25.3,10.23
		c-0.69,0.17-1.38,0.23-2.05,0.17c-3.34-0.13-6.35-2.48-7.14-5.92c-0.31-1.37-0.23-2.74,0.16-3.99c0.44-1.47,1.31-2.75,2.5-3.71
		c0.88-0.73,1.93-1.24,3.09-1.52c22.34-5.13,43.65-22.35,59.82-46.23c22.7-33.53,35.19-80.27,25.61-127.27
		c0.84,0.83,1.61,1.67,2.27,2.49c0.1,0.13,0.4,0.21,0.87,0.31c-0.08-0.36-0.11-0.7-0.15-1.05c-0.23-4.23,3.01-7.86,7.24-8.09
		c1.35-0.08,2.69-0.14,4.05-0.14c0.8,3.54,1.47,7.05,2.04,10.56c0.24,1.59,0.49,3.16,0.65,4.73c0.55,3.83,0.93,7.64,1.17,11.45
		c0.47,6.71,0.53,13.38,0.21,19.98C1537.54,628.19,1525.53,661.82,1507.78,688z"/>
	<path class="st82" d="M551.17,911.83c-38.82-21.96-86.32-29.53-127.78,9.62c-14.05,13.26-3.37,26.41,6.17,28.97
		c29.26,7.86,57.06-3.98,95.77-0.66c33.63,2.88,51.4,10.81,60.14,8.38C598.61,954.49,574.35,924.95,551.17,911.83L551.17,911.83z"/>
	<path class="st82" d="M474.07,984.9c-16.82-2.61-51.97-0.33-75.07,8.67c-36,14.02-25.55,75.28,7.79,83.82
		c21.35,5.46,44.13-17.14,55-29.58c10.34-11.84,29.04-27.39,40.36-34.91C510.44,1007.39,500.2,988.96,474.07,984.9L474.07,984.9z"/>
	<path class="st82" d="M587.93,1080.05c18.71-35.89,15-59.01-12.91-52.25c-31.96,7.74-59.13,19.05-82.03,40.99
		c-19.79,18.96-39.71,51.93-29.15,76.89c2.8,6.62,24.17,38.45,45.17,50.21c22.06,12.35,44.57,3.58,50.94-21.23
		C565.35,1153.65,571.36,1111.83,587.93,1080.05L587.93,1080.05z"/>
	<path class="st82" d="M665.29,1049.79c34.32,9.27,68.29,35.11,91.59,63.3c11.12,13.45,14.38,45.32-8.26,69.59
		c-13.14,14.08-37.44,22.44-46.08,15.96c-10.91-8.19-20.67-36.99-25.9-55.32c-6.74-23.66-11.53-45.11-23.25-67.89
		C646.06,1061.15,654.69,1046.93,665.29,1049.79L665.29,1049.79z"/>
	<path class="st82" d="M656.13,1193.86c-7.63-12.32-15.97-25.49-28.37-35.23c-15.98-12.56-21.64,1.84-24.12,21.34
		c-1.74,13.72-2.88,30.01,1.26,41c9.18,24.39,48.09,26.89,68.65,11.61C686,1223.33,663.58,1205.89,656.13,1193.86L656.13,1193.86z"
		/>
	<path class="st82" d="M1359.69,621.98c2-24.97,25.9-50.05,41.74-59.86c14-8.67,31.09-12.77,47.72-14.33
		c43.06-4.05,68.84,27.07,61.72,66.61c-3.85,21.4-20.44,56.65-49.37,58.82c-20.17,1.51-44.8-9.31-63.51-12.57
		C1375.33,656.7,1358.77,633.53,1359.69,621.98L1359.69,621.98z"/>
	<path class="st82" d="M1548.13,601.13c1.7-12.09,16.84-21.37,31.79-16.19c28.65,9.93,55.42,36.23,57.37,59.09
		c2.69,31.54-41.25,48.11-61.85,53.85c-11.17,3.11-31.85,9.39-43.08,0.54c-8.81-6.95,0.1-28.82,2.08-34.41
		C1540.2,647.81,1546.06,615.86,1548.13,601.13L1548.13,601.13z"/>
	<path class="st82" d="M1546.19,756.45c5.07-9.19,35.35-19.38,51.07-27.19c12.35-6.14,27.93-17.57,39.84-18.33
		c19.25-1.22,21.72,44.01,16.98,57.33c-11.28,31.7-38.91,48.07-63.15,35.26c-4.78-2.53-17.63-14.45-24.07-19.14
		C1556.64,776.93,1541.12,765.64,1546.19,756.45L1546.19,756.45z"/>
	<path class="st83" d="M1457.09,760.21c12.76-10.57,40.46-3.03,56.32,16.4c23.65,28.97,36.16,45.28,49.6,54.75
		c27.01,19.01-16.22,43.73-38.25,44.44c-27.34,0.87-54.6-13.82-68.63-40.01C1443.32,811.83,1442.93,771.93,1457.09,760.21
		L1457.09,760.21z"/>
	<path class="st81" d="M439.29,1141.37c-0.64,1.82-1.94,3.25-3.51,4.12c-0.56,0.3-1.13,0.55-1.74,0.71
		c-1.44,0.4-3.03,0.36-4.56-0.18c-19.22-6.89-44.7-32.44-60.66-64.84c-5.35-10.84-9.61-22.4-12.29-34.22
		c-4-17.64-4.46-35.81,0.36-53.01c1.62-5.83,3.85-11.49,6.74-17.03c0.7-1.34,1.75-2.37,2.97-3.06c0.92-0.54,1.93-0.87,2.97-0.97
		c0.01-0.03,0.01-0.03,0.03,0.01c1.48-0.19,2.99,0.05,4.4,0.8c1.91,1,3.2,2.66,3.77,4.58c0.58,1.85,0.43,3.93-0.54,5.79
		c-0.52,0.96-0.99,1.96-1.45,2.93c-9.09,19.38-8.7,40.99-3.11,61.52c2.43,8.92,5.88,17.64,9.92,25.88
		c3.94,7.96,8.47,15.52,13.32,22.37c11.43,16.22,24.68,28.62,36.12,33.72c0.45,0.23,0.88,0.39,1.32,0.56
		c0.45,0.2,0.86,0.36,1.3,0.51C438.62,1133,440.71,1137.39,439.29,1141.37z"/>
	<path class="st81" d="M599.66,1226.16c-0.01,0.03-0.01,0.03-0.01,0.03c-0.27,0.44-0.59,0.82-0.95,1.18
		c-0.68,0.75-1.57,1.37-2.57,1.78c-1.75,0.73-3.5,1.38-5.29,1.94c-1.83,0.61-3.67,1.16-5.53,1.58c-15.87,3.93-33.19,2.79-50.36-2.12
		c-4.12-1.15-8.22-2.54-12.3-4.13c-2.17-0.85-4.35-1.78-6.51-2.73c-10.08-4.5-19.84-10.15-28.94-16.66c-2.3-1.63-4.53-3.3-6.72-5.04
		c-19.83-15.64-35.89-35.18-44.01-54.84c-0.25-0.55-0.47-1.12-0.67-1.66c-1.22-3.03-2.2-6.05-3-9.07c-0.49-1.88-0.25-3.76,0.55-5.37
		c0.95-1.92,2.7-3.4,4.91-3.98c1.77-0.46,3.56-0.27,5.1,0.45c1.89,0.82,3.41,2.42,4.08,4.46c0.09,0.18,0.16,0.37,0.2,0.56
		c6.61,25.08,29.68,50.94,57.42,67.97c24.8,15.22,53.52,23.63,77.94,16.94c2.46-0.66,4.88-1.48,7.23-2.48
		c0.37-0.16,0.73-0.26,1.09-0.35c2.46-0.63,5.03,0.04,6.89,1.66c0.87,0.73,1.58,1.69,2.05,2.81
		C601.26,1221.51,600.94,1224.13,599.66,1226.16z"/>
	<path class="st81" d="M1656.58,793.08c-2.03-2.39-2.44-5.9-0.77-8.78c4.13-7.1,7.7-16.98,10.09-28
		c3.12-14.23,4.33-30.31,2.39-44.66c-0.72-5.27-1.85-10.34-3.52-14.95c0.03-0.02-0.01-0.06-0.01-0.06
		c-2.41-6.7-5.96-12.41-11.04-16.35c-0.03-0.01-0.02-0.03-0.02-0.03c-0.66-0.48-1.34-0.96-2.05-1.42c-0.9-0.56-1.84-1.07-2.84-1.54
		c-0.97-0.47-1.83-1.12-2.5-1.88c-0.06-0.07-0.1-0.13-0.17-0.19c-1.43-1.76-2.07-4.09-1.61-6.37c0.12-0.58,0.3-1.17,0.57-1.73
		c1.08-2.26,3.09-3.77,5.36-4.25c0.3-0.07,0.65-0.12,0.97-0.14c1.28-0.12,2.62,0.11,3.88,0.68c1.24,0.57,2.41,1.21,3.57,1.9
		c1.16,0.69,2.28,1.45,3.37,2.25c0.41,0.29,0.81,0.61,1.19,0.9c11.27,9.03,17.72,23.94,20.04,41.12c0.73,5.35,1.07,10.94,1.04,16.57
		c0.02,1.41-0.02,2.82-0.06,4.25c-0.3,9.24-1.48,18.58-3.3,27.36L1656.58,793.08z"/>
	<path class="st81" d="M1657.45,669.55c-0.09,0.16-0.19,0.3-0.33,0.43c-1.41,1.72-3.54,2.78-5.86,2.79c-0.19,0.01-0.39,0-0.57-0.02
		c-1.13-0.08-2.19-0.41-3.12-0.92c-1.29-0.69-2.32-1.74-3.03-2.99c-0.57-1.01-0.91-2.12-0.97-3.31c-0.01-0.32,0-0.63,0.02-0.96
		c3.54-51.61-40.14-93.6-88.54-102.08c-5.75-1-11.57-1.52-17.36-1.53c-1.96-0.02-3.93,0.04-5.88,0.15
		c-3.86,0.21-7.22-2.46-7.95-6.17c-0.08-0.36-0.11-0.7-0.15-1.05c-0.23-4.23,3.01-7.86,7.24-8.09c1.35-0.08,2.69-0.14,4.05-0.14
		c12.15-0.27,24.32,1.48,36.05,4.97c12.67,3.73,24.81,9.47,35.82,16.86c0.66,0.45,1.32,0.91,1.99,1.36
		c9.78,6.81,18.58,14.9,26,24.07c0.71,0.85,1.39,1.73,2.07,2.6c15,19.61,23.7,43.7,21.98,69.8c0,0.11-0.02,0.21-0.01,0.31
		C1658.78,667.08,1658.26,668.43,1657.45,669.55z"/>
	<path class="st84" d="M227.5,1298.77c28.43-50.4,45.12-79.11,76.64-110.74c1.91-1.92,1.91-5.03-0.01-6.94
		c-1.92-1.91-5.03-1.91-6.94,0.01c-32.14,32.25-49.25,61.46-78.24,112.85c-1.33,2.36-0.5,5.36,1.86,6.69
		C223.18,1301.96,226.17,1301.13,227.5,1298.77L227.5,1298.77z"/>
	<path class="st84" d="M284.11,1235.94c18.53-28.87,49.15-55.51,68.86-73.55c2-1.83,2.14-4.94,0.31-6.93
		c-1.83-2-4.94-2.14-6.94-0.31c-20.2,18.5-51.49,45.9-70.49,75.49c-1.46,2.28-0.8,5.32,1.48,6.78
		C279.6,1238.88,282.64,1238.22,284.11,1235.94L284.11,1235.94z"/>
	<path class="st84" d="M232.82,1147.44c10.61-11.64,34.36-26.28,51.82-33.34c2.51-1.02,3.73-3.88,2.71-6.39
		c-1.02-2.51-3.88-3.73-6.39-2.71c-18.69,7.56-44.03,23.37-55.39,35.83c-1.82,2-1.68,5.11,0.32,6.94
		C227.89,1149.58,231,1149.44,232.82,1147.44L232.82,1147.44z"/>
	<path class="st84" d="M301.09,1109.53c16.18-5.7,36.44-8.17,46.59-7.76c2.71,0.11,4.99-2,5.1-4.71c0.11-2.71-2-4.99-4.71-5.1
		c-10.95-0.44-32.8,2.16-50.25,8.32c-2.55,0.9-3.9,3.71-3,6.26C295.73,1109.09,298.54,1110.43,301.09,1109.53L301.09,1109.53z"/>
	<path class="st84" d="M211.85,1082.14c26.91-13.15,70.29-18.26,90.24-18.06c2.71,0.03,4.93-2.15,4.96-4.86
		c0.03-2.71-2.15-4.93-4.86-4.96c-20.92-0.21-66.41,5.27-94.65,19.06c-2.43,1.19-3.44,4.13-2.25,6.56
		C206.47,1082.32,209.42,1083.33,211.85,1082.14L211.85,1082.14z"/>
	<path class="st84" d="M254.27,1083.75c19.22-6.32,48.4-5.67,56.56-3.95c2.65,0.56,5.26-1.14,5.82-3.78
		c0.56-2.65-1.14-5.26-3.79-5.82c-8.89-1.88-40.7-2.66-61.65,4.23c-2.57,0.85-3.97,3.62-3.13,6.2
		C248.92,1083.19,251.7,1084.59,254.27,1083.75L254.27,1083.75z"/>
	<path class="st84" d="M405.78,1206.68c-52.96,45.38-84.51,95.68-101.25,139.26c-0.97,2.53,0.29,5.37,2.82,6.34
		c2.53,0.97,5.37-0.29,6.34-2.82c16.27-42.36,46.99-91.21,98.47-135.32c2.06-1.76,2.29-4.87,0.53-6.92
		C410.94,1205.16,407.84,1204.92,405.78,1206.68L405.78,1206.68z"/>
	<path class="st84" d="M370.31,1271.36c-15.52,15.74-59.26,90.62-66.13,114.03c-0.76,2.6,0.73,5.33,3.32,6.09
		c2.6,0.76,5.33-0.73,6.09-3.33c6.62-22.56,48.75-94.74,63.7-109.91c1.9-1.93,1.88-5.04-0.05-6.94
		C375.32,1269.41,372.21,1269.43,370.31,1271.36L370.31,1271.36z"/>
	<path class="st84" d="M445.07,1293.68c-12.74,24.13-24.17,60.77-29.77,87.39c-0.56,2.65,1.14,5.26,3.79,5.81
		c2.65,0.56,5.26-1.14,5.81-3.79c5.43-25.83,16.48-61.41,28.85-84.83c1.27-2.4,0.35-5.37-2.05-6.63
		C449.3,1290.37,446.33,1291.29,445.07,1293.68L445.07,1293.68z"/>
	<path class="st84" d="M482.6,1248.35c-13.64,34.58-22.73,45.49-34.14,81.49c-0.82,2.58,0.61,5.34,3.19,6.16
		c2.58,0.82,5.34-0.61,6.16-3.2c11.32-35.72,20.38-46.54,33.92-80.85c0.99-2.52-0.25-5.37-2.77-6.37
		C486.44,1244.59,483.59,1245.83,482.6,1248.35L482.6,1248.35z"/>
	<path class="st84" d="M552,1255.02c-0.62,34.85-20,103.63-33.48,135.52c-1.06,2.5,0.12,5.38,2.61,6.43
		c2.49,1.06,5.38-0.12,6.43-2.61c13.84-32.75,33.61-103.39,34.25-139.17c0.05-2.71-2.11-4.95-4.82-4.99
		C554.28,1250.16,552.04,1252.32,552,1255.02L552,1255.02z"/>
	<path class="st84" d="M568.04,1275.26c0.8,24.78-15.63,72.29-23.26,91.49c-1,2.52,0.23,5.37,2.75,6.37c2.52,1,5.37-0.23,6.37-2.75
		c7.96-20.01,24.79-69.6,23.95-95.43c-0.09-2.71-2.36-4.83-5.07-4.75C570.08,1270.28,567.96,1272.55,568.04,1275.26L568.04,1275.26z
		"/>
	<path class="st84" d="M560.41,1029.19c-26.37,10.68-55.9,37.43-69.81,67.64c-9.58,20.81-11.8,43.21-1.32,63.3
		c1.25,2.4,4.22,3.34,6.62,2.08c2.4-1.25,3.33-4.22,2.08-6.62c-9.05-17.36-6.75-36.69,1.53-54.66
		c12.88-27.96,40.18-52.77,64.58-62.65c2.51-1.02,3.72-3.88,2.71-6.39C565.79,1029.39,562.92,1028.18,560.41,1029.19L560.41,1029.19
		z"/>
	<path class="st84" d="M534.03,1073.79c-13.8,12.68-24.71,32.56-28.07,50.12c-2.44,12.76-0.8,24.32,5.59,31.75
		c1.77,2.05,4.87,2.29,6.92,0.52c2.05-1.77,2.29-4.87,0.52-6.92c-4.71-5.47-5.19-14.1-3.39-23.5c3-15.67,12.74-33.42,25.07-44.74
		c2-1.83,2.13-4.94,0.3-6.94C539.13,1072.09,536.02,1071.96,534.03,1073.79L534.03,1073.79z"/>
	<path class="st84" d="M575.75,1066.95c-21.18,11.56-45.96,42.93-48.32,68.3c-0.25,2.7,1.73,5.09,4.43,5.34
		c2.7,0.25,5.09-1.73,5.34-4.43c2.1-22.58,24.4-50.31,43.25-60.59c2.38-1.3,3.26-4.28,1.96-6.66
		C581.11,1066.53,578.13,1065.65,575.75,1066.95L575.75,1066.95z"/>
	<path class="st84" d="M451.98,919.95c24.75-14.69,59.44-14.03,91.41,1.64c2.43,1.19,5.37,0.18,6.57-2.25
		c1.19-2.43,0.18-5.38-2.25-6.57c-35.24-17.26-73.48-17.45-100.75-1.26c-2.33,1.38-3.1,4.4-1.71,6.72
		C446.64,920.56,449.65,921.33,451.98,919.95L451.98,919.95z"/>
	<path class="st84" d="M473.18,926.27c18.45-5.64,37.42-3.33,53.8,5.27c2.4,1.26,5.37,0.34,6.63-2.06c1.26-2.4,0.34-5.37-2.06-6.63
		c-18.64-9.79-40.24-12.39-61.24-5.97c-2.59,0.79-4.05,3.54-3.26,6.13C467.84,925.6,470.59,927.06,473.18,926.27L473.18,926.27z"/>
	<path class="st84" d="M515.45,942.65c14.36,0.3,47.2,15.18,60.82,27.5c2.01,1.82,5.12,1.66,6.93-0.35
		c1.82-2.01,1.66-5.12-0.35-6.93c-15.03-13.59-51.37-29.7-67.2-30.03c-2.71-0.06-4.95,2.1-5.01,4.8
		C510.59,940.35,512.74,942.6,515.45,942.65L515.45,942.65z"/>
	<path class="st84" d="M436.18,986.84c-4.7,0.41-10.12,3.02-15.1,7.75c-10.28,9.75-19.09,28.75-15.22,51.95
		c0.45,2.67,2.98,4.48,5.65,4.04c2.67-0.44,4.48-2.97,4.03-5.65c-2.76-16.58,2.03-30.64,8.88-39.43c4-5.13,8.55-8.52,12.6-8.87
		c2.7-0.23,4.7-2.61,4.47-5.31C441.26,988.61,438.88,986.61,436.18,986.84L436.18,986.84z"/>
	<path class="st84" d="M434.48,1017.21c-8.49,9.28-11.71,22.42-11.62,34.64c0.09,12.29,3.57,23.53,7.69,28.93
		c1.64,2.16,4.72,2.57,6.88,0.93c2.16-1.64,2.57-4.72,0.93-6.88c-3.26-4.28-5.61-13.31-5.68-23.05c-0.07-9.82,2.22-20.48,9.05-27.94
		c1.83-2,1.69-5.1-0.31-6.93C439.41,1015.07,436.31,1015.21,434.48,1017.21L434.48,1017.21z"/>
	<path class="st84" d="M397.73,994.59c-6.72,10.95-10.34,28.77-8.67,47.19c1.67,18.38,8.55,37.29,22.3,50.52
		c1.95,1.88,5.06,1.82,6.94-0.14c1.88-1.95,1.82-5.06-0.13-6.94c-12.05-11.58-17.87-28.23-19.33-44.32
		c-1.46-16.06,1.4-31.63,7.26-41.17c1.42-2.31,0.69-5.34-1.62-6.75C402.18,991.56,399.15,992.28,397.73,994.59L397.73,994.59z"/>
	<path class="st84" d="M682.01,1081.98c19.61,10.23,39.2,25.6,52.08,41.66c8.12,10.13,13.61,20.45,14.23,29.87
		c0.18,2.7,2.52,4.75,5.22,4.58c2.7-0.18,4.75-2.52,4.58-5.22c-0.73-11.1-6.8-23.44-16.36-35.37c-13.66-17.03-34.4-33.38-55.2-44.22
		c-2.4-1.25-5.37-0.32-6.62,2.08C678.67,1077.76,679.61,1080.73,682.01,1081.98L682.01,1081.98z"/>
	<path class="st84" d="M704.05,1116.71c9.05,6.31,17.89,16.01,22.98,25.33c2.97,5.44,4.78,10.65,3.94,14.82
		c-0.54,2.65,1.18,5.25,3.83,5.78c2.66,0.54,5.25-1.18,5.79-3.83c1.22-5.99-0.67-13.67-4.94-21.48
		c-5.76-10.55-15.74-21.54-25.98-28.68c-2.22-1.55-5.28-1.01-6.83,1.22C701.28,1112.1,701.82,1115.16,704.05,1116.71L704.05,1116.71
		z"/>
	<path class="st84" d="M607.65,1150.32c-3.47,31.51,7.44,65.7,28.44,86.02c1.95,1.88,5.06,1.83,6.94-0.11
		c1.88-1.95,1.83-5.06-0.11-6.94c-18.99-18.38-28.65-49.39-25.51-77.89c0.3-2.69-1.65-5.12-4.34-5.42
		C610.37,1145.68,607.95,1147.62,607.65,1150.32L607.65,1150.32z"/>
	<path class="st84" d="M626.14,1186.37c2.47,14.01,14.5,34.88,24.03,41.27c2.25,1.51,5.3,0.91,6.81-1.35
		c1.51-2.25,0.91-5.3-1.34-6.81c-8-5.36-17.76-23.07-19.83-34.82c-0.47-2.67-3.02-4.45-5.69-3.98
		C627.46,1181.15,625.67,1183.7,626.14,1186.37L626.14,1186.37z"/>
	<path class="st84" d="M626.72,902.49c48.47,4.2,99.97,29.41,136.31,76.31c1.66,2.14,4.74,2.53,6.89,0.87
		c2.14-1.66,2.53-4.75,0.87-6.89c-38.17-49.26-92.31-75.67-143.22-80.07c-2.7-0.23-5.08,1.77-5.31,4.46
		C622.02,899.87,624.02,902.25,626.72,902.49L626.72,902.49z"/>
	<path class="st84" d="M641.82,930.56c37.35,3.04,69.51,25.54,91.76,48.49c1.88,1.95,4.99,2,6.94,0.11c1.95-1.89,2-5,0.11-6.94
		c-23.73-24.48-58.17-48.2-98.01-51.44c-2.7-0.22-5.07,1.79-5.29,4.49C637.11,927.97,639.12,930.34,641.82,930.56L641.82,930.56z"/>
	<path class="st84" d="M654.59,954.62c44.33,14.8,106.66,62.21,126.63,89.97c1.58,2.2,4.65,2.7,6.85,1.12
		c2.2-1.58,2.7-4.65,1.12-6.85c-20.74-28.84-85.43-78.17-131.49-93.55c-2.57-0.86-5.35,0.53-6.21,3.1
		C650.63,950.98,652.02,953.77,654.59,954.62L654.59,954.62z"/>
	<path class="st84" d="M778.96,841.37c61.81-2.91,117.48,36.69,148.52,74.21c1.73,2.09,4.82,2.38,6.91,0.65
		c2.09-1.73,2.38-4.82,0.65-6.91c-32.68-39.5-91.47-80.83-156.54-77.76c-2.71,0.13-4.8,2.43-4.67,5.13
		C773.96,839.4,776.26,841.49,778.96,841.37L778.96,841.37z"/>
	<path class="st84" d="M796.31,863.83c12.37-0.64,27.91,5.35,43.22,13.67c23.79,12.93,46.94,31.74,57.17,42.89
		c1.83,2,4.94,2.13,6.93,0.3c2-1.83,2.13-4.94,0.3-6.94c-10.69-11.65-34.85-31.37-59.71-44.88c-17.11-9.3-34.6-15.57-48.42-14.85
		c-2.71,0.14-4.79,2.45-4.65,5.16C791.29,861.89,793.6,863.97,796.31,863.83L796.31,863.83z"/>
	<path class="st84" d="M726.46,864.99c23.48-1.69,53.12,8.08,82.89,23.08c45.43,22.91,91.07,58.21,115.83,85.89
		c1.81,2.02,4.91,2.19,6.93,0.39c2.02-1.81,2.19-4.91,0.39-6.93c-25.39-28.38-72.15-64.63-118.73-88.11
		c-31.57-15.92-63.11-25.9-88.01-24.11c-2.7,0.19-4.74,2.55-4.54,5.25C721.4,863.15,723.76,865.18,726.46,864.99L726.46,864.99z"/>
	<path class="st84" d="M943.28,775.39c53.06-4.84,125.14,17.34,159.18,71.79c1.44,2.3,4.47,3,6.76,1.56
		c2.3-1.44,2.99-4.47,1.56-6.76c-36.05-57.66-112.21-81.49-168.39-76.36c-2.7,0.25-4.69,2.64-4.44,5.33
		C938.19,773.65,940.58,775.64,943.28,775.39L943.28,775.39z"/>
	<path class="st84" d="M968.97,790.41c38.82,4.38,73.1,22.94,94.9,51.02c1.66,2.14,4.75,2.53,6.89,0.87
		c2.14-1.66,2.53-4.75,0.87-6.89c-23.34-30.07-59.98-50.06-101.55-54.75c-2.69-0.3-5.13,1.64-5.43,4.33
		C964.34,787.67,966.28,790.1,968.97,790.41L968.97,790.41z"/>
	<path class="st84" d="M933.31,810.5c12.53-1.03,30.81,4.01,47.83,12.09c16.97,8.05,32.76,19.12,40.08,30.8
		c1.44,2.3,4.47,2.99,6.76,1.56c2.3-1.44,2.99-4.47,1.56-6.77c-8.11-12.95-25.38-25.54-44.19-34.46c-18.77-8.9-39.02-14.13-52.84-13
		c-2.7,0.22-4.71,2.59-4.49,5.29C928.23,808.71,930.6,810.72,933.31,810.5L933.31,810.5z"/>
	<path class="st84" d="M1033.53,837.51c25.42,14.46,55.37,51.27,61.53,70.28c0.83,2.58,3.61,3.99,6.18,3.16
		c2.58-0.83,3.99-3.6,3.16-6.18c-6.63-20.46-38.67-60.23-66.01-75.79c-2.36-1.34-5.35-0.52-6.7,1.84
		C1030.35,833.17,1031.18,836.17,1033.53,837.51L1033.53,837.51z"/>
	<path class="st84" d="M1130.25,728.58c39.32-2.13,83.64,14.64,116.67,40.5c21.8,17.06,38.71,38.09,45.75,60.39
		c0.82,2.58,3.58,4.02,6.16,3.2c2.59-0.81,4.02-3.57,3.2-6.16c-7.57-24.01-25.59-46.8-49.06-65.17
		c-34.87-27.3-81.74-44.82-123.25-42.57c-2.71,0.15-4.78,2.46-4.64,5.17C1125.23,726.65,1127.54,728.73,1130.25,728.58
		L1130.25,728.58z"/>
	<path class="st84" d="M1159.05,746.53c31.22,5.52,82.88,35.14,99.66,59.21c1.55,2.22,4.61,2.77,6.83,1.22
		c2.22-1.55,2.77-4.61,1.22-6.83c-17.88-25.64-72.76-57.38-106.01-63.26c-2.67-0.47-5.22,1.31-5.69,3.98
		C1154.59,743.5,1156.38,746.06,1159.05,746.53L1159.05,746.53z"/>
	<path class="st84" d="M1112.11,753.7c26.13,6.12,57.44,23.32,79.93,41.13c14.38,11.39,25.23,22.86,28.08,31.87
		c0.82,2.58,3.58,4.02,6.16,3.2c2.58-0.82,4.02-3.58,3.2-6.16c-2.46-7.79-9.79-17.43-20.37-27.23
		c-23.42-21.7-62.81-44.89-94.77-52.37c-2.64-0.62-5.28,1.02-5.9,3.66C1107.83,750.44,1109.47,753.08,1112.11,753.7L1112.11,753.7z"
		/>
	<path class="st84" d="M1188.61,712.97c11.4,1.92,27.54,9.75,40.21,17.97c8.14,5.28,14.87,10.65,17.65,14.8
		c1.51,2.25,4.56,2.85,6.81,1.35c2.25-1.51,2.85-4.56,1.35-6.81c-3.26-4.87-10.94-11.4-20.47-17.58
		c-13.82-8.96-31.49-17.32-43.92-19.41c-2.67-0.45-5.21,1.35-5.65,4.03C1184.14,709.99,1185.94,712.53,1188.61,712.97
		L1188.61,712.97z"/>
	<path class="st84" d="M1301.42,696.91c22.61,2.83,43.88,16.9,60.57,32.76c16.78,15.95,28.98,33.77,33.02,44.39
		c0.96,2.53,3.8,3.8,6.33,2.84c2.53-0.96,3.8-3.8,2.84-6.33c-4.37-11.45-17.34-30.81-35.43-48.01
		c-18.18-17.28-41.49-32.31-66.12-35.39c-2.69-0.34-5.14,1.57-5.48,4.26C1296.82,694.12,1298.73,696.57,1301.42,696.91
		L1301.42,696.91z"/>
	<path class="st84" d="M1328.84,722.1c20.52,10.29,36.44,29.83,49.41,52.51c1.34,2.35,4.35,3.17,6.7,1.82
		c2.35-1.34,3.17-4.35,1.82-6.7c-13.99-24.46-31.4-45.32-53.53-56.42c-2.42-1.21-5.37-0.23-6.59,2.19
		C1325.44,717.94,1326.42,720.89,1328.84,722.1L1328.84,722.1z"/>
	<path class="st84" d="M1303.73,723.77c11.35,5.93,28.47,23.47,41.26,40.37c8.31,10.98,14.86,21.66,16.38,28.73
		c0.57,2.65,3.18,4.34,5.83,3.77c2.65-0.57,4.34-3.18,3.77-5.83c-1.71-7.98-8.77-20.2-18.15-32.59
		c-13.74-18.16-32.34-36.77-44.54-43.15c-2.4-1.25-5.37-0.33-6.62,2.07C1300.4,719.55,1301.33,722.52,1303.73,723.77L1303.73,723.77
		z"/>
	<path class="st84" d="M1508.92,592.87c-16.19-16.67-43.87-22.6-69.98-19.49c-26.27,3.13-50.66,15.46-60.28,33.86
		c-1.25,2.4-0.32,5.37,2.08,6.62c2.4,1.25,5.37,0.33,6.63-2.08c8.35-15.98,29.93-25.94,52.75-28.66
		c22.98-2.74,47.51,1.91,61.77,16.58c1.89,1.94,5,1.99,6.94,0.1C1510.76,597.92,1510.81,594.81,1508.92,592.87L1508.92,592.87z"/>
	<path class="st84" d="M1483.68,595.62c-11.14-4.73-27.84-5.43-44.23-2.54c-16.33,2.87-32.3,9.27-42.18,18.16
		c-2.01,1.81-2.18,4.92-0.37,6.93c1.81,2.01,4.92,2.18,6.93,0.37c8.72-7.85,22.91-13.25,37.32-15.79
		c14.34-2.52,28.95-2.23,38.69,1.91c2.49,1.06,5.38-0.11,6.44-2.6C1487.34,599.56,1486.17,596.68,1483.68,595.62L1483.68,595.62z"/>
	<path class="st84" d="M1478.91,555.82c-13.69-7.34-44.71-7.21-64.12,6.3c-2.22,1.55-2.77,4.61-1.23,6.83
		c1.55,2.22,4.61,2.77,6.83,1.23c16.33-11.36,42.36-11.87,53.88-5.7c2.39,1.28,5.37,0.38,6.65-2.01
		C1482.2,560.08,1481.3,557.1,1478.91,555.82L1478.91,555.82z"/>
	<path class="st84" d="M1485.99,626.09c-14.49-5.63-45.45-2.9-70.47,6.26c-17.31,6.33-31.63,15.85-36.64,26.98
		c-1.11,2.47-0.01,5.38,2.46,6.49c2.47,1.11,5.38,0.01,6.49-2.46c4.18-9.28,16.63-16.51,31.07-21.79
		c22.59-8.27,50.47-11.4,63.55-6.32c2.52,0.98,5.37-0.27,6.35-2.8C1489.77,629.92,1488.52,627.07,1485.99,626.09L1485.99,626.09z"/>
	<path class="st84" d="M1559.42,600.3c29.4-1.36,48.38,22.51,58.4,42.1c1.23,2.41,4.19,3.37,6.6,2.13c2.41-1.23,3.37-4.19,2.13-6.6
		c-11.49-22.47-33.87-48.99-67.59-47.43c-2.71,0.13-4.8,2.42-4.68,5.13C1554.41,598.33,1556.71,600.43,1559.42,600.3L1559.42,600.3z
		"/>
	<path class="st84" d="M1568.65,623.36c12.58,3.82,28.1,18.35,31.64,24.5c1.35,2.35,4.35,3.16,6.7,1.81
		c2.35-1.35,3.16-4.35,1.81-6.7c-4.17-7.26-22.44-24.49-37.29-29c-2.59-0.79-5.33,0.68-6.12,3.27
		C1564.6,619.83,1566.06,622.58,1568.65,623.36L1568.65,623.36z"/>
	<path class="st84" d="M1638.8,722.48c10.95,33.67-5.2,66.02-24.42,75.7c-2.42,1.22-3.39,4.17-2.18,6.59
		c1.22,2.42,4.17,3.39,6.59,2.17c22.29-11.23,42.04-48.44,29.33-87.5c-0.84-2.57-3.61-3.99-6.18-3.15
		C1639.38,717.13,1637.97,719.9,1638.8,722.48L1638.8,722.48z"/>
	<path class="st84" d="M1617.26,736.45c1.23,9.67-4.85,20-12.96,28.05c-8.23,8.17-18.73,14.14-27.13,14.07
		c-2.71-0.02-4.93,2.16-4.95,4.87c-0.02,2.71,2.16,4.93,4.86,4.95c10.47,0.09,23.87-6.73,34.13-16.92
		c10.38-10.3,17.36-23.88,15.78-36.26c-0.34-2.69-2.8-4.59-5.49-4.25C1618.81,731.3,1616.91,733.77,1617.26,736.45L1617.26,736.45z"
		/>
	<path class="st84" d="M1608.64,784.44c-6.74,8.06-17.94,13.2-26.49,14.56c-2.67,0.43-4.5,2.94-4.07,5.62
		c0.43,2.68,2.95,4.5,5.62,4.07c10.49-1.67,24.19-8.06,32.47-17.95c1.74-2.08,1.46-5.18-0.62-6.91
		C1613.48,782.08,1610.38,782.36,1608.64,784.44L1608.64,784.44z"/>
	<path class="st84" d="M1556.33,838.05c-10.31,9.28-28.71,14.53-47.99,14.62c-19.43,0.09-39.86-5.11-54.07-17.48
		c-2.04-1.78-5.15-1.57-6.92,0.48c-1.78,2.04-1.57,5.15,0.48,6.93c15.94,13.88,38.76,20,60.56,19.89
		c21.96-0.1,42.76-6.57,54.51-17.14c2.01-1.81,2.18-4.92,0.36-6.93C1561.45,836.4,1558.34,836.23,1556.33,838.05L1556.33,838.05z"/>
	<path class="st84" d="M1531.31,827.84c-4.92,4.17-12.28,6.39-20.33,7.16c-12.78,1.23-27.33-1.28-37.74-6.81
		c-2.39-1.27-5.37-0.36-6.64,2.03c-1.27,2.39-0.36,5.37,2.03,6.64c11.94,6.34,28.62,9.32,43.28,7.91
		c10.24-0.98,19.49-4.14,25.75-9.45c2.07-1.75,2.32-4.85,0.57-6.92C1536.48,826.34,1533.38,826.09,1531.31,827.84L1531.31,827.84z"
		/>
	<path class="st84" d="M1514.96,805.4c-11.11,7.73-34.35,9.86-56.53,0.07c-2.48-1.09-5.38,0.03-6.47,2.51
		c-1.09,2.48,0.03,5.38,2.51,6.47c25.94,11.45,53.1,8.05,66.1-0.99c2.22-1.55,2.77-4.61,1.23-6.83
		C1520.25,804.41,1517.19,803.86,1514.96,805.4L1514.96,805.4z"/>
	<path class="st84" d="M1725.98,422.41c-28.96,12.13-63.37,43.12-84.39,67.16c-1.79,2.04-1.58,5.14,0.46,6.93
		c2.04,1.78,5.14,1.57,6.93-0.46c20.16-23.05,53.02-52.94,80.8-64.57c2.5-1.04,3.68-3.92,2.63-6.42
		C1731.36,422.54,1728.48,421.36,1725.98,422.41L1725.98,422.41z"/>
	<path class="st84" d="M1695.95,461.52c-14.22,9.02-49.21,38.1-69.79,59.92c-1.86,1.97-1.77,5.08,0.2,6.94
		c1.97,1.86,5.08,1.77,6.94-0.2c20.04-21.24,54.07-49.59,67.91-58.36c2.29-1.45,2.97-4.49,1.52-6.77
		C1701.28,460.75,1698.24,460.07,1695.95,461.52L1695.95,461.52z"/>
	<path class="st84" d="M1742.54,482.44c-14.59,8.9-35.61,21.45-53.92,35.37c-2.16,1.64-2.58,4.72-0.94,6.88
		c1.64,2.15,4.72,2.58,6.88,0.94c18.03-13.7,38.73-26.04,53.09-34.8c2.31-1.41,3.04-4.44,1.63-6.75
		C1747.88,481.76,1744.85,481.03,1742.54,482.44L1742.54,482.44z"/>
	<path class="st84" d="M1704.98,522.01c-8.05,6.52-31.78,23.49-43.31,30.41c-2.32,1.4-3.07,4.41-1.68,6.73
		c1.4,2.32,4.41,3.08,6.73,1.68c11.82-7.1,36.18-24.51,44.43-31.2c2.1-1.71,2.43-4.8,0.72-6.9
		C1710.18,520.63,1707.08,520.3,1704.98,522.01L1704.98,522.01z"/>
	<path class="st84" d="M1807.16,502.36c-17.84,12.28-42.24,30.47-60.07,42.77c-2.23,1.54-2.79,4.6-1.25,6.83
		c1.54,2.23,4.6,2.79,6.83,1.25c17.82-12.3,42.22-30.49,60.06-42.77c2.23-1.54,2.79-4.6,1.26-6.83
		C1812.45,501.38,1809.39,500.82,1807.16,502.36L1807.16,502.36z"/>
	<path class="st84" d="M1771.67,544.02c-14.29,10.49-49.06,32.6-62.35,38.68c-2.46,1.13-3.55,4.04-2.42,6.51
		c1.13,2.46,4.04,3.55,6.51,2.42c13.66-6.25,49.39-28.92,64.07-39.69c2.18-1.6,2.66-4.68,1.05-6.86
		C1776.92,542.89,1773.85,542.42,1771.67,544.02L1771.67,544.02z"/>
	<path class="st84" d="M1728.81,547.24c-12.06,10.15-38.78,26.71-52.97,35.29c-2.32,1.4-3.06,4.42-1.66,6.74
		c1.4,2.32,4.42,3.06,6.74,1.66c14.52-8.79,41.86-25.78,54.21-36.18c2.07-1.75,2.34-4.85,0.59-6.92
		C1733.98,545.77,1730.88,545.5,1728.81,547.24L1728.81,547.24z"/>
	<path class="st84" d="M1821.54,564.21c-16.34,4.09-44.11,21.02-60.28,28.38c-2.47,1.12-3.56,4.04-2.43,6.5
		c1.12,2.46,4.04,3.56,6.5,2.43c15.74-7.17,42.69-23.81,58.6-27.8c2.63-0.66,4.23-3.33,3.57-5.95
		C1826.84,565.15,1824.17,563.55,1821.54,564.21L1821.54,564.21z"/>
	<path class="st84" d="M1783.52,594.42c-19.71,9.66-56.12,27.36-71.46,33.79c-2.5,1.04-3.68,3.92-2.63,6.42
		c1.05,2.5,3.92,3.68,6.42,2.63c15.45-6.47,52.13-24.3,71.98-34.03c2.43-1.19,3.44-4.13,2.25-6.57
		C1788.9,594.23,1785.96,593.23,1783.52,594.42L1783.52,594.42z"/>
	<path class="st84" d="M1810.56,618.77c-19.4,4.33-48.42,16.48-66.62,24.34c-2.49,1.08-3.63,3.97-2.56,6.45
		c1.08,2.49,3.97,3.63,6.45,2.56c17.73-7.66,45.96-19.55,64.86-23.77c2.65-0.59,4.31-3.22,3.72-5.86
		C1815.83,619.85,1813.2,618.18,1810.56,618.77L1810.56,618.77z"/>
	<path class="st84" d="M1815.64,682.34c-20.2-1.86-44.47-1.84-71.08,2.84c-2.67,0.47-4.45,3.02-3.98,5.69
		c0.47,2.67,3.02,4.45,5.69,3.98c25.63-4.51,49.01-4.52,68.48-2.73c2.7,0.25,5.09-1.74,5.34-4.44
		C1820.33,684.98,1818.34,682.59,1815.64,682.34L1815.64,682.34z"/>
	<path class="st84" d="M1774.5,697.48c-15.46-2-51.15,2.46-71.44,7.5c-2.63,0.65-4.23,3.32-3.58,5.94c0.65,2.63,3.31,4.24,5.94,3.58
		c19.26-4.77,53.13-9.19,67.81-7.29c2.69,0.35,5.15-1.55,5.5-4.24C1779.09,700.29,1777.19,697.83,1774.5,697.48L1774.5,697.48z"/>
	<path class="st84" d="M1756.8,750.73c28.47,2.63,47.55,6.9,68.65,16.23c2.48,1.1,5.38-0.03,6.47-2.51c1.1-2.48-0.03-5.38-2.51-6.47
		c-22.05-9.75-41.97-14.28-71.72-17.03c-2.7-0.25-5.09,1.74-5.34,4.44C1752.11,748.09,1754.1,750.48,1756.8,750.73L1756.8,750.73z"
		/>
</g>
</svg>
