<?xml version="1.0" encoding="utf-8"?>
<!-- Generator: Adobe Illustrator 26.4.1, SVG Export Plug-In . SVG Version: 6.00 Build 0)  -->
<svg version="1.1" id="Layer_1" xmlns="http://www.w3.org/2000/svg" xmlns:xlink="http://www.w3.org/1999/xlink" x="0px" y="0px"
	 viewBox="0 0 2000 2000" style="enable-background:new 0 0 2000 2000;" xml:space="preserve">
<style type="text/css">
	.st0{fill-rule:evenodd;clip-rule:evenodd;fill:#145468;}
	.st1{fill-rule:evenodd;clip-rule:evenodd;fill:#3B7A7A;}
	.st2{fill-rule:evenodd;clip-rule:evenodd;fill:#098B8D;}
	.st3{fill-rule:evenodd;clip-rule:evenodd;fill:#689595;}
	.st4{fill-rule:evenodd;clip-rule:evenodd;fill:#679595;}
	.st5{fill-rule:evenodd;clip-rule:evenodd;fill:#CEE4E4;}
	
		.st6{fill-rule:evenodd;clip-rule:evenodd;fill:#145468;stroke:#CEE4E4;stroke-width:5;stroke-linecap:round;stroke-linejoin:round;stroke-miterlimit:10;}
	.st7{fill-rule:evenodd;clip-rule:evenodd;fill:#043A60;}
	.st8{fill-rule:evenodd;clip-rule:evenodd;fill:#FD9A65;}
	.st9{fill-rule:evenodd;clip-rule:evenodd;fill:#18658D;}
	.st10{fill-rule:evenodd;clip-rule:evenodd;fill:#9FCDE5;}
	.st11{fill-rule:evenodd;clip-rule:evenodd;fill:#56A8D3;}
	.st12{fill-rule:evenodd;clip-rule:evenodd;fill:#276383;}
	.st13{fill-rule:evenodd;clip-rule:evenodd;fill:#E0F0F8;}
	.st14{fill-rule:evenodd;clip-rule:evenodd;fill:#A51E1C;}
	.st15{fill-rule:evenodd;clip-rule:evenodd;fill:#CB442D;}
	.st16{fill-rule:evenodd;clip-rule:evenodd;fill:#DC5A44;}
	.st17{fill-rule:evenodd;clip-rule:evenodd;fill:#F7BD54;}
	.st18{fill-rule:evenodd;clip-rule:evenodd;fill:#E46B37;}
	.st19{fill-rule:evenodd;clip-rule:evenodd;fill:#B67227;}
	.st20{fill-rule:evenodd;clip-rule:evenodd;fill:#D78A35;}
	.st21{fill-rule:evenodd;clip-rule:evenodd;fill:#A4331F;}
	.st22{fill-rule:evenodd;clip-rule:evenodd;fill:#F2A550;}
	.st23{fill-rule:evenodd;clip-rule:evenodd;fill:#F9E9D6;}
	.st24{fill-rule:evenodd;clip-rule:evenodd;fill:#844013;}
	.st25{fill-rule:evenodd;clip-rule:evenodd;fill:#A04E18;}
	.st26{fill-rule:evenodd;clip-rule:evenodd;fill:#F8B872;}
	.st27{fill-rule:evenodd;clip-rule:evenodd;fill:#FFC689;}
	.st28{fill-rule:evenodd;clip-rule:evenodd;fill:#B6844D;}
	.st29{fill-rule:evenodd;clip-rule:evenodd;fill:#CA5320;}
	.st30{fill-rule:evenodd;clip-rule:evenodd;fill:#D76332;}
	.st31{fill-rule:evenodd;clip-rule:evenodd;fill:#812F0C;}
	.st32{fill-rule:evenodd;clip-rule:evenodd;fill:#8A460F;}
	.st33{fill-rule:evenodd;clip-rule:evenodd;fill:#B46914;}
	.st34{fill-rule:evenodd;clip-rule:evenodd;fill:#B54515;}
	.st35{fill-rule:evenodd;clip-rule:evenodd;fill:#FFCD71;}
	.st36{fill-rule:evenodd;clip-rule:evenodd;fill:#95B41D;}
	.st37{fill-rule:evenodd;clip-rule:evenodd;fill:#A8C731;}
	.st38{fill-rule:evenodd;clip-rule:evenodd;fill:#85A214;}
	.st39{fill-rule:evenodd;clip-rule:evenodd;fill:#C6EF28;}
	.st40{fill-rule:evenodd;clip-rule:evenodd;fill:#ED982B;}
	.st41{fill-rule:evenodd;clip-rule:evenodd;fill:#FCCF7C;}
	.st42{fill-rule:evenodd;clip-rule:evenodd;fill:#FFE8BC;}
	.st43{fill-rule:evenodd;clip-rule:evenodd;fill:#ED6961;}
	.st44{fill-rule:evenodd;clip-rule:evenodd;fill:#696E1E;}
	.st45{fill-rule:evenodd;clip-rule:evenodd;fill:#9CA42A;}
	.st46{fill-rule:evenodd;clip-rule:evenodd;fill:#7F8615;}
	.st47{fill-rule:evenodd;clip-rule:evenodd;fill:#FFEECF;}
	.st48{fill-rule:evenodd;clip-rule:evenodd;fill:#77786D;}
	.st49{fill-rule:evenodd;clip-rule:evenodd;fill:#D3D5C6;}
	.st50{fill-rule:evenodd;clip-rule:evenodd;fill:#7C7A7A;}
	.st51{fill-rule:evenodd;clip-rule:evenodd;fill:#DBDCD9;}
	.st52{fill-rule:evenodd;clip-rule:evenodd;fill:#CA372D;}
	.st53{fill-rule:evenodd;clip-rule:evenodd;fill:#FE7D75;}
	.st54{fill-rule:evenodd;clip-rule:evenodd;fill:#B0B0B0;}
	.st55{fill-rule:evenodd;clip-rule:evenodd;fill:#888787;}
	.st56{fill-rule:evenodd;clip-rule:evenodd;fill:#6E6E6E;}
	.st57{fill-rule:evenodd;clip-rule:evenodd;fill:#757575;}
	.st58{fill-rule:evenodd;clip-rule:evenodd;fill:#60341E;}
	.st59{fill-rule:evenodd;clip-rule:evenodd;fill:#B0451B;}
	.st60{fill-rule:evenodd;clip-rule:evenodd;fill:#8A4727;}
	.st61{fill-rule:evenodd;clip-rule:evenodd;fill:#FABB64;}
	.st62{fill-rule:evenodd;clip-rule:evenodd;fill:#3E88AF;}
	.st63{fill-rule:evenodd;clip-rule:evenodd;fill:#5BA0C5;}
	.st64{fill-rule:evenodd;clip-rule:evenodd;fill:#FFF1DE;}
	.st65{fill-rule:evenodd;clip-rule:evenodd;fill:#F8B89B;}
	.st66{fill-rule:evenodd;clip-rule:evenodd;fill:#E98A5F;}
	.st67{fill-rule:evenodd;clip-rule:evenodd;fill:#FFCAB3;}
	.st68{fill-rule:evenodd;clip-rule:evenodd;fill:#F9A580;}
	.st69{fill-rule:evenodd;clip-rule:evenodd;fill:#FFDFD2;}
	.st70{fill-rule:evenodd;clip-rule:evenodd;fill:#E2A85C;}
	.st71{fill-rule:evenodd;clip-rule:evenodd;fill:#C68446;}
	.st72{fill-rule:evenodd;clip-rule:evenodd;fill:#F2BC75;}
	.st73{fill-rule:evenodd;clip-rule:evenodd;fill:#F2BC76;}
	.st74{fill-rule:evenodd;clip-rule:evenodd;fill:#FFD69F;}
	.st75{fill-rule:evenodd;clip-rule:evenodd;fill:#E7624B;}
	.st76{fill-rule:evenodd;clip-rule:evenodd;fill:#FFEED9;}
	.st77{fill-rule:evenodd;clip-rule:evenodd;fill:#C26E11;}
	.st78{fill-rule:evenodd;clip-rule:evenodd;fill:#F39226;}
	.st79{fill-rule:evenodd;clip-rule:evenodd;fill:#DF5020;}
	.st80{fill-rule:evenodd;clip-rule:evenodd;fill:#2C140B;}
	.st81{fill-rule:evenodd;clip-rule:evenodd;fill:#FFFFFF;}
	.st82{fill-rule:evenodd;clip-rule:evenodd;}
	.st83{fill-rule:evenodd;clip-rule:evenodd;fill:#A96F3E;}
	.st84{fill-rule:evenodd;clip-rule:evenodd;fill:#683A15;}
	.st85{fill-rule:evenodd;clip-rule:evenodd;fill:#F0DCCB;}
	.st86{fill-rule:evenodd;clip-rule:evenodd;fill:#E6D1B6;}
	.st87{fill-rule:evenodd;clip-rule:evenodd;fill:#69553C;}
</style>
<g>
	<path class="st17" d="M1045.28,1066.62c-13.44,3.74-34.78-17.44-36.35-20.77c-24.13-51.33-2.2-70.19-2.2-70.19
		s-11.3-20.6-8.71-44.73c3.23-30.09,12.55-37.15,12.55-37.15s-14.49-36.83-19.23-53.06c-8.18-28.04,4.35-45.77,4.35-45.77
		s-23.19-20.77-25.16-53.95c-1.41-23.82,10.14-46.89,10.14-46.89s-9.51-34.24-10.81-61.76c-1.88-39.81,19.79-66.13,19.79-66.13
		s-14.3-28.85-11.68-57.78c5.17-57.23,44.79-77.03,44.79-77.03s-23.44-32.23-11.14-69.9c8.45-25.89,35.2-44.22,35.2-44.22
		s-2.97-33.67,26.14-64.16c21.11-22.11,46.78-31.04,46.78-31.04s8.51-34.58,35.75-61.35c30.93-30.4,62-31.38,62-31.38
		s37.28-45.4,88.26-50.48c32.05-3.2,58.62,8.17,58.62,8.17s47.64-12.83,73.31-1.9c39.41,16.77,48.94,46.82,48.94,46.82
		s29.23,1.32,47.15,22.69c24.03,28.65,25.88,75.76,25.88,75.76s28.69,20.4,33.13,50.68c4.11,28.05-12.7,60.29-12.7,60.29
		s22.8,24.7,23.66,53.56c0.91,30.49-23.45,76.87-23.45,76.87s16.52,49.53,0.09,102.4c-16.42,52.84-54.79,83.98-54.79,83.98
		s-3.93,59.23-24.2,96.95c-20.88,38.88-57.72,60.36-57.72,60.36s10.3,34.34-7.62,64.37c-23.83,39.95-54.7,49.06-54.7,49.06
		s-3.62,43.98-29.04,68.42c-26.98,25.94-59.55,34.61-59.55,34.61s-1.33,34.91-40.86,68c-31.66,26.51-83.71,33.74-99.34,28.93
		c-24.45-7.52-71.51-11.81-70.96-41.54c0.72-38.68,29.42-62.31,29.42-62.31s5.44-31.9,20.1-50.75
		c15.26-19.62,37.02-25.41,37.02-25.41s-6.86-23.84,5.05-57.87c11.89-33.98,45.14-45.98,45.14-45.98s-5.79-35.57,19.77-71.37
		c19.29-27,46-25.56,46-25.56s-7.84-29.78,6.92-62.31c14.91-32.85,41.54-39.81,41.54-39.81s-2.91-21.3,7.76-46.6
		c14.91-35.36,39.1-46.99,39.1-46.99s-1.6-28.21,9.1-57.2c13.33-36.14,45.17-55.98,45.17-55.98s-16.97-32.85-11.17-72.01
		c5.32-35.94,19.09-53.53,19.09-53.53s-16.19-15.14-23.53-38.21c-7.57-23.82-4.16-46.6-4.16-46.6s-10.95-0.07-28.9-9.93
		c-12.45-6.84-23.46-16.02-23.46-16.02s-9.48,9.16-31.37,22.62c-18.89,11.63-39.68,8.13-39.68,8.13
		c5.28,1.22-11.37,28.23-21.06,37.39c-16.3,15.41-41.48,20.55-41.48,20.55s6.89,21.83-9.25,48.61
		c-12.81,21.26-34.61,31.6-34.61,31.6s4.6,26.73-4.1,45.64c-8.42,18.3-27.79,37.44-27.79,37.44s6.65,23.57,3.64,52.14
		c-2.86,27.12-11.26,40.84-11.26,40.84s15.58,20.13,13.67,45.76c-3.66,49.18-20.49,60.05-20.49,60.05s14.95,21.88,10.77,60.94
		c-2.73,25.46-25.99,63.18-25.99,63.18s9.8,39.86,7.62,60.43c-3.22,30.38-19.42,45.83-19.42,45.83s4,40.24,2.07,52.52
		c-4.93,31.41-22.59,41.72-22.59,41.72s14.62,20.04,4.18,43.74C1084.2,1045.38,1059.54,1062.66,1045.28,1066.62L1045.28,1066.62z"/>
	<path class="st40" d="M892.65,1487.6c-0.52,2.03-1.17,4.08-1.87,6.11c-1.32,3.84-2.95,7.67-4.85,11.54
		c-6.35,13.01-15.81,26.12-27.69,38.92c-42.51,45.89-115.13,89.13-166.05,111.6c-54.76,24.16-105.77,72.04-130.85,124.34
		c-15.93,33.24-21.36,68.29-9.09,99.72c2.49,6.29-0.64,13.41-6.97,15.9c-6.29,2.46-13.41-0.68-15.9-6.97
		c-14.67-37.57-9.24-79.53,9.82-119.27c27.41-57.21,83.12-109.76,143.06-136.19c48.37-21.33,117.55-62.21,157.95-105.8
		c8.29-8.96,15.38-17.99,20.63-26.95c2.73-4.63,4.94-9.27,6.63-13.9c0.4-1.14,0.8-2.24,1.1-3.38c0.4-1.29,0.77-2.58,1.04-3.87
		c2-8.99,1.44-17.74-2.67-26c-2.12-4.2-1.57-9.02,1.04-12.61c1.07-1.6,2.58-2.92,4.45-3.84c6.05-3.04,13.44-0.58,16.45,5.49
		c0.8,1.6,1.53,3.19,2.15,4.82C896.15,1460.06,896.4,1473.66,892.65,1487.6z"/>
	<path class="st40" d="M901.02,1475.23c3.2,21.06-7.39,43.98-27.31,69.64c-33.21,42.79-92.25,91.4-167.3,146.68
		c-83.13,61.23-107.5,134.84-98.11,195.78c1.03,6.7,7.3,11.3,14,10.27c6.7-1.03,11.3-7.31,10.26-14.01
		c-8.3-53.88,14.9-118.14,88.41-172.27c77.33-56.95,137.92-107.3,172.14-151.39c25.04-32.27,36.21-61.9,32.19-88.38
		c-1.02-6.7-7.28-11.31-13.98-10.3C904.61,1462.27,900,1468.54,901.02,1475.23L901.02,1475.23z"/>
	<path class="st40" d="M898.54,1492.2c-30.62,57.7-85.53,94.3-142.63,128.77c-60.2,36.33-122.89,70.27-165.84,120.54
		c-4.4,5.15-3.79,12.91,1.36,17.31c5.15,4.4,12.91,3.79,17.31-1.36c41.31-48.35,101.95-80.52,159.85-115.46
		c60.99-36.81,118.94-76.66,151.64-138.29c3.18-5.98,0.9-13.42-5.09-16.6C909.15,1483.93,901.72,1486.21,898.54,1492.2
		L898.54,1492.2z"/>
	<path class="st40" d="M923.54,1474.42c12.94,36.08,5.84,68.59-11.58,99.53c-18.7,33.22-48.92,64.63-80.61,96.5
		c-32.97,33.16-67.55,66.74-93.62,102.82c-27.35,37.84-45.38,78.48-44.07,123.91c0.2,6.77,5.85,12.12,12.63,11.92
		c6.77-0.2,12.11-5.85,11.92-12.63c-1.15-39.99,15.36-75.52,39.43-108.82c25.35-35.08,59.06-67.64,91.12-99.88
		c33.35-33.54,64.91-66.8,84.6-101.76c20.97-37.25,28.88-76.45,13.3-119.87c-2.29-6.38-9.32-9.7-15.7-7.41
		C924.57,1461,921.25,1468.04,923.54,1474.42L923.54,1474.42z"/>
	<path class="st40" d="M961.36,1510.96c-27.72,61.13-79.41,201.69-76.65,301.07c1.29,46.48,14.73,84.22,44.74,103.89
		c5.67,3.71,13.29,2.13,17-3.54c3.71-5.67,2.13-13.28-3.54-17c-15.48-10.14-24.47-26.92-29.3-47.47
		c-5.34-22.73-5.52-49.91-2.51-78.91c9.35-90.12,49.64-197.2,72.63-247.9c2.8-6.17,0.06-13.45-6.11-16.25
		C971.44,1502.05,964.16,1504.79,961.36,1510.96L961.36,1510.96z"/>
	<path class="st40" d="M980.4,1496.24c-15.21,54.08-36.15,109.45-44.79,164.94c-9,57.85-4.88,115.81,30.88,172.77
		c3.6,5.74,11.18,7.47,16.92,3.87c5.74-3.6,7.47-11.18,3.87-16.92c-32.26-51.39-35.54-103.75-27.41-155.94
		c8.49-54.54,29.22-108.93,44.16-162.08c1.84-6.52-1.97-13.31-8.5-15.14C989.02,1485.91,982.23,1489.72,980.4,1496.24L980.4,1496.24
		z"/>
	<path class="st40" d="M941.91,1477.66c-5.89,65.12-43.4,141.9-77.42,196.97c-23.61,38.21-64.66,82-88.86,128.2
		c-26.45,50.48-33.82,103.58,14.34,156.02c4.58,4.99,12.35,5.32,17.34,0.74c4.99-4.58,5.32-12.36,0.74-17.35
		c-39.48-42.99-32.36-86.62-10.68-128.01c23.93-45.68,64.66-88.9,88-126.68c35.83-58,74.78-139.08,80.99-207.66
		c0.61-6.75-4.37-12.73-11.12-13.34C948.5,1465.93,942.52,1470.91,941.91,1477.66L941.91,1477.66z"/>
	<path class="st40" d="M980.52,1510.96c-31.29,86.99-16.73,151.08,1.87,208.49c17.14,52.9,38.64,99.5,23.94,154.99
		c-1.73,6.55,2.17,13.27,8.72,15.01c6.55,1.74,13.28-2.17,15.01-8.72c12.94-48.84,1.46-91.55-13.5-136.46
		c-20.56-61.72-47.82-128.03-12.95-225c2.29-6.38-1.02-13.41-7.4-15.71C989.86,1501.26,982.82,1504.58,980.52,1510.96
		L980.52,1510.96z"/>
	<path class="st40" d="M1001.76,1486.16c-22.01,28.82-19.77,73.54-6.81,120.41c17.51,63.32,53.75,130.75,57.31,160.18
		c7.46,61.75-3.59,111.87-35.58,164.26c-3.53,5.78-1.7,13.34,4.08,16.87c5.79,3.53,13.35,1.7,16.88-4.08
		c35.06-57.41,47.17-112.33,39-180c-3.63-30.06-40.13-99.11-58.02-163.79c-5.57-20.16-9.27-39.86-9.13-57.63
		c0.13-15.93,3.3-30.22,11.79-41.33c4.11-5.39,3.08-13.1-2.31-17.21C1013.58,1479.75,1005.87,1480.78,1001.76,1486.16
		L1001.76,1486.16z"/>
	<path class="st40" d="M1003.1,1512.82c-2.41,10.79-1.38,23.34,2.54,37.06c5.14,18.04,15.29,38.5,27.3,59.75
		c17.07,30.24,37.91,62.26,51.74,91.18c8.35,17.46,14.23,33.57,14.07,47.21c-0.08,6.77,5.35,12.34,12.13,12.42
		c6.77,0.08,12.34-5.35,12.42-12.13c0.17-14.1-4.32-30.47-11.9-48.06c-10.38-24.09-26.56-50.82-42.23-77.21
		c-14.96-25.19-29.48-50.05-37.31-71.87c-4.46-12.42-6.87-23.62-4.78-33c1.48-6.61-2.7-13.18-9.31-14.66
		C1011.15,1502.04,1004.58,1506.21,1003.1,1512.82L1003.1,1512.82z"/>
	<path class="st40" d="M919.08,1490.72c-22.59,81.78-68.47,118.66-120.43,163.69c-45.41,39.36-101.9,88.81-117.84,130.98
		c-2.39,6.34,0.8,13.43,7.14,15.83c6.34,2.4,13.43-0.8,15.83-7.14c14.86-39.31,68.62-84.42,110.96-121.11
		c55.58-48.17,103.85-88.22,128.01-175.7c1.81-6.53-2.03-13.3-8.57-15.1C927.65,1480.35,920.88,1484.19,919.08,1490.72
		L919.08,1490.72z"/>
	<path class="st40" d="M1011.79,986.01c17.04,11.3,37.77,13.23,53.69,11.06c11.49-1.57,20.53-5.41,24.65-9.01
		c3.19-2.78,3.52-7.64,0.74-10.83c-2.79-3.19-7.64-3.52-10.83-0.74c-2.74,2.39-8.97,4.32-16.63,5.36
		c-12.78,1.74-29.47,0.43-43.14-8.64c-3.53-2.34-8.3-1.38-10.64,2.15C1007.3,978.9,1008.26,983.67,1011.79,986.01L1011.79,986.01z"
		/>
	<path class="st40" d="M1019.16,901.85c15.52,5.39,37.97,6.45,56.46,4.03c13.19-1.73,24.4-5.37,30.38-9.95
		c3.36-2.58,4.01-7.39,1.43-10.76c-2.57-3.36-7.39-4-10.76-1.43c-4.5,3.44-13.11,5.62-23.04,6.92c-16.19,2.11-35.85,1.41-49.44-3.31
		c-4-1.39-8.38,0.73-9.77,4.73C1013.04,896.08,1015.16,900.46,1019.16,901.85L1019.16,901.85z"/>
	<path class="st40" d="M1003.88,802.12c35.36,10,85.34,0.13,114.45-20.62c3.45-2.46,4.25-7.25,1.8-10.7
		c-2.46-3.45-7.25-4.25-10.7-1.8c-25.79,18.37-70.04,27.21-101.36,18.35c-4.08-1.15-8.32,1.22-9.47,5.29
		C997.43,796.72,999.8,800.96,1003.88,802.12L1003.88,802.12z"/>
	<path class="st40" d="M988.35,698.67c56.87,9.6,108.99-12.54,138.91-33c3.5-2.39,4.39-7.17,2-10.67c-2.39-3.5-7.17-4.39-10.67-2
		c-27.52,18.81-75.4,39.37-127.69,30.54c-4.18-0.7-8.14,2.11-8.85,6.29C981.35,694,984.17,697.96,988.35,698.67L988.35,698.67z"/>
	<path class="st40" d="M995.65,577.78c47.38,11.4,106.19,3.27,142.73-16.14c3.74-1.99,5.16-6.64,3.18-10.38
		c-1.99-3.74-6.64-5.16-10.38-3.18c-33.77,17.94-88.15,25.31-131.94,14.77c-4.12-0.99-8.26,1.55-9.25,5.67
		C989,572.64,991.54,576.79,995.65,577.78L995.65,577.78z"/>
	<path class="st40" d="M1027.78,444.95c21.62,8.37,61.07,15.62,90.86,15.04c13.77-0.26,25.58-2.31,33.19-6.23
		c3.77-1.94,5.25-6.57,3.31-10.33c-1.94-3.76-6.57-5.25-10.33-3.31c-8.27,4.26-22.74,5.09-38.81,4.33
		c-25.68-1.22-55.32-7.1-72.69-13.81c-3.95-1.53-8.4,0.44-9.92,4.39C1021.87,438.98,1023.83,443.42,1027.78,444.95L1027.78,444.95z"
		/>
	<path class="st40" d="M1051.25,329.16c32.94,26.88,79.77,48.93,122,45.74c4.22-0.32,7.39-4.01,7.07-8.23
		c-0.32-4.22-4.01-7.39-8.23-7.07c-38.55,2.92-81.07-17.79-111.14-42.33c-3.28-2.68-8.12-2.19-10.8,1.09
		C1047.48,321.64,1047.97,326.48,1051.25,329.16L1051.25,329.16z"/>
	<path class="st40" d="M1130.49,232.6c17.57-0.48,42.28,10.16,60.47,24.55c11.46,9.07,20.51,19.56,22.5,30.12
		c0.78,4.16,4.8,6.9,8.96,6.12c4.16-0.79,6.9-4.8,6.12-8.96c-2.56-13.57-13.33-27.66-28.06-39.31
		c-21.1-16.69-50.02-28.41-70.4-27.85c-4.23,0.11-7.58,3.65-7.46,7.88C1122.72,229.38,1126.25,232.72,1130.49,232.6L1130.49,232.6z"
		/>
	<path class="st40" d="M1219.69,150.64c16.55,1.83,30.71,12.85,41.06,26.17c10.56,13.59,17.23,29.74,17.88,42.07
		c0.22,4.23,3.84,7.48,8.07,7.26c4.23-0.22,7.48-3.84,7.26-8.07c-0.78-14.82-8.41-34.36-21.09-50.68
		c-12.89-16.59-30.89-29.73-51.5-32.01c-4.21-0.47-8,2.57-8.47,6.78C1212.44,146.38,1215.48,150.17,1219.69,150.64L1219.69,150.64z"
		/>
	<path class="st40" d="M1358.68,100.52c6.31,6.57,9.33,16.99,10.33,28.31c1.61,18.26-2.33,38.96-9.78,52.07
		c-2.09,3.68-0.8,8.37,2.88,10.46c3.68,2.09,8.37,0.8,10.46-2.88c8.73-15.37,13.61-39.59,11.72-61
		c-1.33-15.13-6.12-28.81-14.55-37.59c-2.93-3.05-7.8-3.15-10.85-0.22C1355.84,92.61,1355.74,97.47,1358.68,100.52L1358.68,100.52z"
		/>
	<path class="st40" d="M1474.92,143.6c0.14,12.62-4.85,24.65-11.88,35.3c-11.11,16.83-27.41,30.27-38.93,37.16
		c-3.63,2.17-4.82,6.89-2.64,10.52c2.17,3.63,6.89,4.82,10.52,2.65c12.97-7.76,31.33-22.91,43.85-41.87
		c8.73-13.22,14.6-28.26,14.42-43.92c-0.05-4.24-3.52-7.64-7.76-7.59C1478.27,135.89,1474.87,139.36,1474.92,143.6L1474.92,143.6z"
		/>
	<path class="st40" d="M1545.64,234.16c-16.66,34.7-54.79,62.07-90.62,65.39c-4.22,0.39-7.33,4.13-6.94,8.35
		c0.39,4.21,4.13,7.32,8.35,6.93c40.68-3.76,84.13-34.62,103.04-74.03c1.83-3.82,0.22-8.41-3.6-10.24
		C1552.07,228.73,1547.48,230.35,1545.64,234.16L1545.64,234.16z"/>
	<path class="st40" d="M1565.38,351.98c-5.7,14.58-19.06,28.52-35.48,40.59c-25.55,18.78-58.66,32.88-84.57,36.74
		c-4.19,0.62-7.08,4.53-6.46,8.72c0.62,4.19,4.53,7.08,8.72,6.46c27.98-4.16,63.8-19.26,91.4-39.55
		c19.02-13.98,34.08-30.48,40.68-47.37c1.54-3.94-0.41-8.4-4.35-9.94C1571.37,346.09,1566.92,348.04,1565.38,351.98L1565.38,351.98z
		"/>
	<path class="st40" d="M1567,478.66c-7.19,12.33-25.17,26.12-48.24,38.19c-35.79,18.71-83.93,32.86-126.14,29.04
		c-4.22-0.38-7.95,2.73-8.33,6.95c-0.38,4.22,2.73,7.95,6.95,8.33c45.03,4.07,96.44-10.76,134.63-30.72
		c26.25-13.72,46.22-30.03,54.39-44.06c2.13-3.66,0.89-8.36-2.77-10.49C1573.84,473.76,1569.14,475,1567,478.66L1567,478.66z"/>
	<path class="st40" d="M1338.21,658.8c23.76,11.47,68.37,21.54,108.9,22.73c27.86,0.83,53.79-2.69,70.26-12.13
		c3.67-2.11,4.95-6.8,2.84-10.47c-2.11-3.67-6.8-4.95-10.47-2.85c-14.55,8.34-37.56,10.83-62.18,10.11
		c-38.2-1.13-80.29-10.41-102.68-21.22c-3.82-1.84-8.4-0.24-10.25,3.58C1332.79,652.37,1334.4,656.96,1338.21,658.8L1338.21,658.8z"
		/>
	<path class="st40" d="M1286.97,757.31c42.94,35.28,113.29,58.84,156.13,51.57c4.17-0.71,6.99-4.67,6.28-8.85
		c-0.71-4.17-4.67-6.99-8.85-6.28c-39.53,6.7-104.19-15.75-143.82-48.3c-3.28-2.69-8.11-2.22-10.8,1.06
		C1283.23,749.79,1283.7,754.62,1286.97,757.31L1286.97,757.31z"/>
	<path class="st40" d="M1219.82,861.67c18.34,28.26,56.95,50.32,92.15,60.98c24.16,7.31,46.7,9.12,60.23,4.83
		c4.04-1.28,6.28-5.59,5-9.63c-1.28-4.04-5.59-6.28-9.63-5c-11.5,3.64-30.6,1.33-51.15-4.89c-31.85-9.64-67.13-29.07-83.72-54.64
		c-2.31-3.55-7.06-4.57-10.61-2.26C1218.52,853.36,1217.51,858.11,1219.82,861.67L1219.82,861.67z"/>
	<path class="st40" d="M1169.28,963.27c36.76,39.18,65.29,58.42,116.71,69.3c4.14,0.87,8.22-1.78,9.09-5.92
		c0.87-4.14-1.78-8.22-5.92-9.09c-47.94-10.14-74.42-28.27-108.69-64.79c-2.9-3.09-7.76-3.24-10.85-0.35
		C1166.54,955.32,1166.38,960.18,1169.28,963.27L1169.28,963.27z"/>
	<path class="st40" d="M1205.21,1105.48c-0.31-0.05-2.55-0.4-4.11-0.95c-3.31-1.17-7.25-3.14-11.59-5.72
		c-21.54-12.8-52.14-40.07-63.82-65.7c-1.76-3.85-6.31-5.56-10.16-3.8c-3.85,1.76-5.56,6.31-3.8,10.16
		c12.85,28.19,46.25,58.46,69.95,72.53c7.76,4.61,14.62,7.51,19.55,8.43c3.34,0.63,6.13,0.44,8.27-0.23
		c4.05-1.26,6.31-5.56,5.05-9.6C1213.31,1106.66,1209.18,1104.41,1205.21,1105.48L1205.21,1105.48z"/>
	<path class="st17" d="M1279.17,1334.31v0.03c-10.44,38.77-32.5,77.22-67.71,112.89c-61.82,62.64-162.67,92.63-252.02,73.2
		c-1.63-0.34-3.25-0.71-4.85-1.11c-6.35-1.5-12.61-3.25-18.81-5.28c-1.87-0.61-3.74-1.26-5.62-1.93c-1.69-0.58-3.35-1.2-4.97-1.84
		h-0.03c-1.17-0.43-2.33-0.89-3.47-1.35c-7.61-3.04-15.04-6.48-22.31-10.37c-2.89-1.53-5.77-3.16-8.59-4.85
		c-4.63-2.73-9.15-5.65-13.57-8.75c-2.58-1.78-5.09-3.62-7.58-5.56c-1.07-0.83-2.15-1.66-3.22-2.52
		c-21.36-17.03-40.7-37.54-56.84-60.22c-7.34-10.31-14-21.06-19.89-32.14c-0.03,0-0.03,0-0.03,0c-0.89-1.72-1.81-3.44-2.67-5.16
		c-4.02-7.95-7.61-16.02-10.77-24.22c-6.35-16.3-10.93-33.06-13.44-49.91c-1.41-9.51-2.15-19.03-2.21-28.51
		c-0.12-23.48,4.11-46.78,13.6-68.97c3.65-8.5,7.67-16.97,12.12-25.29c0-0.03,0.03-0.03,0.03-0.06c13.97-26.21,31.77-51.2,52.7-72.8
		c0.06-0.09,0.12-0.15,0.22-0.21c36.19-37.38,81.67-64.73,132.66-71.02c0.22,0,0.46-0.03,0.68-0.09c7.64-0.92,15.41-1.38,23.27-1.32
		c40.39,0.31,104.42,22.1,158.81,50.64c24.89,13.04,47.76,27.53,65.41,41.99c5.31,4.39,10.16,8.75,14.46,13.08
		c0.55,0.55,1.1,1.1,1.63,1.69c4.3,4.48,7.98,8.9,10.93,13.26c1.63,2.39,3.19,4.79,4.73,7.21v0.03
		c19.15,30.42,30.79,63.63,33.79,97.85C1287.64,1286.31,1285.65,1310.37,1279.17,1334.31z"/>
	<path class="st41" d="M1033.99,877.96c-10.49,0.24-22.71-13.15-25.74-18.13c-5.4-8.89-14.16-30.72-11.54-40.92
		c5.57-21.64,32.78-0.94,48.58-4.63c17.18-4.02,61.37-23.71,55.09,14.3c-3,18.18-10.76,26.6-20.73,34.29
		C1064.88,874.26,1049.66,877.61,1033.99,877.96L1033.99,877.96z"/>
	<path class="st41" d="M1002.96,781.54c-12.47-2.86-15.33-14.94-18.81-25.41c-3.28-9.87-4.56-26.12-1.94-36.32
		c5.56-21.64,53.33-6.59,69.13-10.29c17.18-4.02,52.55-30.07,66.27-12.97c6.11,7.61-0.33,26.6-7.53,40.07
		c-5.85,10.94-20.24,27.16-29.97,32.75c-15.02,8.62-30.33,13.32-45.2,14.32C1024.26,784.41,1010.38,783.24,1002.96,781.54
		L1002.96,781.54z"/>
	<path class="st41" d="M1026.15,664.92c-14.05-0.15-32.5-2.24-40.06-13.15c-11.12-16.03-10.95-46.29,3.68-57.69
		c17.62-13.73,41.34,3.02,57.52,1.69c17.58-1.44,62.47-15.35,63.12,9.72c0.43,16.58-21.98,41.23-33.04,47.25
		C1060.43,661.96,1041.36,665.08,1026.15,664.92L1026.15,664.92z"/>
	<path class="st41" d="M1028.91,541.11c-14.24-3.05-27.22-7.13-37.79-23.61c-9.31-14.51-3.04-38.49,2.45-47.47
		c8.4-13.75,24.95-15.27,47.57-5.66c16.24,6.9,97.21,5.12,80.16,39.66c-5.56,11.26-33.19,26.73-44.73,31.77
		C1063.57,541.48,1043.15,544.16,1028.91,541.11L1028.91,541.11z"/>
	<path class="st41" d="M1043.88,418.99c-13.24-2.71-29.4-21-28.75-32.17c0.6-10.38,0.29-32.34,13.86-38.75
		c20.09-9.48,36.13,8.35,51.94,11.98c17.19,3.94,55.94,19.56,49.18,39.97c-3.95,11.91-25.37,23.64-37.9,24.96
		C1078.1,426.47,1064.05,423.12,1043.88,418.99L1043.88,418.99z"/>
	<path class="st41" d="M1026.64,966.66c-18.58-4.58-19.23-15.5-20.75-19.75c-3.48-9.77-2.36-27.76,5.44-36.59
		c11.48-12.98,26.98,4.45,41.64,6.19c13.58,1.61,43.48-15.91,42.56,13.95c-0.33,10.56-20.41,31.87-29.56,35.29
		C1050.93,971.38,1041.86,970.41,1026.64,966.66L1026.64,966.66z"/>
	<path class="st41" d="M1019.96,1030.44c-5.25-1.51-10.34-4.04-12.04-11.1c-1.48-6.13-1.57-18.02,2.59-22.86
		c7.05-8.2,24.36,3.47,33.95,5.67c10.42,2.39,34.83,0.06,26.64,14.73c-3.7,6.64-12.48,13.09-19.88,14.97
		C1040.35,1034.62,1027.17,1032.52,1019.96,1030.44L1019.96,1030.44z"/>
	<path class="st41" d="M1077.72,310.69c-9.37-8.03-19.38-19.99-12.56-34.82c5.05-10.98,17.76-24.23,27.37-31.8
		c20.41-16.05,40.75,5.4,57.96,13.14c18.7,8.41,87.23,41.46,50.48,67.02c-11.98,8.32-40.13,18.62-63.22,13.85
		C1115.34,333.45,1089.82,321.06,1077.72,310.69L1077.72,310.69z"/>
	<path class="st41" d="M1160.27,204.23c-14.64-12.44-11.4-24.65-0.89-34.57c12.5-11.8,13.69-16.26,25.39-19.85
		c18.76-5.76,44.98,11.67,58.8,24.5c15.02,13.95,37.56,66.26,11.96,75.98c-13.63,5.18-32.88-15.11-45.23-22.96
		C1192.84,216.24,1170.12,212.61,1160.27,204.23L1160.27,204.23z"/>
	<path class="st41" d="M1247.96,120.85c-5.37-11.44,14.32-20,26.56-26.8c12.84-7.14,26.67-8.06,38.53-6.7
		c25.17,2.88,28.03,28.82,33.98,44.24c6.47,16.76-2.86,65.52-23.05,62.77c-14.05-1.92-28.94-26.43-37.22-36.75
		C1274.07,141.78,1255.12,136.09,1247.96,120.85L1247.96,120.85z"/>
	<path class="st41" d="M1391.05,102.91c2.37-14.32,17.35-16.2,27.36-14.28c9.66,1.85,17.95,7.38,27.9,17.42
		c10.06,10.14,20.93,31.92,9.74,53.96c-6.71,13.21-52.47,62.65-72,43.82c-8.78-8.46,10.04-39.62,10.53-50.66
		C1395.69,128.86,1389.24,113.79,1391.05,102.91L1391.05,102.91z"/>
	<path class="st41" d="M1479.43,280.76c-21.92,9.76-42.14,6.86-49.81-3.12c-5.62-7.32-12.74-30.89,6.93-38.25
		c18.37-6.86,38.43-18.31,47.73-29.94c18.36-22.98,25.86-53.73,36.88-43.29c9.37,8.88,17.97,39.76,2.09,71.84
		C1513.25,258.23,1494.46,274.07,1479.43,280.76L1479.43,280.76z"/>
	<path class="st41" d="M1444.42,417.05c-9.22-1.71-14.81-15.25-14.06-26.53c0.81-12.15,3.29-24.81,4.41-37.29
		c2.38-26.48,31.87-25.1,48.45-31.95c18.02-7.45,82.84-47.18,76.26-1.93c-2.14,14.75-16.94,38.3-25.55,49.59
		c-13.57,17.77-26.14,25.17-41.06,33.19C1477.96,410.15,1454.84,418.99,1444.42,417.05L1444.42,417.05z"/>
	<path class="st41" d="M1421.67,538.81c-15.09,0.77-31.12-5.11-25.86-27.16c3.4-14.26,12.81-26.8,21.94-32.93
		c22.75-15.29,60.33-20.21,77.94-26.26c19.14-6.57,85.62-47.74,68.81-10.48c-5.48,12.14-25.69,42.47-62.2,64.25
		C1478.18,520.62,1439.42,537.91,1421.67,538.81L1421.67,538.81z"/>
	<path class="st41" d="M1382.73,651.1c-20.53-6.72-40.48-17.52-39.31-33.94c1.28-17.87,10.78-27.35,25.05-35.03
		c21.68-11.67,49.01-7.67,74.43-9.16c16.6-0.97,45.77-4.15,71.2-14.56c25.07-10.27,48.82-24.55,53.85-7.77
		c7.36,24.59-15.05,68.34-57.9,84.83c-29.88,11.49-35.71,12.26-61.28,16.92C1418.83,657.84,1403.91,658.03,1382.73,651.1
		L1382.73,651.1z"/>
	<path class="st41" d="M1320.35,748.38c-16.07-9.09-23.77-25.33-24.16-35.93c-0.59-16.27,3.48-23.63,12.73-30.64
		c19.63-14.87,52.64,10.69,77.66,15.43c27.21,5.15,114.88,5.38,75.04,23.76c-33.69,15.54-34.6,45.2-61,50.55
		C1367.84,778.2,1337.76,758.23,1320.35,748.38L1320.35,748.38z"/>
	<path class="st41" d="M1238.84,845.84c-8.95-11.86-4.61-24.86-1.14-36.34c3.73-12.35,14.07-30.96,23.5-37.73
		c13.62-9.77,41.66,15.66,64.92,26.05c39.48,17.62,116.01,15.92,79.32,39.98c-11.95,7.84-22.83,45.07-40.88,51.4
		c-27.49,9.64-47.74,1.72-70.97-5.6C1264.4,874.41,1248.15,858.19,1238.84,845.84L1238.84,845.84z"/>
	<path class="st41" d="M1187.4,949.95c-12.66-13.31,2.23-38.38,2.69-44.17c0.81-10.34,3.96-26.13,15.17-29.12
		c23.8-6.34,41.88,37.45,63.26,51.3c23.24,15.06,101.39,55.56,58.33,63.96c-14.03,2.73-49.33,2.83-67.87-1.88
		C1230.98,982.93,1212.45,976.28,1187.4,949.95L1187.4,949.95z"/>
	<path class="st41" d="M1139.69,1038.69c-11.53-12.87-11.67-36.3-11.22-42.09c0.81-10.34,14.61-24.67,26.21-24.25
		c20.46,0.74,27.45,32.22,48.82,46.07c23.24,15.06,80.23,27.52,63.04,42.97c-10.63,9.56-34.15,20.85-67.94,11.58
		C1177.81,1067.26,1155.86,1056.73,1139.69,1038.69L1139.69,1038.69z"/>
	<path class="st40" d="M762.76,1305.25l-2.21-28.51c62.71,70.84,159.17,81.77,225.26,69.83
		c152.54-27.53,205.71-146.96,234.22-216.97c5.31,4.39,10.16,8.75,14.46,13.08c-30.66,73.97-88.55,193.7-245.39,222.03
		C923.34,1376.58,829.85,1366.94,762.76,1305.25z"/>
	<path class="st40" d="M1251.76,1164.83v0.03c-7.15,39.99-25.38,94.29-63.1,142.82c-59.91,77.1-155.95,114.85-250.24,105.49
		c-58.04-5.77-113.69-21.27-151.44-33.79c-4.02-7.95-7.61-16.02-10.77-24.22c35.76,12.98,94.47,32.78,164.02,39.69
		c88.12,8.75,177.9-26.43,233.88-98.46c41.41-53.28,57.95-113.96,62-152.02c4.3,4.48,7.98,8.9,10.93,13.26
		C1248.66,1160.01,1250.23,1162.4,1251.76,1164.83z"/>
	<path class="st40" d="M1279.17,1334.31v0.03c-24.19,38.7-57.73,80.45-101.17,111.35c-33.09,23.54-100.52,67.95-216.66,66.45
		c-2.15-0.03-4.3-0.09-6.51-0.15c-5.99-0.15-12.12-0.43-18.39-0.86c-2.06-0.12-4.14-0.28-6.26-0.43c-1.66-0.15-3.31-0.28-5-0.43
		h-0.03c-1.26-0.12-2.52-0.25-3.78-0.37c-8.04-0.77-16.33-1.78-24.8-3.01c-3.5-0.52-7.06-1.07-10.65-1.66
		c-8.16-1.35-16.51-2.92-25.08-4.7c2.73-4.63,4.94-9.27,6.63-13.9c0.4-1.14,0.8-2.24,1.1-3.38c2.92,0.61,5.77,1.17,8.62,1.69
		c5.25,0.95,10.37,1.84,15.44,2.64c2.89,0.43,5.74,0.86,8.56,1.26c8.32,1.17,16.42,2.09,24.31,2.82c0.95,0.06,1.87,0.15,2.79,0.25
		c3.96,0.31,7.86,0.61,11.69,0.83c4.57,0.28,9.09,0.46,13.51,0.58c3.81,0.12,7.55,0.18,11.23,0.21
		c108.19,0.4,171.33-40.64,202.58-62.86c46.9-33.39,81.74-79.99,105.15-120.44c-15.93,19.06-35.51,39.56-58.99,59.05
		c-64.89,53.84-159.11,99.66-286.24,84.56c-12.37-1.47-24.46-3.74-36.19-6.6c-7.86-1.87-15.56-4.05-23.05-6.48
		c-21.3-6.75-41.01-15.22-58.44-24.12c-7.34-10.31-14-21.06-19.89-32.14c33.92,21.09,83.95,44.41,139.75,51.04
		c120.96,14.4,210.56-29.22,272.31-80.45c38.37-31.83,66.02-66.6,83.82-92.42C1287.64,1286.31,1285.65,1310.37,1279.17,1334.31z"/>
	<path class="st41" d="M904.94,1059.75c-28.07,14.36-85.48,59.18-111.44,107.56c-20.82,38.8-27.72,85.72,12.39,112.04
		c30.45,19.98,98.24-39.13,114.67-48.41c69.55-39.24,125.3-27.74,182.66-43.58c55.41-15.3,76.62-58.98,68.33-78.89
		c-11.18-26.86-67.28-54.35-112.34-66.16C1020.17,1032.08,960.44,1031.33,904.94,1059.75L904.94,1059.75z"/>
	<path class="st42" d="M928.16,1063.19c-21.46,8.47-48.8,28.98-72.12,54.47c-23.4,25.57-42.69,56.12-48.39,84.22
		c-0.64,3.19,1.42,6.3,4.6,6.95c3.19,0.64,6.3-1.42,6.95-4.6c5.33-26.28,23.65-54.7,45.53-78.61c21.95-24,47.55-43.49,67.76-51.46
		c3.03-1.19,4.51-4.62,3.32-7.65C934.62,1063.48,931.19,1062,928.16,1063.19L928.16,1063.19z"/>
	<path class="st42" d="M888.64,1134.22c26.28-35.75,88.83-66.33,135.14-59.78c3.22,0.46,6.21-1.79,6.66-5.01
		c0.46-3.22-1.79-6.2-5.01-6.66c-50.11-7.09-117.86,25.79-146.29,64.46c-1.93,2.62-1.36,6.31,1.26,8.24
		C883.02,1137.4,886.71,1136.84,888.64,1134.22L888.64,1134.22z"/>
	<path class="st42" d="M929.44,1111.61c-46.22,29.61-79.37,84.54-84.3,132.02c-0.33,3.23,2.02,6.13,5.26,6.47
		c3.23,0.33,6.13-2.02,6.47-5.25c4.61-44.39,35.74-95.63,78.94-123.31c2.74-1.75,3.54-5.4,1.78-8.14
		C935.82,1110.65,932.18,1109.86,929.44,1111.61L929.44,1111.61z"/>
	<path class="st42" d="M1184.61,170.66c23.66-1.79,51.72,17.12,63.62,39.3c1.54,2.87,5.11,3.95,7.98,2.41
		c2.86-1.54,3.94-5.11,2.41-7.98c-13.94-25.99-47.18-47.58-74.9-45.48c-3.24,0.25-5.68,3.08-5.43,6.32
		C1178.54,168.47,1181.37,170.91,1184.61,170.66L1184.61,170.66z"/>
	<path class="st42" d="M1192.73,188.85c10.92,1.44,25.6,9.78,30.83,19.74c1.52,2.88,5.08,3.98,7.96,2.47
		c2.88-1.52,3.99-5.08,2.47-7.96c-6.79-12.89-25.57-24.07-39.72-25.93c-3.23-0.43-6.19,1.84-6.61,5.07
		C1187.23,185.46,1189.5,188.42,1192.73,188.85L1192.73,188.85z"/>
	<path class="st42" d="M1188.28,296.49c-31.06-22.98-73.74-39.32-94.74-36.87c-3.23,0.38-5.55,3.31-5.17,6.54
		c0.37,3.23,3.3,5.55,6.53,5.17c7.42-0.86,17.84,1.14,29.47,4.98c18.38,6.07,39.56,16.83,56.9,29.66c2.61,1.93,6.31,1.38,8.24-1.23
		C1191.45,302.12,1190.9,298.43,1188.28,296.49L1188.28,296.49z"/>
	<path class="st42" d="M1077.27,287.1c0.68,0.03,5.87,0.26,10.03,1.14c15.45,3.23,39.42,11.79,50.29,17.84
		c2.84,1.58,6.43,0.56,8.02-2.28c1.58-2.84,0.56-6.43-2.28-8.02c-11.6-6.46-37.14-15.64-53.62-19.09
		c-5.49-1.15-10.09-1.64-13.08-1.4c-2.37,0.19-4.14,0.87-5.33,1.66c-2.71,1.8-3.44,5.46-1.64,8.17
		C1071.35,287.65,1074.64,288.46,1077.27,287.1L1077.27,287.1z"/>
	<path class="st42" d="M1153.38,388.64c-13.35,4.4-35.1,3.46-55.64,0.35c-20.59-3.12-40.01-8.48-48.48-13.63
		c-2.78-1.69-6.41-0.8-8.1,1.97c-1.69,2.78-0.8,6.41,1.98,8.1c9.26,5.63,30.35,11.8,52.84,15.21c22.54,3.42,46.43,4.02,61.09-0.81
		c3.09-1.02,4.77-4.35,3.75-7.44C1159.8,389.31,1156.46,387.62,1153.38,388.64L1153.38,388.64z"/>
	<path class="st42" d="M1084.17,403.65c-15.83,0.85-41.11-10.72-51.75-21.42c-2.29-2.3-6.03-2.32-8.33-0.02
		c-2.31,2.29-2.32,6.02-0.02,8.33c12.46,12.54,42.19,25.87,60.74,24.88c3.25-0.17,5.74-2.95,5.57-6.2
		C1090.19,405.97,1087.42,403.48,1084.17,403.65L1084.17,403.65z"/>
	<path class="st42" d="M1100.37,491.1c-3.59,1.94-10.68,2.32-19.34,1.95c-14.53-0.63-33.09-4.01-48.56-9.65
		c-3.06-1.11-6.44,0.46-7.56,3.52c-1.11,3.05,0.46,6.44,3.52,7.56c19.41,7.08,43.33,10.82,59.63,10.44
		c7.93-0.18,14.23-1.45,17.91-3.44c2.86-1.55,3.93-5.13,2.38-7.99C1106.81,490.62,1103.23,489.55,1100.37,491.1L1100.37,491.1z"/>
	<path class="st42" d="M1070.93,507.26c-10.42,0.24-40-2.72-57.11-12.72c-2.81-1.64-6.42-0.69-8.06,2.11
		c-1.64,2.81-0.69,6.42,2.12,8.06c18.99,11.1,51.76,14.59,63.33,14.32c3.25-0.07,5.83-2.77,5.76-6.03
		C1076.89,509.76,1074.19,507.18,1070.93,507.26L1070.93,507.26z"/>
	<path class="st42" d="M1119.96,517.81c-21.33,13.09-55.52,13.51-88.3,6.38c-3.18-0.69-6.32,1.33-7.01,4.51
		c-0.69,3.18,1.33,6.32,4.51,7.01c36.02,7.83,73.52,6.53,96.97-7.85c2.77-1.7,3.64-5.33,1.94-8.1
		C1126.37,516.98,1122.74,516.11,1119.96,517.81L1119.96,517.81z"/>
	<path class="st42" d="M1073.09,606.59c-4.08,2.47-11.58,4.24-20.71,5.31c-14.71,1.72-33.47,1.34-50.08-2.43
		c-3.17-0.72-6.33,1.27-7.05,4.44c-0.72,3.17,1.27,6.33,4.44,7.05c17.93,4.07,38.18,4.5,54.06,2.65
		c11.27-1.32,20.42-3.89,25.45-6.94c2.78-1.69,3.67-5.31,1.99-8.1C1079.5,605.79,1075.87,604.9,1073.09,606.59L1073.09,606.59z"/>
	<path class="st42" d="M1117.64,607.88c-22.71,14.42-43.1,19.67-64.71,20.06c-3.25,0.06-5.84,2.75-5.79,6
		c0.06,3.25,2.75,5.84,6,5.79c23.65-0.43,45.98-6.12,70.82-21.9c2.74-1.74,3.56-5.39,1.81-8.13
		C1124.03,606.94,1120.38,606.13,1117.64,607.88L1117.64,607.88z"/>
	<path class="st42" d="M1081.52,640.34c-14.64,4.09-42.81,8.01-61.09,3.88c-3.17-0.72-6.33,1.28-7.05,4.45
		c-0.72,3.17,1.28,6.33,4.45,7.05c20,4.52,50.85,0.44,66.86-4.03c3.13-0.87,4.96-4.13,4.09-7.26
		C1087.91,641.3,1084.66,639.47,1081.52,640.34L1081.52,640.34z"/>
	<path class="st42" d="M1063.34,718.36c-9.36,1.84-25.09,6.33-40.48,7.79c-9.37,0.89-18.62,0.72-25.91-2.35
		c-3-1.26-6.45,0.15-7.72,3.15c-1.26,3,0.15,6.46,3.15,7.72c8.89,3.74,20.15,4.3,31.59,3.21c15.83-1.5,32.01-6.06,41.64-7.95
		c3.19-0.63,5.27-3.73,4.64-6.92C1069.63,719.82,1066.53,717.73,1063.34,718.36L1063.34,718.36z"/>
	<path class="st42" d="M1060.21,735.92c-9.9,3.93-28.14,6.82-42.97,5.25c-3.23-0.34-6.14,2.01-6.48,5.24
		c-0.34,3.24,2.01,6.14,5.24,6.48c16.76,1.77,37.37-1.57,48.56-6.02c3.02-1.2,4.5-4.63,3.3-7.65
		C1066.67,736.2,1063.24,734.72,1060.21,735.92L1060.21,735.92z"/>
	<path class="st42" d="M1114.91,730.88c-23.78,19.29-60.54,27.63-85.93,26.91c-3.25-0.09-5.96,2.47-6.06,5.72
		c-0.09,3.25,2.47,5.97,5.72,6.06c27.7,0.78,67.75-8.5,93.69-29.54c2.53-2.05,2.91-5.76,0.87-8.29
		C1121.15,729.22,1117.43,728.84,1114.91,730.88L1114.91,730.88z"/>
	<path class="st42" d="M1060.74,821.59c-13.17,6.12-34.71,8.78-49.38,4.29c-3.11-0.95-6.41,0.8-7.36,3.91
		c-0.95,3.11,0.8,6.41,3.91,7.36c17.16,5.25,42.39,2.29,57.8-4.88c2.95-1.37,4.23-4.88,2.86-7.83
		C1067.2,821.49,1063.69,820.21,1060.74,821.59L1060.74,821.59z"/>
	<path class="st42" d="M1070.49,836.58c-7.03,3.15-22.07,7.3-29.43,5.98c-3.2-0.57-6.27,1.56-6.84,4.76
		c-0.57,3.2,1.56,6.27,4.76,6.84c9.06,1.63,27.69-2.95,36.34-6.82c2.96-1.33,4.3-4.82,2.96-7.79
		C1076.94,836.57,1073.45,835.24,1070.49,836.58L1070.49,836.58z"/>
	<path class="st42" d="M1102.73,844.75c-16.69,11.18-39.66,18.16-64.28,14.71c-3.22-0.45-6.2,1.8-6.65,5.02
		c-0.45,3.22,1.8,6.2,5.02,6.65c27.77,3.89,53.66-3.99,72.48-16.59c2.7-1.81,3.43-5.47,1.62-8.17
		C1109.09,843.66,1105.43,842.94,1102.73,844.75L1102.73,844.75z"/>
	<path class="st42" d="M1019.48,926.99c8.32,3.78,15.13,7.25,21.19,9.41c7.23,2.58,13.59,3.37,19.97,1.53
		c3.12-0.91,4.93-4.17,4.02-7.3c-0.9-3.12-4.17-4.93-7.3-4.02c-4.07,1.18-8.11,0.34-12.73-1.3c-5.8-2.07-12.31-5.43-20.28-9.05
		c-2.96-1.34-6.46-0.03-7.8,2.93C1015.2,922.15,1016.52,925.65,1019.48,926.99L1019.48,926.99z"/>
	<path class="st42" d="M1073.13,940.7c-2.36,1.49-6.82,2.19-12.05,2.48c-8.96,0.48-20.06-0.7-28.61-4.13
		c-3.02-1.21-6.45,0.25-7.66,3.27c-1.21,3.02,0.25,6.45,3.27,7.66c10.06,4.04,23.1,5.53,33.64,4.96c7.76-0.42,14.23-2.08,17.72-4.29
		c2.75-1.74,3.56-5.38,1.82-8.13C1079.52,939.77,1075.88,938.96,1073.13,940.7L1073.13,940.7z"/>
	<path class="st42" d="M1054.41,1007.79c-7.23,1.05-20.73-1.14-30.67-7.96c-2.68-1.84-6.35-1.15-8.19,1.53
		c-1.84,2.68-1.15,6.35,1.53,8.19c12.63,8.66,29.84,11.23,39.02,9.9c3.22-0.47,5.45-3.46,4.99-6.68
		C1060.62,1009.56,1057.63,1007.33,1054.41,1007.79L1054.41,1007.79z"/>
	<path class="st42" d="M1324.53,98.71c30.72,22.03,27.07,65.52,13.82,90c-1.55,2.86-0.48,6.44,2.38,7.99
		c2.86,1.55,6.44,0.48,7.99-2.38c15.51-28.66,18.64-79.4-17.32-105.19c-2.64-1.89-6.33-1.29-8.22,1.36
		C1321.28,93.13,1321.89,96.81,1324.53,98.71L1324.53,98.71z"/>
	<path class="st42" d="M1316.76,116.1c9.39,11.89,16.02,37.03,13.11,54.75c-0.53,3.21,1.65,6.24,4.86,6.77
		c3.21,0.53,6.24-1.65,6.77-4.86c3.4-20.72-4.51-50.06-15.49-63.96c-2.01-2.55-5.72-2.99-8.28-0.97
		C1315.18,109.84,1314.75,113.55,1316.76,116.1L1316.76,116.1z"/>
	<path class="st42" d="M1265.68,116.58c21.78,9.24,34.04,28.66,40.02,46.28c1.05,3.08,4.4,4.73,7.47,3.69
		c3.08-1.04,4.73-4.39,3.69-7.47c-6.92-20.4-21.36-42.65-46.57-53.34c-3-1.27-6.46,0.13-7.73,3.12
		C1261.28,111.85,1262.68,115.32,1265.68,116.58L1265.68,116.58z"/>
	<path class="st42" d="M1281.44,161.89c15.21,13.57,21.84,41.37,24.04,55.13c0.51,3.21,3.54,5.4,6.75,4.89
		c3.21-0.51,5.4-3.54,4.89-6.75c-2.48-15.56-10.63-46.72-27.84-62.07c-2.43-2.17-6.16-1.95-8.32,0.48
		C1278.8,156,1279.01,159.73,1281.44,161.89L1281.44,161.89z"/>
	<path class="st42" d="M1419.12,111.26c2.99,22.35-3.66,42.35-18.38,59.68c-2.11,2.48-1.8,6.2,0.68,8.31c2.48,2.11,6.2,1.8,8.3-0.68
		c16.98-19.98,24.53-43.09,21.08-68.87c-0.43-3.23-3.4-5.49-6.62-5.06C1420.95,105.07,1418.68,108.03,1419.12,111.26L1419.12,111.26
		z"/>
	<path class="st42" d="M1457.63,122.25c1.3,8.2-1.37,20.12-5.42,31.08c-4.02,10.88-9.41,20.91-14.4,25.15
		c-2.48,2.11-2.78,5.83-0.67,8.31c2.11,2.48,5.83,2.78,8.31,0.67c6.02-5.12,12.97-16.93,17.82-30.04
		c4.82-13.03,7.56-27.26,6.01-37.02c-0.51-3.21-3.53-5.41-6.75-4.89C1459.31,116.01,1457.11,119.04,1457.63,122.25L1457.63,122.25z"
		/>
	<path class="st42" d="M1433.33,150.63c-6.39,18.83-25,36.24-35.8,43.75c-2.67,1.86-3.33,5.54-1.47,8.2
		c1.86,2.67,5.54,3.33,8.2,1.47c12.2-8.5,33-28.35,40.22-49.63c1.05-3.08-0.6-6.43-3.68-7.47
		C1437.72,145.9,1434.37,147.55,1433.33,150.63L1433.33,150.63z"/>
	<path class="st42" d="M1521.83,174.79c1.11,14.08-4.56,30.35-11.73,39.96c-1.94,2.61-1.4,6.3,1.2,8.25c2.61,1.94,6.3,1.4,8.25-1.2
		c8.59-11.53,15.36-31.05,14.03-47.94c-0.26-3.24-3.1-5.67-6.34-5.41C1524,168.71,1521.57,171.55,1521.83,174.79L1521.83,174.79z"/>
	<path class="st42" d="M1534.56,208.32c-1.08,11.41-6.43,21.86-13.75,31.18c-11.58,14.75-28.1,26.67-42,34.93
		c-2.8,1.66-3.72,5.28-2.06,8.08c1.66,2.8,5.28,3.72,8.08,2.06c15-8.91,32.75-21.86,45.25-37.78c8.74-11.13,14.92-23.71,16.21-37.34
		c0.31-3.24-2.07-6.12-5.31-6.42C1537.75,202.7,1534.87,205.08,1534.56,208.32L1534.56,208.32z"/>
	<path class="st42" d="M1493.35,206.18c-13.5,26.45-41.99,39.22-58.17,44.26c-3.11,0.97-4.84,4.27-3.88,7.38
		c0.97,3.1,4.27,4.84,7.38,3.88c18.2-5.66,49.98-20.39,65.16-50.16c1.48-2.9,0.33-6.45-2.57-7.93
		C1498.38,202.13,1494.83,203.28,1493.35,206.18L1493.35,206.18z"/>
	<path class="st42" d="M1501.06,235.28c-6.96,10.01-24.3,20.9-36.47,26.16c-2.49,1.07-4.75,1.91-6.66,2.42
		c-1.04,0.28-1.86,0.57-2.42,0.47c-3.2-0.6-6.28,1.52-6.88,4.71c-0.6,3.2,1.52,6.28,4.71,6.88c2.92,0.54,8.85-0.6,15.92-3.66
		c13.92-6.02,33.51-18.81,41.47-30.25c1.86-2.67,1.2-6.34-1.47-8.2C1506.59,231.95,1502.92,232.61,1501.06,235.28L1501.06,235.28z"
		/>
	<path class="st42" d="M1560.79,257.9c-9.4,24.92-37.45,58.31-52.6,71.15c-2.48,2.11-2.79,5.83-0.68,8.31
		c2.1,2.48,5.82,2.79,8.31,0.68c16.16-13.7,45.97-49.4,56-75.98c1.15-3.04-0.39-6.45-3.43-7.6
		C1565.35,253.32,1561.94,254.86,1560.79,257.9L1560.79,257.9z"/>
	<path class="st42" d="M1543.74,317.87c-8.67,13.91-29.7,32.87-44.46,39.35c-2.98,1.31-4.33,4.79-3.03,7.77
		c1.31,2.98,4.79,4.33,7.76,3.03c16.49-7.25,40.04-28.37,49.72-43.91c1.72-2.76,0.87-6.4-1.89-8.12
		C1549.09,314.27,1545.45,315.11,1543.74,317.87L1543.74,317.87z"/>
	<path class="st42" d="M1515.15,298.27c-7.05,12.54-23.81,29.5-41.11,42.28c-11.26,8.32-22.74,14.91-31.94,16.99
		c-3.17,0.72-5.17,3.88-4.45,7.05c0.72,3.17,3.88,5.16,7.05,4.45c10.43-2.36,23.57-9.57,36.34-19.01
		c18.75-13.85,36.75-32.39,44.38-45.98c1.6-2.83,0.59-6.43-2.25-8.02C1520.34,294.42,1516.75,295.43,1515.15,298.27L1515.15,298.27z
		"/>
	<path class="st42" d="M1446.18,390.15c-3.11-0.59-6.15,1.4-6.84,4.51c-0.71,3.17,1.3,6.33,4.47,7.03
		c2.36,0.53,7.15-0.03,13.08-2.06c11.1-3.8,27.5-12.25,37.59-20.88c2.47-2.11,2.76-5.84,0.64-8.31c-2.11-2.47-5.84-2.76-8.31-0.64
		c-9.05,7.75-23.78,15.28-33.74,18.69C1450.15,389.49,1446.45,390.11,1446.18,390.15L1446.18,390.15z"/>
	<path class="st42" d="M1580.67,384.42c-15.65,22.98-45.34,54.84-81.39,67.04c-3.08,1.04-4.74,4.39-3.69,7.47
		c1.04,3.08,4.39,4.74,7.47,3.69c38.61-13.07,70.6-46.96,87.36-71.57c1.83-2.69,1.13-6.36-1.56-8.19
		C1586.16,381.03,1582.49,381.73,1580.67,384.42L1580.67,384.42z"/>
	<path class="st42" d="M1546.92,439.84c-13.24,13.88-56.77,36.69-77.83,40.36c-3.2,0.56-5.35,3.61-4.79,6.81
		c0.56,3.2,3.61,5.35,6.81,4.8c22.83-3.97,69.99-28.79,84.34-43.84c2.24-2.35,2.15-6.09-0.2-8.33
		C1552.9,437.4,1549.17,437.48,1546.92,439.84L1546.92,439.84z"/>
	<path class="st42" d="M1472.7,455.15c-18.23,9.75-38.93,10.44-53.44,13.43c-3.19,0.66-5.24,3.78-4.59,6.96
		c0.65,3.18,3.77,5.24,6.96,4.58c15.41-3.17,37.28-4.23,56.63-14.58c2.87-1.53,3.95-5.1,2.42-7.97
		C1479.14,454.7,1475.57,453.61,1472.7,455.15L1472.7,455.15z"/>
	<path class="st42" d="M1453.16,486.88c-15,8.23-28.89,8.71-42.81,7.46c-3.24-0.29-6.1,2.1-6.4,5.34c-0.29,3.24,2.1,6.1,5.34,6.4
		c16.12,1.45,32.16,0.68,49.54-8.86c2.85-1.57,3.89-5.15,2.33-8C1459.59,486.35,1456.01,485.31,1453.16,486.88L1453.16,486.88z"/>
	<path class="st42" d="M1525.66,481.74c-29.61,19.13-77.1,39.06-111.72,37.17c-3.25-0.18-6.03,2.31-6.21,5.56
		c-0.18,3.25,2.31,6.03,5.56,6.21c36.76,2.01,87.32-18.72,118.76-39.04c2.73-1.76,3.52-5.41,1.75-8.15
		C1532.04,480.76,1528.39,479.98,1525.66,481.74L1525.66,481.74z"/>
	<path class="st42" d="M1493.36,563.06c-9.28,5.93-24.19,9.78-40.4,11.92c-24.89,3.29-52.9,2.4-69.34-2.62
		c-3.11-0.95-6.41,0.8-7.36,3.92c-0.95,3.11,0.8,6.41,3.91,7.36c17.62,5.38,47.63,6.56,74.32,3.03c18.18-2.4,34.8-7.03,45.21-13.68
		c2.74-1.75,3.54-5.4,1.79-8.14C1499.75,562.11,1496.1,561.31,1493.36,563.06L1493.36,563.06z"/>
	<path class="st42" d="M1423.79,612.67c-24.64,4.38-46.44-5.23-58.79-12.65c-2.79-1.68-6.41-0.77-8.09,2.01
		c-1.68,2.79-0.77,6.41,2.02,8.09c14.04,8.44,38.9,19.13,66.92,14.15c3.2-0.57,5.34-3.63,4.77-6.83
		C1430.05,614.24,1426.99,612.1,1423.79,612.67L1423.79,612.67z"/>
	<path class="st42" d="M1545.04,571.88c-23.2,18.84-61.33,40.25-101.92,41.05c-3.25,0.06-5.84,2.76-5.77,6.01
		c0.06,3.25,2.75,5.84,6.01,5.78c43.41-0.85,84.3-23.53,109.11-43.69c2.53-2.05,2.91-5.76,0.86-8.29
		C1551.28,570.22,1547.57,569.83,1545.04,571.88L1545.04,571.88z"/>
	<path class="st42" d="M1467.16,632.26c-21.44,5.94-64.5,4.51-86.24-4.93c-2.98-1.29-6.46,0.08-7.75,3.06
		c-1.29,2.98,0.08,6.46,3.06,7.75c23.72,10.29,70.68,11.95,94.07,5.47c3.13-0.87,4.98-4.12,4.11-7.25
		C1473.55,633.24,1470.3,631.39,1467.16,632.26L1467.16,632.26z"/>
	<path class="st42" d="M1318.31,731.32c30.65,35.57,104.34,52.24,155.54,31.42c3.01-1.22,4.46-4.67,3.24-7.68
		c-1.22-3.01-4.67-4.46-7.68-3.24c-46.76,19.01-114.17,4.29-142.17-28.19c-2.12-2.46-5.85-2.74-8.31-0.62
		C1316.46,725.13,1316.19,728.85,1318.31,731.32L1318.31,731.32z"/>
	<path class="st42" d="M1337.91,720.71c6.38,8.15,18.98,15.35,32.55,19.83c13.42,4.44,27.69,6.22,37.33,4.37
		c3.19-0.61,5.29-3.7,4.67-6.9c-0.61-3.2-3.7-5.29-6.9-4.67c-8.12,1.56-20.11-0.25-31.4-3.98c-11.15-3.68-21.72-9.21-26.96-15.91
		c-2.01-2.56-5.71-3.01-8.27-1.01C1336.36,714.44,1335.91,718.15,1337.91,720.71L1337.91,720.71z"/>
	<path class="st42" d="M1321.65,693.86c10.27,8.57,38.14,21.09,66.5,27.59c19.2,4.4,38.6,5.99,52.98,2.22
		c3.15-0.83,5.03-4.05,4.21-7.2c-0.83-3.15-4.05-5.03-7.19-4.2c-12.86,3.37-30.18,1.63-47.35-2.31
		c-26.2-6.01-52.09-17.23-61.58-25.15c-2.5-2.08-6.22-1.75-8.3,0.75C1318.82,688.05,1319.15,691.77,1321.65,693.86L1321.65,693.86z"
		/>
	<path class="st42" d="M1229.68,816.16c3.13,16.11,18.49,33.62,37.54,46.12c18.94,12.43,41.3,19.82,57.67,17.08
		c3.21-0.54,5.37-3.58,4.84-6.78c-0.53-3.21-3.58-5.38-6.78-4.84c-14.04,2.35-33.01-4.65-49.26-15.31
		c-16.13-10.59-29.79-24.88-32.44-38.52c-0.62-3.19-3.72-5.28-6.91-4.66C1231.14,809.87,1229.05,812.96,1229.68,816.16
		L1229.68,816.16z"/>
	<path class="st42" d="M1247.3,800.38c6.6,13.01,24.61,30.29,35.08,33.71c3.09,1.01,6.42-0.68,7.43-3.77
		c1.01-3.09-0.68-6.42-3.77-7.43c-8.54-2.8-22.85-17.24-28.24-27.85c-1.47-2.9-5.02-4.06-7.92-2.59
		C1246.99,793.93,1245.83,797.48,1247.3,800.38L1247.3,800.38z"/>
	<path class="st42" d="M1255.24,777.95c9.47,15.75,28.69,30.86,49.05,41.79c20.43,10.98,41.96,17.71,55.54,17.38
		c3.25-0.08,5.83-2.79,5.75-6.04c-0.08-3.25-2.79-5.83-6.04-5.74c-12.18,0.3-31.35-6.13-49.67-15.97
		c-18.39-9.88-35.98-23.26-44.52-37.48c-1.68-2.79-5.3-3.69-8.09-2.02C1254.47,771.54,1253.57,775.16,1255.24,777.95L1255.24,777.95
		z"/>
	<path class="st42" d="M1294.75,838.65c18.07,14.42,48.03,27.54,77.08,32.86c19.81,3.63,39.19,3.6,54.25-1.72
		c3.07-1.08,4.68-4.45,3.6-7.52c-1.08-3.07-4.45-4.68-7.52-3.59c-13.38,4.72-30.6,4.47-48.2,1.24
		c-27.06-4.96-55.01-17.05-71.86-30.48c-2.54-2.03-6.25-1.61-8.28,0.93C1291.79,832.91,1292.2,836.62,1294.75,838.65L1294.75,838.65
		z"/>
	<path class="st42" d="M1181.9,916.56c22.54,35.22,67.23,58.96,96.63,70.55c3.03,1.19,6.45-0.3,7.64-3.32
		c1.19-3.03-0.29-6.45-3.32-7.65c-27.61-10.88-69.85-32.85-91.02-65.94c-1.75-2.74-5.4-3.54-8.14-1.79
		C1180.95,910.17,1180.15,913.82,1181.9,916.56L1181.9,916.56z"/>
	<path class="st42" d="M1204.12,914.09c15.18,18.74,30.26,27.66,45.51,36.71c2.8,1.66,6.42,0.74,8.08-2.06
		c1.66-2.8,0.74-6.41-2.06-8.08c-14.16-8.41-28.26-16.58-42.36-34c-2.05-2.53-5.76-2.92-8.29-0.87
		C1202.47,907.85,1202.08,911.57,1204.12,914.09L1204.12,914.09z"/>
	<path class="st42" d="M1198.31,877.64c0.76,6.21,6.55,14.51,15.74,22.94c18.79,17.25,51.5,36.74,69.23,44.2
		c3,1.26,6.46-0.15,7.72-3.15c1.26-3-0.15-6.45-3.15-7.72c-16.86-7.09-47.97-25.63-65.84-42.02c-4.28-3.93-7.78-7.7-9.99-11.15
		c-1.07-1.66-1.84-3.16-2.01-4.55c-0.4-3.23-3.34-5.53-6.57-5.13C1200.21,871.46,1197.91,874.41,1198.31,877.64L1198.31,877.64z"/>
	<path class="st42" d="M1264.39,956.82c25.04,18.81,50.88,23.52,72.97,22.76c3.25-0.11,5.8-2.84,5.68-6.1
		c-0.11-3.25-2.84-5.8-6.09-5.68c-19.82,0.68-43.01-3.52-65.48-20.4c-2.6-1.96-6.3-1.43-8.25,1.17
		C1261.26,951.16,1261.79,954.86,1264.39,956.82L1264.39,956.82z"/>
	<path class="st42" d="M1136.71,1004.77c11.28,23.55,37.6,43.57,58.84,53.56c2.94,1.39,6.45,0.12,7.84-2.82
		c1.38-2.94,0.12-6.45-2.82-7.84c-19.12-9-43.07-26.78-53.22-47.99c-1.4-2.93-4.93-4.17-7.86-2.77
		C1136.55,998.32,1135.31,1001.84,1136.71,1004.77L1136.71,1004.77z"/>
	<path class="st42" d="M1159.87,998.98c8.03,14.32,18.71,25.65,27.19,28.98c3.03,1.19,6.45-0.3,7.64-3.33
		c1.19-3.03-0.3-6.45-3.33-7.64c-6.79-2.67-14.77-12.28-21.21-23.77c-1.59-2.84-5.18-3.85-8.02-2.26
		C1159.29,992.55,1158.28,996.15,1159.87,998.98L1159.87,998.98z"/>
	<path class="st42" d="M1197.87,1036.12c15.18,13.44,38.4,26.04,59.43,25.81c3.25-0.03,5.86-2.7,5.83-5.96
		c-0.03-3.25-2.7-5.86-5.96-5.83c-18.28,0.2-38.28-11.16-51.48-22.84c-2.43-2.15-6.16-1.93-8.32,0.51
		C1195.21,1030.24,1195.44,1033.97,1197.87,1036.12L1197.87,1036.12z"/>
</g>
</svg>
