<?xml version="1.0" encoding="utf-8"?>
<!-- Generator: Adobe Illustrator 26.4.1, SVG Export Plug-In . SVG Version: 6.00 Build 0)  -->
<svg version="1.1" id="Layer_1" xmlns="http://www.w3.org/2000/svg" xmlns:xlink="http://www.w3.org/1999/xlink" x="0px" y="0px"
	 viewBox="0 0 2000 2000" style="enable-background:new 0 0 2000 2000;" xml:space="preserve">
<style type="text/css">
	.st0{fill-rule:evenodd;clip-rule:evenodd;fill:#F49E23;}
	.st1{fill-rule:evenodd;clip-rule:evenodd;fill:#D14D36;}
	.st2{fill-rule:evenodd;clip-rule:evenodd;fill:#FDF0D3;}
	.st3{fill-rule:evenodd;clip-rule:evenodd;fill:#0C427E;}
	.st4{fill-rule:evenodd;clip-rule:evenodd;fill:#B45A25;}
	.st5{fill-rule:evenodd;clip-rule:evenodd;fill:#EC8C28;}
	.st6{fill-rule:evenodd;clip-rule:evenodd;fill:#EE9726;}
	.st7{fill-rule:evenodd;clip-rule:evenodd;fill:#302574;}
	.st8{fill-rule:evenodd;clip-rule:evenodd;fill:#F3B953;}
	.st9{fill-rule:evenodd;clip-rule:evenodd;fill:#3D648F;}
	.st10{fill-rule:evenodd;clip-rule:evenodd;fill:#145468;}
	.st11{fill-rule:evenodd;clip-rule:evenodd;fill:#3B7A7A;}
	.st12{fill-rule:evenodd;clip-rule:evenodd;fill:#098B8D;}
	.st13{fill-rule:evenodd;clip-rule:evenodd;fill:#689595;}
	.st14{fill-rule:evenodd;clip-rule:evenodd;fill:#679595;}
	.st15{fill-rule:evenodd;clip-rule:evenodd;fill:#CEE4E4;}
	
		.st16{fill-rule:evenodd;clip-rule:evenodd;fill:#145468;stroke:#CEE4E4;stroke-width:5;stroke-linecap:round;stroke-linejoin:round;stroke-miterlimit:10;}
	.st17{fill-rule:evenodd;clip-rule:evenodd;fill:#043A60;}
	.st18{fill-rule:evenodd;clip-rule:evenodd;fill:#FD9A65;}
	.st19{fill-rule:evenodd;clip-rule:evenodd;fill:#18658D;}
	.st20{fill-rule:evenodd;clip-rule:evenodd;fill:#9FCDE5;}
	.st21{fill-rule:evenodd;clip-rule:evenodd;fill:#56A8D3;}
	.st22{fill-rule:evenodd;clip-rule:evenodd;fill:#276383;}
	.st23{fill-rule:evenodd;clip-rule:evenodd;fill:#E0F0F8;}
	.st24{fill-rule:evenodd;clip-rule:evenodd;fill:#A51E1C;}
	.st25{fill-rule:evenodd;clip-rule:evenodd;fill:#CB442D;}
	.st26{fill-rule:evenodd;clip-rule:evenodd;fill:#DC5A44;}
	.st27{fill-rule:evenodd;clip-rule:evenodd;fill:#F7BD54;}
	.st28{fill-rule:evenodd;clip-rule:evenodd;fill:#E46B37;}
	.st29{fill-rule:evenodd;clip-rule:evenodd;fill:#B67227;}
	.st30{fill-rule:evenodd;clip-rule:evenodd;fill:#D78A35;}
	.st31{fill-rule:evenodd;clip-rule:evenodd;fill:#A4331F;}
	.st32{fill-rule:evenodd;clip-rule:evenodd;fill:#F2A550;}
	.st33{fill-rule:evenodd;clip-rule:evenodd;fill:#F9E9D6;}
	.st34{fill-rule:evenodd;clip-rule:evenodd;fill:#844013;}
	.st35{fill-rule:evenodd;clip-rule:evenodd;fill:#A04E18;}
	.st36{fill-rule:evenodd;clip-rule:evenodd;fill:#F8B872;}
	.st37{fill-rule:evenodd;clip-rule:evenodd;fill:#FFC689;}
	.st38{fill-rule:evenodd;clip-rule:evenodd;fill:#B6844D;}
	.st39{fill-rule:evenodd;clip-rule:evenodd;fill:#CA5320;}
	.st40{fill-rule:evenodd;clip-rule:evenodd;fill:#D76332;}
	.st41{fill-rule:evenodd;clip-rule:evenodd;fill:#812F0C;}
	.st42{fill-rule:evenodd;clip-rule:evenodd;fill:#8A460F;}
	.st43{fill-rule:evenodd;clip-rule:evenodd;fill:#B46914;}
	.st44{fill-rule:evenodd;clip-rule:evenodd;fill:#B54515;}
	.st45{fill-rule:evenodd;clip-rule:evenodd;fill:#FFCD71;}
	.st46{fill-rule:evenodd;clip-rule:evenodd;fill:#95B41D;}
	.st47{fill-rule:evenodd;clip-rule:evenodd;fill:#A8C731;}
	.st48{fill-rule:evenodd;clip-rule:evenodd;fill:#85A214;}
	.st49{fill-rule:evenodd;clip-rule:evenodd;fill:#C6EF28;}
	.st50{fill-rule:evenodd;clip-rule:evenodd;fill:#ED982B;}
	.st51{fill-rule:evenodd;clip-rule:evenodd;fill:#FCCF7C;}
	.st52{fill-rule:evenodd;clip-rule:evenodd;fill:#FFE8BC;}
	.st53{fill-rule:evenodd;clip-rule:evenodd;fill:#ED6961;}
	.st54{fill-rule:evenodd;clip-rule:evenodd;fill:#696E1E;}
	.st55{fill-rule:evenodd;clip-rule:evenodd;fill:#9CA42A;}
	.st56{fill-rule:evenodd;clip-rule:evenodd;fill:#7F8615;}
	.st57{fill-rule:evenodd;clip-rule:evenodd;fill:#FFEECF;}
	.st58{fill-rule:evenodd;clip-rule:evenodd;fill:#77786D;}
	.st59{fill-rule:evenodd;clip-rule:evenodd;fill:#D3D5C6;}
	.st60{fill-rule:evenodd;clip-rule:evenodd;fill:#7C7A7A;}
	.st61{fill-rule:evenodd;clip-rule:evenodd;fill:#DBDCD9;}
	.st62{fill-rule:evenodd;clip-rule:evenodd;fill:#CA372D;}
	.st63{fill-rule:evenodd;clip-rule:evenodd;fill:#FE7D75;}
	.st64{fill-rule:evenodd;clip-rule:evenodd;fill:#B0B0B0;}
	.st65{fill-rule:evenodd;clip-rule:evenodd;fill:#888787;}
	.st66{fill-rule:evenodd;clip-rule:evenodd;fill:#6E6E6E;}
	.st67{fill-rule:evenodd;clip-rule:evenodd;fill:#757575;}
	.st68{fill-rule:evenodd;clip-rule:evenodd;fill:#60341E;}
	.st69{fill-rule:evenodd;clip-rule:evenodd;fill:#B0451B;}
	.st70{fill-rule:evenodd;clip-rule:evenodd;fill:#8A4727;}
	.st71{fill-rule:evenodd;clip-rule:evenodd;fill:#FABB64;}
	.st72{fill-rule:evenodd;clip-rule:evenodd;fill:#3E88AF;}
	.st73{fill-rule:evenodd;clip-rule:evenodd;fill:#5BA0C5;}
	.st74{fill-rule:evenodd;clip-rule:evenodd;fill:#FFF1DE;}
	.st75{fill-rule:evenodd;clip-rule:evenodd;fill:#F8B89B;}
	.st76{fill-rule:evenodd;clip-rule:evenodd;fill:#E98A5F;}
	.st77{fill-rule:evenodd;clip-rule:evenodd;fill:#FFCAB3;}
	.st78{fill-rule:evenodd;clip-rule:evenodd;fill:#F9A580;}
	.st79{fill-rule:evenodd;clip-rule:evenodd;fill:#FFDFD2;}
	.st80{fill-rule:evenodd;clip-rule:evenodd;fill:#E2A85C;}
	.st81{fill-rule:evenodd;clip-rule:evenodd;fill:#C68446;}
	.st82{fill-rule:evenodd;clip-rule:evenodd;fill:#F2BC75;}
	.st83{fill-rule:evenodd;clip-rule:evenodd;fill:#F2BC76;}
	.st84{fill-rule:evenodd;clip-rule:evenodd;fill:#FFD69F;}
	.st85{fill-rule:evenodd;clip-rule:evenodd;fill:#E7624B;}
	.st86{fill-rule:evenodd;clip-rule:evenodd;fill:#F6E8DB;}
	.st87{fill-rule:evenodd;clip-rule:evenodd;fill:#FC9EB6;}
	.st88{fill-rule:evenodd;clip-rule:evenodd;fill:#FFFFFF;}
</style>
<g>
	<path class="st60" d="M501.43,949.13c2.14-0.44,4.97-1.63,8.07-3.99c3.9-2.97,9.12-8.44,14.78-15.34
		c17.41-21.21,40.02-56.53,43.45-64.83c3.55-8.59-0.37-19.85-10.58-28.42c-6.75-5.66-15.91-10.24-24.42-11.96
		c-7.05-1.42-13.71-0.87-18.94,1.6c-5.47,2.59-12.85,9.12-20.37,17.85c-15.53,18.04-32.71,45.46-37,56.45
		c-6.63,16.95,1.11,30.44,12.97,39.1C480.32,947.57,494.71,950.49,501.43,949.13L501.43,949.13z M547.82,857.79
		c-4.22,8.99-24.4,39.76-39.86,58.61c-4.18,5.1-10.12,10.74-11.55,12.07c-0.79-0.04-1.76-0.28-2.82-0.53
		c-3.7-0.87-8.05-2.71-11.75-5.41c-4.45-3.25-8.24-7.99-5.76-14.35c3.85-9.84,19.44-34.22,33.34-50.36
		c5.09-5.92,9.7-10.79,13.4-12.54c1.57-0.74,3.6-0.42,5.73,0.01c5.24,1.06,10.86,3.95,15.02,7.44
		C545.31,854.18,547.2,856.87,547.82,857.79L547.82,857.79z"/>
	<path class="st60" d="M496.03,858.27c0,0-14.62,23.78-14.92,23.6c-6.78-3.88-18.56-13.52-27.54-17.15
		c-0.96-0.39-7.75,12.5-28.85,14.29c-27.06,2.29-52.57-22.25-51.56-57.32c0.65-22.6,17.92-38.18,27.95-40.51
		c14.83-3.43,26.03,7.82,31.49,15.34c2.89,3.98-4.66,14.04-9.96,12.48c-4.64-1.37-10.84-8.67-17.78-2.58
		c-5.17,4.53-7.5,13.32-2.99,22.29c6.99,13.9,19.85,19.56,28.74,16.45c6.36-2.23,12.52-6.42,19.1-16.38
		c1.15-1.74-14.56-11.36-15.93-15.46c-1.26-3.79,3.84-11.47,7.72-9.15c6.38,3.81,19.94,12.02,25.49,18.31
		c2.34,2.65-0.05,13.55,3.92,16.92C477.52,845.05,489.61,854.33,496.03,858.27L496.03,858.27z"/>
	<path class="st61" d="M379.15,838.55c9.46,26.33,37.36,38.47,56.69,31.92c1.61-0.55,2.47-2.29,1.93-3.9
		c-0.55-1.61-2.29-2.47-3.9-1.93c-16.77,5.68-40.71-5.33-48.91-28.18c-0.57-1.6-2.34-2.43-3.94-1.86
		C379.41,835.18,378.58,836.95,379.15,838.55L379.15,838.55z"/>
	<path class="st61" d="M392.59,843.45c1.25,3.88,4.95,7.79,9.23,10.64c4.24,2.82,9.01,4.57,12.16,4.61c1.7,0.02,3.1-1.34,3.12-3.04
		c0.02-1.7-1.34-3.1-3.04-3.12c-2.31-0.03-5.72-1.52-8.83-3.58c-3.06-2.03-5.89-4.65-6.78-7.41c-0.53-1.62-2.26-2.5-3.88-1.98
		C392.96,840.1,392.07,841.84,392.59,843.45L392.59,843.45z"/>
	<path class="st61" d="M416.55,786.46c-4.09-2.91-9.28-3.21-14.47-1.71c-7.06,2.05-14.04,7.46-17.41,12.76
		c-0.91,1.43-0.49,3.34,0.95,4.25c1.44,0.91,3.34,0.49,4.25-0.95c2.68-4.23,8.28-8.52,13.92-10.15c3.28-0.95,6.6-1.03,9.19,0.81
		c1.39,0.98,3.31,0.66,4.29-0.73C418.26,789.37,417.94,787.45,416.55,786.46L416.55,786.46z"/>
	<path class="st61" d="M463.97,924.5c7.2,8.31,17.04,14.73,26.92,15.85c1.69,0.19,3.21-1.02,3.41-2.71
		c0.19-1.69-1.02-3.22-2.71-3.41c-8.46-0.96-16.79-6.64-22.95-13.77c-1.11-1.28-3.06-1.42-4.34-0.31
		C463,921.27,462.86,923.22,463.97,924.5L463.97,924.5z"/>
	<path class="st62" d="M1482.42,1222.04c99.96,6.73,260.96,82.94,242.76,187.37c-23.48,134.8-264.72,206.24-459.63,187.21
		c-152.82-14.92-354.78-133.37-451.84-268.31c-71.91-99.99-43.89-210.23-95.77-301.96C666.82,935.95,551.79,912,519.08,904.07
		c-4.83-1.17,10.14-28.39,15.65-26.46c32.62,11.43,134.24,44.76,184.86,107.23c79.11,97.62,47.87,244.98,124.59,336.9
		c78.46,94.01,203.62,184.58,346.16,227.14c145.56,43.47,498.44,24.32,503.04-161.31c2.29-92.56-167.11-138.78-228.98-141.29
		C1454.35,1245.88,1475.73,1221.59,1482.42,1222.04L1482.42,1222.04z"/>
	<path class="st63" d="M856.96,566.25c-76.48,10.29-261.98,18.21-438.63,85.56C205.1,733.09,76.74,868.79,65.06,1089.41
		c-9.03,170.66,131.67,306.02,399.72,362.46c253.9,53.47,507.32-81.91,673.32-131.74c143.6-43.1,286.47-62.64,350.38-51.07
		c9.14,1.66,26.69-74.14,9.39-78.91c-80.05-22.05-281.36,33.53-379.08,62.88c-152.69,45.87-326.83,114.73-489.76,129.05
		c-130.82,11.5-329.88-33.59-399.84-114.19c-107.54-123.88-99.09-200.24-55.74-323.4c102.33-290.78,550.94-289.35,681.73-316.73
		C875.26,623.56,877.21,563.53,856.96,566.25L856.96,566.25z"/>
	<path class="st62" d="M1627.88,495.53c-5.82,30.28,5.03,57.85,20.7,69.78c19.05,14.5,50.68,6.82,50.68,6.82s-4.4,21.11,9.52,43.72
		c10.59,17.2,31.31,24.18,31.31,24.18s-11.79,12.39-17.59,27.45c-9.22,23.91,2.07,46.72,2.07,46.72s-14.88,1.24-33.96,20.33
		c-13.67,13.67-16.85,34.71-16.85,34.71s-26.43-9.71-52.34,10.81c-18.03,14.29-25.09,45.87-8.74,49.45
		c24.83,5.45,119.42,11.06,157.74-16.77c38.32-27.83,69.44-102.48,72.19-150.19c2.75-47.7-19.88-108.19-55.66-136.03
		C1751.16,498.68,1627.88,495.53,1627.88,495.53L1627.88,495.53z"/>
	<path class="st62" d="M1529.24,467.57c0,0-286.46-6.74-286.6-10.92c-1.25-37.84,1.69-77.3,14.13-79.67
		c37.73-7.17,128.52-1.44,171.18,9.59c12.51,3.23,8.33,58.87,8.33,58.87l21.94,0.65c0,0-1.47-37.05,5.98-39.36
		c6.55-2.03,69.43-0.17,69,8.77C1532.53,429.62,1529.24,467.57,1529.24,467.57L1529.24,467.57z"/>
	<path class="st62" d="M1097.84,424.28c-3.08-12.24-72.69-5.48-87.81,0.55c-5.12,2.04-34.14,43-44.96,53.26
		c-15.62,14.82-74.97,20.23-102.48,49.84c-21.32,22.95-14.02,142.2-9.94,165.66c1.98,11.4,54.89,51.34,80.79,36.98
		c43.56-24.14,180.59-181.85,180.59-181.85S1102.9,444.43,1097.84,424.28L1097.84,424.28z"/>
	<path class="st63" d="M1749.07,480.49c-113-41.62-703.89-95.19-821.12,17.06c-65.14,62.38-53.18,314.72-8.23,352.57
		c105.8,89.08,678.9,51.61,836.94,5.89c62.49-18.08,118.39-99.89,123.81-185.28C1885.44,592.21,1821.44,507.15,1749.07,480.49
		L1749.07,480.49z M1518.17,518.2c20.94-4.52,43.21-6.95,66.3-6.95c121.97,0,221,67.88,221,151.49c0,83.61-99.03,151.49-221,151.49
		c-23.09,0-45.36-2.43-66.3-6.95V518.2L1518.17,518.2z"/>
	<path class="st33" d="M1192.02,518.1c85.12,0,154.22,69.11,154.22,154.22c0,85.12-69.11,154.22-154.22,154.22
		c-85.12,0-154.22-69.11-154.22-154.22C1037.79,587.2,1106.9,518.1,1192.02,518.1L1192.02,518.1z"/>
	<path class="st62" d="M1246.25,729.23c8.92-28.2-26.42-76.57-55.27-77.08c-34.81-0.61-71,48.24-69.53,75.1
		c1.55,28.25,49.41,22.95,67.67,20.5C1208.3,745.17,1236.06,761.42,1246.25,729.23L1246.25,729.23z"/>
	<path class="st62" d="M1130.89,677.5c-13.66,3.5-33.9,2.18-41.43-12.46c-6.66-12.95,8.13-32.71,19.8-35.76
		c17.63-4.6,27.88,6.55,31.12,27.05C1142.13,667.37,1137.65,675.77,1130.89,677.5L1130.89,677.5z"/>
	<path class="st62" d="M1171.22,646.88c-13.14-5.12-28.81-18.01-26.38-34.29c2.15-14.41,25.69-21.83,36.95-17.49
		c17.01,6.55,18.83,21.58,9.49,40.12C1186.25,645.2,1177.71,649.41,1171.22,646.88L1171.22,646.88z"/>
	<path class="st62" d="M1216.49,648.7c-4.51-13.36-4.69-33.65,9.35-42.24c12.42-7.6,33.23,5.68,37.13,17.09
		c5.9,17.24-4.46,28.29-24.66,33.04C1227.44,659.15,1218.72,655.3,1216.49,648.7L1216.49,648.7z"/>
	<path class="st62" d="M1244.1,681.45c3.23-13.73,13.78-31.05,30.24-30.94c14.56,0.1,25.22,22.37,22.51,34.12
		c-4.09,17.76-18.72,21.67-38.39,15.04C1247.87,696.1,1242.5,688.23,1244.1,681.45L1244.1,681.45z"/>
	<path class="st33" d="M1093.44,526.84c-79.86,46.04-104.73,160.66-54.17,229.76c1.81,2.47,5.28,3.01,7.75,1.2
		c2.47-1.81,3-5.28,1.2-7.74c-47.02-64.27-23.51-170.79,50.77-213.61c2.65-1.53,3.56-4.92,2.03-7.57
		C1099.48,526.23,1096.09,525.32,1093.44,526.84L1093.44,526.84z"/>
	<path class="st33" d="M1044.87,561.46c24.9-40.04,76.93-65.41,124.3-61.5c3.05,0.25,5.73-2.02,5.98-5.06
		c0.25-3.05-2.02-5.73-5.07-5.98c-51.31-4.24-107.64,23.31-134.62,66.69c-1.61,2.6-0.82,6.02,1.78,7.63
		C1039.83,564.85,1043.25,564.06,1044.87,561.46L1044.87,561.46z"/>
	<path class="st33" d="M1345.2,603.35c33.83,68.59,6.45,142.42-38.24,185.45c-2.2,2.12-2.27,5.63-0.15,7.84
		c2.12,2.2,5.63,2.27,7.84,0.15c47.77-46,76.66-125.01,40.49-198.34c-1.35-2.74-4.68-3.87-7.42-2.52
		C1344.98,597.28,1343.85,600.61,1345.2,603.35L1345.2,603.35z"/>
	<path class="st33" d="M1381,663.67c2.96,42.58-14.32,85.51-37.46,113.23c-1.96,2.35-1.65,5.84,0.7,7.81
		c2.35,1.96,5.84,1.64,7.8-0.7c24.76-29.64,43.18-75.57,40.02-121.11c-0.21-3.05-2.86-5.35-5.91-5.14
		C1383.1,657.97,1380.79,660.62,1381,663.67L1381,663.67z"/>
	<path class="st33" d="M1594.72,475.95c85.08,0.42,180.02,20.87,226.19,85.29c1.78,2.49,5.25,3.06,7.73,1.28
		c2.49-1.78,3.06-5.25,1.27-7.73c-48.08-67.09-146.54-89.47-235.15-89.91c-3.06-0.02-5.55,2.45-5.57,5.51
		C1589.2,473.44,1591.67,475.94,1594.72,475.95L1594.72,475.95z"/>
	<path class="st33" d="M1700.01,509.27c31.03,4.89,71.86,23.8,96.51,54.71c1.91,2.39,5.4,2.78,7.79,0.88
		c2.39-1.91,2.79-5.4,0.88-7.79c-26.44-33.14-70.18-53.49-103.45-58.74c-3.02-0.48-5.86,1.59-6.34,4.61
		C1694.93,505.96,1696.99,508.8,1700.01,509.27L1700.01,509.27z"/>
	<path class="st33" d="M1820.5,757.14c-31.03,44.82-94.69,75.32-163.51,76.79c-3.06,0.07-5.49,2.6-5.42,5.66
		c0.06,3.06,2.6,5.49,5.66,5.42c72.66-1.55,139.62-34.25,172.38-81.57c1.74-2.52,1.11-5.97-1.4-7.71
		C1825.7,754,1822.24,754.63,1820.5,757.14L1820.5,757.14z"/>
	<path class="st33" d="M1803.67,799.78c-26.39,26.19-62.47,40.84-93.5,45.4c-3.03,0.44-5.12,3.26-4.68,6.29
		c0.44,3.02,3.26,5.12,6.29,4.68c33.1-4.86,71.55-20.56,99.7-48.5c2.17-2.15,2.18-5.66,0.03-7.84
		C1809.35,797.63,1805.84,797.62,1803.67,799.78L1803.67,799.78z"/>
	<path class="st33" d="M1740.03,649.69c-11.61,12.63-14.33,29.78-12.45,48.38c0.2,1.98,1.97,3.43,3.95,3.23
		c1.98-0.2,3.43-1.97,3.23-3.95c-1.66-16.41,0.34-31.63,10.58-42.78c1.35-1.47,1.25-3.75-0.21-5.1
		C1743.66,648.13,1741.38,648.22,1740.03,649.69L1740.03,649.69z"/>
	<path class="st33" d="M1746.3,661.04c-6.16,6.82-9.05,19.51-8.56,29.09c0.1,1.99,1.8,3.52,3.79,3.42c1.99-0.1,3.52-1.8,3.42-3.79
		c-0.4-7.84,1.67-18.31,6.71-23.89c1.33-1.48,1.22-3.76-0.26-5.09C1749.92,659.44,1747.63,659.56,1746.3,661.04L1746.3,661.04z"/>
	<path class="st33" d="M1705.8,586.43c0.47,17.07,11.9,36.03,26.85,43.72c1.77,0.91,3.95,0.21,4.86-1.56
		c0.91-1.77,0.21-3.95-1.55-4.86c-12.81-6.59-22.54-22.88-22.94-37.51c-0.05-1.99-1.71-3.56-3.71-3.51
		C1707.32,582.78,1705.75,584.44,1705.8,586.43L1705.8,586.43z"/>
	<path class="st33" d="M1721.65,720.32c-16.92,4.71-34.27,19.94-40.78,39.32c-0.63,1.88,0.38,3.93,2.27,4.57
		c1.89,0.63,3.94-0.38,4.57-2.27c5.73-17.06,20.97-30.52,35.87-34.67c1.92-0.53,3.04-2.52,2.51-4.44
		C1725.56,720.91,1723.57,719.79,1721.65,720.32L1721.65,720.32z"/>
	<path class="st33" d="M1722.01,733.49c-11.4,3.28-22.24,12.48-26.16,20.04c-0.91,1.77-0.22,3.94,1.55,4.86
		c1.77,0.91,3.95,0.22,4.86-1.55c3.23-6.25,12.32-13.71,21.74-16.42c1.91-0.55,3.02-2.55,2.47-4.46
		C1725.92,734.05,1723.92,732.94,1722.01,733.49L1722.01,733.49z"/>
	<path class="st33" d="M1638.31,542.01c5.03,10.22,15.16,18.26,25.23,22.5c6.96,2.93,13.9,4.02,19.16,3.03
		c1.96-0.37,3.25-2.25,2.88-4.21s-2.25-3.25-4.21-2.88c-4.14,0.78-9.56-0.28-15.04-2.59c-8.57-3.61-17.28-10.35-21.56-19.04
		c-0.88-1.79-3.05-2.52-4.83-1.64C1638.17,538.05,1637.43,540.22,1638.31,542.01L1638.31,542.01z"/>
	<path class="st33" d="M1665.69,771.28c-10.23-0.75-31.4,3.23-42.14,15.47c-1.31,1.5-1.16,3.78,0.33,5.09
		c1.5,1.31,3.78,1.16,5.09-0.33c9.2-10.49,27.42-13.67,36.19-13.03c1.99,0.14,3.72-1.35,3.86-3.34
		C1669.17,773.15,1667.67,771.42,1665.69,771.28L1665.69,771.28z"/>
	<path class="st33" d="M1300.54,393.42c17.73,0.76,53.2,2.28,77.43,4.6c3.04,0.29,5.75-1.94,6.04-4.99
		c0.29-3.04-1.95-5.75-4.99-6.04c-24.4-2.33-60.14-3.87-78-4.64c-3.06-0.13-5.64,2.24-5.78,5.3
		C1295.11,390.7,1297.48,393.29,1300.54,393.42L1300.54,393.42z"/>
	<path class="st33" d="M1346.24,413.43c22.85,0.78,45.78,3.83,64.79,3.73c3.06-0.02,5.53-2.51,5.51-5.57
		c-0.02-3.06-2.51-5.53-5.57-5.51c-18.88,0.1-41.66-2.94-64.35-3.72c-3.06-0.11-5.62,2.29-5.73,5.35
		C1340.79,410.76,1343.19,413.32,1346.24,413.43L1346.24,413.43z"/>
	<path class="st33" d="M864.02,536.37c-1.28,1.92-2.93,6.63-4.35,12.74c-2.95,12.71-5.48,31.94-4.69,40.58
		c0.28,3.04,2.98,5.29,6.03,5.01c3.05-0.28,5.29-2.98,5.01-6.03c-0.72-7.9,1.76-25.44,4.45-37.06c1-4.32,1.88-7.75,2.79-9.11
		c1.69-2.55,1-5.99-1.55-7.68C869.15,533.13,865.71,533.83,864.02,536.37L864.02,536.37z"/>
	<path class="st33" d="M879.34,543.25c-8.44,15.8-10.91,59.03-10.15,73.06c0.16,3.05,2.78,5.4,5.83,5.23
		c3.05-0.17,5.4-2.78,5.23-5.83c-0.7-12.89,1.1-52.71,8.86-67.23c1.44-2.7,0.42-6.06-2.28-7.5
		C884.14,539.53,880.78,540.56,879.34,543.25L879.34,543.25z"/>
	<path class="st33" d="M929.87,844.96c63.03,26.9,126.04,26.31,170.35,32.03c3.03,0.39,5.81-1.75,6.2-4.79
		c0.39-3.03-1.75-5.81-4.79-6.2c-43.54-5.62-105.49-4.8-167.42-31.23c-2.81-1.2-6.07,0.11-7.27,2.92
		C925.75,840.5,927.06,843.76,929.87,844.96L929.87,844.96z"/>
	<path class="st33" d="M961.58,834.17c41.69,15.56,90.25,18.09,114.53,19.32c3.06,0.16,5.66-2.2,5.81-5.25
		c0.16-3.06-2.2-5.66-5.25-5.82c-23.58-1.2-70.75-3.53-111.22-18.64c-2.86-1.07-6.06,0.39-7.13,3.26
		C957.26,829.91,958.72,833.1,961.58,834.17L961.58,834.17z"/>
	<path class="st33" d="M170.38,839.14c-68.67,76.73-104.9,206.1-78.32,303.5c0.81,2.95,3.85,4.69,6.8,3.89
		c2.95-0.8,4.69-3.86,3.89-6.81c-25.68-94.11,9.54-219.06,75.89-293.19c2.04-2.28,1.85-5.79-0.43-7.83
		C175.92,836.67,172.41,836.86,170.38,839.14L170.38,839.14z"/>
	<path class="st33" d="M145.65,919.72c-26.36,38.73-52.46,123.37-37.11,179.98c0.8,2.95,3.85,4.7,6.8,3.9c2.95-0.8,4.7-3.85,3.9-6.8
		c-14.57-53.76,10.54-134.07,35.58-170.85c1.72-2.53,1.06-5.98-1.46-7.7C150.83,916.53,147.38,917.19,145.65,919.72L145.65,919.72z"
		/>
	<path class="st33" d="M353.57,702.47c66.11-32.56,125.47-51.35,179.57-66.26c2.95-0.81,4.68-3.86,3.87-6.81
		c-0.81-2.95-3.86-4.68-6.81-3.87c-54.69,15.07-114.69,34.08-181.52,67c-2.74,1.35-3.87,4.68-2.52,7.42
		C347.5,702.69,350.83,703.82,353.57,702.47L353.57,702.47z"/>
	<path class="st33" d="M441.63,685.29c54.68-23.29,103.43-33.19,155.03-43.37c3-0.59,4.96-3.51,4.36-6.51
		c-0.59-3-3.51-4.96-6.51-4.36c-52.34,10.33-101.77,20.42-157.23,44.05c-2.81,1.2-4.12,4.46-2.93,7.27
		C435.56,685.18,438.82,686.49,441.63,685.29L441.63,685.29z"/>
	<path class="st33" d="M621.89,1412.37c109.9-0.18,267.6-56.77,343.05-85.48c2.86-1.09,4.3-4.29,3.21-7.15
		c-1.09-2.86-4.29-4.3-7.15-3.21c-74.61,28.39-230.47,84.57-339.13,84.76c-3.06,0-5.54,2.49-5.53,5.55
		C616.34,1409.9,618.83,1412.37,621.89,1412.37L621.89,1412.37z"/>
	<path class="st33" d="M750.99,1417.81c76.54-13.97,135.25-40.27,183.43-59.3c2.84-1.13,4.24-4.35,3.12-7.19
		c-1.12-2.85-4.35-4.24-7.19-3.12c-47.63,18.82-105.67,44.9-181.35,58.71c-3.01,0.55-5,3.44-4.46,6.45
		C745.1,1416.36,747.98,1418.36,750.99,1417.81L750.99,1417.81z"/>
	<path class="st33" d="M1213.75,1254.89c79.39-29.28,169.5-41.64,219.2-44.32c3.05-0.16,5.4-2.78,5.23-5.83
		c-0.16-3.06-2.78-5.4-5.83-5.24c-50.44,2.72-141.88,15.28-222.44,44.99c-2.87,1.06-4.34,4.24-3.28,7.11
		C1207.69,1254.48,1210.88,1255.95,1213.75,1254.89L1213.75,1254.89z"/>
	<path class="st33" d="M1300.51,1249.07c45.27-10.27,101.79-23.42,154.32-20.58c3.05,0.16,5.67-2.18,5.83-5.23
		c0.16-3.05-2.18-5.67-5.23-5.83c-53.56-2.89-111.21,10.38-157.36,20.84c-2.98,0.68-4.85,3.64-4.18,6.63
		C1294.56,1247.87,1297.53,1249.75,1300.51,1249.07L1300.51,1249.07z"/>
	<path class="st33" d="M1297.72,1586.39c46.88,4.29,82.59,3.67,118.45-2.49c3.02-0.52,5.04-3.38,4.52-6.4
		c-0.52-3.01-3.38-5.04-6.4-4.52c-34.98,6.01-69.82,6.57-115.56,2.38c-3.04-0.28-5.74,1.97-6.02,5.01
		C1292.43,1583.41,1294.68,1586.11,1297.72,1586.39L1297.72,1586.39z"/>
	<path class="st33" d="M982.1,1470.32c27.28,20.76,38.48,27.13,61.01,37.44c2.78,1.27,6.07,0.05,7.34-2.74
		c1.27-2.78,0.05-6.07-2.73-7.35c-21.77-9.95-32.57-16.14-58.91-36.18c-2.43-1.85-5.91-1.38-7.76,1.06
		C979.2,1464.99,979.67,1468.47,982.1,1470.32L982.1,1470.32z"/>
	<path class="st33" d="M538.92,898.8c29.14,9.25,48.86,14.23,71.18,27.21c2.64,1.54,6.04,0.64,7.58-2.01
		c1.54-2.64,0.64-6.04-2.01-7.58c-23.03-13.39-43.33-18.65-73.39-28.19c-2.92-0.92-6.03,0.69-6.96,3.61
		C534.39,894.76,536,897.87,538.92,898.8L538.92,898.8z"/>
</g>
</svg>
